<svg width="300mm" height="200mm" viewBox="0 0 300 200" xmlns="http://www.w3.org/2000/svg">
    <path
        d="M29.359 199.518c-13.805-1.708-24.298-9.68-28.18-21.413-1.574-4.755-1.57-151.501.003-156.3C4.742 10.947 14.585 2.962 27.131.752c6.507-1.146 242.626-.918 247.406.239 11.99 2.902 20.916 10.554 24.28 20.812 1.574 4.8 1.578 151.546.006 156.3-3.413 10.313-11.901 17.617-24.285 20.897-3.523.933-237.82 1.427-245.179.517zm241.85-21.77c4.203-1.897 3.882 4.54 3.883-77.78 0-82.477.338-75.81-3.925-77.77-2.957-1.359-239.377-1.359-242.334 0-4.263 1.96-3.926-4.707-3.925 77.77.001 82.32-.32 75.883 3.882 77.78 3.025 1.366 239.395 1.366 242.42 0zM93.014 144.014c-58.226-7.377-59.699-79.034-1.802-87.709 24.14-3.616 51.37 9.397 41.912 20.029-4.222 4.745-8.506 4.943-16.53.765-25.227-13.136-55.43 7.65-46.088 31.716 5.476 14.11 24.858 21.832 40.912 16.303 3.279-1.129 3.279-1.129 3.435-6.903.155-5.773.155-5.773-10.564-5.93-9.915-.143-10.898-.237-13.104-1.247-7.85-3.594-6.805-13.106 1.71-15.544 3.832-1.097 31.32-1.12 34.928-.028 2.885.872 5.347 2.738 6.401 4.852 1.22 2.445 1.101 29.652-.14 31.894-3.935 7.11-26.63 13.631-41.07 11.802zm61.157-.607c-6.116-2.407-5.838-.334-5.838-43.554 0-37.331 0-37.331 1.251-39.454 3.686-6.255 13.827-6.255 17.513 0 1.784 3.028 1.973 75.6.205 78.9-2.34 4.37-7.983 6.135-13.131 4.108zm37.806.245a10.777 10.777 0 01-5.137-4.248c-.911-1.429-.979-4.15-.979-39.429 0-43.369-.347-40.643 5.494-43.138 4.174-1.784 50.769-1.883 54.845-.118 7.296 3.16 7.296 11.855 0 15.015-2.422 1.049-2.885 1.072-21.261 1.072-18.785 0-18.785 0-18.785 9.295s0 9.295 14.615 9.295c14.053 0 14.71.041 17.092 1.072 7.296 3.16 7.296 11.855 0 15.015-2.38 1.03-3.04 1.072-17.062 1.072-14.586 0-14.586 0-14.755 14.657-.164 14.296-.2 14.704-1.449 16.572-2.506 3.748-8.402 5.555-12.618 3.868z" />
</svg>