<?xml version="1.0" encoding="UTF-8" standalone="no"?>
<svg
   id="Layer_1"
   data-name="Layer 1"
   viewBox="0 0 228.39999 75.090004"
   version="1.1"
   sodipodi:docname="saito-text.svg"
   width="228.39999"
   height="75.090004"
   inkscape:version="1.4 (e7c3feb100, 2024-10-09)"
   xmlns:inkscape="http://www.inkscape.org/namespaces/inkscape"
   xmlns:sodipodi="http://sodipodi.sourceforge.net/DTD/sodipodi-0.dtd"
   xmlns="http://www.w3.org/2000/svg"
   xmlns:svg="http://www.w3.org/2000/svg"
   xmlns:rdf="http://www.w3.org/1999/02/22-rdf-syntax-ns#"
   xmlns:cc="http://creativecommons.org/ns#"
   xmlns:dc="http://purl.org/dc/elements/1.1/">
  <sodipodi:namedview
     id="namedview6"
     pagecolor="#ffffff"
     bordercolor="#000000"
     borderopacity="0.25"
     inkscape:showpageshadow="2"
     inkscape:pageopacity="0.0"
     inkscape:pagecheckerboard="true"
     inkscape:deskcolor="#d1d1d1"
     inkscape:zoom="5.2388451"
     inkscape:cx="40.180611"
     inkscape:cy="37.603707"
     inkscape:window-width="3840"
     inkscape:window-height="2117"
     inkscape:window-x="0"
     inkscape:window-y="0"
     inkscape:window-maximized="1"
     inkscape:current-layer="Layer_1" />
  <defs
     id="defs1">
    <style
       id="style1">.cls-1{fill:#fff;}</style>
  </defs>
  <title
     id="title1">Saito Horizontal Secondary Logo White RGB</title>
  <path
     class="cls-1"
     d="m 13.29,49.540006 -13.29,7.67 c 3.29,10.79 13.84,17.88 27.55,17.88 15.59,0 27.88,-9 27.88,-24.27 0,-14.36 -10.53,-19.62 -22.52,-22.52 l -2.66,-0.64 c -8.13,-2 -13.44,-3.91 -13.44,-8.86 0,-4 3.82,-6.61 9.29,-6.61 6.76,0 10.73,3.81 11.83,9.92 l 1.23,0.4 11.87,-6.85 C 47.87,6.790006 39.67,0.74000597 26.31,0.74000597 c -14,0 -24.48,7.12000003 -24.48,19.00000003 0,8.64 5.06,13.69 12.78,16.95 a 55.53,55.53 0 0 0 8.7,2.77 c 1.81,0.43 3.56,0.85 5.18,1.31 6.66,1.88 11.45,4.45 11.45,11.09 0,6.64 -4.86,10.22 -11.57,10.22 -7.27,0 -12.9,-4.22 -14,-12.2 z"
     id="path2" />
  <path
     class="cls-1"
     d="m 111.02,63.090006 a 4.71,4.71 0 0 1 -2,0.32 c -2.27,0 -3.72,-1.55 -3.72,-4.86 v -18.48 c 0,-12.19 -9.29,-18.69 -22,-18.69 -10.74,0 -19.21,5.37 -21.38,15.9 l 0.52,0.62 12.18,1 c 0.62,-4.33 3.62,-7.12 8.47,-7.12 5.37,0 8.47,2.68 8.47,7.43 v 2.33 l -13.91,1.42 c -11.15,1.13 -18.17,6.91 -18.17,16.41 0,9.82 7.64,15.71 16.41,15.71 6.92,0 11.67,-2.79 16.22,-7.45 h 0.72 c 2.37,5.28 6.92,7 11.57,7 a 22.2,22.2 0 0 0 7.12,-1 v -9.92 z m -19.37,-6.55 c -3.72,4.76 -7.22,7.55 -12.39,7.55 -3.61,0 -6.4,-2.07 -6.4,-5.58 0,-3.51 2.58,-5.89 7.43,-6.51 l 11.36,-1.41 z"
     id="path3" />
  <rect
     class="cls-1"
     x="116.37"
     y="22.410006"
     width="14.46"
     height="51.630001"
     id="rect3" />
  <path
     class="cls-1"
     d="M 123.65,5.9665914e-6 A 8.37,8.37 0 1 0 132.01,8.360006 8.46,8.46 0 0 0 123.65,5.9665914e-6 Z"
     id="path4" />
  <path
     class="cls-1"
     d="m 159.14,34.390006 v 23.75 c 0,3.41 2.07,5.16 5.57,5.16 a 13.17,13.17 0 0 0 4.14,-0.76 l 0.72,0.42 v 11 a 36.12,36.12 0 0 1 -9.08,1 c -9.2,0 -15.71,-4.75 -15.71,-15.69 v -25 h -9.13 v -12 h 9.18 v -12.68 l 13,-7.53 h 1.33 v 20.35 h 10.95 v 12 z"
     id="path5" />
  <path
     class="cls-1"
     d="m 200.21,21.380006 c -16.42,0 -28.09,11.46 -28.09,26.84 0,15.38 11.67,26.86 28.09,26.86 16.42,0 28.19,-11.47 28.19,-26.86 0,-15.39 -11.67,-26.84 -28.19,-26.84 z m 0,41.2 c -7.85,0 -13.63,-5.38 -13.63,-14.36 0,-8.98 5.78,-14.35 13.63,-14.35 7.85,0 13.73,5.37 13.73,14.35 0,8.98 -5.89,14.32 -13.73,14.32 z"
     id="path6" />
  <metadata
     id="metadata6">
    <rdf:RDF>
      <cc:Work
         rdf:about="">
        <dc:title>Saito Horizontal Secondary Logo White RGB</dc:title>
      </cc:Work>
    </rdf:RDF>
  </metadata>
</svg>
