<svg version="1.1" xmlns="http://www.w3.org/2000/svg" xmlns:xlink="http://www.w3.org/1999/xlink" width="189.2634" height="298.34372" viewBox="0,0,189.2634,298.34372"><defs><linearGradient x1="294.5544" y1="143.75426" x2="393.94209" y2="143.75426" gradientUnits="userSpaceOnUse" id="color-1"><stop offset="0" stop-color="#fcff66" stop-opacity="0.6"/><stop offset="1" stop-color="#1c9aff" stop-opacity="0.6549"/></linearGradient><linearGradient x1="293.75586" y1="225.43701" x2="393.14354" y2="225.43701" gradientUnits="userSpaceOnUse" id="color-2"><stop offset="0" stop-color="#fcff66" stop-opacity="0.6"/><stop offset="1" stop-color="#1c9aff" stop-opacity="0.6549"/></linearGradient><linearGradient x1="287.15477" y1="114.92719" x2="386.54242" y2="114.92719" gradientUnits="userSpaceOnUse" id="color-3"><stop offset="0" stop-color="#fcff66" stop-opacity="0.6"/><stop offset="1" stop-color="#1c9aff" stop-opacity="0.6549"/></linearGradient><linearGradient x1="287.33408" y1="250.98463" x2="386.72173" y2="250.98463" gradientUnits="userSpaceOnUse" id="color-4"><stop offset="0" stop-color="#fcff66" stop-opacity="0.6"/><stop offset="1" stop-color="#1c9aff" stop-opacity="0.6549"/></linearGradient><linearGradient x1="251.57248" y1="62.72082" x2="306.46628" y2="62.72082" gradientUnits="userSpaceOnUse" id="color-5"><stop offset="0" stop-color="#fcff66" stop-opacity="0.6"/><stop offset="1" stop-color="#1c9aff" stop-opacity="0.6549"/></linearGradient><linearGradient x1="251.68305" y1="303.88036" x2="308.53261" y2="303.88036" gradientUnits="userSpaceOnUse" id="color-6"><stop offset="0" stop-color="#fcff66" stop-opacity="0.6"/><stop offset="1" stop-color="#1c9aff" stop-opacity="0.6549"/></linearGradient><linearGradient x1="244.56892" y1="39.54286" x2="253.3699" y2="39.54286" gradientUnits="userSpaceOnUse" id="color-7"><stop offset="0" stop-color="#fcff66" stop-opacity="0.6"/><stop offset="1" stop-color="#1c9aff" stop-opacity="0.6549"/></linearGradient><linearGradient x1="241.14632" y1="326.79692" x2="250.43624" y2="326.79692" gradientUnits="userSpaceOnUse" id="color-8"><stop offset="0" stop-color="#fcff66" stop-opacity="0.6"/><stop offset="1" stop-color="#1c9aff" stop-opacity="0.6549"/></linearGradient><linearGradient x1="327.02207" y1="185.00005" x2="426.40976" y2="185.00005" gradientUnits="userSpaceOnUse" id="color-9"><stop offset="0" stop-color="#fcff66" stop-opacity="0.6"/><stop offset="1" stop-color="#1c9aff" stop-opacity="0.6549"/></linearGradient></defs><g transform="translate(-239.14631,-34.12026)"><g data-paper-data="{&quot;isPaintingLayer&quot;:true}" fill-rule="nonzero" stroke="#fbff38" stroke-width="4" stroke-linecap="butt" stroke-linejoin="miter" stroke-miterlimit="10" stroke-dasharray="" stroke-dashoffset="0" style="mix-blend-mode: normal"><path d="M294.5544,143.1995c0,-3.60129 2.31483,-10.54021 6.21173,-10.54021c18.32233,0 71.61875,0 83.72328,0c4.75892,0 9.45263,6.05003 9.45263,9.43072c0,3.93228 -3.46054,12.7592 -6.75188,12.7592c-10.68089,0 -68.49954,0 -86.96418,0c-3.57228,0 -5.67158,-7.86362 -5.67158,-11.6497z" fill="url(#color-1)"/><path d="M293.75586,224.8823c0,-3.60129 2.31483,-10.54021 6.21173,-10.54021c18.32233,0 71.61875,0 83.72328,0c4.75892,0 9.45262,6.05002 9.45262,9.43071c0,3.93228 -3.46054,12.7592 -6.75187,12.7592c-10.68089,0 -68.49954,0 -86.96418,0c-3.57228,0 -5.67157,-7.86361 -5.67157,-11.6497z" fill="url(#color-2)"/><path d="M287.15477,114.50693c0,-2.72815 2.31483,-7.9847 6.21173,-7.9847c18.32233,0 71.61875,0 83.72328,0c4.75892,0 9.45263,4.58318 9.45263,7.1442c0,2.97888 -3.46054,9.66568 -6.75188,9.66568c-10.68089,0 -68.49954,0 -86.96418,0c-3.57228,0 -5.67158,-5.95706 -5.67158,-8.82519z" fill="url(#color-3)"/><path d="M287.33408,250.59604c0,-2.5227 2.31483,-7.3834 6.21173,-7.3834c18.32233,0 71.61875,0 83.72328,0c4.75892,0 9.45262,4.23803 9.45262,6.6062c0,2.75456 -3.46054,8.93778 -6.75187,8.93778c-10.68089,0 -68.49954,0 -86.96418,0c-3.57228,0 -5.67157,-5.50843 -5.67157,-8.16058z" fill="url(#color-4)"/><path d="M251.57249,62.12945c0,-3.83909 0.95967,-11.23617 2.57521,-11.23617c3.3579,0 10.03821,13.20146 16.33521,13.20146c7.94752,0 15.57434,-13.20146 18.37418,-13.20146c1.97292,0 17.60921,8.89423 17.60921,12.49813c0,4.19192 -15.12506,11.15695 -16.48956,11.15695c-4.42801,0 -28.39804,0 -36.05298,0c-1.48097,0 -2.35128,-8.38285 -2.35128,-12.41892z" fill="url(#color-5)"/><path d="M251.68305,303.289c0,-3.83909 0.95966,-11.23618 2.57521,-11.23618c7.59594,0 29.69118,0 34.70939,0c1.97292,0 19.56499,5.96057 19.56499,9.56447c0,4.19192 -17.08083,14.09062 -18.44533,14.09062c-2.34364,0 -10.6506,-9.28992 -18.62652,-9.28992c-7.09357,0 -13.82309,9.28992 -17.42646,9.28992c-1.48097,0 -2.35128,-8.38286 -2.35128,-12.41893z" fill="url(#color-6)"/><path d="M244.56892,42.96546v-6.8452h8.80098v6.8452z" fill="url(#color-7)"/><path d="M241.14632,330.46398v-7.33415h9.28992v7.33415z" fill="url(#color-8)"/><path d="M327.02207,184.38497c0,-3.99311 2.31483,-11.68698 6.21173,-11.68698c18.32233,0 71.61875,0 83.72328,0c4.75892,0 9.45263,6.70827 9.45263,10.45676c0,4.3601 -3.46054,14.14739 -6.75188,14.14739c-10.68089,0 -68.49954,0 -86.96418,0c-3.57228,0 -5.67158,-8.71917 -5.67158,-12.91718z" fill="url(#color-9)"/></g></g></svg>