<svg version="1.1" xmlns="http://www.w3.org/2000/svg" xmlns:xlink="http://www.w3.org/1999/xlink" width="110.98204" height="162.01321" viewBox="0,0,110.98204,162.01321"><g transform="translate(-202.15471,-96.63275)"><g data-paper-data="{&quot;isPaintingLayer&quot;:true}" fill-rule="nonzero" stroke="#ffffff" stroke-linecap="butt" stroke-linejoin="miter" stroke-miterlimit="10" stroke-dasharray="" stroke-dashoffset="0" style="mix-blend-mode: normal"><path d="M211.99911,138.19945c0,-3.60129 2.31483,-10.54021 6.21173,-10.54021c18.32233,0 71.61875,0 83.72328,0c4.75892,0 9.45263,6.05003 9.45263,9.43072c0,3.93228 -3.46054,12.7592 -6.75188,12.7592c-10.68089,0 -68.49954,0 -86.96418,0c-3.57228,0 -5.67158,-7.86362 -5.67158,-11.6497z" fill="#ffc4ce" stroke-width="3.5"/><path d="M211.20056,219.88222c0,-3.60129 2.31483,-10.54021 6.21173,-10.54021c18.32233,0 71.61875,0 83.72328,0c4.75892,0 9.45262,6.05002 9.45262,9.43071c0,3.93228 -3.46054,12.7592 -6.75187,12.7592c-10.68089,0 -68.49954,0 -86.96418,0c-3.57228,0 -5.67157,-7.86361 -5.67157,-11.6497z" fill="#ffc4ce" stroke-width="4"/><path d="M202.15471,105.13035c0,-2.90339 2.31483,-8.4976 6.21173,-8.4976c18.32233,0 71.61875,0 83.72328,0c4.75892,0 9.45263,4.87758 9.45263,7.60311c0,3.17023 -3.46054,10.28656 -6.75188,10.28656c-10.68089,0 -68.49954,0 -86.96418,0c-3.57228,0 -5.67158,-6.33972 -5.67158,-9.39208z" fill="#ff6666" stroke-width="0"/><path d="M202.33405,249.96119c0,-2.68475 2.31483,-7.85768 6.21173,-7.85768c18.32233,0 71.61875,0 83.72328,0c4.75892,0 9.45262,4.51026 9.45262,7.03055c0,2.9315 -3.46054,9.5119 -6.75187,9.5119c-10.68089,0 -68.49954,0 -86.96418,0c-3.57228,0 -5.67157,-5.86227 -5.67157,-8.68478z" fill="#ff6666" stroke-width="0"/></g></g></svg>