<svg version="1.1" xmlns="http://www.w3.org/2000/svg" xmlns:xlink="http://www.w3.org/1999/xlink" width="190.68224" height="177.11308" viewBox="0,0,190.68224,177.11308"><g transform="translate(-224.65888,-91.44346)"><g data-paper-data="{&quot;isPaintingLayer&quot;:true}" fill-rule="nonzero" stroke="none" stroke-width="0" stroke-linecap="butt" stroke-linejoin="miter" stroke-miterlimit="10" stroke-dasharray="" stroke-dashoffset="0" style="mix-blend-mode: normal"><path d="M415.34113,180.00001c0,48.90843 -42.68567,88.55654 -95.34112,88.55654c-52.65544,0 -95.34112,-39.64811 -95.34112,-88.55654c0,-48.90843 42.68567,-88.55654 95.34112,-88.55654c52.65544,0 95.34112,39.64811 95.34112,88.55654z" fill="none"/><path d="M354.95654,157.86086c0.10726,0 0.1942,0.34779 0.1942,0.77681c0,0.42902 -0.08695,0.77681 -0.1942,0.77681c-0.10726,0 -0.1942,-0.34779 -0.1942,-0.77681c0,-0.42902 0.08695,-0.77681 0.1942,-0.77681z" fill="#ff3f3f"/><path d="M393.37683,180c0,40.47723 -32.85192,73.29052 -73.37683,73.29052c-40.5249,0 -73.37683,-32.81328 -73.37683,-73.29052c0,-40.47723 32.85192,-73.29052 73.37683,-73.29052c40.5249,0 73.37683,32.81329 73.37683,73.29052z" fill-opacity="0.46667" fill="#ff6666"/><path d="M377.3627,180c0,31.64327 -25.68215,57.29522 -57.36269,57.29522c-31.68054,0 -57.36269,-25.65195 -57.36269,-57.29522c0,-31.64327 25.68215,-57.29522 57.36269,-57.29522c31.68054,0 57.36269,25.65195 57.36269,57.29522z" fill-opacity="0.46667" fill="#ff6666"/><path d="M354.37683,180c0,18.96346 -15.39103,34.33639 -34.37683,34.33639c-18.9858,0 -34.37682,-15.37292 -34.37682,-34.33639c0,-18.96346 15.39103,-34.33639 34.37682,-34.33639c18.9858,0 34.37683,15.37293 34.37683,34.33639z" fill-opacity="0.46667" fill="#ff6666"/></g></g></svg>