<svg version="1.1" xmlns="http://www.w3.org/2000/svg" xmlns:xlink="http://www.w3.org/1999/xlink" width="227" height="294.84373" viewBox="0,0,227,294.84373"><defs><radialGradient cx="265.50653" cy="136.97743" r="55.85315" gradientUnits="userSpaceOnUse" id="color-1"><stop offset="0" stop-color="#f8ffa1"/><stop offset="1" stop-color="#e479ff"/></radialGradient><radialGradient cx="264.60899" cy="221.52393" r="55.85315" gradientUnits="userSpaceOnUse" id="color-2"><stop offset="0" stop-color="#f8ffa1"/><stop offset="1" stop-color="#e479ff"/></radialGradient><radialGradient cx="251.84854" cy="109.92716" r="49.69382" gradientUnits="userSpaceOnUse" id="color-3"><stop offset="0" stop-color="#fecf00"/><stop offset="1" stop-color="#8280ff"/></radialGradient><radialGradient cx="252.02787" cy="245.98459" r="49.69382" gradientUnits="userSpaceOnUse" id="color-4"><stop offset="0" stop-color="#fecf00"/><stop offset="1" stop-color="#8280ff"/></radialGradient><radialGradient cx="216.79913" cy="57.72081" r="45.39764" gradientUnits="userSpaceOnUse" id="color-5"><stop offset="0" stop-color="#ff81e5"/><stop offset="1" stop-color="#8281ff"/></radialGradient><radialGradient cx="218.59947" cy="298.88032" r="47.01508" gradientUnits="userSpaceOnUse" id="color-6"><stop offset="0" stop-color="#ff81e5"/><stop offset="1" stop-color="#8281ff"/></radialGradient><radialGradient cx="291.7159" cy="180.00001" r="49.69382" gradientUnits="userSpaceOnUse" id="color-7"><stop offset="0" stop-color="#fecf00"/><stop offset="1" stop-color="#e479ff"/></radialGradient></defs><g transform="translate(-151.21346,-30.87025)"><g data-paper-data="{&quot;isPaintingLayer&quot;:true}" fill-rule="nonzero" stroke-linecap="butt" stroke-linejoin="miter" stroke-miterlimit="10" stroke-dasharray="" stroke-dashoffset="0" style="mix-blend-mode: normal"><path d="M209.65338,136.40804c0,-3.69633 2.60174,-10.81837 6.98165,-10.81837c20.5933,0 80.49557,0 94.1004,0c5.34877,0 10.62424,6.20969 10.62424,9.6796c0,4.03606 -3.88946,13.09592 -7.58875,13.09592c-12.00474,0 -76.98975,0 -97.743,0c-4.01505,0 -6.37455,-8.07115 -6.37455,-11.95714z" fill="url(#color-1)" stroke="#ffffff" stroke-width="3.5"/><path d="M208.75586,220.95455c0,-3.69633 2.60174,-10.81837 6.98165,-10.81837c20.5933,0 80.49557,0 94.1004,0c5.34877,0 10.62423,6.20968 10.62423,9.67959c0,4.03606 -3.88946,13.09592 -7.58873,13.09592c-12.00474,0 -76.98975,0 -97.743,0c-4.01505,0 -6.37454,-8.07114 -6.37454,-11.95714z" fill="url(#color-2)" stroke="#ffffff" stroke-width="4"/><path d="M202.15472,109.50692c0,-2.72815 2.31483,-7.9847 6.21173,-7.9847c18.32233,0 71.61875,0 83.72328,0c4.75892,0 9.45263,4.58318 9.45263,7.1442c0,2.97888 -3.46054,9.66568 -6.75188,9.66568c-10.68089,0 -68.49954,0 -86.96418,0c-3.57228,0 -5.67158,-5.95706 -5.67158,-8.82519z" fill="url(#color-3)" stroke="#ffffff" stroke-width="0"/><path d="M202.33406,245.596c0,-2.5227 2.31483,-7.3834 6.21173,-7.3834c18.32233,0 71.61875,0 83.72328,0c4.75892,0 9.45262,4.23803 9.45262,6.6062c0,2.75456 -3.46054,8.93778 -6.75187,8.93778c-10.68089,0 -68.49954,0 -86.96418,0c-3.57228,0 -5.67157,-5.50843 -5.67157,-8.16058z" fill="url(#color-4)" stroke="#ffffff" stroke-width="0"/><path d="M171.40151,57.12944c0,-3.83909 1.58731,-11.23617 4.25944,-11.23617c5.55402,0 16.60336,13.20146 27.0187,13.20146c13.14533,0 25.76021,-13.20146 30.39119,-13.20146c3.26324,0 29.12592,8.89423 29.12592,12.49813c0,4.19192 -25.0171,11.15695 -27.274,11.15695c-7.324,0 -46.97082,0 -59.63222,0c-2.44955,0 -3.88906,-8.38285 -3.88906,-12.41892z" fill="url(#color-5)" stroke="#ffffff" stroke-width="0.5"/><path d="M171.58439,298.28896c0,-3.83909 1.58729,-11.23618 4.25944,-11.23618c12.56381,0 49.1097,0 57.4099,0c3.26324,0 32.36081,5.96057 32.36081,9.56447c0,4.19192 -28.25197,14.09062 -30.50888,14.09062c-3.87642,0 -17.61627,-9.28992 -30.80857,-9.28992c-11.73288,0 -22.86362,9.28992 -28.82365,9.28992c-2.44955,0 -3.88906,-8.38286 -3.88906,-12.41893z" fill="url(#color-6)" stroke="#ffffff" stroke-width="0.5"/><path d="M157.49924,37.96545v-6.8452h46.05387v6.8452z" fill="#ffce00" stroke="#ffffff" stroke-width="0.5"/><path d="M156.14626,325.46398v-7.33415h48.6124v7.33415z" fill="#ffce00" stroke="#ffffff" stroke-width="0.5"/><path d="M151.21346,218.00003v-81h227v81z" fill="none" stroke="none" stroke-width="0"/><path d="M242.02208,179.07449c0,-6.00842 2.31483,-17.58536 6.21173,-17.58536c18.32233,0 71.61875,0 83.72328,0c4.75892,0 9.45263,10.09391 9.45263,15.73425c0,6.56063 -3.46054,21.28753 -6.75188,21.28753c-10.68089,0 -68.49954,0 -86.96418,0c-3.57228,0 -5.67158,-13.1197 -5.67158,-19.43644z" fill="url(#color-7)" stroke="#ffffff" stroke-width="6"/></g></g></svg>