<svg version="1.1" xmlns="http://www.w3.org/2000/svg" xmlns:xlink="http://www.w3.org/1999/xlink" width="104.11003" height="47.99243" viewBox="0,0,104.11003,47.99243"><g transform="translate(-217.87327,-153.158)"><g data-paper-data="{&quot;isPaintingLayer&quot;:true}" fill-rule="nonzero" stroke="none" stroke-width="1.20944" stroke-linecap="butt" stroke-linejoin="miter" stroke-miterlimit="10" stroke-dasharray="" stroke-dashoffset="0" style="mix-blend-mode: normal"><path d="M314.2882,191.31787c0.45576,1.53264 -16.70806,6.06623 -23.31345,1.9522c-4.0249,-2.50961 0.35904,-8.91655 -6.28555,-10.45858c6.38975,-2.35465 18.78498,-2.2748 20.53094,1.18385c0.73419,1.46897 -2.125,3.14139 -0.48913,4.52209c1.90551,1.63048 6.5784,1.89961 9.5572,2.80043z" fill="#ff1816"/><path d="M309.72429,192.68446c-25.83864,4.61129 -10.33926,-8.15163 -18.52616,-8.9334c15.05994,-2.8884 5.79626,6.36571 11.10374,8.2827c1.83636,0.66202 7.42243,0.6507 7.42243,0.6507z" fill="#ffea00"/><path d="M321.97199,175.60821c-5.03677,-6.70574 -17.8506,-8.6794 -27.92237,-1.8685c-5.43501,3.67333 -10.54731,7.79345 -17.44577,10.44824c-8.43514,3.24795 -22.54371,0.76886 -28.3562,-2.70394c-2.22072,-1.32749 -4.94993,-3.5973 -6.23033,-5.39515c-1.93192,2.56385 -1.4342,6.36749 0.96438,8.31263c7.02997,5.71014 33.36292,-2.4013 35.61416,16.52339c-2.09885,0.80517 -2.89067,-0.76844 -4.20605,-1.23548c-19.08931,-6.88929 -34.64277,8.27469 -52.01451,-4.27802c-14.39845,-10.39448 10.58347,-19.3814 7.89001,-30.5573c-0.8897,-3.67328 -2.75732,-6.99097 -7.42168,-9.11403c18.72405,-2.83953 23.28733,8.04336 30.98738,13.59559c12.12973,8.77056 30.73769,-10.57988 51.23653,-8.17136c9.4465,1.11259 17.25423,6.59445 16.90445,14.44397z" fill="#ff1816"/><path d="M316.11912,167.72976c-13.88848,-7.79333 -29.76479,6.51687 -38.70457,11.59288c-17.23456,9.78474 -32.94473,-4.23054 -35.80435,-7.58954c-3.86757,4.76099 -8.77668,11.17126 -3.3783,15.21761c10.07501,7.54879 30.04477,-2.04255 35.24301,10.49321c-2.90307,-1.04407 -5.17442,-2.55678 -8.57936,-3.07965c-11.79368,-1.80308 -20.77921,4.77767 -33.86468,1.02395c-5.20169,-1.49205 -8.28008,-5.57029 -7.08375,-9.61995c0.52485,-1.78615 6.82537,-9.01225 8.49738,-11.44314c6.30799,-9.14713 1.40889,-14.25424 -4.46404,-18.11478c17.83229,1.62473 11.05309,22.34774 38.52913,18.66472c16.38449,-2.19311 28.64949,-16.93808 45.13153,-9.47734c1.52629,0.68458 3.37007,1.37389 4.47802,2.33209z" fill="#ffea00"/><path d="M243.45917,159.33228c1.838,-2.67116 6.30935,-4.79651 10.96487,-5.77816c7.16217,-1.50562 11.70018,1.63746 16.16509,3.46115c4.13241,1.69372 10.25263,1.44201 15.69772,0.77323c-1.74026,3.89687 -9.4442,9.81355 -16.06721,9.06679c-7.81299,-0.88204 -10.40494,-11.16223 -26.76047,-7.523z" fill="#ff1816"/><path d="M249.31194,156.30471c12.20037,-5.47839 14.58509,5.17434 27.15917,3.50873l4.86998,-0.64633c-2.06982,1.56215 -7.10309,3.64058 -10.31453,3.85078c-8.96819,0.58013 -9.8432,-8.81023 -21.71461,-6.71318z" fill="#ffea00"/></g></g></svg>