<svg version="1.1" xmlns="http://www.w3.org/2000/svg" xmlns:xlink="http://www.w3.org/1999/xlink" width="227" height="116.48367" viewBox="0,0,227,116.48367"><defs><linearGradient x1="211.02122" y1="134.75008" x2="310.40885" y2="134.75008" gradientUnits="userSpaceOnUse" id="color-1"><stop offset="0" stop-color="#bfff80"/><stop offset="1" stop-color="#1a1a1a"/></linearGradient><linearGradient x1="211.20056" y1="225.62775" x2="310.58818" y2="225.62775" gradientUnits="userSpaceOnUse" id="color-2"><stop offset="0" stop-color="#bfff80"/><stop offset="1" stop-color="#1a1a1a"/></linearGradient></defs><g transform="translate(-143.50244,-121.94707)"><g data-paper-data="{&quot;isPaintingLayer&quot;:true}" fill-rule="nonzero" stroke-linecap="butt" stroke-linejoin="miter" stroke-miterlimit="10" stroke-dasharray="" stroke-dashoffset="0" style="mix-blend-mode: normal"><path d="M143.50244,218.00002v-81h227v81z" fill="none" stroke="none" stroke-width="0"/><path d="M211.02122,134.20993c0,-3.50653 2.31483,-10.26286 6.21173,-10.26286c18.32233,0 71.61875,0 83.72328,0c4.75892,0 9.45263,5.89083 9.45263,9.18256c0,3.8288 -3.46054,12.42345 -6.75188,12.42345c-10.68089,0 -68.49954,0 -86.96418,0c-3.57228,0 -5.67158,-7.65669 -5.67158,-11.34315z" fill="url(#color-1)" stroke="#fcff38" stroke-width="4"/><path d="M211.20056,225.0876c0,-3.50653 2.31483,-10.26286 6.21173,-10.26286c18.32233,0 71.61875,0 83.72328,0c4.75892,0 9.45262,5.89082 9.45262,9.18255c0,3.8288 -3.46054,12.42345 -6.75187,12.42345c-10.68089,0 -68.49954,0 -86.96418,0c-3.57228,0 -5.67157,-7.65668 -5.67157,-11.34315z" fill="url(#color-2)" stroke="#fcff38" stroke-width="4"/></g></g></svg>