<svg version="1.1" xmlns="http://www.w3.org/2000/svg" xmlns:xlink="http://www.w3.org/1999/xlink" width="84.53839" height="81.90628" viewBox="0,0,84.53839,81.90628"><defs><radialGradient cx="239.09588" cy="166.00276" r="36.87848" gradientUnits="userSpaceOnUse" id="color-1"><stop offset="0" stop-color="#ff1c1c"/><stop offset="1" stop-color="#ff4a4a"/></radialGradient><radialGradient cx="217.31541" cy="164.49629" r="5.35907" gradientUnits="userSpaceOnUse" id="color-2"><stop offset="0" stop-color="#000000"/><stop offset="1" stop-color="#a4c4a7"/></radialGradient><radialGradient cx="247.00517" cy="196.26452" r="36.86191" gradientUnits="userSpaceOnUse" id="color-3"><stop offset="0" stop-color="#ff2424"/><stop offset="1" stop-color="#ff4747"/></radialGradient></defs><g transform="translate(-197.73726,-139.05447)"><g data-paper-data="{&quot;isPaintingLayer&quot;:true}" fill-rule="nonzero" stroke="none" stroke-linecap="butt" stroke-linejoin="miter" stroke-miterlimit="10" stroke-dasharray="" stroke-dashoffset="0" style="mix-blend-mode: normal"><path d="M238.02686,141.2209c-0.80638,0.27045 -1.62553,0.60862 -2.45803,1.01935c-7.60254,3.75208 -3.96536,5.40014 -11.56143,9.3202c-0.98013,0.50595 -1.89327,0.88497 -2.74947,1.17215c-3.85718,1.29376 -6.57418,0.73492 -9.19153,1.61284c-0.77832,0.26107 -1.54769,0.64879 -2.33572,1.25068c-2.77648,2.12026 -2.51234,5.88961 -3.86646,9.44124c-1.03252,2.70748 -5.56409,5.96197 -6.6564,9.78113c-0.77611,2.71152 1.79493,6.47172 2.61483,9.10114c0.60799,1.94885 -0.19946,6.65481 0.60566,8.03071c1.85514,3.16622 5.39795,2.80367 8.95881,1.60927c2.72046,-0.91248 5.45122,-2.31008 7.44957,-2.99012c0,0 17.59398,-5.02899 23.94829,-7.16034c0.56789,-0.19047 1.0447,-0.35785 1.41282,-0.49622c5.59214,-1.8636 15.70793,-5.05934 22.42013,-7.31072c0.27203,-0.09124 0.53859,-0.18065 0.79894,-0.26896c6.97876,-2.35892 13.52655,-12.4972 5.97019,-18.1299c-5.2892,-3.94186 -13.56725,0.01202 -16.54379,-6.66301c-3.30538,-7.41194 -10.2802,-12.18263 -18.81641,-9.31942M238.02686,141.2209l-0.42175,-1.25736v0c4.36971,-1.46568 8.66687,-1.15432 12.4267,0.89976c3.41432,1.86506 6.18815,5.0248 8.02238,9.13656c1.33102,2.98532 3.81265,3.35689 7.75114,3.71533c2.7343,0.24899 5.83309,0.53106 8.37403,2.42508c2.99575,2.23247 4.33743,5.404 3.77828,8.92914c-0.77385,4.87981 -5.1225,9.83219 -10.11612,11.5202l-0.80191,0.2699c-3.67566,1.23289 -8.30225,2.72646 -12.77646,4.17123c-3.64853,1.1776 -7.09484,2.2907 -9.62231,3.13233c-0.3678,0.13784 -0.84991,0.30751 -1.43414,0.50345c-6.18075,2.07313 -23.11738,6.92399 -23.97301,7.16853c-0.85387,0.29294 -1.88932,0.73956 -2.98482,1.21286c-1.36108,0.58803 -2.9044,1.25397 -4.43963,1.76892c-1.90948,0.64049 -7.72055,2.5896 -10.52428,-2.19677c-0.61655,-1.05259 -0.58762,-2.78889 -0.5538,-4.79957c0.02187,-1.31108 0.04689,-2.79751 -0.17448,-3.50615c-0.22249,-0.71337 -0.61001,-1.56722 -1.0201,-2.47136c-1.06892,-2.35557 -2.28019,-5.02579 -1.60371,-7.38915c0.69779,-2.44044 2.54101,-4.56569 4.16738,-6.44097c1.11049,-1.28082 2.15958,-2.49016 2.52531,-3.44884c0.41063,-1.07776 0.67024,-2.21809 0.92077,-3.32144c0.55666,-2.45094 1.13267,-4.98477 3.38025,-6.70105c0.85176,-0.65082 1.74136,-1.12641 2.71874,-1.45425c1.33236,-0.44689 2.63352,-0.55876 4.01124,-0.67725c1.58066,-0.13617 3.21502,-0.27639 5.17984,-0.93541c0.85583,-0.28705 1.69425,-0.64431 2.56306,-1.09281c3.49134,-1.80192 4.3661,-3.01253 5.2917,-4.29422c1.06639,-1.47623 2.16913,-3.00248 6.29077,-5.03682c0.87178,-0.42996 1.75394,-0.79577 2.62316,-1.08732z" fill="#010100" stroke-width="0.66342"/><path d="M238.02733,141.13297c8.5362,-2.8632 15.57175,1.93228 18.87712,9.34421c2.97656,6.67504 11.27604,2.75425 16.56526,6.69612c7.55636,5.6327 1.01253,15.81631 -5.96624,18.17523c-0.26036,0.0883 -0.52713,0.17891 -0.79917,0.27014c-6.71219,2.25138 -16.87537,5.50947 -22.46753,7.37308c-0.36812,0.13836 -0.8534,0.30939 -1.4213,0.49988c-6.3543,2.13134 -24.03871,7.14221 -24.03871,7.14221c-1.99834,0.68005 -4.73505,2.07155 -7.45548,2.98402c-3.56087,1.19437 -7.1127,1.54478 -8.96784,-1.62144c-0.8051,-1.37591 -0.00492,-6.09654 -0.61293,-8.04538c-0.8199,-2.62943 -3.3961,-6.41046 -2.62,-9.12198c1.0923,-3.81917 5.62432,-7.09805 6.65684,-9.80553c1.3541,-3.55163 1.09868,-7.34753 3.87517,-9.46779c0.78805,-0.60189 1.56052,-0.99514 2.33883,-1.2562c2.61736,-0.8779 5.34863,-0.33679 9.20581,-1.63055c0.85621,-0.28719 1.77748,-0.67307 2.75761,-1.17903c7.59606,-3.92007 4.00427,-5.58532 11.60683,-9.33739c0.83249,-0.41074 1.65936,-0.74919 2.46574,-1.01965" data-paper-data="{&quot;noHover&quot;:false,&quot;origItem&quot;:[&quot;Path&quot;,{&quot;applyMatrix&quot;:true,&quot;segments&quot;:[[[234.23065,158.6884],[0,0],[-0.41548,0.24742]],[[232.98765,159.55091],[0.41309,-0.32851],[-3.77235,3.00068]],[[227.68632,166.12241],[3.74851,-3.09324],[-0.48366,0.3992]],[[226.29978,167.10494],[0.44116,-0.26272],[-1.98738,1.18353]],[[221.38681,169.10837],[1.34857,-0.80311],[-0.40102,0.23882]],[[220.23963,170.08468],[0.36537,-0.42937],[-1.28733,1.51259]],[[219.22858,175.79647],[0.32456,-2.13658],[-0.24756,1.62879]],[[216.70825,182.03321],[0.14686,-2.2537],[-0.1046,1.60014]],[[219.25755,186.77525],[-0.77233,-1.36227],[0.5726,1.00963]],[[220.56151,191.16454],[-0.61311,-0.66753],[1.41223,1.53582]],[[225.73333,190.9795],[-1.83471,1.09262],[1.40169,-0.83474]],[[229.51246,188.42063],[-1.02845,0.6186],[0,0]],[[241.95672,181.55706],[-3.27401,1.94975],[0.2926,-0.17425]],[[242.68197,181.11114],[-0.18788,0.12123],[2.88277,-1.70917]],[[254.259,174.3481],[-3.45841,2.05956],[0.14016,-0.08347]],[[254.67053,174.10241],[-0.13403,0.08043],[3.59357,-2.15143]],[[255.80383,163.30935],[4.87723,2.21953],[-3.4138,-1.55313]],[[245.80863,161.60001],[2.45803,3.3504],[-2.72951,-3.72025]],[[234.23065,158.6884],[4.39821,-2.61925],[0,0]]],&quot;fillColor&quot;:[0,0,0,1],&quot;strokeWidth&quot;:0.66342}]}" fill="url(#color-1)" stroke-width="0.33171"/><path d="M213.83672,165.01023c-2.93303,0.27183 -4.92218,1.60761 -6.6108,3.97985c-1.24258,1.74471 -2.23771,3.87134 -3.85028,5.31354c-0.26239,0.23393 -0.79356,-0.02199 -0.56395,-0.37739c2.84839,-4.41093 4.94207,-10.1671 10.93815,-10.5305c1.04133,-0.06346 1.1227,1.51791 0.08686,1.6145z" fill="#231f20" stroke-width="0.66342"/><path d="M207.02068,171.81599c-0.21105,0.09223 -0.36713,-0.23958 -0.17833,-0.35935c3.92538,-2.46225 6.3316,-6.47214 11.38605,-6.44413c0.92343,0.00498 1.0118,1.43891 0.07911,1.43843c-2.602,-0.00059 -4.75524,0.7473 -6.76252,2.40581c-1.44363,1.19393 -2.80305,2.20804 -4.52433,2.95925z" fill="url(#color-2)" stroke-width="0.66342"/><path d="M255.43407,166.24564c0.91346,-1.55272 2.14973,-3.3648 2.29797,-5.20266c0.1089,-1.33233 -0.11851,-2.75694 -0.95263,-3.84804c-0.76798,-1.00644 -1.62498,-1.13583 -2.56711,-1.76773c-1.2862,-0.86108 -3.18968,-3.69593 -2.8421,-5.33716c0.10783,-0.50433 0.67063,-0.62921 1.05198,-0.35286c0.87656,0.63387 1.25307,2.38898 1.70218,3.31493c0.78026,1.60621 2.84318,1.9708 3.63522,3.65929c1.57896,3.35907 0.21254,6.91715 -1.58336,9.90359c-0.27373,0.45453 -1.01405,0.09343 -0.74215,-0.36935z" fill="#231f20" stroke-width="0.66342"/><path d="M255.17841,169.91933c-0.22364,0.15339 -0.5192,-0.16623 -0.3194,-0.36425c1.46765,-1.44208 3.39445,-3.05818 4.22752,-4.98406c0.4404,-1.01959 0.91796,-2.35945 0.57945,-3.4881c-0.18075,-0.60426 -0.44088,-1.12964 -0.49309,-1.76072c-0.03694,-0.45485 0.54854,-0.74309 0.88467,-0.43055c1.43384,1.33749 0.64265,4.05826 -0.18129,5.54414c-1.21353,2.19004 -2.6335,4.06608 -4.69787,5.48355z" fill="#231f20" stroke-width="0.66342"/><path d="M236.20088,145.16998c-2.39198,0.92726 -3.35266,2.70191 -4.92694,4.55464c-1.29968,1.53124 -2.63351,2.56891 -4.32606,3.62664c-0.03476,0.02149 -0.06591,-0.02822 -0.03368,-0.05161c2.06052,-1.53458 3.65128,-3.68009 5.1698,-5.71557c1.02993,-1.38192 2.10483,-2.78413 3.85652,-3.19035c0.50805,-0.11721 0.75916,0.58279 0.26036,0.77624z" fill="#231f20" stroke-width="0.66342"/><path d="M242.03044,218.78798c0.80603,-0.27151 1.62474,-0.6107 2.45673,-1.0225c7.59775,-3.76179 3.95848,-5.40521 11.5495,-9.33498c0.97948,-0.50718 1.89212,-0.88736 2.74797,-1.17566c3.85553,-1.29868 6.57322,-0.74332 9.18947,-1.62458c0.77797,-0.26205 1.54685,-0.65077 2.33412,-1.25368c2.77375,-2.1238 2.50483,-5.89283 3.85438,-9.44618c1.02906,-2.70879 5.55646,-5.96908 6.64388,-9.78963c0.77265,-2.71249 -1.8032,-6.46941 -2.62646,-9.09779c-0.61049,-1.94805 0.19093,-6.65506 -0.61594,-8.02992c-1.85918,-3.16385 -5.40152,-2.79675 -8.96087,-1.5978c-2.71929,0.91595 -5.44828,2.31704 -7.44572,2.99964c0,0 -17.58753,5.05149 -23.93912,7.19095c-0.56765,0.19122 -1.04424,0.35919 -1.41217,0.49804c-5.58975,1.87076 -15.70146,5.07943 -22.41075,7.33938c-0.27192,0.0916 -0.53833,0.18134 -0.79858,0.26998c-6.97573,2.36787 -13.51055,12.51447 -5.94701,18.13752c5.29426,3.93511 13.56721,-0.02937 16.55228,6.64186c3.31484,7.40768 10.29578,12.16947 18.82831,9.29537M242.03044,218.78798l0.42335,1.25684v0c-4.36784,1.47126 -8.66538,1.1654 -12.42784,-0.88386c-3.41671,-1.86069 -6.19456,-5.01687 -8.03407,-9.1263c-1.33485,-2.98362 -3.81697,-3.35201 -7.7559,-3.70541c-2.73463,-0.2455 -5.83375,-0.52362 -8.37712,-2.4144c-2.99861,-2.22863 -4.34434,-5.39843 -3.7897,-8.9243c0.76762,-4.88081 5.10993,-9.83873 10.10137,-11.53314l0.80158,-0.27093c3.67409,-1.23758 8.29876,-2.73707 12.77113,-4.18758c3.64701,-1.18226 7.0919,-2.29977 9.61831,-3.14462c0.36764,-0.13832 0.8495,-0.30859 1.43349,-0.50529c6.1781,-2.08102 23.10851,-6.95353 23.96382,-7.19919c0.85348,-0.29402 1.88837,-0.74197 2.98328,-1.21668c1.36031,-0.58976 2.90281,-1.25769 4.43737,-1.7746c1.90867,-0.64292 7.71721,-2.59948 10.52708,2.18329c0.61789,1.0518 0.59118,2.78812 0.55993,4.79884c-0.02018,1.31109 -0.04333,2.79758 0.17897,3.50592c0.22339,0.71309 0.61202,1.56645 1.02326,2.47005c1.07194,2.3542 2.28662,5.02287 1.61316,7.38709c-0.69468,2.44134 -2.53516,4.56894 -4.15915,6.44627c-1.10885,1.28223 -2.15639,2.49293 -2.52089,3.45207c-0.40926,1.07829 -0.66742,2.21896 -0.91651,3.32263c-0.55351,2.45165 -1.12628,4.98621 -3.37169,6.70536c-0.85094,0.6519 -1.73991,1.12862 -2.71689,1.45771c-1.33179,0.4486 -2.63279,0.56213 -4.01037,0.68239c-1.58049,0.1382 -3.21468,0.28048 -5.17864,0.94204c-0.85547,0.28815 -1.69343,0.64646 -2.56166,1.09609c-3.48904,1.80638 -4.36226,3.01811 -5.2862,4.30098c-1.0645,1.47759 -2.16529,3.00526 -6.28431,5.04485c-0.87123,0.43107 -1.75292,0.79801 -2.62178,1.09068z" fill="#010100" stroke-width="0.66342"/><path d="M242.11146,218.50043c-8.53254,2.87408 -15.57418,-1.91236 -18.88903,-9.32006c-2.98507,-6.67123 -11.27952,-2.73982 -16.57378,-6.67491c-7.56354,-5.62305 -1.03277,-15.81498 5.94297,-18.18283c0.26026,-0.08866 0.52688,-0.17959 0.79881,-0.27117c6.70931,-2.25995 16.86827,-5.53107 22.45803,-7.40182c0.36794,-0.13885 0.85302,-0.31049 1.42066,-0.5017c6.35159,-2.13947 24.02963,-7.17296 24.02963,-7.17296c1.99745,-0.6826 4.73236,-2.07761 7.45166,-2.99357c3.55936,-1.19894 7.11074,-1.55388 8.96992,1.60996c0.80687,1.37487 0.01271,6.09655 0.62321,8.04461c0.82326,2.62838 3.40429,6.40613 2.63165,9.11861c-1.08742,3.82055 -5.61524,7.10525 -6.64431,9.81403c-1.34955,3.55336 -1.08931,7.34893 -3.86307,9.47275c-0.78728,0.60291 -1.55926,0.99714 -2.33724,1.2592c-2.61625,0.88127 -5.34821,0.34363 -9.20373,1.64231c-0.85585,0.28829 -1.7766,0.67536 -2.75608,1.18254c-7.59101,3.92975 -3.99709,5.5904 -11.59484,9.35219c-0.83198,0.4118 -1.65839,0.75129 -2.46443,1.02281" data-paper-data="{&quot;noHover&quot;:false,&quot;origItem&quot;:[&quot;Path&quot;,{&quot;applyMatrix&quot;:true,&quot;segments&quot;:[[[245.79938,201.30615],[0,0],[0.41516,-0.24796]],[[247.04128,200.44205],[-0.41268,0.32904],[3.76851,-3.0055]],[[252.3342,193.86377],[-3.74454,3.09802],[0.48315,-0.39981]],[[253.71948,192.87948],[-0.44082,0.26329],[1.98587,-1.18607]],[[258.62989,190.86977],[-1.34755,0.80484],[0.40071,-0.23933]],[[259.77582,189.89199],[-0.36482,0.42984],[1.28539,-1.51423]],[[260.77956,184.17891],[-0.32182,2.13699],[0.24548,-1.6291]],[[263.29191,177.93896],[-0.14398,2.25388],[0.10256,-1.60027]],[[260.73654,173.20018],[0.77407,1.36128],[-0.57389,-1.00889]],[[259.42698,168.81256],[0.61396,0.66675],[-1.41419,-1.53402]],[[254.2554,169.00422],[1.83332,-1.09497],[-1.40063,0.83653]],[[250.47955,171.56792],[1.02765,-0.61991],[0,0]],[[238.04407,178.4474],[3.27152,-1.95394],[-0.29238,0.17463]],[[237.31939,178.89425],[0.18772,-0.12147],[-2.88058,1.71286]],[[225.75102,185.67209],[3.45577,-2.06398],[-0.14006,0.08365]],[[225.33981,185.91831],[0.13393,-0.08061],[-3.59081,2.15603]],[[224.22031,196.71281],[-4.88006,-2.21329],[3.41579,1.54876]],[[234.21768,198.40937],[-2.4623,-3.34726],[2.73426,3.71675]],[[245.79938,201.30617],[-4.39486,2.62486],[0,0]]],&quot;fillColor&quot;:[0,0,0,1],&quot;strokeWidth&quot;:0.66342}]}" fill="url(#color-3)" stroke-width="0.33171"/><path d="M266.19011,194.96776c2.93268,-0.27557 4.92012,-1.61391 6.60568,-3.9883c1.24034,-1.7463 2.23275,-3.87419 3.84349,-5.31845c0.26211,-0.23426 0.79359,0.02098 0.56443,0.37666c-2.84273,4.41457 -4.92907,10.1734 -10.92468,10.54447c-1.04126,0.06478 -1.12463,-1.51645 -0.08893,-1.61439z" fill="#231f20" stroke-width="0.66342"/><path d="M272.99745,188.15325c0.21093,-0.09249 0.36743,0.23911 0.17877,0.35912c-3.92222,2.46726 -6.32333,6.48023 -11.37779,6.4587c-0.92343,-0.0038 -1.01365,-1.43762 -0.08096,-1.43832c2.60201,-0.00275 4.75427,-0.75338 6.75943,-2.41446c1.44211,-1.19579 2.80021,-2.21161 4.52054,-2.96505z" fill="#231f20" stroke-width="0.66342"/><path d="M224.59123,193.78554c-0.91147,1.55389 -2.14542,3.36756 -2.29129,5.2056c-0.1072,1.33247 0.12205,2.75678 0.95757,3.84683c0.76927,1.00546 1.62644,1.13376 2.56936,1.76446c1.2873,0.85944 3.19439,3.69186 2.84893,5.33354c-0.10717,0.50448 -0.66984,0.63007 -1.05154,0.35421c-0.87739,-0.63274 -1.25613,-2.38736 -1.70642,-3.31275c-0.78231,-1.60521 -2.84571,-1.96715 -3.63988,-3.65465c-1.58325,-3.35705 -0.22139,-6.91687 1.57068,-9.9056c0.27316,-0.45491 1.01393,-0.09471 0.74262,0.3684z" fill="#231f20" stroke-width="0.66342"/><path d="M224.8422,190.11152c0.22345,-0.15366 0.51943,0.16557 0.31985,0.36385c-1.46579,1.44396 -3.39054,3.06252 -4.22112,4.98946c-0.4391,1.02014 -0.91494,2.36063 -0.57497,3.48884c0.18153,0.60403 0.44234,1.12906 0.49533,1.76009c0.03753,0.45481 -0.5476,0.74379 -0.88413,0.43168c-1.43555,-1.33567 -0.64783,-4.05744 0.17418,-5.54437c1.2107,-2.19158 2.62832,-4.06944 4.69086,-5.48955z" fill="#231f20" stroke-width="0.66342"/><path d="M243.85138,214.83657c2.39081,-0.93034 3.3492,-2.70618 4.92112,-4.56093c1.29774,-1.53288 2.63022,-2.5723 4.32142,-3.63216c0.03473,-0.02155 0.06593,0.02814 0.03374,0.05157c-2.05855,1.53722 -3.64656,3.68478 -5.1625,5.72217c-1.02818,1.38322 -2.10127,2.78683 -3.85244,3.19529c-0.50791,0.11785 -0.75989,-0.58181 -0.26136,-0.77592z" fill="#231f20" stroke-width="0.66342"/></g></g></svg>