<svg version="1.1" xmlns="http://www.w3.org/2000/svg" xmlns:xlink="http://www.w3.org/1999/xlink" width="191.26346" height="300.34374" viewBox="0,0,191.26346,300.34374"><g transform="translate(-153.14626,-28.12024)"><g data-paper-data="{&quot;isPaintingLayer&quot;:true}" fill="#00cccc" fill-rule="nonzero" stroke="#ffffff" stroke-width="6" stroke-linecap="butt" stroke-linejoin="miter" stroke-miterlimit="10" stroke-dasharray="" stroke-dashoffset="0" style="mix-blend-mode: normal"><path d="M209.55441,138.19948c0,-3.60129 2.31483,-10.54021 6.21173,-10.54021c18.32233,0 71.61875,0 83.72328,0c4.75892,0 9.45263,6.05003 9.45263,9.43072c0,3.93228 -3.46054,12.7592 -6.75188,12.7592c-10.68089,0 -68.49954,0 -86.96418,0c-3.57228,0 -5.67158,-7.86362 -5.67158,-11.6497z"/><path d="M208.75586,219.88225c0,-3.60129 2.31483,-10.54021 6.21173,-10.54021c18.32233,0 71.61875,0 83.72328,0c4.75892,0 9.45262,6.05002 9.45262,9.43071c0,3.93228 -3.46054,12.7592 -6.75187,12.7592c-10.68089,0 -68.49954,0 -86.96418,0c-3.57228,0 -5.67157,-7.86361 -5.67157,-11.6497z"/><path d="M202.15472,109.50691c0,-2.72815 2.31483,-7.9847 6.21173,-7.9847c18.32233,0 71.61875,0 83.72328,0c4.75892,0 9.45263,4.58318 9.45263,7.1442c0,2.97888 -3.46054,9.66568 -6.75188,9.66568c-10.68089,0 -68.49954,0 -86.96418,0c-3.57228,0 -5.67158,-5.95706 -5.67158,-8.82519z"/><path d="M202.33406,245.59599c0,-2.5227 2.31483,-7.3834 6.21173,-7.3834c18.32233,0 71.61875,0 83.72328,0c4.75892,0 9.45262,4.23803 9.45262,6.6062c0,2.75456 -3.46054,8.93778 -6.75187,8.93778c-10.68089,0 -68.49954,0 -86.96418,0c-3.57228,0 -5.67157,-5.50843 -5.67157,-8.16058z"/><path d="M166.57243,57.12943c0,-3.83909 0.95967,-11.23617 2.57521,-11.23617c3.3579,0 10.03821,13.20146 16.33521,13.20146c7.94752,0 15.57434,-13.20146 18.37418,-13.20146c1.97292,0 17.60921,8.89423 17.60921,12.49813c0,4.19192 -15.12506,11.15695 -16.48956,11.15695c-4.42801,0 -28.39804,0 -36.05298,0c-1.48097,0 -2.35128,-8.38285 -2.35128,-12.41892z"/><path d="M166.683,298.28896c0,-3.83909 0.95966,-11.23618 2.57521,-11.23618c7.59594,0 29.69118,0 34.70939,0c1.97292,0 19.56499,5.96057 19.56499,9.56447c0,4.19192 -17.08083,14.09062 -18.44533,14.09062c-2.34364,0 -10.6506,-9.28992 -18.62652,-9.28992c-7.09357,0 -13.82309,9.28992 -17.42646,9.28992c-1.48097,0 -2.35128,-8.38286 -2.35128,-12.41893z"/><path d="M159.56886,37.96544v-6.8452h8.80098v6.8452z"/><path d="M156.14626,325.46398v-7.33415h9.28992v7.33415z"/><path d="M242.02208,179.38492c0,-3.99311 2.31483,-11.68698 6.21173,-11.68698c18.32233,0 71.61875,0 83.72328,0c4.75892,0 9.45263,6.70827 9.45263,10.45676c0,4.3601 -3.46054,14.14739 -6.75188,14.14739c-10.68089,0 -68.49954,0 -86.96418,0c-3.57228,0 -5.67158,-8.71917 -5.67158,-12.91718z"/></g></g></svg>