<svg version="1.1" xmlns="http://www.w3.org/2000/svg" xmlns:xlink="http://www.w3.org/1999/xlink" width="227" height="294.84376" viewBox="0,0,227,294.84376"><defs><radialGradient cx="251.84853" cy="109.92712" r="49.69382" gradientUnits="userSpaceOnUse" id="color-1"><stop offset="0" stop-color="#ff6666"/><stop offset="1" stop-color="#e066ff"/></radialGradient><radialGradient cx="252.02787" cy="245.98456" r="49.69382" gradientUnits="userSpaceOnUse" id="color-2"><stop offset="0" stop-color="#ff6666"/><stop offset="1" stop-color="#e066ff"/></radialGradient></defs><g transform="translate(-151.21344,-30.87021)"><g data-paper-data="{&quot;isPaintingLayer&quot;:true}" fill-rule="nonzero" stroke-linecap="butt" stroke-linejoin="miter" stroke-miterlimit="10" stroke-dasharray="" stroke-dashoffset="0" style="mix-blend-mode: normal"><path d="M209.5544,138.19946c0,-3.60129 2.31483,-10.54021 6.21173,-10.54021c18.32233,0 71.61875,0 83.72328,0c4.75892,0 9.45263,6.05003 9.45263,9.43072c0,3.93228 -3.46054,12.7592 -6.75188,12.7592c-10.68089,0 -68.49954,0 -86.96418,0c-3.57228,0 -5.67158,-7.86362 -5.67158,-11.6497z" fill="#ffffff" stroke="#ffffff" stroke-width="3.5"/><path d="M208.75585,219.88223c0,-3.60129 2.31483,-10.54021 6.21173,-10.54021c18.32233,0 71.61875,0 83.72328,0c4.75892,0 9.45262,6.05002 9.45262,9.43071c0,3.93228 -3.46054,12.7592 -6.75187,12.7592c-10.68089,0 -68.49954,0 -86.96418,0c-3.57228,0 -5.67157,-7.86361 -5.67157,-11.6497z" fill="#ffffff" stroke="#ffffff" stroke-width="4"/><path d="M202.15471,109.50689c0,-2.72815 2.31483,-7.9847 6.21173,-7.9847c18.32233,0 71.61875,0 83.72328,0c4.75892,0 9.45263,4.58318 9.45263,7.1442c0,2.97888 -3.46054,9.66568 -6.75188,9.66568c-10.68089,0 -68.49954,0 -86.96418,0c-3.57228,0 -5.67158,-5.95706 -5.67158,-8.82519z" fill="url(#color-1)" stroke="#ffffff" stroke-width="0"/><path d="M202.33405,245.59597c0,-2.5227 2.31483,-7.3834 6.21173,-7.3834c18.32233,0 71.61875,0 83.72328,0c4.75892,0 9.45262,4.23803 9.45262,6.6062c0,2.75456 -3.46054,8.93778 -6.75187,8.93778c-10.68089,0 -68.49954,0 -86.96418,0c-3.57228,0 -5.67157,-5.50843 -5.67157,-8.16058z" fill="url(#color-2)" stroke="#ffffff" stroke-width="0"/><path d="M166.57242,57.12941c0,-3.83909 0.95967,-11.23617 2.57521,-11.23617c3.3579,0 10.03821,13.20146 16.33521,13.20146c7.94752,0 15.57434,-13.20146 18.37418,-13.20146c1.97292,0 17.60921,8.89423 17.60921,12.49813c0,4.19192 -15.12506,11.15695 -16.48956,11.15695c-4.42801,0 -28.39804,0 -36.05298,0c-1.48097,0 -2.35128,-8.38285 -2.35128,-12.41892z" fill="#ffffff" stroke="#000000" stroke-width="0.5"/><path d="M166.68299,298.28895c0,-3.83909 0.95966,-11.23618 2.57521,-11.23618c7.59594,0 29.69118,0 34.70939,0c1.97292,0 19.56499,5.96057 19.56499,9.56447c0,4.19192 -17.08083,14.09062 -18.44533,14.09062c-2.34364,0 -10.6506,-9.28992 -18.62652,-9.28992c-7.09357,0 -13.82309,9.28992 -17.42646,9.28992c-1.48097,0 -2.35128,-8.38286 -2.35128,-12.41893z" fill="#ffffff" stroke="#000000" stroke-width="0.5"/><path d="M159.56885,37.96542v-6.8452h8.80098v6.8452z" fill="#000000" stroke="#000000" stroke-width="0.5"/><path d="M156.14625,325.46398v-7.33415h9.28992v7.33415z" fill="#000000" stroke="#000000" stroke-width="0.5"/><path d="M151.21345,218v-81h227v81z" fill="none" stroke="none" stroke-width="0"/><path d="M242.02207,179.3849c0,-3.99311 2.31483,-11.68698 6.21173,-11.68698c18.32233,0 71.61875,0 83.72328,0c4.75892,0 9.45263,6.70827 9.45263,10.45676c0,4.3601 -3.46054,14.14739 -6.75188,14.14739c-10.68089,0 -68.49954,0 -86.96418,0c-3.57228,0 -5.67158,-8.71917 -5.67158,-12.91718z" fill="#ffffff" stroke="#ffffff" stroke-width="6"/></g></g></svg>