<svg version="1.1" xmlns="http://www.w3.org/2000/svg" xmlns:xlink="http://www.w3.org/1999/xlink" width="103.98089" height="52.79156" viewBox="0,0,103.98089,52.79156"><g transform="translate(-222.23696,-150.75843)"><g data-paper-data="{&quot;isPaintingLayer&quot;:true}" fill-rule="nonzero" stroke="none" stroke-width="1.20944" stroke-linecap="butt" stroke-linejoin="miter" stroke-miterlimit="10" stroke-dasharray="" stroke-dashoffset="0" style="mix-blend-mode: normal"><path d="M308.98692,164.65471c-1.63383,1.51877 1.22181,3.35843 0.48853,4.97429c-1.74379,3.80452 -14.12365,3.89234 -20.50547,1.30224c6.63635,-1.69623 2.25785,-8.74385 6.27776,-11.50441c6.5972,-4.52542 23.73972,0.46151 23.28453,2.14742c-2.9751,0.99091 -7.6422,1.28693 -9.54535,3.08046z" data-paper-data="{&quot;index&quot;:null}" fill="#ff1816"/><path d="M313.97403,160.07099c0,0 -5.57914,-0.01245 -7.41322,0.71577c-5.3009,2.10868 3.95129,12.28817 -11.08997,9.11094c8.17674,-0.85993 -7.3034,-14.89913 18.50318,-9.82671z" data-paper-data="{&quot;index&quot;:null}" fill="#ffea00"/><path d="M326.20654,178.85475c0.34934,8.63446 -7.4487,14.66448 -16.88348,15.88832c-20.47341,2.64937 -39.05829,-18.63608 -51.17297,-8.98847c-7.6905,6.10744 -12.24812,18.07859 -30.94894,14.95512c4.65857,-2.33535 6.52387,-5.98479 7.41247,-10.0254c2.69012,-12.29345 -22.26081,-22.17905 -7.88023,-33.61295c17.35019,-13.80794 32.88435,2.87239 51.94998,-4.70581c1.31375,-0.51374 2.10459,-2.24471 4.20083,-1.35903c-2.24845,20.81711 -28.54873,11.89455 -35.56998,18.17568c-2.39561,2.13965 -2.89271,6.32364 -0.96319,9.14388c1.27881,-1.97764 4.00463,-4.47441 6.2226,-5.93466c5.80528,-3.82008 19.89635,-6.54706 28.32102,-2.97432c6.88991,2.92026 11.99586,7.45239 17.42413,11.49304c10.05928,7.49196 22.85721,5.32095 27.88773,-2.05535z" data-paper-data="{&quot;index&quot;:null}" fill="#ff1816"/><path d="M320.36094,187.52103c-1.10658,1.05402 -2.94807,1.81225 -4.47246,2.56529c-16.46159,8.20678 -28.71137,-8.01263 -45.07554,-10.42505c-27.44195,-4.0513 -20.67117,18.74394 -38.48133,20.53114c5.86564,-4.24658 10.75866,-9.86438 4.4585,-19.9262c-1.66993,-2.67398 -7.96264,-10.62266 -8.48684,-12.58743c-1.19484,-4.45461 1.87973,-8.94067 7.07497,-10.58191c13.06923,-4.12909 22.04362,3.10972 33.82266,1.12633c3.40072,-0.57514 5.66924,-2.23914 8.56871,-3.3876c-5.19179,13.7893 -25.13677,3.23884 -35.19928,11.54249c-5.39168,4.45096 -0.48866,11.50225 3.37411,16.73933c2.85607,-3.69488 18.54675,-19.11165 35.75993,-8.34847c8.92868,5.58359 24.7853,21.32479 38.65655,12.75214z" data-paper-data="{&quot;index&quot;:null}" fill="#ffea00"/><path d="M247.7911,196.7583c16.33524,4.00314 18.92398,-7.30503 26.72727,-8.27528c6.6148,-0.82143 14.30918,5.6869 16.04728,9.97344c-5.43834,-0.73565 -11.55096,-1.01254 -15.67825,0.85055c-4.45937,2.00604 -8.99175,5.46342 -16.14503,3.80725c-4.64975,-1.07981 -9.11555,-3.41769 -10.95127,-6.35596z" data-paper-data="{&quot;index&quot;:null}" fill="#ff1816"/><path d="M253.63663,200.08862c11.85667,2.30676 12.73061,-8.02262 21.68767,-7.38448c3.20745,0.23123 8.23448,2.51749 10.30173,4.23584l-4.86394,-0.71095c-12.55847,-1.83217 -14.94024,9.88581 -27.12547,3.85959z" data-paper-data="{&quot;index&quot;:null}" fill="#ffea00"/></g></g></svg>