<svg version="1.1" xmlns="http://www.w3.org/2000/svg" xmlns:xlink="http://www.w3.org/1999/xlink" width="105.11274" height="128.28609" viewBox="0,0,105.11274,128.28609"><defs><linearGradient x1="395.91025" y1="261.76715" x2="495.29788" y2="261.76715" gradientUnits="userSpaceOnUse" id="color-1"><stop offset="0" stop-color="#bfff80"/><stop offset="1" stop-color="#1a1a1a"/></linearGradient><linearGradient x1="395.68515" y1="160.58707" x2="495.07278" y2="160.58707" gradientUnits="userSpaceOnUse" id="color-2"><stop offset="0" stop-color="#bfff80"/><stop offset="1" stop-color="#1a1a1a"/></linearGradient></defs><g transform="translate(-392.93515,-147.03406)"><g data-paper-data="{&quot;isPaintingLayer&quot;:true}" fill-rule="nonzero" stroke="#fbff38" stroke-width="5.5" stroke-linecap="butt" stroke-linejoin="miter" stroke-miterlimit="10" stroke-dasharray="" stroke-dashoffset="0" style="mix-blend-mode: normal"><path d="M395.91025,261.227c0,-3.50653 2.31483,-10.26286 6.21173,-10.26286c18.32233,0 71.61875,0 83.72328,0c4.75892,0 9.45263,5.89083 9.45263,9.18256c0,3.8288 -3.46054,12.42345 -6.75188,12.42345c-10.68089,0 -68.49954,0 -86.96418,0c-3.57228,0 -5.67158,-7.65669 -5.67158,-11.34315z" fill="url(#color-1)"/><path d="M395.68515,160.04692c0,-3.50653 2.31483,-10.26286 6.21173,-10.26286c18.32233,0 71.61875,0 83.72328,0c4.75892,0 9.45263,5.89083 9.45263,9.18256c0,3.8288 -3.46054,12.42345 -6.75188,12.42345c-10.68089,0 -68.49954,0 -86.96418,0c-3.57228,0 -5.67158,-7.65669 -5.67158,-11.34315z" fill="url(#color-2)"/></g></g></svg>