<svg version="1.1" xmlns="http://www.w3.org/2000/svg" xmlns:xlink="http://www.w3.org/1999/xlink" width="141.85768" height="127.02378" viewBox="0,0,141.85768,127.02378"><defs><radialGradient cx="273.49405" cy="194.24785" r="18.40472" gradientUnits="userSpaceOnUse" id="color-1"><stop offset="0" stop-color="#d9ebff"/><stop offset="1" stop-color="#d9ebff" stop-opacity="0"/></radialGradient><radialGradient cx="219.7817" cy="150.71913" r="31.24913" gradientUnits="userSpaceOnUse" id="color-2"><stop offset="0" stop-color="#d9ebff"/><stop offset="1" stop-color="#d9ebff" stop-opacity="0"/></radialGradient><radialGradient cx="242.52173" cy="229.75165" r="16.72954" gradientUnits="userSpaceOnUse" id="color-3"><stop offset="0" stop-color="#d9ebff"/><stop offset="1" stop-color="#d9ebff" stop-opacity="0"/></radialGradient><radialGradient cx="198.23398" cy="213.08752" r="31.24913" gradientUnits="userSpaceOnUse" id="color-4"><stop offset="0" stop-color="#d9ebff"/><stop offset="1" stop-color="#d9ebff" stop-opacity="0"/></radialGradient><radialGradient cx="284.34558" cy="229.79461" r="11.77377" gradientUnits="userSpaceOnUse" id="color-5"><stop offset="0" stop-color="#d9ebff"/><stop offset="1" stop-color="#d9ebff" stop-opacity="0"/></radialGradient><radialGradient cx="172.14665" cy="170.70698" r="14.25167" gradientUnits="userSpaceOnUse" id="color-6"><stop offset="0" stop-color="#d9ebff"/><stop offset="1" stop-color="#d9ebff" stop-opacity="0"/></radialGradient><radialGradient cx="282.66107" cy="148.08909" r="17.08353" gradientUnits="userSpaceOnUse" id="color-7"><stop offset="0" stop-color="#d9ebff"/><stop offset="1" stop-color="#d9ebff" stop-opacity="0"/></radialGradient></defs><g transform="translate(-157.89135,-119.4618)"><g data-paper-data="{&quot;isPaintingLayer&quot;:true}" fill-rule="nonzero" stroke="none" stroke-width="0" stroke-linecap="butt" stroke-linejoin="miter" stroke-miterlimit="10" stroke-dasharray="" stroke-dashoffset="0" style="mix-blend-mode: normal"><path d="M266.36761,177.27887c9.37171,-3.9358 20.1597,0.47084 24.0955,9.84263c3.9358,9.37171 -0.47088,20.15966 -9.84263,24.0955c-9.37171,3.9358 -20.15966,-0.47088 -24.09546,-9.84259c-3.9358,-9.37171 0.47084,-20.1597 9.84259,-24.0955z" fill="url(#color-1)"/><path d="M248.59318,138.61922c6.68259,15.91214 -0.79947,34.2288 -16.71161,40.91135c-15.91214,6.68259 -34.2288,-0.79947 -40.91139,-16.71161c-6.68259,-15.91214 0.79947,-34.2288 16.71161,-40.91139c15.91214,-6.68259 34.2288,0.79947 40.91139,16.71161z" fill="url(#color-2)"/><path d="M236.04396,214.3272c8.5187,-3.57759 18.32469,0.42797 21.90228,8.94673c3.57759,8.5187 -0.42797,18.32469 -8.94673,21.90228c-8.5187,3.57759 -18.32469,-0.42803 -21.90222,-8.94673c-3.57759,-8.5187 0.42797,-18.32469 8.94673,-21.90222z" fill="url(#color-3)"/><path d="M227.04546,200.98761c6.68259,15.91214 -0.79947,34.2288 -16.71161,40.91135c-15.91214,6.68259 -34.2288,-0.79947 -40.91139,-16.71161c-6.68259,-15.91214 0.79947,-34.2288 16.71161,-40.91139c15.91214,-6.68259 34.2288,0.79947 40.91139,16.71161z" fill="url(#color-4)"/><path d="M279.78671,218.93933c5.99521,-2.5178 12.89639,0.3012 15.41419,6.29646c2.5178,5.99522 -0.30119,12.89639 -6.29645,15.41419c-5.99521,2.5178 -12.89639,-0.30123 -15.41415,-6.29645c-2.5178,-5.99522 0.3012,-12.89639 6.29645,-15.41415z" fill="url(#color-5)"/><path d="M166.62832,157.56711c7.25696,-3.04769 15.61055,0.36459 18.65824,7.6216c3.04769,7.25696 -0.36458,15.61054 -7.62159,18.65824c-7.25696,3.04769 -15.61055,-0.36463 -18.65819,-7.62159c-3.04769,-7.25696 0.36458,-15.61054 7.62159,-18.65819z" fill="url(#color-6)"/><path d="M276.04624,132.33827c8.69895,-3.65328 18.71243,0.43704 22.36572,9.13604c3.65328,8.69895 -0.43703,18.71243 -9.13603,22.36571c-8.69895,3.65328 -18.71243,-0.43709 -22.36566,-9.13603c-3.65328,-8.69895 0.43703,-18.71243 9.13603,-22.36565z" fill="url(#color-7)"/></g></g></svg>