<svg version="1.1" xmlns="http://www.w3.org/2000/svg" xmlns:xlink="http://www.w3.org/1999/xlink" width="288.88148" height="90.16284" viewBox="0,0,288.88148,90.16284"><defs><linearGradient x1="317.97417" y1="122.41976" x2="317.97417" y2="212.0826" gradientUnits="userSpaceOnUse" id="color-1"><stop offset="0" stop-color="#70c8ff" stop-opacity="0.90196"/><stop offset="1" stop-color="#ffefef"/></linearGradient></defs><g transform="translate(-173.53343,-122.16976)"><g data-paper-data="{&quot;isPaintingLayer&quot;:true}" fill-rule="nonzero" stroke-linecap="butt" stroke-linejoin="miter" stroke-miterlimit="10" stroke-dasharray="" stroke-dashoffset="0" style="mix-blend-mode: normal"><path d="M173.78343,202.71484c0,-19.11218 0,-61.6553 0,-71.81949c0,-4.27056 3.53045,-8.47559 8.19689,-8.47559c24.27662,0 227.19674,0 271.61512,0c5.49967,0 8.56947,4.96957 8.56947,9.81384c0,10.3325 0,49.8597 0,69.14299c0,6.50479 -2.51787,10.70601 -7.07913,10.70601c-41.48297,0 -251.98027,0 -274.5958,0c-3.87336,0 -6.70655,-3.6268 -6.70655,-9.36776z" fill="url(#color-1)" stroke="#000000" stroke-width="0.5"/><text transform="translate(227.77744,146.35057) scale(0.42496,0.42496)" font-size="40" xml:space="preserve" fill-opacity="0.8" fill="#8c7e7e" fill-rule="nonzero" stroke="none" stroke-width="1" stroke-linecap="butt" stroke-linejoin="miter" stroke-miterlimit="10" stroke-dasharray="" stroke-dashoffset="0" font-family="Pixel" font-weight="normal" text-anchor="start" style="mix-blend-mode: normal"><tspan x="0" dy="0">Change flight mode?</tspan><tspan x="0" dy="46.150000000000006px"> </tspan></text><text transform="translate(248.62529,205.8965) scale(0.21445,0.21445)" font-size="40" xml:space="preserve" fill="#ff1a1a" fill-rule="nonzero" stroke="none" stroke-width="1" stroke-linecap="butt" stroke-linejoin="miter" stroke-miterlimit="10" stroke-dasharray="" stroke-dashoffset="0" font-family="Pixel" font-weight="normal" text-anchor="start" style="mix-blend-mode: normal"><tspan x="0" dy="0">Flight mode changed. Fly away!</tspan></text></g></g></svg>