<svg version="1.1" xmlns="http://www.w3.org/2000/svg" xmlns:xlink="http://www.w3.org/1999/xlink" width="192.50654" height="174.63818" viewBox="0,0,192.50654,174.63818"><defs><radialGradient cx="237.15556" cy="175.77922" r="94.28801" gradientUnits="userSpaceOnUse" id="color-1"><stop offset="0" stop-color="#e6fffa" stop-opacity="0"/><stop offset="1" stop-color="#e6fffa" stop-opacity="0"/></radialGradient><radialGradient cx="237.15116" cy="175.71131" r="87.81376" gradientUnits="userSpaceOnUse" id="color-2"><stop offset="0" stop-color="#ffffff" stop-opacity="0"/><stop offset="1" stop-color="#ffffff" stop-opacity="0"/></radialGradient><radialGradient cx="240.06413" cy="180.989" r="94.28801" gradientUnits="userSpaceOnUse" id="color-3"><stop offset="0" stop-color="#e6fffa" stop-opacity="0"/><stop offset="1" stop-color="#e6fffa" stop-opacity="0"/></radialGradient><radialGradient cx="240.05972" cy="180.9211" r="87.81376" gradientUnits="userSpaceOnUse" id="color-4"><stop offset="0" stop-color="#ffffff" stop-opacity="0"/><stop offset="1" stop-color="#ffffff" stop-opacity="0"/></radialGradient><radialGradient cx="240.06413" cy="180.989" r="94.28801" gradientUnits="userSpaceOnUse" id="color-5"><stop offset="0" stop-color="#e6fffa" stop-opacity="0"/><stop offset="1" stop-color="#e6fffa" stop-opacity="0"/></radialGradient><radialGradient cx="240.05972" cy="180.9211" r="87.81376" gradientUnits="userSpaceOnUse" id="color-6"><stop offset="0" stop-color="#ffffff" stop-opacity="0"/><stop offset="1" stop-color="#ffffff" stop-opacity="0"/></radialGradient><radialGradient cx="242.9727" cy="186.19879" r="94.28801" gradientUnits="userSpaceOnUse" id="color-7"><stop offset="0" stop-color="#e6fffa" stop-opacity="0"/><stop offset="1" stop-color="#e6fffa" stop-opacity="0"/></radialGradient><radialGradient cx="242.96829" cy="186.13088" r="87.81376" gradientUnits="userSpaceOnUse" id="color-8"><stop offset="0" stop-color="#ffffff" stop-opacity="0"/><stop offset="1" stop-color="#ffffff" stop-opacity="0"/></radialGradient></defs><g transform="translate(-144.31735,-93.76615)"><g data-paper-data="{&quot;isPaintingLayer&quot;:true}" fill-rule="nonzero" stroke-linecap="butt" stroke-linejoin="miter" stroke-miterlimit="10" stroke-dasharray="" stroke-dashoffset="0" style="mix-blend-mode: normal"><path d="M320.3659,200.15424c-0.903,3.18566 5.48717,7.60203 4.1789,10.56446c-2.1058,4.76834 -10.86965,5.91716 -13.91885,10.05789c-2.97546,4.0406 -0.21527,11.08883 -3.96537,14.47467c-3.44544,3.11078 -13.24789,-0.51317 -17.24827,1.99919c-5.06635,3.18182 -4.48392,12.31264 -10.26816,14.45509c-5.26819,1.9513 -12.58112,-4.14826 -18.29229,-3.12961c-8.34102,1.48772 -15.29002,9.54631 -24.19433,8.86841c-7.11699,-0.54182 -13.11208,-11.7084 -20.32859,-13.75398c-6.91308,-1.95957 -14.68701,5.36835 -20.80092,2.27789c-9.58455,-4.84476 -9.47552,-16.39978 -16.70551,-23.4348c-4.19657,-4.0834 -16.59186,-3.03986 -19.86818,-7.66973c-3.40083,-4.80582 1.21137,-14.05096 -1.09554,-19.29117c-2.54319,-5.77692 -11.88211,-7.5872 -12.96257,-13.69111c-1.02829,-5.80928 8.33025,-9.75976 8.75045,-15.67896c0.398,-5.60677 -8.73802,-10.72914 -7.20513,-16.13697c2.53609,-8.94696 12.48402,-6.74048 17.99184,-13.82272c6.71747,-8.63765 9.63407,-26.07018 19.61894,-31.40143c5.84314,-3.11984 13.61968,5.8332 20.23783,4.00455c5.48713,-1.51614 9.7146,-14.02496 15.57488,-14.57977c6.96403,-0.65932 15.41601,11.57005 22.68333,12.37158c5.94099,0.65525 10.66716,-10.36892 16.66334,-8.66925c7.42737,2.10535 9.96499,12.32331 16.46456,15.72605c5.55171,2.90651 15.20121,-1.16197 19.97215,2.53452c5.01579,3.88619 4.58655,14.6386 8.63092,19.23439c2.99907,3.40799 10.70287,0.51853 13.11452,4.23645c2.79727,4.31242 1.13358,14.75699 3.0747,19.38704c3.65536,8.71899 9.78057,11.95997 10.03821,21.26009c0.19492,7.03564 -8.15375,12.797 -10.14085,19.80718z" fill="url(#color-1)" stroke="#ffee27" stroke-width="1"/><path d="M314.6479,198.41262c-0.841,2.96692 5.11039,7.08003 3.89195,9.83906c-1.96121,4.44093 -10.12331,5.51087 -12.96312,9.36728c-2.77115,3.76316 -0.20049,10.32741 -3.69309,13.48077c-3.20885,2.89718 -12.33822,-0.47793 -16.06393,1.86191c-4.71847,2.96334 -4.17604,11.46721 -9.56311,13.46255c-4.90646,1.81732 -11.71725,-3.86342 -17.03625,-2.91471c-7.76828,1.38557 -14.24014,8.89082 -22.53303,8.25948c-6.62831,-0.50462 -12.21174,-10.90444 -18.93273,-12.80956c-6.43839,-1.82502 -13.67853,4.99971 -19.37264,2.12148c-8.92642,-4.51209 -8.82488,-15.27369 -15.55842,-21.82565c-3.90841,-3.80301 -15.4526,-2.83114 -18.50394,-7.14309c-3.16733,-4.47583 1.1282,-13.08616 -1.02031,-17.96655c-2.36857,-5.38025 -11.06623,-7.06624 -12.07249,-12.75102c-0.95769,-5.41039 7.75827,-9.08961 8.14959,-14.60237c0.37068,-5.22179 -8.13803,-9.99243 -6.71039,-15.02893c2.36195,-8.33262 11.62681,-6.27766 16.75644,-12.87359c6.25621,-8.04455 8.97254,-24.28008 18.27182,-29.24526c5.44191,-2.90561 12.68449,5.43266 18.8482,3.72957c5.11037,-1.41203 9.04756,-13.06193 14.50544,-13.57866c6.48584,-0.61406 14.35747,10.77558 21.12579,11.52209c5.53305,0.61025 9.93469,-9.65693 15.51916,-8.07397c6.91739,1.96079 9.28075,11.47713 15.33403,14.64621c5.1705,2.70692 14.15741,-1.08218 18.60076,2.3605c4.67139,3.61936 4.27164,13.63345 8.03828,17.91368c2.79313,3.17398 9.96797,0.48292 12.21402,3.94555c2.6052,4.01629 1.05575,13.74369 2.86358,18.05584c3.40437,8.12029 9.10897,11.13875 9.34892,19.80028c0.18152,6.55255 -7.59386,11.9183 -9.44452,18.44713z" fill="url(#color-2)" stroke="#bdbdbd" stroke-width="1"/><path d="M307.87293,195.52444c-0.76813,2.70985 4.66758,6.46654 3.5547,8.98648c-1.79126,4.0561 -9.24609,5.03334 -11.83984,8.55558c-2.53103,3.43708 -0.18313,9.43254 -3.37309,12.31263c-2.9308,2.64614 -11.26911,-0.43652 -14.67197,1.70058c-4.30962,2.70657 -3.81417,10.47356 -8.73444,12.296c-4.4813,1.65984 -10.70193,-3.52865 -15.56004,-2.66214c-7.09515,1.26551 -13.0062,8.12041 -20.5805,7.54376c-6.05395,-0.4609 -11.15358,-9.95954 -17.29218,-11.69958c-5.8805,-1.66688 -12.49326,4.56648 -17.69396,1.93765c-8.15293,-4.12112 -8.06019,-13.95021 -14.21026,-19.93443c-3.56974,-3.47348 -14.11359,-2.58581 -16.90054,-6.52413c-2.89287,-4.08798 1.03043,-11.95223 -0.9319,-16.40971c-2.16332,-4.91404 -10.10732,-6.45393 -11.0264,-11.64612c-0.87471,-4.94157 7.08601,-8.30198 7.44342,-13.33704c0.33856,-4.76931 -7.43286,-9.12658 -6.12893,-13.72665c2.15729,-7.6106 10.61932,-5.73369 15.30447,-11.75807c5.71411,-7.34749 8.19506,-22.17616 16.68853,-26.7111c4.97036,-2.65385 11.58534,4.9619 17.21497,3.40639c4.66755,-1.28968 8.26357,-11.9301 13.24851,-12.40204c5.92385,-0.56085 13.11339,9.84186 19.29522,10.52368c5.0536,0.55739 9.07383,-8.82014 14.1744,-7.37434c6.31797,1.79088 8.47656,10.48261 14.0053,13.3771c4.72248,2.47236 12.93066,-0.9884 16.98898,2.15595c4.26661,3.30573 3.90148,12.45209 7.34174,16.36143c2.55111,2.89895 9.10422,0.44109 11.15565,3.60367c2.37946,3.66829 0.96426,12.55278 2.61543,16.49127c3.10938,7.41666 8.31968,10.17356 8.53884,18.08456c0.16578,5.98476 -6.93585,10.88556 -8.62614,16.84866z" fill="none" stroke="#bdbdbd" stroke-width="0.5"/><path d="M294.48669,192.27185c-0.62238,2.19566 3.78191,5.23955 2.88021,7.28132c-1.45138,3.28649 -7.49169,4.0783 -9.59327,6.9322c-2.05077,2.7849 -0.14837,7.64275 -2.73305,9.97637c-2.37469,2.14404 -9.13084,-0.3537 -11.88803,1.3779c-3.49188,2.19301 -3.09047,8.48626 -7.07714,9.9629c-3.63098,1.3449 -8.67129,-2.85911 -12.60758,-2.15702c-5.74888,1.02538 -10.53835,6.5796 -16.67546,6.11236c-4.90525,-0.37345 -9.03723,-8.06978 -14.01105,-9.47965c-4.7647,-1.3506 -10.12273,3.70002 -14.33662,1.57c-6.60594,-3.33915 -6.53081,-11.30322 -11.51393,-16.15196c-2.8924,-2.8144 -11.4356,-2.09518 -13.69373,-5.28622c-2.34395,-3.31231 0.83491,-9.68433 -0.75507,-13.29604c-1.75286,-3.98162 -8.1895,-5.22932 -8.93419,-9.43632c-0.70874,-4.00392 5.74147,-6.72671 6.03107,-10.80641c0.27432,-3.86435 -6.0225,-7.39485 -4.96599,-11.12208c1.74795,-6.16652 8.60435,-4.64575 12.40052,-9.52703c4.62989,-5.95333 6.64009,-17.96833 13.52196,-21.64279c4.02727,-2.15028 9.38708,4.0204 13.94851,2.76005c3.78191,-1.04496 6.69559,-9.6664 10.73467,-10.04881c4.79981,-0.45442 10.62518,7.97441 15.63404,8.52686c4.0947,0.45161 7.35211,-7.14657 11.48487,-5.97511c5.11917,1.45107 6.86816,8.49359 11.34786,10.83886c3.82641,2.00325 10.47713,-0.80086 13.7654,1.74687c3.45705,2.67849 3.16121,10.08937 5.94869,13.25693c2.06705,2.34889 7.37673,0.35739 9.03891,2.91989c1.92796,2.97226 0.7813,10.17095 2.11919,13.36212c2.51939,6.0094 6.74106,8.24318 6.91863,14.6531c0.13433,4.84918 -5.6198,8.82006 -6.98938,13.6517z" fill="none" stroke="#bdbdbd" stroke-width="0.5"/><path d="M283.73405,188.99678c-0.50578,1.78432 3.0734,4.25796 2.34062,5.91723c-1.17948,2.67079 -6.08818,3.31424 -7.79604,5.63349c-1.66657,2.26318 -0.12058,6.21093 -2.22104,8.10737c-1.92981,1.74238 -7.42023,-0.28744 -9.66088,1.11977c-2.83771,1.78217 -2.51148,6.8964 -5.75127,8.0964c-2.95075,1.09294 -7.04678,-2.32347 -10.24564,-1.75291c-4.67186,0.83328 -8.56405,5.34695 -13.55142,4.96726c-3.98628,-0.30349 -7.34416,-6.55795 -11.38618,-7.70369c-3.87207,-1.09757 -8.22629,3.00684 -11.65075,1.27587c-5.36837,-2.71358 -5.3073,-9.18564 -9.35686,-13.126c-2.35053,-2.28715 -9.29321,-1.70265 -11.1283,-4.29587c-1.90483,-2.69177 0.6785,-7.87003 -0.61362,-10.8051c-1.42446,-3.23569 -6.65525,-4.24964 -7.26044,-7.66848c-0.57595,-3.25382 4.66585,-5.4665 4.90119,-8.78189c0.22293,-3.14038 -4.89423,-6.00947 -4.03565,-9.03842c1.42048,-5.01126 6.99238,-3.7754 10.07736,-7.7422c3.7625,-4.83801 5.3961,-14.60208 10.98871,-17.58815c3.27279,-1.74744 7.62847,3.26721 11.33535,2.24296c3.07339,-0.8492 5.44122,-7.85547 8.72359,-8.16623c3.9006,-0.3693 8.63462,6.48046 12.7051,6.92941c3.32758,0.36702 5.97475,-5.8077 9.33326,-4.8557c4.16014,1.17923 5.58145,6.90237 9.22191,8.80827c3.10955,1.62795 8.51428,-0.65083 11.18653,1.41961c2.80939,2.17669 2.56897,8.19918 4.83424,10.77332c1.6798,1.90884 5.99476,0.29043 7.34554,2.37287c1.56678,2.41542 0.63492,8.26549 1.72216,10.85882c2.0474,4.88357 5.47815,6.69886 5.62247,11.90794c0.10917,3.94071 -4.56696,7.16769 -5.67995,11.09414z" fill="none" stroke="#bdbdbd" stroke-width="0.5"/><path d="M272.9814,185.7217c-0.38918,1.37297 2.36488,3.27636 1.80103,4.55311c-0.90756,2.05508 -4.68464,2.55021 -5.9988,4.33478c-1.28239,1.74144 -0.09279,4.77911 -1.70902,6.23835c-1.48493,1.3407 -5.70964,-0.22116 -7.43373,0.86163c-2.18351,1.37131 -1.9325,5.30654 -4.42541,6.22991c-2.27051,0.84098 -5.42226,-1.78783 -7.88367,-1.3488c-3.59484,0.64119 -6.58977,4.11431 -10.42737,3.82215c-3.06731,-0.23352 -5.65109,-5.04613 -8.76129,-5.92774c-2.97943,-0.84454 -6.32986,2.31366 -8.96488,0.98173c-4.13079,-2.08801 -4.08379,-7.06804 -7.1998,-10.10003c-1.80865,-1.75988 -7.15084,-1.31015 -8.56288,-3.30554c-1.4657,-2.07123 0.52207,-6.05574 -0.47215,-8.31417c-1.09607,-2.48976 -5.12101,-3.26998 -5.58666,-5.90066c-0.44318,-2.5037 3.59022,-4.20629 3.7713,-6.75737c0.17153,-2.41643 -3.76594,-4.6241 -3.10529,-6.95478c1.09301,-3.85599 5.3804,-2.90504 7.75419,-5.95737c2.89512,-3.72269 4.15213,-11.23583 8.45545,-13.53351c2.5183,-1.3446 5.86987,2.51401 8.72219,1.72588c2.36487,-0.65343 4.18683,-6.04453 6.71252,-6.28365c3.00138,-0.28415 6.64406,4.98649 9.77617,5.33195c2.56047,0.2824 4.59738,-4.46883 7.18163,-3.7363c3.20108,0.90737 4.29475,5.31115 7.09596,6.77768c2.3927,1.25264 6.55148,-0.50079 8.60768,1.09234c2.16173,1.67489 1.97674,6.309 3.7198,8.28971c1.29255,1.46879 4.61276,0.22348 5.65215,1.82584c1.20559,1.85858 0.48855,6.36002 1.32515,8.3555c1.57541,3.75774 4.21527,5.15455 4.32631,9.16277c0.08399,3.03226 -3.51413,5.5153 -4.37054,8.53658z" fill="none" stroke="#bdbdbd" stroke-width="0.5"/><path d="M323.27448,205.36402c-0.903,3.18566 5.48717,7.60202 4.1789,10.56445c-2.1058,4.76834 -10.86966,5.91716 -13.91885,10.05789c-2.97546,4.0406 -0.21527,11.08883 -3.96538,14.47468c-3.44544,3.11077 -13.24789,-0.51317 -17.24827,1.99919c-5.06635,3.18182 -4.48393,12.31265 -10.26817,14.4551c-5.26819,1.9513 -12.58112,-4.14826 -18.29229,-3.12961c-8.34102,1.48773 -15.29002,9.54631 -24.19433,8.86842c-7.11699,-0.54182 -13.11208,-11.7084 -20.32859,-13.75398c-6.91308,-1.95957 -14.68702,5.36835 -20.80092,2.2779c-9.58455,-4.84476 -9.47552,-16.39978 -16.70551,-23.4348c-4.19657,-4.0834 -16.59186,-3.03986 -19.86818,-7.66973c-3.40083,-4.80582 1.21137,-14.05096 -1.09554,-19.29117c-2.54319,-5.77692 -11.88211,-7.58721 -12.96256,-13.6911c-1.02829,-5.80928 8.33025,-9.75976 8.75045,-15.67896c0.398,-5.60677 -8.73802,-10.72914 -7.20513,-16.13696c2.53609,-8.94696 12.48401,-6.74049 17.99183,-13.82273c6.71747,-8.63765 9.63406,-26.07017 19.61894,-31.40142c5.84314,-3.11984 13.61968,5.8332 20.23783,4.00455c5.48713,-1.51614 9.7146,-14.02496 15.57488,-14.57977c6.96403,-0.65932 15.41601,11.57005 22.68334,12.37158c5.94098,0.65526 10.66716,-10.36892 16.66334,-8.66925c7.42737,2.10535 9.96499,12.32332 16.46456,15.72605c5.55171,2.9065 15.20121,-1.16197 19.97215,2.53452c5.01579,3.88619 4.58655,14.6386 8.63092,19.23439c2.99907,3.40799 10.70287,0.51852 13.11452,4.23644c2.79727,4.31242 1.13359,14.75699 3.0747,19.38704c3.65536,8.71899 9.78055,11.95998 10.0382,21.2601c0.19492,7.03564 -8.15375,12.797 -10.14085,19.80718z" fill="url(#color-3)" stroke="#ffee27" stroke-width="1"/><path d="M317.55646,203.62241c-0.841,2.96692 5.11039,7.08004 3.89195,9.83906c-1.96121,4.44093 -10.1233,5.51087 -12.96311,9.36727c-2.77115,3.76316 -0.20049,10.32741 -3.69309,13.48077c-3.20885,2.89718 -12.33823,-0.47794 -16.06393,1.86191c-4.71847,2.96334 -4.17603,11.46721 -9.5631,13.46255c-4.90646,1.81732 -11.71725,-3.86342 -17.03625,-2.91471c-7.76828,1.38557 -14.24015,8.89081 -22.53303,8.25948c-6.62831,-0.50462 -12.21173,-10.90443 -18.93273,-12.80956c-6.43839,-1.82502 -13.67853,4.99971 -19.37264,2.12148c-8.92642,-4.51209 -8.82488,-15.27369 -15.55842,-21.82565c-3.90841,-3.80301 -15.4526,-2.83114 -18.50394,-7.14309c-3.16733,-4.47583 1.1282,-13.08616 -1.02031,-17.96655c-2.36857,-5.38025 -11.06623,-7.06623 -12.07249,-12.75102c-0.95769,-5.41039 7.75828,-9.08961 8.1496,-14.60237c0.37068,-5.22179 -8.13803,-9.99243 -6.71039,-15.02893c2.36195,-8.33262 11.6268,-6.27766 16.75643,-12.87359c6.25622,-8.04455 8.97254,-24.28007 18.27182,-29.24526c5.44191,-2.90561 12.68448,5.43265 18.8482,3.72957c5.11037,-1.41203 9.04756,-13.06194 14.50544,-13.57866c6.48584,-0.61406 14.35748,10.77559 21.1258,11.52209c5.53305,0.61025 9.93469,-9.65693 15.51916,-8.07397c6.91739,1.96079 9.28075,11.47712 15.33403,14.64621c5.1705,2.70692 14.15741,-1.08217 18.60076,2.3605c4.67139,3.61936 4.27163,13.63345 8.03828,17.91368c2.79313,3.17398 9.96797,0.48292 12.21402,3.94555c2.6052,4.01629 1.05574,13.74369 2.86357,18.05584c3.40437,8.12029 9.10898,11.13875 9.34893,19.80028c0.18152,6.55255 -7.59386,11.91829 -9.44452,18.44713z" fill="url(#color-4)" stroke="#bdbdbd" stroke-width="1"/><path d="M310.78149,200.73421c-0.76813,2.70985 4.66758,6.46654 3.55471,8.98648c-1.79126,4.0561 -9.2461,5.03335 -11.83985,8.55558c-2.53103,3.43707 -0.18312,9.43254 -3.37308,12.31263c-2.9308,2.64614 -11.26911,-0.43652 -14.67197,1.70058c-4.30962,2.70657 -3.81417,10.47356 -8.73444,12.296c-4.4813,1.65984 -10.70193,-3.52865 -15.56004,-2.66215c-7.09515,1.26551 -13.00621,8.12041 -20.5805,7.54376c-6.05396,-0.46089 -11.15358,-9.95956 -17.29217,-11.69959c-5.8805,-1.66688 -12.49325,4.56649 -17.69397,1.93766c-8.15293,-4.12112 -8.06019,-13.95021 -14.21026,-19.93443c-3.56974,-3.47348 -14.11359,-2.58581 -16.90054,-6.52413c-2.89287,-4.08798 1.03043,-11.95223 -0.9319,-16.40971c-2.16332,-4.91404 -10.10732,-6.45393 -11.0264,-11.64612c-0.87471,-4.94157 7.08601,-8.30197 7.44341,-13.33704c0.33856,-4.76931 -7.43285,-9.12658 -6.12892,-13.72665c2.15729,-7.6106 10.61932,-5.73369 15.30447,-11.75807c5.71411,-7.34749 8.19506,-22.17617 16.68854,-26.71111c4.97036,-2.65385 11.58534,4.96191 17.21497,3.4064c4.66755,-1.28968 8.26357,-11.9301 13.24851,-12.40204c5.92385,-0.56085 13.11339,9.84185 19.29522,10.52368c5.0536,0.55738 9.07383,-8.82015 14.17439,-7.37436c6.31797,1.79088 8.47656,10.48262 14.00531,13.37712c4.72248,2.47236 12.93065,-0.98841 16.98897,2.15594c4.26661,3.30573 3.90149,12.45209 7.34174,16.36143c2.55111,2.89895 9.10423,0.44108 11.15565,3.60366c2.37946,3.6683 0.96426,12.55278 2.61543,16.49127c3.10938,7.41666 8.31968,10.17356 8.53884,18.08456c0.16578,5.98476 -6.93586,10.88556 -8.62615,16.84865z" fill="none" stroke="#bdbdbd" stroke-width="0.5"/><path d="M297.39526,197.48164c-0.62238,2.19566 3.78192,5.23956 2.88021,7.28133c-1.45138,3.28649 -7.49169,4.0783 -9.59327,6.9322c-2.05077,2.7849 -0.14837,7.64275 -2.73305,9.97637c-2.37469,2.14404 -9.13084,-0.3537 -11.88803,1.3779c-3.49188,2.19301 -3.09047,8.48626 -7.07714,9.9629c-3.63098,1.3449 -8.67129,-2.85911 -12.60758,-2.15702c-5.74888,1.02538 -10.53835,6.5796 -16.67546,6.11236c-4.90524,-0.37344 -9.03723,-8.06978 -14.01105,-9.47965c-4.7647,-1.3506 -10.12272,3.70002 -14.33662,1.57c-6.60594,-3.33915 -6.53081,-11.30322 -11.51393,-16.15197c-2.8924,-2.8144 -11.4356,-2.09518 -13.69374,-5.28621c-2.34395,-3.31231 0.83491,-9.68434 -0.75507,-13.29604c-1.75286,-3.98162 -8.1895,-5.22932 -8.93418,-9.43632c-0.70874,-4.00392 5.74147,-6.72671 6.03107,-10.80641c0.27432,-3.86435 -6.02251,-7.39486 -4.966,-11.12207c1.74795,-6.16652 8.60435,-4.64575 12.40052,-9.52704c4.62989,-5.95333 6.64009,-17.96833 13.52196,-21.64279c4.02727,-2.15028 9.38709,4.0204 13.94851,2.76005c3.78191,-1.04496 6.69559,-9.66641 10.73467,-10.04881c4.79981,-0.45442 10.62519,7.9744 15.63404,8.52686c4.0947,0.45161 7.35211,-7.14657 11.48487,-5.97511c5.11917,1.45107 6.86816,8.49359 11.34786,10.83886c3.82641,2.00325 10.47713,-0.80086 13.7654,1.74687c3.45705,2.67849 3.1612,10.08937 5.94869,13.25693c2.06705,2.34889 7.37673,0.35739 9.03891,2.91989c1.92796,2.97226 0.7813,10.17095 2.11919,13.36212c2.51939,6.0094 6.74106,8.24318 6.91863,14.6531c0.13433,4.84918 -5.6198,8.82006 -6.98938,13.6517z" fill="none" stroke="#bdbdbd" stroke-width="0.5"/><path d="M286.64262,194.20656c-0.50578,1.78432 3.0734,4.25796 2.34062,5.91723c-1.17948,2.67079 -6.08817,3.31424 -7.79604,5.63349c-1.66657,2.26318 -0.12058,6.21093 -2.22104,8.10737c-1.92981,1.74238 -7.42023,-0.28744 -9.66089,1.11976c-2.83771,1.78217 -2.51148,6.8964 -5.75127,8.0964c-2.95075,1.09294 -7.04677,-2.32346 -10.24564,-1.75291c-4.67185,0.83328 -8.56404,5.34695 -13.55142,4.96726c-3.98628,-0.30349 -7.34416,-6.55795 -11.38619,-7.70369c-3.87207,-1.09757 -8.2263,3.00685 -11.65075,1.27587c-5.36837,-2.71358 -5.30731,-9.18565 -9.35687,-13.126c-2.35053,-2.28715 -9.29321,-1.70265 -11.12829,-4.29587c-1.90483,-2.69177 0.6785,-7.87003 -0.61362,-10.8051c-1.42446,-3.23569 -6.65526,-4.24966 -7.26044,-7.66849c-0.57595,-3.25382 4.66585,-5.46649 4.90118,-8.78188c0.22293,-3.14038 -4.89423,-6.00947 -4.03564,-9.03843c1.42048,-5.01126 6.99239,-3.77539 10.07736,-7.7422c3.7625,-4.83801 5.39612,-14.60208 10.98872,-17.58816c3.27279,-1.74744 7.62847,3.26721 11.33535,2.24296c3.07339,-0.8492 5.44122,-7.85547 8.72359,-8.16622c3.9006,-0.3693 8.63462,6.48044 12.70509,6.9294c3.32758,0.36702 5.97475,-5.80769 9.33325,-4.85569c4.16014,1.17923 5.58146,6.90237 9.22192,8.80826c3.10955,1.62795 8.51428,-0.65082 11.18653,1.41961c2.80939,2.17669 2.56897,8.19918 4.83424,10.77332c1.6798,1.90884 5.99476,0.29043 7.34553,2.37288c1.56678,2.41542 0.63492,8.26549 1.72215,10.85882c2.0474,4.88357 5.47815,6.69886 5.62247,11.90794c0.10917,3.94071 -4.56696,7.16769 -5.67995,11.09414z" fill="none" stroke="#bdbdbd" stroke-width="0.5"/><path d="M275.88997,190.93149c-0.38918,1.37297 2.36488,3.27636 1.80103,4.55311c-0.90756,2.05508 -4.68465,2.5502 -5.9988,4.33478c-1.28239,1.74144 -0.09279,4.77912 -1.70902,6.23835c-1.48493,1.3407 -5.70964,-0.22116 -7.43374,0.86162c-2.18351,1.37131 -1.93249,5.30655 -4.42541,6.22991c-2.27051,0.84098 -5.42226,-1.78783 -7.88367,-1.3488c-3.59484,0.64119 -6.58977,4.11431 -10.42737,3.82215c-3.06731,-0.23352 -5.6511,-5.04613 -8.7613,-5.92774c-2.97943,-0.84454 -6.32986,2.31366 -8.96488,0.98173c-4.13079,-2.08801 -4.08379,-7.06804 -7.1998,-10.10003c-1.80865,-1.75988 -7.15084,-1.31015 -8.56287,-3.30554c-1.4657,-2.07123 0.52207,-6.05574 -0.47215,-8.31417c-1.09607,-2.48976 -5.12101,-3.26997 -5.58667,-5.90066c-0.44318,-2.5037 3.59022,-4.20629 3.7713,-6.75738c0.17153,-2.41643 -3.76594,-4.6241 -3.10529,-6.95478c1.09301,-3.85599 5.3804,-2.90504 7.75419,-5.95737c2.89512,-3.72269 4.15213,-11.23583 8.45545,-13.53351c2.5183,-1.3446 5.86987,2.51402 8.72219,1.72589c2.36487,-0.65343 4.18683,-6.04453 6.71252,-6.28365c3.00138,-0.28415 6.64406,4.98649 9.77616,5.33194c2.56047,0.2824 4.59738,-4.46883 7.18163,-3.7363c3.20108,0.90737 4.29475,5.31116 7.09596,6.77769c2.3927,1.25264 6.55148,-0.50079 8.60768,1.09234c2.16172,1.67489 1.97674,6.309 3.7198,8.28971c1.29255,1.46879 4.61276,0.22348 5.65215,1.82583c1.20559,1.85858 0.48855,6.36002 1.32515,8.3555c1.57541,3.75774 4.21527,5.15456 4.32631,9.16277c0.08399,3.03226 -3.51413,5.5153 -4.37054,8.53658z" fill="none" stroke="#bdbdbd" stroke-width="0.5"/><path d="M323.27448,205.36402c-0.903,3.18566 5.48717,7.60202 4.1789,10.56445c-2.1058,4.76834 -10.86966,5.91716 -13.91885,10.05789c-2.97546,4.0406 -0.21527,11.08883 -3.96538,14.47468c-3.44544,3.11077 -13.24789,-0.51317 -17.24827,1.99919c-5.06635,3.18182 -4.48393,12.31265 -10.26817,14.4551c-5.26819,1.9513 -12.58112,-4.14826 -18.29229,-3.12961c-8.34102,1.48773 -15.29002,9.54631 -24.19433,8.86842c-7.11699,-0.54182 -13.11208,-11.7084 -20.32859,-13.75398c-6.91308,-1.95957 -14.68702,5.36835 -20.80092,2.2779c-9.58455,-4.84476 -9.47552,-16.39978 -16.70551,-23.4348c-4.19657,-4.0834 -16.59186,-3.03986 -19.86818,-7.66973c-3.40083,-4.80582 1.21137,-14.05096 -1.09554,-19.29117c-2.54319,-5.77692 -11.88211,-7.58721 -12.96256,-13.6911c-1.02829,-5.80928 8.33025,-9.75976 8.75045,-15.67896c0.398,-5.60677 -8.73802,-10.72914 -7.20513,-16.13696c2.53609,-8.94696 12.48401,-6.74049 17.99183,-13.82273c6.71747,-8.63765 9.63406,-26.07017 19.61894,-31.40142c5.84314,-3.11984 13.61968,5.8332 20.23783,4.00455c5.48713,-1.51614 9.7146,-14.02496 15.57488,-14.57977c6.96403,-0.65932 15.41601,11.57005 22.68334,12.37158c5.94098,0.65526 10.66716,-10.36892 16.66334,-8.66925c7.42737,2.10535 9.96499,12.32332 16.46456,15.72605c5.55171,2.9065 15.20121,-1.16197 19.97215,2.53452c5.01579,3.88619 4.58655,14.6386 8.63092,19.23439c2.99907,3.40799 10.70287,0.51852 13.11452,4.23644c2.79727,4.31242 1.13359,14.75699 3.0747,19.38704c3.65536,8.71899 9.78055,11.95998 10.0382,21.2601c0.19492,7.03564 -8.15375,12.797 -10.14085,19.80718z" fill="url(#color-5)" stroke="#ffee27" stroke-width="1"/><path d="M317.55646,203.62241c-0.841,2.96692 5.11039,7.08004 3.89195,9.83906c-1.96121,4.44093 -10.1233,5.51087 -12.96311,9.36727c-2.77115,3.76316 -0.20049,10.32741 -3.69309,13.48077c-3.20885,2.89718 -12.33823,-0.47794 -16.06393,1.86191c-4.71847,2.96334 -4.17603,11.46721 -9.5631,13.46255c-4.90646,1.81732 -11.71725,-3.86342 -17.03625,-2.91471c-7.76828,1.38557 -14.24015,8.89081 -22.53303,8.25948c-6.62831,-0.50462 -12.21173,-10.90443 -18.93273,-12.80956c-6.43839,-1.82502 -13.67853,4.99971 -19.37264,2.12148c-8.92642,-4.51209 -8.82488,-15.27369 -15.55842,-21.82565c-3.90841,-3.80301 -15.4526,-2.83114 -18.50394,-7.14309c-3.16733,-4.47583 1.1282,-13.08616 -1.02031,-17.96655c-2.36857,-5.38025 -11.06623,-7.06623 -12.07249,-12.75102c-0.95769,-5.41039 7.75828,-9.08961 8.1496,-14.60237c0.37068,-5.22179 -8.13803,-9.99243 -6.71039,-15.02893c2.36195,-8.33262 11.6268,-6.27766 16.75643,-12.87359c6.25622,-8.04455 8.97254,-24.28007 18.27182,-29.24526c5.44191,-2.90561 12.68448,5.43265 18.8482,3.72957c5.11037,-1.41203 9.04756,-13.06194 14.50544,-13.57866c6.48584,-0.61406 14.35748,10.77559 21.1258,11.52209c5.53305,0.61025 9.93469,-9.65693 15.51916,-8.07397c6.91739,1.96079 9.28075,11.47712 15.33403,14.64621c5.1705,2.70692 14.15741,-1.08217 18.60076,2.3605c4.67139,3.61936 4.27163,13.63345 8.03828,17.91368c2.79313,3.17398 9.96797,0.48292 12.21402,3.94555c2.6052,4.01629 1.05574,13.74369 2.86357,18.05584c3.40437,8.12029 9.10898,11.13875 9.34893,19.80028c0.18152,6.55255 -7.59386,11.91829 -9.44452,18.44713z" fill="url(#color-6)" stroke="#bdbdbd" stroke-width="1"/><path d="M310.78149,200.73421c-0.76813,2.70985 4.66758,6.46654 3.55471,8.98648c-1.79126,4.0561 -9.2461,5.03335 -11.83985,8.55558c-2.53103,3.43707 -0.18312,9.43254 -3.37308,12.31263c-2.9308,2.64614 -11.26911,-0.43652 -14.67197,1.70058c-4.30962,2.70657 -3.81417,10.47356 -8.73444,12.296c-4.4813,1.65984 -10.70193,-3.52865 -15.56004,-2.66215c-7.09515,1.26551 -13.00621,8.12041 -20.5805,7.54376c-6.05396,-0.46089 -11.15358,-9.95956 -17.29217,-11.69959c-5.8805,-1.66688 -12.49325,4.56649 -17.69397,1.93766c-8.15293,-4.12112 -8.06019,-13.95021 -14.21026,-19.93443c-3.56974,-3.47348 -14.11359,-2.58581 -16.90054,-6.52413c-2.89287,-4.08798 1.03043,-11.95223 -0.9319,-16.40971c-2.16332,-4.91404 -10.10732,-6.45393 -11.0264,-11.64612c-0.87471,-4.94157 7.08601,-8.30197 7.44341,-13.33704c0.33856,-4.76931 -7.43285,-9.12658 -6.12892,-13.72665c2.15729,-7.6106 10.61932,-5.73369 15.30447,-11.75807c5.71411,-7.34749 8.19506,-22.17617 16.68854,-26.71111c4.97036,-2.65385 11.58534,4.96191 17.21497,3.4064c4.66755,-1.28968 8.26357,-11.9301 13.24851,-12.40204c5.92385,-0.56085 13.11339,9.84185 19.29522,10.52368c5.0536,0.55738 9.07383,-8.82015 14.17439,-7.37436c6.31797,1.79088 8.47656,10.48262 14.00531,13.37712c4.72248,2.47236 12.93065,-0.98841 16.98897,2.15594c4.26661,3.30573 3.90149,12.45209 7.34174,16.36143c2.55111,2.89895 9.10423,0.44108 11.15565,3.60366c2.37946,3.6683 0.96426,12.55278 2.61543,16.49127c3.10938,7.41666 8.31968,10.17356 8.53884,18.08456c0.16578,5.98476 -6.93586,10.88556 -8.62615,16.84865z" fill="none" stroke="#bdbdbd" stroke-width="0.5"/><path d="M297.39526,197.48164c-0.62238,2.19566 3.78192,5.23956 2.88021,7.28133c-1.45138,3.28649 -7.49169,4.0783 -9.59327,6.9322c-2.05077,2.7849 -0.14837,7.64275 -2.73305,9.97637c-2.37469,2.14404 -9.13084,-0.3537 -11.88803,1.3779c-3.49188,2.19301 -3.09047,8.48626 -7.07714,9.9629c-3.63098,1.3449 -8.67129,-2.85911 -12.60758,-2.15702c-5.74888,1.02538 -10.53835,6.5796 -16.67546,6.11236c-4.90524,-0.37344 -9.03723,-8.06978 -14.01105,-9.47965c-4.7647,-1.3506 -10.12272,3.70002 -14.33662,1.57c-6.60594,-3.33915 -6.53081,-11.30322 -11.51393,-16.15197c-2.8924,-2.8144 -11.4356,-2.09518 -13.69374,-5.28621c-2.34395,-3.31231 0.83491,-9.68434 -0.75507,-13.29604c-1.75286,-3.98162 -8.1895,-5.22932 -8.93418,-9.43632c-0.70874,-4.00392 5.74147,-6.72671 6.03107,-10.80641c0.27432,-3.86435 -6.02251,-7.39486 -4.966,-11.12207c1.74795,-6.16652 8.60435,-4.64575 12.40052,-9.52704c4.62989,-5.95333 6.64009,-17.96833 13.52196,-21.64279c4.02727,-2.15028 9.38709,4.0204 13.94851,2.76005c3.78191,-1.04496 6.69559,-9.66641 10.73467,-10.04881c4.79981,-0.45442 10.62519,7.9744 15.63404,8.52686c4.0947,0.45161 7.35211,-7.14657 11.48487,-5.97511c5.11917,1.45107 6.86816,8.49359 11.34786,10.83886c3.82641,2.00325 10.47713,-0.80086 13.7654,1.74687c3.45705,2.67849 3.1612,10.08937 5.94869,13.25693c2.06705,2.34889 7.37673,0.35739 9.03891,2.91989c1.92796,2.97226 0.7813,10.17095 2.11919,13.36212c2.51939,6.0094 6.74106,8.24318 6.91863,14.6531c0.13433,4.84918 -5.6198,8.82006 -6.98938,13.6517z" fill="none" stroke="#bdbdbd" stroke-width="0.5"/><path d="M286.64262,194.20656c-0.50578,1.78432 3.0734,4.25796 2.34062,5.91723c-1.17948,2.67079 -6.08817,3.31424 -7.79604,5.63349c-1.66657,2.26318 -0.12058,6.21093 -2.22104,8.10737c-1.92981,1.74238 -7.42023,-0.28744 -9.66089,1.11976c-2.83771,1.78217 -2.51148,6.8964 -5.75127,8.0964c-2.95075,1.09294 -7.04677,-2.32346 -10.24564,-1.75291c-4.67185,0.83328 -8.56404,5.34695 -13.55142,4.96726c-3.98628,-0.30349 -7.34416,-6.55795 -11.38619,-7.70369c-3.87207,-1.09757 -8.2263,3.00685 -11.65075,1.27587c-5.36837,-2.71358 -5.30731,-9.18565 -9.35687,-13.126c-2.35053,-2.28715 -9.29321,-1.70265 -11.12829,-4.29587c-1.90483,-2.69177 0.6785,-7.87003 -0.61362,-10.8051c-1.42446,-3.23569 -6.65526,-4.24966 -7.26044,-7.66849c-0.57595,-3.25382 4.66585,-5.46649 4.90118,-8.78188c0.22293,-3.14038 -4.89423,-6.00947 -4.03564,-9.03843c1.42048,-5.01126 6.99239,-3.77539 10.07736,-7.7422c3.7625,-4.83801 5.39612,-14.60208 10.98872,-17.58816c3.27279,-1.74744 7.62847,3.26721 11.33535,2.24296c3.07339,-0.8492 5.44122,-7.85547 8.72359,-8.16622c3.9006,-0.3693 8.63462,6.48044 12.70509,6.9294c3.32758,0.36702 5.97475,-5.80769 9.33325,-4.85569c4.16014,1.17923 5.58146,6.90237 9.22192,8.80826c3.10955,1.62795 8.51428,-0.65082 11.18653,1.41961c2.80939,2.17669 2.56897,8.19918 4.83424,10.77332c1.6798,1.90884 5.99476,0.29043 7.34553,2.37288c1.56678,2.41542 0.63492,8.26549 1.72215,10.85882c2.0474,4.88357 5.47815,6.69886 5.62247,11.90794c0.10917,3.94071 -4.56696,7.16769 -5.67995,11.09414z" fill="none" stroke="#bdbdbd" stroke-width="0.5"/><path d="M275.88997,190.93149c-0.38918,1.37297 2.36488,3.27636 1.80103,4.55311c-0.90756,2.05508 -4.68465,2.5502 -5.9988,4.33478c-1.28239,1.74144 -0.09279,4.77912 -1.70902,6.23835c-1.48493,1.3407 -5.70964,-0.22116 -7.43374,0.86162c-2.18351,1.37131 -1.93249,5.30655 -4.42541,6.22991c-2.27051,0.84098 -5.42226,-1.78783 -7.88367,-1.3488c-3.59484,0.64119 -6.58977,4.11431 -10.42737,3.82215c-3.06731,-0.23352 -5.6511,-5.04613 -8.7613,-5.92774c-2.97943,-0.84454 -6.32986,2.31366 -8.96488,0.98173c-4.13079,-2.08801 -4.08379,-7.06804 -7.1998,-10.10003c-1.80865,-1.75988 -7.15084,-1.31015 -8.56287,-3.30554c-1.4657,-2.07123 0.52207,-6.05574 -0.47215,-8.31417c-1.09607,-2.48976 -5.12101,-3.26997 -5.58667,-5.90066c-0.44318,-2.5037 3.59022,-4.20629 3.7713,-6.75738c0.17153,-2.41643 -3.76594,-4.6241 -3.10529,-6.95478c1.09301,-3.85599 5.3804,-2.90504 7.75419,-5.95737c2.89512,-3.72269 4.15213,-11.23583 8.45545,-13.53351c2.5183,-1.3446 5.86987,2.51402 8.72219,1.72589c2.36487,-0.65343 4.18683,-6.04453 6.71252,-6.28365c3.00138,-0.28415 6.64406,4.98649 9.77616,5.33194c2.56047,0.2824 4.59738,-4.46883 7.18163,-3.7363c3.20108,0.90737 4.29475,5.31116 7.09596,6.77769c2.3927,1.25264 6.55148,-0.50079 8.60768,1.09234c2.16172,1.67489 1.97674,6.309 3.7198,8.28971c1.29255,1.46879 4.61276,0.22348 5.65215,1.82583c1.20559,1.85858 0.48855,6.36002 1.32515,8.3555c1.57541,3.75774 4.21527,5.15456 4.32631,9.16277c0.08399,3.03226 -3.51413,5.5153 -4.37054,8.53658z" fill="none" stroke="#bdbdbd" stroke-width="0.5"/><path d="M326.18303,210.57381c-0.903,3.18566 5.48717,7.60202 4.1789,10.56445c-2.1058,4.76834 -10.86965,5.91716 -13.91885,10.05789c-2.97546,4.0406 -0.21527,11.08883 -3.96537,14.47467c-3.44544,3.11078 -13.24789,-0.51317 -17.24827,1.99919c-5.06635,3.18182 -4.48393,12.31265 -10.26817,14.4551c-5.26819,1.9513 -12.58112,-4.14826 -18.29229,-3.12961c-8.34102,1.48773 -15.29002,9.54631 -24.19433,8.86842c-7.11699,-0.54182 -13.11208,-11.7084 -20.32859,-13.75398c-6.91308,-1.95957 -14.68702,5.36835 -20.80092,2.2779c-9.58455,-4.84476 -9.47552,-16.39978 -16.70551,-23.43479c-4.19657,-4.0834 -16.59186,-3.03986 -19.86818,-7.66973c-3.40083,-4.80582 1.21137,-14.05096 -1.09554,-19.29117c-2.54319,-5.77692 -11.88211,-7.5872 -12.96256,-13.6911c-1.02829,-5.80928 8.33024,-9.75977 8.75044,-15.67896c0.398,-5.60677 -8.73802,-10.72914 -7.20512,-16.13697c2.53609,-8.94696 12.48401,-6.74048 17.99183,-13.82272c6.71747,-8.63765 9.63406,-26.07017 19.61894,-31.40142c5.84314,-3.11984 13.61968,5.8332 20.23783,4.00455c5.48713,-1.51614 9.7146,-14.02496 15.57488,-14.57977c6.96403,-0.65932 15.41601,11.57005 22.68334,12.37158c5.94099,0.65525 10.66716,-10.36892 16.66334,-8.66925c7.42737,2.10535 9.96499,12.32332 16.46456,15.72605c5.55171,2.9065 15.20122,-1.16197 19.97215,2.53452c5.01579,3.88619 4.58655,14.6386 8.63091,19.23439c2.99907,3.40799 10.70287,0.51852 13.11452,4.23644c2.79727,4.31242 1.13358,14.75699 3.0747,19.38704c3.65536,8.71899 9.78057,11.95997 10.03821,21.26009c0.19492,7.03564 -8.15375,12.797 -10.14085,19.80718z" fill="url(#color-7)" stroke="#ffee27" stroke-width="1"/><path d="M320.46503,208.83218c-0.841,2.96692 5.11039,7.08003 3.89195,9.83906c-1.96121,4.44093 -10.12331,5.51087 -12.96312,9.36728c-2.77115,3.76316 -0.20049,10.32741 -3.69309,13.48077c-3.20885,2.89718 -12.33822,-0.47793 -16.06393,1.86191c-4.71847,2.96334 -4.17604,11.46721 -9.56311,13.46255c-4.90646,1.81732 -11.71725,-3.86342 -17.03625,-2.91471c-7.76828,1.38557 -14.24015,8.89081 -22.53303,8.25948c-6.62831,-0.50462 -12.21173,-10.90443 -18.93273,-12.80956c-6.43839,-1.82502 -13.67853,4.99972 -19.37264,2.12149c-8.92642,-4.51209 -8.82488,-15.2737 -15.55843,-21.82566c-3.90841,-3.80301 -15.45259,-2.83113 -18.50394,-7.14309c-3.16733,-4.47583 1.12819,-13.08617 -1.02032,-17.96656c-2.36857,-5.38025 -11.06623,-7.06624 -12.07249,-12.75102c-0.95769,-5.41039 7.75827,-9.08961 8.14959,-14.60236c0.37068,-5.22179 -8.13803,-9.99243 -6.71039,-15.02893c2.36195,-8.33262 11.62681,-6.27766 16.75644,-12.87359c6.25621,-8.04455 8.97254,-24.28006 18.27182,-29.24525c5.44191,-2.90561 12.68448,5.43265 18.84819,3.72957c5.11037,-1.41203 9.04757,-13.06193 14.50544,-13.57866c6.48584,-0.61406 14.35747,10.77558 21.12579,11.52209c5.53304,0.61026 9.93469,-9.65693 15.51916,-8.07397c6.91739,1.96079 9.28075,11.47713 15.33404,14.64622c5.1705,2.70692 14.15741,-1.08217 18.60076,2.3605c4.67139,3.61936 4.27164,13.63345 8.03828,17.91368c2.79313,3.17398 9.96797,0.48292 12.21402,3.94555c2.6052,4.01629 1.05575,13.74369 2.86357,18.05584c3.40437,8.12029 9.10897,11.13875 9.34892,19.80028c0.18152,6.55255 -7.59386,11.9183 -9.44452,18.44713z" fill="url(#color-8)" stroke="#bdbdbd" stroke-width="1"/><path d="M313.69006,205.94401c-0.76813,2.70985 4.66758,6.46654 3.5547,8.98648c-1.79126,4.0561 -9.24609,5.03334 -11.83984,8.55558c-2.53103,3.43708 -0.18313,9.43254 -3.37309,12.31263c-2.9308,2.64614 -11.26911,-0.43653 -14.67197,1.70058c-4.30962,2.70657 -3.81417,10.47356 -8.73444,12.296c-4.4813,1.65984 -10.70193,-3.52865 -15.56004,-2.66215c-7.09515,1.26551 -13.0062,8.12041 -20.5805,7.54376c-6.05396,-0.46089 -11.15357,-9.95955 -17.29217,-11.69959c-5.8805,-1.66688 -12.49326,4.56649 -17.69397,1.93766c-8.15293,-4.12112 -8.06018,-13.95021 -14.21026,-19.93443c-3.56974,-3.47348 -14.11359,-2.58581 -16.90054,-6.52413c-2.89287,-4.08798 1.03043,-11.95222 -0.9319,-16.4097c-2.16332,-4.91404 -10.10732,-6.45393 -11.0264,-11.64612c-0.87471,-4.94157 7.08601,-8.30198 7.44342,-13.33704c0.33856,-4.76931 -7.43285,-9.12658 -6.12892,-13.72665c2.15729,-7.6106 10.61932,-5.73369 15.30447,-11.75807c5.71411,-7.34749 8.19505,-22.17616 16.68853,-26.7111c4.97036,-2.65385 11.58535,4.96191 17.21497,3.4064c4.66755,-1.28968 8.26357,-11.9301 13.24851,-12.40204c5.92385,-0.56085 13.11339,9.84186 19.29522,10.52368c5.0536,0.55739 9.07383,-8.82014 14.17439,-7.37435c6.31797,1.79088 8.47656,10.48262 14.0053,13.3771c4.72248,2.47236 12.93065,-0.98841 16.98897,2.15594c4.26661,3.30573 3.90149,12.45209 7.34174,16.36143c2.55111,2.89895 9.10422,0.44109 11.15565,3.60367c2.37946,3.6683 0.96426,12.55278 2.61543,16.49127c3.10938,7.41666 8.31967,10.17356 8.53883,18.08455c0.16578,5.98476 -6.93585,10.88556 -8.62614,16.84866z" fill="none" stroke="#bdbdbd" stroke-width="0.5"/><path d="M300.30382,202.69142c-0.62238,2.19566 3.78191,5.23955 2.88021,7.28133c-1.45138,3.28649 -7.49169,4.0783 -9.59328,6.93221c-2.05077,2.7849 -0.14837,7.64275 -2.73305,9.97637c-2.37469,2.14404 -9.13085,-0.3537 -11.88804,1.3779c-3.49188,2.19301 -3.09047,8.48626 -7.07713,9.9629c-3.63099,1.34491 -8.67129,-2.85911 -12.60758,-2.15702c-5.74888,1.02538 -10.53835,6.5796 -16.67546,6.11236c-4.90524,-0.37344 -9.03723,-8.06978 -14.01105,-9.47965c-4.7647,-1.3506 -10.12273,3.70002 -14.33662,1.57c-6.60594,-3.33915 -6.53081,-11.30323 -11.51393,-16.15197c-2.8924,-2.8144 -11.4356,-2.09518 -13.69374,-5.28621c-2.34395,-3.31231 0.83491,-9.68434 -0.75507,-13.29604c-1.75286,-3.98162 -8.18951,-5.22932 -8.93419,-9.43632c-0.70874,-4.00392 5.74147,-6.72671 6.03107,-10.80641c0.27432,-3.86435 -6.0225,-7.39485 -4.96599,-11.12208c1.74795,-6.16652 8.60435,-4.64574 12.40052,-9.52703c4.62989,-5.95333 6.64009,-17.96833 13.52196,-21.64279c4.02727,-2.15028 9.38708,4.0204 13.94851,2.76005c3.78191,-1.04496 6.69559,-9.66641 10.73467,-10.04881c4.79981,-0.45442 10.62518,7.97441 15.63404,8.52686c4.0947,0.45161 7.35211,-7.14657 11.48487,-5.97511c5.11917,1.45107 6.86816,8.49359 11.34787,10.83886c3.82641,2.00325 10.47712,-0.80087 13.7654,1.74687c3.45705,2.67849 3.16121,10.08937 5.94869,13.25693c2.06705,2.34889 7.37673,0.35739 9.03891,2.91989c1.92796,2.97226 0.7813,10.17095 2.11918,13.36212c2.51939,6.0094 6.74106,8.24318 6.91863,14.6531c0.13433,4.84918 -5.6198,8.82006 -6.98938,13.6517z" fill="none" stroke="#bdbdbd" stroke-width="0.5"/><path d="M289.55118,199.41635c-0.50578,1.78432 3.0734,4.25796 2.34062,5.91723c-1.17948,2.67079 -6.08818,3.31424 -7.79604,5.63349c-1.66657,2.26318 -0.12058,6.21093 -2.22104,8.10737c-1.92981,1.74238 -7.42023,-0.28744 -9.66088,1.11977c-2.83771,1.78217 -2.51148,6.8964 -5.75127,8.0964c-2.95075,1.09294 -7.04678,-2.32346 -10.24564,-1.7529c-4.67185,0.83328 -8.56404,5.34695 -13.55141,4.96725c-3.98629,-0.30348 -7.34416,-6.55795 -11.38619,-7.70369c-3.87207,-1.09757 -8.22629,3.00684 -11.65075,1.27587c-5.36837,-2.71358 -5.30731,-9.18564 -9.35687,-13.126c-2.35053,-2.28715 -9.29321,-1.70265 -11.1283,-4.29587c-1.90483,-2.69177 0.6785,-7.87003 -0.61362,-10.8051c-1.42446,-3.23569 -6.65526,-4.24966 -7.26044,-7.66849c-0.57595,-3.25382 4.66585,-5.46649 4.90119,-8.78188c0.22293,-3.14038 -4.89423,-6.00947 -4.03564,-9.03843c1.42048,-5.01126 6.99239,-3.7754 10.07736,-7.7422c3.7625,-4.83801 5.3961,-14.60208 10.98871,-17.58815c3.27279,-1.74744 7.62847,3.26721 11.33535,2.24296c3.07339,-0.8492 5.44122,-7.85547 8.72359,-8.16623c3.9006,-0.3693 8.63462,6.48046 12.7051,6.92941c3.32758,0.36702 5.97475,-5.8077 9.33326,-4.8557c4.16014,1.17923 5.58145,6.90237 9.22191,8.80827c3.10955,1.62795 8.51429,-0.65083 11.18654,1.41961c2.80939,2.17669 2.56897,8.19918 4.83424,10.77332c1.6798,1.90884 5.99476,0.29043 7.34553,2.37287c1.56678,2.41542 0.63492,8.26548 1.72216,10.85882c2.0474,4.88357 5.47815,6.69886 5.62247,11.90794c0.10917,3.94071 -4.56697,7.16768 -5.67996,11.09414z" fill="none" stroke="#bdbdbd" stroke-width="0.5"/><path d="M278.79854,196.14127c-0.38918,1.37297 2.36488,3.27636 1.80103,4.55311c-0.90756,2.05508 -4.68464,2.55021 -5.9988,4.33478c-1.28239,1.74144 -0.09279,4.77912 -1.70902,6.23835c-1.48493,1.3407 -5.70964,-0.22117 -7.43374,0.86162c-2.18351,1.37131 -1.9325,5.30654 -4.42541,6.22991c-2.27051,0.84098 -5.42226,-1.78783 -7.88367,-1.3488c-3.59484,0.64119 -6.58977,4.11431 -10.42737,3.82215c-3.06731,-0.23352 -5.65109,-5.04613 -8.76129,-5.92774c-2.97943,-0.84454 -6.32986,2.31367 -8.96488,0.98173c-4.13079,-2.08801 -4.08379,-7.06804 -7.1998,-10.10003c-1.80865,-1.75988 -7.15084,-1.31015 -8.56288,-3.30554c-1.4657,-2.07123 0.52207,-6.05574 -0.47215,-8.31417c-1.09607,-2.48976 -5.12101,-3.26998 -5.58666,-5.90066c-0.44318,-2.5037 3.59022,-4.20629 3.7713,-6.75737c0.17153,-2.41643 -3.76594,-4.6241 -3.10529,-6.95478c1.09301,-3.85599 5.3804,-2.90504 7.75419,-5.95737c2.89512,-3.72269 4.15213,-11.23584 8.45545,-13.53351c2.5183,-1.3446 5.86987,2.51402 8.72219,1.72589c2.36487,-0.65343 4.18683,-6.04452 6.71251,-6.28365c3.00138,-0.28415 6.64406,4.98649 9.77617,5.33195c2.56047,0.2824 4.59738,-4.46883 7.18163,-3.7363c3.20108,0.90737 4.29475,5.31115 7.09596,6.77768c2.3927,1.25264 6.55148,-0.50079 8.60768,1.09234c2.16173,1.67489 1.97673,6.30901 3.71979,8.28972c1.29255,1.46879 4.61275,0.22347 5.65214,1.82583c1.20559,1.85858 0.48855,6.36002 1.32515,8.3555c1.57541,3.75774 4.21527,5.15455 4.32631,9.16277c0.08399,3.03226 -3.51413,5.5153 -4.37054,8.53658z" fill="none" stroke="#bdbdbd" stroke-width="0.5"/></g></g></svg>