<svg version="1.1" xmlns="http://www.w3.org/2000/svg" xmlns:xlink="http://www.w3.org/1999/xlink" width="189.26344" height="299.03358" viewBox="0,0,189.26344,299.03358"><defs><linearGradient x1="288.90891" y1="136.58427" x2="388.29655" y2="136.58427" gradientUnits="userSpaceOnUse" id="color-1"><stop offset="0" stop-color="#00b4ff" stop-opacity="0.26667"/><stop offset="1" stop-color="#faff66" stop-opacity="0.6"/></linearGradient><linearGradient x1="288.11037" y1="222.60702" x2="387.498" y2="222.60702" gradientUnits="userSpaceOnUse" id="color-2"><stop offset="0" stop-color="#00b4ff" stop-opacity="0.26667"/><stop offset="1" stop-color="#faff66" stop-opacity="0.6"/></linearGradient><linearGradient x1="282.15473" y1="103.79028" x2="381.54237" y2="103.79028" gradientUnits="userSpaceOnUse" id="color-3"><stop offset="0" stop-color="#00b4ff" stop-opacity="0.26667"/><stop offset="1" stop-color="#faff66" stop-opacity="0.6"/></linearGradient><linearGradient x1="282.33406" y1="252.17888" x2="381.72169" y2="252.17888" gradientUnits="userSpaceOnUse" id="color-4"><stop offset="0" stop-color="#00b4ff" stop-opacity="0.26667"/><stop offset="1" stop-color="#faff66" stop-opacity="0.6"/></linearGradient><linearGradient x1="245.23706" y1="57.72084" x2="300.13088" y2="57.72084" gradientUnits="userSpaceOnUse" id="color-5"><stop offset="0" stop-color="#00b4ff" stop-opacity="0.26667"/><stop offset="1" stop-color="#faff66" stop-opacity="0.6"/></linearGradient><linearGradient x1="246.03751" y1="298.88032" x2="302.8871" y2="298.88032" gradientUnits="userSpaceOnUse" id="color-6"><stop offset="0" stop-color="#00b4ff" stop-opacity="0.26667"/><stop offset="1" stop-color="#faff66" stop-opacity="0.6"/></linearGradient><linearGradient x1="236.14796" y1="33.853" x2="271.53574" y2="33.853" gradientUnits="userSpaceOnUse" id="color-7"><stop offset="0" stop-color="#00b4ff" stop-opacity="0.26667"/><stop offset="1" stop-color="#faff66" stop-opacity="0.6"/></linearGradient><linearGradient x1="236.14627" y1="321.79692" x2="273.50003" y2="321.79692" gradientUnits="userSpaceOnUse" id="color-8"><stop offset="0" stop-color="#00b4ff" stop-opacity="0.26667"/><stop offset="1" stop-color="#faff66" stop-opacity="0.6"/></linearGradient><linearGradient x1="322.02207" y1="180.00002" x2="421.40971" y2="180.00002" gradientUnits="userSpaceOnUse" id="color-9"><stop offset="0" stop-color="#00b4ff" stop-opacity="0.26667"/><stop offset="1" stop-color="#faff66" stop-opacity="0.6"/></linearGradient></defs><g transform="translate(-234.14627,-28.4304)"><g data-paper-data="{&quot;isPaintingLayer&quot;:true}" fill-rule="nonzero" stroke="#f7ff00" stroke-width="4" stroke-linecap="butt" stroke-linejoin="miter" stroke-miterlimit="10" stroke-dasharray="" stroke-dashoffset="0" style="mix-blend-mode: normal"><path d="M288.90891,136.00005c0,-3.79263 2.31483,-11.10023 6.21173,-11.10023c18.32233,0 71.61875,0 83.72328,0c4.75892,0 9.45263,6.37148 9.45263,9.93179c0,4.14121 -3.46054,13.43712 -6.75188,13.43712c-10.68089,0 -68.49954,0 -86.96418,0c-3.57228,0 -5.67158,-8.28143 -5.67158,-12.26867z" fill="url(#color-1)"/><path d="M288.11037,222.02279c0,-3.79263 2.31483,-11.10023 6.21173,-11.10023c18.32233,0 71.61875,0 83.72328,0c4.75892,0 9.45262,6.37147 9.45262,9.93178c0,4.14121 -3.46054,13.43712 -6.75187,13.43712c-10.68089,0 -68.49954,0 -86.96418,0c-3.57228,0 -5.67157,-8.28142 -5.67157,-12.26867z" fill="url(#color-2)"/><path d="M282.15473,103.33195c0,-2.97541 2.31483,-8.70837 6.21173,-8.70837c18.32233,0 71.61875,0 83.72328,0c4.75892,0 9.45263,4.99856 9.45263,7.7917c0,3.24886 -3.46054,10.5417 -6.75188,10.5417c-10.68089,0 -68.49954,0 -86.96418,0c-3.57228,0 -5.67158,-6.49696 -5.67158,-9.62504z" fill="url(#color-3)"/><path d="M282.33406,251.75507c0,-2.75134 2.31483,-8.05258 6.21173,-8.05258c18.32233,0 71.61875,0 83.72328,0c4.75892,0 9.45262,4.62213 9.45262,7.20494c0,3.00421 -3.46054,9.74783 -6.75187,9.74783c-10.68089,0 -68.49954,0 -86.96418,0c-3.57228,0 -5.67157,-6.00767 -5.67157,-8.90019z" fill="url(#color-4)"/><path d="M245.23707,57.12947c0,-3.83909 0.95967,-11.23617 2.57521,-11.23617c3.3579,0 10.03821,13.20146 16.33521,13.20146c7.94752,0 15.57434,-13.20146 18.37418,-13.20146c1.97292,0 17.60921,8.89423 17.60921,12.49813c0,4.19192 -15.12506,11.15695 -16.48956,11.15695c-4.42801,0 -28.39804,0 -36.05298,0c-1.48097,0 -2.35128,-8.38285 -2.35128,-12.41892z" fill="url(#color-5)"/><path d="M246.03751,298.28896c0,-3.83909 0.95966,-11.23618 2.57521,-11.23618c7.59594,0 29.69118,0 34.70939,0c1.97292,0 19.56499,5.96057 19.56499,9.56447c0,4.19192 -17.08083,14.09062 -18.44533,14.09062c-2.34364,0 -10.6506,-9.28992 -18.62652,-9.28992c-7.09357,0 -13.82309,9.28992 -17.42646,9.28992c-1.48097,0 -2.35128,-8.38286 -2.35128,-12.41893z" fill="url(#color-6)"/><path d="M236.14796,37.2756v-6.8452h35.38778v6.8452z" fill="url(#color-7)"/><path d="M236.14627,325.46398v-7.33415h37.35376v7.33415z" fill="url(#color-8)"/><path d="M322.02207,179.21245c0,-5.11273 2.31483,-14.96386 6.21173,-14.96386c18.32233,0 71.61875,0 83.72328,0c4.75892,0 9.45263,8.58918 9.45263,13.3887c0,5.58262 -3.46054,18.11413 -6.75188,18.11413c-10.68089,0 -68.49954,0 -86.96418,0c-3.57228,0 -5.67158,-11.16391 -5.67158,-16.53899z" fill="url(#color-9)"/></g></g></svg>