<svg version="1.1" xmlns="http://www.w3.org/2000/svg" xmlns:xlink="http://www.w3.org/1999/xlink" width="84.59988" height="81.96861" viewBox="0,0,84.59988,81.96861"><defs><radialGradient cx="236.14815" cy="166.50905" r="36.87848" gradientUnits="userSpaceOnUse" id="color-1"><stop offset="0" stop-color="#c4a5b6"/><stop offset="1" stop-color="#a4c4a7"/></radialGradient><radialGradient cx="214.54301" cy="169.65161" r="5.35907" gradientUnits="userSpaceOnUse" id="color-2"><stop offset="0" stop-color="#a4bbc4"/><stop offset="1" stop-color="#a4c4a7"/></radialGradient><radialGradient cx="250.28971" cy="194.79216" r="36.86191" gradientUnits="userSpaceOnUse" id="color-3"><stop offset="0" stop-color="#c4a5b6"/><stop offset="1" stop-color="#a4c4a7"/></radialGradient></defs><g transform="translate(-197.70006,-139.0157)"><g data-paper-data="{&quot;isPaintingLayer&quot;:true}" fill-rule="nonzero" stroke="none" stroke-linecap="butt" stroke-linejoin="miter" stroke-miterlimit="10" stroke-dasharray="" stroke-dashoffset="0" style="mix-blend-mode: normal"><g><path d="M229.85265,142.51635c-0.73076,0.43517 -1.45968,0.93922 -2.18624,1.51702c-6.63495,5.27771 -2.73116,6.11771 -9.32418,11.55822c-0.85068,0.70213 -1.66277,1.26601 -2.4387,1.72809c-3.49548,2.08164 -6.2692,2.11117 -8.64112,3.52371c-0.70533,0.42005 -1.37508,0.96198 -2.0177,1.71717c-2.2642,2.6604 -1.20742,6.28821 -1.77827,10.04611c-0.43542,2.86478 -4.17455,7.00552 -4.43285,10.96941c-0.18397,2.81439 3.1254,5.94447 4.4838,8.34048c1.00711,1.77578 1.21509,6.54597 2.29345,7.72005c2.48388,2.70126 5.86943,1.59629 9.09639,-0.32546c2.46535,-1.46817 4.838,-3.41262 6.64688,-4.50064c0,0 16.12898,-8.64261 21.88743,-12.07191c0.51464,-0.30648 0.94515,-0.57108 1.2756,-0.7843c5.07032,-3.00615 14.27933,-8.27266 20.36212,-11.89509c0.24652,-0.14681 0.48808,-0.29067 0.72381,-0.43213c6.32051,-3.78402 10.57155,-15.07945 1.99329,-18.98324c-6.00432,-2.7317 -13.25666,2.88636 -17.57993,-3.00645c-4.80076,-6.54332 -12.62805,-9.72787 -20.36379,-5.12103M229.85265,142.51635l-0.67858,-1.13946v0c3.95995,-2.35825 8.22552,-2.96443 12.3352,-1.75363c3.73197,1.09929 7.1123,3.59957 9.77609,7.22935c1.93333,2.63553 4.43735,2.47286 8.36236,1.98866c2.72498,-0.33601 5.81317,-0.7169 8.69773,0.59575c3.40075,1.54706 5.38394,4.36229 5.5844,7.92587c0.27765,4.93299 -2.92296,10.69431 -7.44555,13.40204l-0.72652,0.43368c-3.33099,1.98369 -7.53607,4.42362 -11.60259,6.78359c-3.31618,1.9239 -6.44841,3.74193 -8.74017,5.09998c-0.33024,0.21264 -0.76545,0.4806 -1.29491,0.79589c-5.60118,3.33564 -21.12547,11.66487 -21.90986,12.08515c-0.77241,0.4672 -1.68973,1.12307 -2.66008,1.81774c-1.20558,0.86306 -2.57277,1.84089 -3.96403,2.66942c-1.73043,1.03052 -6.99657,4.16663 -10.75079,0.08298c-0.82558,-0.89806 -1.16518,-2.60106 -1.55815,-4.57326c-0.25642,-1.28594 -0.54691,-2.74394 -0.9134,-3.38958c-0.36858,-0.65003 -0.92823,-1.40239 -1.52057,-2.19911c-1.54375,-2.0756 -3.29328,-4.42856 -3.13291,-6.88159c0.16487,-2.53288 1.51594,-5.00041 2.70806,-7.17771c0.8139,-1.48703 1.58294,-2.89119 1.73724,-3.9056c0.17295,-1.14029 0.18506,-2.30974 0.19613,-3.44113c0.02471,-2.51324 0.05078,-5.11159 1.8837,-7.26511c0.69453,-0.81651 1.46316,-1.46979 2.34889,-1.99727c1.20742,-0.71905 2.45534,-1.10406 3.77666,-1.51177c1.51592,-0.46799 3.08347,-0.9513 4.86405,-2.01167c0.77558,-0.46187 1.51927,-0.98866 2.27332,-1.61106c3.03028,-2.50075 3.62869,-3.86921 4.2617,-5.31792c0.72939,-1.66866 1.48372,-3.39391 5.08074,-6.25534c0.76089,-0.60492 1.54551,-1.14933 2.33322,-1.61843z" fill="#010100" stroke-width="0.66342"/><path d="M229.83448,142.43031c7.73574,-4.60684 15.62761,-1.41092 20.42837,5.13239c4.32328,5.89281 11.6036,0.30256 17.60792,3.03426c8.57826,3.90379 4.34069,15.24268 -1.97982,19.0267c-0.23574,0.14146 -0.47726,0.28653 -0.72378,0.43334c-6.08278,3.62243 -15.32489,8.95992 -20.39522,11.96608c-0.33045,0.21322 -0.76847,0.48319 -1.28311,0.78967c-5.75845,3.42929 -21.97965,12.07336 -21.97965,12.07336c-1.80888,1.08802 -4.18862,3.02777 -6.65396,4.49594c-3.22696,1.92174 -6.62391,3.01674 -9.10779,0.31548c-1.07836,-1.17408 -1.29654,-5.95708 -2.30366,-7.73285c-1.3584,-2.39601 -4.67724,-5.54535 -4.49327,-8.35974c0.2583,-3.96389 3.9927,-8.12857 4.42812,-10.99335c0.57085,-3.7579 -0.48305,-7.4135 1.78116,-10.0739c0.64263,-0.75519 1.31424,-1.30319 2.01957,-1.72324c2.37192,-1.41254 5.15584,-1.4624 8.65132,-3.54404c0.77593,-0.46208 1.59451,-1.03441 2.44519,-1.73654c6.59302,-5.44051 2.72994,-6.30693 9.3649,-11.58464c0.72656,-0.5778 1.46295,-1.08376 2.19371,-1.51893" data-paper-data="{&quot;noHover&quot;:false,&quot;origItem&quot;:[&quot;Path&quot;,{&quot;applyMatrix&quot;:true,&quot;segments&quot;:[[[234.23065,158.6884],[0,0],[-0.41548,0.24742]],[[232.98765,159.55091],[0.41309,-0.32851],[-3.77235,3.00068]],[[227.68632,166.12241],[3.74851,-3.09324],[-0.48366,0.3992]],[[226.29978,167.10494],[0.44116,-0.26272],[-1.98738,1.18353]],[[221.38681,169.10837],[1.34857,-0.80311],[-0.40102,0.23882]],[[220.23963,170.08468],[0.36537,-0.42937],[-1.28733,1.51259]],[[219.22858,175.79647],[0.32456,-2.13658],[-0.24756,1.62879]],[[216.70825,182.03321],[0.14686,-2.2537],[-0.1046,1.60014]],[[219.25755,186.77525],[-0.77233,-1.36227],[0.5726,1.00963]],[[220.56151,191.16454],[-0.61311,-0.66753],[1.41223,1.53582]],[[225.73333,190.9795],[-1.83471,1.09262],[1.40169,-0.83474]],[[229.51246,188.42063],[-1.02845,0.6186],[0,0]],[[241.95672,181.55706],[-3.27401,1.94975],[0.2926,-0.17425]],[[242.68197,181.11114],[-0.18788,0.12123],[2.88277,-1.70917]],[[254.259,174.3481],[-3.45841,2.05956],[0.14016,-0.08347]],[[254.67053,174.10241],[-0.13403,0.08043],[3.59357,-2.15143]],[[255.80383,163.30935],[4.87723,2.21953],[-3.4138,-1.55313]],[[245.80863,161.60001],[2.45803,3.3504],[-2.72951,-3.72025]],[[234.23065,158.6884],[4.39821,-2.61925],[0,0]]],&quot;fillColor&quot;:[0,0,0,1],&quot;strokeWidth&quot;:0.66342}]}" fill="url(#color-1)" stroke-width="0.33171"/><path d="M211.25221,170.89094c-2.80885,0.8871 -4.4698,2.61402 -5.61745,5.29018c-0.8447,1.96837 -1.36665,4.25757 -2.63704,6.0087c-0.20687,0.28421 -0.7802,0.14665 -0.63111,-0.24933c1.84914,-4.9143 2.67567,-10.98338 8.45862,-12.60898c1.00424,-0.28265 1.41882,1.24557 0.42696,1.55944z" fill="#231f20" stroke-width="0.66342"/><path d="M206.03291,178.98636c-0.18672,0.13485 -0.40956,-0.15636 -0.25041,-0.31341c3.31456,-3.23806 4.81654,-7.66672 9.76216,-8.71029c0.90351,-0.19078 1.2937,1.19186 0.38209,1.38901c-2.54305,0.55074 -4.48894,1.73787 -6.09924,3.78402c-1.15788,1.47269 -2.27157,2.75181 -3.7946,3.85068z" fill="url(#color-2)" stroke-width="0.66342"/><path d="M252.16687,163.28469c0.56373,-1.71101 1.38799,-3.7439 1.14346,-5.57143c-0.17587,-1.32516 -0.69996,-2.66923 -1.74633,-3.55883c-0.96379,-0.82087 -1.82875,-0.76575 -2.88337,-1.18368c-1.43945,-0.56902 -3.90035,-2.93619 -3.9084,-4.6138c-0.00148,-0.51573 0.52209,-0.75702 0.95334,-0.56774c0.99096,0.43375 1.7308,2.06924 2.3659,2.87901c1.10286,1.40443 3.19621,1.32365 4.32802,2.80598c2.25483,2.94825 1.67332,6.71507 0.55096,10.01422c-0.17121,0.50222 -0.97123,0.30616 -0.80356,-0.20371z" fill="#231f20" stroke-width="0.66342"/><path d="M252.69538,166.92914c-0.18607,0.19729 -0.54264,-0.05245 -0.38932,-0.28831c1.12877,-1.7203 2.66942,-3.70796 3.07552,-5.76663c0.21437,-1.08976 0.3972,-2.50038 -0.17277,-3.53168c-0.30468,-0.55224 -0.67022,-1.01058 -0.85495,-1.61627c-0.13248,-0.4367 0.37864,-0.84245 0.77336,-0.60822c1.68467,1.00333 1.48792,3.82997 0.99752,5.45667c-0.72195,2.39744 -1.71219,4.53175 -3.42936,6.35443z" fill="#231f20" stroke-width="0.66342"/><path d="M228.90485,146.76266c-2.14121,1.41303 -2.70407,3.35092 -3.85004,5.49514c-0.94574,1.77185 -2.02942,3.06857 -3.45944,4.4609c-0.02941,0.02837 -0.07039,-0.01361 -0.04385,-0.0433c1.68859,-1.93632 2.78864,-4.37017 3.84142,-6.68117c0.71375,-1.56876 1.46715,-3.16689 3.09299,-3.93503c0.47169,-0.22219 0.8654,0.4087 0.41892,0.70345z" fill="#231f20" stroke-width="0.66342"/><path d="M250.20017,217.47406c0.7302,-0.43612 1.45846,-0.94108 2.1843,-1.51981c6.6282,-5.28619 2.72335,-6.12121 9.30939,-11.57013c0.84978,-0.7032 1.66115,-1.26812 2.43648,-1.73121c3.49282,-2.0861 6.26649,-2.11917 8.63661,-3.53475c0.70478,-0.42094 1.37385,-0.96374 2.0155,-1.71976c2.26079,-2.66328 1.19939,-6.28976 1.76542,-10.04838c0.43176,-2.86532 4.16558,-7.01085 4.41882,-10.97506c0.18039,-2.81462 -3.133,-5.94047 -4.49446,-8.33474c-1.00938,-1.77447 -1.22347,-6.54441 -2.30332,-7.71711c-2.48733,-2.69809 -5.87146,-1.58878 -9.09597,0.3371c-2.46348,1.47132 -4.83364,3.41881 -6.64111,4.50913c0,0 -16.11792,8.66323 -21.87199,12.09989c-0.51425,0.30715 -0.94443,0.57229 -1.27459,0.78594c-5.06647,3.01264 -14.26875,8.29091 -20.34688,11.92112c-0.24634,0.14713 -0.48769,0.29128 -0.72325,0.43306c-6.31565,3.79211 -10.55225,15.09295 -1.96902,18.98577c6.00782,2.72402 13.25296,-2.90331 17.58375,2.98397c4.80912,6.53716 12.64048,9.7117 20.37033,5.095M250.20017,217.47406l0.68004,1.1386v0c-3.95694,2.36331 -8.22172,2.97495 -12.33295,1.76941c-3.73338,-1.09452 -7.11689,-3.59047 -9.78533,-7.21684c-1.93671,-2.63305 -4.44052,-2.46717 -8.36491,-1.97797c-2.72456,0.33949 -5.81225,0.72432 -8.69849,-0.58464c-3.40274,-1.54269 -5.38952,-4.35539 -5.59453,-7.91871c-0.28395,-4.93264 2.90929,-10.69804 7.4284,-13.41156l0.72598,-0.43461c3.32846,-1.98794 7.53041,-4.43326 11.59391,-6.79844c3.31372,-1.92814 6.44362,-3.75018 8.73365,-5.11115c0.32998,-0.21307 0.76483,-0.48157 1.29389,-0.79754c5.5969,-3.34279 21.11054,-11.69187 21.89438,-12.11317c0.77181,-0.46818 1.68829,-1.12523 2.65776,-1.82115c1.20447,-0.86459 2.57042,-1.84418 3.96062,-2.67449c1.72911,-1.03272 6.99122,-4.17557 10.75067,-0.09674c0.82672,0.89701 1.1685,2.59956 1.56399,4.57125c0.25807,1.2856 0.55041,2.74324 0.91774,3.3884c0.36941,0.64957 0.93002,1.40121 1.52338,2.19716c1.54641,2.07363 3.29895,4.42434 3.14171,6.87758c-0.16164,2.5331 -1.50954,5.00235 -2.69888,7.18116c-0.812,1.48806 -1.57924,2.89322 -1.73224,3.90782c-0.17149,1.14052 -0.18211,2.30999 -0.19171,3.44138c-0.02149,2.51327 -0.04423,5.11164 -1.87441,7.2675c-0.69349,0.8174 -1.46128,1.47165 -2.34634,2.00026c-1.20651,0.7206 -2.45391,1.10721 -3.77473,1.51661c-1.51533,0.46993 -3.08226,0.95524 -4.86146,2.0179c-0.775,0.46287 -1.518,0.99059 -2.27126,1.61396c-3.02708,2.50462 -3.62375,3.87386 -4.25489,5.32337c-0.72726,1.66959 -1.47938,3.39581 -5.07273,6.26183c-0.76012,0.60588 -1.54403,1.1513 -2.33116,1.62142z" fill="#010100" stroke-width="0.66342"/><path d="M250.21843,217.5601c-7.72985,4.6167 -15.62578,1.4309 -20.4349,-5.10626c-4.33079,-5.88729 -11.60395,-0.28771 -17.61177,-3.01173c-8.58323,-3.89282 -4.36018,-15.23709 1.95548,-19.0292c0.23556,-0.14178 0.47687,-0.28715 0.72322,-0.43427c6.07814,-3.63021 15.31337,-8.97952 20.37985,-11.99216c0.33017,-0.21365 0.76786,-0.48417 1.2821,-0.79132c5.75407,-3.43666 21.96426,-12.10149 21.96426,-12.10149c1.80747,-1.09032 4.18471,-3.03313 6.6482,-4.50445c3.22451,-1.92587 6.62005,-3.02522 9.10738,-0.32713c1.07986,1.1727 1.30416,5.95544 2.31354,7.72992c1.36146,2.39427 4.68433,5.53939 4.50394,8.354c-0.25324,3.96421 -3.98231,8.13369 -4.41407,10.99901c-0.56603,3.75862 0.49251,7.41288 -1.76828,10.07617c-0.64166,0.75602 -1.31259,1.30488 -2.01737,1.72582c-2.37012,1.41558 -5.15397,1.469 -8.6468,3.5551c-0.77533,0.46308 -1.59317,1.03645 -2.44296,1.73965c-6.58604,5.44891 -2.72185,6.31038 -9.35005,11.59656c-0.72584,0.57873 -1.46156,1.08562 -2.19176,1.52175" data-paper-data="{&quot;noHover&quot;:false,&quot;origItem&quot;:[&quot;Path&quot;,{&quot;applyMatrix&quot;:true,&quot;segments&quot;:[[[245.79938,201.30615],[0,0],[0.41516,-0.24796]],[[247.04128,200.44205],[-0.41268,0.32904],[3.76851,-3.0055]],[[252.3342,193.86377],[-3.74454,3.09802],[0.48315,-0.39981]],[[253.71948,192.87948],[-0.44082,0.26329],[1.98587,-1.18607]],[[258.62989,190.86977],[-1.34755,0.80484],[0.40071,-0.23933]],[[259.77582,189.89199],[-0.36482,0.42984],[1.28539,-1.51423]],[[260.77956,184.17891],[-0.32182,2.13699],[0.24548,-1.6291]],[[263.29191,177.93896],[-0.14398,2.25388],[0.10256,-1.60027]],[[260.73654,173.20018],[0.77407,1.36128],[-0.57389,-1.00889]],[[259.42698,168.81256],[0.61396,0.66675],[-1.41419,-1.53402]],[[254.2554,169.00422],[1.83332,-1.09497],[-1.40063,0.83653]],[[250.47955,171.56792],[1.02765,-0.61991],[0,0]],[[238.04407,178.4474],[3.27152,-1.95394],[-0.29238,0.17463]],[[237.31939,178.89425],[0.18772,-0.12147],[-2.88058,1.71286]],[[225.75102,185.67209],[3.45577,-2.06398],[-0.14006,0.08365]],[[225.33981,185.91831],[0.13393,-0.08061],[-3.59081,2.15603]],[[224.22031,196.71281],[-4.88006,-2.21329],[3.41579,1.54876]],[[234.21768,198.40937],[-2.4623,-3.34726],[2.73426,3.71675]],[[245.79938,201.30617],[-4.39486,2.62486],[0,0]]],&quot;fillColor&quot;:[0,0,0,1],&quot;strokeWidth&quot;:0.66342}]}" fill="url(#color-3)" stroke-width="0.33171"/><path d="M268.76432,189.07571c2.8077,-0.89069 4.46646,-2.61974 5.61067,-5.29736c0.84218,-1.96946 1.3612,-4.25931 2.62936,-6.01206c0.20652,-0.28447 0.78001,-0.14765 0.63142,0.24852c-1.84284,4.91665 -2.66163,10.98679 -8.44249,12.61978c-1.00389,0.28393 -1.4204,-1.24374 -0.42896,-1.55889z" fill="#231f20" stroke-width="0.66342"/><path d="M273.97325,180.9736c0.18654,-0.13508 0.40976,0.15583 0.25081,0.31309c-3.31041,3.24228 -4.80674,7.67288 -9.75101,8.72278c-0.90327,0.19194 -1.29523,-1.19021 -0.38387,-1.38851c2.54235,-0.554 4.48671,-1.74361 6.09439,-3.79183c1.156,-1.47419 2.26804,-2.75471 3.78968,-3.85553z" fill="#231f20" stroke-width="0.66342"/><path d="M227.85942,196.73428c-0.56154,1.71174 -1.3832,3.74567 -1.13631,5.57289c0.17755,1.32493 0.70338,2.66833 1.75089,3.5566c0.96485,0.81964 1.82974,0.76341 2.88488,1.18c1.44017,0.56717 3.90409,2.93121 3.91431,4.60881c0.00215,0.51573 -0.52113,0.75769 -0.95262,0.56897c-0.99153,-0.43248 -1.73344,-2.06702 -2.36958,-2.87598c-1.10466,-1.40301 -3.1979,-1.31955 -4.33159,-2.80046c-2.25859,-2.94537 -1.68191,-6.71292 -0.56378,-10.0135c0.17057,-0.50245 0.97084,-0.30739 0.80382,0.20269z" fill="#231f20" stroke-width="0.66342"/><path d="M227.32624,193.0905c0.18582,-0.19752 0.54271,0.05176 0.38969,0.28782c-1.12657,1.72174 -2.66467,3.71138 -3.06813,5.77055c-0.21298,1.09002 -0.394,2.50089 0.17729,3.53145c0.30539,0.55185 0.67152,1.00971 0.85701,1.61518c0.13304,0.43653 -0.37757,0.84292 -0.77259,0.60921c-1.68595,-1.00118 -1.49281,-3.82806 -1.00451,-5.45539c0.71887,-2.39835 1.70641,-4.53393 3.42124,-6.35881z" fill="#231f20" stroke-width="0.66342"/><path d="M251.14256,213.22653c2.13941,-1.41578 2.69978,-3.35437 3.84303,-5.50006c0.94349,-1.77305 2.02549,-3.07118 3.45372,-4.46532c0.02937,-0.02842 0.07039,0.01353 0.0439,0.04325c-1.68611,1.93849 -2.78304,4.37374 -3.83288,6.68608c-0.71175,1.56967 -1.46309,3.16877 -3.08796,3.93899c-0.4714,0.22279 -0.86591,-0.40759 -0.41982,-0.70292z" fill="#231f20" stroke-width="0.66342"/></g></g></g></svg>