<svg version="1.1" xmlns="http://www.w3.org/2000/svg" xmlns:xlink="http://www.w3.org/1999/xlink" width="89.57989" height="88.87055" viewBox="0,0,89.57989,88.87055"><defs><radialGradient cx="244.49735" cy="152.89109" r="12.94652" gradientUnits="userSpaceOnUse" id="color-1"><stop offset="0" stop-color="#ffbfbf"/><stop offset="1" stop-color="#ffbfbf" stop-opacity="0"/></radialGradient><radialGradient cx="201.63639" cy="175.87075" r="21.98173" gradientUnits="userSpaceOnUse" id="color-2"><stop offset="0" stop-color="#ffbfbf"/><stop offset="1" stop-color="#ffbfbf" stop-opacity="0"/></radialGradient><radialGradient cx="260.95247" cy="187.21402" r="8.28207" gradientUnits="userSpaceOnUse" id="color-3"><stop offset="0" stop-color="#ffbfbf"/><stop offset="1" stop-color="#ffbfbf" stop-opacity="0"/></radialGradient><radialGradient cx="236.21707" cy="206.83335" r="21.98173" gradientUnits="userSpaceOnUse" id="color-4"><stop offset="0" stop-color="#ffbfbf"/><stop offset="1" stop-color="#ffbfbf" stop-opacity="0"/></radialGradient></defs><g transform="translate(-179.65465,-139.94455)"><g data-paper-data="{&quot;isPaintingLayer&quot;:true}" fill-rule="nonzero" stroke="none" stroke-width="0" stroke-linecap="butt" stroke-linejoin="miter" stroke-miterlimit="10" stroke-dasharray="" stroke-dashoffset="0" style="mix-blend-mode: normal"><path d="M231.55084,152.89109c0,-7.15017 5.79635,-12.94654 12.94654,-12.94654c7.15017,0 12.94652,5.79635 12.94652,12.94654c0,7.15017 -5.79635,12.94652 -12.94652,12.94652c-7.15017,0 -12.94654,-5.79635 -12.94654,-12.94652z" fill="url(#color-1)"/><path d="M201.63639,153.88902c12.14018,0 21.98173,9.84156 21.98173,21.98174c0,12.14018 -9.84156,21.98174 -21.98173,21.98174c-12.14018,0 -21.98174,-9.84156 -21.98174,-21.98174c0,-12.14018 9.84156,-21.98174 21.98174,-21.98174z" fill="url(#color-2)"/><path d="M252.67041,187.21402c0,-4.57405 3.708,-8.28207 8.28206,-8.28207c4.57407,0 8.28207,3.708 8.28207,8.28207c0,4.57405 -3.70802,8.28206 -8.28207,8.28206c-4.57405,0 -8.28206,-3.708 -8.28206,-8.28206z" fill="url(#color-3)"/><path d="M236.21707,184.85162c12.14018,0 21.98173,9.84156 21.98173,21.98174c0,12.14018 -9.84156,21.98174 -21.98173,21.98174c-12.14018,0 -21.98174,-9.84156 -21.98174,-21.98174c0,-12.14018 9.84156,-21.98174 21.98174,-21.98174z" fill="url(#color-4)"/></g></g></svg>