<svg version="1.1" xmlns="http://www.w3.org/2000/svg" xmlns:xlink="http://www.w3.org/1999/xlink" width="88.2231" height="47.27472" viewBox="0,0,88.2231,47.27472"><g transform="translate(-237.03361,-153.71062)"><g data-paper-data="{&quot;isPaintingLayer&quot;:true}" fill-rule="nonzero" stroke="none" stroke-width="1.20944" stroke-linecap="butt" stroke-linejoin="miter" stroke-miterlimit="10" stroke-dasharray="" stroke-dashoffset="0" style="mix-blend-mode: normal"><path d="M318.73585,163.39617c-2.52424,0.88736 -6.48406,1.15244 -8.0988,2.75854c-1.38624,1.36006 1.03664,3.00746 0.41449,4.45447c-1.47953,3.40692 -11.98328,3.48557 -17.39796,1.16614c5.63064,-1.51897 1.91569,-7.83009 5.3264,-10.30217c5.59743,-4.0525 20.14208,0.41327 19.75588,1.923z" data-paper-data="{&quot;index&quot;:null}" fill="#ff1816"/><path d="M314.8684,162.05c0,0 -4.73365,-0.01114 -6.28978,0.64097c-4.49758,1.88831 3.35248,11.00402 -9.40934,8.15883c6.9376,-0.77007 -6.1966,-13.34213 15.69911,-8.7998z" data-paper-data="{&quot;index&quot;:null}" fill="#ffea00"/><path d="M325.24713,178.87081c0.2964,7.73213 -6.31988,13.13199 -14.32487,14.22796c-17.37077,2.37251 -33.1392,-16.68855 -43.41796,-8.04916c-6.52504,5.46919 -10.39197,16.18934 -26.25878,13.39227c3.95258,-2.0913 5.53521,-5.35937 6.28914,-8.97772c2.28244,-11.00876 -18.8873,-19.86128 -6.68602,-30.10031c14.72086,-12.36498 27.90089,2.57221 44.07722,-4.21404c1.11466,-0.46006 1.78565,-2.01014 3.56422,-1.21701c-1.90771,18.64167 -24.22232,10.65153 -30.17953,16.27628c-2.03257,1.91605 -2.45434,5.66281 -0.81722,8.18831c1.08501,-1.77096 3.39774,-4.00682 5.27959,-5.31446c4.92551,-3.42087 16.88116,-5.86287 24.02911,-2.6635c5.84578,2.61509 10.17795,6.67359 14.78359,10.29199c8.53484,6.70905 19.39332,4.7649 23.66149,-1.84055z" data-paper-data="{&quot;index&quot;:null}" fill="#ff1816"/><path d="M320.28741,186.63144c-0.93888,0.94388 -2.50131,1.62286 -3.79469,2.2972c-13.96692,7.34917 -24.36031,-7.17529 -38.24456,-9.3356c-23.28326,-3.62793 -17.53856,16.78515 -32.64968,18.38558c4.97673,-3.80279 9.12824,-8.83352 3.78284,-17.84387c-1.41686,-2.39454 -6.75594,-9.51258 -7.20069,-11.27201c-1.01377,-3.98909 1.59487,-8.00634 6.00279,-9.47608c11.08866,-3.69759 18.70302,2.78475 28.69701,1.00864c2.88535,-0.51504 4.81009,-2.00514 7.27016,-3.03358c-4.405,12.34827 -21.32742,2.90038 -29.86501,10.33628c-4.57459,3.98583 -0.41461,10.30023 2.86278,14.99002c2.42324,-3.30877 15.73608,-17.11445 30.34069,-7.47604c7.57558,5.00009 21.02921,19.09628 32.79834,11.41951z" data-paper-data="{&quot;index&quot;:null}" fill="#ffea00"/><path d="M281.39205,187.4929c5.61236,-0.73559 12.1407,5.0926 13.61539,8.93119c-4.61418,-0.65878 -9.80047,-0.90672 -13.30229,0.76167c-3.78358,1.7964 -7.6291,4.89248 -13.69833,3.40938c-3.9451,-0.96697 -7.73413,-3.06053 -9.29165,-5.69175c13.8597,3.5848 16.05614,-6.54164 22.67688,-7.41049z" data-paper-data="{&quot;index&quot;:null}" fill="#ff1816"/><path d="M282.07584,191.27288c2.72138,0.20707 6.98658,2.25442 8.74056,3.79319l-4.12683,-0.63666c-10.6553,-1.64071 -12.67611,8.85271 -23.01474,3.45625c10.05985,2.06569 10.80135,-7.18425 18.40101,-6.61279z" data-paper-data="{&quot;index&quot;:null}" fill="#ffea00"/></g></g></svg>