<svg version="1.1" xmlns="http://www.w3.org/2000/svg" xmlns:xlink="http://www.w3.org/1999/xlink" width="104.38764" height="64.60047" viewBox="0,0,104.38764,64.60047"><defs><linearGradient x1="311.10125" y1="211.74669" x2="410.48888" y2="211.74669" gradientUnits="userSpaceOnUse" id="color-1"><stop offset="0" stop-color="#bfff80"/><stop offset="1" stop-color="#1a1a1a"/></linearGradient><linearGradient x1="366.34706" y1="211.5" x2="385.65294" y2="211.5" gradientUnits="userSpaceOnUse" id="color-2"><stop offset="0" stop-color="#00ffff" stop-opacity="0.03922"/><stop offset="1" stop-color="#b5f27c" stop-opacity="0.00784"/></linearGradient></defs><g transform="translate(-308.60125,-179.19976)"><g data-paper-data="{&quot;isPaintingLayer&quot;:true}" fill-rule="nonzero" stroke-linecap="butt" stroke-linejoin="miter" stroke-miterlimit="10" stroke-dasharray="" stroke-dashoffset="0" style="mix-blend-mode: normal"><path d="M314.88792,210.89429c0,-3.93247 2.12278,-11.50949 5.69635,-11.50949c16.80216,0 65.67667,0 76.77691,0c4.36408,0 8.66837,6.60638 8.66837,10.29794c0,4.29388 -3.17343,13.93253 -6.1917,13.93253c-9.79472,0 -62.81625,0 -79.74891,0c-3.27589,0 -5.20101,-8.58675 -5.20101,-12.721z" fill-opacity="0.8" fill="#ffffff" stroke="#fcff38" stroke-width="6"/><path d="M311.10125,211.20654c0,-3.50653 2.31483,-10.26286 6.21173,-10.26286c18.32233,0 71.61875,0 83.72328,0c4.75892,0 9.45263,5.89083 9.45263,9.18256c0,3.8288 -3.46054,12.42345 -6.75188,12.42345c-10.68089,0 -68.49954,0 -86.96418,0c-3.57228,0 -5.67158,-7.65669 -5.67158,-11.34315z" fill="url(#color-1)" stroke="#fbff38" stroke-width="5"/><path d="M366.34706,243.80024v-64.60047h19.30589v64.60047z" fill="url(#color-2)" stroke="none" stroke-width="0"/></g></g></svg>