<svg version="1.1" xmlns="http://www.w3.org/2000/svg" xmlns:xlink="http://www.w3.org/1999/xlink" width="191.26346" height="301.03361" viewBox="0,0,191.26346,301.03361"><g transform="translate(-153.14626,-27.43037)"><g data-paper-data="{&quot;isPaintingLayer&quot;:true}" fill="#00caca" fill-rule="nonzero" stroke="#ffffff" stroke-width="6" stroke-linecap="butt" stroke-linejoin="miter" stroke-miterlimit="10" stroke-dasharray="" stroke-dashoffset="0" style="mix-blend-mode: normal"><path d="M209.55441,136.00002c0,-3.79263 2.31483,-11.10023 6.21173,-11.10023c18.32233,0 71.61875,0 83.72328,0c4.75892,0 9.45263,6.37148 9.45263,9.93179c0,4.14121 -3.46054,13.43712 -6.75188,13.43712c-10.68089,0 -68.49954,0 -86.96418,0c-3.57228,0 -5.67158,-8.28143 -5.67158,-12.26867z"/><path d="M208.75586,222.02275c0,-3.79263 2.31483,-11.10023 6.21173,-11.10023c18.32233,0 71.61875,0 83.72328,0c4.75892,0 9.45262,6.37147 9.45262,9.93178c0,4.14121 -3.46054,13.43712 -6.75187,13.43712c-10.68089,0 -68.49954,0 -86.96418,0c-3.57228,0 -5.67157,-8.28142 -5.67157,-12.26867z"/><path d="M202.15472,103.3319c0,-2.97541 2.31483,-8.70837 6.21173,-8.70837c18.32233,0 71.61875,0 83.72328,0c4.75892,0 9.45263,4.99856 9.45263,7.7917c0,3.24886 -3.46054,10.5417 -6.75188,10.5417c-10.68089,0 -68.49954,0 -86.96418,0c-3.57228,0 -5.67158,-6.49696 -5.67158,-9.62504z"/><path d="M202.33406,251.75505c0,-2.75134 2.31483,-8.05258 6.21173,-8.05258c18.32233,0 71.61875,0 83.72328,0c4.75892,0 9.45262,4.62213 9.45262,7.20494c0,3.00421 -3.46054,9.74783 -6.75187,9.74783c-10.68089,0 -68.49954,0 -86.96418,0c-3.57228,0 -5.67157,-6.00767 -5.67157,-8.90019z"/><path d="M165.88256,57.12943c0,-3.83909 0.95967,-11.23617 2.57521,-11.23617c3.3579,0 10.03821,13.20146 16.33521,13.20146c7.94752,0 15.57434,-13.20146 18.37418,-13.20146c1.97292,0 17.60921,8.89423 17.60921,12.49813c0,4.19192 -15.12506,11.15695 -16.48956,11.15695c-4.42801,0 -28.39804,0 -36.05298,0c-1.48097,0 -2.35128,-8.38285 -2.35128,-12.41892z"/><path d="M166.683,298.28896c0,-3.83909 0.95966,-11.23618 2.57521,-11.23618c7.59594,0 29.69118,0 34.70939,0c1.97292,0 19.56499,5.96057 19.56499,9.56447c0,4.19192 -17.08083,14.09062 -18.44533,14.09062c-2.34364,0 -10.6506,-9.28992 -18.62652,-9.28992c-7.09357,0 -13.82309,9.28992 -17.42646,9.28992c-1.48097,0 -2.35128,-8.38286 -2.35128,-12.41893z"/><path d="M156.14795,37.27557v-6.8452h35.38778v6.8452z"/><path d="M156.14626,325.46398v-7.33415h37.35376v7.33415z"/><path d="M242.02208,179.21245c0,-5.11273 2.31483,-14.96386 6.21173,-14.96386c18.32233,0 71.61875,0 83.72328,0c4.75892,0 9.45263,8.58918 9.45263,13.3887c0,5.58262 -3.46054,18.11413 -6.75188,18.11413c-10.68089,0 -68.49954,0 -86.96418,0c-3.57228,0 -5.67158,-11.16391 -5.67158,-16.53899z"/></g></g></svg>