<svg version="1.1" xmlns="http://www.w3.org/2000/svg" xmlns:xlink="http://www.w3.org/1999/xlink" width="88.09395" height="46.99241" viewBox="0,0,88.09395,46.99241"><g transform="translate(-232.04801,-153.8518)"><g data-paper-data="{&quot;isPaintingLayer&quot;:true}" fill-rule="nonzero" stroke="none" stroke-width="1.20944" stroke-linecap="butt" stroke-linejoin="miter" stroke-miterlimit="10" stroke-dasharray="" stroke-dashoffset="0" style="mix-blend-mode: normal"><path d="M313.63063,191.2165c0.38564,1.50071 -14.13772,5.93982 -19.72695,1.91152c-3.40572,-2.45733 0.3038,-8.73075 -5.3186,-10.24066c5.40676,-2.30557 15.89513,-2.2274 17.37249,1.15918c0.62124,1.43837 -1.79809,3.07592 -0.41388,4.42786c1.61237,1.59651 5.5664,1.86001 8.08694,2.74207z" fill="#ff1816"/><path d="M309.76882,192.55463c-21.86366,4.51521 -8.74868,-7.98178 -15.67613,-8.74725c12.74314,-2.82821 4.90457,6.23306 9.39557,8.1101c1.55386,0.64822 6.28058,0.63715 6.28058,0.63715z" fill="#ffea00"/><path d="M320.13236,175.83421c-4.26192,-6.56601 -15.1045,-8.49855 -23.62685,-1.82956c-4.5989,3.59679 -8.92472,7.63105 -14.76195,10.23053c-7.13749,3.18027 -19.07563,0.75284 -23.99393,-2.6476c-1.87909,-1.29984 -4.18843,-3.52234 -5.27186,-5.28273c-1.63472,2.51043 -1.21357,6.2348 0.81603,8.13942c5.94849,5.59116 28.23043,-2.35126 30.13534,16.17908c-1.77597,0.78841 -2.44597,-0.75243 -3.559,-1.20974c-16.15265,-6.74573 -29.31338,8.10227 -44.01269,-4.18888c-12.18342,-10.17788 8.95533,-18.97755 6.67623,-29.92056c-0.75283,-3.59673 -2.33314,-6.8453 -6.27994,-8.92411c15.84358,-2.78036 19.70485,7.87576 26.22034,13.3123c10.26372,8.5878 26.00906,-10.35943 43.3544,-8.00109c7.99327,1.08941 14.59987,6.45704 14.3039,14.14299z" fill="#ff1816"/><path d="M315.17989,168.11992c-11.7519,-7.63094 -25.18583,6.38108 -32.75032,11.35131c-14.58323,9.58085 -27.87657,-4.14238 -30.29627,-7.43139c-3.27259,4.66178 -7.42648,10.93848 -2.85859,14.90051c8.52509,7.39149 25.42273,-1.99999 29.82128,10.27455c-2.45647,-1.0223 -4.37839,-2.50351 -7.25952,-3.01547c-9.97936,-1.7655 -17.58257,4.67812 -28.655,1.00261c-4.40147,-1.46096 -7.00629,-5.45422 -5.994,-9.41949c0.4441,-1.74893 5.77537,-8.82446 7.19015,-11.2047c5.33758,-8.95654 1.19215,-13.95723 -3.7773,-17.73731c15.089,1.59087 9.35271,21.88205 32.60188,18.27579c13.86393,-2.14741 24.2421,-16.58513 38.18857,-9.27986c1.29148,0.67032 2.85162,1.34525 3.78913,2.28349z" fill="#ffea00"/><path d="M253.69782,159.89741c1.55525,-2.6155 5.33873,-4.69657 9.27805,-5.65775c6.06035,-1.47424 9.90024,1.60335 13.67828,3.38902c3.49669,1.65843 8.67538,1.41196 13.28281,0.75711c-1.47254,3.81567 -7.99132,9.60907 -13.59546,8.87786c-6.61105,-0.86367 -8.80427,-10.92964 -22.64368,-7.36624z" fill="#ff1816"/><path d="M258.65022,156.93293c10.32349,-5.36423 12.34135,5.06653 22.98104,3.43561l4.12079,-0.63286c-1.75141,1.5296 -6.01037,3.56472 -8.72776,3.77055c-7.58853,0.56804 -8.32894,-8.62665 -18.37407,-6.57329z" fill="#ffea00"/></g></g></svg>