<svg version="1.1" xmlns="http://www.w3.org/2000/svg" xmlns:xlink="http://www.w3.org/1999/xlink" width="115.23204" height="168.01321" viewBox="0,0,115.23204,168.01321"><g transform="translate(-262.38398,-95.99339)"><g data-paper-data="{&quot;isPaintingLayer&quot;:true}" fill="#00cccc" fill-rule="nonzero" stroke="#ffffff" stroke-width="6" stroke-linecap="butt" stroke-linejoin="miter" stroke-miterlimit="10" stroke-dasharray="" stroke-dashoffset="0" style="mix-blend-mode: normal"><path d="M275.22838,140.56009c0,-3.60129 2.31483,-10.54021 6.21173,-10.54021c18.32233,0 71.61875,0 83.72328,0c4.75892,0 9.45263,6.05003 9.45263,9.43072c0,3.93228 -3.46054,12.7592 -6.75188,12.7592c-10.68089,0 -68.49954,0 -86.96418,0c-3.57228,0 -5.67158,-7.86362 -5.67158,-11.6497z"/><path d="M274.42983,222.24286c0,-3.60129 2.31483,-10.54021 6.21173,-10.54021c18.32233,0 71.61875,0 83.72328,0c4.75892,0 9.45262,6.05002 9.45262,9.43071c0,3.93228 -3.46054,12.7592 -6.75187,12.7592c-10.68089,0 -68.49954,0 -86.96418,0c-3.57228,0 -5.67157,-7.86361 -5.67157,-11.6497z"/><path d="M265.38398,107.49099c0,-2.90339 2.31483,-8.4976 6.21173,-8.4976c18.32233,0 71.61875,0 83.72328,0c4.75892,0 9.45263,4.87758 9.45263,7.60311c0,3.17023 -3.46054,10.28656 -6.75188,10.28656c-10.68089,0 -68.49954,0 -86.96418,0c-3.57228,0 -5.67158,-6.33972 -5.67158,-9.39208z"/><path d="M265.56332,252.32183c0,-2.68475 2.31483,-7.85768 6.21173,-7.85768c18.32233,0 71.61875,0 83.72328,0c4.75892,0 9.45262,4.51026 9.45262,7.03055c0,2.9315 -3.46054,9.5119 -6.75187,9.5119c-10.68089,0 -68.49954,0 -86.96418,0c-3.57228,0 -5.67157,-5.86227 -5.67157,-8.68478z"/></g></g></svg>