<svg version="1.1" xmlns="http://www.w3.org/2000/svg" xmlns:xlink="http://www.w3.org/1999/xlink" width="227" height="294.84374" viewBox="0,0,227,294.84374"><defs><radialGradient cx="251.84854" cy="105.0557" r="49.69382" gradientUnits="userSpaceOnUse" id="color-1"><stop offset="0" stop-color="#80faff"/><stop offset="1" stop-color="#a280ff"/></radialGradient><radialGradient cx="252.02787" cy="251.59465" r="49.69382" gradientUnits="userSpaceOnUse" id="color-2"><stop offset="0" stop-color="#80faff"/><stop offset="1" stop-color="#a280ff"/></radialGradient><radialGradient cx="292.40576" cy="180.04835" r="49.69382" gradientUnits="userSpaceOnUse" id="color-3"><stop offset="0" stop-color="#fbf65c"/><stop offset="1" stop-color="#9e90fe"/></radialGradient></defs><g transform="translate(-151.21346,-30.87024)"><g data-paper-data="{&quot;isPaintingLayer&quot;:true}" fill-rule="nonzero" stroke-linecap="butt" stroke-linejoin="miter" stroke-miterlimit="10" stroke-dasharray="" stroke-dashoffset="0" style="mix-blend-mode: normal"><path d="M202.15472,104.60308c0,-2.93832 2.31483,-8.59982 6.21173,-8.59982c18.32233,0 71.61875,0 83.72328,0c4.75892,0 9.45263,4.93626 9.45263,7.69457c0,3.20837 -3.46054,10.4103 -6.75188,10.4103c-10.68089,0 -68.49954,0 -86.96418,0c-3.57228,0 -5.67158,-6.41598 -5.67158,-9.50506z" fill="url(#color-1)" stroke="#ffffff" stroke-width="0"/><path d="M202.33406,251.17613c0,-2.71704 2.31483,-7.9522 6.21173,-7.9522c18.32233,0 71.61875,0 83.72328,0c4.75892,0 9.45262,4.56452 9.45262,7.11513c0,2.96676 -3.46054,9.62632 -6.75187,9.62632c-10.68089,0 -68.49954,0 -86.96418,0c-3.57228,0 -5.67157,-5.93279 -5.67157,-8.78925z" fill="url(#color-2)" stroke="#ffffff" stroke-width="0"/><path d="M166.57243,57.12943c0,-3.83909 0.95967,-11.23617 2.57521,-11.23617c3.3579,0 10.03821,13.20146 16.33521,13.20146c7.94752,0 15.57434,-13.20146 18.37418,-13.20146c1.97292,0 17.60921,8.89423 17.60921,12.49813c0,4.19192 -15.12506,11.15695 -16.48956,11.15695c-4.42801,0 -28.39804,0 -36.05298,0c-1.48097,0 -2.35128,-8.38285 -2.35128,-12.41892z" fill="#faf75c" stroke="#000000" stroke-width="0.5"/><path d="M166.683,298.28896c0,-3.83909 0.95966,-11.23618 2.57521,-11.23618c7.59594,0 29.69118,0 34.70939,0c1.97292,0 19.56499,5.96057 19.56499,9.56447c0,4.19192 -17.08083,14.09062 -18.44533,14.09062c-2.34364,0 -10.6506,-9.28992 -18.62652,-9.28992c-7.09357,0 -13.82309,9.28992 -17.42646,9.28992c-1.48097,0 -2.35128,-8.38286 -2.35128,-12.41893z" fill="#faf75c" stroke="#000000" stroke-width="0.5"/><path d="M157.30608,37.96544v-6.8452h33.13954v6.8452z" fill="#fef600" stroke="#000000" stroke-width="0.5"/><path d="M156.14626,325.46398v-7.33415h34.98061v7.33415z" fill="#fef600" stroke="#000000" stroke-width="0.5"/><path d="M151.21346,218.00002v-81h227v81z" fill="none" stroke="none" stroke-width="0"/><path d="M210.24427,133.25071c0,-4.03181 2.31483,-11.80026 6.21173,-11.80026c18.32233,0 71.61875,0 83.72328,0c4.75892,0 9.45263,6.77329 9.45263,10.55813c0,4.40237 -3.46054,14.28452 -6.75188,14.28452c-10.68089,0 -68.49954,0 -86.96418,0c-3.57228,0 -5.67158,-8.80369 -5.67158,-13.04238z" fill="#fff700" stroke="#ffffff" stroke-width="3.5"/><path d="M209.44572,224.69838c0,-4.03181 2.31483,-11.80026 6.21173,-11.80026c18.32233,0 71.61875,0 83.72328,0c4.75892,0 9.45262,6.77328 9.45262,10.55812c0,4.40237 -3.46054,14.28452 -6.75187,14.28452c-10.68089,0 -68.49954,0 -86.96418,0c-3.57228,0 -5.67157,-8.80368 -5.67157,-13.04238z" fill="#fff700" stroke="#ffffff" stroke-width="4"/><path d="M242.71194,179.15277c0,-5.81401 2.31483,-17.01637 6.21173,-17.01637c18.32233,0 71.61875,0 83.72328,0c4.75892,0 9.45263,9.76731 9.45263,15.22516c0,6.34835 -3.46054,20.59875 -6.75188,20.59875c-10.68089,0 -68.49954,0 -86.96418,0c-3.57228,0 -5.67158,-12.69521 -5.67158,-18.80756z" fill="url(#color-3)" stroke="#ffffff" stroke-width="6"/></g></g></svg>