<svg version="1.1" xmlns="http://www.w3.org/2000/svg" xmlns:xlink="http://www.w3.org/1999/xlink" width="48.09988" height="46.60385" viewBox="0,0,48.09988,46.60385"><defs><radialGradient cx="237.81" cy="172.32962" r="20.96753" gradientUnits="userSpaceOnUse" id="color-1"><stop offset="0" stop-color="#c4a5b6"/><stop offset="1" stop-color="#a4c4a7"/></radialGradient><radialGradient cx="225.52624" cy="174.11635" r="3.04694" gradientUnits="userSpaceOnUse" id="color-2"><stop offset="0" stop-color="#a4bbc4"/><stop offset="1" stop-color="#a4c4a7"/></radialGradient><radialGradient cx="245.85029" cy="188.41019" r="20.95811" gradientUnits="userSpaceOnUse" id="color-3"><stop offset="0" stop-color="#c4a5b6"/><stop offset="1" stop-color="#a4c4a7"/></radialGradient></defs><g transform="translate(-215.95005,-156.69807)"><g data-paper-data="{&quot;isPaintingLayer&quot;:true}" fill-rule="nonzero" stroke="none" stroke-linecap="butt" stroke-linejoin="miter" stroke-miterlimit="10" stroke-dasharray="" stroke-dashoffset="0" style="mix-blend-mode: normal"><path d="M234.23065,158.6884c-0.41548,0.24742 -0.82991,0.534 -1.243,0.86251c-3.77235,3.00068 -1.55282,3.47827 -5.30133,6.57151c-0.48366,0.3992 -0.94538,0.7198 -1.38654,0.98252c-1.98738,1.18353 -3.5644,1.20032 -4.91297,2.00343c-0.40102,0.23882 -0.78181,0.54694 -1.14718,0.97631c-1.28733,1.51259 -0.68649,3.57521 -1.01105,5.71179c-0.24756,1.62879 -2.37347,3.98304 -2.52033,6.23674c-0.1046,1.60014 1.77697,3.37977 2.5493,4.74204c0.5726,1.00963 0.69085,3.72176 1.30396,4.38929c1.41223,1.53582 3.33711,0.90758 5.17182,-0.18504c1.40169,-0.83474 2.75068,-1.94027 3.77913,-2.55887c0,0 9.17025,-4.91382 12.44426,-6.86357c0.2926,-0.17425 0.53737,-0.32469 0.72525,-0.44592c2.88277,-1.70917 8.11862,-4.70348 11.57703,-6.76304c0.14016,-0.08347 0.2775,-0.16526 0.41153,-0.24569c3.59357,-2.15143 6.01053,-8.57353 1.1333,-10.79306c-3.4138,-1.55313 -7.53717,1.64106 -9.9952,-1.70934c-2.72951,-3.72025 -7.17977,-5.53085 -11.57798,-2.9116M234.23065,158.6884l-0.38581,-0.64785v0c2.25146,-1.3408 4.67668,-1.68545 7.01327,-0.99704c2.12184,0.62501 4.04375,2.04656 5.55827,4.1103c1.09921,1.49845 2.52289,1.40596 4.75448,1.13067c1.54931,-0.19104 3.30512,-0.4076 4.94516,0.33872c1.93352,0.87959 3.06108,2.48021 3.17505,4.50631c0.15786,2.80469 -1.66187,6.08033 -4.23322,7.61983l-0.41307,0.24657c-1.89386,1.12784 -4.28469,2.51508 -6.59674,3.85686c-1.88544,1.09385 -3.66629,2.1275 -4.96929,2.89963c-0.18776,0.1209 -0.4352,0.27325 -0.73623,0.45251c-3.18459,1.8965 -12.01104,6.63215 -12.45701,6.8711c-0.43916,0.26563 -0.96071,0.63853 -1.51241,1.03349c-0.68544,0.4907 -1.46277,1.04665 -2.25378,1.51772c-0.98385,0.58591 -3.97795,2.36897 -6.11244,0.04718c-0.46939,-0.5106 -0.66247,-1.47885 -0.8859,-2.60016c-0.14579,-0.73113 -0.31095,-1.56009 -0.51932,-1.92717c-0.20956,-0.36958 -0.52775,-0.79734 -0.86453,-1.25032c-0.87771,-1.1801 -1.87242,-2.51789 -1.78124,-3.91258c0.09374,-1.44009 0.8619,-2.84302 1.53969,-4.08094c0.46275,-0.84546 0.89999,-1.64381 0.98772,-2.22056c0.09833,-0.64832 0.10522,-1.31322 0.11151,-1.95648c0.01405,-1.42892 0.02887,-2.90623 1.07099,-4.13063c0.39488,-0.46423 0.83189,-0.83566 1.33548,-1.13556c0.68649,-0.40882 1.396,-0.62772 2.14725,-0.85953c0.86189,-0.26608 1.75313,-0.54087 2.76549,-1.14375c0.44096,-0.2626 0.86379,-0.56211 1.29251,-0.91598c1.72289,-1.42182 2.06312,-2.19987 2.42302,-3.02354c0.4147,-0.94873 0.84358,-1.92963 2.88869,-3.55652c0.43261,-0.34393 0.87871,-0.65346 1.32657,-0.92017z" fill="#010100" stroke-width="0.66342"/><path d="M234.22032,158.63948c4.39821,-2.61925 8.88519,-0.80219 11.6147,2.91806c2.45803,3.3504 6.59731,0.17202 10.01111,1.72515c4.87723,2.21953 2.46793,8.66634 -1.12564,10.81777c-0.13403,0.08043 -0.27135,0.16291 -0.41151,0.24638c-3.45841,2.05956 -8.71308,5.09423 -11.59585,6.8034c-0.18788,0.12123 -0.43692,0.27472 -0.72952,0.44897c-3.27401,1.94975 -12.49669,6.8644 -12.49669,6.8644c-1.02845,0.6186 -2.38147,1.72146 -3.78316,2.5562c-1.83471,1.09262 -3.76607,1.71519 -5.1783,0.17937c-0.61311,-0.66753 -0.73716,-3.38694 -1.30976,-4.39657c-0.77233,-1.36227 -2.65928,-3.15285 -2.55468,-4.75299c0.14686,-2.2537 2.27008,-4.62156 2.51764,-6.25035c0.32456,-2.13658 -0.27464,-4.215 1.01269,-5.72759c0.36537,-0.42937 0.74722,-0.74094 1.14824,-0.97976c1.34857,-0.80311 2.93139,-0.83146 4.91877,-2.01499c0.44116,-0.26272 0.90657,-0.58812 1.39023,-0.98732c3.74851,-3.09324 1.55213,-3.58585 5.32448,-6.58653c0.41309,-0.32851 0.83177,-0.61618 1.24725,-0.8636" data-paper-data="{&quot;noHover&quot;:false,&quot;origItem&quot;:[&quot;Path&quot;,{&quot;applyMatrix&quot;:true,&quot;segments&quot;:[[[234.23065,158.6884],[0,0],[-0.41548,0.24742]],[[232.98765,159.55091],[0.41309,-0.32851],[-3.77235,3.00068]],[[227.68632,166.12241],[3.74851,-3.09324],[-0.48366,0.3992]],[[226.29978,167.10494],[0.44116,-0.26272],[-1.98738,1.18353]],[[221.38681,169.10837],[1.34857,-0.80311],[-0.40102,0.23882]],[[220.23963,170.08468],[0.36537,-0.42937],[-1.28733,1.51259]],[[219.22858,175.79647],[0.32456,-2.13658],[-0.24756,1.62879]],[[216.70825,182.03321],[0.14686,-2.2537],[-0.1046,1.60014]],[[219.25755,186.77525],[-0.77233,-1.36227],[0.5726,1.00963]],[[220.56151,191.16454],[-0.61311,-0.66753],[1.41223,1.53582]],[[225.73333,190.9795],[-1.83471,1.09262],[1.40169,-0.83474]],[[229.51246,188.42063],[-1.02845,0.6186],[0,0]],[[241.95672,181.55706],[-3.27401,1.94975],[0.2926,-0.17425]],[[242.68197,181.11114],[-0.18788,0.12123],[2.88277,-1.70917]],[[254.259,174.3481],[-3.45841,2.05956],[0.14016,-0.08347]],[[254.67053,174.10241],[-0.13403,0.08043],[3.59357,-2.15143]],[[255.80383,163.30935],[4.87723,2.21953],[-3.4138,-1.55313]],[[245.80863,161.60001],[2.45803,3.3504],[-2.72951,-3.72025]],[[234.23065,158.6884],[4.39821,-2.61925],[0,0]]],&quot;fillColor&quot;:[0,0,0,1],&quot;strokeWidth&quot;:0.66342}]}" fill="url(#color-1)" stroke-width="0.33171"/><path d="M223.65523,174.82098c-1.59699,0.50437 -2.54134,1.48622 -3.19384,3.00777c-0.48026,1.11913 -0.77702,2.42067 -1.49931,3.41629c-0.11762,0.16159 -0.44359,0.08338 -0.35882,-0.14176c1.05134,-2.79406 1.52127,-6.24468 4.80921,-7.16893c0.57097,-0.1607 0.80668,0.70818 0.24275,0.88663z" fill="#231f20" stroke-width="0.66342"/><path d="M220.68776,179.42369c-0.10616,0.07667 -0.23286,-0.0889 -0.14237,-0.17819c1.88452,-1.84102 2.73848,-4.35897 5.55035,-4.9523c0.5137,-0.10847 0.73554,0.67764 0.21724,0.78973c-1.44587,0.31313 -2.55222,0.98808 -3.46777,2.15143c-0.65832,0.83731 -1.29152,1.56456 -2.15745,2.18933z" fill="url(#color-2)" stroke-width="0.66342"/><path d="M246.91756,170.49639c0.32051,-0.97281 0.78915,-2.12862 0.65012,-3.16768c-0.09999,-0.75343 -0.39797,-1.51761 -0.99289,-2.0234c-0.54797,-0.46671 -1.03975,-0.43537 -1.63936,-0.67299c-0.81841,-0.32352 -2.21757,-1.66939 -2.22215,-2.62321c-0.00084,-0.29322 0.29684,-0.43041 0.54203,-0.32279c0.56342,0.24661 0.98406,1.17648 1.34515,1.63688c0.62704,0.7985 1.81723,0.75257 2.46073,1.59536c1.282,1.67625 0.95138,3.8179 0.31325,5.69366c-0.09734,0.28554 -0.5522,0.17407 -0.45687,-0.11582z" fill="#231f20" stroke-width="0.66342"/><path d="M247.21805,172.56847c-0.10579,0.11217 -0.30852,-0.02982 -0.22135,-0.16392c0.64177,-0.97809 1.51772,-2.10819 1.74861,-3.27866c0.12188,-0.61959 0.22583,-1.42161 -0.09823,-2.00796c-0.17323,-0.31398 -0.38106,-0.57457 -0.48609,-0.91894c-0.07532,-0.24829 0.21528,-0.47898 0.4397,-0.34581c0.95783,0.57045 0.84597,2.17756 0.56715,3.10243c-0.41047,1.36308 -0.97348,2.57656 -1.94979,3.61286z" fill="#231f20" stroke-width="0.66342"/><path d="M233.69177,161.10267c-1.2174,0.80339 -1.53742,1.90519 -2.18897,3.1243c-0.53771,1.0074 -1.15384,1.74466 -1.96689,2.53628c-0.01672,0.01613 -0.04002,-0.00774 -0.02493,-0.02462c0.96006,-1.10091 1.5855,-2.48469 2.18407,-3.79863c0.40581,-0.89193 0.83416,-1.80056 1.75854,-2.23729c0.26818,-0.12633 0.49203,0.23237 0.23818,0.39995z" fill="#231f20" stroke-width="0.66342"/><path d="M245.79938,201.30615c0.41516,-0.24796 0.82922,-0.53506 1.2419,-0.8641c3.76851,-3.0055 1.54838,-3.48026 5.29292,-6.57828c0.48315,-0.39981 0.94446,-0.721 1.38528,-0.98429c1.98587,-1.18607 3.56286,-1.20487 4.91041,-2.00971c0.40071,-0.23933 0.78111,-0.54794 1.14593,-0.97778c1.28539,-1.51423 0.68192,-3.57609 1.00374,-5.71308c0.24548,-1.6291 2.36837,-3.98607 2.51235,-6.23995c0.10256,-1.60027 -1.78129,-3.3775 -2.55536,-4.73878c-0.57389,-1.00889 -0.69561,-3.72087 -1.30957,-4.38762c-1.41419,-1.53402 -3.33826,-0.90331 -5.17158,0.19166c-1.40063,0.83653 -2.7482,1.94379 -3.77585,2.5637c0,0 -9.16396,4.92554 -12.43548,6.87948c-0.29238,0.17463 -0.53696,0.32538 -0.72468,0.44685c-2.88058,1.71286 -8.1126,4.71386 -11.56837,6.77784c-0.14006,0.08365 -0.27728,0.16561 -0.41121,0.24622c-3.59081,2.15603 -5.99956,8.58121 -1.1195,10.7945c3.41579,1.54876 7.53507,-1.6507 9.99737,1.69656c2.73426,3.71675 7.18684,5.52166 11.5817,2.8968M245.79938,201.30615l0.38664,0.64736v0c-2.24975,1.34368 -4.67452,1.69143 -7.01199,1.00601c-2.12264,-0.6223 -4.04636,-2.04139 -5.56352,-4.10319c-1.10113,-1.49704 -2.52469,-1.40273 -4.75593,-1.12459c-1.54907,0.19302 -3.3046,0.41182 -4.94559,-0.3324c-1.93465,-0.87711 -3.06425,-2.47629 -3.18081,-4.50224c-0.16144,-2.80449 1.6541,-6.08245 4.22347,-7.62524l0.41276,-0.2471c1.89242,-1.13026 4.28147,-2.52056 6.5918,-3.8653c1.88404,-1.09626 3.66357,-2.13219 4.96558,-2.90598c0.18761,-0.12114 0.43485,-0.2738 0.73565,-0.45345c3.18216,-1.90057 12.00255,-6.6475 12.44821,-6.88703c0.43882,-0.26619 0.95989,-0.63976 1.51109,-1.03543c0.68481,-0.49157 1.46143,-1.04852 2.25184,-1.5206c0.9831,-0.58716 3.97491,-2.37405 6.11237,-0.055c0.47004,0.51 0.66436,1.478 0.88922,2.59902c0.14673,0.73094 0.31294,1.55969 0.52179,1.9265c0.21003,0.36932 0.52877,0.79667 0.86613,1.24921c0.87922,1.17898 1.87564,2.51549 1.78624,3.9103c-0.0919,1.44021 -0.85826,2.84412 -1.53447,4.0829c-0.46167,0.84605 -0.89789,1.64496 -0.98488,2.22182c-0.0975,0.64845 -0.10354,1.31336 -0.109,1.95662c-0.01222,1.42894 -0.02515,2.90626 -1.06571,4.13199c-0.39429,0.46474 -0.83082,0.83672 -1.33403,1.13726c-0.68597,0.4097 -1.39519,0.62951 -2.14615,0.86228c-0.86155,0.26718 -1.75244,0.54311 -2.76402,1.14729c-0.44063,0.26317 -0.86307,0.56321 -1.29134,0.91763c-1.72107,1.42402 -2.06031,2.20251 -2.41915,3.02664c-0.41349,0.94926 -0.84111,1.93071 -2.88414,3.56021c-0.43217,0.34448 -0.87787,0.65458 -1.3254,0.92187z" fill="#010100" stroke-width="0.66342"/><path d="M245.80976,201.35507c-4.39486,2.62486 -8.88415,0.81355 -11.61841,-2.9032c-2.4623,-3.34726 -6.59751,-0.16358 -10.0133,-1.71234c-4.88006,-2.21329 -2.47901,-8.66316 1.1118,-10.81919c0.13393,-0.08061 0.27113,-0.16326 0.41119,-0.24691c3.45577,-2.06398 8.70653,-5.10537 11.58711,-6.81823c0.18772,-0.12147 0.43657,-0.27528 0.72895,-0.44991c3.27152,-1.95394 12.48794,-6.88039 12.48794,-6.88039c1.02765,-0.61991 2.37925,-1.72451 3.77988,-2.56104c1.83332,-1.09497 3.76388,-1.72001 5.17807,-0.18599c0.61396,0.66675 0.74149,3.38601 1.31538,4.3949c0.77407,1.36128 2.66331,3.14946 2.56075,4.74973c-0.14398,2.25388 -2.26417,4.62447 -2.50965,6.25357c-0.32182,2.13699 0.28002,4.21465 -1.00537,5.72888c-0.36482,0.42984 -0.74628,0.7419 -1.14699,0.98123c-1.34755,0.80484 -2.93033,0.83521 -4.9162,2.02128c-0.44082,0.26329 -0.90581,0.58928 -1.38896,0.98909c-3.74454,3.09802 -1.54753,3.58781 -5.31604,6.59331c-0.41268,0.32904 -0.83098,0.61724 -1.24614,0.8652" data-paper-data="{&quot;noHover&quot;:false,&quot;origItem&quot;:[&quot;Path&quot;,{&quot;applyMatrix&quot;:true,&quot;segments&quot;:[[[245.79938,201.30615],[0,0],[0.41516,-0.24796]],[[247.04128,200.44205],[-0.41268,0.32904],[3.76851,-3.0055]],[[252.3342,193.86377],[-3.74454,3.09802],[0.48315,-0.39981]],[[253.71948,192.87948],[-0.44082,0.26329],[1.98587,-1.18607]],[[258.62989,190.86977],[-1.34755,0.80484],[0.40071,-0.23933]],[[259.77582,189.89199],[-0.36482,0.42984],[1.28539,-1.51423]],[[260.77956,184.17891],[-0.32182,2.13699],[0.24548,-1.6291]],[[263.29191,177.93896],[-0.14398,2.25388],[0.10256,-1.60027]],[[260.73654,173.20018],[0.77407,1.36128],[-0.57389,-1.00889]],[[259.42698,168.81256],[0.61396,0.66675],[-1.41419,-1.53402]],[[254.2554,169.00422],[1.83332,-1.09497],[-1.40063,0.83653]],[[250.47955,171.56792],[1.02765,-0.61991],[0,0]],[[238.04407,178.4474],[3.27152,-1.95394],[-0.29238,0.17463]],[[237.31939,178.89425],[0.18772,-0.12147],[-2.88058,1.71286]],[[225.75102,185.67209],[3.45577,-2.06398],[-0.14006,0.08365]],[[225.33981,185.91831],[0.13393,-0.08061],[-3.59081,2.15603]],[[224.22031,196.71281],[-4.88006,-2.21329],[3.41579,1.54876]],[[234.21768,198.40937],[-2.4623,-3.34726],[2.73426,3.71675]],[[245.79938,201.30617],[-4.39486,2.62486],[0,0]]],&quot;fillColor&quot;:[0,0,0,1],&quot;strokeWidth&quot;:0.66342}]}" fill="url(#color-3)" stroke-width="0.33171"/><path d="M256.35416,185.16006c1.59634,-0.50641 2.53944,-1.48947 3.18999,-3.01185c0.47883,-1.11975 0.77392,-2.42166 1.49494,-3.4182c0.11742,-0.16174 0.44348,-0.08395 0.359,0.1413c-1.04776,2.7954 -1.51329,6.24662 -4.80004,7.17507c-0.57077,0.16143 -0.80758,-0.70714 -0.24389,-0.88632z" fill="#231f20" stroke-width="0.66342"/><path d="M259.31574,180.55355c0.10606,-0.0768 0.23297,0.0886 0.1426,0.17801c-1.88216,1.84342 -2.73291,4.36247 -5.54401,4.9594c-0.51356,0.10913 -0.73641,-0.6767 -0.21825,-0.78945c1.44547,-0.31498 2.55095,-0.99134 3.46501,-2.15587c0.65725,-0.83816 1.28951,-1.56621 2.15465,-2.19209z" fill="#231f20" stroke-width="0.66342"/><path d="M233.09738,189.5144c-0.31927,0.97322 -0.78643,2.12963 -0.64606,3.16851c0.10095,0.7533 0.39991,1.5171 0.99548,2.02213c0.54857,0.46601 1.04031,0.43404 1.64022,0.6709c0.81882,0.32247 2.2197,1.66656 2.22551,2.62037c0.00122,0.29322 -0.29629,0.43079 -0.54162,0.32349c-0.56374,-0.24589 -0.98556,-1.17522 -1.34724,-1.63516c-0.62806,-0.79769 -1.81819,-0.75024 -2.46276,-1.59222c-1.28414,-1.67461 -0.95626,-3.81668 -0.32054,-5.69325c0.09698,-0.28567 0.55198,-0.17477 0.45702,0.11524z" fill="#231f20" stroke-width="0.66342"/><path d="M232.79424,187.4427c0.10565,-0.1123 0.30856,0.02943 0.22156,0.16364c-0.64052,0.97891 -1.51502,2.11013 -1.74441,3.28089c-0.12109,0.61974 -0.22401,1.4219 0.1008,2.00783c0.17363,0.31376 0.3818,0.57408 0.48726,0.91832c0.07564,0.24819 -0.21467,0.47925 -0.43926,0.34637c-0.95856,-0.56923 -0.84875,-2.17647 -0.57112,-3.1017c0.40872,-1.3636 0.97019,-2.5778 1.94517,-3.61535z" fill="#231f20" stroke-width="0.66342"/><path d="M246.33518,198.89119c1.21638,-0.80495 1.53498,-1.90715 2.18498,-3.1271c0.53643,-1.00808 1.15161,-1.74614 1.96364,-2.53879c0.0167,-0.01616 0.04002,0.00769 0.02496,0.02459c-0.95865,1.10214 -1.58232,2.48672 -2.17921,3.80142c-0.40467,0.89245 -0.83185,1.80163 -1.75568,2.23954c-0.26802,0.12667 -0.49232,-0.23174 -0.23869,-0.39965z" fill="#231f20" stroke-width="0.66342"/></g></g></svg>