<svg version="1.1" xmlns="http://www.w3.org/2000/svg" xmlns:xlink="http://www.w3.org/1999/xlink" width="55.25971" height="36.52499" viewBox="0,0,55.25971,36.52499"><g transform="translate(-211.86239,-159.95439)"><g data-paper-data="{&quot;isPaintingLayer&quot;:true}" fill-rule="nonzero" stroke-linecap="butt" stroke-linejoin="miter" stroke-miterlimit="10" stroke-dasharray="" stroke-dashoffset="0" style="mix-blend-mode: normal"><text transform="translate(241.65591,187.61122) scale(0.54766,0.54766)" font-size="40" xml:space="preserve" fill="#b2b2b2" fill-rule="nonzero" stroke="none" stroke-width="1" stroke-linecap="butt" stroke-linejoin="miter" stroke-miterlimit="10" stroke-dasharray="" stroke-dashoffset="0" font-family="Pixel" font-weight="normal" text-anchor="start" style="mix-blend-mode: normal"><tspan x="0" dy="0">+1</tspan></text><g><path d="M213.69939,179.33889l9.96254,-15.81827l10.6428,15.36882z" fill="#ff6666" stroke="#000000" stroke-width="2"/><path d="M218.59217,182.26885l5.16539,-14.364l5.7868,14.1251z" fill="#ffffc4" stroke="#000000" stroke-width="2"/><path d="M226.46859,183.91271c0.84312,-0.01839 0.86151,0.82473 0.86151,0.82473l-0.04173,0.07157c0.41019,1.14658 0.61651,2.05036 0.79081,3.23318c0.08209,0.55707 0.39515,1.08651 0.36709,1.6489c-0.00138,0.02784 -0.0033,0.05558 -0.00571,0.08324l0.01162,-0.00025l0.02207,1.01174c0.01015,0.46564 -0.35909,0.85136 -0.82473,0.86151c-0.29045,0.00634 -0.5498,-0.13494 -0.7063,-0.35516l-0.60647,-0.82995l0.01709,-0.01248l-0.05148,-0.03835c-0.20341,-0.42983 -0.28725,-0.94048 -0.61024,-1.2895c-0.00197,-0.00214 -0.00399,-0.00422 -0.00602,-0.00625c-0.11213,0.32364 -0.41621,0.55916 -0.77871,0.56706c-0.23282,0.00508 -0.44566,-0.0847 -0.60156,-0.23394l-0.61477,-0.58853c-0.31177,-0.14306 -0.6559,-0.23653 -0.96151,-0.38902c0.03836,0.36674 0.03892,0.73838 -0.08244,1.07748c-0.42217,1.17962 -2.82174,2.74157 -4.03796,1.71113c-0.42356,-0.35886 -0.23982,-1.08788 -0.28164,-1.64145c-0.10407,-1.37759 0.0782,-2.12699 0.27201,-3.47955c0,0 0.12047,-0.83468 0.95514,-0.71421c0.83467,0.12047 0.7142,0.95514 0.7142,0.95514c-0.17649,1.21345 -0.12004,2.54334 -0.49287,3.66217c-0.02863,0.08591 0.09759,-0.15587 0.1664,-0.21474c0.36483,-0.31216 1.02644,-0.42158 1.13276,-0.88982c0.22716,-1.00043 -0.85367,-2.18579 0.86013,-2.87877c0.48978,-0.19804 0.91019,0.53762 1.37888,0.7814c0.16574,0.08621 0.33382,0.16771 0.50293,0.24714c0.10773,-0.05362 0.22869,-0.08492 0.35697,-0.08772c0.10013,-0.00218 0.19657,0.01318 0.28637,0.04327l1.00029,0.30936c0.35455,0.03739 0.69413,0.10993 0.96963,0.24314c-0.01092,-0.11386 -0.02564,-0.22658 -0.04618,-0.33755c-0.12137,-0.65587 -0.4592,-1.25249 -0.68388,-1.88052l-0.05643,-0.60292c0,0 -0.01839,-0.84312 0.82473,-0.86151z" fill="#ffffc4" stroke="none" stroke-width="0.5"/><path d="M228.24787,186.32039c0.22668,0.09256 0.47287,0.29701 0.48272,0.74836c0.01839,0.84312 -0.82473,0.86151 -0.82473,0.86151l-0.63602,-0.43366c0.0311,0.29331 0.04484,0.58732 -0.0188,0.87134c-0.16665,0.74381 -0.24176,1.63827 -0.82031,2.13455c-0.46307,0.39721 -1.23361,0.28355 -1.8253,0.13483c-0.97222,-0.24436 -2.15304,-2.05402 -2.26137,-2.95673c-0.0365,-0.30413 0.23846,-0.58748 0.21669,-0.89302c-0.00692,-0.09716 -0.23117,0.01649 -0.2729,0.1045c-0.08616,0.18175 -0.03297,0.40115 -0.06124,0.60029c-0.07535,0.53079 -0.15998,1.06028 -0.24953,1.58885c-0.10794,0.63708 0.02263,1.37508 -0.34291,1.9079c-0.04822,0.07029 -0.10235,0.13447 -0.16128,0.1937l0.0151,0.01446l-0.65978,0.68921c-0.14925,0.1559 -0.35798,0.25486 -0.5908,0.25994c-0.46564,0.01015 -0.85135,-0.35908 -0.86151,-0.82473c-0.03433,-1.57382 -0.09072,-4.15939 -0.12506,-5.73322c0,0 -0.01839,-0.84312 0.82473,-0.86151c0.84312,-0.01839 0.86151,0.82473 0.86151,0.82473c0.0024,0.10977 0.00479,0.21953 0.00718,0.32929c0.08504,-0.15435 0.19813,-0.28085 0.35772,-0.35744c2.91599,-1.39941 2.39163,0.34284 2.70064,1.85062c0.09706,0.47361 0.46334,0.86359 0.80241,1.2082c0.19575,0.19894 0.51176,0.83496 0.60988,0.57367c0.20164,-0.53696 0.28631,-2.96185 0.40945,-3.10096c1.84534,-2.08478 2.21194,-0.86278 2.4235,0.2653z" fill="#ffebc4" stroke="none" stroke-width="0.5"/><path d="M226.84997,185.92884c-0.07878,0.00172 -0.15036,-0.00408 -0.2154,-0.01601c-0.1227,0.71297 0.08386,1.73743 0.09459,2.21181c0.04122,1.82262 0.47245,4.18706 -0.2287,5.92599c-0.00253,0.00629 -0.00509,0.01256 -0.00765,0.01883l0.00344,0.00079l-0.30392,1.33915c-0.07701,0.37732 -0.40668,0.66493 -0.80792,0.67368c-0.46564,0.01015 -0.85136,-0.35909 -0.86151,-0.82473l-0.00956,-0.43843c-0.02588,0.05231 -0.05572,0.10298 -0.09018,0.15177c-0.05012,0.07095 -0.10455,0.1376 -0.16261,0.20062l0.0137,0.01311l-0.98968,1.03381c-0.14925,0.1559 -0.35797,0.25487 -0.59079,0.25995c-0.36214,0.0079 -0.67594,-0.21368 -0.80232,-0.53163c-0.14587,0.13493 -0.33974,0.21913 -0.55402,0.22381c-0.46564,0.01015 -0.85136,-0.35909 -0.86151,-0.82473c-0.0564,-2.58557 -0.13486,-6.18288 -0.19126,-8.76845c0,0 -0.01838,-0.84312 0.82474,-0.86151c0.84312,-0.01839 0.8615,0.82473 0.8615,0.82473c0.02697,1.23656 0.05394,2.47311 0.08092,3.70967c0.09259,0.06644 0.17124,0.1512 0.23059,0.24912l0.89086,1.41393l-0.01598,0.01007c0.02545,0.03901 0.04998,0.07871 0.07349,0.11917l0.19228,-0.91755c0.07197,-0.38376 0.40461,-0.67795 0.81049,-0.6868c0.09827,-0.00215 0.19298,0.01261 0.28135,0.0416c0.11688,-0.2349 0.3403,-0.40823 0.60837,-0.45538c-0.07576,-1.20638 -0.21548,-2.41816 -0.11632,-3.60985c0.05951,-0.71516 0.02585,-1.48673 0.35789,-2.12292c0.19419,-0.37205 0.7228,-0.42673 1.08419,-0.6401l1.22566,1.41499c0,0 0.01839,0.84312 -0.82473,0.86151z" fill="#ffc4ce" stroke="none" stroke-width="0.5"/></g></g></g></svg>