<svg version="1.1" xmlns="http://www.w3.org/2000/svg" xmlns:xlink="http://www.w3.org/1999/xlink" width="175.76656" height="188.58738" viewBox="0,0,175.76656,188.58738"><defs><radialGradient cx="240.26601" cy="174.79069" r="94.28801" gradientUnits="userSpaceOnUse" id="color-1"><stop offset="0" stop-color="#e6fffa" stop-opacity="0"/><stop offset="1" stop-color="#e6fffa" stop-opacity="0"/></radialGradient><radialGradient cx="240.29838" cy="174.73084" r="87.81376" gradientUnits="userSpaceOnUse" id="color-2"><stop offset="0" stop-color="#ffffff" stop-opacity="0"/><stop offset="1" stop-color="#ffffff" stop-opacity="0"/></radialGradient><radialGradient cx="239.95997" cy="180.74955" r="94.28801" gradientUnits="userSpaceOnUse" id="color-3"><stop offset="0" stop-color="#e6fffa" stop-opacity="0"/><stop offset="1" stop-color="#e6fffa" stop-opacity="0"/></radialGradient><radialGradient cx="239.99233" cy="180.68969" r="87.81376" gradientUnits="userSpaceOnUse" id="color-4"><stop offset="0" stop-color="#ffffff" stop-opacity="0"/><stop offset="1" stop-color="#ffffff" stop-opacity="0"/></radialGradient><radialGradient cx="239.95997" cy="180.74955" r="94.28801" gradientUnits="userSpaceOnUse" id="color-5"><stop offset="0" stop-color="#e6fffa" stop-opacity="0"/><stop offset="1" stop-color="#e6fffa" stop-opacity="0"/></radialGradient><radialGradient cx="239.99233" cy="180.68969" r="87.81376" gradientUnits="userSpaceOnUse" id="color-6"><stop offset="0" stop-color="#ffffff" stop-opacity="0"/><stop offset="1" stop-color="#ffffff" stop-opacity="0"/></radialGradient><radialGradient cx="239.65394" cy="186.70841" r="94.28801" gradientUnits="userSpaceOnUse" id="color-7"><stop offset="0" stop-color="#e6fffa" stop-opacity="0"/><stop offset="1" stop-color="#e6fffa" stop-opacity="0"/></radialGradient><radialGradient cx="239.6863" cy="186.64855" r="87.81376" gradientUnits="userSpaceOnUse" id="color-8"><stop offset="0" stop-color="#ffffff" stop-opacity="0"/><stop offset="1" stop-color="#ffffff" stop-opacity="0"/></radialGradient></defs><g transform="translate(-152.14057,-85.94271)"><g data-paper-data="{&quot;isPaintingLayer&quot;:true}" fill-rule="nonzero" stroke-linecap="butt" stroke-linejoin="miter" stroke-miterlimit="10" stroke-dasharray="" stroke-dashoffset="0" style="mix-blend-mode: normal"><path d="M297.78638,239.67142c-2.45836,2.21818 0.60628,9.35587 -2.07667,11.16953c-4.31848,2.91928 -12.3521,-0.76662 -17.13599,1.11956c-4.6682,1.84057 -6.07725,9.27769 -11.05349,10.15188c-4.57197,0.80318 -10.94803,-7.47734 -15.6719,-7.47603c-5.98263,0.00166 -10.34334,8.045 -16.38148,6.78468c-5.49943,-1.14788 -8.45084,-10.20177 -13.82966,-12.37509c-7.85565,-3.17407 -18.0254,-0.04267 -25.20688,-5.35045c-5.73998,-4.24237 -4.88152,-16.88739 -9.90638,-22.45634c-4.81359,-5.33479 -15.29361,-3.2608 -18.82912,-9.1286c-5.5425,-9.19869 0.69259,-18.92772 -1.69126,-28.72984c-1.38368,-5.68953 -12.43713,-11.39511 -12.75086,-17.05828c-0.32566,-5.87839 8.49563,-11.25705 9.32744,-16.92183c0.917,-6.24498 -6.03061,-12.74291 -3.70086,-18.48725c2.21731,-5.46705 12.24401,-3.83799 15.74661,-8.62811c3.31771,-4.5373 -1.69732,-13.73268 2.47588,-17.49816c6.90432,-6.22978 14.15714,0.92749 22.58719,-2.14309c10.28148,-3.74494 22.01909,-16.95963 33.31032,-16.16711c6.60762,0.46379 8.43476,12.181 15.01239,14.15042c5.45354,1.63285 15.68396,-6.71464 20.9425,-4.06918c6.24897,3.1437 6.90647,17.995 12.63572,22.53726c4.68362,3.71327 14.54719,-3.11162 18.72233,1.5156c5.17169,5.73166 1.88907,15.7352 5.58522,22.07251c3.15712,5.41312 13.49299,7.09691 15.56884,12.76408c2.18239,5.958 -3.89724,14.837 -2.91486,20.87961c0.72847,4.48087 8.78957,6.12893 8.85574,10.56002c0.07674,5.13963 -6.88481,13.10165 -7.70207,18.05517c-1.53903,9.32812 1.92603,15.32941 -2.79978,23.34349c-3.57511,6.06274 -13.70914,6.50433 -19.11887,11.38553z" fill="url(#color-1)" stroke="#ffee27" stroke-width="1"/><path d="M293.86915,235.15655c-2.28956,2.06587 0.56465,8.71344 -1.93408,10.40258c-4.02196,2.71883 -11.50397,-0.71398 -15.95936,1.04269c-4.34766,1.71419 -5.65995,8.64063 -10.2945,9.4548c-4.25803,0.74803 -10.19628,-6.9639 -14.5958,-6.9627c-5.57183,0.00154 -9.63313,7.4926 -15.25667,6.31882c-5.12183,-1.06906 -7.87057,-9.50127 -12.88005,-11.52535c-7.31624,-2.95612 -16.78769,-0.03974 -23.47607,-4.98305c-5.34585,-3.95107 -4.54633,-15.72782 -9.22617,-20.91437c-4.48306,-4.96848 -14.24347,-3.03692 -17.53623,-8.50179c-5.16193,-8.56706 0.64504,-17.62805 -1.57513,-26.7571c-1.28867,-5.29886 -11.58314,-10.61268 -11.87533,-15.88698c-0.30331,-5.47476 7.91229,-10.48409 8.68698,-15.7599c0.85403,-5.81617 -5.61652,-11.86794 -3.44673,-17.21783c2.06506,-5.09166 11.40329,-3.57445 14.66537,-8.03567c3.08991,-4.22575 -1.58077,-12.78974 2.30587,-16.29666c6.43024,-5.80201 13.18505,0.86379 21.03625,-1.99594c9.5755,-3.4878 20.50715,-15.79511 31.02308,-15.05699c6.15389,0.43194 7.85559,11.34459 13.98157,13.17877c5.07908,1.52074 14.60703,-6.25357 19.5045,-3.78978c5.81988,2.92782 6.43225,16.75936 11.7681,20.98975c4.36203,3.45829 13.54829,-2.89796 17.43677,1.41154c4.81659,5.33811 1.75936,14.65474 5.20172,20.5569c2.94034,5.04142 12.56648,6.6096 14.4998,11.88764c2.03254,5.54891 -3.62962,13.81824 -2.71472,19.44593c0.67844,4.17318 8.18605,5.70809 8.24767,9.83492c0.07149,4.7867 -6.41205,12.20202 -7.17321,16.81542c-1.43335,8.6876 1.79375,14.27682 -2.60755,21.74061c-3.32965,5.64644 -12.76779,6.05772 -17.80607,10.60375z" fill="url(#color-2)" stroke="#bdbdbd" stroke-width="1"/><path d="M289.6662,229.10866c-2.09118,1.88687 0.51573,7.95842 -1.76649,9.50117c-3.67344,2.48323 -10.50711,-0.65211 -14.57645,0.95233c-3.97094,1.56566 -5.16953,7.89192 -9.40247,8.63551c-3.88907,0.68322 -9.31277,-6.36048 -13.33106,-6.35937c-5.08904,0.00141 -8.7984,6.84336 -13.93464,5.77129c-4.678,-0.97643 -7.18857,-8.67797 -11.76399,-10.52666c-6.68228,-2.69997 -15.333,-0.0363 -21.44181,-4.55128c-4.88262,-3.60871 -4.1524,-14.36497 -8.42671,-19.1021c-4.0946,-4.53795 -13.00925,-2.77376 -16.01668,-7.76509c-4.71463,-7.82472 0.58915,-16.10056 -1.43864,-24.43856c-1.177,-4.83971 -10.57943,-9.69306 -10.84631,-14.51034c-0.27703,-5.00035 7.22667,-9.57564 7.93423,-14.39427c0.78003,-5.31218 -5.12984,-10.83955 -3.14808,-15.72588c1.88611,-4.65046 10.41518,-3.26471 13.39459,-7.33936c2.82216,-3.85958 -1.44379,-11.6815 2.10606,-14.88453c5.87306,-5.29927 12.04254,0.78894 19.21343,-1.82298c8.74578,-3.18558 18.73017,-14.42643 28.33487,-13.75228c5.62066,0.3945 7.17488,10.36155 12.77005,12.0368c4.63897,1.38896 13.34131,-5.71169 17.81439,-3.46139c5.3156,2.67413 5.8749,15.30715 10.74838,19.17096c3.98404,3.15864 12.37431,-2.64685 15.92584,1.28924c4.39921,4.87554 1.60692,13.38488 4.75097,18.77561c2.68557,4.60458 11.47758,6.03688 13.24338,10.85755c1.85642,5.06809 -3.31512,12.62086 -2.47949,17.7609c0.61966,3.81157 7.4767,5.21348 7.53298,8.98271c0.06529,4.37195 -5.85645,11.14469 -6.55166,15.35833c-1.30914,7.93481 1.63834,13.03972 -2.38159,19.85677c-3.04114,5.15716 -11.66145,5.53281 -16.26315,9.68492z" fill="none" stroke="#bdbdbd" stroke-width="0.5"/><path d="M280.05729,219.23751c-1.69438,1.52884 0.41785,6.44834 -1.4313,7.69835c-2.97643,2.01206 -8.51345,-0.52837 -11.81062,0.77164c-3.21746,1.26858 -4.18862,6.39446 -7.61839,6.99698c-3.15113,0.55358 -7.5457,-5.15361 -10.80155,-5.15271c-4.12341,0.00114 -7.12897,5.54486 -11.29063,4.67621c-3.79036,-0.79114 -5.82457,-7.03137 -9.53181,-8.52927c-5.41435,-2.18767 -12.42365,-0.02942 -17.37333,-3.68771c-3.95617,-2.92398 -3.36448,-11.63929 -6.82776,-15.47756c-3.31766,-3.6769 -10.54082,-2.24745 -12.9776,-6.29169c-3.82005,-6.34 0.47736,-13.04555 -1.16567,-19.80145c-0.95368,-3.92139 -8.57203,-7.85386 -8.78826,-11.75708c-0.22445,-4.05156 5.85543,-7.75869 6.42875,-11.66302c0.63201,-4.30423 -4.15648,-8.78279 -2.55074,-12.74196c1.52822,-3.76805 8.43895,-2.64524 10.85304,-5.94676c2.28667,-3.12724 -1.16983,-9.46498 1.70645,-12.06026c4.75867,-4.29376 9.75752,0.63924 15.56777,-1.47708c7.08631,-2.58112 15.17621,-11.68907 22.95846,-11.14284c4.55417,0.31966 5.81349,8.39549 10.34699,9.75288c3.75875,1.12542 10.80984,-4.62791 14.43419,-2.8046c4.30697,2.16673 4.76016,12.40268 8.70893,15.53336c3.22809,2.55929 10.02634,-2.14463 12.90399,1.04459c3.56449,3.95044 1.302,10.84516 3.8495,15.21303c2.17599,3.73089 9.29977,4.89141 10.73051,8.79739c1.50418,4.10645 -2.68608,10.22612 -2.00901,14.39086c0.50208,3.08835 6.05803,4.22424 6.10363,7.27828c0.05288,3.5424 -4.74521,9.03004 -5.30848,12.44416c-1.06075,6.42923 1.32747,10.5655 -1.9297,16.08903c-2.46409,4.17862 -9.44873,4.48297 -13.1773,7.84724z" fill="none" stroke="#bdbdbd" stroke-width="0.5"/><path d="M272.69096,210.74736c-1.37695,1.24242 0.33957,5.2403 -1.16317,6.25613c-2.41882,1.63511 -6.91851,-0.4294 -9.59798,0.62707c-2.61469,1.03093 -3.40391,5.1965 -6.19115,5.68614c-2.56079,0.44988 -6.13206,-4.18812 -8.77795,-4.18737c-3.35093,0.00093 -5.79338,4.50606 -9.17538,3.80015c-3.08027,-0.64293 -4.73338,-5.71408 -7.74609,-6.93137c-4.4,-1.77782 -10.09615,-0.02391 -14.11856,-2.99683c-3.215,-2.37619 -2.73417,-9.45874 -5.54864,-12.57794c-2.69613,-2.98806 -8.56605,-1.8264 -10.54633,-5.11299c-3.10439,-5.15225 0.38793,-10.60155 -0.94728,-16.09178c-0.77501,-3.18676 -6.96611,-6.38248 -7.14184,-9.55446c-0.1824,-3.29253 4.75846,-6.30514 5.22435,-9.47802c0.51362,-3.49785 -3.37779,-7.13739 -2.07289,-10.35484c1.24193,-3.06213 6.85797,-2.14967 8.81979,-4.83266c1.85827,-2.54136 -0.95068,-7.69178 1.38674,-9.80084c3.86716,-3.48935 7.92951,0.51948 12.65124,-1.20036c5.75873,-2.09757 12.33303,-9.49921 18.65734,-9.0553c3.70098,0.25978 4.72436,6.82265 8.40855,7.92573c3.05457,0.91458 8.78469,-3.76091 11.73003,-2.27918c3.50009,1.7608 3.86837,10.07912 7.07736,12.62328c2.62332,2.07983 8.14798,-1.74284 10.48651,0.84891c2.89671,3.21036 1.05808,8.81339 3.12832,12.36296c1.76833,3.03192 7.5575,3.97502 8.7202,7.14925c1.22238,3.33713 -2.18286,8.31031 -1.63263,11.69482c0.40802,2.50976 4.92311,3.43286 4.96016,5.91475c0.04299,2.87875 -3.85623,7.33832 -4.31399,10.11283c-0.86202,5.22475 1.07877,8.5861 -1.56818,13.07486c-2.00245,3.39578 -7.67858,3.64313 -10.7086,6.37712z" fill="none" stroke="#bdbdbd" stroke-width="0.5"/><path d="M265.32464,202.2572c-1.05951,0.956 0.26129,4.03224 -0.89502,4.81388c-1.86119,1.25817 -5.32356,-0.33039 -7.38533,0.4825c-2.01194,0.79325 -2.61921,3.99853 -4.76388,4.37529c-1.97045,0.34616 -4.71844,-3.22261 -6.75435,-3.22204c-2.57841,0.00071 -4.45781,3.46725 -7.06015,2.92409c-2.37017,-0.49472 -3.64218,-4.39679 -5.96036,-5.33345c-3.38566,-1.36797 -7.76867,-0.0184 -10.86377,-2.30595c-2.47384,-1.8284 -2.10385,-7.27819 -4.26949,-9.67831c-2.07458,-2.29921 -6.59129,-1.40536 -8.11506,-3.93429c-2.38873,-3.96449 0.2985,-8.15754 -0.7289,-12.3821c-0.59634,-2.45209 -5.3602,-4.91113 -5.49542,-7.35186c-0.14035,-2.53349 3.66147,-4.85162 4.01998,-7.29302c0.39522,-2.69148 -2.5991,-5.49201 -1.59501,-7.96772c0.95562,-2.35621 5.27698,-1.6541 6.78653,-3.71857c1.42988,-1.95551 -0.7315,-5.91857 1.06707,-7.54143c2.97565,-2.68493 6.10149,0.39973 9.73471,-0.92364c4.43115,-1.61401 9.48988,-7.30933 14.35621,-6.96776c2.84778,0.19989 3.63525,5.24981 6.47012,6.09859c2.35039,0.70374 6.75953,-2.8939 9.02588,-1.75376c2.6932,1.35489 2.97659,7.75555 5.44581,9.7132c2.01857,1.60036 6.2696,-1.34105 8.06902,0.65321c2.22892,2.47025 0.81416,6.78162 2.40714,9.5129c1.36068,2.33295 5.81526,3.05866 6.70992,5.50112c0.94058,2.56781 -1.67964,6.39451 -1.25625,8.99878c0.31396,1.93118 3.78816,2.64147 3.81668,4.5512c0.03309,2.2151 -2.96724,5.64659 -3.31947,7.78149c-0.66329,4.02027 0.83009,6.60673 -1.20666,10.06068c-1.54084,2.61294 -5.90841,2.80326 -8.23992,4.90698z" fill="none" stroke="#bdbdbd" stroke-width="0.5"/><path d="M297.48036,245.63028c-2.45836,2.21818 0.60628,9.35586 -2.07666,11.16952c-4.31848,2.91928 -12.35211,-0.76663 -17.13599,1.11956c-4.6682,1.84057 -6.07725,9.27769 -11.0535,10.15188c-4.57197,0.80317 -10.94803,-7.47734 -15.6719,-7.47603c-5.98263,0.00166 -10.34335,8.045 -16.38149,6.78468c-5.49943,-1.14788 -8.45084,-10.20177 -13.82966,-12.37509c-7.85565,-3.17406 -18.0254,-0.04267 -25.20689,-5.35045c-5.73998,-4.24237 -4.88152,-16.88739 -9.90638,-22.45634c-4.81359,-5.33479 -15.29362,-3.2608 -18.82913,-9.12859c-5.5425,-9.19869 0.69259,-18.92772 -1.69126,-28.72984c-1.38368,-5.68953 -12.43713,-11.39511 -12.75086,-17.05828c-0.32566,-5.87839 8.49563,-11.25705 9.32744,-16.92183c0.917,-6.24498 -6.03061,-12.74292 -3.70086,-18.48723c2.21731,-5.46705 12.24401,-3.83799 15.74661,-8.62811c3.31771,-4.5373 -1.69732,-13.73268 2.47587,-17.49816c6.90432,-6.22978 14.15714,0.92748 22.58718,-2.14311c10.28148,-3.74494 22.01908,-16.95963 33.31031,-16.1671c6.60762,0.46379 8.43476,12.181 15.01239,14.15042c5.45354,1.63285 15.68396,-6.71464 20.9425,-4.06918c6.24897,3.1437 6.90647,17.995 12.63573,22.53726c4.68361,3.71327 14.54719,-3.11162 18.72233,1.5156c5.17169,5.73166 1.88907,15.7352 5.58522,22.07251c3.15712,5.41311 13.49299,7.09691 15.56884,12.76408c2.18239,5.958 -3.89724,14.837 -2.91486,20.87961c0.72847,4.48087 8.78958,6.12892 8.85574,10.56001c0.07674,5.13963 -6.8848,13.10165 -7.70207,18.05517c-1.53903,9.32812 1.926,15.32941 -2.79979,23.34349c-3.57511,6.06274 -13.70914,6.50433 -19.11887,11.38553z" fill="url(#color-3)" stroke="#ffee27" stroke-width="1"/><path d="M293.56311,241.1154c-2.28956,2.06587 0.56464,8.71345 -1.93408,10.40258c-4.02196,2.71883 -11.50396,-0.71398 -15.95935,1.04269c-4.34766,1.71419 -5.65995,8.64063 -10.2945,9.4548c-4.25803,0.74803 -10.19628,-6.96392 -14.5958,-6.9627c-5.57183,0.00154 -9.63312,7.4926 -15.25666,6.31882c-5.12183,-1.06906 -7.87057,-9.50127 -12.88005,-11.52535c-7.31624,-2.95612 -16.7877,-0.03976 -23.47607,-4.98305c-5.34585,-3.95107 -4.54633,-15.7278 -9.22617,-20.91437c-4.48306,-4.96848 -14.24347,-3.03692 -17.53623,-8.50179c-5.16193,-8.56706 0.64504,-17.62805 -1.57513,-26.7571c-1.28867,-5.29886 -11.58314,-10.61268 -11.87533,-15.88698c-0.30331,-5.47476 7.91229,-10.48409 8.68698,-15.7599c0.85403,-5.81617 -5.61652,-11.86793 -3.44673,-17.21783c2.06506,-5.09166 11.4033,-3.57444 14.66538,-8.03567c3.08991,-4.22575 -1.58077,-12.78974 2.30587,-16.29666c6.43024,-5.80201 13.18504,0.86379 21.03624,-1.99594c9.57551,-3.4878 20.50714,-15.7951 31.02308,-15.05699c6.15389,0.43194 7.85559,11.34458 13.98157,13.17877c5.07908,1.52074 14.60703,-6.25358 19.5045,-3.78978c5.81988,2.92782 6.43225,16.75938 11.76811,20.98975c4.36203,3.45829 13.54829,-2.89796 17.43677,1.41154c4.81659,5.33811 1.75937,14.65473 5.20172,20.5569c2.94034,5.04142 12.56648,6.60961 14.4998,11.88764c2.03254,5.54891 -3.62963,13.81823 -2.71472,19.44593c0.67844,4.17318 8.18605,5.70809 8.24767,9.83492c0.07149,4.7867 -6.41206,12.20201 -7.17322,16.81542c-1.43335,8.6876 1.79376,14.27682 -2.60754,21.74061c-3.32965,5.64644 -12.76779,6.05771 -17.80607,10.60375z" fill="url(#color-4)" stroke="#bdbdbd" stroke-width="1"/><path d="M289.36016,235.0675c-2.09118,1.88687 0.51573,7.95842 -1.76648,9.50117c-3.67344,2.48323 -10.50713,-0.65211 -14.57646,0.95233c-3.97093,1.56565 -5.16952,7.89192 -9.40246,8.63552c-3.88907,0.68322 -9.31277,-6.36048 -13.33106,-6.35937c-5.08904,0.00141 -8.7984,6.84336 -13.93464,5.77129c-4.678,-0.97643 -7.18857,-8.67797 -11.76398,-10.52666c-6.68228,-2.69997 -15.33301,-0.0363 -21.44181,-4.55128c-4.88263,-3.60871 -4.15239,-14.36499 -8.4267,-19.1021c-4.0946,-4.53795 -13.00925,-2.77375 -16.0167,-7.76509c-4.71463,-7.82472 0.58915,-16.10056 -1.43864,-24.43856c-1.177,-4.83971 -10.57943,-9.69306 -10.84631,-14.51034c-0.27703,-5.00035 7.22667,-9.57564 7.93423,-14.39427c0.78003,-5.31218 -5.12984,-10.83955 -3.14808,-15.72588c1.88611,-4.65046 10.41518,-3.2647 13.39458,-7.33936c2.82216,-3.85958 -1.44378,-11.68149 2.10607,-14.88452c5.87306,-5.29927 12.04254,0.78894 19.21343,-1.82298c8.74578,-3.18558 18.73018,-14.42644 28.33488,-13.75228c5.62066,0.3945 7.17488,10.36155 12.77004,12.03681c4.63897,1.38896 13.34131,-5.71169 17.81439,-3.46139c5.3156,2.67413 5.8749,15.30714 10.74838,19.17096c3.98404,3.15863 12.37431,-2.64686 15.92584,1.28922c4.39921,4.87554 1.60691,13.38489 4.75097,18.77563c2.68557,4.60458 11.47758,6.03687 13.24338,10.85754c1.85642,5.06809 -3.31511,12.62086 -2.47949,17.7609c0.61966,3.81157 7.47671,5.21348 7.53299,8.9827c0.06528,4.37196 -5.85645,11.14469 -6.55166,15.35833c-1.30914,7.93481 1.63834,13.03972 -2.38159,19.85677c-3.04114,5.15716 -11.66146,5.5328 -16.26315,9.68491z" fill="none" stroke="#bdbdbd" stroke-width="0.5"/><path d="M279.75125,225.19637c-1.69438,1.52884 0.41785,6.44836 -1.43131,7.69836c-2.97643,2.01206 -8.51345,-0.52837 -11.81062,0.77164c-3.21746,1.26858 -4.18862,6.39446 -7.61839,6.99698c-3.15113,0.55358 -7.5457,-5.15361 -10.80155,-5.15271c-4.12341,0.00114 -7.12897,5.54486 -11.29063,4.67621c-3.79036,-0.79114 -5.82457,-7.03137 -9.53181,-8.52927c-5.41435,-2.18767 -12.42365,-0.02942 -17.37333,-3.68771c-3.95617,-2.92397 -3.36448,-11.63929 -6.82776,-15.47756c-3.31766,-3.6769 -10.54081,-2.24744 -12.9776,-6.29169c-3.82005,-6.34 0.47736,-13.04555 -1.16566,-19.80146c-0.95368,-3.92139 -8.57203,-7.85386 -8.78827,-11.75708c-0.22445,-4.05156 5.85544,-7.7587 6.42875,-11.66302c0.63201,-4.30423 -4.15648,-8.78279 -2.55074,-12.74196c1.52822,-3.76805 8.43895,-2.64524 10.85304,-5.94676c2.28667,-3.12724 -1.16984,-9.46499 1.70643,-12.06025c4.75867,-4.29376 9.75752,0.63924 15.56777,-1.47709c7.08631,-2.58112 15.17621,-11.68907 22.95846,-11.14284c4.55417,0.31966 5.81349,8.3955 10.34699,9.75288c3.75875,1.12542 10.80984,-4.62792 14.43419,-2.8046c4.30697,2.16673 4.76017,12.40268 8.70893,15.53336c3.22809,2.55929 10.02634,-2.14463 12.90399,1.04459c3.56449,3.95044 1.302,10.84516 3.8495,15.21303c2.17599,3.73089 9.29977,4.89141 10.73051,8.79739c1.50418,4.10645 -2.68609,10.22612 -2.00901,14.39086c0.50208,3.08835 6.05803,4.22424 6.10363,7.27828c0.05288,3.5424 -4.74521,9.03004 -5.30848,12.44416c-1.06075,6.42923 1.32747,10.5655 -1.9297,16.08903c-2.46409,4.17862 -9.44873,4.48297 -13.1773,7.84724z" fill="none" stroke="#bdbdbd" stroke-width="0.5"/><path d="M272.38493,216.70621c-1.37695,1.24242 0.33957,5.2403 -1.16317,6.25613c-2.41882,1.63511 -6.9185,-0.42939 -9.59798,0.62707c-2.61469,1.03093 -3.40391,5.1965 -6.19115,5.68614c-2.56079,0.44988 -6.13206,-4.18812 -8.77795,-4.18739c-3.35093,0.00093 -5.79338,4.50606 -9.17538,3.80015c-3.08027,-0.64293 -4.73337,-5.71407 -7.74609,-6.93137c-4.39999,-1.77782 -10.09614,-0.0239 -14.11856,-2.99683c-3.215,-2.37619 -2.73417,-9.45874 -5.54864,-12.57795c-2.69613,-2.98806 -8.56606,-1.8264 -10.54633,-5.11299c-3.10439,-5.15225 0.38793,-10.60157 -0.94728,-16.09179c-0.77501,-3.18676 -6.96611,-6.38248 -7.14183,-9.55445c-0.1824,-3.29253 4.75846,-6.30514 5.22435,-9.47802c0.51362,-3.49785 -3.37778,-7.13741 -2.07289,-10.35485c1.24193,-3.06213 6.85796,-2.14966 8.81977,-4.83266c1.85827,-2.54136 -0.95068,-7.69178 1.38676,-9.80084c3.86716,-3.48935 7.92952,0.5195 12.65124,-1.20036c5.75873,-2.09757 12.33305,-9.4992 18.65735,-9.0553c3.70098,0.25978 4.72436,6.82265 8.40855,7.92573c3.05457,0.91458 8.78469,-3.76091 11.73003,-2.27917c3.50009,1.7608 3.86838,10.07911 7.07736,12.62327c2.62332,2.07983 8.14797,-1.74283 10.4865,0.84891c2.89671,3.21036 1.05808,8.81339 3.12833,12.36296c1.76833,3.03192 7.55749,3.97503 8.7202,7.14925c1.22238,3.33713 -2.18286,8.31031 -1.63263,11.69482c0.40802,2.50976 4.92311,3.43286 4.96015,5.91475c0.04299,2.87875 -3.85623,7.33832 -4.314,10.11282c-0.86202,5.22475 1.07877,8.5861 -1.56818,13.07486c-2.00245,3.39578 -7.67858,3.64313 -10.7086,6.37712z" fill="none" stroke="#bdbdbd" stroke-width="0.5"/><path d="M265.0186,208.21606c-1.05951,0.956 0.26129,4.03224 -0.89502,4.81388c-1.86119,1.25817 -5.32356,-0.33041 -7.38533,0.4825c-2.01194,0.79325 -2.61921,3.99854 -4.76388,4.37529c-1.97045,0.34616 -4.71844,-3.22261 -6.75435,-3.22206c-2.57841,0.00071 -4.45781,3.46727 -7.06015,2.92409c-2.37017,-0.49472 -3.64218,-4.39679 -5.96036,-5.33345c-3.38566,-1.36797 -7.76867,-0.0184 -10.86377,-2.30595c-2.47384,-1.8284 -2.10386,-7.2782 -4.2695,-9.67832c-2.07458,-2.29921 -6.59129,-1.40536 -8.11506,-3.93429c-2.38873,-3.96449 0.2985,-8.15754 -0.7289,-12.3821c-0.59634,-2.45209 -5.3602,-4.91113 -5.49541,-7.35185c-0.14035,-2.53349 3.66147,-4.85162 4.01998,-7.29302c0.39522,-2.69148 -2.5991,-5.492 -1.59501,-7.96772c0.95562,-2.35621 5.27698,-1.6541 6.78653,-3.71858c1.42988,-1.95551 -0.7315,-5.91857 1.06707,-7.54143c2.97565,-2.68493 6.10149,0.39973 9.73471,-0.92364c4.43115,-1.61401 9.48988,-7.30933 14.35621,-6.96776c2.84778,0.19989 3.63525,5.24982 6.47011,6.0986c2.35039,0.70374 6.75953,-2.8939 9.02588,-1.75376c2.6932,1.35489 2.97659,7.75555 5.44581,9.71319c2.01857,1.60036 6.2696,-1.34105 8.06902,0.65321c2.22892,2.47025 0.81415,6.78163 2.40713,9.51291c1.36068,2.33295 5.81526,3.05866 6.70992,5.50112c0.94057,2.5678 -1.67964,6.39451 -1.25625,8.99878c0.31396,1.93118 3.78816,2.64147 3.81669,4.55119c0.03309,2.2151 -2.96724,5.64659 -3.31947,7.78149c-0.66329,4.02027 0.83008,6.60674 -1.20666,10.06068c-1.54084,2.61294 -5.90841,2.80326 -8.23992,4.90698z" fill="none" stroke="#bdbdbd" stroke-width="0.5"/><path d="M297.48036,245.63028c-2.45836,2.21818 0.60628,9.35586 -2.07666,11.16952c-4.31848,2.91928 -12.35211,-0.76663 -17.13599,1.11956c-4.6682,1.84057 -6.07725,9.27769 -11.0535,10.15188c-4.57197,0.80317 -10.94803,-7.47734 -15.6719,-7.47603c-5.98263,0.00166 -10.34335,8.045 -16.38149,6.78468c-5.49943,-1.14788 -8.45084,-10.20177 -13.82966,-12.37509c-7.85565,-3.17406 -18.0254,-0.04267 -25.20689,-5.35045c-5.73998,-4.24237 -4.88152,-16.88739 -9.90638,-22.45634c-4.81359,-5.33479 -15.29362,-3.2608 -18.82913,-9.12859c-5.5425,-9.19869 0.69259,-18.92772 -1.69126,-28.72984c-1.38368,-5.68953 -12.43713,-11.39511 -12.75086,-17.05828c-0.32566,-5.87839 8.49563,-11.25705 9.32744,-16.92183c0.917,-6.24498 -6.03061,-12.74292 -3.70086,-18.48723c2.21731,-5.46705 12.24401,-3.83799 15.74661,-8.62811c3.31771,-4.5373 -1.69732,-13.73268 2.47587,-17.49816c6.90432,-6.22978 14.15714,0.92748 22.58718,-2.14311c10.28148,-3.74494 22.01908,-16.95963 33.31031,-16.1671c6.60762,0.46379 8.43476,12.181 15.01239,14.15042c5.45354,1.63285 15.68396,-6.71464 20.9425,-4.06918c6.24897,3.1437 6.90647,17.995 12.63573,22.53726c4.68361,3.71327 14.54719,-3.11162 18.72233,1.5156c5.17169,5.73166 1.88907,15.7352 5.58522,22.07251c3.15712,5.41311 13.49299,7.09691 15.56884,12.76408c2.18239,5.958 -3.89724,14.837 -2.91486,20.87961c0.72847,4.48087 8.78958,6.12892 8.85574,10.56001c0.07674,5.13963 -6.8848,13.10165 -7.70207,18.05517c-1.53903,9.32812 1.926,15.32941 -2.79979,23.34349c-3.57511,6.06274 -13.70914,6.50433 -19.11887,11.38553z" fill="url(#color-5)" stroke="#ffee27" stroke-width="1"/><path d="M293.56311,241.1154c-2.28956,2.06587 0.56464,8.71345 -1.93408,10.40258c-4.02196,2.71883 -11.50396,-0.71398 -15.95935,1.04269c-4.34766,1.71419 -5.65995,8.64063 -10.2945,9.4548c-4.25803,0.74803 -10.19628,-6.96392 -14.5958,-6.9627c-5.57183,0.00154 -9.63312,7.4926 -15.25666,6.31882c-5.12183,-1.06906 -7.87057,-9.50127 -12.88005,-11.52535c-7.31624,-2.95612 -16.7877,-0.03976 -23.47607,-4.98305c-5.34585,-3.95107 -4.54633,-15.7278 -9.22617,-20.91437c-4.48306,-4.96848 -14.24347,-3.03692 -17.53623,-8.50179c-5.16193,-8.56706 0.64504,-17.62805 -1.57513,-26.7571c-1.28867,-5.29886 -11.58314,-10.61268 -11.87533,-15.88698c-0.30331,-5.47476 7.91229,-10.48409 8.68698,-15.7599c0.85403,-5.81617 -5.61652,-11.86793 -3.44673,-17.21783c2.06506,-5.09166 11.4033,-3.57444 14.66538,-8.03567c3.08991,-4.22575 -1.58077,-12.78974 2.30587,-16.29666c6.43024,-5.80201 13.18504,0.86379 21.03624,-1.99594c9.57551,-3.4878 20.50714,-15.7951 31.02308,-15.05699c6.15389,0.43194 7.85559,11.34458 13.98157,13.17877c5.07908,1.52074 14.60703,-6.25358 19.5045,-3.78978c5.81988,2.92782 6.43225,16.75938 11.76811,20.98975c4.36203,3.45829 13.54829,-2.89796 17.43677,1.41154c4.81659,5.33811 1.75937,14.65473 5.20172,20.5569c2.94034,5.04142 12.56648,6.60961 14.4998,11.88764c2.03254,5.54891 -3.62963,13.81823 -2.71472,19.44593c0.67844,4.17318 8.18605,5.70809 8.24767,9.83492c0.07149,4.7867 -6.41206,12.20201 -7.17322,16.81542c-1.43335,8.6876 1.79376,14.27682 -2.60754,21.74061c-3.32965,5.64644 -12.76779,6.05771 -17.80607,10.60375z" fill="url(#color-6)" stroke="#bdbdbd" stroke-width="1"/><path d="M289.36016,235.0675c-2.09118,1.88687 0.51573,7.95842 -1.76648,9.50117c-3.67344,2.48323 -10.50713,-0.65211 -14.57646,0.95233c-3.97093,1.56565 -5.16952,7.89192 -9.40246,8.63552c-3.88907,0.68322 -9.31277,-6.36048 -13.33106,-6.35937c-5.08904,0.00141 -8.7984,6.84336 -13.93464,5.77129c-4.678,-0.97643 -7.18857,-8.67797 -11.76398,-10.52666c-6.68228,-2.69997 -15.33301,-0.0363 -21.44181,-4.55128c-4.88263,-3.60871 -4.15239,-14.36499 -8.4267,-19.1021c-4.0946,-4.53795 -13.00925,-2.77375 -16.0167,-7.76509c-4.71463,-7.82472 0.58915,-16.10056 -1.43864,-24.43856c-1.177,-4.83971 -10.57943,-9.69306 -10.84631,-14.51034c-0.27703,-5.00035 7.22667,-9.57564 7.93423,-14.39427c0.78003,-5.31218 -5.12984,-10.83955 -3.14808,-15.72588c1.88611,-4.65046 10.41518,-3.2647 13.39458,-7.33936c2.82216,-3.85958 -1.44378,-11.68149 2.10607,-14.88452c5.87306,-5.29927 12.04254,0.78894 19.21343,-1.82298c8.74578,-3.18558 18.73018,-14.42644 28.33488,-13.75228c5.62066,0.3945 7.17488,10.36155 12.77004,12.03681c4.63897,1.38896 13.34131,-5.71169 17.81439,-3.46139c5.3156,2.67413 5.8749,15.30714 10.74838,19.17096c3.98404,3.15863 12.37431,-2.64686 15.92584,1.28922c4.39921,4.87554 1.60691,13.38489 4.75097,18.77563c2.68557,4.60458 11.47758,6.03687 13.24338,10.85754c1.85642,5.06809 -3.31511,12.62086 -2.47949,17.7609c0.61966,3.81157 7.47671,5.21348 7.53299,8.9827c0.06528,4.37196 -5.85645,11.14469 -6.55166,15.35833c-1.30914,7.93481 1.63834,13.03972 -2.38159,19.85677c-3.04114,5.15716 -11.66146,5.5328 -16.26315,9.68491z" fill="none" stroke="#bdbdbd" stroke-width="0.5"/><path d="M279.75125,225.19637c-1.69438,1.52884 0.41785,6.44836 -1.43131,7.69836c-2.97643,2.01206 -8.51345,-0.52837 -11.81062,0.77164c-3.21746,1.26858 -4.18862,6.39446 -7.61839,6.99698c-3.15113,0.55358 -7.5457,-5.15361 -10.80155,-5.15271c-4.12341,0.00114 -7.12897,5.54486 -11.29063,4.67621c-3.79036,-0.79114 -5.82457,-7.03137 -9.53181,-8.52927c-5.41435,-2.18767 -12.42365,-0.02942 -17.37333,-3.68771c-3.95617,-2.92397 -3.36448,-11.63929 -6.82776,-15.47756c-3.31766,-3.6769 -10.54081,-2.24744 -12.9776,-6.29169c-3.82005,-6.34 0.47736,-13.04555 -1.16566,-19.80146c-0.95368,-3.92139 -8.57203,-7.85386 -8.78827,-11.75708c-0.22445,-4.05156 5.85544,-7.7587 6.42875,-11.66302c0.63201,-4.30423 -4.15648,-8.78279 -2.55074,-12.74196c1.52822,-3.76805 8.43895,-2.64524 10.85304,-5.94676c2.28667,-3.12724 -1.16984,-9.46499 1.70643,-12.06025c4.75867,-4.29376 9.75752,0.63924 15.56777,-1.47709c7.08631,-2.58112 15.17621,-11.68907 22.95846,-11.14284c4.55417,0.31966 5.81349,8.3955 10.34699,9.75288c3.75875,1.12542 10.80984,-4.62792 14.43419,-2.8046c4.30697,2.16673 4.76017,12.40268 8.70893,15.53336c3.22809,2.55929 10.02634,-2.14463 12.90399,1.04459c3.56449,3.95044 1.302,10.84516 3.8495,15.21303c2.17599,3.73089 9.29977,4.89141 10.73051,8.79739c1.50418,4.10645 -2.68609,10.22612 -2.00901,14.39086c0.50208,3.08835 6.05803,4.22424 6.10363,7.27828c0.05288,3.5424 -4.74521,9.03004 -5.30848,12.44416c-1.06075,6.42923 1.32747,10.5655 -1.9297,16.08903c-2.46409,4.17862 -9.44873,4.48297 -13.1773,7.84724z" fill="none" stroke="#bdbdbd" stroke-width="0.5"/><path d="M272.38493,216.70621c-1.37695,1.24242 0.33957,5.2403 -1.16317,6.25613c-2.41882,1.63511 -6.9185,-0.42939 -9.59798,0.62707c-2.61469,1.03093 -3.40391,5.1965 -6.19115,5.68614c-2.56079,0.44988 -6.13206,-4.18812 -8.77795,-4.18739c-3.35093,0.00093 -5.79338,4.50606 -9.17538,3.80015c-3.08027,-0.64293 -4.73337,-5.71407 -7.74609,-6.93137c-4.39999,-1.77782 -10.09614,-0.0239 -14.11856,-2.99683c-3.215,-2.37619 -2.73417,-9.45874 -5.54864,-12.57795c-2.69613,-2.98806 -8.56606,-1.8264 -10.54633,-5.11299c-3.10439,-5.15225 0.38793,-10.60157 -0.94728,-16.09179c-0.77501,-3.18676 -6.96611,-6.38248 -7.14183,-9.55445c-0.1824,-3.29253 4.75846,-6.30514 5.22435,-9.47802c0.51362,-3.49785 -3.37778,-7.13741 -2.07289,-10.35485c1.24193,-3.06213 6.85796,-2.14966 8.81977,-4.83266c1.85827,-2.54136 -0.95068,-7.69178 1.38676,-9.80084c3.86716,-3.48935 7.92952,0.5195 12.65124,-1.20036c5.75873,-2.09757 12.33305,-9.4992 18.65735,-9.0553c3.70098,0.25978 4.72436,6.82265 8.40855,7.92573c3.05457,0.91458 8.78469,-3.76091 11.73003,-2.27917c3.50009,1.7608 3.86838,10.07911 7.07736,12.62327c2.62332,2.07983 8.14797,-1.74283 10.4865,0.84891c2.89671,3.21036 1.05808,8.81339 3.12833,12.36296c1.76833,3.03192 7.55749,3.97503 8.7202,7.14925c1.22238,3.33713 -2.18286,8.31031 -1.63263,11.69482c0.40802,2.50976 4.92311,3.43286 4.96015,5.91475c0.04299,2.87875 -3.85623,7.33832 -4.314,10.11282c-0.86202,5.22475 1.07877,8.5861 -1.56818,13.07486c-2.00245,3.39578 -7.67858,3.64313 -10.7086,6.37712z" fill="none" stroke="#bdbdbd" stroke-width="0.5"/><path d="M265.0186,208.21606c-1.05951,0.956 0.26129,4.03224 -0.89502,4.81388c-1.86119,1.25817 -5.32356,-0.33041 -7.38533,0.4825c-2.01194,0.79325 -2.61921,3.99854 -4.76388,4.37529c-1.97045,0.34616 -4.71844,-3.22261 -6.75435,-3.22206c-2.57841,0.00071 -4.45781,3.46727 -7.06015,2.92409c-2.37017,-0.49472 -3.64218,-4.39679 -5.96036,-5.33345c-3.38566,-1.36797 -7.76867,-0.0184 -10.86377,-2.30595c-2.47384,-1.8284 -2.10386,-7.2782 -4.2695,-9.67832c-2.07458,-2.29921 -6.59129,-1.40536 -8.11506,-3.93429c-2.38873,-3.96449 0.2985,-8.15754 -0.7289,-12.3821c-0.59634,-2.45209 -5.3602,-4.91113 -5.49541,-7.35185c-0.14035,-2.53349 3.66147,-4.85162 4.01998,-7.29302c0.39522,-2.69148 -2.5991,-5.492 -1.59501,-7.96772c0.95562,-2.35621 5.27698,-1.6541 6.78653,-3.71858c1.42988,-1.95551 -0.7315,-5.91857 1.06707,-7.54143c2.97565,-2.68493 6.10149,0.39973 9.73471,-0.92364c4.43115,-1.61401 9.48988,-7.30933 14.35621,-6.96776c2.84778,0.19989 3.63525,5.24982 6.47011,6.0986c2.35039,0.70374 6.75953,-2.8939 9.02588,-1.75376c2.6932,1.35489 2.97659,7.75555 5.44581,9.71319c2.01857,1.60036 6.2696,-1.34105 8.06902,0.65321c2.22892,2.47025 0.81415,6.78163 2.40713,9.51291c1.36068,2.33295 5.81526,3.05866 6.70992,5.50112c0.94057,2.5678 -1.67964,6.39451 -1.25625,8.99878c0.31396,1.93118 3.78816,2.64147 3.81669,4.55119c0.03309,2.2151 -2.96724,5.64659 -3.31947,7.78149c-0.66329,4.02027 0.83008,6.60674 -1.20666,10.06068c-1.54084,2.61294 -5.90841,2.80326 -8.23992,4.90698z" fill="none" stroke="#bdbdbd" stroke-width="0.5"/><path d="M297.1743,251.58913c-2.45836,2.21818 0.60628,9.35586 -2.07666,11.16952c-4.31848,2.91928 -12.3521,-0.76662 -17.13599,1.11956c-4.6682,1.84057 -6.07725,9.27769 -11.05349,10.15188c-4.57197,0.80318 -10.94803,-7.47734 -15.6719,-7.47603c-5.98263,0.00166 -10.34335,8.045 -16.38149,6.78468c-5.49943,-1.14788 -8.45084,-10.20177 -13.82966,-12.37509c-7.85565,-3.17406 -18.0254,-0.04267 -25.20689,-5.35045c-5.73998,-4.24237 -4.88152,-16.88739 -9.90638,-22.45634c-4.81359,-5.33479 -15.29362,-3.2608 -18.82913,-9.12859c-5.5425,-9.19869 0.69259,-18.92772 -1.69127,-28.72983c-1.38368,-5.68953 -12.43713,-11.39511 -12.75086,-17.05828c-0.32566,-5.87839 8.49563,-11.25705 9.32744,-16.92183c0.917,-6.24498 -6.03061,-12.74291 -3.70086,-18.48723c2.21731,-5.46705 12.24401,-3.838 15.74661,-8.62812c3.31771,-4.5373 -1.69732,-13.73268 2.47588,-17.49816c6.90432,-6.22978 14.15713,0.92749 22.58718,-2.1431c10.28148,-3.74494 22.01908,-16.95963 33.31031,-16.1671c6.60762,0.46379 8.43476,12.181 15.01239,14.15042c5.45354,1.63285 15.68396,-6.71464 20.9425,-4.06918c6.24897,3.1437 6.90647,17.995 12.63573,22.53726c4.68362,3.71327 14.54719,-3.11162 18.72233,1.5156c5.17169,5.73166 1.88907,15.7352 5.58522,22.07251c3.15712,5.41311 13.493,7.09692 15.56884,12.76408c2.18239,5.958 -3.89724,14.837 -2.91487,20.87961c0.72847,4.48087 8.78958,6.12892 8.85574,10.56001c0.07674,5.13963 -6.88481,13.10165 -7.70207,18.05517c-1.53903,9.32812 1.92603,15.32941 -2.79978,23.34349c-3.57511,6.06274 -13.70914,6.50433 -19.11887,11.38553z" fill="url(#color-7)" stroke="#ffee27" stroke-width="1"/><path d="M293.25708,247.07425c-2.28956,2.06587 0.56465,8.71344 -1.93408,10.40258c-4.02196,2.71883 -11.50397,-0.71398 -15.95936,1.04269c-4.34766,1.71419 -5.65995,8.64063 -10.2945,9.4548c-4.25803,0.74803 -10.19628,-6.9639 -14.5958,-6.9627c-5.57183,0.00154 -9.63313,7.4926 -15.25667,6.31882c-5.12183,-1.06906 -7.87057,-9.50127 -12.88005,-11.52535c-7.31624,-2.95612 -16.7877,-0.03976 -23.47607,-4.98305c-5.34585,-3.95107 -4.54633,-15.7278 -9.22617,-20.91437c-4.48306,-4.96848 -14.24347,-3.03691 -17.53624,-8.50178c-5.16193,-8.56706 0.64504,-17.62806 -1.57513,-26.75711c-1.28867,-5.29886 -11.58314,-10.61267 -11.87533,-15.88698c-0.30331,-5.47476 7.91228,-10.4841 8.68697,-15.75991c0.85403,-5.81617 -5.61652,-11.86794 -3.44673,-17.21783c2.06506,-5.09166 11.40329,-3.57445 14.66536,-8.03566c3.08991,-4.22575 -1.58077,-12.78974 2.30587,-16.29666c6.43024,-5.80201 13.18505,0.86379 21.03625,-1.99594c9.5755,-3.4878 20.50714,-15.79509 31.02308,-15.05699c6.15389,0.43194 7.85559,11.34458 13.98156,13.17877c5.07908,1.52074 14.60704,-6.25356 19.5045,-3.78978c5.81988,2.92782 6.43225,16.75936 11.7681,20.98975c4.36201,3.4583 13.54829,-2.89796 17.43677,1.41154c4.81659,5.33811 1.75936,14.65474 5.20173,20.55691c2.94034,5.04142 12.56648,6.60961 14.4998,11.88764c2.03254,5.54891 -3.62962,13.81824 -2.71472,19.44593c0.67844,4.17318 8.18605,5.70809 8.24767,9.83492c0.07149,4.7867 -6.41205,12.20202 -7.17322,16.81542c-1.43335,8.6876 1.79375,14.27682 -2.60755,21.74061c-3.32965,5.64644 -12.76779,6.05772 -17.80607,10.60375z" fill="url(#color-8)" stroke="#bdbdbd" stroke-width="1"/><path d="M289.05412,241.02637c-2.09118,1.88687 0.51573,7.95842 -1.76649,9.50117c-3.67344,2.48323 -10.50711,-0.65211 -14.57645,0.95233c-3.97094,1.56566 -5.16953,7.89192 -9.40247,8.63551c-3.88907,0.68322 -9.31276,-6.36049 -13.33106,-6.35937c-5.08904,0.00141 -8.7984,6.84336 -13.93464,5.77129c-4.678,-0.97643 -7.18857,-8.67797 -11.76398,-10.52666c-6.68228,-2.69997 -15.333,-0.0363 -21.44181,-4.55128c-4.88263,-3.60871 -4.15238,-14.36497 -8.4267,-19.1021c-4.0946,-4.53795 -13.00925,-2.77375 -16.0167,-7.76509c-4.71463,-7.82472 0.58916,-16.10055 -1.43864,-24.43856c-1.177,-4.83971 -10.57943,-9.69306 -10.84631,-14.51034c-0.27703,-5.00035 7.22667,-9.57563 7.93423,-14.39426c0.78003,-5.31218 -5.12984,-10.83955 -3.14808,-15.72588c1.88611,-4.65046 10.41518,-3.26471 13.39459,-7.33936c2.82216,-3.85958 -1.44378,-11.68149 2.10607,-14.88452c5.87306,-5.29927 12.04254,0.78894 19.21343,-1.82298c8.74578,-3.18558 18.73016,-14.42643 28.33487,-13.75228c5.62066,0.3945 7.17488,10.36156 12.77004,12.03681c4.63897,1.38896 13.34131,-5.71169 17.81439,-3.46139c5.3156,2.67413 5.8749,15.30715 10.74838,19.17096c3.98404,3.15864 12.37431,-2.64685 15.92584,1.28922c4.39921,4.87554 1.60691,13.38489 4.75097,18.77561c2.68557,4.60458 11.47758,6.03687 13.24338,10.85754c1.85642,5.06809 -3.31511,12.62086 -2.47949,17.7609c0.61966,3.81157 7.4767,5.21348 7.53298,8.98271c0.06528,4.37196 -5.85645,11.14469 -6.55166,15.35833c-1.30914,7.93481 1.63833,13.03971 -2.38159,19.85675c-3.04114,5.15716 -11.66145,5.53281 -16.26315,9.68492z" fill="none" stroke="#bdbdbd" stroke-width="0.5"/><path d="M279.44521,231.15521c-1.69438,1.52884 0.41785,6.44834 -1.43131,7.69836c-2.97643,2.01206 -8.51345,-0.52837 -11.81064,0.77164c-3.21746,1.26858 -4.18862,6.39446 -7.61839,6.99698c-3.15113,0.55358 -7.54571,-5.15362 -10.80156,-5.15272c-4.12341,0.00114 -7.12897,5.54486 -11.29062,4.67622c-3.79038,-0.79114 -5.82457,-7.03137 -9.53181,-8.52927c-5.41435,-2.18767 -12.42365,-0.02942 -17.37333,-3.68771c-3.95617,-2.92397 -3.36448,-11.63929 -6.82776,-15.47756c-3.31766,-3.6769 -10.54082,-2.24745 -12.9776,-6.29169c-3.82005,-6.34 0.47736,-13.04556 -1.16566,-19.80146c-0.95368,-3.92139 -8.57203,-7.85386 -8.78827,-11.75708c-0.22445,-4.05156 5.85544,-7.7587 6.42875,-11.66302c0.63201,-4.30423 -4.15648,-8.7828 -2.55074,-12.74196c1.52822,-3.76805 8.43895,-2.64524 10.85304,-5.94676c2.28667,-3.12724 -1.16983,-9.46498 1.70645,-12.06026c4.75867,-4.29376 9.75752,0.63925 15.56777,-1.47708c7.08631,-2.58112 15.17621,-11.68907 22.95846,-11.14284c4.55417,0.31966 5.81349,8.39549 10.34699,9.75288c3.75875,1.12542 10.80984,-4.62792 14.43419,-2.8046c4.30697,2.16673 4.76016,12.40268 8.70893,15.53336c3.22809,2.55929 10.02634,-2.14463 12.90399,1.04459c3.56449,3.95044 1.302,10.84516 3.8495,15.21303c2.17599,3.73089 9.29977,4.8914 10.73051,8.79739c1.50418,4.10645 -2.68608,10.22612 -2.00901,14.39086c0.50208,3.08835 6.05803,4.22424 6.10363,7.27828c0.05288,3.5424 -4.74521,9.03004 -5.30849,12.44416c-1.06075,6.42923 1.32747,10.5655 -1.9297,16.08903c-2.46409,4.17862 -9.44873,4.48297 -13.1773,7.84724z" fill="none" stroke="#bdbdbd" stroke-width="0.5"/><path d="M272.07889,222.66507c-1.37695,1.24242 0.33957,5.2403 -1.16317,6.25613c-2.41882,1.63511 -6.91851,-0.4294 -9.59798,0.62707c-2.61469,1.03093 -3.40391,5.1965 -6.19115,5.68614c-2.56079,0.44988 -6.13206,-4.18812 -8.77795,-4.18737c-3.35093,0.00093 -5.79338,4.50606 -9.17538,3.80015c-3.08027,-0.64293 -4.73338,-5.71408 -7.7461,-6.93136c-4.39999,-1.77782 -10.09614,-0.0239 -14.11854,-2.99683c-3.21502,-2.37619 -2.73417,-9.45874 -5.54864,-12.57795c-2.69613,-2.98806 -8.56605,-1.8264 -10.54633,-5.11299c-3.10439,-5.15225 0.38792,-10.60156 -0.94728,-16.09179c-0.77501,-3.18676 -6.96611,-6.38248 -7.14184,-9.55446c-0.1824,-3.29253 4.75846,-6.30514 5.22435,-9.47802c0.51362,-3.49785 -3.37778,-7.13741 -2.07289,-10.35485c1.24193,-3.06213 6.85796,-2.14966 8.81978,-4.83265c1.85827,-2.54136 -0.95068,-7.69178 1.38676,-9.80084c3.86716,-3.48935 7.92952,0.51949 12.65124,-1.20036c5.75873,-2.09757 12.33303,-9.49921 18.65734,-9.0553c3.70098,0.25978 4.72436,6.82265 8.40855,7.92573c3.05457,0.91458 8.78469,-3.76091 11.73003,-2.27918c3.50009,1.7608 3.86837,10.07912 7.07736,12.62328c2.62332,2.07983 8.14798,-1.74284 10.48651,0.84891c2.89671,3.21036 1.05808,8.81339 3.12832,12.36296c1.76833,3.03192 7.55751,3.97502 8.72021,7.14926c1.22238,3.33713 -2.18286,8.31031 -1.63263,11.69482c0.40802,2.50976 4.92311,3.43286 4.96015,5.91474c0.04299,2.87875 -3.85623,7.33831 -4.31399,10.11283c-0.86202,5.22475 1.07877,8.5861 -1.56818,13.07486c-2.00245,3.39578 -7.67858,3.64311 -10.70861,6.37711z" fill="none" stroke="#bdbdbd" stroke-width="0.5"/><path d="M264.71256,214.17491c-1.05951,0.956 0.26129,4.03224 -0.89502,4.81388c-1.86119,1.25817 -5.32356,-0.33039 -7.38533,0.4825c-2.01194,0.79325 -2.61921,3.99854 -4.76388,4.37529c-1.97045,0.34616 -4.71843,-3.22262 -6.75435,-3.22206c-2.57841,0.00071 -4.45781,3.46725 -7.06015,2.92409c-2.37017,-0.49472 -3.64218,-4.39679 -5.96036,-5.33345c-3.38566,-1.36797 -7.76867,-0.0184 -10.86377,-2.30595c-2.47384,-1.8284 -2.10385,-7.27819 -4.26949,-9.67831c-2.07458,-2.29921 -6.5913,-1.40535 -8.11506,-3.93429c-2.38873,-3.96449 0.2985,-8.15754 -0.7289,-12.3821c-0.59634,-2.45209 -5.3602,-4.91113 -5.49542,-7.35186c-0.14035,-2.53349 3.66147,-4.85162 4.01998,-7.29302c0.39522,-2.69148 -2.5991,-5.49201 -1.59501,-7.96772c0.95562,-2.35621 5.27698,-1.6541 6.78653,-3.71857c1.42988,-1.95551 -0.7315,-5.91857 1.06707,-7.54143c2.97565,-2.68493 6.10149,0.39973 9.73471,-0.92364c4.43115,-1.61401 9.48988,-7.30934 14.35621,-6.96776c2.84778,0.19989 3.63525,5.24982 6.47011,6.0986c2.35039,0.70374 6.75952,-2.89389 9.02587,-1.75376c2.6932,1.35489 2.97659,7.75555 5.44581,9.7132c2.01857,1.60036 6.2696,-1.34105 8.06902,0.65321c2.22892,2.47025 0.81416,6.78162 2.40714,9.5129c1.36068,2.33295 5.81526,3.05866 6.70992,5.50112c0.94058,2.56781 -1.67965,6.39452 -1.25626,8.99878c0.31396,1.93118 3.78816,2.64145 3.81668,4.55119c0.03309,2.2151 -2.96724,5.64659 -3.31947,7.78149c-0.66329,4.02027 0.83009,6.60673 -1.20666,10.06068c-1.54084,2.61294 -5.90841,2.80326 -8.23992,4.90698z" fill="none" stroke="#bdbdbd" stroke-width="0.5"/></g></g></svg>