<svg version="1.1" xmlns="http://www.w3.org/2000/svg" xmlns:xlink="http://www.w3.org/1999/xlink" width="30.50233" height="31.01429" viewBox="0,0,30.50233,31.01429"><defs><radialGradient cx="240.1964" cy="185.7264" r="4.49372" gradientUnits="userSpaceOnUse" id="color-1"><stop offset="0" stop-color="#ffdada"/><stop offset="1" stop-color="#ffdada" stop-opacity="0"/></radialGradient><radialGradient cx="227.08192" cy="175.09837" r="7.62983" gradientUnits="userSpaceOnUse" id="color-2"><stop offset="0" stop-color="#ffdada"/><stop offset="1" stop-color="#ffdada" stop-opacity="0"/></radialGradient><radialGradient cx="231.42384" cy="195.60538" r="2.8747" gradientUnits="userSpaceOnUse" id="color-3"><stop offset="0" stop-color="#ffdada"/><stop offset="1" stop-color="#ffdada" stop-opacity="0"/></radialGradient><radialGradient cx="221.8208" cy="190.32632" r="7.62983" gradientUnits="userSpaceOnUse" id="color-4"><stop offset="0" stop-color="#ffdada"/><stop offset="1" stop-color="#ffdada" stop-opacity="0"/></radialGradient></defs><g transform="translate(-214.18898,-167.46654)"><g data-paper-data="{&quot;isPaintingLayer&quot;:true}" fill-rule="nonzero" stroke="none" stroke-width="0" stroke-linecap="butt" stroke-linejoin="miter" stroke-miterlimit="10" stroke-dasharray="" stroke-dashoffset="0" style="mix-blend-mode: normal"><path d="M238.4564,181.58323c2.28821,-0.96097 4.92222,0.11496 5.88319,2.40319c0.96097,2.28821 -0.11497,4.92221 -2.40319,5.88319c-2.28821,0.96097 -4.92221,-0.11497 -5.88318,-2.40318c-0.96097,-2.28821 0.11496,-4.92222 2.40318,-5.88319z" fill="url(#color-1)"/><path d="M234.11657,172.14404c1.63163,3.88513 -0.1952,8.35735 -4.08033,9.98897c-3.88513,1.63163 -8.35735,-0.1952 -9.98898,-4.08033c-1.63163,-3.88513 0.1952,-8.35735 4.08033,-9.98898c3.88513,-1.63163 8.35735,0.1952 9.98898,4.08033z" fill="url(#color-2)"/><path d="M230.31074,192.95494c1.4638,-0.61475 3.1488,0.07354 3.76355,1.53735c0.61475,1.4638 -0.07354,3.1488 -1.53735,3.76355c-1.4638,0.61475 -3.1488,-0.07355 -3.76354,-1.53735c-0.61475,-1.4638 0.07354,-3.1488 1.53735,-3.76354z" fill="url(#color-3)"/><path d="M228.85545,187.37199c1.63163,3.88513 -0.1952,8.35735 -4.08033,9.98897c-3.88513,1.63163 -8.35735,-0.1952 -9.98898,-4.08033c-1.63163,-3.88513 0.1952,-8.35735 4.08033,-9.98898c3.88513,-1.63163 8.35735,0.1952 9.98898,4.08033z" fill="url(#color-4)"/></g></g></svg>