<svg version="1.1" xmlns="http://www.w3.org/2000/svg" xmlns:xlink="http://www.w3.org/1999/xlink" width="144.53708" height="134.25166" viewBox="0,0,144.53708,134.25166"><g transform="translate(-247.73146,-112.87419)"><g data-paper-data="{&quot;isPaintingLayer&quot;:true}" fill-rule="nonzero" stroke="none" stroke-width="0" stroke-linecap="butt" stroke-linejoin="miter" stroke-miterlimit="10" stroke-dasharray="" stroke-dashoffset="0" style="mix-blend-mode: normal"><path d="M392.26854,180.00002c0,37.07258 -32.35572,67.12583 -72.26854,67.12583c-39.91281,0 -72.26854,-30.05325 -72.26854,-67.12583c0,-37.07258 32.35572,-67.12583 72.26854,-67.12583c39.91281,0 72.26854,30.05325 72.26854,67.12583z" fill="none"/><path d="M346.49705,163.21854c0.08131,0 0.1472,0.26363 0.1472,0.58882c0,0.3252 -0.0659,0.58882 -0.1472,0.58882c-0.08131,0 -0.1472,-0.26363 -0.1472,-0.58882c0,-0.3252 0.0659,-0.58882 0.1472,-0.58882z" fill="#ff3f3f"/><path d="M375.61962,180.00001c0,30.68173 -24.90175,55.55419 -55.61962,55.55419c-30.71786,0 -55.61962,-24.87246 -55.61962,-55.55419c0,-30.68173 24.90175,-55.55419 55.61962,-55.55419c30.71786,0 55.61962,24.87247 55.61962,55.55419z" fill-opacity="0.46667" fill="#ff6666"/><path d="M363.48091,180.00001c0,23.98559 -19.46706,43.42976 -43.4809,43.42976c-24.01384,0 -43.4809,-19.44417 -43.4809,-43.42976c0,-23.98559 19.46706,-43.42976 43.4809,-43.42976c24.01384,0 43.4809,19.44417 43.4809,43.42976z" fill-opacity="0.46667" fill="#ff6666"/></g></g></svg>