<svg id="Layer_1" data-name="Layer 1" xmlns="http://www.w3.org/2000/svg" viewBox="0 0 117 134"><defs><style>.cls-1{fill:#fff;}</style></defs><title>Saito Horizontal Secondary Logo White RGB</title><path class="cls-1" d="M113.49,34.26,59,2.77h0a1.56,1.56,0,0,0-.39-.15h-.07a1.47,1.47,0,0,0-.82.11l-.07,0-.06,0L3.11,34.18h0L3,34.26a1.43,1.43,0,0,0-.72,1.24v63A1.42,1.42,0,0,0,3,99.73l54.54,31.49a1.45,1.45,0,0,0,.72.2,1.42,1.42,0,0,0,.72-.2l54.54-31.49a1.41,1.41,0,0,0,.69-1c0-.05,0-.1,0-.15s0-.08,0-.12v-63A1.43,1.43,0,0,0,113.49,34.26ZM56.8,127.5,5.59,97.93,31.67,53.24,56.8,67.82V127.5ZM5.12,37.83l24.07,14L5.12,93.05Zm54.55,30L61.14,67,86.72,52.2,111.34,38V97l-51.67,0ZM86.52,49,65.58,13.62,62.25,8,109.91,35.5ZM57.72,6,84,50.44l-15.56,9L58.23,65.34,6.69,35.43Zm2,94,47.82,0L59.67,127.5Z"/></svg>