<svg enable-background="new 0 0 512 512" height="512" viewBox="0 0 512 512" width="512" xmlns="http://www.w3.org/2000/svg"><path d="m330.819 504.5h-149.634c-5.237 0-9.483-4.246-9.483-9.483v-22.557h168.6v22.557c0 5.237-4.246 9.483-9.483 9.483z" fill="#8dcafc"/><path d="m340.302 472.46v22.56c0 5.23-4.25 9.48-9.48 9.48h-30.04c5.24 0 9.49-4.25 9.49-9.48v-22.56z" fill="#64b9fc"/><path d="m344.725 475.805h-177.45c-4.82 0-8.873-3.615-9.421-8.404l-32.269-281.655h260.832l-32.269 281.655c-.55 4.789-4.603 8.404-9.423 8.404z" fill="#d9ecfd"/><path d="m125.584 185.746 3.538 30.882h199.494c9.558 0 16.984 8.325 15.896 17.821l-26.69 232.951c-.54 4.79-4.6 8.4-9.42 8.4h36.32c4.82 0 8.88-3.61 9.42-8.4l32.27-281.65z" fill="#b5dbfd"/><path d="m131.929 241.124 25.924 226.277c.549 4.788 4.602 8.404 9.421 8.404h177.451c4.82 0 8.873-3.615 9.421-8.404l25.924-226.277z" fill="#fddd45"/><path d="m343.748 241.124-25.926 226.276c-.54 4.79-4.6 8.4-9.42 8.4h36.32c4.82 0 8.88-3.61 9.42-8.4l25.926-226.276z" fill="#f8c52d"/><path d="m271.762 12.5v157.67h-31.53v-157.67c0-2.761 2.239-5 5-5h21.53c2.761 0 5 2.239 5 5z" fill="#fc5a95"/><path d="m256.002 43.91c-5.31 0-10.57.3-15.77.89v18.11c5.19-.67 10.46-1 15.77-1s10.57.33 15.76 1v-18.11c-5.2-.59-10.46-.89-15.76-.89z" fill="#fb1466"/><path d="m397.176 191.516h-282.352c-5.098 0-9.231-4.133-9.231-9.231v-15.146c0-5.098 4.133-9.231 9.231-9.231h282.351c5.098 0 9.231 4.133 9.231 9.231v15.146c.001 5.098-4.132 9.231-9.23 9.231z" fill="#eaf6ff"/><path d="m406.411 167.139v15.148c0 5.096-4.135 9.231-9.231 9.231h-30.675c5.095 0 9.231-4.135 9.231-9.231v-15.148c0-5.096-4.136-9.231-9.231-9.231h30.675c5.095 0 9.231 4.136 9.231 9.231z" fill="#c5e2ff"/><path d="m311.172 447.603c2.809 2.809 2.553 7.405-.503 9.944-31.167 25.898-77.511 24.237-106.731-4.983s-30.881-75.564-4.983-106.731c2.539-3.056 7.135-3.312 9.944-.503z" fill="#fde784"/><path d="m296.565 432.996c-20.175 20.175-52.885 20.175-73.059 0-20.175-20.175-20.175-52.885 0-73.059z" fill="#fef5c8"/><path d="m397.176 150.408h-3.566c-4.53-32.121-20.184-61.651-44.42-83.57-19.759-17.87-44.005-29.53-69.925-33.915v-20.423c0-6.893-5.607-12.5-12.5-12.5h-21.529c-6.893 0-12.5 5.607-12.5 12.5v20.423c-25.92 4.384-50.166 16.045-69.925 33.915-24.236 21.919-39.89 51.449-44.42 83.57h-3.566c-9.226 0-16.731 7.505-16.731 16.731v15.146c0 9.226 7.505 16.731 16.731 16.731h4.731l30.846 269.24c.864 7.539 6.57 13.444 13.8 14.768v11.994c0 9.364 7.619 16.983 16.983 16.983h149.634c9.364 0 16.983-7.619 16.983-16.983v-11.995c7.228-1.324 12.932-7.23 13.796-14.767l30.846-269.239h4.731c9.226 0 16.731-7.505 16.731-16.731v-15.146c.001-9.227-7.505-16.732-16.73-16.732zm-58.048-72.445c21.096 19.079 34.905 44.612 39.318 72.445h-99.182v-102.247c22.176 4.222 42.879 14.441 59.864 29.802zm-91.393-62.963h16.529v16.219c-2.744-.162-5.499-.253-8.265-.253s-5.521.091-8.265.253v-16.219zm-74.863 62.963c16.985-15.361 37.688-25.58 59.864-29.802v27.562c0 4.142 3.358 7.5 7.5 7.5s7.5-3.358 7.5-7.5v-29.48c2.742-.182 5.498-.277 8.265-.277s5.522.095 8.265.277v104.165h-16.529v-38.395c0-4.142-3.358-7.5-7.5-7.5s-7.5 3.358-7.5 7.5v38.395h-99.182c4.411-27.833 18.221-53.366 39.317-72.445zm157.947 419.037h-149.634c-1.093 0-1.983-.89-1.983-1.983v-11.712h153.6v11.712c0 1.093-.89 1.983-1.983 1.983zm-25.566-44.709c-13.604 11.049-30.734 16.708-48.354 15.941-17.989-.781-34.915-8.229-47.657-20.971s-20.19-29.668-20.971-47.657c-.765-17.611 4.892-34.75 15.941-48.354l9.036 9.036c-17.955 23.186-16.314 56.746 4.955 78.015 11.533 11.534 26.683 17.3 41.833 17.3 12.789 0 25.569-4.126 36.182-12.345zm41.443 14.256c-.115 1.002-.962 1.757-1.97 1.757h-35.91c2.282-1.553 4.505-3.21 6.647-4.989 3.089-2.567 4.967-6.334 5.151-10.335.183-3.974-1.325-7.866-4.139-10.68l-38.46-38.46c-2.929-2.929-7.678-2.929-10.606 0-2.929 2.929-2.929 7.678 0 10.606l18.091 18.091c-17.227 12.173-41.28 10.566-56.69-4.843-15.41-15.41-17.017-39.464-4.843-56.69l17.782 17.782c2.929 2.929 7.678 2.929 10.606 0 2.929-2.929 2.929-7.678 0-10.606l-38.152-38.152c-2.813-2.813-6.704-4.318-10.68-4.138-4.001.184-7.768 2.062-10.336 5.151-13.772 16.574-20.84 37.604-19.902 59.214.944 21.749 9.947 42.21 25.351 57.613 3.9 3.9 8.125 7.385 12.612 10.438h-43.973c-1.008 0-1.855-.755-1.97-1.757l-24.967-217.924h231.326zm52.211-284.262c0 .955-.776 1.731-1.731 1.731h-68.42c-4.142 0-7.5 3.358-7.5 7.5s3.358 7.5 7.5 7.5h48.591l-3.965 34.608h-234.764l-3.965-34.608h157.813c4.142 0 7.5-3.358 7.5-7.5s-3.358-7.5-7.5-7.5h-177.642c-.955 0-1.731-.776-1.731-1.731v-15.146c0-.955.776-1.731 1.731-1.731h282.352c.955 0 1.731.776 1.731 1.731z"/><path d="m234.671 395.858-1.732.733c-3.814 1.614-5.599 6.016-3.984 9.83 1.211 2.861 3.988 4.579 6.911 4.579.975 0 1.965-.191 2.919-.595l1.732-.733c3.814-1.614 5.599-6.016 3.984-9.83s-6.014-5.596-9.83-3.984z"/><path d="m256.659 412c-3.815-1.613-8.215.17-9.83 3.984l-.733 1.732c-1.614 3.814.17 8.216 3.984 9.83.954.403 1.945.595 2.919.595 2.922 0 5.7-1.719 6.911-4.579l.733-1.732c1.615-3.814-.169-8.215-3.984-9.83z"/><path d="m300.954 283.324h-.104c-4.142 0-7.5 3.358-7.5 7.5s3.358 7.5 7.5 7.5h.104c4.142 0 7.5-3.358 7.5-7.5s-3.358-7.5-7.5-7.5z"/><path d="m271.852 295.82h-.104c-.012 0-.024 0-.036 0-4.125 0-7.479 3.334-7.499 7.465-.02 4.142 3.323 7.516 7.465 7.535h.104.036c4.125 0 7.479-3.334 7.499-7.465.019-4.142-3.323-7.515-7.465-7.535z"/><path d="m299.842 351.445h-.104c-.012 0-.024 0-.036 0-4.125 0-7.479 3.334-7.499 7.465-.02 4.142 3.323 7.516 7.465 7.535h.104.036c4.125 0 7.479-3.334 7.499-7.465.02-4.142-3.323-7.515-7.465-7.535z"/></svg>