<svg enable-background="new 0 0 512 512" viewBox="0 0 512 512" xmlns="http://www.w3.org/2000/svg"><path d="m66.839 386.525h378.318v38.282h-378.318z" fill="#ef2929"/><path d="m415.8 386.525h29.36v38.282h-29.36z" fill="#d31a1a"/><path d="m437.282 504.494h-362.564c-15.575 0-28.201-12.626-28.201-28.201v-42.314c0-5.038 4.084-9.123 9.123-9.123h400.721c5.038 0 9.123 4.084 9.123 9.123v42.314c-.001 15.575-12.627 28.201-28.202 28.201z" fill="#ff9017"/><path d="m465.486 433.981v42.316c0 15.573-12.631 28.194-28.204 28.194h-27.023c15.573 0 28.204-12.621 28.204-28.194v-42.316c0-5.044-4.083-9.128-9.128-9.128h27.023c5.044.001 9.128 4.084 9.128 9.128z" fill="#ef7d0a"/><path d="m453.92 386.572h-395.84c-14.355 0-25.993-11.637-25.993-25.993v-19.911c0-14.355 11.637-25.993 25.993-25.993h395.84c14.355 0 25.993 11.637 25.993 25.993v19.911c0 14.357-11.638 25.993-25.993 25.993z" fill="#b7623f"/><path d="m479.908 340.673v19.907c0 14.352-11.63 25.992-25.992 25.992h-27.113c14.352 0 25.992-11.64 25.992-25.992v-19.907c0-14.362-11.64-25.992-25.992-25.992h27.113c14.362 0 25.992 11.63 25.992 25.992z" fill="#a55235"/><path d="m436.831 337.125-16.872-11.4c-1.852-1.251-4.286-1.217-6.101.085l-20.678 14.826c-1.86 1.334-4.363 1.334-6.223 0l-20.587-14.762c-1.86-1.333-4.363-1.333-6.223 0l-20.589 14.762c-1.86 1.333-4.363 1.333-6.223 0l-20.589-14.761c-1.861-1.334-4.364-1.333-6.223 0l-20.584 14.761c-1.86 1.334-4.364 1.334-6.223 0l-20.587-14.761c-1.86-1.334-4.363-1.334-6.223 0l-20.588 14.761c-1.86 1.333-4.363 1.333-6.223 0l-20.591-14.762c-1.86-1.333-4.363-1.333-6.222 0l-20.592 14.762c-1.86 1.333-4.363 1.333-6.222 0l-20.592-14.762c-1.86-1.333-4.363-1.333-6.222 0l-20.593 14.763c-1.86 1.333-4.363 1.333-6.222 0l-20.687-14.828c-1.816-1.301-4.25-1.335-6.1-.084l-16.875 11.402c-3.546 2.396-8.329-.145-8.329-4.425v-58.702h378.321v58.701c-.008 4.279-4.791 6.82-8.338 4.424z" fill="#1bcf92"/><path d="m445.159 273.997v58.699c0 4.284-4.784 6.826-8.327 4.434l-16.874-11.41c-1.241-.831-2.742-1.091-4.153-.781v-50.943h29.354z" fill="#11ba7d"/><path d="m441.024 330.899.009.006c-.003-.002-.006-.004-.009-.006z"/><path d="m446.644 221.597h-381.288c-10.599 0-19.191-8.592-19.191-19.191 0-107.64 87.259-194.899 194.899-194.899h29.872c107.64 0 194.899 87.259 194.899 194.899 0 10.598-8.592 19.191-19.191 19.191z" fill="#ff9017"/><path d="m257.252 7.502h13.684c107.64 0 194.904 87.264 194.904 194.904 0 5.3-2.152 10.098-5.622 13.566-3.48 3.48-8.277 5.622-13.576 5.622h-16.32c.17-3.84.341-7.68.511-11.52.461-10.384.189-20.696-1.046-31.033-1.132-9.472-2.959-18.861-5.471-28.064-2.465-9.034-5.588-17.888-9.334-26.47-3.702-8.481-8.013-16.697-12.885-24.565-4.84-7.817-10.234-15.29-16.125-22.348-5.877-7.041-12.248-13.67-19.052-19.82-6.813-6.158-14.059-11.837-21.668-16.979-7.65-5.169-15.667-9.794-23.973-13.827-8.391-4.073-17.076-7.54-25.967-10.363-12.511-3.968-25.379-6.035-38.06-9.103z" fill="#ef7d0a"/><path d="m66.839 221.597h378.318v38.282h-378.318z" fill="#ef2929"/><path d="m415.8 221.597h29.36v38.282h-29.36z" fill="#d31a1a"/><path d="m66.839 259.445v42.591c0 14.227 11.533 25.76 25.76 25.76 14.227 0 25.76-11.533 25.76-25.76v-4.143c0-2.949 2.391-5.34 5.339-5.34h152.86c2.949 0 5.339 2.391 5.339 5.34v42.452c0 14.894 12.073 26.967 26.967 26.967 14.894 0 26.967-12.073 26.967-26.967v-42.452c0-2.949 2.391-5.34 5.339-5.34h103.99v-33.111z" fill="#fcc927"/><path d="m415.8 259.438h29.36v33.108h-29.36z" fill="#efad0a"/><path d="m453.92 307.171h-1.253v-78.761c11.829-2.739 20.674-13.354 20.674-26.004 0-111.608-90.799-202.406-202.405-202.406h-29.872c-62.658 0-120.775 28.327-159.449 77.717-2.556 3.264-1.982 7.983 1.282 10.538 3.266 2.556 7.983 1.981 10.538-1.282 35.809-45.731 89.618-71.961 147.629-71.961h29.872c103.329 0 187.393 84.065 187.393 187.393 0 6.442-5.241 11.684-11.684 11.684h-1.483-378.323-1.483c-6.443 0-11.684-5.241-11.684-11.685 0-26.819 5.544-52.71 16.477-76.955 1.704-3.779.022-8.224-3.757-9.928-3.777-1.702-8.224-.022-9.928 3.756-11.814 26.198-17.805 54.166-17.805 83.127 0 12.649 8.845 23.265 20.674 26.003v78.761h-1.253c-18.472 0-33.499 15.028-33.499 33.499v19.912c0 18.472 16.115 33.499 34.586 33.499v23.273h-3.529c-9.169 0-16.628 7.459-16.628 16.628v42.314c0 19.689 16.017 35.707 35.707 35.707h217.813c4.145 0 7.506-3.361 7.506-7.506s-3.361-7.506-7.506-7.506h-217.812c-11.411 0-20.694-9.283-20.694-20.694v-42.314c0-.891.725-1.615 1.615-1.615h400.722c.891 0 1.615.725 1.615 1.615v42.314c0 11.411-9.283 20.694-20.694 20.694h-97.962c-4.145 0-7.506 3.361-7.506 7.506s3.36 7.506 7.506 7.506h97.962c19.689 0 35.707-16.017 35.707-35.707v-42.314c0-9.169-7.459-16.628-16.628-16.628h-3.735l-.127-23.272c18.472 0 34.92-15.028 34.92-33.499v-19.912c0-18.471-15.027-33.497-33.499-33.497zm-379.574-78.068h363.309v22.833l-363.309.004zm0 55.797v-17.513h363.309v17.004.656h-96.483c-7.084 0-12.846 5.763-12.846 12.846v42.452c0 10.73-8.73 19.46-19.46 19.46s-19.46-8.73-19.46-19.46v-42.452c0-7.084-5.763-12.846-12.846-12.846h-152.86c-7.084 0-12.846 5.763-12.846 12.846v4.143c0 10.064-8.189 18.253-18.253 18.253s-18.253-8.189-18.253-18.253v-17.136zm363.308 15.16v28.562l-13.493-9.117c-4.432-2.995-10.33-2.911-14.676.205l-19.416 13.922-19.326-13.857c-4.478-3.209-10.493-3.21-14.971 0l-12.433 8.915v-28.629zm-163.262 0v27.525l-10.892-7.811c-4.477-3.21-10.493-3.211-14.971 0l-19.326 13.857-19.329-13.858c-4.477-3.211-10.493-3.21-14.97 0l-19.33 13.858-19.329-13.858c-4.477-3.211-10.493-3.21-14.97 0l-19.331 13.859-8.236-5.903c7.419-6.106 12.158-15.356 12.158-25.692v-1.978zm-200.046 117.249v-23.23h363.309v23.23zm398.061-56.728c0 10.194-8.293 18.487-18.487 18.487h-7.967c-.26-.027-.524-.042-.793-.042h-378.321c-.268 0-.531.015-.793.042h-7.966c-10.194 0-18.487-8.293-18.487-18.487v-19.912c0-10.194 8.293-18.487 18.487-18.487h1.253v10.519c0 4.763 2.613 9.111 6.82 11.345s9.272 1.966 13.218-.701l11.952-8.075c.424.016 4.854-.117 6.584-.396l16.552 11.864c2.238 1.605 4.861 2.407 7.484 2.407s5.246-.803 7.484-2.407l19.331-13.859 19.329 13.858c4.477 3.211 10.493 3.21 14.97 0l19.33-13.858 19.329 13.858c4.476 3.21 10.493 3.211 14.971 0l19.326-13.857 18.931 13.574c2.893 16.103 16.997 28.364 33.92 28.364 16.526 0 30.368-11.692 33.702-27.236.466-.252.924-.53 1.363-.845l19.327-13.857 19.326 13.857c4.478 3.211 10.494 3.211 14.971 0l19.453-13.948 15.622 10.555c3.946 2.667 9.012 2.935 13.219.701 4.207-2.235 6.82-6.582 6.82-11.345v-10.517h1.253c10.194 0 18.487 8.293 18.487 18.487v19.91z"/><circle cx="328.106" cy="69.729" r="8.507"/><circle cx="275.392" cy="87.604" r="8.507"/><circle cx="290.835" cy="49.966" r="8.507"/><circle cx="245.547" cy="41.455" r="8.507"/><circle cx="243.395" cy="78.236" r="8.507"/><circle cx="183.895" cy="79.097" r="8.507"/><circle cx="212.999" cy="49.966" r="8.507"/></svg>