<svg enable-background="new 0 0 512 512" viewBox="0 0 512 512" xmlns="http://www.w3.org/2000/svg"><circle cx="199.071" cy="50.48" fill="#ef2929" r="42.964"/><path d="m242.029 50.473c0 23.727-19.23 42.966-42.956 42.966-18.088 0-33.572-11.187-39.901-27.012 6.41 3.796 13.891 5.979 21.874 5.979 23.727 0 42.956-19.24 42.956-42.966 0-5.639-1.082-11.017-3.055-15.945 12.619 7.482 21.082 21.243 21.082 36.978z" fill="#d31a1a"/><path d="m228.903 77.461s68.147-16.487 110.042-56.661c11.659-11.18 31.05-2.774 31.05 13.38v43.895z" fill="#b7623f"/><path d="m369.997 34.177v43.898l-25.039-.11v-43.788c0-5.599-2.334-10.276-5.869-13.511 11.668-10.976 30.908-2.584 30.908 13.511z" fill="#a55235"/><path d="m448.218 254.321h-384.434v-54.174c0-18.816 15.254-34.07 34.07-34.07h316.295c18.816 0 34.07 15.254 34.07 34.07v54.174z" fill="#b7623f"/><path d="m400.448 165.975h-289.735v-54.174c0-18.816 15.254-34.07 34.07-34.07h221.595c18.816 0 34.07 15.254 34.07 34.07z" fill="#b7623f"/><path d="m400.444 111.797v54.174h-32.56v-54.174c0-18.809-15.254-34.063-34.073-34.063h32.57c18.81.001 34.063 15.254 34.063 34.063z" fill="#a55235"/><path d="m448.218 200.14v54.174h-32.56v-54.174c0-18.809-15.254-34.063-34.073-34.063h32.57c18.81.001 34.063 15.254 34.063 34.063z" fill="#a55235"/><path d="m450.386 339.601h-388.77c-10.333 0-18.71-8.377-18.71-18.71v-47.858c0-10.333 8.377-18.71 18.71-18.71h388.771c10.333 0 18.71 8.377 18.71 18.71v47.858c0 10.333-8.377 18.71-18.711 18.71z" fill="#e59770"/><path d="m469.1 273.036v47.854c0 10.336-8.383 18.709-18.709 18.709h-35.254c10.336 0 18.719-8.373 18.719-18.709v-47.854c0-10.336-8.383-18.719-18.719-18.719h35.254c10.326 0 18.709 8.383 18.709 18.719z" fill="#ba8368"/><path d="m78.15 339.601 31.192 143.391c2.729 12.548 13.835 21.497 26.676 21.497h239.966c12.841 0 23.946-8.949 26.676-21.497l31.192-143.391z" fill="#f9e8d4"/><path d="m433.856 339.599-31.198 143.389c-2.73 12.547-13.835 21.496-26.676 21.496h-12.329l35.865-164.885z" fill="#e8d0ba"/><path d="m152.345 339.601 24.795 164.887h51.779l-10.454-164.887z" fill="#e59770"/><path d="m359.657 339.601-24.795 164.887h-51.779l10.454-164.887z" fill="#e59770"/><path d="m455.73 247.359v-47.211c0-22.928-18.653-41.582-41.581-41.582h-6.188v-46.765c0-19.074-12.914-35.178-30.454-40.057v-37.564c0-10.575-6.052-19.727-15.796-23.883-9.676-4.126-20.392-2.18-27.965 5.082-26.009 24.94-63.131 40.574-86.009 48.483 1.177-4.264 1.81-8.752 1.81-13.386-.001-27.833-22.645-50.476-50.477-50.476s-50.476 22.643-50.476 50.476c0 7.005 1.445 13.676 4.038 19.744h-7.85c-18.268 0-34.215 11.703-39.68 29.121-1.242 3.958.96 8.174 4.919 9.415 3.961 1.246 8.174-.96 9.416-4.918 3.49-11.123 13.675-18.596 25.346-18.596h146.25l78.929.343h.032c.165 0 .327-.014.49-.024 12.702 1.98 22.452 12.992 22.452 26.24v46.662h-274.711v-12.133c0-4.148-3.363-7.512-7.512-7.512s-7.512 3.363-7.512 7.512v12.235h-5.348c-22.928 0-41.581 18.653-41.581 41.582v47.211c-11.905 2.474-20.879 13.045-20.879 25.673v47.859c0 14.459 11.763 26.222 26.222 26.222h10.481l29.906 137.476c3.456 15.883 17.761 27.412 34.016 27.412h41.122 51.779 54.164 51.779 41.122c16.255 0 30.56-11.529 34.016-27.412l29.905-137.476h10.48c14.459 0 26.222-11.763 26.222-26.222v-47.859c.001-12.628-8.972-23.198-20.877-25.672zm-226.924-177.631c-1.028.274-1.613.419-1.672.434-.068.017-.133.04-.201.059h-57.277c-3.806-5.647-6.039-12.437-6.039-19.744 0-19.548 15.903-35.452 35.452-35.452s35.452 15.904 35.452 35.452c.001 7.096-2.108 13.703-5.715 19.251zm133.677.492h-71.426l-17.449-.076c22.424-9.42 49.48-23.731 70.535-43.922 3.202-3.071 7.565-3.858 11.672-2.107 4.175 1.781 6.667 5.544 6.667 10.065v36.04zm-291.187 129.928c0-14.645 11.914-26.559 26.558-26.559h316.295c14.644 0 26.558 11.914 26.558 26.559v46.662h-369.411zm64.722 296.829c-9.24 0-17.372-6.553-19.336-15.582l-29.211-134.283h58.407l22.536 149.864zm47.588 0-22.536-149.864h50.344l9.502 149.864zm144.79 0h-37.311l4.009-63.225c.262-4.14-2.882-7.709-7.022-7.972-4.164-.255-7.709 2.881-7.972 7.021l-4.069 64.175h-40.062l-9.502-149.864h59.066l-2.514 39.645c-.262 4.14 2.881 7.709 7.022 7.972 4.183.263 7.71-2.881 7.972-7.021l2.573-40.595h50.344zm66.925-15.582c-1.965 9.029-10.097 15.582-19.337 15.582h-32.396l22.536-149.864h58.407zm66.264-160.505c0 6.175-5.023 11.199-11.199 11.199h-16.534-74.195-66.12-75.073-66.12-74.194-16.534c-6.176 0-11.199-5.024-11.199-11.199v-47.859c0-6.175 5.023-11.198 11.199-11.198h388.771c6.176 0 11.199 5.024 11.199 11.198z"/></svg>