<svg enable-background="new 0 0 511.999 511.999" viewBox="0 0 511.999 511.999" xmlns="http://www.w3.org/2000/svg"><path d="m328.073 502.716h-144.147c-5.422 0-9.817-4.395-9.817-9.817v-44.875h163.781v44.876c0 5.421-4.395 9.816-9.817 9.816z" fill="#ef2929"/><path d="m328.073 502.716h-16.114v-54.692h25.931v44.876c0 5.421-4.395 9.816-9.817 9.816z" fill="#d31a1a"/><path d="m322.433 448.227h-132.866c-100.549 0-182.06-81.511-182.06-182.06v-28.468c0-3.573 2.897-6.471 6.471-6.471h484.045c3.573 0 6.471 2.897 6.471 6.471v28.468c-.001 100.55-81.511 182.06-182.061 182.06z" fill="#ef2929"/><path d="m504.498 237.696v28.475c0 100.548-81.512 182.06-182.06 182.06 0 0 138.742-34.59 154.306-175.594v-41.406h21.279c3.573 0 6.475 2.892 6.475 6.465z" fill="#d31a1a"/><path d="m35.3 231.393c0-13.149-4.871-22.188-2.679-34.709 2.255-12.876 14.936-22.879 19.308-34.889 4.45-12.223 1.205-28.025 7.635-39.137 6.49-11.217 21.829-16.275 30.115-26.14 8.31-9.894 10.647-25.871 20.541-34.18 9.865-8.286 25.999-7.833 37.216-14.323 11.113-6.43 18.754-20.661 30.978-25.111 12.011-4.373 26.995 1.579 39.871-.676 12.52-2.192 24.566-12.943 37.715-12.943s25.195 10.751 37.715 12.944c12.876 2.255 27.86-3.697 39.871.676 12.223 4.45 19.865 18.681 30.977 25.111 11.217 6.49 27.351 6.036 37.216 14.323 9.894 8.31 12.231 24.287 20.541 34.18 8.286 9.865 23.626 14.923 30.115 26.141 6.43 11.113 3.185 26.915 7.635 39.138 4.372 12.011 17.054 22.013 19.309 34.89 2.193 12.52-2.678 21.56-2.678 34.709z" fill="#f9e8d4"/><path d="m293.713 22.227c12.881 2.252 27.864-3.693 39.875.671 12.221 4.454 19.867 18.686 30.977 25.112 11.22 6.496 27.344 6.045 37.213 14.323 9.899 8.317 12.231 24.291 20.538 34.18 8.287 9.869 23.631 14.923 30.116 26.143 6.436 11.11 3.183 26.914 7.637 39.144 4.374 12.001 17.055 22.009 19.307 34.881 2.192 12.521-2.672 21.559-2.672 34.711h-21.969c.46-4.004.54-8.107-.26-12.651-2.392-13.662-15.844-24.281-20.488-37.023-4.724-12.971-1.281-29.746-8.097-41.536-6.896-11.91-23.17-17.275-31.968-27.744-8.818-10.499-11.3-27.454-21.799-36.272-10.469-8.798-27.584-8.317-39.495-15.203-8.375-4.849-14.121-12.956-21.301-19.246-7.287-6.384-16.743-8.345-17.614-19.49z" fill="#e8d0ba"/><path d="m498.023 223.723h-13.23c.282-2.005.634-3.986.999-6.015 1.219-6.768 2.479-13.766.98-22.318-1.563-8.926-6.921-16.366-11.648-22.93-3.312-4.599-6.44-8.942-8-13.233-1.616-4.44-2.027-9.869-2.462-15.617-.633-8.375-1.287-17.035-5.73-24.712-4.487-7.757-11.703-12.661-18.682-17.404-4.73-3.215-9.197-6.253-12.183-9.806-3.003-3.575-5.231-8.515-7.588-13.745-3.46-7.677-7.038-15.615-13.873-21.355-6.814-5.723-15.239-7.874-23.387-9.955-5.571-1.422-10.834-2.766-14.897-5.116-3.987-2.307-7.736-6.163-11.705-10.246-5.899-6.067-11.999-12.341-20.463-15.423-8.292-3.019-16.911-2.153-25.25-1.317-5.758.579-11.2 1.124-15.894.301-4.455-.78-9.255-3.096-14.339-5.548-7.294-3.519-15.564-7.509-24.672-7.509s-17.376 3.99-24.672 7.509c-5.082 2.452-9.884 4.768-14.338 5.548-4.693.823-10.135.277-15.895-.301-8.334-.836-16.955-1.7-25.249 1.317-7.597 2.765-13.443 8.28-18.326 13.233-2.911 2.952-2.877 7.705.075 10.615 2.95 2.91 7.703 2.878 10.615-.075 3.903-3.96 8.107-7.968 12.77-9.665 5.071-1.846 11.65-1.185 18.614-.486 6.516.654 13.253 1.33 19.985.151 6.509-1.14 12.489-4.025 18.271-6.815 6.415-3.095 12.473-6.017 18.149-6.017s11.735 2.923 18.149 6.017c5.783 2.789 11.763 5.674 18.272 6.815 6.733 1.179 13.47.501 19.984-.151 6.966-.699 13.544-1.358 18.615.486 5.234 1.906 9.897 6.702 14.834 11.78 4.507 4.635 9.167 9.428 14.951 12.775 5.858 3.389 12.387 5.056 18.701 6.669 6.817 1.741 13.255 3.384 17.445 6.904 4.212 3.537 6.946 9.605 9.843 16.029 2.674 5.931 5.439 12.066 9.779 17.231 4.322 5.146 9.873 8.918 15.24 12.566 5.841 3.969 11.358 7.719 14.126 12.506 2.725 4.71 3.226 11.323 3.754 18.325.492 6.509 1.001 13.24 3.324 19.621 2.273 6.241 6.162 11.644 9.926 16.869 4.151 5.766 8.072 11.212 9.042 16.748 1.038 5.926.108 11.09-.968 17.068-.481 2.677-.998 5.559-1.358 8.675h-427.316c-.36-3.117-.877-5.998-1.359-8.676-1.076-5.979-2.006-11.142-.968-17.068.97-5.536 4.891-10.982 9.043-16.747 3.763-5.225 7.653-10.627 9.926-16.869 2.323-6.383 2.831-13.114 3.324-19.621.528-7.002 1.029-13.616 3.754-18.325 2.769-4.786 8.285-8.537 14.126-12.506 5.367-3.648 10.917-7.421 15.239-12.565 4.34-5.167 7.104-11.3 9.779-17.232 2.897-6.424 5.631-12.492 9.843-16.029 2.22-1.865 5.286-3.378 9.65-4.762 3.951-1.253 6.139-5.473 4.886-9.424-1.254-3.952-5.474-6.14-9.424-4.886-3.964 1.257-9.809 3.41-14.769 7.577-6.834 5.74-10.412 13.679-13.872 21.355-2.357 5.231-4.585 10.171-7.588 13.745-2.984 3.553-7.452 6.59-12.182 9.805-6.98 4.743-14.196 9.648-18.683 17.404-4.442 7.677-5.096 16.337-5.73 24.712-.434 5.748-.845 11.177-2.461 15.618-1.561 4.289-4.689 8.633-8 13.231-4.728 6.565-10.086 14.004-11.649 22.931-1.497 8.552-.237 15.55.98 22.318.365 2.03.718 4.011 1 6.015h-13.229c-7.706-.001-13.977 6.27-13.977 13.976v28.468c0 96.755 72.866 176.801 166.602 188.172v38.559c0 9.552 7.772 17.323 17.324 17.323h144.148c9.552 0 17.324-7.771 17.324-17.323v-38.563c53.421-6.522 102.027-35.58 133.075-80.496 2.357-3.41 1.504-8.086-1.906-10.443-3.411-2.358-8.087-1.503-10.443 1.907-31.123 45.022-81.402 72.727-135.699 75.214h-149.191c-92.395-4.364-166.221-80.894-166.221-174.349v-27.432h18.731c.501.106 1.022.163 1.554.163h441.402c.533 0 1.053-.057 1.554-.163h18.731v27.432c0 20.65-3.568 40.86-10.608 60.068-1.426 3.892.573 8.204 4.465 9.631 3.894 1.426 8.204-.574 9.631-4.465 7.648-20.867 11.525-42.815 11.525-65.233v-28.468c.002-7.707-6.269-13.978-13.975-13.978zm-167.639 269.177c0 1.274-1.036 2.31-2.311 2.31h-144.146c-1.274 0-2.311-1.036-2.311-2.31v-37.344c2.638.109 5.286.179 7.95.179h132.868c2.658 0 5.308-.076 7.95-.187z"/><circle cx="354.081" cy="114.38" r="8.507"/><circle cx="308.791" cy="69.09" r="8.507"/><circle cx="300.284" cy="120.335" r="8.507"/><circle cx="138.402" cy="146.228" r="8.507"/><circle cx="115.882" cy="191.448" r="8.507"/></svg>