<svg enable-background="new 0 0 512 512" viewBox="0 0 512 512" xmlns="http://www.w3.org/2000/svg"><circle cx="114.422" cy="314.753" fill="#ef2929" r="64.323"/><path d="m178.732 315.868c-.609 35.517-29.914 63.814-65.432 63.194-3.346-.06-6.622-.37-9.818-.919 29.864-5.114 52.837-30.873 53.376-62.275.559-32.171-22.593-59.239-53.366-64.513 3.905-.679 7.931-.989 12.046-.919 35.527.62 63.814 29.915 63.194 65.432z" fill="#d31a1a"/><circle cx="114.422" cy="314.753" fill="#f45c4d" r="24.041"/><path d="m300.923 96.855-147.052 228.074h154.017 154.017l-147.054-228.074c-3.263-5.061-10.665-5.061-13.928 0z" fill="#fcc927"/><path d="m461.903 324.927h-39.453l-134.289-208.29 12.765-19.786c3.256-5.054 10.667-5.054 13.923 0z" fill="#efad0a"/><path d="m363.951 173.015c-4.02 4.284-9.2 8.589-15.081 9.409-4.769.664-11.658-.254-12.638 5.523-.573 3.379.002 7.317.002 10.759 0 8.317-6.392 15.473-14.7 15.862-8.867.414-16.183-6.659-16.183-15.435 0-7.164 2.54-16.533-8.141-14.456-2.52.49-5.042 2.162-7.341 3.254-13.594 6.451-30.373 1.024-42.688-7.716l53.746-83.36c3.256-5.064 10.667-5.064 13.923 0z" fill="#ef2929"/><circle cx="256.003" cy="223.152" r="8.57"/><circle cx="292.779" cy="284.978" r="8.57"/><circle cx="389.093" cy="287.785" r="8.57"/><circle cx="359.129" cy="250.42" r="8.57"/><circle cx="233.5" cy="258.989" r="8.57"/><path d="m363.951 173.019c-4.025 4.285-9.199 8.59-15.082 9.409-4.764.659-11.656-.26-12.635 5.523-.15.919-.23 1.878-.25 2.857l-47.813-74.161 12.755-19.786v-.01c.13-.2.27-.4.42-.589.03-.05.07-.1.12-.14.14-.19.31-.38.479-.549.2-.21.41-.41.629-.589.18-.16.37-.3.569-.439.04-.03.08-.06.13-.09.23-.15.449-.29.689-.41.24-.13.489-.25.739-.35.26-.11.519-.2.779-.28 1.568-.469 3.246-.469 4.814 0 .26.08.519.17.779.28.25.1.499.22.739.35.24.12.459.26.689.41.05.03.09.06.13.09.2.14.39.28.569.439.22.18.43.38.629.589.17.17.34.36.479.549.05.04.09.09.12.14.15.19.29.39.42.589v.01z" fill="#d31a1a"/><path d="m423.014 418.941h-334.029c-6.429 0-11.641-5.212-11.641-11.641v-27.034h357.311v27.034c0 6.429-5.212 11.641-11.641 11.641z" fill="#caedff"/><path d="m434.656 380.271v27.028c0 6.432-5.214 11.646-11.646 11.646h-23.302c6.432 0 11.646-5.214 11.646-11.646v-27.028z" fill="#aae8f2"/><path d="m290.874 324.085h-69.749-208.582c-3.685 0-6.127 3.82-4.579 7.164l16.606 35.883c3.706 8.007 11.726 13.133 20.549 13.133h176.004 69.749 176.004c8.823 0 16.844-5.126 20.549-13.133l16.606-35.883c1.547-3.344-.895-7.164-4.579-7.164z" fill="#caedff"/><path d="m504.033 331.25-16.6 35.887c-3.706 8-11.726 13.134-20.555 13.134h-23.971c8.829 0 16.85-5.134 20.555-13.134l16.6-35.887c1.548-3.346-.889-7.161-4.574-7.161h23.971c3.685-.001 6.122 3.815 4.574 7.161z" fill="#aae8f2"/><path d="m510.019 322.378c-2.315-3.622-6.263-5.784-10.562-5.784h-34.012l-56.795-88.084c-2.242-3.478-6.88-4.474-10.356-2.236-3.477 2.242-4.478 6.879-2.236 10.356l51.559 79.966h-279.459l81.29-126.078c15.16 8.533 31.054 10.155 43.633 4.183.746-.354 1.513-.759 2.294-1.174.903-.479 1.983-1.054 2.746-1.338-.011 1.001-.072 2.128-.117 2.961-.07 1.291-.144 2.627-.144 3.984 0 6.242 2.59 12.293 7.106 16.602 4.309 4.113 9.886 6.341 15.809 6.341.368 0 .738-.009 1.109-.025 12.247-.574 21.841-10.829 21.841-23.346 0-1.329-.069-2.643-.136-3.915-.08-1.512-.161-3.061-.097-4.354.89-.131 2.082-.212 2.905-.269 1.138-.078 2.312-.158 3.508-.325 4.226-.589 8.362-2.376 12.503-5.406l8.908 13.816c2.243 3.479 6.881 4.476 10.356 2.236 3.477-2.242 4.478-6.879 2.236-10.356l-62.761-97.338c-.862-1.336-1.905-2.51-3.081-3.506-.067-.057-.132-.118-.2-.174-.063-.052-.13-.099-.194-.149-2.742-2.174-6.164-3.4-9.784-3.4-4.353 0-8.422 1.766-11.359 4.826-.018.019-.038.036-.056.056-.019.02-.036.041-.054.061-.657.698-1.259 1.461-1.791 2.286l-118.967 184.514c-12.408-20.23-34.553-33.923-59.99-34.367-12.331-.202-24.584 2.763-35.385 8.608-3.64 1.97-4.992 6.514-3.022 10.153s6.516 4.994 10.153 3.022c8.539-4.619 18.231-6.967 27.993-6.804 22.795.397 42.241 14.24 50.948 33.815l-16.027 24.856h-4.448c.026-.431.054-.863.062-1.297.081-4.648-.845-9.158-2.671-13.287l8.419-7.529c3.084-2.759 3.349-7.494.591-10.577-2.758-3.084-7.493-3.349-10.577-.591l-7.61 6.805c-5.417-4.344-12.073-6.771-19.127-6.894-7.079-.102-13.798 2.078-19.357 6.226l-7.369-7.066c-2.984-2.864-7.727-2.765-10.591.223-2.864 2.985-2.765 7.728.223 10.591l8.153 7.818c-1.968 4.062-3.05 8.538-3.131 13.186-.014.804.016 1.601.064 2.394h-25.334c-.033-.94-.049-1.884-.033-2.836.115-6.646 1.363-13.133 3.711-19.282 1.476-3.865-.462-8.195-4.327-9.67-3.861-1.475-8.195.461-9.67 4.327-2.968 7.777-4.548 15.975-4.693 24.365-.018 1.038-.003 2.069.025 3.096h-30.098c-4.299 0-8.247 2.162-10.562 5.784-2.315 3.623-2.62 8.115-.814 12.018l16.606 35.883c4.915 10.617 15.649 17.478 27.348 17.478h24.733v19.543c0 10.549 8.583 19.131 19.131 19.131h334.03c10.549 0 19.131-8.583 19.131-19.131v-19.543h24.733c11.7 0 22.435-6.861 27.348-17.478l16.606-35.884c1.805-3.901 1.501-8.394-.814-12.017zm-162.182-147.374c-.674.095-1.542.153-2.462.217-4.416.303-14.754 1.01-16.529 11.472-.523 3.085-.362 6.166-.219 8.883.06 1.128.115 2.192.115 3.129 0 4.426-3.392 8.184-7.559 8.38-2.2.113-4.289-.674-5.874-2.186-1.592-1.519-2.468-3.566-2.468-5.764 0-.951.059-2.029.121-3.17.27-4.948.638-11.725-4.336-16.058-2.3-2.003-5.211-3.008-8.687-3.008-1.307 0-2.695.143-4.159.427-2.909.564-5.42 1.899-7.436 2.971-.575.306-1.139.607-1.688.869-8.975 4.259-20.027 1.532-29.052-3.292l49.624-76.966c.031-.048.089-.137.191-.214.105-.078.255-.143.469-.143.215 0 .364.065.468.143s.163.17.197.223l45.715 70.905c-2.349 1.847-4.502 2.913-6.431 3.182zm-244.911 127.843c3.108-3.002 7.177-4.644 11.487-4.644.099 0 .197.001.296.003 4.42.077 8.544 1.87 11.614 5.05 3.07 3.179 4.719 7.363 4.641 11.782-.009.525-.048 1.044-.108 1.559h-32.868c-.083-.702-.123-1.414-.111-2.133.077-4.422 1.87-8.547 5.049-11.617zm324.238 104.454c0 2.288-1.861 4.149-4.149 4.149h-334.03c-2.288 0-4.149-1.861-4.149-4.149v-19.543h342.328zm53.466-43.314c-2.471 5.339-7.868 8.788-13.752 8.788h-32.224-357.309-32.225c-5.883 0-11.28-3.45-13.752-8.789l-14.998-32.41h479.258z"/></svg>