<svg enable-background="new 0 0 512 512" viewBox="0 0 512 512" xmlns="http://www.w3.org/2000/svg"><circle cx="256" cy="256" fill="#f9e8d4" r="248.48"/><circle cx="256" cy="256" fill="#ff9017" r="218.07"/><path d="m474.076 256c0 120.442-97.635 218.077-218.077 218.077-62.894 0-119.559-26.618-159.355-69.212 35.965 26.146 80.214 41.561 128.074 41.561 120.442 0 218.077-97.635 218.077-218.077 0-57.548-22.295-109.891-58.721-148.865 54.549 39.636 90.002 103.934 90.002 176.516z" fill="#ef7d0a"/><circle cx="147.62" cy="168.16" fill="#ef2929" r="41.724"/><path d="m164.725 206.208c-21.021 9.448-45.713.07-55.171-20.941-.572-1.264-1.063-2.537-1.494-3.821 11.363 6.97 25.865 8.365 38.934 2.487 19.758-8.886 29.225-31.251 22.416-51.35 6.92 4.222 12.677 10.511 16.257 18.454 9.446 21.022.069 45.714-20.942 55.171z" fill="#d31a1a"/><path d="m147.621 217.409c-27.154 0-49.246-22.091-49.246-49.246s22.091-49.246 49.246-49.246 49.246 22.091 49.246 49.246-22.092 49.246-49.246 49.246zm0-83.447c-18.859 0-34.202 15.343-34.202 34.202s15.343 34.202 34.202 34.202 34.202-15.343 34.202-34.202-15.343-34.202-34.202-34.202z"/><path d="m147.621 158.859c-4.154 0-7.522-3.368-7.522-7.522v-5.238c0-4.154 3.368-7.522 7.522-7.522s7.522 3.368 7.522 7.522v5.238c0 4.154-3.368 7.522-7.522 7.522z"/><path d="m147.621 197.751c-4.154 0-7.522-3.368-7.522-7.522v-5.238c0-4.154 3.368-7.522 7.522-7.522s7.522 3.368 7.522 7.522v5.238c0 4.154-3.368 7.522-7.522 7.522z"/><path d="m169.686 175.685h-5.238c-4.154 0-7.522-3.368-7.522-7.522s3.368-7.522 7.522-7.522h5.238c4.154 0 7.522 3.368 7.522 7.522s-3.368 7.522-7.522 7.522z"/><path d="m130.794 175.685h-5.238c-4.154 0-7.522-3.368-7.522-7.522s3.368-7.522 7.522-7.522h5.238c4.154 0 7.522 3.368 7.522 7.522s-3.368 7.522-7.522 7.522z"/><circle cx="368.81" cy="180.46" fill="#ef2929" r="41.724"/><path d="m385.922 218.51c-21.021 9.448-45.713.07-55.171-20.941-.572-1.264-1.063-2.537-1.494-3.821 11.363 6.97 25.865 8.365 38.934 2.487 19.758-8.886 29.225-31.251 22.416-51.35 6.92 4.222 12.677 10.511 16.257 18.454 9.446 21.021.069 45.713-20.942 55.171z" fill="#d31a1a"/><path d="m368.711 229.721c-9.674 0-19.129-2.859-27.342-8.371-22.546-15.133-28.578-45.787-13.445-68.334 7.331-10.922 18.476-18.336 31.383-20.875 12.905-2.539 26.029.099 36.952 7.43 10.922 7.331 18.336 18.476 20.875 31.382 2.54 12.907-.099 26.03-7.43 36.952s-18.476 18.336-31.383 20.875c-3.202.63-6.418.941-9.61.941zm.174-83.473c-2.217 0-4.451.216-6.674.654-8.965 1.764-16.705 6.913-21.796 14.498-10.51 15.659-6.321 36.949 9.338 47.458 7.586 5.092 16.705 6.923 25.663 5.161 8.965-1.764 16.705-6.913 21.796-14.498 5.091-7.585 6.924-16.699 5.161-25.663-1.764-8.964-6.913-16.704-14.498-21.795-5.704-3.829-12.272-5.815-18.99-5.815z"/><path d="m378.185 174.012c-1.442 0-2.898-.413-4.184-1.277-3.449-2.315-4.37-6.988-2.055-10.438l2.919-4.35c2.315-3.45 6.989-4.37 10.437-2.055 3.45 2.315 4.37 6.988 2.055 10.438l-2.919 4.35c-1.452 2.163-3.83 3.332-6.253 3.332z"/><path d="m356.51 206.305c-1.442 0-2.898-.413-4.184-1.277-3.45-2.315-4.37-6.988-2.055-10.438l2.919-4.35c2.314-3.45 6.988-4.37 10.437-2.055 3.45 2.315 4.37 6.988 2.055 10.438l-2.919 4.35c-1.452 2.163-3.83 3.332-6.253 3.332z"/><path d="m387.128 200.28c-1.442 0-2.898-.414-4.185-1.277l-4.35-2.919c-3.45-2.315-4.369-6.988-2.054-10.438 2.316-3.45 6.99-4.367 10.438-2.054l4.35 2.919c3.45 2.315 4.369 6.988 2.054 10.438-1.452 2.163-3.831 3.331-6.253 3.331z"/><path d="m354.835 178.606c-1.442 0-2.898-.414-4.185-1.277l-4.35-2.919c-3.45-2.315-4.369-6.988-2.054-10.438 2.316-3.45 6.99-4.367 10.438-2.054l4.35 2.919c3.45 2.315 4.369 6.988 2.054 10.438-1.452 2.162-3.831 3.331-6.253 3.331z"/><circle cx="346.85" cy="346.72" fill="#ef2929" r="41.724"/><path d="m363.965 384.776c-21.021 9.448-45.713.07-55.171-20.941-.572-1.264-1.063-2.537-1.494-3.821 11.363 6.97 25.865 8.365 38.934 2.487 19.758-8.886 29.225-31.251 22.416-51.35 6.92 4.222 12.677 10.511 16.257 18.454 9.447 21.021.069 45.713-20.942 55.171z" fill="#d31a1a"/><path d="m346.924 395.964c-18.802 0-36.788-10.817-44.986-29.046-11.137-24.766-.05-53.974 24.715-65.111 24.768-11.136 53.974-.048 65.111 24.715 5.396 11.997 5.796 25.377 1.128 37.674-4.668 12.298-13.846 22.042-25.843 27.437-6.535 2.939-13.384 4.331-20.125 4.331zm-.123-83.444c-4.683 0-9.437.966-13.977 3.008-17.2 7.734-24.899 28.02-17.165 45.221 7.734 17.198 28.017 24.9 45.221 17.164 17.2-7.735 24.9-28.021 17.165-45.22-5.694-12.659-18.187-20.173-31.244-20.173z"/><path d="m339.954 338.898c-2.87 0-5.61-1.651-6.864-4.438l-2.149-4.778c-1.704-3.789-.015-8.242 3.775-9.946 3.786-1.704 8.241-.015 9.945 3.774l2.149 4.778c1.704 3.789.015 8.242-3.775 9.946-1.001.45-2.05.664-3.081.664z"/><path d="m355.906 374.368c-2.87 0-5.61-1.651-6.864-4.438l-2.149-4.778c-1.704-3.789-.015-8.242 3.775-9.946 3.786-1.705 8.241-.015 9.945 3.774l2.149 4.778c1.704 3.789.015 8.242-3.775 9.946-1.001.451-2.05.664-3.081.664z"/><path d="m362.202 347.343c-2.87 0-5.611-1.651-6.864-4.439-1.704-3.788-.014-8.241 3.775-9.945l4.778-2.148c3.789-1.703 8.242-.014 9.945 3.776 1.704 3.788.014 8.241-3.775 9.945l-4.778 2.148c-1.001.449-2.049.663-3.081.663z"/><path d="m326.732 363.294c-2.87 0-5.611-1.651-6.864-4.439-1.704-3.788-.014-8.241 3.775-9.945l4.778-2.148c3.789-1.702 8.242-.014 9.945 3.776 1.704 3.788.014 8.241-3.775 9.945l-4.778 2.148c-1.002.45-2.05.663-3.081.663z"/><path d="m94.488 283.11 12.267 8.649 11.975 8.443 12.267 8.649c3.765 2.655 9.017 1.746 11.672-2.019l7.642-10.838c2.655-3.765 1.746-9.017-2.019-11.672l-5.99-4.223 8.043-11.406c2.434-3.452 1.601-8.269-1.851-10.703l-11.975-8.443c-3.452-2.434-8.269-1.601-10.703 1.851l-8.043 11.406-5.99-4.223c-3.765-2.655-9.017-1.746-11.672 2.019l-7.642 10.838c-2.654 3.765-1.746 9.017 2.019 11.672z" fill="#b7623f"/><path d="m135.776 317.899c-3.25 0-6.411-.995-9.115-2.901l-36.507-25.742c-3.463-2.442-5.77-6.094-6.495-10.285s.221-8.406 2.663-11.869l7.642-10.838c2.442-3.463 6.094-5.769 10.285-6.494 4.127-.715 8.277.192 11.71 2.552l3.709-5.259c2.335-3.312 5.828-5.518 9.835-6.211 4.006-.694 8.038.212 11.35 2.546l11.974 8.443c6.851 4.83 8.495 14.333 3.665 21.184l-3.71 5.261c3.376 2.44 5.623 6.045 6.337 10.173.725 4.191-.221 8.406-2.663 11.869l-7.642 10.838c-2.442 3.463-6.094 5.769-10.285 6.494-.918.161-1.839.239-2.753.239zm-28.808-53.319c-.273 0-.547.124-.709.354l-7.642 10.838c-.162.23-.162.473-.134.636.028.164.11.392.339.553h.001l36.508 25.742c.23.162.472.161.636.134.164-.028.393-.11.554-.339l7.642-10.838c.162-.23.162-.473.134-.636-.028-.164-.11-.392-.339-.553l-5.99-4.224c-1.631-1.149-2.737-2.9-3.077-4.865-.34-1.966.115-3.986 1.264-5.616l8.043-11.407c.04-.057.019-.181-.039-.221l-11.974-8.444c-.061-.043-.178-.023-.221.038l-8.043 11.406c-1.149 1.631-2.9 2.737-4.865 3.077-1.967.34-3.987-.115-5.616-1.264l-5.99-4.223c-.144-.1-.313-.148-.482-.148z"/><path d="m284.88 93.441-14.69 3.079-14.34 3.005-14.69 3.079c-4.509.945-7.425 5.407-6.48 9.916l2.72 12.98c.945 4.509 5.407 7.425 9.916 6.48l7.173-1.503 2.863 13.66c.866 4.135 4.958 6.808 9.093 5.942l14.34-3.005c4.135-.866 6.808-4.958 5.942-9.093l-2.863-13.66 7.173-1.503c4.509-.945 7.425-5.407 6.48-9.916l-2.72-12.98c-.946-4.51-5.408-7.426-9.917-6.481z" fill="#b7623f"/><path d="m264.851 157.766c-2.921 0-5.785-.848-8.294-2.488-3.404-2.225-5.736-5.634-6.568-9.6l-1.32-6.3c-4.085.805-8.257-.007-11.762-2.299-3.56-2.327-5.999-5.892-6.869-10.039l-2.72-12.979c-1.798-8.58 3.719-17.022 12.299-18.821l43.721-9.162c8.585-1.795 17.022 3.72 18.821 12.299l2.721 12.98c1.784 8.517-3.641 16.898-12.111 18.78l1.32 6.299c1.718 8.206-3.558 16.278-11.762 17.997l-14.341 3.005c-1.043.22-2.093.328-3.135.328zm-10.363-34.813c1.451 0 2.882.42 4.115 1.225 1.67 1.092 2.837 2.802 3.247 4.754l2.863 13.66c.016.073.12.138.187.123l14.342-3.005c.069-.015.137-.12.122-.189l-2.863-13.659c-.852-4.066 1.753-8.053 5.82-8.905l7.173-1.503c.445-.094.753-.567.66-1.012l-2.721-12.978c-.093-.445-.566-.753-1.011-.661l-43.721 9.162c-.445.094-.754.566-.66 1.011l2.72 12.979c.058.275.236.441.374.532.139.091.361.184.637.129l7.173-1.503c.511-.107 1.028-.16 1.543-.16z"/><path d="m229.417 400.422-10.619-10.607-10.366-10.355-10.619-10.607c-3.259-3.256-8.59-3.253-11.845.007l-9.372 9.383c-3.256 3.259-3.253 8.59.007 11.845l5.185 5.179-9.863 9.875c-2.985 2.989-2.983 7.877.006 10.862l10.366 10.355c2.989 2.985 7.877 2.983 10.862-.006l9.863-9.875 5.185 5.179c3.259 3.256 8.59 3.253 11.845-.007l9.372-9.383c3.256-3.259 3.253-8.589-.007-11.845z" fill="#b7623f"/><path d="m187.724 436.118c-4.064 0-7.878-1.575-10.744-4.438l-10.366-10.354c-2.867-2.863-4.447-6.681-4.45-10.747-.002-4.067 1.573-7.885 4.438-10.753l4.548-4.553c-6.065-6.206-6.026-16.189.123-22.345l9.373-9.383c6.194-6.201 16.279-6.207 22.482-.014l31.605 31.57c2.998 2.995 4.65 6.986 4.653 11.239.002 4.253-1.645 8.246-4.64 11.244l-9.372 9.383c-2.994 2.998-6.986 4.65-11.239 4.653-.003 0-.006 0-.009 0-4.185 0-8.117-1.598-11.097-4.504l-4.548 4.554c-2.863 2.867-6.681 4.447-10.747 4.449-.004-.001-.007-.001-.01-.001zm4.169-62.184c-.222 0-.443.08-.604.241l-9.372 9.383c-.321.322-.321.886 0 1.208l5.185 5.179c1.412 1.41 2.206 3.323 2.207 5.318s-.79 3.909-2.2 5.32l-9.863 9.875c-.053.053-.053.172 0 .225l10.366 10.354c.052.052.171.053.225 0l9.863-9.875c2.935-2.939 7.698-2.942 10.638-.006l5.185 5.179c.199.198.438.24.604.24.166 0 .405-.042.603-.24l9.373-9.383c.198-.198.239-.438.239-.604s-.042-.405-.24-.603l-31.605-31.569c-.161-.162-.382-.242-.604-.242z"/><path d="m476.755 126.294c-22.379-38.008-54.374-69.791-92.527-91.912-3.594-2.083-8.197-.86-10.28 2.735-2.084 3.593-.86 8.196 2.735 10.28 15.935 9.239 30.722 20.277 44.091 32.815l-10.731 10.988c-40.102-37.546-91.612-58.871-146.52-60.658v-15.37c24.599.753 48.722 5.187 71.811 13.235 3.927 1.368 8.212-.705 9.579-4.627 1.367-3.923-.704-8.211-4.627-9.579-27.035-9.423-55.393-14.201-84.286-14.201-68.38 0-132.667 26.629-181.019 74.981s-74.981 112.639-74.981 181.019 26.629 132.667 74.981 181.019 112.638 74.981 181.019 74.981 132.668-26.629 181.02-74.981 74.98-112.639 74.98-181.019c0-45.693-12.188-90.545-35.245-129.706zm-45.145 294.678-10.867-10.867c37.582-40.111 58.928-91.646 60.716-146.583h15.369c-1.799 59.04-24.742 114.43-65.218 157.45zm-416.438-157.45h15.371c.423 12.827 1.911 25.6 4.471 38.067.836 4.069 4.809 6.693 8.881 5.855 4.069-.835 6.691-4.811 5.855-8.88-2.855-13.909-4.303-28.229-4.303-42.564 0-116.099 94.453-210.553 210.553-210.553 113.581 0 206.428 90.403 210.404 203.031h-79.269c-4.155 0-7.522 3.368-7.522 7.522s3.367 7.522 7.522 7.522h79.269c-3.888 110.13-92.752 198.994-202.882 202.882v-111.02c0-4.154-3.367-7.522-7.522-7.522-4.154 0-7.522 3.368-7.522 7.522v111.033c-51.421-1.832-99.454-22.377-135.948-56.309l80.339-80.339c2.938-2.937 2.938-7.7 0-10.637-2.937-2.937-7.7-2.937-10.637 0l-80.346 80.346c-15.807-16.955-28.962-36.668-38.64-58.619-1.677-3.802-6.116-5.522-9.918-3.848-3.801 1.676-5.524 6.116-3.848 9.918 10.444 23.687 24.665 44.94 41.763 63.193l-10.853 10.85c-40.476-43.02-63.419-98.41-65.218-157.45zm65.218-172.494 10.867 10.867c-37.582 40.11-58.928 91.646-60.717 146.583h-15.368c1.799-59.04 24.742-114.431 65.218-157.45zm21.505.23-10.867-10.868c43.02-40.476 98.41-63.419 157.45-65.218v15.369c-54.937 1.788-106.473 23.135-146.583 60.717zm-.01 329.494c39.276 36.693 91.11 58.869 146.593 60.713v15.362c-59.04-1.799-114.431-24.742-157.45-65.218zm161.637 60.707c54.937-1.788 106.472-23.135 146.583-60.716l10.867 10.867c-43.02 40.475-98.411 63.419-157.451 65.218v-15.369zm233.313-232.981h-15.376c-1.789-54.965-23.156-106.526-60.775-146.646l10.742-11c12.321 13.08 23.201 27.531 32.364 43.095 20.432 34.699 31.789 74.153 33.045 114.551z"/><path d="m214.932 263.522h25.917l-11.666 11.666c-2.938 2.937-2.938 7.7 0 10.638 1.469 1.469 3.394 2.203 5.319 2.203s3.85-.735 5.319-2.203l8.658-8.657v29.612c0 4.154 3.368 7.522 7.522 7.522 4.155 0 7.522-3.368 7.522-7.522v-43.258h33.545c4.155 0 7.522-3.368 7.522-7.522s-3.367-7.522-7.522-7.522h-33.545v-43.259c0-4.154-3.367-7.522-7.522-7.522-4.154 0-7.522 3.368-7.522 7.522v43.258h-33.546c-4.154 0-7.522 3.368-7.522 7.522-.001 4.154 3.367 7.522 7.521 7.522z"/><path d="m338.882 119.794c-2.553 0-5.043-1.301-6.454-3.649l-11.421-19.008c-2.14-3.561-.987-8.182 2.574-10.322 3.559-2.14 8.18-.988 10.321 2.573l11.421 19.008c2.14 3.561.987 8.182-2.574 10.322-1.212.73-2.547 1.076-3.867 1.076z"/><path d="m196.504 108.704c-.965 0-1.946-.187-2.892-.582-3.834-1.599-5.646-6.003-4.047-9.837l8.536-20.466c1.599-3.834 6.005-5.644 9.838-4.047 3.834 1.599 5.646 6.004 4.047 9.838l-8.536 20.466c-1.205 2.887-4.001 4.628-6.946 4.628z"/><path d="m205.148 222.615c-2.692 0-5.296-1.45-6.648-3.993-1.95-3.668-.557-8.223 3.111-10.173l19.581-10.409c3.667-1.95 8.223-.557 10.173 3.111s.557 8.223-3.111 10.173l-19.581 10.409c-1.125.598-2.334.882-3.525.882z"/><path d="m324.968 433.512c-1.125 0-2.267-.253-3.343-.788l-19.856-9.872c-3.72-1.85-5.236-6.364-3.387-10.084s6.366-5.235 10.084-3.387l19.856 9.872c3.72 1.85 5.236 6.364 3.387 10.084-1.314 2.645-3.976 4.175-6.741 4.175z"/><path d="m410.219 304.499c-3.453 0-6.564-2.392-7.339-5.903-.894-4.057 1.669-8.071 5.726-8.966l21.654-4.776c4.062-.894 8.07 1.67 8.966 5.726.894 4.057-1.669 8.071-5.726 8.966l-21.654 4.776c-.546.119-1.092.177-1.627.177z"/><path d="m332.372 275.515c-1.528 0-3.069-.464-4.402-1.428-3.366-2.435-4.121-7.137-1.687-10.503l12.996-17.967c2.436-3.366 7.137-4.12 10.503-1.687 3.366 2.435 4.121 7.137 1.687 10.503l-12.996 17.967c-1.471 2.034-3.77 3.115-6.101 3.115z"/><path d="m89.321 227.323c-1.471 0-2.957-.43-4.261-1.329l-18.26-12.581c-3.421-2.356-4.283-7.041-1.927-10.462 2.357-3.421 7.04-4.283 10.462-1.927l18.26 12.582c3.421 2.356 4.283 7.041 1.927 10.462-1.459 2.118-3.81 3.255-6.201 3.255z"/><path d="m121.07 346.245c-.175 0-.352-.006-.529-.019l-30.33-2.105c-4.144-.287-7.271-3.88-6.983-8.025.287-4.144 3.883-7.266 8.025-6.983l30.33 2.105c4.144.287 7.271 3.88 6.983 8.025-.275 3.968-3.579 7.002-7.496 7.002z"/></svg>