<svg enable-background="new 0 0 511.999 511.999" viewBox="0 0 511.999 511.999" xmlns="http://www.w3.org/2000/svg"><path d="m504.16 278.72c0-14.773-6.491-28.029-16.776-37.074-2.204-1.939-2.384-5.375-.251-7.393 5.694-5.386 9.248-13.01 9.248-21.467 0-16.325-13.234-29.559-29.559-29.559-.08 0-.158.005-.237.006-.993-10.684-5.136-21.141-12.497-29.811-15.516-18.277-40.277-23.552-61.099-15.313-2.158.854-4.63.054-5.916-1.878-2.428-3.648-5.397-7.052-8.937-10.091-16.421-14.098-40.489-15.662-58.623-3.849-4.265 2.778-7.888 6.062-10.912 9.69-1.705 2.046-4.697 2.473-6.833.883-9.014-6.713-20.415-8.908-31.007-6.46-2.171.502-4.436-.513-5.474-2.484-2.788-5.293-6.513-10.234-11.215-14.572-19.633-18.109-50.023-19.013-70.702-2.109-5.499 4.495-9.855 9.815-13.075 15.615-1.335 2.405-4.41 3.267-6.814 1.93-13.84-7.698-31.61-6.082-43.884 5.243-4.111 3.793-7.184 8.289-9.209 13.133-.985 2.355-3.612 3.533-6.059 2.805-16.849-5.02-35.944-.846-49.263 12.862-12.065 12.417-16.238 29.945-12.34 45.894.572 2.341-.647 4.74-2.849 5.721-17.256 7.689-29.289 24.98-29.289 45.091 0 9.542 2.709 18.451 7.399 26.002 1.252 2.015.951 4.644-.781 6.265-6.296 5.893-10.014 14.505-9.269 23.968 1.098 13.945 12.093 25.366 25.99 26.965 2.209.254 4.375.262 6.476.049 2.998-.304 5.633 1.953 5.633 4.967v3.165c0 2.77 2.245 5.015 5.015 5.015h406.027c2.77 0 5.015-2.245 5.015-5.015v-15.23c0-2.314 1.579-4.35 3.834-4.869 21.902-5.047 38.233-24.662 38.233-48.095z" fill="#1bcf92"/><path d="m463.798 205.912c-.08 0-.15.01-.231.01-.983-10.532-5.065-20.834-12.318-29.38-15.297-18.015-39.702-23.221-60.225-15.096-2.127.843-4.564.05-5.828-1.856-2.397-3.591-5.326-6.951-8.807-9.94-16.19-13.893-39.912-15.437-57.787-3.792-4.203 2.738-7.774 5.968-10.753 9.549-1.685 2.016-4.634 2.437-6.741.873-8.877-6.62-20.122-8.787-30.564-6.37-2.137.492-4.363-.512-5.397-2.448-2.738-5.216-6.42-10.091-11.054-14.364-19.349-17.855-49.301-18.737-69.684-2.076-5.417 4.424-9.71 9.67-12.889 15.387-1.314 2.367-4.343 3.22-6.711 1.906-13.642-7.593-31.166-5.998-43.263 5.166-4.052 3.741-7.082 8.165-9.078 12.94-.963 2.327-3.561 3.491-5.968 2.768-16.611-4.945-35.429-.833-48.559 12.679-11.886 12.238-15.999 29.51-12.157 45.229.562 2.307-.642 4.674-2.809 5.647-16.119 7.182-27.615 22.86-28.768 41.357-2.337-5.728-3.621-11.997-3.621-18.567 0-20.112 12.037-37.405 29.29-45.088 2.197-.983 3.421-3.38 2.849-5.728-3.902-15.949.271-33.473 12.338-45.891 13.321-13.712 32.419-17.885 49.261-12.859 2.448.722 5.076-.451 6.059-2.809 2.026-4.845 5.106-9.339 9.208-13.13 12.278-11.325 30.052-12.94 43.885-5.246 2.407 1.334 5.487.471 6.821-1.926 3.22-5.798 7.573-11.124 13.07-15.618 20.683-16.902 51.067-15.999 70.707 2.106 4.694 4.343 8.426 9.278 11.214 14.575 1.033 1.976 3.3 2.989 5.467 2.488 10.592-2.447 21.997-.261 31.015 6.46 2.137 1.585 5.126 1.164 6.831-.883 3.019-3.631 6.65-6.911 10.913-9.69 18.136-11.816 42.199-10.251 58.62 3.842 3.541 3.039 6.51 6.45 8.937 10.091 1.284 1.936 3.762 2.738 5.918 1.886 20.824-8.245 45.58-2.969 61.097 15.307 7.363 8.677 11.505 19.129 12.498 29.811h.231c16.33 0 29.561 13.231 29.561 29.551 0 5.607-1.555 10.843-4.283 15.307-3.117-12.729-14.602-22.178-28.295-22.178z" fill="#11ba7d"/><circle cx="130.751" cy="227.237" fill="#ef2929" r="59.683"/><path d="m160.358 279.057c-.732.411-1.465.813-2.197 1.184 16.531-18.617 20.202-46.422 7.172-69.232-15.929-27.886-50.966-38.047-79.223-23.402 4.193-4.745 9.228-8.877 15.036-12.197 28.628-16.35 65.08-6.4 81.43 22.228 16.35 28.617 6.4 65.078-22.218 81.419z" fill="#d31a1a"/><circle cx="130.751" cy="227.237" fill="#f45c4d" r="22.303"/><circle cx="403.281" cy="249.547" fill="#ef2929" r="59.683"/><path d="m446.877 290.311c-22.519 24.074-60.285 25.338-84.359 2.819-.18-.171-.361-.341-.542-.522 23.121 11.897 52.21 7.603 70.857-12.328 22.339-23.893 21.275-61.268-2.277-83.837 4.805 2.468 9.359 5.637 13.501 9.509 24.075 22.519 25.329 60.285 2.82 84.359z" fill="#d31a1a"/><circle cx="403.281" cy="249.547" fill="#f45c4d" r="22.303"/><g fill="#b7623f"><path d="m255.998 147.845c-20.901 0-37.845 16.944-37.845 37.845s16.944 37.845 37.845 37.845 37.844-16.944 37.844-37.845-16.943-37.845-37.844-37.845zm0 49.751c-6.576 0-11.906-5.331-11.906-11.906 0-6.576 5.331-11.906 11.906-11.906 6.576 0 11.906 5.331 11.906 11.906s-5.33 11.906-11.906 11.906z"/><path d="m162.238 67.424c-20.901 0-37.845 16.944-37.845 37.845s16.944 37.845 37.845 37.845 37.844-16.944 37.844-37.845c0-20.902-16.943-37.845-37.844-37.845zm0 49.75c-6.576 0-11.906-5.331-11.906-11.906 0-6.576 5.331-11.906 11.906-11.906 6.576 0 11.906 5.331 11.906 11.906 0 6.576-5.33 11.906-11.906 11.906z"/><path d="m348.388 101.022c-20.901 0-37.845 16.944-37.845 37.845s16.944 37.845 37.845 37.845 37.844-16.944 37.844-37.845c.001-20.901-16.943-37.845-37.844-37.845zm0 49.751c-6.576 0-11.906-5.331-11.906-11.906 0-6.576 5.331-11.906 11.906-11.906 6.576 0 11.906 5.331 11.906 11.906s-5.33 11.906-11.906 11.906z"/></g><path d="m499.458 444.57h-486.913c-2.82 0-5.077-2.325-5.02-5.144 2.738-134.886 112.934-243.384 248.476-243.384s245.738 108.498 248.476 243.385c.058 2.819-2.2 5.143-5.019 5.143z" fill="#ff9017"/><path d="m504.473 439.428c.06 2.819-2.197 5.146-5.015 5.146h-21.125c-4.032-133.73-113.699-240.909-248.412-240.909-19.51 0-38.498 2.247-56.714 6.5 25.899-9.148 53.765-14.123 82.794-14.123 135.546 0 245.734 108.503 248.472 243.386z" fill="#ef7d0a"/><path d="m162.238 124.698c10.714 0 19.429-8.716 19.429-19.43s-8.716-19.43-19.429-19.43c-10.714 0-19.43 8.716-19.43 19.43s8.716 19.43 19.43 19.43zm0-23.813c2.417 0 4.383 1.966 4.383 4.384s-1.966 4.384-4.383 4.384-4.384-1.966-4.384-4.384 1.967-4.384 4.384-4.384z"/><path d="m348.388 158.296c10.714 0 19.43-8.716 19.43-19.43 0-10.713-8.716-19.429-19.43-19.429-10.713 0-19.43 8.716-19.43 19.429 0 10.714 8.717 19.43 19.43 19.43zm0-23.812c2.418 0 4.384 1.966 4.384 4.383 0 2.418-1.966 4.384-4.384 4.384-2.417 0-4.384-1.966-4.384-4.384 0-2.417 1.966-4.383 4.384-4.383z"/><path d="m483.904 327.633c16.924-9.999 27.779-28.291 27.779-48.913 0-15.489-6.324-30.281-17.438-40.981 6.168-6.791 9.66-15.738 9.66-24.951 0-18.285-13.302-33.521-30.737-36.539-2.014-10.233-6.564-19.708-13.344-27.694-2.688-3.167-7.435-3.556-10.604-.867-3.168 2.689-3.556 7.436-.867 10.604 6.14 7.233 9.854 16.099 10.741 25.639.359 3.868 3.606 6.827 7.491 6.827.107 0 .214-.002.326-.006 12.11.048 21.947 9.915 21.947 22.036 0 6.112-2.449 11.795-6.894 16.001-2.513 2.377-3.919 5.737-3.856 9.218.064 3.552 1.634 6.937 4.308 9.289 9.037 7.948 14.221 19.402 14.221 31.424 0 15.001-7.805 28.327-20.013 35.731-5.447-9.204-11.495-18.088-18.114-26.609 18.707-26.936 15.328-64.328-9.315-87.38-27.065-25.315-69.678-23.891-94.991 3.173-.975 1.042-1.908 2.114-2.805 3.207-16.243-6.516-33.165-11.351-50.546-14.411.332-2.2.513-4.45.513-6.741 0-25.016-20.352-45.368-45.368-45.368s-45.367 20.352-45.367 45.368c0 2.292.175 4.543.507 6.744-6.883 1.212-13.693 2.708-20.418 4.47-.511-1.01-1.044-2.011-1.61-3.001-8.904-15.588-23.345-26.775-40.663-31.501-17.317-4.725-35.44-2.425-51.028 6.479-15.587 8.904-26.775 23.345-31.5 40.663-4.726 17.318-2.425 35.44 6.479 51.028.668 1.17 1.377 2.301 2.105 3.414-19.26 19.349-35.069 41.278-47.096 65.018-6.658-3.38-11.356-10.035-11.969-17.826-.532-6.758 1.987-13.276 6.91-17.885 4.323-4.048 5.177-10.662 2.031-15.726-4.1-6.601-6.267-14.219-6.267-22.032 0-16.496 9.746-31.499 24.827-38.219 5.544-2.469 8.529-8.516 7.096-14.379-3.389-13.866.606-28.758 10.427-38.864 10.841-11.157 26.825-15.332 41.72-10.895 6.169 1.839 12.682-1.219 15.147-7.113 1.674-4.003 4.154-7.539 7.37-10.507.716-.661 1.463-1.271 2.227-1.851 8.323 10.315 21.057 16.93 35.313 16.93 25.016 0 45.367-20.352 45.367-45.368 0-.515-.022-1.025-.039-1.536 14.412-3.119 30.014.64 41.405 11.147 3.938 3.632 7.188 7.854 9.66 12.547 2.626 4.988 8.307 7.585 13.824 6.309 8.674-2.002 17.721-.121 24.819 5.163 1.761 1.312 3.763 2.078 5.808 2.34 1.238 23.918 21.085 42.996 45.305 42.996 22.66 0 41.491-16.698 44.838-38.436.854-.138 1.702-.366 2.53-.693 5.629-2.227 11.57-3.352 17.65-3.25 4.131.022 7.561-3.283 7.609-7.437.047-4.155-3.283-7.561-7.437-7.608-7.082-.088-14.025 1.044-20.674 3.327-4.082-20.852-22.486-36.638-44.516-36.638-19.915 0-36.86 12.903-42.949 30.784-.376.392-.767.77-1.132 1.173-9.782-6.511-21.706-8.944-33.317-6.781-3.138-5.52-7.107-10.51-11.818-14.855-15.022-13.856-35.576-18.855-54.595-14.818-6.554-17.002-23.056-29.101-42.34-29.101-25.016 0-45.368 20.352-45.368 45.368 0 5.341.935 10.466 2.637 15.229-1.743 1.202-3.421 2.533-5.013 4.002-4.252 3.923-7.647 8.516-10.114 13.676-19.675-5.058-40.459.744-54.71 15.411-12.911 13.287-18.453 32.597-14.716 50.854-19.44 9.516-31.889 29.349-31.889 51.093 0 9.95 2.589 19.675 7.506 28.253-7.295 7.634-10.972 17.93-10.134 28.572 1.046 13.279 9.122 24.635 20.55 30.277-13.089 30.165-20.297 62.867-20.983 96.64-.069 3.408 1.205 6.625 3.589 9.057 2.377 2.426 5.556 3.763 8.952 3.763h331.057c4.155 0 7.523-3.368 7.523-7.523s-3.368-7.523-7.523-7.523h-328.49c1.91-62.369 27.462-120.713 72.119-164.525 45.326-44.468 105.263-68.958 168.771-68.958s123.446 24.489 168.772 68.958c44.657 43.812 70.208 102.155 72.119 164.525h-106.479c-4.155 0-7.523 3.368-7.523 7.523s3.368 7.523 7.523 7.523h109.044c3.396 0 6.576-1.336 8.953-3.763 2.383-2.432 3.658-5.649 3.587-9.056-.8-39.46-10.51-77.451-28.093-111.645zm-135.516-219.088c16.719 0 30.322 13.602 30.322 30.321s-13.602 30.322-30.322 30.322-30.321-13.602-30.321-30.322 13.602-30.321 30.321-30.321zm-186.15-33.598c16.719 0 30.321 13.602 30.321 30.322s-13.602 30.321-30.321 30.321-30.322-13.602-30.322-30.321 13.603-30.322 30.322-30.322zm-45.997 155.014c-1.122-6.015 1.576-12.355 7.181-15.557 2.307-1.318 4.822-1.943 7.306-1.943 3.502 0 6.938 1.246 9.635 3.55-8.27 4.192-16.319 8.849-24.122 13.95zm38.369-20.612c-1.791-2.392-3.898-4.445-6.224-6.147l3.029-9.631c1.247-3.963-.956-8.186-4.919-9.433-3.963-1.245-8.187.955-9.434 4.919l-2.701 8.588c-6.161-.761-12.608.383-18.402 3.693s-10.054 8.282-12.529 13.975l-8.77-2.035c-4.048-.941-8.09 1.58-9.029 5.628s1.58 8.089 5.628 9.029l9.831 2.282c.294 2.966 1.031 5.922 2.252 8.766-6.078 4.53-11.991 9.329-17.7 14.427-.059-.102-.123-.198-.182-.301-6.91-12.099-8.696-26.163-5.028-39.604s12.35-24.649 24.449-31.559c7.988-4.564 16.832-6.892 25.789-6.892 4.609 0 9.249.617 13.814 1.863 13.393 3.655 24.566 12.291 31.483 24.321-7.243 2.375-14.363 5.094-21.357 8.111zm104.675-20.791c-1.095-.014-2.188-.04-3.284-.04-1.099 0-2.194.026-3.291.04-.673-.771-1.096-1.767-1.096-2.869 0-2.418 1.966-4.384 4.383-4.384s4.383 1.966 4.383 4.384c.001 1.102-.421 2.098-1.095 2.869zm26.683 1.702c-3.609-.419-7.232-.773-10.873-1.04.213-1.145.331-2.324.331-3.53 0-10.714-8.716-19.43-19.429-19.43-10.714 0-19.429 8.716-19.429 19.43 0 1.208.123 2.385.337 3.53-3.641.267-7.266.621-10.876 1.04-.228-1.491-.353-3.016-.353-4.571 0-16.719 13.602-30.322 30.321-30.322 16.72 0 30.322 13.602 30.322 30.322.001 1.555-.124 3.079-.351 4.571zm116.921 44.53c.134-.004.266-.02.4-.02 3.62 0 7.247 1.318 10.093 3.98 2.154 2.015 3.558 4.53 4.223 7.199-4.789-3.906-9.694-7.632-14.716-11.159zm45.539 40.84c-4.183-4.752-8.556-9.373-13.118-13.849-1.173-1.151-2.359-2.286-3.55-3.412.556-1.802.94-3.645 1.146-5.504l8.984-.645c4.145-.298 7.262-3.898 6.965-8.042-.297-4.145-3.907-7.275-8.042-6.965l-10.059.722c-1.575-3.745-3.94-7.225-7.094-10.175-3.153-2.949-6.784-5.073-10.625-6.396l.05-10.087c.021-4.154-3.331-7.54-7.486-7.56-.013 0-.025 0-.038 0-4.137 0-7.502 3.343-7.522 7.486l-.045 8.998c-3.844.688-7.571 2.135-10.944 4.323-6.883-4.111-13.935-7.898-21.149-11.331 10.183-10.478 23.77-15.787 37.401-15.787 12.772 0 25.574 4.651 35.615 14.043 18.042 16.878 21.378 43.651 9.511 64.181z"/><circle cx="394.761" cy="373.587" r="8.526"/><circle cx="181.921" cy="263.157" r="8.526"/><circle cx="117.271" cy="295.847" r="8.526"/><circle cx="153.061" cy="337.477" r="8.526"/></svg>