<svg height="220" width="700" xmlns="http://www.w3.org/2000/svg"><g fill="rgba(255,255,255,0.3)" fill-opacity="1" stroke="0" stroke-miterlimit="20" stroke-width=".2"><circle cx="1" cy="1" r="1"/><circle cx="15" cy="1" r="1"/><circle cx="28" cy="1" r="1"/><circle cx="42" cy="1" r="1"/><circle cx="56" cy="1" r="1"/><circle cx="69" cy="1" r="1"/><circle cx="83" cy="1" r="1"/><circle cx="97" cy="1" r="1"/><circle cx="111" cy="1" r="1"/><circle cx="124" cy="1" r="1"/><circle cx="138" cy="1" r="1"/><circle cx="152" cy="1" r="1"/><circle cx="166" cy="1" r="1"/><circle cx="179" cy="1" r="1"/><circle cx="193" cy="1" r="1"/><circle cx="207" cy="1" r="1"/><circle cx="221" cy="1" r="1"/><circle cx="234" cy="1" r="1"/><circle cx="248" cy="1" r="1"/><circle cx="262" cy="1" r="1"/><circle cx="275" cy="1" r="1"/><circle cx="289" cy="1" r="1"/><circle cx="303" cy="1" r="1"/><circle cx="317" cy="1" r="1"/><circle cx="1" cy="15" r="1"/><circle cx="15" cy="15" r="1"/><circle cx="28" cy="15" r="1"/><circle cx="42" cy="15" r="1"/><circle cx="56" cy="15" r="1"/><circle cx="69" cy="15" r="1"/><circle cx="83" cy="15" r="1"/><circle cx="97" cy="15" r="1"/><circle cx="111" cy="15" r="1"/><circle cx="124" cy="15" r="1"/><circle cx="138" cy="15" r="1"/><circle cx="152" cy="15" r="1"/><circle cx="166" cy="15" r="1"/><circle cx="179" cy="15" r="1"/><circle cx="193" cy="15" r="1"/><circle cx="207" cy="15" r="1"/><circle cx="221" cy="15" r="1"/><circle cx="234" cy="15" r="1"/><circle cx="248" cy="15" r="1"/><circle cx="262" cy="15" r="1"/><circle cx="275" cy="15" r="1"/><circle cx="289" cy="15" r="1"/><circle cx="303" cy="15" r="1"/><circle cx="317" cy="15" r="1"/><circle cx="1" cy="28" r="1"/><circle cx="15" cy="28" r="1"/><circle cx="28" cy="28" r="1"/><circle cx="42" cy="28" r="1"/><circle cx="56" cy="28" r="1"/><circle cx="69" cy="28" r="1"/><circle cx="83" cy="28" r="1"/><circle cx="97" cy="28" r="1"/><circle cx="111" cy="28" r="1"/><circle cx="124" cy="28" r="1"/><circle cx="138" cy="28" r="1"/><circle cx="152" cy="28" r="1"/><circle cx="166" cy="28" r="1"/><circle cx="179" cy="28" r="1"/><circle cx="193" cy="28" r="1"/><circle cx="207" cy="28" r="1"/><circle cx="221" cy="28" r="1"/><circle cx="234" cy="28" r="1"/><circle cx="248" cy="28" r="1"/><circle cx="262" cy="28" r="1"/><circle cx="275" cy="28" r="1"/><circle cx="289" cy="28" r="1"/><circle cx="303" cy="28" r="1"/><circle cx="317" cy="28" r="1"/><circle cx="1" cy="42" r="1"/><circle cx="15" cy="42" r="1"/><circle cx="28" cy="42" r="1"/><circle cx="42" cy="42" r="1"/><circle cx="56" cy="42" r="1"/><circle cx="69" cy="42" r="1"/><circle cx="83" cy="42" r="1"/><circle cx="97" cy="42" r="1"/><circle cx="111" cy="42" r="1"/><circle cx="124" cy="42" r="1"/><circle cx="138" cy="42" r="1"/><circle cx="152" cy="42" r="1"/><circle cx="166" cy="42" r="1"/><circle cx="179" cy="42" r="1"/><circle cx="193" cy="42" r="1"/><circle cx="207" cy="42" r="1"/><circle cx="221" cy="42" r="1"/><circle cx="234" cy="42" r="1"/><circle cx="248" cy="42" r="1"/><circle cx="262" cy="42" r="1"/><circle cx="275" cy="42" r="1"/><circle cx="289" cy="42" r="1"/><circle cx="303" cy="42" r="1"/><circle cx="317" cy="42" r="1"/><circle cx="1" cy="56" r="1"/><circle cx="15" cy="56" r="1"/><circle cx="28" cy="56" r="1"/><circle cx="42" cy="56" r="1"/><circle cx="56" cy="56" r="1"/><circle cx="69" cy="56" r="1"/><circle cx="83" cy="56" r="1"/><circle cx="97" cy="56" r="1"/><circle cx="111" cy="56" r="1"/><circle cx="124" cy="56" r="1"/><circle cx="138" cy="56" r="1"/><circle cx="152" cy="56" r="1"/><circle cx="166" cy="56" r="1"/><circle cx="179" cy="56" r="1"/><circle cx="193" cy="56" r="1"/><circle cx="207" cy="56" r="1"/><circle cx="221" cy="56" r="1"/><circle cx="234" cy="56" r="1"/><circle cx="248" cy="56" r="1"/><circle cx="262" cy="56" r="1"/><circle cx="275" cy="56" r="1"/><circle cx="289" cy="56" r="1"/><circle cx="303" cy="56" r="1"/><circle cx="317" cy="56" r="1"/><circle cx="1" cy="70" r="1"/><circle cx="15" cy="70" r="1"/><circle cx="28" cy="70" r="1"/><circle cx="42" cy="70" r="1"/><circle cx="56" cy="70" r="1"/><circle cx="69" cy="70" r="1"/><circle cx="83" cy="70" r="1"/><circle cx="97" cy="70" r="1"/><circle cx="111" cy="70" r="1"/><circle cx="124" cy="70" r="1"/><circle cx="138" cy="70" r="1"/><circle cx="152" cy="70" r="1"/><circle cx="166" cy="70" r="1"/><circle cx="179" cy="70" r="1"/><circle cx="193" cy="70" r="1"/><circle cx="207" cy="70" r="1"/><circle cx="221" cy="70" r="1"/><circle cx="234" cy="70" r="1"/><circle cx="248" cy="70" r="1"/><circle cx="262" cy="70" r="1"/><circle cx="275" cy="70" r="1"/><circle cx="289" cy="70" r="1"/><circle cx="303" cy="70" r="1"/><circle cx="317" cy="70" r="1"/><circle cx="1" cy="83" r="1"/><circle cx="15" cy="83" r="1"/><circle cx="28" cy="83" r="1"/><circle cx="42" cy="83" r="1"/><circle cx="56" cy="83" r="1"/><circle cx="69" cy="83" r="1"/><circle cx="83" cy="83" r="1"/><circle cx="97" cy="83" r="1"/><circle cx="111" cy="83" r="1"/><circle cx="124" cy="83" r="1"/><circle cx="138" cy="83" r="1"/><circle cx="152" cy="83" r="1"/><circle cx="166" cy="83" r="1"/><circle cx="179" cy="83" r="1"/><circle cx="193" cy="83" r="1"/><circle cx="207" cy="83" r="1"/><circle cx="221" cy="83" r="1"/><circle cx="234" cy="83" r="1"/><circle cx="248" cy="83" r="1"/><circle cx="262" cy="83" r="1"/><circle cx="275" cy="83" r="1"/><circle cx="289" cy="83" r="1"/><circle cx="303" cy="83" r="1"/><circle cx="317" cy="83" r="1"/><circle cx="1" cy="97" r="1"/><circle cx="15" cy="97" r="1"/><circle cx="28" cy="97" r="1"/><circle cx="42" cy="97" r="1"/><circle cx="56" cy="97" r="1"/><circle cx="69" cy="97" r="1"/><circle cx="83" cy="97" r="1"/><circle cx="97" cy="97" r="1"/><circle cx="111" cy="97" r="1"/><circle cx="124" cy="97" r="1"/><circle cx="138" cy="97" r="1"/><circle cx="152" cy="97" r="1"/><circle cx="166" cy="97" r="1"/><circle cx="179" cy="97" r="1"/><circle cx="193" cy="97" r="1"/><circle cx="207" cy="97" r="1"/><circle cx="221" cy="97" r="1"/><circle cx="234" cy="97" r="1"/><circle cx="248" cy="97" r="1"/><circle cx="262" cy="97" r="1"/><circle cx="275" cy="97" r="1"/><circle cx="289" cy="97" r="1"/><circle cx="303" cy="97" r="1"/><circle cx="317" cy="97" r="1"/><circle cx="330" cy="1" r="1"/><circle cx="344" cy="1" r="1"/><circle cx="358" cy="1" r="1"/><circle cx="372" cy="1" r="1"/><circle cx="385" cy="1" r="1"/><circle cx="399" cy="1" r="1"/><circle cx="413" cy="1" r="1"/><circle cx="427" cy="1" r="1"/><circle cx="440" cy="1" r="1"/><circle cx="454" cy="1" r="1"/><circle cx="468" cy="1" r="1"/><circle cx="482" cy="1" r="1"/><circle cx="495" cy="1" r="1"/><circle cx="509" cy="1" r="1"/><circle cx="523" cy="1" r="1"/><circle cx="536" cy="1" r="1"/><circle cx="550" cy="1" r="1"/><circle cx="564" cy="1" r="1"/><circle cx="578" cy="1" r="1"/><circle cx="591" cy="1" r="1"/><circle cx="605" cy="1" r="1"/><circle cx="619" cy="1" r="1"/><circle cx="633" cy="1" r="1"/><circle cx="646" cy="1" r="1"/><circle cx="330" cy="15" r="1"/><circle cx="344" cy="15" r="1"/><circle cx="358" cy="15" r="1"/><circle cx="372" cy="15" r="1"/><circle cx="385" cy="15" r="1"/><circle cx="399" cy="15" r="1"/><circle cx="413" cy="15" r="1"/><circle cx="427" cy="15" r="1"/><circle cx="440" cy="15" r="1"/><circle cx="454" cy="15" r="1"/><circle cx="468" cy="15" r="1"/><circle cx="482" cy="15" r="1"/><circle cx="495" cy="15" r="1"/><circle cx="509" cy="15" r="1"/><circle cx="523" cy="15" r="1"/><circle cx="536" cy="15" r="1"/><circle cx="550" cy="15" r="1"/><circle cx="564" cy="15" r="1"/><circle cx="578" cy="15" r="1"/><circle cx="591" cy="15" r="1"/><circle cx="605" cy="15" r="1"/><circle cx="619" cy="15" r="1"/><circle cx="633" cy="15" r="1"/><circle cx="646" cy="15" r="1"/><circle cx="330" cy="28" r="1"/><circle cx="344" cy="28" r="1"/><circle cx="358" cy="28" r="1"/><circle cx="372" cy="28" r="1"/><circle cx="385" cy="28" r="1"/><circle cx="399" cy="28" r="1"/><circle cx="413" cy="28" r="1"/><circle cx="427" cy="28" r="1"/><circle cx="440" cy="28" r="1"/><circle cx="454" cy="28" r="1"/><circle cx="468" cy="28" r="1"/><circle cx="482" cy="28" r="1"/><circle cx="495" cy="28" r="1"/><circle cx="509" cy="28" r="1"/><circle cx="523" cy="28" r="1"/><circle cx="536" cy="28" r="1"/><circle cx="550" cy="28" r="1"/><circle cx="564" cy="28" r="1"/><circle cx="578" cy="28" r="1"/><circle cx="591" cy="28" r="1"/><circle cx="605" cy="28" r="1"/><circle cx="619" cy="28" r="1"/><circle cx="633" cy="28" r="1"/><circle cx="646" cy="28" r="1"/><circle cx="330" cy="42" r="1"/><circle cx="344" cy="42" r="1"/><circle cx="358" cy="42" r="1"/><circle cx="372" cy="42" r="1"/><circle cx="385" cy="42" r="1"/><circle cx="399" cy="42" r="1"/><circle cx="413" cy="42" r="1"/><circle cx="427" cy="42" r="1"/><circle cx="440" cy="42" r="1"/><circle cx="454" cy="42" r="1"/><circle cx="468" cy="42" r="1"/><circle cx="482" cy="42" r="1"/><circle cx="495" cy="42" r="1"/><circle cx="509" cy="42" r="1"/><circle cx="523" cy="42" r="1"/><circle cx="536" cy="42" r="1"/><circle cx="550" cy="42" r="1"/><circle cx="564" cy="42" r="1"/><circle cx="578" cy="42" r="1"/><circle cx="591" cy="42" r="1"/><circle cx="605" cy="42" r="1"/><circle cx="619" cy="42" r="1"/><circle cx="633" cy="42" r="1"/><circle cx="646" cy="42" r="1"/><circle cx="330" cy="56" r="1"/><circle cx="344" cy="56" r="1"/><circle cx="358" cy="56" r="1"/><circle cx="372" cy="56" r="1"/><circle cx="385" cy="56" r="1"/><circle cx="399" cy="56" r="1"/><circle cx="413" cy="56" r="1"/><circle cx="427" cy="56" r="1"/><circle cx="440" cy="56" r="1"/><circle cx="454" cy="56" r="1"/><circle cx="468" cy="56" r="1"/><circle cx="482" cy="56" r="1"/><circle cx="495" cy="56" r="1"/><circle cx="509" cy="56" r="1"/><circle cx="523" cy="56" r="1"/><circle cx="536" cy="56" r="1"/><circle cx="550" cy="56" r="1"/><circle cx="564" cy="56" r="1"/><circle cx="578" cy="56" r="1"/><circle cx="591" cy="56" r="1"/><circle cx="605" cy="56" r="1"/><circle cx="619" cy="56" r="1"/><circle cx="633" cy="56" r="1"/><circle cx="646" cy="56" r="1"/><circle cx="330" cy="70" r="1"/><circle cx="344" cy="70" r="1"/><circle cx="358" cy="70" r="1"/><circle cx="372" cy="70" r="1"/><circle cx="385" cy="70" r="1"/><circle cx="399" cy="70" r="1"/><circle cx="413" cy="70" r="1"/><circle cx="427" cy="70" r="1"/><circle cx="440" cy="70" r="1"/><circle cx="454" cy="70" r="1"/><circle cx="468" cy="70" r="1"/><circle cx="482" cy="70" r="1"/><circle cx="495" cy="70" r="1"/><circle cx="509" cy="70" r="1"/><circle cx="523" cy="70" r="1"/><circle cx="536" cy="70" r="1"/><circle cx="550" cy="70" r="1"/><circle cx="564" cy="70" r="1"/><circle cx="578" cy="70" r="1"/><circle cx="591" cy="70" r="1"/><circle cx="605" cy="70" r="1"/><circle cx="619" cy="70" r="1"/><circle cx="633" cy="70" r="1"/><circle cx="646" cy="70" r="1"/><circle cx="330" cy="83" r="1"/><circle cx="344" cy="83" r="1"/><circle cx="358" cy="83" r="1"/><circle cx="372" cy="83" r="1"/><circle cx="385" cy="83" r="1"/><circle cx="399" cy="83" r="1"/><circle cx="413" cy="83" r="1"/><circle cx="427" cy="83" r="1"/><circle cx="440" cy="83" r="1"/><circle cx="454" cy="83" r="1"/><circle cx="468" cy="83" r="1"/><circle cx="482" cy="83" r="1"/><circle cx="495" cy="83" r="1"/><circle cx="509" cy="83" r="1"/><circle cx="523" cy="83" r="1"/><circle cx="536" cy="83" r="1"/><circle cx="550" cy="83" r="1"/><circle cx="564" cy="83" r="1"/><circle cx="578" cy="83" r="1"/><circle cx="591" cy="83" r="1"/><circle cx="605" cy="83" r="1"/><circle cx="619" cy="83" r="1"/><circle cx="633" cy="83" r="1"/><circle cx="646" cy="83" r="1"/><circle cx="330" cy="97" r="1"/><circle cx="344" cy="97" r="1"/><circle cx="358" cy="97" r="1"/><circle cx="372" cy="97" r="1"/><circle cx="385" cy="97" r="1"/><circle cx="399" cy="97" r="1"/><circle cx="413" cy="97" r="1"/><circle cx="427" cy="97" r="1"/><circle cx="440" cy="97" r="1"/><circle cx="454" cy="97" r="1"/><circle cx="468" cy="97" r="1"/><circle cx="482" cy="97" r="1"/><circle cx="495" cy="97" r="1"/><circle cx="509" cy="97" r="1"/><circle cx="523" cy="97" r="1"/><circle cx="536" cy="97" r="1"/><circle cx="550" cy="97" r="1"/><circle cx="564" cy="97" r="1"/><circle cx="578" cy="97" r="1"/><circle cx="591" cy="97" r="1"/><circle cx="605" cy="97" r="1"/><circle cx="619" cy="97" r="1"/><circle cx="633" cy="97" r="1"/><circle cx="646" cy="97" r="1"/><circle cx="1" cy="111" r="1"/><circle cx="15" cy="111" r="1"/><circle cx="28" cy="111" r="1"/><circle cx="42" cy="111" r="1"/><circle cx="56" cy="111" r="1"/><circle cx="69" cy="111" r="1"/><circle cx="83" cy="111" r="1"/><circle cx="97" cy="111" r="1"/><circle cx="111" cy="111" r="1"/><circle cx="124" cy="111" r="1"/><circle cx="138" cy="111" r="1"/><circle cx="152" cy="111" r="1"/><circle cx="166" cy="111" r="1"/><circle cx="179" cy="111" r="1"/><circle cx="193" cy="111" r="1"/><circle cx="207" cy="111" r="1"/><circle cx="221" cy="111" r="1"/><circle cx="234" cy="111" r="1"/><circle cx="248" cy="111" r="1"/><circle cx="262" cy="111" r="1"/><circle cx="275" cy="111" r="1"/><circle cx="289" cy="111" r="1"/><circle cx="303" cy="111" r="1"/><circle cx="317" cy="111" r="1"/><circle cx="1" cy="125" r="1"/><circle cx="15" cy="125" r="1"/><circle cx="28" cy="125" r="1"/><circle cx="42" cy="125" r="1"/><circle cx="56" cy="125" r="1"/><circle cx="69" cy="125" r="1"/><circle cx="83" cy="125" r="1"/><circle cx="97" cy="125" r="1"/><circle cx="111" cy="125" r="1"/><circle cx="124" cy="125" r="1"/><circle cx="138" cy="125" r="1"/><circle cx="152" cy="125" r="1"/><circle cx="166" cy="125" r="1"/><circle cx="179" cy="125" r="1"/><circle cx="193" cy="125" r="1"/><circle cx="207" cy="125" r="1"/><circle cx="221" cy="125" r="1"/><circle cx="234" cy="125" r="1"/><circle cx="248" cy="125" r="1"/><circle cx="262" cy="125" r="1"/><circle cx="275" cy="125" r="1"/><circle cx="289" cy="125" r="1"/><circle cx="303" cy="125" r="1"/><circle cx="317" cy="125" r="1"/><circle cx="1" cy="138" r="1"/><circle cx="15" cy="138" r="1"/><circle cx="28" cy="138" r="1"/><circle cx="42" cy="138" r="1"/><circle cx="56" cy="138" r="1"/><circle cx="69" cy="138" r="1"/><circle cx="83" cy="138" r="1"/><circle cx="97" cy="138" r="1"/><circle cx="111" cy="138" r="1"/><circle cx="124" cy="138" r="1"/><circle cx="138" cy="138" r="1"/><circle cx="152" cy="138" r="1"/><circle cx="166" cy="138" r="1"/><circle cx="179" cy="138" r="1"/><circle cx="193" cy="138" r="1"/><circle cx="207" cy="138" r="1"/><circle cx="221" cy="138" r="1"/><circle cx="234" cy="138" r="1"/><circle cx="248" cy="138" r="1"/><circle cx="262" cy="138" r="1"/><circle cx="275" cy="138" r="1"/><circle cx="289" cy="138" r="1"/><circle cx="303" cy="138" r="1"/><circle cx="317" cy="138" r="1"/><circle cx="1" cy="152" r="1"/><circle cx="15" cy="152" r="1"/><circle cx="28" cy="152" r="1"/><circle cx="42" cy="152" r="1"/><circle cx="56" cy="152" r="1"/><circle cx="69" cy="152" r="1"/><circle cx="83" cy="152" r="1"/><circle cx="97" cy="152" r="1"/><circle cx="111" cy="152" r="1"/><circle cx="124" cy="152" r="1"/><circle cx="138" cy="152" r="1"/><circle cx="152" cy="152" r="1"/><circle cx="166" cy="152" r="1"/><circle cx="179" cy="152" r="1"/><circle cx="193" cy="152" r="1"/><circle cx="207" cy="152" r="1"/><circle cx="221" cy="152" r="1"/><circle cx="234" cy="152" r="1"/><circle cx="248" cy="152" r="1"/><circle cx="262" cy="152" r="1"/><circle cx="275" cy="152" r="1"/><circle cx="289" cy="152" r="1"/><circle cx="303" cy="152" r="1"/><circle cx="317" cy="152" r="1"/><circle cx="1" cy="166" r="1"/><circle cx="15" cy="166" r="1"/><circle cx="28" cy="166" r="1"/><circle cx="42" cy="166" r="1"/><circle cx="56" cy="166" r="1"/><circle cx="69" cy="166" r="1"/><circle cx="83" cy="166" r="1"/><circle cx="97" cy="166" r="1"/><circle cx="111" cy="166" r="1"/><circle cx="124" cy="166" r="1"/><circle cx="138" cy="166" r="1"/><circle cx="152" cy="166" r="1"/><circle cx="166" cy="166" r="1"/><circle cx="179" cy="166" r="1"/><circle cx="193" cy="166" r="1"/><circle cx="207" cy="166" r="1"/><circle cx="221" cy="166" r="1"/><circle cx="234" cy="166" r="1"/><circle cx="248" cy="166" r="1"/><circle cx="262" cy="166" r="1"/><circle cx="275" cy="166" r="1"/><circle cx="289" cy="166" r="1"/><circle cx="303" cy="166" r="1"/><circle cx="317" cy="166" r="1"/><circle cx="1" cy="180" r="1"/><circle cx="15" cy="180" r="1"/><circle cx="28" cy="180" r="1"/><circle cx="42" cy="180" r="1"/><circle cx="56" cy="180" r="1"/><circle cx="69" cy="180" r="1"/><circle cx="83" cy="180" r="1"/><circle cx="97" cy="180" r="1"/><circle cx="111" cy="180" r="1"/><circle cx="124" cy="180" r="1"/><circle cx="138" cy="180" r="1"/><circle cx="152" cy="180" r="1"/><circle cx="166" cy="180" r="1"/><circle cx="179" cy="180" r="1"/><circle cx="193" cy="180" r="1"/><circle cx="207" cy="180" r="1"/><circle cx="221" cy="180" r="1"/><circle cx="234" cy="180" r="1"/><circle cx="248" cy="180" r="1"/><circle cx="262" cy="180" r="1"/><circle cx="275" cy="180" r="1"/><circle cx="289" cy="180" r="1"/><circle cx="303" cy="180" r="1"/><circle cx="317" cy="180" r="1"/><circle cx="1" cy="194" r="1"/><circle cx="15" cy="194" r="1"/><circle cx="28" cy="194" r="1"/><circle cx="42" cy="194" r="1"/><circle cx="56" cy="194" r="1"/><circle cx="69" cy="194" r="1"/><circle cx="83" cy="194" r="1"/><circle cx="97" cy="194" r="1"/><circle cx="111" cy="194" r="1"/><circle cx="124" cy="194" r="1"/><circle cx="138" cy="194" r="1"/><circle cx="152" cy="194" r="1"/><circle cx="166" cy="194" r="1"/><circle cx="179" cy="194" r="1"/><circle cx="193" cy="194" r="1"/><circle cx="207" cy="194" r="1"/><circle cx="221" cy="194" r="1"/><circle cx="234" cy="194" r="1"/><circle cx="248" cy="194" r="1"/><circle cx="262" cy="194" r="1"/><circle cx="275" cy="194" r="1"/><circle cx="289" cy="194" r="1"/><circle cx="303" cy="194" r="1"/><circle cx="317" cy="194" r="1"/><circle cx="1" cy="207" r="1"/><circle cx="15" cy="207" r="1"/><circle cx="28" cy="207" r="1"/><circle cx="42" cy="207" r="1"/><circle cx="56" cy="207" r="1"/><circle cx="69" cy="207" r="1"/><circle cx="83" cy="207" r="1"/><circle cx="97" cy="207" r="1"/><circle cx="111" cy="207" r="1"/><circle cx="124" cy="207" r="1"/><circle cx="138" cy="207" r="1"/><circle cx="152" cy="207" r="1"/><circle cx="166" cy="207" r="1"/><circle cx="179" cy="207" r="1"/><circle cx="193" cy="207" r="1"/><circle cx="207" cy="207" r="1"/><circle cx="221" cy="207" r="1"/><circle cx="234" cy="207" r="1"/><circle cx="248" cy="207" r="1"/><circle cx="262" cy="207" r="1"/><circle cx="275" cy="207" r="1"/><circle cx="289" cy="207" r="1"/><circle cx="303" cy="207" r="1"/><circle cx="317" cy="207" r="1"/><circle cx="330" cy="111" r="1"/><circle cx="344" cy="111" r="1"/><circle cx="358" cy="111" r="1"/><circle cx="372" cy="111" r="1"/><circle cx="385" cy="111" r="1"/><circle cx="399" cy="111" r="1"/><circle cx="413" cy="111" r="1"/><circle cx="427" cy="111" r="1"/><circle cx="440" cy="111" r="1"/><circle cx="454" cy="111" r="1"/><circle cx="468" cy="111" r="1"/><circle cx="482" cy="111" r="1"/><circle cx="495" cy="111" r="1"/><circle cx="509" cy="111" r="1"/><circle cx="523" cy="111" r="1"/><circle cx="536" cy="111" r="1"/><circle cx="550" cy="111" r="1"/><circle cx="564" cy="111" r="1"/><circle cx="578" cy="111" r="1"/><circle cx="591" cy="111" r="1"/><circle cx="605" cy="111" r="1"/><circle cx="619" cy="111" r="1"/><circle cx="633" cy="111" r="1"/><circle cx="646" cy="111" r="1"/><circle cx="330" cy="125" r="1"/><circle cx="344" cy="125" r="1"/><circle cx="358" cy="125" r="1"/><circle cx="372" cy="125" r="1"/><circle cx="385" cy="125" r="1"/><circle cx="399" cy="125" r="1"/><circle cx="413" cy="125" r="1"/><circle cx="427" cy="125" r="1"/><circle cx="440" cy="125" r="1"/><circle cx="454" cy="125" r="1"/><circle cx="468" cy="125" r="1"/><circle cx="482" cy="125" r="1"/><circle cx="495" cy="125" r="1"/><circle cx="509" cy="125" r="1"/><circle cx="523" cy="125" r="1"/><circle cx="536" cy="125" r="1"/><circle cx="550" cy="125" r="1"/><circle cx="564" cy="125" r="1"/><circle cx="578" cy="125" r="1"/><circle cx="591" cy="125" r="1"/><circle cx="605" cy="125" r="1"/><circle cx="619" cy="125" r="1"/><circle cx="633" cy="125" r="1"/><circle cx="646" cy="125" r="1"/><circle cx="330" cy="138" r="1"/><circle cx="344" cy="138" r="1"/><circle cx="358" cy="138" r="1"/><circle cx="372" cy="138" r="1"/><circle cx="385" cy="138" r="1"/><circle cx="399" cy="138" r="1"/><circle cx="413" cy="138" r="1"/><circle cx="427" cy="138" r="1"/><circle cx="440" cy="138" r="1"/><circle cx="454" cy="138" r="1"/><circle cx="468" cy="138" r="1"/><circle cx="482" cy="138" r="1"/><circle cx="495" cy="138" r="1"/><circle cx="509" cy="138" r="1"/><circle cx="523" cy="138" r="1"/><circle cx="536" cy="138" r="1"/><circle cx="550" cy="138" r="1"/><circle cx="564" cy="138" r="1"/><circle cx="578" cy="138" r="1"/><circle cx="591" cy="138" r="1"/><circle cx="605" cy="138" r="1"/><circle cx="619" cy="138" r="1"/><circle cx="633" cy="138" r="1"/><circle cx="646" cy="138" r="1"/><circle cx="330" cy="152" r="1"/><circle cx="344" cy="152" r="1"/><circle cx="358" cy="152" r="1"/><circle cx="372" cy="152" r="1"/><circle cx="385" cy="152" r="1"/><circle cx="399" cy="152" r="1"/><circle cx="413" cy="152" r="1"/><circle cx="427" cy="152" r="1"/><circle cx="440" cy="152" r="1"/><circle cx="454" cy="152" r="1"/><circle cx="468" cy="152" r="1"/><circle cx="482" cy="152" r="1"/><circle cx="495" cy="152" r="1"/><circle cx="509" cy="152" r="1"/><circle cx="523" cy="152" r="1"/><circle cx="536" cy="152" r="1"/><circle cx="550" cy="152" r="1"/><circle cx="564" cy="152" r="1"/><circle cx="578" cy="152" r="1"/><circle cx="591" cy="152" r="1"/><circle cx="605" cy="152" r="1"/><circle cx="619" cy="152" r="1"/><circle cx="633" cy="152" r="1"/><circle cx="646" cy="152" r="1"/><circle cx="330" cy="166" r="1"/><circle cx="344" cy="166" r="1"/><circle cx="358" cy="166" r="1"/><circle cx="372" cy="166" r="1"/><circle cx="385" cy="166" r="1"/><circle cx="399" cy="166" r="1"/><circle cx="413" cy="166" r="1"/><circle cx="427" cy="166" r="1"/><circle cx="440" cy="166" r="1"/><circle cx="454" cy="166" r="1"/><circle cx="468" cy="166" r="1"/><circle cx="482" cy="166" r="1"/><circle cx="495" cy="166" r="1"/><circle cx="509" cy="166" r="1"/><circle cx="523" cy="166" r="1"/><circle cx="536" cy="166" r="1"/><circle cx="550" cy="166" r="1"/><circle cx="564" cy="166" r="1"/><circle cx="578" cy="166" r="1"/><circle cx="591" cy="166" r="1"/><circle cx="605" cy="166" r="1"/><circle cx="619" cy="166" r="1"/><circle cx="633" cy="166" r="1"/><circle cx="646" cy="166" r="1"/><circle cx="330" cy="180" r="1"/><circle cx="344" cy="180" r="1"/><circle cx="358" cy="180" r="1"/><circle cx="372" cy="180" r="1"/><circle cx="385" cy="180" r="1"/><circle cx="399" cy="180" r="1"/><circle cx="413" cy="180" r="1"/><circle cx="427" cy="180" r="1"/><circle cx="440" cy="180" r="1"/><circle cx="454" cy="180" r="1"/><circle cx="468" cy="180" r="1"/><circle cx="482" cy="180" r="1"/><circle cx="495" cy="180" r="1"/><circle cx="509" cy="180" r="1"/><circle cx="523" cy="180" r="1"/><circle cx="536" cy="180" r="1"/><circle cx="550" cy="180" r="1"/><circle cx="564" cy="180" r="1"/><circle cx="578" cy="180" r="1"/><circle cx="591" cy="180" r="1"/><circle cx="605" cy="180" r="1"/><circle cx="619" cy="180" r="1"/><circle cx="633" cy="180" r="1"/><circle cx="646" cy="180" r="1"/><circle cx="330" cy="194" r="1"/><circle cx="344" cy="194" r="1"/><circle cx="358" cy="194" r="1"/><circle cx="372" cy="194" r="1"/><circle cx="385" cy="194" r="1"/><circle cx="399" cy="194" r="1"/><circle cx="413" cy="194" r="1"/><circle cx="427" cy="194" r="1"/><circle cx="440" cy="194" r="1"/><circle cx="454" cy="194" r="1"/><circle cx="468" cy="194" r="1"/><circle cx="482" cy="194" r="1"/><circle cx="495" cy="194" r="1"/><circle cx="509" cy="194" r="1"/><circle cx="523" cy="194" r="1"/><circle cx="536" cy="194" r="1"/><circle cx="550" cy="194" r="1"/><circle cx="564" cy="194" r="1"/><circle cx="578" cy="194" r="1"/><circle cx="591" cy="194" r="1"/><circle cx="605" cy="194" r="1"/><circle cx="619" cy="194" r="1"/><circle cx="633" cy="194" r="1"/><circle cx="646" cy="194" r="1"/><circle cx="330" cy="207" r="1"/><circle cx="344" cy="207" r="1"/><circle cx="358" cy="207" r="1"/><circle cx="372" cy="207" r="1"/><circle cx="385" cy="207" r="1"/><circle cx="399" cy="207" r="1"/><circle cx="413" cy="207" r="1"/><circle cx="427" cy="207" r="1"/><circle cx="440" cy="207" r="1"/><circle cx="454" cy="207" r="1"/><circle cx="468" cy="207" r="1"/><circle cx="482" cy="207" r="1"/><circle cx="495" cy="207" r="1"/><circle cx="509" cy="207" r="1"/><circle cx="523" cy="207" r="1"/><circle cx="536" cy="207" r="1"/><circle cx="550" cy="207" r="1"/><circle cx="564" cy="207" r="1"/><circle cx="578" cy="207" r="1"/><circle cx="591" cy="207" r="1"/><circle cx="605" cy="207" r="1"/><circle cx="619" cy="207" r="1"/><circle cx="633" cy="207" r="1"/><circle cx="646" cy="207" r="1"/></g></svg>