<svg height="755.228" viewBox="0 0 1076.064 755.228" width="1076.064" xmlns="http://www.w3.org/2000/svg" xmlns:xlink="http://www.w3.org/1999/xlink"><linearGradient id="a" gradientUnits="objectBoundingBox" x1=".198" x2="1.157" y1=".359" y2=".701"><stop offset="0" stop-color="#3b4371"/><stop offset="1" stop-color="#f3904f"/></linearGradient><linearGradient id="b" x1="0" x2=".915" xlink:href="#a" y1=".42" y2=".652"/><linearGradient id="c" x1="0" x2="1" xlink:href="#a" y1=".5" y2=".5"/><linearGradient id="d" x1="-.393" x2="1" xlink:href="#a" y1=".5" y2=".5"/><g transform="translate(-61.968 -72.386)"><path d="m926.114 774.809c-6.984 26.6-31.459 43.22-31.459 43.22s-13.15-26.5-6.166-53.1 31.459-43.22 31.459-43.22 13.152 26.502 6.166 53.1z" fill="url(#a)"/><path d="m915.52 769.183c-19.562 19.327-21.751 48.831-21.751 48.831s29.528-1.831 49.091-21.159 21.751-48.831 21.751-48.831-29.529 1.831-49.091 21.159z" fill="url(#b)"/><path d="m206.7 674.194h36.841l90.788-35.526s64.472-26.315 59.209 23.684-14.473 117.1-14.473 117.1-28.947-13.158-44.736-9.21-5.263-80.262-5.263-80.262-128.943 61.845-140.785 53.95-14.473-63.157-14.473-63.157z" fill="#2f2e41"/><path d="m206.7 674.194h36.841l90.788-35.526s64.472-26.315 59.209 23.684-14.473 117.1-14.473 117.1-28.947-13.158-44.736-9.21-5.263-80.262-5.263-80.262-128.943 61.845-140.785 53.95-14.473-63.157-14.473-63.157z" opacity=".1"/><path d="m264.746 558.82 44.586 64.059 103.945 86.84s96.051 22.368 82.893 38.157-93.419-15.789-93.419-15.789-119.735-86.84-123.682-93.419-47.368-68.42-47.368-68.42z" fill="#d6929b"/><path d="m264.746 558.82s7.453 26.334 44.586 64.059 103.945 86.84 103.945 86.84 96.051 22.368 82.893 38.157-93.419-15.789-93.419-15.789-119.735-86.84-123.682-93.419-47.368-68.42-47.368-68.42z" opacity=".1"/><path d="m238.281 507.092 28.947 56.578s-6.579 27.631-17.1 30.263-55.262-34.21-55.262-34.21z" fill="#d0cde1"/><path d="m238.281 507.092 28.947 56.578s-6.579 27.631-17.1 30.263-55.262-34.21-55.262-34.21z" opacity=".1"/><path d="m591.419 644.9 8.551 35.272a2.2 2.2 0 0 1 -.043 1.19l-38.787 121.212a2.2 2.2 0 0 1 -4.287-.423l-5.366-47.219a2.2 2.2 0 0 1 .094-.931l35.6-109.264a2.2 2.2 0 0 1 4.236.163z" fill="#2f2e41"/></g><path d="m526.306 575.493 7.894 30.263-34.21 110.524-7.89-34.21z" fill="#f2f2f2"/><path d="m415.909 812.35c1.316 3.947 136.84-1.316 138.155-2.632a28.565 28.565 0 0 0 2.895-5.263c1.237-2.632 2.368-5.263 2.368-5.263l-5.263-42.6-134.208-4.763s-3.355 36.1-4.039 52.631c-.171 4.166-.171 7.1.092 7.89z" fill="#2f2e41" transform="translate(-61.968 -72.386)"/><path d="m474.991 689.965 2.631 36.841h-59.209v-36.841z" opacity=".1"/><path d="m398.677 701.806.353-.07-1.669 15.86h-32.894v-15.79z" opacity=".1"/><path d="m415.909 812.35c1.316 3.947 136.84-1.316 138.155-2.632a28.565 28.565 0 0 0 2.895-5.263h-141.142c-.171 4.171-.171 7.105.092 7.895z" opacity=".1" transform="translate(-61.968 -72.386)"/><circle cx="196.048" cy="357.076" fill="#d6929b" r="59.209"/><path d="m254.07 482.093s-19.736 34.21-23.684 52.631-59.209-36.841-59.209-36.841l-7.237-19.083s51.973-24.342 48.025-44.078 42.105 47.371 42.105 47.371z" fill="#d6929b" transform="translate(-61.968 -72.386)"/><path d="m264.6 584.722 53.946 71.051 128.945 96.051s93.419 19.736 72.367 34.21-81.577-13.158-81.577-13.158-130.261-69.735-157.892-98.682-78.946-77.63-78.946-77.63z" fill="#d6929b" transform="translate(-61.968 -72.386)"/><path d="m192.229 695.247 15.789 25 94.231-29.647c20.676-6.5 43.348-4.111 61.687 7.442 16.447 10.362 26.973 26.809 3.289 51.15-47.368 48.683-78.946 22.368-78.946 22.368s-159.207 75-185.523 38.157-27.631-55.262-27.631-55.262 101.315-63.155 117.104-59.208z" fill="#2f2e41" transform="translate(-61.968 -72.386)"/><path d="m389.593 782.087s42.1 27.631-7.895 40.789-86.84-5.263-86.84-5.263-43.42 0-43.42-22.368 14.473-25 14.473-25l44.736 6.579s53.947-14.473 78.946 5.263z" fill="#d0cde1" transform="translate(-61.968 -72.386)"/><path d="m306.589 414.568c4.03 1.8 8.026 3.923 12.408 4.444s9.371-1.008 11.444-4.9c1.12-2.1 1.248-4.578 1.3-6.961.158-7.225-.364-15.036-4.943-20.627-2.914-3.559-7.167-5.8-10.184-9.274-2.161-2.488-3.6-5.5-5.148-8.411-5.866-11.017-14.551-21.606-26.622-24.782-5.04-1.326-10.328-1.262-15.539-1.188l-30.4.429c-4.919.069-9.914.15-14.623 1.574-9.784 2.958-16.908 11.186-23.432 19.054-4.881 5.887-9.775 11.834-13.439 18.547a65.079 65.079 0 0 0 -7.714 31.887 29.834 29.834 0 0 0 1.093 8.437 46.821 46.821 0 0 0 3.316 7.284c5.7 11.2 9.085 25.182 2.665 35.983 11.152-4.555 22.186-10.528 29.542-20.068 3.291-4.267 5.872-9.263 10.258-12.395s11.532-3.4 14.346 1.193a12.857 12.857 0 0 1 1.451 6.022c.205 3.45.2 7.033 1.663 10.164s4.947 5.658 8.273 4.721c5.729-1.614 5.18-10.406 9.592-14.4 3.351-3.033 8.521-2.453 12.826-3.83 5.016-1.6 8.779-5.95 10.924-10.759 1.63-3.656 1.606-13.223 4.691-15.2 3.871-2.49 12.663 1.457 16.252 3.056z" fill="#2f2e41" transform="translate(-61.968 -72.386)"/><path d="m159.24 472.562a15.616 15.616 0 0 1 8.128.021c8.446 2.267 27.38 8.27 31.44 17.4 5.263 11.842 23.684 30.263 23.684 30.263s25 25 19.736 42.1-25 36.841-25 36.841 5.263 81.577-21.052 102.63-36.841 6.579-36.841 26.315-81.577 81.577-97.367 43.42c0 0 7.895-71.051 5.263-96.051-2.593-24.63 1.203-178.356 92.009-202.939z" fill="#d0cde1" transform="translate(-61.968 -72.386)"/><path d="m201.439 505.777s80.262 59.209 65.788 84.209c0 0-48.683 23.684-59.209 22.368s-51.315-47.367-61.841-51.315-15.789-74.999 55.262-55.262z" fill="#d0cde1" transform="translate(-61.968 -72.386)"/><circle cx="498.064" cy="237.458" fill="#f2f2f2" r="65"/><path d="m1096.9 225.427h-364.251v-76.22h364.251zm-362.644-1.6h361.039v-73.01h-361.041z" fill="#3f3d56" transform="translate(-61.968 -72.386)"/><path d="m0 0h362.644v74.615h-362.644z" fill="url(#c)" transform="translate(646 92)"/><circle cx="5.616" cy="5.616" fill="url(#d)" r="5.616" transform="translate(410.949 9.628)"/><circle cx="5.616" cy="5.616" fill="url(#d)" r="5.616" transform="translate(430.204 9.628)"/><circle cx="5.616" cy="5.616" fill="url(#d)" r="5.616" transform="translate(449.46 9.628)"/><path d="m1138.032 512.052h-675.545v-439.666h675.545zm-673.94-1.6h672.336v-436.461h-672.336z" fill="#3f3d56" transform="translate(-61.968 -72.386)"/><path d="m401.321 24.338h673.94v1.605h-673.94z" fill="#3f3d56"/><path d="m480.138 91.641a6.418 6.418 0 1 1 6.418-6.418 6.418 6.418 0 0 1 -6.418 6.418zm0-11.232a4.814 4.814 0 1 0 4.814 4.814 4.814 4.814 0 0 0 -4.814-4.814z" fill="#3f3d56" transform="translate(-61.968 -72.386)"/><path d="m499.393 91.641a6.418 6.418 0 1 1 6.419-6.418 6.418 6.418 0 0 1 -6.419 6.418zm0-11.232a4.814 4.814 0 1 0 4.814 4.814 4.814 4.814 0 0 0 -4.814-4.814z" fill="#3f3d56" transform="translate(-61.968 -72.386)"/><path d="m518.649 91.641a6.418 6.418 0 1 1 6.418-6.418 6.418 6.418 0 0 1 -6.418 6.418zm0-11.232a4.814 4.814 0 1 0 4.814 4.814 4.814 4.814 0 0 0 -4.814-4.814z" fill="#3f3d56" transform="translate(-61.968 -72.386)"/><path d="m612.109 25.14h1.605v414.346h-1.605z" fill="#3f3d56"/><path d="m688.733 228.859h117.94v16.046h-117.94z" fill="#f2f2f2"/><path d="m874.067 228.859h117.94v16.046h-117.94z" fill="#f2f2f2"/><path d="m875.861 310.07h-119.544v-17.65h119.544zm-117.94-1.6h116.336v-14.446h-116.335z" fill="#3f3d56" transform="translate(-61.968 -72.386)"/><path d="m688.733 353.217h117.94v16.046h-117.94z" fill="#f2f2f2"/><path d="m875.861 434.428h-119.544v-17.65h119.544zm-117.94-1.6h116.336v-14.446h-116.335z" fill="#3f3d56" transform="translate(-61.968 -72.386)"/><path d="m689.134 289.433h303.273v16.046h-303.273z" fill="#f2f2f2"/><path d="m1061.6 372.249h-304.882v-17.649h304.882zm-303.273-1.6h301.668v-14.449h-301.672z" fill="#3f3d56" transform="translate(-61.968 -72.386)"/><path d="m1061.195 310.07h-119.544v-17.65h119.544zm-117.94-1.6h116.335v-14.446h-116.335z" fill="#3f3d56" transform="translate(-61.968 -72.386)"/><path d="m571.032 357.844a66 66 0 1 1 66-66 66 66 0 0 1 -66 66zm0-130a64 64 0 1 0 64 64 64 64 0 0 0 -64-64z" fill="#3f3d56" transform="translate(-61.968 -72.386)"/><path d="m748.064 744.458h283v2h-283z" fill="#3f3d56"/><text fill="#fff" font-family="Inter-Bold, Inter" font-size="41" font-weight="700" letter-spacing=".11em" transform="translate(827 144)"><tspan x="-98.851" y="0">CANVAS</tspan></text></svg>