<svg height="1012" viewBox="0 0 1176.252 1012" width="1176.252" xmlns="http://www.w3.org/2000/svg"><g fill="#fff"><path d="m826.289 177.293c106.955 79.991 253.456 103.36 274.127 168.97 21.571 64.712-83.586 169.869-124.93 295.7-41.344 124.93-18.874 271.431-73.7 284.014-55.723 11.683-186.945-108.753-298.394-137.514-110.55-27.862-201.327 35.052-311.876 40.445-110.55 6.291-241.771-46.736-310.079-145.6-67.408-98.866-72.8-244.468-12.583-349.625 59.32-106.058 185.146-171.669 298.395-249.863 112.351-77.295 213.909-167.173 299.293-144.703 84.486 23.368 152.793 158.183 259.747 238.176z" transform="translate(72.952 64.39)"/><path d="m2725.044 645.007s112.439-25.839 157.012-20.4 165.04 77.854 189.351 86.493 122.82 61.12 37.593 58.524-373.826-73.316-395.251-89.515 11.295-35.102 11.295-35.102z" transform="translate(-2237.054 242.283)"/></g></svg>