<svg version="1.1" xmlns="http://www.w3.org/2000/svg" xmlns:xlink="http://www.w3.org/1999/xlink" width="105.83006" height="118.48367" viewBox="0,0,105.83006,118.48367"><g transform="translate(-267.08497,-120.75816)"><g data-paper-data="{&quot;isPaintingLayer&quot;:true}" fill="#00cccc" fill-rule="nonzero" stroke="#ffffff" stroke-width="6" stroke-linecap="butt" stroke-linejoin="miter" stroke-miterlimit="10" stroke-dasharray="" stroke-dashoffset="0" style="mix-blend-mode: normal"><path d="M270.08497,134.02103c0,-3.50653 2.31483,-10.26286 6.21173,-10.26286c18.32233,0 71.61875,0 83.72328,0c4.75892,0 9.45263,5.89083 9.45263,9.18256c0,3.8288 -3.46054,12.42345 -6.75188,12.42345c-10.68089,0 -68.49954,0 -86.96418,0c-3.57228,0 -5.67158,-7.65669 -5.67158,-11.34315z"/><path d="M270.26431,224.89869c0,-3.50653 2.31483,-10.26286 6.21173,-10.26286c18.32233,0 71.61875,0 83.72328,0c4.75892,0 9.45262,5.89082 9.45262,9.18255c0,3.8288 -3.46054,12.42345 -6.75187,12.42345c-10.68089,0 -68.49954,0 -86.96418,0c-3.57228,0 -5.67157,-7.65668 -5.67157,-11.34315z"/><path d="M270.52739,224.72044c0,-3.50653 2.31483,-10.26286 6.21173,-10.26286c18.32233,0 71.61875,0 83.72328,0c4.75892,0 9.45263,5.89083 9.45263,9.18256c0,3.8288 -3.46054,12.42345 -6.75188,12.42345c-10.68089,0 -68.49954,0 -86.96418,0c-3.57228,0 -5.67158,-7.65669 -5.67158,-11.34315z"/></g></g></svg>