<svg version="1.1" xmlns="http://www.w3.org/2000/svg" xmlns:xlink="http://www.w3.org/1999/xlink" width="473.26233" height="421.55364" viewBox="0,0,473.26233,421.55364"><defs><radialGradient cx="308.64146" cy="206.87675" r="178.9701" gradientUnits="userSpaceOnUse" id="color-1"><stop offset="0" stop-color="#ffbfbf"/><stop offset="1" stop-color="#ffbfbf" stop-opacity="0"/></radialGradient><radialGradient cx="250" cy="190" r="63.61995" gradientUnits="userSpaceOnUse" id="color-2"><stop offset="0" stop-color="#ffbfbf"/><stop offset="1" stop-color="#ffbfbf" stop-opacity="0"/></radialGradient><radialGradient cx="193.31933" cy="143.26331" r="178.9701" gradientUnits="userSpaceOnUse" id="color-3"><stop offset="0" stop-color="#ffbfbf"/><stop offset="1" stop-color="#ffbfbf" stop-opacity="0"/></radialGradient></defs><g transform="translate(-14.34923,35.70679)"><g data-paper-data="{&quot;isPaintingLayer&quot;:true}" fill-rule="nonzero" stroke="none" stroke-width="0" stroke-linecap="butt" stroke-linejoin="miter" stroke-miterlimit="10" stroke-dasharray="" stroke-dashoffset="0" style="mix-blend-mode: normal"><path d="M213.90178,179.18919c0,-13.96584 11.32156,-25.28741 25.28741,-25.28741c13.96584,0 25.28741,11.32156 25.28741,25.28741c0,13.96585 -11.32156,25.28741 -25.28741,25.28741c-13.96584,0 -25.28741,-11.32155 -25.28741,-25.28741z" fill="#ffffff"/><path d="M129.67136,206.87675c0,-98.84246 80.12763,-178.9701 178.9701,-178.9701c98.84246,0 178.9701,80.12763 178.9701,178.9701c0,98.84246 -80.12763,178.9701 -178.9701,178.9701c-98.84246,0 -178.9701,-80.12763 -178.9701,-178.9701z" fill="url(#color-1)"/><path d="M250,126.38005c35.13633,0 63.61995,28.48362 63.61995,63.61995c0,35.13633 -28.48362,63.61995 -63.61995,63.61995c-35.13633,0 -63.61995,-28.48362 -63.61995,-63.61995c0,-35.13633 28.48362,-63.61995 63.61995,-63.61995z" fill="url(#color-2)"/><path d="M14.34923,143.26331c0,-98.84246 80.12763,-178.9701 178.9701,-178.9701c98.84246,0 178.9701,80.12763 178.9701,178.9701c0,98.84246 -80.12763,178.9701 -178.9701,178.9701c-98.84246,0 -178.9701,-80.12763 -178.9701,-178.9701z" fill="url(#color-3)"/></g></g></svg>