<svg version="1.1" xmlns="http://www.w3.org/2000/svg" xmlns:xlink="http://www.w3.org/1999/xlink" width="197.35135" height="169.32285" viewBox="0,0,197.35135,169.32285"><defs><radialGradient cx="236.11231" cy="176.71492" r="94.28801" gradientUnits="userSpaceOnUse" id="color-1"><stop offset="0" stop-color="#e6fffa" stop-opacity="0"/><stop offset="1" stop-color="#e6fffa" stop-opacity="0"/></radialGradient><radialGradient cx="236.08955" cy="176.65079" r="87.81376" gradientUnits="userSpaceOnUse" id="color-2"><stop offset="0" stop-color="#ffffff" stop-opacity="0"/><stop offset="1" stop-color="#ffffff" stop-opacity="0"/></radialGradient><radialGradient cx="240.33141" cy="180.93402" r="94.28801" gradientUnits="userSpaceOnUse" id="color-3"><stop offset="0" stop-color="#e6fffa" stop-opacity="0"/><stop offset="1" stop-color="#e6fffa" stop-opacity="0"/></radialGradient><radialGradient cx="240.30865" cy="180.86989" r="87.81376" gradientUnits="userSpaceOnUse" id="color-4"><stop offset="0" stop-color="#ffffff" stop-opacity="0"/><stop offset="1" stop-color="#ffffff" stop-opacity="0"/></radialGradient><radialGradient cx="240.33141" cy="180.93402" r="94.28801" gradientUnits="userSpaceOnUse" id="color-5"><stop offset="0" stop-color="#e6fffa" stop-opacity="0"/><stop offset="1" stop-color="#e6fffa" stop-opacity="0"/></radialGradient><radialGradient cx="240.30865" cy="180.86989" r="87.81376" gradientUnits="userSpaceOnUse" id="color-6"><stop offset="0" stop-color="#ffffff" stop-opacity="0"/><stop offset="1" stop-color="#ffffff" stop-opacity="0"/></radialGradient><radialGradient cx="244.55051" cy="185.15312" r="94.28801" gradientUnits="userSpaceOnUse" id="color-7"><stop offset="0" stop-color="#e6fffa" stop-opacity="0"/><stop offset="1" stop-color="#e6fffa" stop-opacity="0"/></radialGradient><radialGradient cx="244.52775" cy="185.08899" r="87.81376" gradientUnits="userSpaceOnUse" id="color-8"><stop offset="0" stop-color="#ffffff" stop-opacity="0"/><stop offset="1" stop-color="#ffffff" stop-opacity="0"/></radialGradient></defs><g transform="translate(-141.32432,-95.33857)"><g data-paper-data="{&quot;isPaintingLayer&quot;:true}" fill-rule="nonzero" stroke-linecap="butt" stroke-linejoin="miter" stroke-miterlimit="10" stroke-dasharray="" stroke-dashoffset="0" style="mix-blend-mode: normal"><g><path d="M322.81598,177.47337c0,3.31117 7.35236,5.81745 6.90158,9.02437c-0.72559,5.16188 -8.84394,8.65718 -10.64833,13.47252c-1.76075,4.69889 2.81697,10.72722 0.13238,15.00742c-2.46649,3.93249 -12.88568,3.11917 -16.04927,6.62726c-4.00658,4.44288 -0.95613,13.06876 -5.93684,16.70745c-4.53635,3.31405 -13.23552,-0.55997 -18.45241,1.97759c-7.61913,3.70604 -12.10704,13.35426 -20.8587,15.13039c-6.99498,1.41962 -15.80811,-7.68874 -23.30894,-7.68874c-7.18544,0 -12.66627,9.17022 -19.39125,7.86425c-10.54248,-2.04728 -13.5888,-13.19404 -22.46329,-17.99068c-5.1511,-2.78416 -16.79196,1.6002 -21.20672,-1.96067c-4.58254,-3.6962 -2.66644,-13.84872 -6.31499,-18.26117c-4.02224,-4.86438 -13.50086,-4.05919 -16.20498,-9.63707c-2.57359,-5.30865 5.35287,-11.6616 4.14289,-17.47102c-1.14613,-5.50279 -11.3328,-7.93947 -11.3328,-13.56036c0,-9.29945 10.17259,-9.88955 13.54021,-18.2054c4.10724,-10.14219 2.15918,-27.70934 10.31167,-35.56153c4.77083,-4.59509 14.69422,1.89781 20.56281,-1.66639c4.86567,-2.95509 5.52156,-16.14265 11.0084,-18.27462c6.52025,-2.53352 17.98698,6.92732 25.19743,5.71657c5.89449,-0.98978 7.43507,-12.88497 13.66749,-12.88497c7.72,0 12.94801,9.1386 20.12919,10.63984c6.13392,1.28231 14.30812,-5.26351 19.90631,-3.00824c5.88549,2.37101 8.40485,12.83291 13.54926,16.15154c3.8148,2.46092 10.43859,-2.41995 13.77275,0.49935c3.8673,3.3861 5.11505,13.88848 8.24528,17.81366c5.8946,7.39163 12.67149,8.83933 15.45564,17.71667c2.10625,6.7158 -4.35476,14.53557 -4.35476,21.82194z" fill="url(#color-1)" stroke="#ffee27" stroke-width="1"/><path d="M316.83975,177.35714c0,3.08381 6.84751,5.41799 6.42768,8.40472c-0.67577,4.80745 -8.23669,8.06275 -9.91716,12.54744c-1.63984,4.37625 2.62354,9.99063 0.12329,13.97694c-2.29712,3.66246 -12.00088,2.90499 -14.94726,6.1722c-3.73147,4.13781 -0.89048,12.17141 -5.52919,15.56025c-4.22487,3.0865 -12.32672,-0.52152 -17.18538,1.8418c-7.09596,3.45157 -11.27572,12.4373 -19.42644,14.09148c-6.51468,1.32214 -14.72265,-7.16079 -21.70844,-7.16079c-6.69205,0 -11.79655,8.54053 -18.05976,7.32426c-9.81858,-1.9067 -12.65573,-12.28807 -20.92085,-16.75535c-4.7974,-2.59298 -15.63896,1.49032 -19.75057,-1.82604c-4.2679,-3.4424 -2.48335,-12.89781 -5.88137,-17.00728c-3.74606,-4.53037 -12.57383,-3.78048 -15.09227,-8.97535c-2.39688,-4.94413 4.98533,-10.86086 3.85841,-16.27138c-1.06743,-5.12495 -10.55464,-7.39431 -10.55464,-12.62924c0,-8.66091 9.47409,-9.2105 12.61048,-16.95534c3.82521,-9.44578 2.01091,-25.80668 9.60363,-33.11971c4.44323,-4.27956 13.68525,1.76749 19.15087,-1.55197c4.53158,-2.75218 5.14244,-15.03422 10.25252,-17.0198c6.07253,-2.35956 16.75191,6.45165 23.46726,5.32404c5.48974,-0.92182 6.92453,-12.00022 12.72902,-12.00022c7.18992,0 12.05894,8.5111 18.74703,9.90924c5.71273,1.19425 13.32565,-4.90209 18.53944,-2.80167c5.48137,2.20821 7.82776,11.95174 12.61891,15.04251c3.55285,2.29194 9.72183,-2.25379 12.82706,0.46506c3.60175,3.15358 4.76383,12.93482 7.67912,16.5905c5.48985,6.88407 11.80139,8.23239 14.39437,16.50017c1.96161,6.25467 -4.05573,13.53749 -4.05573,20.32355z" fill="url(#color-2)" stroke="#bdbdbd" stroke-width="1"/><path d="M309.53394,176.42607c0,2.81661 6.25417,4.94851 5.8707,7.67643c-0.61721,4.39086 -7.52295,7.36409 -9.05782,11.46017c-1.49775,3.99705 2.3962,9.12494 0.1126,12.76581c-2.09807,3.34511 -10.961,2.65327 -13.65206,5.63738c-3.40814,3.77927 -0.81331,11.11674 -5.05007,14.21193c-3.85877,2.81904 -11.25859,-0.47633 -15.69624,1.68221c-6.48109,3.15249 -10.29865,11.35958 -17.74311,12.87041c-5.95017,1.20757 -13.44691,-6.54029 -19.82736,-6.54029c-6.11218,0 -10.77436,7.80048 -16.49485,6.6896c-8.96778,-1.74149 -11.55909,-11.2233 -19.10802,-15.30348c-4.3817,-2.3683 -14.2838,1.36118 -18.03915,-1.66782c-3.89807,-3.1441 -2.26817,-11.78019 -5.37174,-15.53356c-3.42145,-4.1378 -11.48428,-3.45288 -13.78451,-8.19762c-2.18919,-4.51571 4.55335,-9.91975 3.52408,-14.86143c-0.97493,-4.68086 -9.64007,-6.75359 -9.64007,-11.5349c0,-7.91044 8.65314,-8.4124 11.51776,-15.48613c3.49375,-8.6273 1.83667,-23.57048 8.77146,-30.24982c4.05822,-3.90874 12.49938,1.61433 17.49141,-1.4175c4.13891,-2.5137 4.69683,-13.73148 9.36411,-15.545c5.54635,-2.15511 15.30034,5.8926 21.43379,4.8627c5.01405,-0.84193 6.32451,-10.96038 11.62603,-10.96038c6.56689,0 11.01401,7.77359 17.12256,9.0506c5.21772,1.09076 12.17097,-4.47731 16.93297,-2.55891c5.0064,2.01686 7.14946,10.9161 11.52545,13.73905c3.245,2.09334 8.87942,-2.05848 11.71557,0.42477c3.28966,2.88033 4.35103,11.814 7.0137,15.1529c5.01415,6.28756 10.7788,7.51904 13.14709,15.0704c1.79163,5.7127 -3.7043,12.36445 -3.7043,18.56248z" fill="none" stroke="#bdbdbd" stroke-width="0.5"/><path d="M295.76808,176.94739c0,2.28217 5.06746,4.00956 4.75676,6.21985c-0.50009,3.55773 -6.09551,5.9668 -7.33913,9.28566c-1.21355,3.23861 1.94154,7.39352 0.09124,10.34356c-1.69997,2.71038 -8.88119,2.14982 -11.06164,4.56771c-2.76146,3.06217 -0.659,9.0074 -4.09186,11.51529c-3.12658,2.28414 -9.12232,-0.38595 -12.71794,1.36301c-5.25133,2.55431 -8.34454,9.20416 -14.37645,10.42831c-4.82116,0.97844 -10.89542,-5.29931 -16.0652,-5.29931c-4.95242,0 -8.72998,6.32038 -13.36503,5.42029c-7.26618,-1.41105 -9.36581,-9.09373 -15.48237,-12.39971c-3.55029,-1.91892 -11.57352,1.10289 -14.6163,-1.35137c-3.15842,-2.54753 -1.83779,-9.54494 -4.35247,-12.58614c-2.77226,-3.35267 -9.30519,-2.79771 -11.16896,-6.64216c-1.7738,-3.65887 3.68937,-8.03752 2.8554,-12.04155c-0.78994,-3.79268 -7.8109,-5.47213 -7.8109,-9.3462c0,-6.40947 7.01124,-6.81618 9.33232,-12.54771c2.83084,-6.99031 1.48818,-19.09809 7.10712,-24.51005c3.2882,-3.16707 10.12768,1.30802 14.1725,-1.14853c3.35358,-2.03673 3.80563,-11.12598 7.58732,-12.59541c4.49395,-1.74617 12.39717,4.7745 17.36683,3.94002c4.06265,-0.68219 5.12446,-8.88071 9.42004,-8.88071c5.32086,0 8.92415,6.2986 13.87363,7.33329c4.22768,0.8838 9.86159,-3.62777 13.72002,-2.07337c4.05647,1.63418 5.7929,8.84483 9.33856,11.13213c2.62927,1.69614 7.19458,-1.6679 9.49259,0.34417c2.66546,2.33381 3.52545,9.57235 5.6829,12.2777c4.06274,5.09454 8.73357,6.09234 10.65249,12.21087c1.45168,4.62874 -3.00143,10.01834 -3.00143,15.04034z" fill="none" stroke="#bdbdbd" stroke-width="0.5"/><path d="M284.52986,176.72886c0,1.85462 4.11811,3.2584 3.86561,5.05462c-0.40641,2.89121 -4.95357,4.84895 -5.9642,7.54604c-0.9862,2.63189 1.5778,6.00839 0.07414,8.40577c-1.38149,2.20262 -7.21736,1.74706 -8.98931,3.71198c-2.24412,2.4885 -0.53554,7.31991 -3.32527,9.35796c-2.54084,1.85622 -7.41331,-0.31364 -10.33532,1.10766c-4.26753,2.07578 -6.78124,7.47981 -11.68311,8.47464c-3.91795,0.79513 -8.85423,-4.30651 -13.05549,-4.30651c-4.02462,0 -7.09447,5.13629 -10.86118,4.40483c-5.90491,-1.14669 -7.61118,-7.39008 -12.58184,-10.07671c-2.88517,-1.55943 -9.40529,0.89628 -11.87803,-1.09819c-2.56671,-2.07027 -1.49349,-7.75675 -3.53707,-10.22819c-2.25288,-2.72457 -7.56192,-2.27358 -9.07654,-5.39778c-1.44148,-2.97341 2.9982,-6.53174 2.32046,-9.78564c-0.64195,-3.08214 -6.34758,-4.44696 -6.34758,-7.59524c0,-5.20869 5.69773,-5.53922 7.58397,-10.19697c2.30049,-5.68071 1.20937,-15.52018 5.77565,-19.91825c2.67218,-2.57374 8.23033,1.06297 11.51737,-0.93337c2.7253,-1.65517 3.09267,-9.04161 6.16588,-10.23574c3.65204,-1.41905 10.07464,3.88003 14.11326,3.20189c3.30154,-0.55437 4.16443,-7.21696 7.65526,-7.21696c4.32404,0 7.25226,5.1186 11.2745,5.95945c3.43565,0.71822 8.01406,-2.94813 11.14965,-1.68493c3.29651,1.32802 4.70763,7.1878 7.58904,9.04659c2.13669,1.37838 5.84673,-1.35543 7.71422,0.27969c2.16611,1.89658 2.86497,7.77904 4.61824,9.97756c3.30161,4.1401 7.09738,4.95097 8.65681,9.92324c1.17972,3.76157 -2.43912,8.14147 -2.43912,12.22262z" fill="none" stroke="#bdbdbd" stroke-width="0.5"/><path d="M273.29163,176.51032c0,1.42706 3.16875,2.50723 2.97446,3.88936c-0.31271,2.22469 -3.81159,3.73111 -4.58926,5.80643c-0.75886,2.02516 1.21406,4.62326 0.05705,6.46796c-1.06302,1.69484 -5.55353,1.34432 -6.91698,2.85625c-1.72677,1.91481 -0.41208,5.63242 -2.55868,7.20064c-1.9551,1.4283 -5.7043,-0.24133 -7.95268,0.85232c-3.28372,1.59725 -5.21795,5.75548 -8.98977,6.52096c-3.01473,0.61183 -6.81304,-3.31372 -10.04577,-3.31372c-3.09681,0 -5.45896,3.9522 -8.35733,3.38937c-4.54364,-0.88234 -5.85655,-5.68642 -9.68131,-7.7537c-2.22004,-1.19993 -7.23708,0.68965 -9.13977,-0.84503c-1.975,-1.593 -1.1492,-5.96857 -2.72165,-7.87026c-1.73352,-2.09647 -5.81867,-1.74946 -6.98409,-4.15343c-1.10918,-2.28794 2.30702,-5.02596 1.78552,-7.52972c-0.49397,-2.37161 -4.88425,-3.4218 -4.88425,-5.8443c0,-4.00791 4.38421,-4.26224 5.83561,-7.84623c1.77015,-4.37112 0.93057,-11.94228 4.44417,-15.32645c2.05615,-1.98041 6.33298,0.81792 8.86225,-0.7182c2.09703,-1.2736 2.3797,-6.95722 4.74444,-7.87607c2.81012,-1.0919 7.75211,2.98555 10.8597,2.46374c2.54043,-0.42658 3.2044,-5.55321 5.89047,-5.55321c3.3272,0 5.58038,3.93859 8.67536,4.5856c2.64362,0.55264 6.16657,-2.26849 8.5793,-1.2965c2.53656,1.02187 3.62236,5.53077 5.83952,6.96105c1.64412,1.06062 4.49886,-1.04296 5.93584,0.21521c1.66675,1.45935 2.2045,5.98571 3.55358,7.6774c2.54048,3.18567 5.46121,3.8096 6.66114,7.63561c0.90775,2.89442 -1.87683,6.2646 -1.87683,9.40491z" fill="none" stroke="#bdbdbd" stroke-width="0.5"/><path d="M327.03509,181.69246c0,3.31117 7.35236,5.81744 6.90158,9.02436c-0.72559,5.16188 -8.84395,8.65718 -10.64833,13.47252c-1.76075,4.69889 2.81697,10.72722 0.13238,15.00743c-2.46649,3.93248 -12.88568,3.11917 -16.04927,6.62726c-4.00658,4.44288 -0.95613,13.06877 -5.93684,16.70746c-4.53635,3.31405 -13.23552,-0.55997 -18.45241,1.97759c-7.61913,3.70605 -12.10704,13.35426 -20.8587,15.1304c-6.99498,1.41962 -15.80811,-7.68874 -23.30894,-7.68874c-7.18544,0 -12.66628,9.17022 -19.39125,7.86426c-10.54248,-2.04728 -13.5888,-13.19404 -22.46329,-17.99068c-5.1511,-2.78416 -16.79196,1.6002 -21.20672,-1.96068c-4.58254,-3.6962 -2.66644,-13.84872 -6.31499,-18.26117c-4.02224,-4.86438 -13.50086,-4.0592 -16.20497,-9.63707c-2.57359,-5.30865 5.35287,-11.6616 4.14289,-17.47102c-1.14613,-5.50279 -11.3328,-7.93947 -11.3328,-13.56035c0,-9.29945 10.17258,-9.88956 13.5402,-18.20541c4.10724,-10.14219 2.15918,-27.70933 10.31167,-35.56152c4.77083,-4.59509 14.69422,1.89781 20.56281,-1.66639c4.86567,-2.95509 5.52156,-16.14265 11.0084,-18.27462c6.52025,-2.53352 17.98698,6.92732 25.19744,5.71657c5.89449,-0.98977 7.43507,-12.88497 13.66749,-12.88497c7.72,0 12.94801,9.13861 20.12919,10.63984c6.13392,1.2823 14.30812,-5.26351 19.90631,-3.00824c5.88549,2.37101 8.40485,12.83291 13.54926,16.15154c3.8148,2.46092 10.43859,-2.41996 13.77275,0.49934c3.8673,3.3861 5.11506,13.88848 8.24528,17.81366c5.8946,7.39163 12.67148,8.83934 15.45563,17.71668c2.10625,6.7158 -4.35476,14.53557 -4.35476,21.82194z" fill="url(#color-3)" stroke="#ffee27" stroke-width="1"/><path d="M321.05885,181.57625c0,3.08381 6.84751,5.418 6.42768,8.40472c-0.67577,4.80745 -8.23668,8.06275 -9.91716,12.54743c-1.63984,4.37625 2.62354,9.99063 0.12329,13.97694c-2.29712,3.66246 -12.00089,2.90499 -14.94726,6.1722c-3.73147,4.13781 -0.89047,12.17141 -5.52918,15.56025c-4.22487,3.0865 -12.32672,-0.52152 -17.18538,1.8418c-7.09596,3.45157 -11.27573,12.4373 -19.42644,14.09148c-6.51468,1.32214 -14.72264,-7.16079 -21.70844,-7.16079c-6.69205,0 -11.79655,8.54053 -18.05976,7.32426c-9.81858,-1.9067 -12.65573,-12.28807 -20.92085,-16.75535c-4.7974,-2.59298 -15.63896,1.49032 -19.75057,-1.82604c-4.2679,-3.4424 -2.48335,-12.89781 -5.88137,-17.00728c-3.74606,-4.53037 -12.57383,-3.78047 -15.09227,-8.97535c-2.39688,-4.94413 4.98534,-10.86086 3.85842,-16.27138c-1.06743,-5.12495 -10.55464,-7.39431 -10.55464,-12.62924c0,-8.66091 9.47408,-9.2105 12.61047,-16.95534c3.82522,-9.44578 2.01092,-25.80668 9.60363,-33.11971c4.44323,-4.27956 13.68524,1.76749 19.15087,-1.55197c4.53158,-2.75218 5.14244,-15.03423 10.25252,-17.0198c6.07253,-2.35956 16.75192,6.45165 23.46727,5.32404c5.48974,-0.92182 6.92453,-12.00022 12.72902,-12.00022c7.18992,0 12.05894,8.51109 18.74703,9.90924c5.71273,1.19425 13.32565,-4.90208 18.53944,-2.80167c5.48137,2.20821 7.82775,11.95174 12.6189,15.04251c3.55285,2.29194 9.72183,-2.25379 12.82706,0.46506c3.60175,3.15358 4.76382,12.93482 7.67911,16.5905c5.48985,6.88407 11.8014,8.23239 14.39438,16.50017c1.96161,6.25467 -4.05573,13.53748 -4.05573,20.32355z" fill="url(#color-4)" stroke="#bdbdbd" stroke-width="1"/><path d="M313.75303,180.64516c0,2.81661 6.25417,4.94851 5.87071,7.67643c-0.61721,4.39086 -7.52296,7.3641 -9.05783,11.46018c-1.49775,3.99704 2.39621,9.12494 0.11261,12.76581c-2.09807,3.34511 -10.961,2.65327 -13.65206,5.63738c-3.40814,3.77927 -0.81331,11.11674 -5.05007,14.21193c-3.85877,2.81904 -11.25859,-0.47633 -15.69624,1.6822c-6.48109,3.15249 -10.29866,11.35958 -17.74311,12.87041c-5.95018,1.20758 -13.44692,-6.5403 -19.82736,-6.5403c-6.11218,0 -10.77435,7.80049 -16.49485,6.68961c-8.96778,-1.74149 -11.55909,-11.2233 -19.10802,-15.30348c-4.3817,-2.3683 -14.2838,1.36118 -18.03915,-1.66782c-3.89807,-3.1441 -2.26817,-11.78019 -5.37174,-15.53356c-3.42145,-4.1378 -11.48428,-3.45289 -13.78451,-8.19762c-2.18919,-4.51571 4.55335,-9.91974 3.52407,-14.86143c-0.97493,-4.68086 -9.64006,-6.75359 -9.64006,-11.5349c0,-7.91044 8.65314,-8.4124 11.51776,-15.48613c3.49375,-8.6273 1.83667,-23.57049 8.77146,-30.24983c4.05822,-3.90874 12.49938,1.61434 17.49141,-1.41749c4.13891,-2.5137 4.69683,-13.73148 9.36411,-15.545c5.54635,-2.15511 15.30034,5.89259 21.43379,4.8627c5.01405,-0.84194 6.32451,-10.96039 11.62602,-10.96039c6.56689,0 11.01402,7.7736 17.12257,9.05061c5.21772,1.09076 12.17096,-4.47732 16.93296,-2.55891c5.0064,2.01686 7.14947,10.9161 11.52545,13.73905c3.245,2.09334 8.87942,-2.05849 11.71557,0.42476c3.28966,2.88034 4.35103,11.814 7.0137,15.1529c5.01415,6.28756 10.7788,7.51904 13.14709,15.0704c1.79163,5.7127 -3.70431,12.36445 -3.70431,18.56248z" fill="none" stroke="#bdbdbd" stroke-width="0.5"/><path d="M299.98718,181.16649c0,2.28217 5.06747,4.00957 4.75676,6.21986c-0.50009,3.55773 -6.09551,5.9668 -7.33913,9.28566c-1.21355,3.23861 1.94154,7.39352 0.09124,10.34356c-1.69997,2.71038 -8.88119,2.14982 -11.06164,4.56771c-2.76146,3.06217 -0.659,9.0074 -4.09186,11.51529c-3.12658,2.28414 -9.12232,-0.38595 -12.71794,1.36301c-5.25133,2.55431 -8.34454,9.20416 -14.37645,10.42831c-4.82115,0.97844 -10.89542,-5.29931 -16.0652,-5.29931c-4.95242,0 -8.72997,6.32038 -13.36503,5.42029c-7.26618,-1.41105 -9.36581,-9.09373 -15.48237,-12.39972c-3.55029,-1.91892 -11.57352,1.10289 -14.61631,-1.35136c-3.15842,-2.54753 -1.83779,-9.54495 -4.35247,-12.58614c-2.77226,-3.35267 -9.30519,-2.79771 -11.16895,-6.64216c-1.7738,-3.65887 3.68937,-8.03752 2.8554,-12.04155c-0.78994,-3.79268 -7.81091,-5.47213 -7.81091,-9.34619c0,-6.40947 7.01124,-6.81618 9.33232,-12.54772c2.83084,-6.99031 1.48818,-19.09809 7.10712,-24.51005c3.2882,-3.16707 10.12769,1.30802 14.1725,-1.14853c3.35358,-2.03673 3.80563,-11.12599 7.58732,-12.59541c4.49395,-1.74617 12.39717,4.77449 17.36683,3.94002c4.06265,-0.68219 5.12446,-8.88071 9.42004,-8.88071c5.32086,0 8.92415,6.2986 13.87363,7.33329c4.22768,0.8838 9.86159,-3.62777 13.72002,-2.07337c4.05647,1.63418 5.79289,8.84483 9.33856,11.13213c2.62927,1.69614 7.19458,-1.6679 9.49259,0.34417c2.66546,2.33381 3.52545,9.57235 5.6829,12.2777c4.06274,5.09454 8.73357,6.09234 10.65249,12.21087c1.45168,4.62874 -3.00143,10.01834 -3.00143,15.04034z" fill="none" stroke="#bdbdbd" stroke-width="0.5"/><path d="M288.74896,180.94795c0,1.85462 4.11811,3.2584 3.86561,5.05462c-0.40641,2.89121 -4.95356,4.84895 -5.9642,7.54604c-0.9862,2.63189 1.5778,6.00839 0.07414,8.40577c-1.38149,2.20262 -7.21736,1.74706 -8.98932,3.71198c-2.24412,2.4885 -0.53554,7.31991 -3.32527,9.35796c-2.54084,1.85622 -7.4133,-0.31364 -10.33532,1.10766c-4.26752,2.07578 -6.78123,7.47981 -11.68311,8.47464c-3.91795,0.79513 -8.85423,-4.30651 -13.0555,-4.30651c-4.02462,0 -7.09447,5.1363 -10.86118,4.40483c-5.90491,-1.14669 -7.61119,-7.39009 -12.58185,-10.07671c-2.88517,-1.55943 -9.40529,0.89628 -11.87802,-1.09819c-2.56671,-2.07027 -1.49349,-7.75675 -3.53707,-10.22819c-2.25288,-2.72457 -7.56193,-2.27359 -9.07654,-5.39779c-1.44148,-2.97341 2.9982,-6.53173 2.32046,-9.78563c-0.64195,-3.08214 -6.34758,-4.44696 -6.34758,-7.59525c0,-5.20869 5.69774,-5.53921 7.58397,-10.19697c2.30049,-5.68071 1.20938,-15.52019 5.77565,-19.91826c2.67218,-2.57374 8.23033,1.06297 11.51737,-0.93337c2.7253,-1.65517 3.09267,-9.04161 6.16588,-10.23573c3.65204,-1.41905 10.07463,3.88002 14.11325,3.20188c3.30154,-0.55437 4.16444,-7.21695 7.65526,-7.21695c4.32404,0 7.25227,5.11859 11.2745,5.95944c3.43565,0.71822 8.01406,-2.94812 11.14965,-1.68493c3.29651,1.32802 4.70763,7.1878 7.58904,9.04659c2.13669,1.37838 5.84673,-1.35543 7.71422,0.2797c2.16611,1.89658 2.86497,7.77904 4.61823,9.97756c3.30161,4.1401 7.09738,4.95097 8.65681,9.92324c1.17972,3.76157 -2.43912,8.14147 -2.43912,12.22262z" fill="none" stroke="#bdbdbd" stroke-width="0.5"/><path d="M277.51073,180.72942c0,1.42706 3.16875,2.50723 2.97446,3.88936c-0.31271,2.22469 -3.8116,3.7311 -4.58926,5.80643c-0.75886,2.02516 1.21406,4.62327 0.05705,6.46796c-1.06302,1.69484 -5.55353,1.34432 -6.91699,2.85625c-1.72677,1.91481 -0.41207,5.63242 -2.55868,7.20064c-1.9551,1.4283 -5.7043,-0.24133 -7.95268,0.85232c-3.28372,1.59725 -5.21795,5.75548 -8.98977,6.52096c-3.01473,0.61183 -6.81305,-3.31372 -10.04578,-3.31372c-3.09681,0 -5.45896,3.9522 -8.35733,3.38937c-4.54364,-0.88234 -5.85655,-5.68642 -9.68131,-7.7537c-2.22004,-1.19993 -7.23708,0.68965 -9.13976,-0.84503c-1.975,-1.593 -1.1492,-5.96857 -2.72165,-7.87026c-1.73352,-2.09647 -5.81867,-1.74945 -6.9841,-4.15343c-1.10918,-2.28794 2.30702,-5.02596 1.78552,-7.52973c-0.49397,-2.37161 -4.88425,-3.4218 -4.88425,-5.8443c0,-4.00791 4.38421,-4.26224 5.83561,-7.84623c1.77015,-4.37112 0.93057,-11.94228 4.44417,-15.32645c2.05615,-1.98041 6.33298,0.81793 8.86225,-0.71819c2.09703,-1.2736 2.3797,-6.95722 4.74444,-7.87607c2.81012,-1.0919 7.7521,2.98555 10.85969,2.46374c2.54043,-0.42658 3.2044,-5.55321 5.89047,-5.55321c3.3272,0 5.58039,3.9386 8.67536,4.58561c2.64362,0.55264 6.16657,-2.26849 8.5793,-1.2965c2.53655,1.02187 3.62236,5.53077 5.83952,6.96105c1.64412,1.06062 4.49886,-1.04296 5.93584,0.2152c1.66675,1.45935 2.2045,5.98571 3.55358,7.6774c2.54048,3.18567 5.46121,3.80961 6.66114,7.63561c0.90775,2.89442 -1.87683,6.2646 -1.87683,9.40491z" fill="none" stroke="#bdbdbd" stroke-width="0.5"/><path d="M327.03509,181.69246c0,3.31117 7.35236,5.81744 6.90158,9.02436c-0.72559,5.16188 -8.84395,8.65718 -10.64833,13.47252c-1.76075,4.69889 2.81697,10.72722 0.13238,15.00743c-2.46649,3.93248 -12.88568,3.11917 -16.04927,6.62726c-4.00658,4.44288 -0.95613,13.06877 -5.93684,16.70746c-4.53635,3.31405 -13.23552,-0.55997 -18.45241,1.97759c-7.61913,3.70605 -12.10704,13.35426 -20.8587,15.1304c-6.99498,1.41962 -15.80811,-7.68874 -23.30894,-7.68874c-7.18544,0 -12.66628,9.17022 -19.39125,7.86426c-10.54248,-2.04728 -13.5888,-13.19404 -22.46329,-17.99068c-5.1511,-2.78416 -16.79196,1.6002 -21.20672,-1.96068c-4.58254,-3.6962 -2.66644,-13.84872 -6.31499,-18.26117c-4.02224,-4.86438 -13.50086,-4.0592 -16.20497,-9.63707c-2.57359,-5.30865 5.35287,-11.6616 4.14289,-17.47102c-1.14613,-5.50279 -11.3328,-7.93947 -11.3328,-13.56035c0,-9.29945 10.17258,-9.88956 13.5402,-18.20541c4.10724,-10.14219 2.15918,-27.70933 10.31167,-35.56152c4.77083,-4.59509 14.69422,1.89781 20.56281,-1.66639c4.86567,-2.95509 5.52156,-16.14265 11.0084,-18.27462c6.52025,-2.53352 17.98698,6.92732 25.19744,5.71657c5.89449,-0.98977 7.43507,-12.88497 13.66749,-12.88497c7.72,0 12.94801,9.13861 20.12919,10.63984c6.13392,1.2823 14.30812,-5.26351 19.90631,-3.00824c5.88549,2.37101 8.40485,12.83291 13.54926,16.15154c3.8148,2.46092 10.43859,-2.41996 13.77275,0.49934c3.8673,3.3861 5.11506,13.88848 8.24528,17.81366c5.8946,7.39163 12.67148,8.83934 15.45563,17.71668c2.10625,6.7158 -4.35476,14.53557 -4.35476,21.82194z" fill="url(#color-5)" stroke="#ffee27" stroke-width="1"/><path d="M321.05885,181.57625c0,3.08381 6.84751,5.418 6.42768,8.40472c-0.67577,4.80745 -8.23668,8.06275 -9.91716,12.54743c-1.63984,4.37625 2.62354,9.99063 0.12329,13.97694c-2.29712,3.66246 -12.00089,2.90499 -14.94726,6.1722c-3.73147,4.13781 -0.89047,12.17141 -5.52918,15.56025c-4.22487,3.0865 -12.32672,-0.52152 -17.18538,1.8418c-7.09596,3.45157 -11.27573,12.4373 -19.42644,14.09148c-6.51468,1.32214 -14.72264,-7.16079 -21.70844,-7.16079c-6.69205,0 -11.79655,8.54053 -18.05976,7.32426c-9.81858,-1.9067 -12.65573,-12.28807 -20.92085,-16.75535c-4.7974,-2.59298 -15.63896,1.49032 -19.75057,-1.82604c-4.2679,-3.4424 -2.48335,-12.89781 -5.88137,-17.00728c-3.74606,-4.53037 -12.57383,-3.78047 -15.09227,-8.97535c-2.39688,-4.94413 4.98534,-10.86086 3.85842,-16.27138c-1.06743,-5.12495 -10.55464,-7.39431 -10.55464,-12.62924c0,-8.66091 9.47408,-9.2105 12.61047,-16.95534c3.82522,-9.44578 2.01092,-25.80668 9.60363,-33.11971c4.44323,-4.27956 13.68524,1.76749 19.15087,-1.55197c4.53158,-2.75218 5.14244,-15.03423 10.25252,-17.0198c6.07253,-2.35956 16.75192,6.45165 23.46727,5.32404c5.48974,-0.92182 6.92453,-12.00022 12.72902,-12.00022c7.18992,0 12.05894,8.51109 18.74703,9.90924c5.71273,1.19425 13.32565,-4.90208 18.53944,-2.80167c5.48137,2.20821 7.82775,11.95174 12.6189,15.04251c3.55285,2.29194 9.72183,-2.25379 12.82706,0.46506c3.60175,3.15358 4.76382,12.93482 7.67911,16.5905c5.48985,6.88407 11.8014,8.23239 14.39438,16.50017c1.96161,6.25467 -4.05573,13.53748 -4.05573,20.32355z" fill="url(#color-6)" stroke="#bdbdbd" stroke-width="1"/><path d="M313.75303,180.64516c0,2.81661 6.25417,4.94851 5.87071,7.67643c-0.61721,4.39086 -7.52296,7.3641 -9.05783,11.46018c-1.49775,3.99704 2.39621,9.12494 0.11261,12.76581c-2.09807,3.34511 -10.961,2.65327 -13.65206,5.63738c-3.40814,3.77927 -0.81331,11.11674 -5.05007,14.21193c-3.85877,2.81904 -11.25859,-0.47633 -15.69624,1.6822c-6.48109,3.15249 -10.29866,11.35958 -17.74311,12.87041c-5.95018,1.20758 -13.44692,-6.5403 -19.82736,-6.5403c-6.11218,0 -10.77435,7.80049 -16.49485,6.68961c-8.96778,-1.74149 -11.55909,-11.2233 -19.10802,-15.30348c-4.3817,-2.3683 -14.2838,1.36118 -18.03915,-1.66782c-3.89807,-3.1441 -2.26817,-11.78019 -5.37174,-15.53356c-3.42145,-4.1378 -11.48428,-3.45289 -13.78451,-8.19762c-2.18919,-4.51571 4.55335,-9.91974 3.52407,-14.86143c-0.97493,-4.68086 -9.64006,-6.75359 -9.64006,-11.5349c0,-7.91044 8.65314,-8.4124 11.51776,-15.48613c3.49375,-8.6273 1.83667,-23.57049 8.77146,-30.24983c4.05822,-3.90874 12.49938,1.61434 17.49141,-1.41749c4.13891,-2.5137 4.69683,-13.73148 9.36411,-15.545c5.54635,-2.15511 15.30034,5.89259 21.43379,4.8627c5.01405,-0.84194 6.32451,-10.96039 11.62602,-10.96039c6.56689,0 11.01402,7.7736 17.12257,9.05061c5.21772,1.09076 12.17096,-4.47732 16.93296,-2.55891c5.0064,2.01686 7.14947,10.9161 11.52545,13.73905c3.245,2.09334 8.87942,-2.05849 11.71557,0.42476c3.28966,2.88034 4.35103,11.814 7.0137,15.1529c5.01415,6.28756 10.7788,7.51904 13.14709,15.0704c1.79163,5.7127 -3.70431,12.36445 -3.70431,18.56248z" fill="none" stroke="#bdbdbd" stroke-width="0.5"/><path d="M299.98718,181.16649c0,2.28217 5.06747,4.00957 4.75676,6.21986c-0.50009,3.55773 -6.09551,5.9668 -7.33913,9.28566c-1.21355,3.23861 1.94154,7.39352 0.09124,10.34356c-1.69997,2.71038 -8.88119,2.14982 -11.06164,4.56771c-2.76146,3.06217 -0.659,9.0074 -4.09186,11.51529c-3.12658,2.28414 -9.12232,-0.38595 -12.71794,1.36301c-5.25133,2.55431 -8.34454,9.20416 -14.37645,10.42831c-4.82115,0.97844 -10.89542,-5.29931 -16.0652,-5.29931c-4.95242,0 -8.72997,6.32038 -13.36503,5.42029c-7.26618,-1.41105 -9.36581,-9.09373 -15.48237,-12.39972c-3.55029,-1.91892 -11.57352,1.10289 -14.61631,-1.35136c-3.15842,-2.54753 -1.83779,-9.54495 -4.35247,-12.58614c-2.77226,-3.35267 -9.30519,-2.79771 -11.16895,-6.64216c-1.7738,-3.65887 3.68937,-8.03752 2.8554,-12.04155c-0.78994,-3.79268 -7.81091,-5.47213 -7.81091,-9.34619c0,-6.40947 7.01124,-6.81618 9.33232,-12.54772c2.83084,-6.99031 1.48818,-19.09809 7.10712,-24.51005c3.2882,-3.16707 10.12769,1.30802 14.1725,-1.14853c3.35358,-2.03673 3.80563,-11.12599 7.58732,-12.59541c4.49395,-1.74617 12.39717,4.77449 17.36683,3.94002c4.06265,-0.68219 5.12446,-8.88071 9.42004,-8.88071c5.32086,0 8.92415,6.2986 13.87363,7.33329c4.22768,0.8838 9.86159,-3.62777 13.72002,-2.07337c4.05647,1.63418 5.79289,8.84483 9.33856,11.13213c2.62927,1.69614 7.19458,-1.6679 9.49259,0.34417c2.66546,2.33381 3.52545,9.57235 5.6829,12.2777c4.06274,5.09454 8.73357,6.09234 10.65249,12.21087c1.45168,4.62874 -3.00143,10.01834 -3.00143,15.04034z" fill="none" stroke="#bdbdbd" stroke-width="0.5"/><path d="M288.74896,180.94795c0,1.85462 4.11811,3.2584 3.86561,5.05462c-0.40641,2.89121 -4.95356,4.84895 -5.9642,7.54604c-0.9862,2.63189 1.5778,6.00839 0.07414,8.40577c-1.38149,2.20262 -7.21736,1.74706 -8.98932,3.71198c-2.24412,2.4885 -0.53554,7.31991 -3.32527,9.35796c-2.54084,1.85622 -7.4133,-0.31364 -10.33532,1.10766c-4.26752,2.07578 -6.78123,7.47981 -11.68311,8.47464c-3.91795,0.79513 -8.85423,-4.30651 -13.0555,-4.30651c-4.02462,0 -7.09447,5.1363 -10.86118,4.40483c-5.90491,-1.14669 -7.61119,-7.39009 -12.58185,-10.07671c-2.88517,-1.55943 -9.40529,0.89628 -11.87802,-1.09819c-2.56671,-2.07027 -1.49349,-7.75675 -3.53707,-10.22819c-2.25288,-2.72457 -7.56193,-2.27359 -9.07654,-5.39779c-1.44148,-2.97341 2.9982,-6.53173 2.32046,-9.78563c-0.64195,-3.08214 -6.34758,-4.44696 -6.34758,-7.59525c0,-5.20869 5.69774,-5.53921 7.58397,-10.19697c2.30049,-5.68071 1.20938,-15.52019 5.77565,-19.91826c2.67218,-2.57374 8.23033,1.06297 11.51737,-0.93337c2.7253,-1.65517 3.09267,-9.04161 6.16588,-10.23573c3.65204,-1.41905 10.07463,3.88002 14.11325,3.20188c3.30154,-0.55437 4.16444,-7.21695 7.65526,-7.21695c4.32404,0 7.25227,5.11859 11.2745,5.95944c3.43565,0.71822 8.01406,-2.94812 11.14965,-1.68493c3.29651,1.32802 4.70763,7.1878 7.58904,9.04659c2.13669,1.37838 5.84673,-1.35543 7.71422,0.2797c2.16611,1.89658 2.86497,7.77904 4.61823,9.97756c3.30161,4.1401 7.09738,4.95097 8.65681,9.92324c1.17972,3.76157 -2.43912,8.14147 -2.43912,12.22262z" fill="none" stroke="#bdbdbd" stroke-width="0.5"/><path d="M277.51073,180.72942c0,1.42706 3.16875,2.50723 2.97446,3.88936c-0.31271,2.22469 -3.8116,3.7311 -4.58926,5.80643c-0.75886,2.02516 1.21406,4.62327 0.05705,6.46796c-1.06302,1.69484 -5.55353,1.34432 -6.91699,2.85625c-1.72677,1.91481 -0.41207,5.63242 -2.55868,7.20064c-1.9551,1.4283 -5.7043,-0.24133 -7.95268,0.85232c-3.28372,1.59725 -5.21795,5.75548 -8.98977,6.52096c-3.01473,0.61183 -6.81305,-3.31372 -10.04578,-3.31372c-3.09681,0 -5.45896,3.9522 -8.35733,3.38937c-4.54364,-0.88234 -5.85655,-5.68642 -9.68131,-7.7537c-2.22004,-1.19993 -7.23708,0.68965 -9.13976,-0.84503c-1.975,-1.593 -1.1492,-5.96857 -2.72165,-7.87026c-1.73352,-2.09647 -5.81867,-1.74945 -6.9841,-4.15343c-1.10918,-2.28794 2.30702,-5.02596 1.78552,-7.52973c-0.49397,-2.37161 -4.88425,-3.4218 -4.88425,-5.8443c0,-4.00791 4.38421,-4.26224 5.83561,-7.84623c1.77015,-4.37112 0.93057,-11.94228 4.44417,-15.32645c2.05615,-1.98041 6.33298,0.81793 8.86225,-0.71819c2.09703,-1.2736 2.3797,-6.95722 4.74444,-7.87607c2.81012,-1.0919 7.7521,2.98555 10.85969,2.46374c2.54043,-0.42658 3.2044,-5.55321 5.89047,-5.55321c3.3272,0 5.58039,3.9386 8.67536,4.58561c2.64362,0.55264 6.16657,-2.26849 8.5793,-1.2965c2.53655,1.02187 3.62236,5.53077 5.83952,6.96105c1.64412,1.06062 4.49886,-1.04296 5.93584,0.2152c1.66675,1.45935 2.2045,5.98571 3.55358,7.6774c2.54048,3.18567 5.46121,3.80961 6.66114,7.63561c0.90775,2.89442 -1.87683,6.2646 -1.87683,9.40491z" fill="none" stroke="#bdbdbd" stroke-width="0.5"/><path d="M331.25418,185.91157c0,3.31117 7.35236,5.81744 6.90158,9.02436c-0.72559,5.16188 -8.84394,8.65718 -10.64833,13.47252c-1.76075,4.69889 2.81697,10.72722 0.13238,15.00742c-2.46649,3.93249 -12.88568,3.11917 -16.04927,6.62726c-4.00658,4.44288 -0.95613,13.06877 -5.93684,16.70746c-4.53635,3.31405 -13.23552,-0.55997 -18.45241,1.97759c-7.61913,3.70605 -12.10704,13.35426 -20.8587,15.1304c-6.99498,1.41962 -15.80811,-7.68874 -23.30894,-7.68874c-7.18544,0 -12.66628,9.17022 -19.39125,7.86426c-10.54248,-2.04728 -13.5888,-13.19404 -22.46329,-17.99067c-5.1511,-2.78416 -16.79196,1.6002 -21.20672,-1.96068c-4.58254,-3.6962 -2.66644,-13.84872 -6.31499,-18.26117c-4.02224,-4.86438 -13.50086,-4.05919 -16.20497,-9.63707c-2.57359,-5.30865 5.35286,-11.6616 4.14288,-17.47102c-1.14613,-5.50279 -11.33279,-7.93947 -11.33279,-13.56036c0,-9.29945 10.17258,-9.88955 13.5402,-18.2054c4.10724,-10.14219 2.15918,-27.70933 10.31167,-35.56152c4.77083,-4.59509 14.69422,1.89781 20.56281,-1.66639c4.86567,-2.95509 5.52156,-16.14265 11.0084,-18.27462c6.52025,-2.53352 17.98698,6.92732 25.19744,5.71657c5.89449,-0.98978 7.43507,-12.88497 13.66749,-12.88497c7.72,0 12.94801,9.13861 20.12919,10.63984c6.13392,1.2823 14.30813,-5.26351 19.90631,-3.00824c5.88549,2.37101 8.40485,12.83291 13.54925,16.15154c3.8148,2.46092 10.43859,-2.41996 13.77275,0.49934c3.8673,3.3861 5.11505,13.88848 8.24528,17.81366c5.8946,7.39163 12.67149,8.83933 15.45564,17.71667c2.10625,6.7158 -4.35476,14.53557 -4.35476,21.82194z" fill="url(#color-7)" stroke="#ffee27" stroke-width="1"/><path d="M325.27795,185.79534c0,3.08381 6.84751,5.41799 6.42768,8.40472c-0.67577,4.80745 -8.23669,8.06275 -9.91716,12.54744c-1.63984,4.37625 2.62354,9.99063 0.12329,13.97694c-2.29712,3.66246 -12.00088,2.90499 -14.94726,6.1722c-3.73147,4.13781 -0.89048,12.17141 -5.52919,15.56025c-4.22487,3.0865 -12.32672,-0.52152 -17.18538,1.8418c-7.09596,3.45157 -11.27573,12.4373 -19.42644,14.09148c-6.51468,1.32214 -14.72264,-7.16079 -21.70844,-7.16079c-6.69205,0 -11.79655,8.54054 -18.05976,7.32427c-9.81858,-1.9067 -12.65573,-12.28808 -20.92086,-16.75535c-4.7974,-2.59298 -15.63895,1.49032 -19.75057,-1.82604c-4.2679,-3.4424 -2.48336,-12.89781 -5.88138,-17.00728c-3.74606,-4.53037 -12.57383,-3.78048 -15.09227,-8.97535c-2.39688,-4.94413 4.98533,-10.86086 3.85841,-16.27137c-1.06743,-5.12495 -10.55464,-7.39431 -10.55464,-12.62924c0,-8.66091 9.47409,-9.2105 12.61048,-16.95534c3.82521,-9.44578 2.01092,-25.80667 9.60363,-33.1197c4.44323,-4.27956 13.68524,1.76749 19.15086,-1.55197c4.53158,-2.75218 5.14245,-15.03422 10.25252,-17.0198c6.07253,-2.35956 16.75191,6.45165 23.46726,5.32404c5.48974,-0.92181 6.92453,-12.00022 12.72902,-12.00022c7.18992,0 12.05894,8.5111 18.74704,9.90924c5.71273,1.19425 13.32565,-4.90208 18.53944,-2.80167c5.48137,2.20821 7.82776,11.95174 12.61891,15.04251c3.55285,2.29194 9.72183,-2.25379 12.82706,0.46506c3.60175,3.15358 4.76383,12.93482 7.67911,16.5905c5.48985,6.88407 11.80139,8.23239 14.39437,16.50017c1.96161,6.25467 -4.05573,13.53749 -4.05573,20.32355z" fill="url(#color-8)" stroke="#bdbdbd" stroke-width="1"/><path d="M317.97214,184.86427c0,2.81661 6.25417,4.94851 5.8707,7.67643c-0.61721,4.39086 -7.52295,7.36409 -9.05782,11.46017c-1.49775,3.99705 2.3962,9.12494 0.1126,12.76581c-2.09807,3.34511 -10.961,2.65326 -13.65206,5.63738c-3.40814,3.77927 -0.81331,11.11674 -5.05007,14.21193c-3.85877,2.81904 -11.25859,-0.47633 -15.69624,1.6822c-6.48109,3.15249 -10.29865,11.35958 -17.74311,12.87041c-5.95018,1.20758 -13.44691,-6.5403 -19.82736,-6.5403c-6.11218,0 -10.77436,7.80049 -16.49485,6.68961c-8.96778,-1.74149 -11.55908,-11.2233 -19.10802,-15.30348c-4.3817,-2.3683 -14.2838,1.36118 -18.03915,-1.66782c-3.89807,-3.1441 -2.26817,-11.78018 -5.37174,-15.53355c-3.42145,-4.1378 -11.48428,-3.45289 -13.78451,-8.19762c-2.18919,-4.51571 4.55335,-9.91975 3.52408,-14.86143c-0.97493,-4.68086 -9.64006,-6.75359 -9.64006,-11.5349c0,-7.91044 8.65314,-8.4124 11.51776,-15.48613c3.49375,-8.6273 1.83666,-23.57048 8.77145,-30.24982c4.05822,-3.90874 12.49939,1.61434 17.49141,-1.41749c4.13891,-2.5137 4.69683,-13.73148 9.36411,-15.545c5.54635,-2.15511 15.30034,5.8926 21.43379,4.8627c5.01405,-0.84193 6.32451,-10.96038 11.62602,-10.96038c6.56689,0 11.01402,7.7736 17.12256,9.0506c5.21772,1.09076 12.17096,-4.47732 16.93296,-2.55891c5.0064,2.01686 7.14947,10.9161 11.52545,13.73905c3.245,2.09334 8.87942,-2.05848 11.71557,0.42477c3.28966,2.88034 4.35103,11.814 7.0137,15.1529c5.01415,6.28756 10.77879,7.51904 13.14708,15.0704c1.79163,5.7127 -3.7043,12.36445 -3.7043,18.56248z" fill="none" stroke="#bdbdbd" stroke-width="0.5"/><path d="M304.20628,185.38559c0,2.28217 5.06746,4.00956 4.75676,6.21986c-0.50009,3.55773 -6.09551,5.9668 -7.33913,9.28567c-1.21355,3.23861 1.94154,7.39352 0.09124,10.34356c-1.69997,2.71038 -8.8812,2.14982 -11.06165,4.56771c-2.76146,3.06217 -0.659,9.0074 -4.09185,11.51529c-3.12658,2.28415 -9.12232,-0.38595 -12.71794,1.36301c-5.25133,2.55431 -8.34454,9.20416 -14.37645,10.42831c-4.82115,0.97844 -10.89542,-5.29931 -16.0652,-5.29931c-4.95242,0 -8.72998,6.32038 -13.36503,5.42029c-7.26618,-1.41105 -9.36581,-9.09374 -15.48237,-12.39972c-3.55029,-1.91892 -11.57352,1.10289 -14.61631,-1.35136c-3.15842,-2.54753 -1.83779,-9.54495 -4.35247,-12.58614c-2.77226,-3.35267 -9.3052,-2.79771 -11.16896,-6.64216c-1.7738,-3.65887 3.68937,-8.03752 2.8554,-12.04155c-0.78994,-3.79268 -7.8109,-5.47213 -7.8109,-9.3462c0,-6.40947 7.01124,-6.81617 9.33232,-12.54771c2.83084,-6.99031 1.48818,-19.09809 7.10712,-24.51005c3.2882,-3.16707 10.12768,1.30802 14.1725,-1.14853c3.35358,-2.03673 3.80563,-11.12599 7.58732,-12.59541c4.49395,-1.74617 12.39717,4.7745 17.36683,3.94002c4.06265,-0.68219 5.12446,-8.88071 9.42004,-8.88071c5.32086,0 8.92415,6.2986 13.87364,7.33329c4.22768,0.8838 9.86158,-3.62777 13.72002,-2.07337c4.05647,1.63418 5.7929,8.84483 9.33856,11.13213c2.62927,1.69614 7.19458,-1.6679 9.49259,0.34417c2.66546,2.33381 3.52545,9.57235 5.68289,12.2777c4.06274,5.09454 8.73357,6.09234 10.65249,12.21087c1.45168,4.62874 -3.00143,10.01834 -3.00143,15.04034z" fill="none" stroke="#bdbdbd" stroke-width="0.5"/><path d="M292.96806,185.16706c0,1.85462 4.11811,3.2584 3.86561,5.05462c-0.40641,2.89121 -4.95357,4.84895 -5.9642,7.54604c-0.9862,2.63189 1.5778,6.00839 0.07414,8.40577c-1.38149,2.20262 -7.21736,1.74706 -8.98931,3.71198c-2.24412,2.4885 -0.53554,7.31991 -3.32527,9.35796c-2.54084,1.85622 -7.41331,-0.31363 -10.33532,1.10767c-4.26752,2.07578 -6.78123,7.47981 -11.6831,8.47463c-3.91795,0.79514 -8.85423,-4.30651 -13.0555,-4.30651c-4.02462,0 -7.09447,5.13629 -10.86118,4.40483c-5.90491,-1.14669 -7.61119,-7.39008 -12.58185,-10.07671c-2.88517,-1.55943 -9.40529,0.89628 -11.87803,-1.09819c-2.56671,-2.07027 -1.49349,-7.75675 -3.53707,-10.22819c-2.25288,-2.72457 -7.56193,-2.27359 -9.07654,-5.39779c-1.44148,-2.97341 2.9982,-6.53173 2.32047,-9.78563c-0.64195,-3.08214 -6.34758,-4.44696 -6.34758,-7.59525c0,-5.20869 5.69774,-5.53922 7.58397,-10.19697c2.30049,-5.68071 1.20937,-15.52018 5.77565,-19.91825c2.67218,-2.57374 8.23033,1.06297 11.51737,-0.93337c2.7253,-1.65517 3.09267,-9.04161 6.16588,-10.23574c3.65204,-1.41905 10.07464,3.88003 14.11326,3.20189c3.30154,-0.55437 4.16444,-7.21696 7.65526,-7.21696c4.32404,0 7.25226,5.1186 11.2745,5.95945c3.43565,0.71822 8.01407,-2.94813 11.14966,-1.68493c3.29651,1.32802 4.70763,7.1878 7.58904,9.04659c2.13669,1.37838 5.84673,-1.35543 7.71421,0.2797c2.16611,1.89658 2.86497,7.77903 4.61824,9.97756c3.30161,4.1401 7.09738,4.95097 8.65681,9.92324c1.17972,3.76157 -2.43913,8.14147 -2.43913,12.22262z" fill="none" stroke="#bdbdbd" stroke-width="0.5"/><path d="M281.72983,184.94852c0,1.42706 3.16875,2.50723 2.97446,3.88936c-0.31271,2.22469 -3.81159,3.73111 -4.58926,5.80643c-0.75886,2.02516 1.21406,4.62327 0.05705,6.46796c-1.06302,1.69484 -5.55353,1.34431 -6.91699,2.85625c-1.72677,1.91481 -0.41208,5.63242 -2.55868,7.20064c-1.9551,1.4283 -5.7043,-0.24133 -7.95268,0.85232c-3.28372,1.59725 -5.21795,5.75548 -8.98977,6.52096c-3.01473,0.61183 -6.81304,-3.31372 -10.04577,-3.31372c-3.09681,0 -5.45896,3.95221 -8.35733,3.38937c-4.54364,-0.88234 -5.85655,-5.68642 -9.68131,-7.7537c-2.22004,-1.19993 -7.23708,0.68965 -9.13977,-0.84503c-1.975,-1.593 -1.1492,-5.96857 -2.72165,-7.87026c-1.73352,-2.09647 -5.81867,-1.74946 -6.98409,-4.15343c-1.10918,-2.28794 2.30702,-5.02596 1.78552,-7.52972c-0.49397,-2.37161 -4.88425,-3.4218 -4.88425,-5.8443c0,-4.00791 4.38421,-4.26224 5.83561,-7.84623c1.77015,-4.37112 0.93057,-11.94229 4.44417,-15.32645c2.05615,-1.98041 6.33298,0.81793 8.86225,-0.71819c2.09703,-1.2736 2.3797,-6.95721 4.74443,-7.87606c2.81012,-1.0919 7.7521,2.98555 10.8597,2.46374c2.54043,-0.42658 3.2044,-5.55321 5.89047,-5.55321c3.3272,0 5.58038,3.93859 8.67536,4.5856c2.64362,0.55264 6.16657,-2.26849 8.5793,-1.2965c2.53656,1.02187 3.62236,5.53078 5.83952,6.96106c1.64412,1.06062 4.49885,-1.04296 5.93583,0.2152c1.66675,1.45935 2.2045,5.98571 3.55358,7.6774c2.54048,3.18567 5.46121,3.8096 6.66114,7.63561c0.90775,2.89442 -1.87683,6.2646 -1.87683,9.40491z" fill="none" stroke="#bdbdbd" stroke-width="0.5"/></g></g></g></svg>