<svg xmlns:xlink="http://www.w3.org/1999/xlink" xmlns="http://www.w3.org/2000/svg" data-name="Layer 1" viewBox="0 0 381 134" width="381"  height="134" ><path fill="#fff" d="M113.49 34.26 59 2.77a1.56 1.56 0 0 0-.39-.15h-.07a1.47 1.47 0 0 0-.82.11h-.13L3.11 34.18l-.11.08a1.43 1.43 0 0 0-.72 1.24v63A1.42 1.42 0 0 0 3 99.73l54.54 31.49a1.45 1.45 0 0 0 .72.2 1.42 1.42 0 0 0 .72-.2l54.54-31.49a1.41 1.41 0 0 0 .69-1V35.46a1.43 1.43 0 0 0-.72-1.2zM56.8 127.5 5.59 97.93l26.08-44.69L56.8 67.82v59.68zM5.12 37.83l24.07 14L5.12 93.05zm54.55 30 1.47-.83 25.58-14.8L111.34 38v59H59.67zM86.52 49 65.58 13.62 62.25 8l47.66 27.5zM57.72 6 84 50.44l-15.56 9-10.21 5.9L6.69 35.43zm2 94h47.82l-47.87 27.5zm103.92-21-13.29 7.67c3.29 10.79 13.84 17.88 27.55 17.88 15.59 0 27.88-9 27.88-24.27 0-14.36-10.53-19.62-22.52-22.52l-2.66-.64c-8.13-2-13.44-3.91-13.44-8.86 0-4 3.82-6.61 9.29-6.61 6.76 0 10.73 3.81 11.83 9.92l1.23.4 11.87-6.85c-3.16-8.87-11.36-14.92-24.72-14.92-14 0-24.48 7.12-24.48 19 0 8.64 5.06 13.69 12.78 16.95a55.53 55.53 0 0 0 8.7 2.77c1.81.43 3.56.85 5.18 1.31 6.66 1.88 11.45 4.45 11.45 11.09s-4.86 10.22-11.57 10.22c-7.27 0-12.9-4.22-14-12.2zm97.73 13.55a4.71 4.71 0 0 1-2 .32c-2.27 0-3.72-1.55-3.72-4.86V69.53c0-12.19-9.29-18.69-22-18.69-10.74 0-19.21 5.37-21.38 15.9l.52.62 12.18 1c.62-4.33 3.62-7.12 8.47-7.12 5.37 0 8.47 2.68 8.47 7.43V71L228 72.42c-11.15 1.13-18.17 6.91-18.17 16.41 0 9.82 7.64 15.71 16.41 15.71 6.92 0 11.67-2.79 16.22-7.45h.72c2.37 5.28 6.92 7 11.57 7a22.2 22.2 0 0 0 7.12-1v-9.92zM242 86c-3.72 4.76-7.22 7.55-12.39 7.55-3.61 0-6.4-2.07-6.4-5.58s2.58-5.89 7.43-6.51L242 80.05zm24.72-34.13h14.46v51.63h-14.46zM274 29.46a8.37 8.37 0 1 0 8.36 8.36 8.46 8.46 0 0 0-8.36-8.36zm35.49 34.39V87.6c0 3.41 2.07 5.16 5.57 5.16a13.17 13.17 0 0 0 4.14-.76l.72.42v11a36.12 36.12 0 0 1-9.08 1c-9.2 0-15.71-4.75-15.71-15.69v-25H286v-12h9.18V39.05l13-7.53h1.33v20.35h10.95v12zm41.07-13.01c-16.42 0-28.09 11.46-28.09 26.84s11.67 26.86 28.09 26.86 28.19-11.47 28.19-26.86-11.67-26.84-28.19-26.84zm0 41.2c-7.85 0-13.63-5.38-13.63-14.36s5.78-14.35 13.63-14.35 13.73 5.37 13.73 14.35S358.4 92 350.56 92z"/></svg>