<?xml version="1.0" standalone="no"?>
<!DOCTYPE svg PUBLIC "-//W3C//DTD SVG 20010904//EN"
 "http://www.w3.org/TR/2001/REC-SVG-20010904/DTD/svg10.dtd">
<svg version="1.0" xmlns="http://www.w3.org/2000/svg"
 width="588.000000pt" height="724.000000pt" viewBox="0 0 588.000000 724.000000"
 preserveAspectRatio="xMidYMid meet">

<g transform="translate(0.000000,724.000000) scale(0.100000,-0.100000)"
fill="#FFFFFF" stroke="none">
<path d="M1561 7167 c-13 -6 -34 -25 -45 -40 -20 -27 -21 -40 -21 -275 0 -280
2 -289 79 -334 l41 -23 1070 0 c1065 0 1070 0 1110 21 22 11 50 36 63 54 21
32 22 40 22 284 0 275 -1 281 -60 311 -25 13 -173 15 -1132 15 -856 0 -1108
-3 -1127 -13z m2134 -327 l0 -160 -1007 0 -1008 0 0 160 0 160 1008 0 1007 0
0 -160z"/>
<path d="M1606 6221 c-37 -6 -55 -15 -76 -38 -37 -41 -43 -98 -38 -358 3 -173
5 -204 21 -227 42 -61 -20 -58 1176 -58 1176 0 1138 -2 1175 51 14 20 16 60
16 289 0 292 0 293 -63 328 -30 16 -104 17 -1097 18 -586 1 -1087 -2 -1114 -5z
m2087 -338 l-2 -158 -1005 -3 -1006 -2 0 160 0 160 1008 0 1007 0 -2 -157z"/>
<path d="M1705 5299 c-453 -20 -954 -124 -1253 -259 -147 -67 -286 -180 -345
-280 -60 -103 -57 -27 -57 -1640 0 -1629 -3 -1538 63 -1649 140 -234 602 -418
1247 -498 115 -14 222 -18 512 -18 l366 0 4 -140 c3 -136 4 -143 36 -208 86
-174 271 -304 579 -406 875 -291 2220 -198 2742 189 82 61 138 119 178 187 55
94 54 56 51 1300 l-3 1148 -22 55 c-30 72 -98 157 -175 219 -70 56 -220 138
-322 176 -173 65 -500 141 -731 169 -169 21 -488 38 -628 34 l-117 -3 0 447
c0 293 -4 465 -11 500 -34 157 -159 294 -367 401 -207 107 -586 205 -969 251
-112 14 -545 39 -593 34 -8 0 -91 -5 -185 -9z m645 -199 c541 -50 1013 -195
1185 -364 76 -75 104 -137 87 -194 -67 -224 -681 -443 -1382 -492 -802 -56
-1692 132 -1943 409 -72 80 -71 160 4 245 180 204 711 364 1348 406 151 10
541 4 701 -10z m1263 -1331 c-39 -73 -91 -116 -150 -124 -334 -47 -711 -157
-900 -264 -64 -36 -76 -39 -198 -50 -71 -7 -222 -15 -335 -18 -692 -20 -1430
151 -1700 394 -85 76 -90 93 -90 336 l0 208 43 -29 c208 -143 636 -276 1072
-332 515 -67 1132 -41 1560 66 299 75 580 188 695 282 l25 20 3 -220 2 -220
-27 -49z m-3173 -359 c260 -130 629 -223 1050 -265 171 -17 690 -24 762 -10
l37 7 -22 -43 c-20 -41 -22 -60 -25 -276 l-3 -231 -117 -7 c-341 -22 -826 26
-1178 115 -395 101 -652 248 -694 398 -5 20 -10 126 -10 234 l0 197 53 -36
c28 -19 95 -57 147 -83z m4050 56 c602 -71 1030 -239 1126 -441 13 -27 24 -61
24 -75 0 -71 -126 -209 -248 -273 -173 -91 -475 -170 -837 -218 -147 -20 -214
-23 -500 -24 -350 0 -460 8 -715 51 -520 89 -880 268 -915 455 -9 50 29 123
97 184 198 178 621 308 1148 354 156 14 660 6 820 -13z m-4045 -788 c238 -119
571 -208 955 -253 202 -24 492 -36 673 -29 l167 7 0 -266 0 -265 -127 -7
c-270 -16 -635 6 -928 56 -501 85 -883 272 -935 457 -5 20 -10 124 -10 230 l0
193 58 -39 c31 -22 98 -60 147 -84z m2182 -178 c228 -109 554 -190 948 -236
186 -22 717 -25 895 -6 289 33 562 89 785 164 118 39 290 116 353 158 l32 22
0 -201 c0 -222 -4 -240 -61 -306 -51 -58 -181 -151 -274 -195 -154 -74 -449
-149 -718 -184 -417 -55 -886 -44 -1297 30 -396 72 -698 199 -807 342 -54 71
-63 121 -63 339 l0 193 63 -41 c34 -22 99 -58 144 -79z m-2163 -560 c225 -109
494 -181 871 -231 150 -20 213 -23 537 -24 l368 0 0 -267 0 -267 -37 -8 c-60
-12 -597 -8 -723 6 -296 32 -526 77 -729 143 -306 99 -454 193 -495 316 -13
36 -16 92 -16 259 l0 213 52 -41 c29 -22 106 -67 172 -99z m5155 -516 c-24
-51 -123 -145 -202 -192 -308 -185 -893 -294 -1497 -279 -334 9 -588 42 -855
112 -343 89 -542 201 -612 343 -27 56 -28 61 -31 265 l-4 209 54 -41 c72 -54
262 -144 407 -191 529 -174 1399 -206 2023 -74 248 52 529 165 679 273 l54 39
3 -211 c2 -196 1 -213 -19 -253z m-3004 -394 c261 -123 542 -198 900 -239 278
-33 730 -33 1016 -1 435 48 871 181 1056 321 l53 40 0 -213 c0 -248 -4 -263
-97 -348 -141 -129 -393 -232 -733 -300 -220 -44 -390 -61 -667 -67 -889 -20
-1615 197 -1708 509 -11 38 -15 100 -15 235 l0 183 48 -37 c26 -20 92 -57 147
-83z"/>
</g>
</svg>
