<?xml version="1.0" encoding="UTF-8" standalone="no"?>
<svg
   version="1.0"
   width="588.000000pt"
   height="724.000000pt"
   viewBox="0 0 588.000000 724.000000"
   preserveAspectRatio="xMidYMid meet"
   id="svg3"
   sodipodi:docname="call_icon.svg"
   inkscape:version="1.4 (e7c3feb100, 2024-10-09)"
   xmlns:inkscape="http://www.inkscape.org/namespaces/inkscape"
   xmlns:sodipodi="http://sodipodi.sourceforge.net/DTD/sodipodi-0.dtd"
   xmlns="http://www.w3.org/2000/svg"
   xmlns:svg="http://www.w3.org/2000/svg">
  <defs
     id="defs3" />
  <sodipodi:namedview
     id="namedview3"
     pagecolor="#ffffff"
     bordercolor="#000000"
     borderopacity="0.25"
     inkscape:showpageshadow="2"
     inkscape:pageopacity="0.0"
     inkscape:pagecheckerboard="true"
     inkscape:deskcolor="#d1d1d1"
     inkscape:document-units="pt"
     inkscape:zoom="1.9361188"
     inkscape:cx="392.0214"
     inkscape:cy="482.66667"
     inkscape:window-width="3840"
     inkscape:window-height="2121"
     inkscape:window-x="0"
     inkscape:window-y="0"
     inkscape:window-maximized="1"
     inkscape:current-layer="svg3" />
  <g
     transform="matrix(0.09,0,0,-0.09,29.395517,687.94823)"
     fill="#ffffff"
     stroke="none"
     id="g3">
    <path
       d="m 1561,7167 c -13,-6 -34,-25 -45,-40 -20,-27 -21,-40 -21,-275 0,-280 2,-289 79,-334 l 41,-23 h 1070 c 1065,0 1070,0 1110,21 22,11 50,36 63,54 21,32 22,40 22,284 0,275 -1,281 -60,311 -25,13 -173,15 -1132,15 -856,0 -1108,-3 -1127,-13 z M 3695,6840 V 6680 H 2688 1680 v 160 160 h 1008 1007 z"
       id="path1" />
    <path
       d="m 1606,6221 c -37,-6 -55,-15 -76,-38 -37,-41 -43,-98 -38,-358 3,-173 5,-204 21,-227 42,-61 -20,-58 1176,-58 1176,0 1138,-2 1175,51 14,20 16,60 16,289 0,292 0,293 -63,328 -30,16 -104,17 -1097,18 -586,1 -1087,-2 -1114,-5 z m 2087,-338 -2,-158 -1005,-3 -1006,-2 v 160 160 h 1008 1007 z"
       id="path2" />
    <path
       d="M 1705,5299 C 1252,5279 751,5175 452,5040 305,4973 166,4860 107,4760 47,4657 50,4733 50,3120 50,1491 47,1582 113,1471 253,1237 715,1053 1360,973 c 115,-14 222,-18 512,-18 h 366 l 4,-140 c 3,-136 4,-143 36,-208 86,-174 271,-304 579,-406 875,-291 2220,-198 2742,189 82,61 138,119 178,187 55,94 54,56 51,1300 l -3,1148 -22,55 c -30,72 -98,157 -175,219 -70,56 -220,138 -322,176 -173,65 -500,141 -731,169 -169,21 -488,38 -628,34 l -117,-3 v 447 c 0,293 -4,465 -11,500 -34,157 -159,294 -367,401 -207,107 -586,205 -969,251 -112,14 -545,39 -593,34 -8,0 -91,-5 -185,-9 z m 645,-199 c 541,-50 1013,-195 1185,-364 76,-75 104,-137 87,-194 -67,-224 -681,-443 -1382,-492 -802,-56 -1692,132 -1943,409 -72,80 -71,160 4,245 180,204 711,364 1348,406 151,10 541,4 701,-10 z M 3613,3769 c -39,-73 -91,-116 -150,-124 -334,-47 -711,-157 -900,-264 -64,-36 -76,-39 -198,-50 -71,-7 -222,-15 -335,-18 -692,-20 -1430,151 -1700,394 -85,76 -90,93 -90,336 v 208 l 43,-29 c 208,-143 636,-276 1072,-332 515,-67 1132,-41 1560,66 299,75 580,188 695,282 l 25,20 3,-220 2,-220 z M 440,3410 c 260,-130 629,-223 1050,-265 171,-17 690,-24 762,-10 l 37,7 -22,-43 c -20,-41 -22,-60 -25,-276 l -3,-231 -117,-7 c -341,-22 -826,26 -1178,115 -395,101 -652,248 -694,398 -5,20 -10,126 -10,234 v 197 l 53,-36 c 28,-19 95,-57 147,-83 z m 4050,56 c 602,-71 1030,-239 1126,-441 13,-27 24,-61 24,-75 0,-71 -126,-209 -248,-273 -173,-91 -475,-170 -837,-218 -147,-20 -214,-23 -500,-24 -350,0 -460,8 -715,51 -520,89 -880,268 -915,455 -9,50 29,123 97,184 198,178 621,308 1148,354 156,14 660,6 820,-13 z M 445,2678 c 238,-119 571,-208 955,-253 202,-24 492,-36 673,-29 l 167,7 v -266 -265 l -127,-7 c -270,-16 -635,6 -928,56 -501,85 -883,272 -935,457 -5,20 -10,124 -10,230 v 193 l 58,-39 c 31,-22 98,-60 147,-84 z m 2182,-178 c 228,-109 554,-190 948,-236 186,-22 717,-25 895,-6 289,33 562,89 785,164 118,39 290,116 353,158 l 32,22 v -201 c 0,-222 -4,-240 -61,-306 -51,-58 -181,-151 -274,-195 -154,-74 -449,-149 -718,-184 -417,-55 -886,-44 -1297,30 -396,72 -698,199 -807,342 -54,71 -63,121 -63,339 v 193 l 63,-41 c 34,-22 99,-58 144,-79 z M 464,1940 c 225,-109 494,-181 871,-231 150,-20 213,-23 537,-24 h 368 v -267 -267 l -37,-8 c -60,-12 -597,-8 -723,6 -296,32 -526,77 -729,143 -306,99 -454,193 -495,316 -13,36 -16,92 -16,259 v 213 l 52,-41 c 29,-22 106,-67 172,-99 z m 5155,-516 c -24,-51 -123,-145 -202,-192 -308,-185 -893,-294 -1497,-279 -334,9 -588,42 -855,112 -343,89 -542,201 -612,343 -27,56 -28,61 -31,265 l -4,209 54,-41 c 72,-54 262,-144 407,-191 529,-174 1399,-206 2023,-74 248,52 529,165 679,273 l 54,39 3,-211 c 2,-196 1,-213 -19,-253 z M 2615,1030 c 261,-123 542,-198 900,-239 278,-33 730,-33 1016,-1 435,48 871,181 1056,321 l 53,40 V 938 c 0,-248 -4,-263 -97,-348 C 5402,461 5150,358 4810,290 4590,246 4420,229 4143,223 3254,203 2528,420 2435,732 c -11,38 -15,100 -15,235 v 183 l 48,-37 c 26,-20 92,-57 147,-83 z"
       id="path3" />
  </g>
</svg>
