<?xml version="1.0" encoding="UTF-8" standalone="no"?>
<svg
   version="1.0"
   width="334.000000pt"
   height="331.000000pt"
   viewBox="0 0 334.000000 331.000000"
   preserveAspectRatio="xMidYMid meet"
   id="svg2"
   sodipodi:docname="check_icon.svg"
   inkscape:version="1.4 (e7c3feb100, 2024-10-09)"
   xmlns:inkscape="http://www.inkscape.org/namespaces/inkscape"
   xmlns:sodipodi="http://sodipodi.sourceforge.net/DTD/sodipodi-0.dtd"
   xmlns="http://www.w3.org/2000/svg"
   xmlns:svg="http://www.w3.org/2000/svg">
  <defs
     id="defs2" />
  <sodipodi:namedview
     id="namedview2"
     pagecolor="#ffffff"
     bordercolor="#000000"
     borderopacity="0.25"
     inkscape:showpageshadow="2"
     inkscape:pageopacity="0.0"
     inkscape:pagecheckerboard="true"
     inkscape:deskcolor="#d1d1d1"
     inkscape:document-units="pt"
     inkscape:zoom="4.2348943"
     inkscape:cx="222.6738"
     inkscape:cy="220.66667"
     inkscape:window-width="3840"
     inkscape:window-height="2121"
     inkscape:window-x="0"
     inkscape:window-y="0"
     inkscape:window-maximized="1"
     inkscape:current-layer="svg2" />
  <g
     transform="matrix(0.0855,0,0,-0.0855,24.119534,306.93531)"
     fill="#ffffff"
     stroke="none"
     id="g2">
    <path
       d="m 1454,3270 c -52,-16 -126,-72 -166,-125 -37,-49 -38,-50 -135,-71 -54,-12 -179,-40 -278,-62 -99,-23 -279,-62 -400,-87 C 354,2899 236,2870 214,2860 119,2819 54,2725 43,2616 38,2567 124,2150 270,1505 293,1406 363,1085 426,792 504,425 547,245 564,212 611,119 712,52 819,43 c 57,-5 295,42 659,131 140,34 172,47 172,70 0,6 -54,65 -119,130 l -119,119 -230,53 c -127,29 -244,60 -260,68 -30,16 -64,61 -77,105 -7,23 6,80 325,1376 76,308 157,641 181,739 44,181 62,223 110,258 56,42 91,41 295,-8 104,-25 349,-83 544,-130 195,-46 442,-105 548,-130 203,-48 236,-63 267,-125 23,-43 18,-91 -20,-238 -48,-179 -285,-1168 -285,-1186 0,-7 -8,-16 -18,-19 -10,-4 -125,-118 -255,-254 C 2408,866 2238,693 2162,616 L 2022,477 1810,689 c -117,117 -221,216 -231,221 -42,23 -69,4 -203,-144 -39,-44 -35,-86 12,-126 20,-18 165,-160 323,-316 244,-243 289,-284 315,-284 25,0 68,40 318,295 159,163 290,294 292,292 2,-2 -11,-65 -30,-141 -43,-174 -68,-205 -181,-220 -48,-7 -52,-10 -93,-73 -50,-75 -49,-77 37,-87 60,-7 138,4 194,28 42,17 110,77 136,119 20,33 75,219 117,394 29,124 29,123 3,123 -18,0 -16,6 20,49 23,27 73,81 111,120 50,50 70,78 70,96 0,17 -21,50 -64,99 l -65,74 32,9 32,9 72,284 c 211,829 257,1031 257,1125 1,102 -17,149 -83,218 -67,71 -15,57 -1076,308 -484,115 -593,133 -671,109 z m -249,-367 c -15,-40 -81,-306 -200,-803 -69,-289 -134,-554 -145,-590 -10,-36 -53,-209 -96,-385 -90,-374 -95,-426 -51,-517 32,-64 90,-122 153,-149 23,-11 136,-40 251,-65 219,-47 269,-62 256,-75 -14,-13 -486,-111 -531,-110 -49,0 -96,24 -124,61 -11,16 -39,124 -77,300 -33,151 -80,363 -105,470 -24,107 -92,418 -151,690 -58,272 -124,572 -145,667 -22,95 -40,184 -40,198 0,54 44,109 101,126 19,5 221,50 449,100 228,50 417,93 419,95 2,2 13,4 24,4 14,0 17,-5 12,-17 z"
       id="path1" />
    <path
       d="m 2017,2272 c -34,-32 -143,-134 -242,-226 -258,-241 -245,-227 -245,-285 0,-50 57,-200 223,-586 78,-180 105,-186 246,-52 48,45 168,155 269,245 237,213 229,187 134,410 -39,92 -103,244 -142,337 -74,181 -98,215 -151,215 -24,0 -45,-14 -92,-58 z m 126,-289 c 80,-184 149,-361 145,-371 -4,-11 -377,-356 -389,-360 -5,-2 -9,2 -9,9 0,6 -45,118 -101,248 l -100,235 93,85 c 51,47 138,129 193,183 55,54 103,98 106,98 4,0 31,-57 62,-127 z"
       id="path2" />
  </g>
</svg>
