<?xml version="1.0" encoding="UTF-8"?><svg id="a" xmlns="http://www.w3.org/2000/svg" viewBox="0 0 700 700"><defs><style>.b{fill:#8fbf27;}</style></defs><path d="M235.96,169.06c6.59-3.71,15.01-1.45,18.79,5.04l19.89,34.33c3.72,6.62,1.43,15.03-5.06,18.81,0,0-.01,0-.02,.01l-14.47,8.33c18.02,19.15,41.2,32.81,66.46,39.17v-18.6c0-7.58,6.17-13.75,13.75-13.75h39.66c7.58,0,13.75,6.17,13.75,13.75v18.62c23.67-5.93,45.11-18.01,62.69-35.33l-15.98-9.23c-6.5-3.65-8.96-12.07-5.05-18.75l19.76-34.36c3.91-6.56,12.35-8.78,18.84-4.98l17.31,9.96c8.2-26.6,8.28-53.53,.23-80.09l-18.48,10.7c-2.16,1.21-4.5,1.79-6.82,1.79-4.78,0-9.44-2.46-11.99-6.84l-19.79-34.32c-3.79-6.47-1.59-14.91,4.91-18.78l17.69-10.22c-17.5-17.36-39.57-29.86-63.32-35.89V26.96c0,7.58-6.17,13.75-13.75,13.75h-39.66c-7.71,0-13.75-6.04-13.75-13.75V8.44c-25.61,6.45-49.02,20.35-67.09,39.84l16.05,9.28c6.5,3.65,8.84,12.03,5.09,18.68,0,.01-.02,.04-.03,.05l-19.87,34.39c-3.74,6.49-12.26,8.85-18.81,4.94l-14.75-8.52c-2.91,11.13-4.47,22.67-4.47,34.49s1.64,23.93,4.69,35.29l13.59-7.82Zm63.52-83.11c30.57-30.59,79.99-30.95,111.2-.01,30.96,30.97,30.64,80.86,0,111.25-31.25,31.26-81.2,30.25-111.21-.03-30.65-30.38-30.89-80.3,.01-111.21h0Z"/><path d="M378.19,276.93v-20.78c0-1.75-1.48-3.23-3.23-3.23h-39.66c-1.81,0-3.23,1.42-3.23,3.23v20.78c15.09,2.55,29.03,2.9,46.12,0Z"/><path class="b" d="M403.26,189.73c26.45-26.22,26.89-69.45,0-96.35-27.27-27.03-70.05-26.29-96.34,0-26.86,26.86-26.47,70.1-.01,96.33,26.31,26.53,69.53,26.84,96.36,.02h0Z"/><path d="M438.51,68.04l19.8,34.33c.91,1.56,2.9,2.07,4.5,1.19l20.19-11.68c-5.64-14.62-12.15-26.16-23.67-39.63l-19.67,11.37c-1.5,.89-2.04,2.89-1.14,4.42h0Z"/><path d="M335.3,30.2h39.66c1.81,0,3.23-1.42,3.23-3.24V6.27c-15.06-2.56-29.42-2.84-46.12,0V26.96c0,1.85,1.39,3.24,3.23,3.24Z"/><path d="M246.59,105.44l19.85-34.37c.86-1.55,.39-3.5-1.15-4.38l-17.8-10.29c-9.65,12.08-16.36,23.42-22.17,40.39l16.9,9.76c1.55,.91,3.52,.35,4.37-1.12h0Z"/><path d="M459.2,182.42l-19.74,34.32c-.95,1.63-.3,3.53,1.16,4.35l18.13,10.47c10.15-11.67,17.47-22.98,23.95-39.38l-19.01-10.94c-1.56-.92-3.56-.38-4.49,1.19h0Z"/><path d="M265.5,213.64l-19.84-34.25c-.92-1.57-2.9-2.11-4.5-1.19l-15.56,8.97c5.12,14.7,11.2,26.35,22.47,40.32l16.22-9.34c1.58-.92,2.11-2.91,1.21-4.51h0Z"/></svg>