<?xml version="1.0" standalone="no"?>
<!DOCTYPE svg PUBLIC "-//W3C//DTD SVG 20010904//EN"
 "http://www.w3.org/TR/2001/REC-SVG-20010904/DTD/svg10.dtd">
<svg version="1.0" xmlns="http://www.w3.org/2000/svg"
 width="597.000000pt" height="797.000000pt" viewBox="0 0 597.000000 797.000000"
 preserveAspectRatio="xMidYMid meet">

<g transform="translate(0.000000,797.000000) scale(0.100000,-0.100000)"
fill="#FFFFFF" stroke="none">
<path d="M1794 7880 c-11 -4 -32 -22 -46 -38 -26 -31 -26 -31 -33 -294 -3
-145 -5 -341 -3 -436 l3 -172 -450 0 c-585 0 -545 21 -545 -282 0 -208 8 -240
70 -270 32 -16 76 -18 480 -18 l445 0 -3 -417 c-3 -478 -4 -469 78 -510 41
-21 58 -23 215 -23 151 0 174 2 202 20 63 38 63 35 63 505 l0 425 443 0 c576
0 537 -20 537 282 0 204 -6 228 -72 268 -32 19 -52 20 -470 20 l-438 0 0 423
c0 403 -1 423 -20 455 -40 65 -64 72 -260 71 -96 0 -184 -4 -196 -9z m256
-637 c0 -451 2 -477 49 -502 14 -8 168 -12 478 -14 429 -2 458 -3 457 -19 -1
-10 -2 -40 -3 -68 l-1 -50 -437 0 c-490 0 -490 0 -526 -70 -17 -33 -18 -64
-15 -458 l3 -424 -62 -4 -63 -4 0 435 c0 370 -2 440 -15 465 -31 60 -30 60
-525 60 l-450 0 0 68 0 67 422 -3 c233 -2 443 0 467 3 29 5 54 16 73 35 l28
28 0 442 0 441 60 -3 61 -3 -1 -422z"/>
<path d="M2484 5560 c-60 -24 -83 -113 -43 -163 23 -30 63 -42 169 -52 99 -9
317 -49 461 -85 314 -80 549 -196 620 -307 54 -86 36 -158 -64 -248 -148 -134
-500 -259 -892 -315 -233 -34 -326 -41 -620 -47 -677 -13 -1213 74 -1590 258
-236 115 -313 229 -236 351 110 173 571 338 1111 397 82 9 97 14 121 38 42 43
43 106 3 147 -23 22 -36 26 -83 26 -132 0 -452 -55 -656 -111 -451 -127 -693
-301 -735 -530 -7 -37 -9 -595 -8 -1665 l3 -1609 32 -68 c81 -171 289 -310
640 -426 358 -119 789 -182 1255 -184 l246 -1 4 -125 c3 -99 9 -138 26 -181
113 -288 634 -514 1375 -597 213 -23 643 -23 872 1 421 44 736 122 993 248
192 93 310 200 376 338 l31 65 0 1270 0 1270 -28 57 c-89 181 -344 336 -726
443 -273 75 -600 119 -996 131 l-210 7 0 526 c0 525 0 526 -23 575 -91 199
-345 351 -767 461 -143 37 -332 75 -496 99 -119 18 -135 18 -165 6z m-2029
-1165 c655 -321 2055 -365 2860 -88 125 43 292 122 356 168 l49 35 0 -223 c0
-220 0 -224 -26 -275 -15 -30 -49 -73 -81 -101 -46 -41 -64 -51 -107 -56 -341
-43 -656 -127 -883 -235 -97 -46 -109 -49 -235 -61 -168 -16 -587 -16 -783 0
-642 52 -1155 224 -1309 439 l-31 44 -3 240 -3 240 43 -36 c23 -20 92 -61 153
-91z m1 -782 c348 -180 990 -293 1604 -281 116 2 210 3 210 2 0 -1 -10 -23
-22 -50 -22 -46 -23 -65 -26 -293 l-4 -244 -266 6 c-595 14 -1088 110 -1422
276 -98 49 -153 86 -202 138 -64 66 -68 85 -68 343 l0 230 59 -43 c32 -24 94
-62 137 -84z m3981 46 c504 -41 923 -160 1140 -323 52 -39 74 -65 97 -109 28
-55 29 -61 17 -105 -16 -61 -50 -104 -125 -159 -155 -114 -442 -215 -776 -272
-260 -44 -402 -55 -735 -56 -338 0 -450 8 -705 51 -566 95 -952 304 -916 497
38 204 555 409 1191 472 161 16 640 19 812 4z m-3962 -849 c349 -162 914 -261
1492 -264 l253 -1 0 -289 0 -289 -297 6 c-382 7 -662 41 -963 117 -360 91
-624 228 -681 355 -16 35 -19 68 -19 267 l0 226 68 -45 c37 -25 103 -63 147
-83z m2107 -108 c153 -83 408 -163 683 -216 819 -157 1895 -35 2368 267 l57
37 0 -220 c0 -251 -2 -261 -76 -340 -164 -175 -575 -313 -1109 -372 -157 -17
-731 -17 -880 0 -544 63 -971 207 -1129 382 -63 70 -66 83 -66 335 l0 225 48
-34 c26 -18 73 -47 104 -64z m-2243 -600 c215 -137 626 -254 1094 -312 194
-24 590 -43 705 -34 l82 7 0 -293 0 -293 -287 6 c-462 8 -817 61 -1165 173
-271 88 -468 214 -497 319 -16 59 -15 479 2 469 6 -4 36 -23 66 -42z m2323
-221 c248 -116 544 -191 943 -237 210 -25 700 -25 910 0 414 48 730 130 981
253 50 24 114 62 142 84 l52 39 0 -221 c0 -145 -4 -236 -12 -262 -18 -60 -102
-144 -203 -204 -592 -353 -2007 -383 -2713 -57 -148 68 -284 179 -318 259 -11
26 -14 86 -14 259 l0 225 65 -45 c35 -25 111 -67 167 -93z m-27 -779 c560
-276 1546 -351 2330 -177 256 57 551 173 673 266 l53 40 -3 -245 -3 -244 -30
-44 c-48 -67 -139 -134 -270 -198 -246 -120 -568 -199 -940 -230 -183 -15
-599 -12 -781 5 -444 43 -839 153 -1051 294 -81 55 -159 139 -172 187 -6 22
-11 131 -11 256 l0 218 52 -39 c28 -22 97 -62 153 -89z"/>
</g>
</svg>
