<?xml version="1.0" encoding="UTF-8" standalone="no"?>
<svg
   version="1.0"
   width="597.000000pt"
   height="797.000000pt"
   viewBox="0 0 597.000000 797.000000"
   preserveAspectRatio="xMidYMid meet"
   id="svg2"
   sodipodi:docname="raise_icon.svg"
   inkscape:version="1.4 (e7c3feb100, 2024-10-09)"
   xmlns:inkscape="http://www.inkscape.org/namespaces/inkscape"
   xmlns:sodipodi="http://sodipodi.sourceforge.net/DTD/sodipodi-0.dtd"
   xmlns="http://www.w3.org/2000/svg"
   xmlns:svg="http://www.w3.org/2000/svg">
  <defs
     id="defs2" />
  <sodipodi:namedview
     id="namedview2"
     pagecolor="#ffffff"
     bordercolor="#000000"
     borderopacity="0.25"
     inkscape:showpageshadow="2"
     inkscape:pageopacity="0.0"
     inkscape:pagecheckerboard="true"
     inkscape:deskcolor="#d1d1d1"
     inkscape:document-units="pt"
     inkscape:zoom="0.87939147"
     inkscape:cx="631.11824"
     inkscape:cy="611.21812"
     inkscape:window-width="3840"
     inkscape:window-height="2121"
     inkscape:window-x="0"
     inkscape:window-y="0"
     inkscape:window-maximized="1"
     inkscape:current-layer="svg2" />
  <g
     transform="matrix(0.09,0,0,-0.09,29.683793,757.32521)"
     fill="#ffffff"
     stroke="none"
     id="g2">
    <path
       d="m 1794,7880 c -11,-4 -32,-22 -46,-38 -26,-31 -26,-31 -33,-294 -3,-145 -5,-341 -3,-436 l 3,-172 h -450 c -585,0 -545,21 -545,-282 0,-208 8,-240 70,-270 32,-16 76,-18 480,-18 h 445 l -3,-417 c -3,-478 -4,-469 78,-510 41,-21 58,-23 215,-23 151,0 174,2 202,20 63,38 63,35 63,505 v 425 h 443 c 576,0 537,-20 537,282 0,204 -6,228 -72,268 -32,19 -52,20 -470,20 h -438 v 423 c 0,403 -1,423 -20,455 -40,65 -64,72 -260,71 -96,0 -184,-4 -196,-9 z m 256,-637 c 0,-451 2,-477 49,-502 14,-8 168,-12 478,-14 429,-2 458,-3 457,-19 -1,-10 -2,-40 -3,-68 l -1,-50 h -437 c -490,0 -490,0 -526,-70 -17,-33 -18,-64 -15,-458 l 3,-424 -62,-4 -63,-4 v 435 c 0,370 -2,440 -15,465 -31,60 -30,60 -525,60 H 940 v 68 67 l 422,-3 c 233,-2 443,0 467,3 29,5 54,16 73,35 l 28,28 v 442 441 l 60,-3 61,-3 z"
       id="path1" />
    <path
       d="m 2484,5560 c -60,-24 -83,-113 -43,-163 23,-30 63,-42 169,-52 99,-9 317,-49 461,-85 314,-80 549,-196 620,-307 54,-86 36,-158 -64,-248 -148,-134 -500,-259 -892,-315 -233,-34 -326,-41 -620,-47 -677,-13 -1213,74 -1590,258 -236,115 -313,229 -236,351 110,173 571,338 1111,397 82,9 97,14 121,38 42,43 43,106 3,147 -23,22 -36,26 -83,26 -132,0 -452,-55 -656,-111 C 334,5322 92,5148 50,4919 43,4882 41,4324 42,3254 l 3,-1609 32,-68 c 81,-171 289,-310 640,-426 358,-119 789,-182 1255,-184 l 246,-1 4,-125 c 3,-99 9,-138 26,-181 113,-288 634,-514 1375,-597 213,-23 643,-23 872,1 421,44 736,122 993,248 192,93 310,200 376,338 l 31,65 v 1270 1270 l -28,57 c -89,181 -344,336 -726,443 -273,75 -600,119 -996,131 l -210,7 v 526 c 0,525 0,526 -23,575 -91,199 -345,351 -767,461 -143,37 -332,75 -496,99 -119,18 -135,18 -165,6 z M 455,4395 c 655,-321 2055,-365 2860,-88 125,43 292,122 356,168 l 49,35 v -223 c 0,-220 0,-224 -26,-275 -15,-30 -49,-73 -81,-101 -46,-41 -64,-51 -107,-56 -341,-43 -656,-127 -883,-235 -97,-46 -109,-49 -235,-61 -168,-16 -587,-16 -783,0 -642,52 -1155,224 -1309,439 l -31,44 -3,240 -3,240 43,-36 c 23,-20 92,-61 153,-91 z m 1,-782 c 348,-180 990,-293 1604,-281 116,2 210,3 210,2 0,-1 -10,-23 -22,-50 -22,-46 -23,-65 -26,-293 l -4,-244 -266,6 c -595,14 -1088,110 -1422,276 -98,49 -153,86 -202,138 -64,66 -68,85 -68,343 v 230 l 59,-43 c 32,-24 94,-62 137,-84 z m 3981,46 c 504,-41 923,-160 1140,-323 52,-39 74,-65 97,-109 28,-55 29,-61 17,-105 -16,-61 -50,-104 -125,-159 -155,-114 -442,-215 -776,-272 -260,-44 -402,-55 -735,-56 -338,0 -450,8 -705,51 -566,95 -952,304 -916,497 38,204 555,409 1191,472 161,16 640,19 812,4 z M 475,2810 c 349,-162 914,-261 1492,-264 l 253,-1 v -289 -289 l -297,6 c -382,7 -662,41 -963,117 -360,91 -624,228 -681,355 -16,35 -19,68 -19,267 v 226 l 68,-45 c 37,-25 103,-63 147,-83 z m 2107,-108 c 153,-83 408,-163 683,-216 819,-157 1895,-35 2368,267 l 57,37 v -220 c 0,-251 -2,-261 -76,-340 -164,-175 -575,-313 -1109,-372 -157,-17 -731,-17 -880,0 -544,63 -971,207 -1129,382 -63,70 -66,83 -66,335 v 225 l 48,-34 c 26,-18 73,-47 104,-64 z M 339,2102 c 215,-137 626,-254 1094,-312 194,-24 590,-43 705,-34 l 82,7 v -293 -293 l -287,6 c -462,8 -817,61 -1165,173 -271,88 -468,214 -497,319 -16,59 -15,479 2,469 6,-4 36,-23 66,-42 z m 2323,-221 c 248,-116 544,-191 943,-237 210,-25 700,-25 910,0 414,48 730,130 981,253 50,24 114,62 142,84 l 52,39 v -221 c 0,-145 -4,-236 -12,-262 -18,-60 -102,-144 -203,-204 -592,-353 -2007,-383 -2713,-57 -148,68 -284,179 -318,259 -11,26 -14,86 -14,259 v 225 l 65,-45 c 35,-25 111,-67 167,-93 z m -27,-779 c 560,-276 1546,-351 2330,-177 256,57 551,173 673,266 l 53,40 -3,-245 -3,-244 -30,-44 C 5607,631 5516,564 5385,500 5139,380 4817,301 4445,270 c -183,-15 -599,-12 -781,5 -444,43 -839,153 -1051,294 -81,55 -159,139 -172,187 -6,22 -11,131 -11,256 v 218 l 52,-39 c 28,-22 97,-62 153,-89 z"
       id="path2" />
  </g>
</svg>
