<?xml version="1.0" encoding="UTF-8" standalone="no"?>
<!-- Generator: Adobe Illustrator 27.5.0, SVG Export Plug-In . SVG Version: 6.00 Build 0)  -->

<svg
   version="1.1"
   x="0px"
   y="0px"
   viewBox="0 0 846 846"
   xml:space="preserve"
   id="svg76"
   sodipodi:docname="simple-chip.svg"
   width="846"
   height="846"
   inkscape:version="1.4 (e7c3feb100, 2024-10-09)"
   xmlns:inkscape="http://www.inkscape.org/namespaces/inkscape"
   xmlns:sodipodi="http://sodipodi.sourceforge.net/DTD/sodipodi-0.dtd"
   xmlns="http://www.w3.org/2000/svg"
   xmlns:svg="http://www.w3.org/2000/svg"><defs
   id="defs76" /><sodipodi:namedview
   id="namedview76"
   pagecolor="#ffffff"
   bordercolor="#000000"
   borderopacity="0.25"
   inkscape:showpageshadow="2"
   inkscape:pageopacity="0.0"
   inkscape:pagecheckerboard="true"
   inkscape:deskcolor="#d1d1d1"
   inkscape:zoom="0.81909091"
   inkscape:cx="449.88901"
   inkscape:cy="513.98446"
   inkscape:window-width="3840"
   inkscape:window-height="2117"
   inkscape:window-x="0"
   inkscape:window-y="0"
   inkscape:window-maximized="1"
   inkscape:current-layer="Objects" />

<g
   id="Objects"
   transform="translate(-190.31799,-1163.577)">
	
	
	<g
   id="g57">
		<circle
   style="fill:#c43f3f"
   cx="613.31799"
   cy="1586.577"
   r="423"
   id="circle38" />
		<path
   style="fill:#ffffff;stroke-width:1.28301"
   d="m 615.75972,1306.7546 c -155.88677,0 -282.26413,126.3773 -282.26413,282.2641 0,155.8868 126.37736,282.2641 282.26413,282.2641 155.88679,0 282.26415,-126.3773 282.26415,-282.2641 0,-155.8868 -126.37736,-282.2641 -282.26415,-282.2641 z m 0,538.8681 c -141.72225,0 -256.60377,-114.8819 -256.60377,-256.604 0,-141.722 114.88152,-256.6037 256.60377,-256.6037 141.72229,0 256.60379,114.8817 256.60379,256.6037 0,141.7221 -114.8815,256.604 -256.60379,256.604 z"
   id="path39" />
		<path
   style="fill:#ffffff"
   d="m 680.189,1190.753 -14.492,81.68 c -17.043,-2.823 -34.539,-4.288 -52.379,-4.288 -17.839,0 -35.335,1.466 -52.379,4.288 l -14.492,-81.68 c 21.747,-3.655 44.092,-5.554 66.871,-5.554 22.779,-10e-4 45.124,1.899 66.871,5.554 z"
   id="path40" />
		<path
   style="fill:#ffffff"
   d="m 303.96,1330.753 63.491,53.391 c -10.966,13.349 -20.983,27.768 -29.903,43.217 -8.92,15.449 -16.398,31.334 -22.476,47.505 l -77.983,-28.289 c 7.709,-20.661 17.236,-40.962 28.625,-60.689 11.39,-19.728 24.207,-38.129 38.246,-55.135 z"
   id="path41" />
		<path
   style="fill:#ffffff"
   d="m 237.089,1726.577 77.983,-28.289 c 6.077,16.171 13.556,32.056 22.476,47.505 8.92,15.449 18.937,29.868 29.903,43.217 l -63.491,53.391 c -14.039,-17.006 -26.856,-35.408 -38.246,-55.135 -11.389,-19.727 -20.916,-40.028 -28.625,-60.689 z"
   id="path42" />
		<path
   style="fill:#ffffff"
   d="m 546.448,1982.401 14.492,-81.68 c 17.043,2.823 34.539,4.288 52.379,4.288 17.839,0 35.335,-1.465 52.379,-4.288 l 14.492,81.68 c -21.747,3.655 -44.092,5.554 -66.871,5.554 -22.779,0 -45.124,-1.899 -66.871,-5.554 z"
   id="path43" />
		<path
   style="fill:#ffffff"
   d="m 922.677,1842.401 -63.491,-53.391 c 10.966,-13.349 20.983,-27.768 29.903,-43.217 8.92,-15.449 16.398,-31.334 22.476,-47.505 l 77.983,28.289 c -7.709,20.661 -17.236,40.962 -28.625,60.689 -11.39,19.727 -24.207,38.128 -38.246,55.135 z"
   id="path44" />
		<path
   style="fill:#ffffff"
   d="m 989.548,1446.577 -77.983,28.289 c -6.077,-16.171 -13.556,-32.056 -22.476,-47.505 -8.92,-15.449 -18.937,-29.868 -29.903,-43.217 l 63.491,-53.391 c 14.039,17.006 26.856,35.407 38.246,55.135 11.389,19.727 20.916,40.027 28.625,60.689 z"
   id="path45" />
		
		
		
		
		
		
		
		
		
		
		
		
	</g>
	
</g>
</svg>
