<?xml version="1.0" encoding="UTF-8"?>
            <svg id="top_animation" xmlns="http://www.w3.org/2000/svg" xmlns:xlink="http://www.w3.org/1999/xlink"
                width="1920" height="1080" viewBox="0 0 1920 1080">
                <defs>
                    <filter id="f1" x="-100%" y="-100%" width="300%" height="300%">
                        <feGaussianBlur in="SourceGraphic" stdDeviation="40" />
                    </filter>
                    <filter id="f2" x="-20%" y="-20%" width="140%" height="140%">
                        <feGaussianBlur in="SourceGraphic" stdDeviation="4" />
                    </filter>
                    <linearGradient x2="0" y2="1" id="grd1">
                        <stop offset="0" stop-color="#eceded" />
                        <stop offset=".37" stop-color="#f4f5f5" />
                        <stop offset="1" stop-color="#fff" />
                    </linearGradient>
                    <linearGradient id="grd2" x1="471.66" x2="631.52" y1="585.65" y2="585.65"
                        gradientUnits="userSpaceOnUse">
                        <stop offset="0" stop-color="#fff" stop-opacity=".2" />
                        <stop offset="1" stop-color="#fff" stop-opacity=".4" />
                    </linearGradient>
                    <linearGradient id="grd3" x1="482.08" x2="621.44" y1="321.27" y2="321.27"
                        gradientUnits="userSpaceOnUse">
                        <stop offset="0" stop-color="#fff" stop-opacity=".2" />
                        <stop offset="1" stop-color="#fff" />
                    </linearGradient>
                    <linearGradient id="grd4" x1="482.08" x2="621.44" y1="321.27" y2="321.27"
                        gradientUnits="userSpaceOnUse">
                        <stop offset="0" stop-color="#fff" stop-opacity="0" />
                        <stop offset="1" stop-color="#fff" stop-opacity=".8" />
                    </linearGradient>
                    <linearGradient xlink:href="#grd3" id="grd5" y1="849.27" y2="849.27" />
                    <linearGradient xlink:href="#grd4" id="grd6" y1="849.27" y2="849.27" />
                    <linearGradient id="lgrd1">
                        <stop offset="0" stop-color="#fff" />
                        <stop offset="1" stop-color="#fff" stop-opacity="0" />
                    </linearGradient>
                    <linearGradient id="grd7" x1="1" x2="160.86" y1="148.75" y2="148.75" gradientUnits="userSpaceOnUse">
                        <stop offset="0" stop-color="#fff" stop-opacity=".2" />
                        <stop offset="1" stop-color="#fff" stop-opacity=".4" />
                    </linearGradient>
                    <linearGradient id="grd8" x1="11.66" x2="151.02" y1="148.12" y2="148.12"
                        data-name="Dégradé sans nom 19" gradientUnits="userSpaceOnUse">
                        <stop offset="0" stop-color="#fff" stop-opacity=".2" />
                        <stop offset="1" stop-color="#fff" />
                    </linearGradient>
                    <linearGradient id="grd9" x1="11.66" x2="151.02" y1="148.12" y2="148.12"
                        gradientUnits="userSpaceOnUse">
                        <stop offset="0" stop-color="#fff" stop-opacity="0" />
                        <stop offset="1" stop-color="#fff" stop-opacity=".8" />
                    </linearGradient>
                    <g id="user" fill="none" stroke-linecap="round" stroke-linejoin="round" stroke="#fff">
                        <circle cx="52" cy="52" r="51" stroke-width="2" />
                        <path stroke-width="3"
                            d="M62.69 39.13a10.92 10.92 0 1 1-21.84 0 10.92 10.92 0 0 1 21.84 0ZM31.14 69.42a21.54 21.54 0 0 1 41.26 0" />
                    </g>
                    <g id="app1" fill="none" stroke="#fff" stroke-linejoin="round" stroke-width="3">
                        <rect width="23.42" height="23.42" x="542.08" y="411.69" transform="rotate(-45 553.79 423.4)" />
                        <rect width="23.42" height="23.42" x="563.31" y="432.93"
                            transform="rotate(-45 575.02 444.64)" />
                        <rect width="23.42" height="23.42" x="521.34" y="432.43"
                            transform="rotate(-45 533.05 444.14)" />
                        <rect width="23.42" height="23.42" x="542.58" y="453.66"
                            transform="rotate(-45 554.28 465.37)" />
                    </g>
                    <g id="app2" fill="none" stroke="#fff" stroke-linejoin="round" stroke-width="3">
                        <rect width="23.42" height="23.42" x="542.08" y="551.69" transform="rotate(-45 553.8 563.41)" />
                        <rect width="23.42" height="23.42" x="563.31" y="572.93"
                            transform="rotate(-45 575.02 584.64)" />
                        <rect width="23.42" height="23.42" x="521.34" y="572.43"
                            transform="rotate(-45 533.06 584.14)" />
                        <rect width="23.42" height="23.42" x="542.58" y="593.66"
                            transform="rotate(-45 554.29 605.38)" />
                    </g>
                    <g id="app3">
                        <g fill="none" stroke="#fff" stroke-linejoin="round" stroke-width="3">
                            <rect width="23.42" height="23.42" x="542.08" y="694.69"
                                transform="rotate(-45 553.8 706.4)" />
                            <rect width="23.42" height="23.42" x="563.31" y="715.93"
                                transform="rotate(-45 575.02 727.64)" />
                            <rect width="23.42" height="23.42" x="521.34" y="715.43"
                                transform="rotate(-45 533.05 727.14)" />
                            <rect width="23.42" height="23.42" x="542.58" y="736.66"
                                transform="rotate(-45 554.28 748.37)" />
                        </g>
                        <path fill="#fff"
                            d="M539.03 780.4h1.93l3.74 9.8h-2.25l-.57-1.65h-3.75l-.59 1.65h-2.24l3.74-9.8Zm2.2 6.31-1.05-3-.15-1.06h-.07l-.14 1.06-1.05 3h2.46ZM545.85 780.4h3.92c.77 0 1.44.13 2.02.4a3.1 3.1 0 0 1 1.36 1.16c.32.5.48 1.11.48 1.81s-.16 1.29-.48 1.79c-.32.5-.77.89-1.36 1.16-.58.27-1.26.4-2.02.4h-1.78v3.09h-2.14v-9.8Zm3.79 4.89c1.23 0 1.85-.51 1.85-1.53 0-.53-.16-.92-.47-1.17-.31-.25-.77-.37-1.38-.37h-1.65v3.07h1.65ZM555.2 780.4h3.92c.77 0 1.44.13 2.02.4a3.1 3.1 0 0 1 1.36 1.16c.32.5.48 1.11.48 1.81s-.16 1.29-.48 1.79c-.32.5-.77.89-1.36 1.16-.58.27-1.26.4-2.02.4h-1.78v3.09h-2.14v-9.8Zm3.79 4.89c1.23 0 1.85-.51 1.85-1.53 0-.53-.16-.92-.47-1.17-.31-.25-.77-.37-1.38-.37h-1.65v3.07h1.65ZM565.64 789.95c-.56-.26-1.02-.62-1.37-1.09s-.55-1-.6-1.61l.11-.15 1.95-.29c.06.57.26 1.01.61 1.32s.79.46 1.31.46c.47 0 .84-.12 1.13-.36.29-.24.43-.58.43-1.02 0-.35-.1-.64-.29-.85-.19-.21-.44-.37-.74-.48s-.71-.23-1.23-.35a5.44 5.44 0 0 1-2.15-.95 2.09 2.09 0 0 1-.76-1.72c0-.52.14-.98.43-1.37a2.7 2.7 0 0 1 1.18-.9c.5-.21 1.07-.31 1.71-.31 1.03 0 1.84.25 2.44.74.6.49.96 1.14 1.08 1.95l-.11.15-1.81.2a1.72 1.72 0 0 0-.5-1.09 1.58 1.58 0 0 0-1.13-.39c-.37 0-.68.08-.91.25a.76.76 0 0 0-.35.65c0 .23.09.43.26.58s.41.28.7.38c.29.1.7.21 1.23.33.94.22 1.69.57 2.23 1.02s.82 1.13.82 2.03a3.11 3.11 0 0 1-1.86 2.9c-.57.26-1.22.39-1.92.39s-1.33-.13-1.9-.39Z" />
                    </g>
                    <g id="node">
                        <g fill="none" stroke="#fff" stroke-linecap="round" stroke-linejoin="round">
                            <circle cx="65" cy="65" r="64" stroke-width="2" />
                            <g stroke-width="3">
                                <ellipse cx="65.86" cy="40.2" rx="28.22" ry="6.65" />
                                <ellipse cx="65.86" cy="91.31" rx="28.22" ry="6.65" />
                                <path d="M94.08 40.2v50.85c0 3.67-12.63 6.65-28.22 6.65s-28.22-2.98-28.22-6.65V40.2" />
                            </g>
                        </g>
                        <path fill="#fff"
                            d="M49.05 54.45h3.49c1.06 0 1.99.19 2.77.58.78.39 1.39.95 1.81 1.69s.64 1.62.64 2.63-.21 1.9-.64 2.63-1.03 1.3-1.81 1.69c-.78.39-1.71.58-2.77.58h-3.49v-9.8Zm3.42 7.98c1.02 0 1.8-.26 2.34-.78.54-.52.81-1.29.81-2.3s-.27-1.77-.81-2.3c-.54-.52-1.32-.78-2.34-.78H51.2v6.16h1.27ZM61.63 54.45h1.93l3.74 9.8h-2.25l-.57-1.65h-3.75l-.59 1.65H57.9l3.74-9.8Zm2.2 6.31-1.05-3-.15-1.06h-.07l-.14 1.06-1.05 3h2.46ZM69.32 56.27h-2.46v-1.82h7.07v1.82h-2.46v7.98h-2.14v-7.98ZM77.22 54.45h1.93l3.74 9.8h-2.25l-.57-1.65h-3.75l-.59 1.65h-2.24l3.74-9.8Zm2.2 6.31-1.05-3-.15-1.06h-.07l-.14 1.06-1.05 3h2.46ZM46.5 67.45h2.31l3.6 5.96.17.8h.1v-6.76h2.14v9.8h-2.31l-3.6-5.96-.17-.8h-.1v6.76H46.5v-9.8ZM58.83 76.75a4.53 4.53 0 0 1-1.8-1.78c-.43-.76-.65-1.63-.65-2.62s.22-1.86.65-2.62a4.6 4.6 0 0 1 1.8-1.78c.76-.42 1.62-.64 2.58-.64s1.8.21 2.56.64a4.6 4.6 0 0 1 1.8 1.78c.43.76.65 1.64.65 2.62s-.22 1.87-.65 2.62a4.6 4.6 0 0 1-1.8 1.78c-.77.42-1.62.64-2.56.64s-1.81-.21-2.58-.64Zm4.08-1.67c.43-.27.77-.63 1.01-1.11.24-.47.36-1.02.36-1.63s-.12-1.16-.36-1.63a2.71 2.71 0 0 0-2.51-1.51c-.56 0-1.08.13-1.52.4-.43.27-.77.63-1 1.11-.23.47-.35 1.02-.35 1.63s.12 1.16.35 1.63a2.69 2.69 0 0 0 2.52 1.51c.58 0 1.07-.13 1.5-.4ZM67.99 67.45h3.49c1.06 0 1.99.19 2.77.58.78.39 1.39.95 1.81 1.69.42.74.64 1.62.64 2.63s-.21 1.9-.64 2.63a4.17 4.17 0 0 1-1.81 1.69c-.78.39-1.71.58-2.77.58h-3.49v-9.8Zm3.42 7.98c1.02 0 1.8-.26 2.34-.78.54-.52.81-1.29.81-2.3s-.27-1.77-.81-2.3c-.54-.52-1.32-.78-2.34-.78h-1.27v6.16h1.27ZM78.27 67.45h6.5v1.82h-4.35v2.17h3.98v1.82h-3.98v2.17h4.51v1.82h-6.65v-9.8Z" />
                    </g>
                    <g id="node2">
                        <g fill="none" stroke="#fff" stroke-linecap="round" stroke-linejoin="round">
                            <circle cx="65" cy="65" r="64" stroke-width="2" />
                            <g stroke-width="3">
                                <ellipse cx="65.86" cy="40.2" rx="28.22" ry="6.65" />
                                <ellipse cx="65.86" cy="91.31" rx="28.22" ry="6.65" />
                                <path d="M94.08 40.2v50.85c0 3.67-12.63 6.65-28.22 6.65s-28.22-2.98-28.22-6.65V40.2" />
                            </g>
                        </g>
                        <path fill="#fff"
                            d="M45.92 63.26c-.77-.42-1.38-1.01-1.83-1.77s-.68-1.64-.68-2.64.23-1.88.68-2.64 1.06-1.35 1.83-1.77a5.19 5.19 0 0 1 2.53-.63c.8 0 1.52.14 2.15.41.63.27 1.15.65 1.55 1.13.4.49.67 1.05.81 1.68l-.13.2-1.92.25a2.3 2.3 0 0 0-.9-1.3 2.74 2.74 0 0 0-1.62-.46 2.66 2.66 0 0 0-2.49 1.51c-.23.48-.34 1.02-.34 1.62s.12 1.15.35 1.62c.23.48.57.85 1 1.11s.95.4 1.53.4 1.14-.15 1.57-.46c.43-.31.73-.74.9-1.3l1.92.25.11.2a4.43 4.43 0 0 1-1.65 2.39c-.78.56-1.73.83-2.84.83-.92 0-1.76-.21-2.53-.63ZM54.52 53.95h2.14v3.99h3.74v-3.99h2.14v9.8H60.4v-3.99h-3.74v3.99h-2.14v-9.8ZM67.43 53.95h1.93l3.74 9.8h-2.25l-.57-1.65h-3.75l-.59 1.65H63.7l3.74-9.8Zm2.2 6.31-1.05-3-.15-1.06h-.07l-.14 1.06-1.05 3h2.46ZM74.24 53.95h2.14v9.8h-2.14v-9.8ZM78.23 53.95h2.31l3.6 5.96.17.8h.1v-6.76h2.14v9.8h-2.31l-3.6-5.96-.17-.8h-.1v6.76h-2.14v-9.8ZM46 66.95h2.31l3.6 5.96.17.8h.1v-6.76h2.14v9.8h-2.31l-3.6-5.96-.17-.8h-.1v6.76H46v-9.8ZM58.33 76.25a4.53 4.53 0 0 1-1.8-1.78c-.43-.76-.65-1.63-.65-2.62s.22-1.86.65-2.62c.43-.76 1.03-1.35 1.8-1.78s1.62-.64 2.58-.64 1.8.21 2.56.64a4.6 4.6 0 0 1 1.8 1.78c.43.76.65 1.64.65 2.62s-.22 1.87-.65 2.62a4.6 4.6 0 0 1-1.8 1.78c-.77.42-1.62.64-2.56.64s-1.81-.21-2.58-.64Zm4.08-1.67c.43-.27.77-.63 1.01-1.11.24-.47.36-1.02.36-1.63s-.12-1.16-.36-1.63a2.71 2.71 0 0 0-2.51-1.51c-.56 0-1.08.13-1.52.4-.43.27-.77.63-1 1.11-.23.47-.35 1.02-.35 1.63s.12 1.16.35 1.63a2.69 2.69 0 0 0 2.52 1.51c.58 0 1.07-.13 1.5-.4ZM67.49 66.95h3.49c1.06 0 1.99.19 2.77.58.78.39 1.39.95 1.81 1.69.42.74.64 1.62.64 2.63s-.21 1.9-.64 2.63a4.17 4.17 0 0 1-1.81 1.69c-.78.39-1.71.58-2.77.58h-3.49v-9.8Zm3.42 7.98c1.02 0 1.8-.26 2.34-.78.54-.52.81-1.29.81-2.3s-.27-1.77-.81-2.3c-.54-.52-1.32-.78-2.34-.78h-1.27v6.16h1.27ZM77.77 66.95h6.5v1.82h-4.35v2.17h3.98v1.82h-3.98v2.17h4.51v1.82h-6.65v-9.8Z" />
                    </g>
                    <g id="miner">
                        <g fill="none" stroke="#fff" stroke-linecap="round" stroke-linejoin="round">
                            <circle cx="65" cy="65" r="64" stroke-width="2" />
                            <g stroke-width="2.8">
                                <path
                                    d="m77.87 59.02-39.94 21.3a4.69 4.69 0 0 1-6.34-1.93h0a4.69 4.69 0 0 1 1.93-6.34l39.94-21.3M84.53 44.85l1.47-.78c.89-.48 2-.14 2.48.76l2.69 5.04c.48.89.14 2-.76 2.48l-1.56.83M82.23 61.46l11.5 21.57s5.27-7.06-4.47-25.32l-7.04 3.75ZM73.86 45.77 62.36 24.2s8.8-.44 18.54 17.82l-7.04 3.75Z" />
                                <rect width="11.54" height="17.78" x="75.79" y="42.85" rx="1.68" ry="1.68"
                                    transform="rotate(-28.07 81.57 51.74)" />
                            </g>
                        </g>
                        <g fill="#fff">
                            <path
                                d="M39.69 91.52h2.06l2.91 7.17 2.9-7.17h2.06v9.8H47.6v-5.67h-.08l-.17 1.19-1.79 4.48h-1.81l-1.79-4.48-.17-1.19h-.08v5.67h-2.02v-9.8ZM51.46 91.52h2.14v9.8h-2.14v-9.8ZM55.45 91.52h2.31l3.6 5.96.17.8h.1v-6.76h2.14v9.8h-2.31l-3.6-5.96-.17-.8h-.1v6.76h-2.14v-9.8ZM65.62 91.52h6.5v1.82h-4.35v2.17h3.98v1.82h-3.98v2.17h4.51v1.82h-6.65v-9.8ZM73.93 91.52h3.71c1.15 0 2.06.29 2.74.86a2.95 2.95 0 0 1 1.02 2.39c0 1.19-.54 2.1-1.61 2.76v.15l2.11 3.64h-2.35l-1.93-3.37h-1.55v3.37h-2.14v-9.8Zm3.75 4.61c.48 0 .86-.12 1.15-.36.29-.24.43-.58.43-1.03s-.14-.8-.43-1.04a1.75 1.75 0 0 0-1.16-.36h-1.61v2.79h1.61ZM84.54 101.07a3.52 3.52 0 0 1-1.37-1.09c-.34-.47-.55-1-.6-1.61l.11-.15 1.95-.29c.06.57.26 1.01.61 1.32.35.31.79.46 1.31.46.47 0 .84-.12 1.13-.36.29-.24.43-.58.43-1.02 0-.35-.1-.64-.29-.85s-.44-.37-.74-.48-.71-.23-1.23-.35a5.44 5.44 0 0 1-2.15-.95 2.09 2.09 0 0 1-.76-1.72c0-.52.14-.98.43-1.37.29-.39.68-.69 1.18-.9.5-.21 1.07-.31 1.71-.31 1.03 0 1.84.25 2.44.74s.96 1.14 1.08 1.95l-.11.15-1.81.2a1.72 1.72 0 0 0-.5-1.09 1.58 1.58 0 0 0-1.13-.39c-.37 0-.68.08-.91.25s-.35.38-.35.65c0 .23.09.43.26.58s.41.28.7.38c.29.1.7.21 1.22.33.94.22 1.69.57 2.23 1.02s.82 1.13.82 2.03a3.11 3.11 0 0 1-1.86 2.9c-.57.26-1.22.39-1.92.39s-1.33-.13-1.9-.39Z" />
                        </g>
                    </g>
                    <g id="dots">
                        <g fill="#FFF">
                            <path d="M-24-4.2a4.2 4.2 0 1 1 0 8.4 4.2 4.2 0 1 1 0-8.4z" opacity=".3" />
                            <path d="M-12-4.2a4.2 4.2 0 1 1 0 8.4 4.2 4.2 0 1 1 0-8.4z" opacity=".5" />
                            <path d="M0-4.2a4.2 4.2 0 1 1 0 8.4 4.2 4.2 0 1 1 0-8.4z" />
                            <path d="M12-4.2a4.2 4.2 0 1 1 0 8.4 4.2 4.2 0 1 1 0-8.4z" opacity=".5" />
                            <path d="M24-4.2a4.2 4.2 0 1 1 0 8.4 4.2 4.2 0 1 1 0-8.4z" opacity=".3" />
                        </g>
                    </g>
                    <line id="beam" x1="-90" y1="0" x2="90" y2="0.05" stroke="url(#lgrd1)" fill="none"
                        stroke-linecap="round" stroke-width="6" />
                    <path id="dlr" fill="#FFF"
                        d="M1.41 11.19v3.33h-2.82v-3.33c-4.25-.45-6.83-2.49-7.75-6.14l4.85-1.11c.55 2.08 2.07 3.12 4.55 3.12 1.87.01 3.47-.61 3.58-2.35-.22-2-1.65-1.94-3.9-2.54-3.34-.69-5.5-1.62-6.47-2.79-3.53-4.18-.26-10.8 5.13-11.12v-2.79H1.4v2.75c3.63.34 6.01 2.08 7.13 5.2l-4.44 1.5c-.63-3.9-9.24-3.35-6.35.73C.97-2.56 6.16-3.12 8.07.29c3.12 4.79-.83 10.75-6.66 10.9z" />
                    <g id="usapp">
                        <g fill="none" stroke="#fff" stroke-linecap="round" stroke-linejoin="round" stroke-width="3">
                            <path d="M63.69 34.64a10.92 10.92 0 1 1-21.84 0 10.92 10.92 0 0 1 21.84 0Z" />
                            <path d="M32.14 64.92a21.54 21.54 0 0 1 41.26 0" />
                        </g>
                        <g fill="none" stroke="#fff" stroke-linejoin="round" stroke-width="2">
                            <rect width="14.07" height="14.07" x="102.27" y="23.85"
                                transform="rotate(-45 109.3 30.88)" />
                            <rect width="14.07" height="14.07" x="115.02" y="36.6"
                                transform="rotate(-45 122.06 43.64)" />
                            <rect width="14.07" height="14.07" x="89.81" y="36.3" transform="rotate(-45 96.84 43.34)" />
                            <rect width="14.07" height="14.07" x="102.56" y="49.06"
                                transform="rotate(-45 109.6 56.1)" />
                        </g>
                        <g fill="#fff">
                            <path
                                d="M99.23 74.4h1.93l3.74 9.8h-2.25l-.57-1.65h-3.75l-.59 1.65H95.5l3.74-9.8Zm2.2 6.31-1.05-3-.15-1.06h-.07l-.14 1.06-1.05 3h2.46Z" />
                            <path
                                d="M106.04 74.4h3.92c.77 0 1.44.13 2.02.4a3.1 3.1 0 0 1 1.36 1.16c.32.5.48 1.11.48 1.81s-.16 1.29-.48 1.79c-.32.5-.77.89-1.36 1.16-.58.27-1.26.4-2.02.4h-1.78v3.09h-2.14v-9.8Zm3.79 4.89c1.23 0 1.85-.51 1.85-1.53 0-.53-.16-.92-.47-1.17-.31-.25-.77-.37-1.38-.37h-1.65v3.07h1.65Z" />
                            <path
                                d="M115.4 74.4h3.92c.77 0 1.44.13 2.02.4a3.1 3.1 0 0 1 1.36 1.16c.32.5.48 1.11.48 1.81s-.16 1.29-.48 1.79c-.32.5-.77.89-1.36 1.16-.58.27-1.26.4-2.02.4h-1.78v3.09h-2.14v-9.8Zm3.79 4.89c1.23 0 1.85-.51 1.85-1.53 0-.53-.16-.92-.47-1.17-.31-.25-.77-.37-1.38-.37h-1.65v3.07h1.65Z" />
                            <path
                                d="M32.92 83.84c-.6-.33-1.06-.79-1.38-1.39s-.48-1.29-.48-2.09V74.4h2.14v5.95c0 .68.16 1.2.48 1.55s.78.53 1.39.53 1.07-.18 1.39-.53.48-.87.48-1.55V74.4h2.14v5.96c0 .79-.16 1.49-.48 2.09-.32.6-.78 1.06-1.38 1.39-.6.33-1.32.5-2.15.5s-1.55-.17-2.15-.5Z" />
                            <path
                                d="M42.34 83.95c-.56-.26-1.02-.62-1.37-1.09s-.55-1-.6-1.61l.11-.15 1.95-.29c.06.57.26 1.01.61 1.32s.79.46 1.31.46c.47 0 .84-.12 1.13-.36.29-.24.43-.58.43-1.02 0-.35-.1-.64-.29-.85-.19-.21-.44-.37-.74-.48s-.71-.23-1.23-.35a5.44 5.44 0 0 1-2.15-.95 2.09 2.09 0 0 1-.76-1.72c0-.52.14-.98.43-1.37a2.7 2.7 0 0 1 1.18-.9c.5-.21 1.07-.31 1.71-.31 1.03 0 1.84.25 2.44.74.6.49.96 1.14 1.08 1.95l-.11.15-1.81.2a1.72 1.72 0 0 0-.5-1.09 1.58 1.58 0 0 0-1.13-.39c-.37 0-.68.08-.91.25a.76.76 0 0 0-.35.65c0 .23.09.43.26.58s.41.28.7.38c.29.1.7.21 1.23.33.94.22 1.69.57 2.23 1.02s.82 1.13.82 2.03a3.11 3.11 0 0 1-1.86 2.9c-.57.26-1.22.39-1.92.39s-1.33-.13-1.9-.39Z" />
                            <path d="M49.65 74.4h6.5v1.82H51.8v2.17h3.98v1.82H51.8v2.17h4.51v1.82h-6.65v-9.8Z" />
                            <path
                                d="M57.96 74.4h3.71c1.15 0 2.06.29 2.74.86a2.95 2.95 0 0 1 1.02 2.39c0 1.19-.54 2.1-1.61 2.76v.15l2.11 3.64h-2.35l-1.93-3.37H60.1v3.37h-2.14v-9.8Zm3.75 4.61c.48 0 .86-.12 1.15-.36.29-.24.43-.58.43-1.03s-.14-.8-.43-1.04-.67-.36-1.16-.36h-1.61v2.79h1.61Z" />
                            <path
                                d="M68.57 83.95c-.56-.26-1.02-.62-1.37-1.09s-.55-1-.6-1.61l.11-.15 1.95-.29c.06.57.26 1.01.61 1.32s.79.46 1.31.46c.47 0 .84-.12 1.13-.36.29-.24.43-.58.43-1.02 0-.35-.1-.64-.29-.85-.19-.21-.44-.37-.74-.48s-.71-.23-1.23-.35a5.44 5.44 0 0 1-2.15-.95 2.09 2.09 0 0 1-.76-1.72c0-.52.14-.98.43-1.37a2.7 2.7 0 0 1 1.18-.9c.5-.21 1.07-.31 1.71-.31 1.03 0 1.84.25 2.44.74.6.49.96 1.14 1.08 1.95l-.11.15-1.81.2a1.72 1.72 0 0 0-.5-1.09 1.58 1.58 0 0 0-1.13-.39c-.37 0-.68.08-.91.25a.76.76 0 0 0-.35.65c0 .23.09.43.26.58s.41.28.7.38c.29.1.7.21 1.23.33.94.22 1.69.57 2.23 1.02s.82 1.13.82 2.03a3.11 3.11 0 0 1-1.86 2.9c-.57.26-1.22.39-1.92.39s-1.33-.13-1.9-.39Z" />
                        </g>
                        <rect width="157" height="103" x="1" y="1" fill="none" stroke="#fff" stroke-linecap="round"
                            stroke-linejoin="round" stroke-width="2" rx="51.5" ry="51.5" />
                    </g>
                    <g id="saito_node">
                        <path fill="none" stroke="#fff" stroke-linecap="round" stroke-linejoin="round" stroke-width="2"
                            d="M36.14 110.31A64 64 0 0 1 81.34 1a64 64 0 0 1 45.41 109.1" />
                        <g fill="none" stroke="#fff" stroke-linecap="round" stroke-linejoin="round" stroke-width="4">
                            <ellipse cx="81.7" cy="41.7" rx="28.22" ry="6.65" />
                            <ellipse cx="81.7" cy="92.81" rx="28.22" ry="6.65" />
                            <path d="M109.92 41.7v50.85c0 3.67-12.63 6.65-28.22 6.65s-28.22-2.98-28.22-6.65V41.7" />
                        </g>
                        <g fill="#fff">
                            <path
                                d="M62.26 66.26c-.77-.42-1.38-1.01-1.83-1.77s-.68-1.64-.68-2.64.23-1.88.68-2.64 1.06-1.35 1.83-1.77a5.19 5.19 0 0 1 2.53-.63c.8 0 1.52.14 2.15.41.63.27 1.15.65 1.55 1.13.4.49.67 1.05.81 1.68l-.13.2-1.92.25a2.3 2.3 0 0 0-.9-1.3 2.74 2.74 0 0 0-1.62-.46 2.66 2.66 0 0 0-2.49 1.51c-.23.48-.34 1.02-.34 1.62s.12 1.15.35 1.62c.23.48.57.85 1 1.11s.95.4 1.53.4 1.14-.15 1.57-.46c.43-.31.73-.74.9-1.3l1.92.25.11.2a4.43 4.43 0 0 1-1.65 2.39c-.78.56-1.73.83-2.84.83-.92 0-1.76-.21-2.53-.63Z" />
                            <path d="M70.86 56.95H73v3.99h3.74v-3.99h2.14v9.8h-2.14v-3.99H73v3.99h-2.14v-9.8Z" />
                            <path
                                d="M83.77 56.95h1.93l3.74 9.8h-2.25l-.57-1.65h-3.75l-.59 1.65h-2.24l3.74-9.8Zm2.2 6.31-1.05-3-.15-1.06h-.07l-.14 1.06-1.05 3h2.46Z" />
                            <path d="M90.59 56.95h2.14v9.8h-2.14v-9.8Z" />
                            <path
                                d="M94.58 56.95h2.31l3.6 5.96.17.8h.1v-6.76h2.14v9.8h-2.31l-3.6-5.96-.17-.8h-.1v6.76h-2.14v-9.8Z" />
                            <path
                                d="M62.34 69.95h2.31l3.6 5.96.17.8h.1v-6.76h2.14v9.8h-2.31l-3.6-5.96-.17-.8h-.1v6.76h-2.14v-9.8Z" />
                            <path
                                d="M74.67 79.25a4.53 4.53 0 0 1-1.8-1.78c-.43-.76-.65-1.63-.65-2.62s.22-1.86.65-2.62c.43-.76 1.03-1.35 1.8-1.78s1.62-.64 2.58-.64 1.8.21 2.56.64a4.6 4.6 0 0 1 1.8 1.78c.43.76.65 1.64.65 2.62s-.22 1.87-.65 2.62a4.6 4.6 0 0 1-1.8 1.78c-.77.42-1.62.64-2.56.64s-1.81-.21-2.58-.64Zm4.08-1.67c.43-.27.77-.63 1.01-1.11.24-.47.36-1.02.36-1.63s-.12-1.16-.36-1.63a2.71 2.71 0 0 0-2.51-1.51c-.56 0-1.08.13-1.52.4-.43.27-.77.63-1 1.11-.23.47-.35 1.02-.35 1.63s.12 1.16.35 1.63a2.69 2.69 0 0 0 2.52 1.51c.58 0 1.07-.13 1.5-.4Z" />
                            <path
                                d="M83.83 69.95h3.49c1.06 0 1.99.19 2.77.58.78.39 1.39.95 1.81 1.69.42.74.64 1.62.64 2.63s-.21 1.9-.64 2.63a4.17 4.17 0 0 1-1.81 1.69c-.78.39-1.71.58-2.77.58h-3.49v-9.8Zm3.42 7.98c1.02 0 1.8-.26 2.34-.78.54-.52.81-1.29.81-2.3s-.27-1.77-.81-2.3c-.54-.52-1.32-.78-2.34-.78h-1.27v6.16h1.27Z" />
                            <path d="M94.11 69.95h6.5v1.82h-4.35v2.17h3.98v1.82h-3.98v2.17h4.51v1.82h-6.65v-9.8Z" />
                        </g>
                        <rect width="159.86" height="74" x="1" y="111.75" fill="url(#grd7)" stroke="#fff"
                            stroke-dasharray="24 16" stroke-linecap="square" stroke-miterlimit="10" stroke-width="2"
                            rx="12" ry="12" />
                        <rect width="139.36" height="47.2" x="11.66" y="124.52" fill="url(#grd8)" rx="12" ry="12" />
                        <path fill="url(#grd9)"
                            d="M139.02 125.2c6.24 0 11.32 5.08 11.32 11.32v23.2c0 6.24-5.08 11.32-11.32 11.32H23.66a11.34 11.34 0 0 1-11.32-11.32v-23.2c0-6.24 5.08-11.32 11.32-11.32h115.36m0-.68H23.66c-6.6 0-12 5.4-12 12v23.2c0 6.6 5.4 12 12 12h115.36c6.6 0 12-5.4 12-12v-23.2c0-6.6-5.4-12-12-12Z" />
                        <g fill="#fff">
                            <path d="M20.71 198.79h2.14v9.8h-2.14v-9.8Z" />
                            <path
                                d="M24.7 198.79h2.31l3.6 5.96.17.8h.1v-6.76h2.14v9.8h-2.31l-3.6-5.96-.17-.8h-.1v6.76H24.7v-9.8Z" />
                            <path d="M34.86 198.79h6.66v1.82H37v2.27h4.16v1.83H37v3.88h-2.14v-9.8Z" />
                            <path
                                d="M43.01 198.79h3.71c1.15 0 2.06.29 2.74.86a2.95 2.95 0 0 1 1.02 2.39c0 1.19-.54 2.1-1.61 2.76v.15l2.11 3.64h-2.35l-1.93-3.37h-1.55v3.37h-2.14v-9.8Zm3.75 4.61c.48 0 .86-.12 1.15-.36.29-.24.43-.58.43-1.03s-.14-.8-.43-1.04-.67-.36-1.16-.36h-1.61v2.79h1.61Z" />
                            <path
                                d="M55.37 198.79h1.93l3.74 9.8h-2.25l-.57-1.65h-3.75l-.59 1.65h-2.24l3.74-9.8Zm2.2 6.31-1.05-3-.15-1.06h-.07l-.14 1.06-1.05 3h2.46Z" />
                            <path
                                d="M63.47 208.33c-.56-.26-1.02-.62-1.37-1.09s-.55-1-.6-1.61l.11-.15 1.95-.29c.06.57.26 1.01.61 1.32.35.31.79.46 1.31.46.47 0 .84-.12 1.13-.36.29-.24.43-.58.43-1.02 0-.35-.1-.64-.29-.85-.19-.21-.44-.37-.74-.48s-.71-.23-1.23-.35a5.44 5.44 0 0 1-2.15-.95 2.09 2.09 0 0 1-.76-1.72c0-.52.14-.98.43-1.37.29-.39.68-.69 1.18-.9.5-.21 1.07-.31 1.71-.31 1.03 0 1.84.25 2.44.74.6.49.96 1.14 1.08 1.95l-.11.15-1.81.2a1.67 1.67 0 0 0-.5-1.09 1.58 1.58 0 0 0-1.13-.39c-.37 0-.68.08-.91.25a.76.76 0 0 0-.35.65c0 .23.09.43.26.58.17.15.41.28.7.38.29.1.7.21 1.22.33.94.22 1.69.57 2.23 1.02.55.46.82 1.13.82 2.03a3.11 3.11 0 0 1-1.86 2.9c-.57.26-1.22.39-1.93.39s-1.33-.13-1.9-.39Z" />
                            <path d="M71.89 200.6h-2.46v-1.82h7.07v1.82h-2.46v7.98H71.9v-7.98Z" />
                            <path
                                d="M77.87 198.79h3.71c1.15 0 2.06.29 2.74.86a2.95 2.95 0 0 1 1.02 2.39c0 1.19-.54 2.1-1.61 2.76v.15l2.11 3.64h-2.35l-1.93-3.37h-1.55v3.37h-2.14v-9.8Zm3.75 4.61c.48 0 .86-.12 1.15-.36.29-.24.43-.58.43-1.03s-.14-.8-.43-1.04-.67-.36-1.16-.36H80v2.79h1.61Z" />
                            <path
                                d="M88.93 208.23a3.36 3.36 0 0 1-1.38-1.39 4.36 4.36 0 0 1-.48-2.09v-5.96h2.14v5.95c0 .68.16 1.2.48 1.55s.78.53 1.39.53 1.07-.18 1.38-.53c.32-.35.48-.87.48-1.55v-5.95h2.14v5.96c0 .79-.16 1.49-.48 2.09-.32.6-.78 1.06-1.38 1.39-.6.33-1.32.5-2.15.5s-1.55-.17-2.15-.5Z" />
                            <path
                                d="M99.17 208.09c-.77-.42-1.38-1.01-1.83-1.77s-.68-1.64-.68-2.64.23-1.88.68-2.64 1.06-1.35 1.83-1.77a5.19 5.19 0 0 1 2.53-.63c.8 0 1.52.14 2.15.41.63.27 1.15.65 1.55 1.13.4.49.67 1.05.81 1.68l-.13.2-1.92.25a2.3 2.3 0 0 0-.9-1.3 2.74 2.74 0 0 0-1.62-.46 2.66 2.66 0 0 0-2.49 1.51c-.23.48-.34 1.02-.34 1.62s.12 1.15.35 1.62c.23.48.57.85 1 1.11s.95.4 1.53.4 1.14-.15 1.57-.46c.43-.31.73-.74.9-1.3l1.92.25.11.2a4.43 4.43 0 0 1-1.65 2.39c-.78.56-1.73.83-2.84.83-.92 0-1.76-.21-2.53-.63Z" />
                            <path d="M109.2 200.6h-2.46v-1.82h7.07v1.82h-2.46v7.98h-2.14v-7.98Z" />
                            <path
                                d="M117.03 208.23a3.36 3.36 0 0 1-1.38-1.39 4.36 4.36 0 0 1-.48-2.09v-5.96h2.14v5.95c0 .68.16 1.2.48 1.55s.78.53 1.39.53 1.07-.18 1.38-.53c.32-.35.48-.87.48-1.55v-5.95h2.14v5.96c0 .79-.16 1.49-.48 2.09-.32.6-.78 1.06-1.38 1.39-.6.33-1.32.5-2.15.5s-1.55-.17-2.15-.5Z" />
                            <path
                                d="M125.03 198.79h3.71c1.15 0 2.06.29 2.74.86a2.95 2.95 0 0 1 1.02 2.39c0 1.19-.54 2.1-1.61 2.76v.15l2.11 3.64h-2.35l-1.93-3.37h-1.55v3.37h-2.14v-9.8Zm3.75 4.61c.48 0 .86-.12 1.15-.36.29-.24.43-.58.43-1.03s-.14-.8-.43-1.04a1.72 1.72 0 0 0-1.15-.36h-1.61v2.79h1.61Z" />
                            <path d="M134.36 198.79h6.5v1.82h-4.35v2.17h3.98v1.82h-3.98v2.17h4.51v1.82h-6.65v-9.8Z" />
                        </g>
                    </g>
                </defs>
                <!-- Saito switch -->
                <g id="switch" class="op h">
                    <g id="switch-bg" fill="#fff">
                        <rect width="350.78" height="77.23" x="373.81" y="137.9" opacity=".4" rx="11" ry="11"
                            fill="#000" filter="url(#f1)" />
                        <rect width="350.78" height="77.23" x="373.81" y="137.9" opacity=".8" rx="11" ry="11" />
                        <path
                            d="M713.59 138.9c5.51 0 10 4.49 10 10v55.23c0 5.51-4.49 10-10 10H384.81c-5.51 0-10-4.49-10-10V148.9c0-5.51 4.49-10 10-10h328.78m0-2H384.81c-6.6 0-12 5.4-12 12v55.23c0 6.6 5.4 12 12 12h328.78c6.6 0 12-5.4 12-12V148.9c0-6.6-5.4-12-12-12Z" />
                    </g>
                    <g id="lbl-not-saito" fill="#f61745">
                        <path
                            d="M408.91 164.87h4.38l6.83 12.73.32 1.7h.19v-14.44h4.07v20.93h-4.38l-6.83-12.73-.32-1.7h-.19v14.44h-4.07v-20.93ZM430.91 185.07a7.06 7.06 0 0 1-2.58-2.78c-.62-1.18-.93-2.5-.93-3.98s.31-2.8.93-3.98a7.06 7.06 0 0 1 6.3-3.8 7.03 7.03 0 0 1 6.33 3.8c.62 1.18.93 2.5.93 3.98s-.31 2.8-.93 3.98a7.06 7.06 0 0 1-6.33 3.8c-1.4 0-2.62-.34-3.72-1.02Zm6.26-3.72c.66-.75 1-1.76 1-3.03s-.33-2.29-1-3.03c-.66-.75-1.51-1.12-2.54-1.12s-1.87.37-2.52 1.12c-.66.75-.98 1.76-.98 3.03s.33 2.29.98 3.03c.65.75 1.5 1.12 2.52 1.12s1.87-.37 2.54-1.12ZM446.27 184.95c-.73-.76-1.09-1.89-1.09-3.41v-7.23h-2.36v-3.47h2.36v-4.27h.48l3.22 1.26v3.02h2.82v3.47h-2.82v6.88c0 .48.12.85.37 1.11.25.26.6.39 1.06.39.28 0 .64-.07 1.06-.21l.19.12v3.2c-.76.2-1.54.3-2.34.3a3.9 3.9 0 0 1-2.95-1.14ZM463.02 185.25a6.77 6.77 0 0 1-2.59-2.33 7.1 7.1 0 0 1-1.14-3.44l.21-.33 3.69-.63a4.33 4.33 0 0 0 1.16 2.81c.66.66 1.49.99 2.48.99a3 3 0 0 0 2.15-.78c.55-.52.82-1.25.82-2.18 0-.76-.18-1.36-.54-1.81s-.83-.79-1.4-1.03-1.35-.49-2.34-.75a10 10 0 0 1-4.08-2.03 4.7 4.7 0 0 1-1.45-3.68 5.14 5.14 0 0 1 3.06-4.84 7.69 7.69 0 0 1 3.24-.66c1.95 0 3.49.52 4.62 1.57a6.7 6.7 0 0 1 2.05 4.17l-.21.33-3.43.42c-.11-1-.42-1.77-.94-2.33a2.79 2.79 0 0 0-2.14-.84c-.71 0-1.28.17-1.73.52s-.66.81-.66 1.39c0 .5.16.91.49 1.24.33.33.77.6 1.33.81.56.21 1.33.44 2.32.7a9.83 9.83 0 0 1 4.24 2.18c1.04.98 1.55 2.42 1.55 4.33 0 1.43-.31 2.69-.94 3.75a6.25 6.25 0 0 1-2.58 2.44c-1.09.56-2.31.84-3.65.84s-2.53-.28-3.6-.84ZM477.98 185.54a4.04 4.04 0 0 1-1.54-1.58 4.9 4.9 0 0 1-.57-2.41 4.4 4.4 0 0 1 1.25-3.27 5.55 5.55 0 0 1 3.43-1.48l3.59-.42v-.66c0-.68-.19-1.21-.57-1.58a2.18 2.18 0 0 0-1.61-.57c-.62 0-1.12.18-1.49.55-.37.37-.6.87-.69 1.51l-3.14-.3-.13-.18a5.35 5.35 0 0 1 1.89-3.42 5.62 5.62 0 0 1 3.61-1.18c1.68 0 3.05.47 4.09 1.42a5.14 5.14 0 0 1 1.57 3.99v5.35c0 .46.08.81.25 1.05.17.24.4.36.7.36.19 0 .36-.03.5-.09l.13.18v2.87c-.53.2-1.14.3-1.83.3a2.98 2.98 0 0 1-2.98-2.03h-.19a6.91 6.91 0 0 1-1.91 1.61 4.63 4.63 0 0 1-4.37-.01Zm4.65-3.15c.49-.36.99-.91 1.5-1.64v-1.73l-2.92.42c-.62.08-1.09.29-1.42.63-.33.34-.49.76-.49 1.26s.15.89.47 1.18c.31.29.7.43 1.18.43.64 0 1.2-.18 1.69-.54ZM491.87 168.48c-.42-.48-.64-1.05-.64-1.7s.21-1.23.64-1.7a1.97 1.97 0 0 1 3.04 0c.42.48.62 1.05.62 1.7s-.21 1.23-.62 1.7a1.96 1.96 0 0 1-3.04 0Zm-.35 2.36h3.72v14.95h-3.72v-14.95ZM500.77 184.95c-.73-.76-1.09-1.89-1.09-3.41v-7.23h-2.36v-3.47h2.36v-4.27h.48l3.22 1.26v3.02h2.82v3.47h-2.82v6.88c0 .48.12.85.37 1.11.25.26.6.39 1.06.39.28 0 .64-.07 1.06-.21l.19.12v3.2c-.76.2-1.54.3-2.34.3a3.9 3.9 0 0 1-2.95-1.14ZM511.32 185.07a7.06 7.06 0 0 1-2.58-2.78c-.62-1.18-.93-2.5-.93-3.98s.31-2.8.93-3.98a7.06 7.06 0 0 1 6.3-3.8 7.03 7.03 0 0 1 6.33 3.8c.62 1.18.93 2.5.93 3.98s-.31 2.8-.93 3.98a7.06 7.06 0 0 1-6.33 3.8c-1.4 0-2.62-.34-3.72-1.02Zm6.26-3.72c.66-.75 1-1.76 1-3.03s-.33-2.29-1-3.03c-.66-.75-1.51-1.12-2.54-1.12s-1.87.37-2.52 1.12c-.66.75-.98 1.76-.98 3.03s.33 2.29.98 3.03c.65.75 1.5 1.12 2.52 1.12s1.87-.37 2.54-1.12Z" />
                    </g>
                    <g id="lbl-saito" opacity=".2">
                        <path
                            d="M633.51 185.25a6.77 6.77 0 0 1-2.59-2.33 7.1 7.1 0 0 1-1.14-3.44l.21-.33 3.69-.63a4.33 4.33 0 0 0 1.16 2.81c.66.66 1.49.99 2.48.99a3 3 0 0 0 2.15-.78c.55-.52.82-1.25.82-2.18 0-.76-.18-1.36-.54-1.81s-.83-.79-1.4-1.03-1.35-.49-2.34-.75a10 10 0 0 1-4.08-2.03 4.7 4.7 0 0 1-1.45-3.68 5.14 5.14 0 0 1 3.06-4.84 7.69 7.69 0 0 1 3.24-.66c1.95 0 3.49.52 4.62 1.57a6.7 6.7 0 0 1 2.05 4.17l-.21.33-3.43.42c-.11-1-.42-1.77-.94-2.33a2.79 2.79 0 0 0-2.14-.84c-.71 0-1.28.17-1.73.52s-.66.81-.66 1.39c0 .5.16.91.49 1.24.33.33.77.6 1.33.81.56.21 1.33.44 2.32.7a9.83 9.83 0 0 1 4.24 2.18c1.04.98 1.55 2.42 1.55 4.33 0 1.43-.31 2.69-.94 3.75a6.25 6.25 0 0 1-2.58 2.44c-1.09.56-2.31.84-3.65.84s-2.53-.28-3.6-.84ZM648.47 185.54a4.04 4.04 0 0 1-1.54-1.58 4.9 4.9 0 0 1-.57-2.41 4.4 4.4 0 0 1 1.25-3.27 5.55 5.55 0 0 1 3.43-1.48l3.59-.42v-.66c0-.68-.19-1.21-.57-1.58a2.18 2.18 0 0 0-1.61-.57c-.62 0-1.12.18-1.49.55-.37.37-.6.87-.69 1.51l-3.14-.3-.13-.18a5.35 5.35 0 0 1 1.89-3.42 5.62 5.62 0 0 1 3.61-1.18c1.68 0 3.05.47 4.09 1.42a5.14 5.14 0 0 1 1.57 3.99v5.35c0 .46.08.81.25 1.05.17.24.4.36.7.36.19 0 .36-.03.5-.09l.13.18v2.87c-.53.2-1.14.3-1.83.3a2.98 2.98 0 0 1-2.98-2.03h-.19a6.91 6.91 0 0 1-1.91 1.61 4.63 4.63 0 0 1-4.37-.01Zm4.65-3.15c.49-.36.99-.91 1.5-1.64v-1.73l-2.92.42c-.62.08-1.09.29-1.42.63-.33.34-.49.76-.49 1.26s.15.89.47 1.18c.31.29.7.43 1.18.43.64 0 1.2-.18 1.69-.54ZM662.35 168.48c-.42-.48-.64-1.05-.64-1.7s.21-1.23.64-1.7a1.97 1.97 0 0 1 3.04 0c.42.48.62 1.05.62 1.7s-.21 1.23-.62 1.7a1.96 1.96 0 0 1-3.04 0Zm-.35 2.36h3.72v14.95H662v-14.95ZM671.25 184.95c-.73-.76-1.09-1.89-1.09-3.41v-7.23h-2.36v-3.47h2.36v-4.27h.48l3.22 1.26v3.02h2.82v3.47h-2.82v6.88c0 .48.12.85.37 1.11.25.26.6.39 1.06.39.28 0 .64-.07 1.06-.21l.19.12v3.2c-.76.2-1.54.3-2.34.3a3.9 3.9 0 0 1-2.95-1.14ZM681.8 185.07a7.06 7.06 0 0 1-2.58-2.78c-.62-1.18-.93-2.5-.93-3.98s.31-2.8.93-3.98a7.06 7.06 0 0 1 6.3-3.8 7.03 7.03 0 0 1 6.33 3.8c.62 1.18.93 2.5.93 3.98s-.31 2.8-.93 3.98a7.06 7.06 0 0 1-6.33 3.8c-1.4 0-2.62-.34-3.72-1.02Zm6.26-3.72c.66-.75 1-1.76 1-3.03s-.33-2.29-1-3.03c-.66-.75-1.51-1.12-2.54-1.12s-1.87.37-2.52 1.12c-.66.75-.98 1.76-.98 3.03s.33 2.29.98 3.03c.65.75 1.5 1.12 2.52 1.12s1.87-.37 2.54-1.12Z" />
                    </g>
                    <g id="switch-body">
                        <rect id="switch_on" width="64.29" height="38.41" x="543.83" y="155.18" fill="#8a8a8c" rx="19.2"
                            ry="19.2" />
                        <path fill="#757577"
                            d="M563.03 192.48a18.13 18.13 0 0 1-18.11-18.11c0-9.98 8.12-18.11 18.11-18.11h25.88c9.98 0 18.11 8.12 18.11 18.11 0 9.98-8.12 18.11-18.11 18.11h-25.88Zm0 1.1h25.88a19.2 19.2 0 1 0 0-38.4h-25.88a19.2 19.2 0 1 0 0 38.4Z" />
                        <rect id="switch-hndlr" width="34.41" height="34.41" x="545.83" y="157.18" fill="url(#grd1)"
                            rx="17.2" ry="17.2" />
                    </g>
                    <g id="replay_bttn" class="op h n">
                        <circle cx="796.5" cy="176.5" r="22" opacity="0" />
                        <g id="replay_arrow">
                            <path fill="none" stroke="#fff" stroke-linecap="round" stroke-linejoin="round"
                                stroke-width="3" d="M774.5 176.5a22 22 0 1 1 9.7 18.24" />
                            <polygon fill="#fff" points="779 201 775 185 791 189 779 201" />
                        </g>
                    </g>
                </g><!-- User icons -->
                <g id="nonsaito_icons" class="n">
                    <g id="glow1" class="op h">
                        <use x="314.59" y="394" xlink:href="#user" filter="url(#f2)" />
                        <use x="314.59" y="394" xlink:href="#user" filter="url(#f2)" />
                        <use x="314.59" y="394" xlink:href="#user" filter="url(#f2)" />
                    </g>
                    <g id="glow2" class="op h">
                        <use x="314.59" y="534.45" xlink:href="#user" filter="url(#f2)" />
                        <use x="314.59" y="534.45" xlink:href="#user" filter="url(#f2)" />
                        <use x="314.59" y="534.45" xlink:href="#user" filter="url(#f2)" />
                    </g>
                    <g id="glow3" class="op h">
                        <use x="314.59" y="677.2" xlink:href="#user" filter="url(#f2)" />
                        <use x="314.59" y="677.2" xlink:href="#user" filter="url(#f2)" />
                        <use x="314.59" y="677.2" xlink:href="#user" filter="url(#f2)" />
                    </g>
                    <g id="user_icons" class="op h shift_right">
                        <use x="314.59" y="394" xlink:href="#user" />
                        <use x="314.59" y="534.45" xlink:href="#user" />
                        <use x="314.59" y="677.2" xlink:href="#user" />
                        <path fill="#fff"
                            d="M345.51 763.75c-.6-.33-1.06-.79-1.38-1.39s-.48-1.29-.48-2.09v-5.96h2.14v5.95c0 .68.16 1.2.48 1.55s.78.53 1.39.53 1.07-.18 1.39-.53.48-.87.48-1.55v-5.95h2.14v5.96c0 .79-.16 1.49-.48 2.09-.32.6-.78 1.06-1.38 1.39-.6.33-1.32.5-2.15.5s-1.55-.17-2.15-.5ZM354.94 763.85c-.56-.26-1.02-.62-1.37-1.09s-.55-1-.6-1.61l.11-.15 1.95-.29c.06.57.26 1.01.61 1.32s.79.46 1.31.46c.47 0 .84-.12 1.13-.36.29-.24.43-.58.43-1.02 0-.35-.1-.64-.29-.85-.19-.21-.44-.37-.74-.48s-.71-.23-1.23-.35a5.44 5.44 0 0 1-2.15-.95 2.09 2.09 0 0 1-.76-1.72c0-.52.14-.98.43-1.37a2.7 2.7 0 0 1 1.18-.9c.5-.21 1.07-.31 1.71-.31 1.03 0 1.84.25 2.44.74.6.49.96 1.14 1.08 1.95l-.11.15-1.81.2a1.72 1.72 0 0 0-.5-1.09 1.58 1.58 0 0 0-1.13-.39c-.37 0-.68.08-.91.25a.76.76 0 0 0-.35.65c0 .23.09.43.26.58s.41.28.7.38c.29.1.7.21 1.23.33.94.22 1.69.57 2.23 1.02s.82 1.13.82 2.03a3.11 3.11 0 0 1-1.86 2.9c-.57.26-1.22.39-1.92.39s-1.33-.13-1.9-.39ZM362.24 754.3h6.5v1.82h-4.35v2.17h3.98v1.82h-3.98v2.17h4.51v1.82h-6.65v-9.8ZM370.55 754.3h3.71c1.15 0 2.06.29 2.74.86a2.95 2.95 0 0 1 1.02 2.39c0 1.19-.54 2.1-1.61 2.76v.15l2.11 3.64h-2.35l-1.93-3.37h-1.55v3.37h-2.14v-9.8Zm3.75 4.61c.48 0 .86-.12 1.15-.36.29-.24.43-.58.43-1.03s-.14-.8-.43-1.04-.67-.36-1.16-.36h-1.61v2.79h1.61ZM381.16 763.85c-.56-.26-1.02-.62-1.37-1.09s-.55-1-.6-1.61l.11-.15 1.95-.29c.06.57.26 1.01.61 1.32s.79.46 1.31.46c.47 0 .84-.12 1.13-.36.29-.24.43-.58.43-1.02 0-.35-.1-.64-.29-.85-.19-.21-.44-.37-.74-.48s-.71-.23-1.23-.35a5.44 5.44 0 0 1-2.15-.95 2.09 2.09 0 0 1-.76-1.72c0-.52.14-.98.43-1.37a2.7 2.7 0 0 1 1.18-.9c.5-.21 1.07-.31 1.71-.31 1.03 0 1.84.25 2.44.74.6.49.96 1.14 1.08 1.95l-.11.15-1.81.2a1.72 1.72 0 0 0-.5-1.09 1.58 1.58 0 0 0-1.13-.39c-.37 0-.68.08-.91.25a.76.76 0 0 0-.35.65c0 .23.09.43.26.58s.41.28.7.38c.29.1.7.21 1.23.33.94.22 1.69.57 2.23 1.02s.82 1.13.82 2.03a3.11 3.11 0 0 1-1.86 2.9c-.57.26-1.22.39-1.92.39s-1.33-.13-1.9-.39Z" />
                    </g>
                </g><!-- Infrastructure block -->
                <g id="infrastructure" class="op h n">
                    <rect width="159.86" height="601" x="471.66" y="285.15" fill="url(#grd2)" stroke="#fff"
                        stroke-dasharray="24 16" stroke-linecap="square" stroke-miterlimit="10" stroke-width="2" rx="12"
                        ry="12" /> <!-- App icons -->
                    <g id="app_glow1" class="op h">
                        <use xlink:href="#app1" filter="url(#f2)" />
                        <use xlink:href="#app1" filter="url(#f2)" />
                    </g>
                    <use xlink:href="#app1" />
                    <g id="app_glow2" class="op h">
                        <use xlink:href="#app2" filter="url(#f2)" />
                        <use xlink:href="#app2" filter="url(#f2)" />
                    </g>
                    <use xlink:href="#app2" />
                    <g id="app_glow3" class="op h">
                        <use xlink:href="#app3" filter="url(#f2)" />
                        <use xlink:href="#app3" filter="url(#f2)" />
                    </g>
                    <use xlink:href="#app3" />
                    <g fill="#fff">
                        <path
                            d="M494.13 904.94h2.14v9.8h-2.14v-9.8ZM498.12 904.94h2.31l3.6 5.96.17.8h.1v-6.76h2.14v9.8h-2.31l-3.6-5.96-.17-.8h-.1v6.76h-2.14v-9.8ZM508.28 904.94h6.66v1.82h-4.52v2.27h4.16v1.83h-4.16v3.88h-2.14v-9.8ZM516.43 904.94h3.71c1.15 0 2.06.29 2.74.86a2.95 2.95 0 0 1 1.02 2.39c0 1.19-.54 2.1-1.61 2.76v.15l2.11 3.64h-2.35l-1.93-3.37h-1.55v3.37h-2.14v-9.8Zm3.75 4.61c.48 0 .86-.12 1.15-.36.29-.24.43-.58.43-1.03s-.14-.8-.43-1.04-.67-.36-1.16-.36h-1.61v2.79h1.61ZM528.79 904.94h1.93l3.74 9.8h-2.25l-.57-1.65h-3.75l-.59 1.65h-2.24l3.74-9.8Zm2.2 6.31-1.05-3-.15-1.06h-.07l-.14 1.06-1.05 3h2.46ZM536.89 914.48c-.56-.26-1.02-.62-1.37-1.09s-.55-1-.6-1.61l.11-.15 1.95-.29c.06.57.26 1.01.61 1.32s.79.46 1.31.46c.47 0 .84-.12 1.13-.36.29-.24.43-.58.43-1.02 0-.35-.1-.64-.29-.85-.19-.21-.44-.37-.74-.48s-.71-.23-1.23-.35a5.44 5.44 0 0 1-2.15-.95 2.09 2.09 0 0 1-.76-1.72c0-.52.14-.98.43-1.37a2.7 2.7 0 0 1 1.18-.9c.5-.21 1.07-.31 1.71-.31 1.03 0 1.84.25 2.44.74.6.49.96 1.14 1.08 1.95l-.11.15-1.81.2a1.72 1.72 0 0 0-.5-1.09 1.58 1.58 0 0 0-1.13-.39c-.37 0-.68.08-.91.25a.76.76 0 0 0-.35.65c0 .23.09.43.26.58s.41.28.7.38c.29.1.7.21 1.23.33.94.22 1.69.57 2.23 1.02s.82 1.13.82 2.03a3.11 3.11 0 0 1-1.86 2.9c-.57.26-1.22.39-1.92.39s-1.33-.13-1.9-.39ZM545.31 906.76h-2.46v-1.82h7.07v1.82h-2.46v7.98h-2.14v-7.98ZM551.29 904.94H555c1.15 0 2.06.29 2.74.86a2.95 2.95 0 0 1 1.02 2.39c0 1.19-.54 2.1-1.61 2.76v.15l2.11 3.64h-2.35l-1.93-3.37h-1.55v3.37h-2.14v-9.8Zm3.75 4.61c.48 0 .86-.12 1.15-.36.29-.24.43-.58.43-1.03s-.14-.8-.43-1.04-.67-.36-1.16-.36h-1.61v2.79h1.61ZM562.36 914.38c-.6-.33-1.06-.79-1.38-1.39s-.48-1.29-.48-2.09v-5.96h2.14v5.95c0 .68.16 1.2.48 1.55s.78.53 1.39.53 1.07-.18 1.39-.53.48-.87.48-1.55v-5.95h2.14v5.96c0 .79-.16 1.49-.48 2.09-.32.6-.78 1.06-1.38 1.39-.6.33-1.32.5-2.15.5s-1.55-.17-2.15-.5ZM572.59 914.25a4.72 4.72 0 0 1-1.83-1.77c-.45-.76-.68-1.64-.68-2.64s.23-1.88.68-2.64a4.72 4.72 0 0 1 1.83-1.77 5.19 5.19 0 0 1 2.53-.63c.8 0 1.52.14 2.15.41s1.15.65 1.55 1.13c.4.49.67 1.05.81 1.68l-.13.2-1.92.25a2.3 2.3 0 0 0-.9-1.3 2.74 2.74 0 0 0-1.62-.46 2.66 2.66 0 0 0-2.49 1.51c-.23.48-.34 1.02-.34 1.62s.12 1.15.35 1.62c.23.48.57.85 1 1.11s.95.4 1.53.4 1.14-.15 1.57-.46c.43-.31.73-.74.9-1.3l1.92.25.11.2a4.43 4.43 0 0 1-1.65 2.39c-.78.56-1.73.83-2.84.83-.92 0-1.76-.21-2.53-.63ZM582.62 906.76h-2.46v-1.82h7.07v1.82h-2.46v7.98h-2.14v-7.98ZM590.45 914.38c-.6-.33-1.06-.79-1.38-1.39s-.48-1.29-.48-2.09v-5.96h2.14v5.95c0 .68.16 1.2.48 1.55s.78.53 1.39.53 1.07-.18 1.39-.53.48-.87.48-1.55v-5.95h2.14v5.96c0 .79-.16 1.49-.48 2.09-.32.6-.78 1.06-1.38 1.39-.6.33-1.32.5-2.15.5s-1.55-.17-2.15-.5ZM598.46 904.94h3.71c1.15 0 2.06.29 2.74.86a2.95 2.95 0 0 1 1.02 2.39c0 1.19-.54 2.1-1.61 2.76v.15l2.11 3.64h-2.35l-1.93-3.37h-1.55v3.37h-2.14v-9.8Zm3.75 4.61c.48 0 .86-.12 1.15-.36.29-.24.43-.58.43-1.03s-.14-.8-.43-1.04-.67-.36-1.16-.36h-1.61v2.79h1.61ZM607.78 904.94h6.5v1.82h-4.35v2.17h3.98v1.82h-3.98v2.17h4.51v1.82h-6.65v-9.8Z" />
                    </g>
                    <rect width="139.36" height="47.2" x="482.08" y="297.67" fill="url(#grd3)" rx="12" ry="12" />
                    <path fill="url(#lgrd4)"
                        d="M609.44 298.35c6.24 0 11.32 5.08 11.32 11.32v23.2c0 6.24-5.08 11.32-11.32 11.32H494.08a11.34 11.34 0 0 1-11.32-11.32v-23.2c0-6.24 5.08-11.32 11.32-11.32h115.36m0-.68H494.08c-6.6 0-12 5.4-12 12v23.2c0 6.6 5.4 12 12 12h115.36c6.6 0 12-5.4 12-12v-23.2c0-6.6-5.4-12-12-12Z" />
                    <g fill="#1c1c23">
                        <path
                            d="M521.67 317.29h2.14v3.99h3.74v-3.99h2.14v9.8h-2.14v-3.99h-3.74v3.99h-2.14v-9.8ZM533.71 326.6a4.53 4.53 0 0 1-1.8-1.78c-.43-.76-.65-1.63-.65-2.62s.22-1.86.65-2.62c.43-.76 1.03-1.35 1.8-1.78s1.62-.64 2.58-.64 1.8.21 2.56.64a4.66 4.66 0 0 1 1.8 1.78c.43.76.65 1.64.65 2.62s-.22 1.87-.65 2.62a4.6 4.6 0 0 1-1.8 1.78c-.77.42-1.62.64-2.56.64s-1.81-.21-2.58-.64Zm4.08-1.67c.43-.27.77-.63 1.01-1.11.24-.47.36-1.02.36-1.63s-.12-1.16-.36-1.63a2.71 2.71 0 0 0-2.51-1.51c-.56 0-1.08.13-1.52.4-.43.27-.77.63-1 1.11-.23.47-.35 1.02-.35 1.63s.12 1.16.35 1.63a2.69 2.69 0 0 0 2.52 1.51c.58 0 1.07-.13 1.5-.4ZM544.26 326.84a3.41 3.41 0 0 1-1.36-1.09c-.35-.47-.55-1-.6-1.61l.11-.15 1.95-.29c.06.57.26 1.01.61 1.32.35.31.79.46 1.31.46.47 0 .84-.12 1.13-.36.29-.24.43-.58.43-1.02 0-.35-.1-.64-.29-.85s-.44-.37-.73-.48c-.3-.11-.71-.23-1.23-.35a5.44 5.44 0 0 1-2.15-.95 2.09 2.09 0 0 1-.76-1.72c0-.52.14-.98.43-1.37.29-.39.68-.69 1.18-.9s1.07-.31 1.71-.31c1.03 0 1.84.25 2.44.74.6.49.96 1.14 1.08 1.95l-.11.15-1.81.2a1.72 1.72 0 0 0-.5-1.09 1.58 1.58 0 0 0-1.13-.39c-.37 0-.68.08-.91.25s-.35.38-.35.65c0 .23.09.43.26.58s.41.28.7.38c.29.1.7.21 1.22.33.94.22 1.69.57 2.23 1.02s.82 1.13.82 2.03a3.11 3.11 0 0 1-1.86 2.9c-.57.26-1.22.39-1.92.39s-1.33-.13-1.9-.39ZM552.68 319.11h-2.46v-1.82h7.07v1.82h-2.46v7.98h-2.14v-7.98ZM558.66 317.29h2.14v9.8h-2.14v-9.8ZM562.65 317.29h2.31l3.6 5.96.17.8h.1v-6.76h2.14v9.8h-2.31l-3.6-5.96-.17-.8h-.1v6.76h-2.14v-9.8ZM575.02 326.58a4.7 4.7 0 0 1-1.82-1.8c-.44-.77-.67-1.63-.67-2.59s.22-1.84.65-2.6 1.03-1.36 1.79-1.79 1.62-.64 2.58-.64c1.12 0 2.08.28 2.88.83s1.33 1.33 1.6 2.32l-.11.18-1.92.27a2.4 2.4 0 0 0-.87-1.3c-.41-.3-.94-.45-1.58-.45a2.67 2.67 0 0 0-2.5 1.54c-.24.49-.36 1.04-.36 1.65s.12 1.18.36 1.65c.24.48.58.85 1.02 1.11.44.27.96.4 1.56.4a2.5 2.5 0 0 0 1.66-.52c.42-.35.69-.84.82-1.48h-3.42v-1.65h5.45v.8a5.3 5.3 0 0 1-.55 2.46 4.1 4.1 0 0 1-1.58 1.67 5.31 5.31 0 0 1-4.98-.05Z" />
                    </g>
                    <rect width="139.36" height="47.2" x="482.08" y="825.67" fill="url(#grd5)" rx="12" ry="12" />
                    <path fill="url(#grd6)"
                        d="M609.44 826.35c6.24 0 11.32 5.08 11.32 11.32v23.2c0 6.24-5.08 11.32-11.32 11.32H494.08a11.34 11.34 0 0 1-11.32-11.32v-23.2c0-6.24 5.08-11.32 11.32-11.32h115.36m0-.68H494.08c-6.6 0-12 5.4-12 12v23.2c0 6.6 5.4 12 12 12h115.36c6.6 0 12-5.4 12-12v-23.2c0-6.6-5.4-12-12-12Z" />
                    <g fill="#1c1c23">
                        <path
                            d="M501.66 845.29h3.49c1.06 0 1.99.19 2.77.58.78.39 1.39.95 1.81 1.69s.64 1.62.64 2.63-.21 1.9-.64 2.63-1.03 1.3-1.81 1.69c-.78.39-1.71.58-2.77.58h-3.49v-9.8Zm3.42 7.98c1.02 0 1.8-.26 2.34-.78.54-.52.81-1.29.81-2.3s-.27-1.77-.81-2.3c-.54-.52-1.32-.78-2.34-.78h-1.27v6.16h1.27ZM514.24 845.29h1.93l3.74 9.8h-2.25l-.57-1.65h-3.75l-.59 1.65h-2.24l3.74-9.8Zm2.2 6.31-1.05-3-.15-1.06h-.07l-.14 1.06-1.05 3h2.46ZM521.93 847.11h-2.46v-1.82h7.07v1.82h-2.46v7.98h-2.14v-7.98ZM529.82 845.29h1.93l3.74 9.8h-2.25l-.57-1.65h-3.75l-.59 1.65h-2.24l3.74-9.8Zm2.2 6.31-1.05-3-.15-1.06h-.07l-.14 1.06-1.05 3h2.46ZM541.17 854.84a3.41 3.41 0 0 1-1.36-1.09c-.35-.47-.55-1-.6-1.61l.11-.15 1.95-.29c.06.57.26 1.01.61 1.32.35.31.79.46 1.31.46.47 0 .84-.12 1.13-.36.29-.24.43-.58.43-1.02 0-.35-.1-.64-.29-.85s-.44-.37-.73-.48c-.3-.11-.71-.23-1.23-.35a5.44 5.44 0 0 1-2.15-.95 2.09 2.09 0 0 1-.76-1.72c0-.52.14-.98.43-1.37.29-.39.68-.69 1.18-.9s1.07-.31 1.71-.31c1.03 0 1.84.25 2.44.74.6.49.96 1.14 1.08 1.95l-.11.15-1.81.2a1.72 1.72 0 0 0-.5-1.09 1.58 1.58 0 0 0-1.13-.39c-.37 0-.68.08-.91.25s-.35.38-.35.65c0 .23.09.43.26.58s.41.28.7.38c.29.1.7.21 1.22.33.94.22 1.69.57 2.23 1.02s.82 1.13.82 2.03a3.11 3.11 0 0 1-1.86 2.9c-.57.26-1.22.39-1.92.39s-1.33-.13-1.9-.39ZM549.59 847.11h-2.46v-1.82h7.07v1.82h-2.46v7.98h-2.14v-7.98ZM556.9 854.59a4.53 4.53 0 0 1-1.8-1.78c-.43-.76-.65-1.63-.65-2.62s.22-1.86.65-2.62c.43-.76 1.03-1.35 1.8-1.78s1.62-.64 2.58-.64 1.8.21 2.56.64a4.66 4.66 0 0 1 1.8 1.78c.43.76.65 1.64.65 2.62s-.22 1.87-.65 2.62a4.6 4.6 0 0 1-1.8 1.78c-.77.42-1.62.64-2.56.64s-1.81-.21-2.58-.64Zm4.08-1.67c.43-.27.77-.63 1.01-1.11.24-.47.36-1.02.36-1.63s-.12-1.16-.36-1.63a2.71 2.71 0 0 0-2.51-1.51c-.56 0-1.08.13-1.52.4-.43.27-.77.63-1 1.11-.23.47-.35 1.02-.35 1.63s.12 1.16.35 1.63a2.69 2.69 0 0 0 2.52 1.51c.58 0 1.07-.13 1.5-.4ZM566.05 845.29h3.71c1.15 0 2.06.29 2.74.86a2.95 2.95 0 0 1 1.02 2.39c0 1.19-.54 2.1-1.61 2.76v.15l2.11 3.64h-2.35l-1.93-3.37h-1.55v3.37h-2.14v-9.8Zm3.75 4.61c.48 0 .86-.12 1.15-.36.29-.24.43-.58.43-1.03s-.14-.8-.43-1.04a1.75 1.75 0 0 0-1.16-.36h-1.61v2.79h1.61ZM578.42 845.29h1.93l3.74 9.8h-2.25l-.57-1.65h-3.75l-.59 1.65h-2.24l3.74-9.8Zm2.2 6.31-1.05-3-.15-1.06h-.07l-.14 1.06-1.05 3h2.46ZM586.71 854.58a4.7 4.7 0 0 1-1.82-1.8c-.44-.77-.67-1.63-.67-2.59s.22-1.84.65-2.6 1.03-1.36 1.79-1.79 1.62-.64 2.58-.64c1.12 0 2.08.28 2.88.83s1.33 1.33 1.6 2.32l-.11.18-1.92.27a2.4 2.4 0 0 0-.87-1.3c-.41-.3-.94-.45-1.58-.45a2.67 2.67 0 0 0-2.5 1.54c-.24.49-.36 1.04-.36 1.65s.12 1.18.36 1.65c.24.48.58.85 1.02 1.11.44.27.96.4 1.56.4a2.5 2.5 0 0 0 1.66-.52c.42-.35.69-.84.82-1.48h-3.42v-1.65h5.45v.8a5.3 5.3 0 0 1-.55 2.46 4.1 4.1 0 0 1-1.58 1.67 5.31 5.31 0 0 1-4.98-.05ZM595.4 845.29h6.5v1.82h-4.35v2.17h3.98v1.82h-3.98v2.17h4.51v1.82h-6.65v-9.8Z" />
                    </g>
                </g><!-- Saito users -->
                <g id="saito_users" class="op h n">
                    <use x="308" y="393" xlink:href="#usapp" />
                    <use x="308" y="534" xlink:href="#usapp" />
                    <use x="308" y="677" xlink:href="#usapp" />
                </g><!-- User lines -->
                <g id="user_lines" class="op h n" fill="none" stroke="#fff" stroke-linecap="round"
                    stroke-miterlimit="10" stroke-width="2" opacity=".5" transform="translate(0 10)">
                    <line x1="498.13" x2="433.59" y1="444.15" y2="444.15" />
                    <line x1="498.13" x2="433.59" y1="585.15" y2="585.15" />
                    <line x1="498.13" x2="433.59" y1="728.15" y2="728.15" />
                    <g transform="translate(0 -20)" stroke-dasharray="0 0 0 12" stroke-width="6" opacity=".2">
                        <line x1="498.13" x2="433.59" y1="444.15" y2="444.15" />
                        <line x1="498.13" x2="433.59" y1="585.15" y2="585.15" />
                        <line x1="498.13" x2="433.59" y1="728.15" y2="728.15" />
                    </g>
                </g><!-- Circles -->
                <g id="circles" class="op h n shift_right" fill="none" stroke="#fff" stroke-linecap="round"
                    stroke-linejoin="round" stroke-width="2" transform="translate(1 1)">
                    <circle cx="1011.76" cy="444.15" r="64" />
                    <circle cx="1011.76" cy="727.15" r="64" />
                    <circle cx="1149.26" cy="235.65" r="64" />
                    <circle cx="1524.26" cy="235.65" r="64" />
                    <circle cx="1524.76" cy="582.15" r="64" />
                    <circle cx="1291.76" cy="444.15" r="64" />
                    <circle cx="1291.76" cy="727.15" r="64" />
                    <circle cx="1149.26" cy="931.65" r="64" />
                    <circle cx="1524.26" cy="931.65" r="64" />
                </g><!-- Connection lines -->
                <g id="app_lines" class="op h n">
                    <g fill="none" stroke="#fff" stroke-dasharray="0 0 0 12" stroke-linecap="round"
                        stroke-miterlimit="10" stroke-width="6" opacity=".2">
                        <line id="l1" x1="930.76" x2="606.13" y1="444.15" y2="444.15" />
                        <line id="l2" x1="604.13" x2="940.59" y1="585.15" y2="470.15" />
                    </g>
                    <polyline fill="none" stroke="#fff" stroke-linecap="round" stroke-miterlimit="10" stroke-width="2"
                        points="951.13 493.15 606.67 727.15 931.13 727.15" opacity=".5" />
                </g>
                <g id="init_lines" class="op h shift_right" fill="none" stroke="#fff" stroke-dasharray="0 0 0 12"
                    stroke-linecap="round" stroke-miterlimit="10" stroke-width="6">
                    <g opacity=".2">
                        <g id="to_miners">
                            <line id="l3" x1="1443.76" x2="1222.76" y1="236.15" y2="236.15" />
                            <line id="l6" x1="1470.89" x2="1349.64" y1="292.15" y2="391.15" />
                            <line id="l8" x1="1527.76" x2="1527.76" y1="313.15" y2="512.15" />
                            <line id="l17" x1="1471.75" x2="1348.05" y1="875.15" y2="774.15" />
                            <line id="l18" x1="1443.76" x2="1222.76" y1="932.15" y2="932.15" />
                            <line id="l19" x1="1527.76" x2="1527.76" y1="660.15" y2="859.15" />
                        </g>
                        <line id="l4" x1="1102.47" x2="1044.6" y1="298.07" y2="375.04" />
                        <line id="l5" x1="1251.47" x2="1193.6" y1="378.04" y2="301.07" />
                        <line id="l7" x1="1211.76" x2="1091.49" y1="444.15" y2="444.15" />
                        <line id="l9" x1="1012.13" x2="1012.13" y1="643.15" y2="515.15" />
                        <line id="l10" x1="1231.38" x2="1060.69" y1="674.9" y2="504.22" />
                        <line id="l11" x1="1292.13" x2="1292.13" y1="647.15" y2="521.15" />
                        <line id="l12" x1="1459.38" x2="1357.14" y1="544.16" y2="474.14" />
                        <line id="l13" x1="1458.13" x2="1358.39" y1="619.99" y2="688.31" />
                        <line id="l14" x1="1211.76" x2="1091.49" y1="727.15" y2="727.15" />
                        <line id="l15" x1="1102.47" x2="1044.6" y1="873.04" y2="796.07" />
                        <line id="l16" x1="1251.47" x2="1193.6" y1="793.07" y2="870.04" />
                    </g>
                </g>
                <g id="saito_lines" class="op h n">
                    <g fill="none" stroke="#fff" stroke-dasharray="0 0 0 12" stroke-linecap="round"
                        stroke-miterlimit="10" stroke-width="6" opacity=".2">
                        <line x1="931.17" x2="478" y1="444.25" y2="444.25" />
                        <line x1="478" x2="941" y1="581" y2="470.25" />
                        <line x1="931.17" x2="478" y1="732.25" y2="732.25" />
                    </g>
                    <g id="saito_app_lines" class="op h" fill="none" stroke="#fff" stroke-linecap="round"
                        stroke-miterlimit="10" stroke-width="2">
                        <line x1="479" x2="923" y1="596.25" y2="528" opacity=".5" />
                        <line x1="482" x2="918" y1="747.25" y2="808" opacity=".5" />
                    </g>
                </g><!-- Pulsing dots -->
                <clipPath id="clp1">
                    <rect width="325" height="16" x="605.95" y="436.14" />
                </clipPath>
                <g clip-path="url(#clp1)">
                    <use id="dots1" xlink:href="#dots" class="n" />
                </g>
                <clipPath id="clp2">
                    <rect width="355.59" height="16" x="594.5" y="519.49" transform="rotate(-18.85 772.12 527.4)" />
                </clipPath>
                <g clip-path="url(#clp2)">
                    <use id="dots2" xlink:href="#dots" class="n" />
                </g>
                <clipPath id="clp3">
                    <rect width="221" height="16" x="1222.76" y="228.15" />
                </clipPath>
                <g clip-path="url(#clp3)">
                    <use id="dots3" xlink:href="#dots" class="n" />
                </g>
                <clipPath id="clp4">
                    <rect width="96.26" height="16" x="1025.24" y="328.41" transform="rotate(-53.34 1073.37 336.41)" />
                </clipPath>
                <g clip-path="url(#clp4)">
                    <use id="dots4" xlink:href="#dots" class="n" />
                </g>
                <clipPath id="clp5">
                    <rect width="96.26" height="16" x="1174.41" y="331.55" transform="rotate(-126.66 1222.54 339.55)" />
                </clipPath>
                <g clip-path="url(#clp5)">
                    <use id="dots5" xlink:href="#dots" class="n" />
                </g>
                <clipPath id="clp6">
                    <rect width="156.51" height="16" x="1332.01" y="333.66" transform="rotate(-39.25 1410.13 341.67)" />
                </clipPath>
                <g clip-path="url(#clp6)">
                    <use id="dots6" xlink:href="#dots" class="n" />
                </g>
                <clipPath id="clp7">
                    <rect width="120.27" height="16" x="1091.49" y="436.15" />
                </clipPath>
                <g clip-path="url(#clp7)">
                    <use id="dots7" xlink:href="#dots" class="n" />
                </g>
                <clipPath id="clp8">
                    <rect width="199" height="16" x="1428.07" y="404.65" transform="rotate(-90 1527.57 412.65)" />
                </clipPath>
                <g clip-path="url(#clp8)">
                    <use id="dots8" xlink:href="#dots" class="n" />
                </g>
                <clipPath id="clp9">
                    <rect width="128" height="16" x="948.13" y="571.15" transform="rotate(-90 1012.13 579.15)" />
                </clipPath>
                <g clip-path="url(#clp9)">
                    <use id="dots9" xlink:href="#dots" class="n" />
                </g>
                <clipPath id="clp10">
                    <rect width="241.4" height="16" x="1025.29" y="581.6" transform="rotate(-135 1145.98 589.6)" />
                </clipPath>
                <g clip-path="url(#clp10)">
                    <use id="dots10" xlink:href="#dots" class="n" />
                </g>
                <clipPath id="clp11">
                    <rect width="126" height="16" x="1229.13" y="576.15" transform="rotate(-90 1292.13 584.15)" />
                </clipPath>
                <g clip-path="url(#clp11)">
                    <use id="dots11" xlink:href="#dots" class="n" />
                </g>
                <clipPath id="clp12">
                    <rect width="123.9" height="16" x="1346.39" y="501.05" transform="rotate(-145.72 1408.32 509.08)" />
                </clipPath>
                <g clip-path="url(#clp12)">
                    <use id="dots12" xlink:href="#dots" class="n" />
                </g>
                <clipPath id="clp13">
                    <rect width="120.8" height="16" x="1347.82" y="646.22" transform="rotate(145.64 1408.22 654.28)" />
                </clipPath>
                <g clip-path="url(#clp13)">
                    <use id="dots13" xlink:href="#dots" class="n" />
                </g>
                <clipPath id="clp14">
                    <rect width="120.4" height="16" x="1091.36" y="719.15" />
                </clipPath>
                <g clip-path="url(#clp14)">
                    <use id="dots14" xlink:href="#dots" class="n" />
                </g>
                <clipPath id="clp15">
                    <rect width="96.5" height="16" x="1025.33" y="826.64" transform="rotate(53.09 1073.58 834.66)" />
                </clipPath>
                <g clip-path="url(#clp15)">
                    <use id="dots15" xlink:href="#dots" class="n" />
                </g>
                <clipPath id="clp16">
                    <rect width="96.3" height="16" x="1174.36" y="823.54" transform="rotate(126.91 1222.51 831.53)" />
                </clipPath>
                <g clip-path="url(#clp16)">
                    <use id="dots16" xlink:href="#dots" class="n" />
                </g>
                <clipPath id="clp17">
                    <rect width="159.71" height="16" x="1330.01" y="816.68" transform="rotate(39.26 1409.99 824.82)" />
                </clipPath>
                <g clip-path="url(#clp17)">
                    <use id="dots17" xlink:href="#dots" class="n" />
                </g>
                <clipPath id="clp18">
                    <rect width="221" height="16" x="1222.76" y="924.15" />
                </clipPath>
                <g clip-path="url(#clp18)">
                    <use id="dots18" xlink:href="#dots" class="n" />
                </g>
                <clipPath id="clp19">
                    <rect width="199" height="16" x="1428.07" y="751.65" transform="rotate(-90 1527.57 759.65)" />
                </clipPath>
                <g clip-path="url(#clp19)">
                    <use id="dots19" xlink:href="#dots" class="n" />
                </g><!-- Saito dots -->
                <clipPath id="clp20">
                    <rect width="453.83" height="23" x="478" y="432.66" />
                </clipPath>
                <g clip-path="url(#clp20)">
                    <use id="dots20" xlink:href="#dots" class="n" />
                </g>
                <clipPath id="clp21">
                    <rect width="476.34" height="23" x="471.19" y="513.87" transform="rotate(-13.49 709.27 525.34)" />
                </clipPath>
                <g clip-path="url(#clp21)">
                    <use id="dots21" xlink:href="#dots" class="n" />
                </g>
                <clipPath id="clp22">
                    <rect width="454.04" height="23" x="477.13" y="720.75" />
                </clipPath>
                <g clip-path="url(#clp22)">
                    <use id="dots22" xlink:href="#dots" class="n" />
                </g><!-- User to apps dots -->
                <clipPath id="clp23">
                    <rect width="65" height="19" x="434" y="425" />
                </clipPath>
                <g clip-path="url(#clp23)">
                    <use id="dots23" xlink:href="#dots" class="n" />
                </g>
                <clipPath id="clp24">
                    <rect width="65" height="19" x="434" y="566" />
                </clipPath>
                <g clip-path="url(#clp24)">
                    <use id="dots24" xlink:href="#dots" class="n" />
                </g>
                <clipPath id="clp25">
                    <rect width="65" height="19" x="434" y="709" />
                </clipPath>
                <g clip-path="url(#clp25)">
                    <use id="dots25" xlink:href="#dots" class="n" />
                </g><!-- Gradient lines -->
                <g id="beam1" class="n">
                    <g id="grad_line1">
                        <use id="grad_scale1" xlink:href="#beam" />
                    </g>
                </g>
                <g id="beam2" class="n">
                    <g id="grad_line2">
                        <use id="grad_scale2" xlink:href="#beam" />
                    </g>
                </g>
                <g id="sbeam1" class="n">
                    <g id="grad_line3">
                        <use id="grad_scale4" xlink:href="#beam" />
                    </g>
                </g>
                <g id="sbeam2" class="n">
                    <g id="grad_line4">
                        <use id="grad_scale4" xlink:href="#beam" />
                    </g>
                </g>
                <g transform="translate(0 10)">
                    <g id="ubeam1" class="n">
                        <g id="grad_line2">
                            <use id="grad_scale3" xlink:href="#beam" />
                        </g>
                    </g>
                    <g id="ubeam2" class="n">
                        <g id="grad_line2">
                            <use id="grad_scale3" xlink:href="#beam" />
                        </g>
                    </g>
                    <g id="ubeam3" class="n">
                        <g id="grad_line2">
                            <use id="grad_scale3" xlink:href="#beam" />
                        </g>
                    </g>
                </g><!-- Nodes -->
                <g id="nonsaito_glow">
                    <g id="node_glow2" class="op h">
                        <use x="947.7" y="380.1" xlink:href="#node" filter="url(#f2)" />
                        <use x="947.7" y="380.1" xlink:href="#node" filter="url(#f2)" />
                    </g>
                    <g id="node_glow5" class="op h">
                        <use x="947.7" y="663.1" xlink:href="#node" filter="url(#f2)" />
                        <use x="947.7" y="663.1" xlink:href="#node" filter="url(#f2)" />
                    </g>
                </g>
                <g id="node_glow1" class="op h">
                    <use x="1085.3" y="171.6" xlink:href="#node" filter="url(#f2)" />
                    <use x="1085.3" y="171.6" xlink:href="#node" filter="url(#f2)" />
                </g>
                <g id="node_glow3" class="op h">
                    <use x="1227.7" y="380.1" xlink:href="#node" filter="url(#f2)" />
                    <use x="1227.7" y="380.1" xlink:href="#node" filter="url(#f2)" />
                </g>
                <g id="node_glow4" class="op h">
                    <use x="1460.76" y="518.1" xlink:href="#node" filter="url(#f2)" />
                    <use x="1460.76" y="518.1" xlink:href="#node" filter="url(#f2)" />
                </g>
                <g id="node_glow6" class="op h">
                    <use x="1227.7" y="663.1" xlink:href="#node" filter="url(#f2)" />
                    <use x="1227.7" y="663.1" xlink:href="#node" filter="url(#f2)" />
                </g>
                <g id="node_glow7" class="op h">
                    <use x="1085.26" y="867.6" xlink:href="#node" filter="url(#f2)" />
                    <use x="1085.26" y="867.6" xlink:href="#node" filter="url(#f2)" />
                </g>
                <g id="node_icns" class="op h shift_right">
                    <g id="non_saito_nds" class="n">
                        <use x="947.7" y="663.1" xlink:href="#node" />
                        <use x="947.7" y="380.1" xlink:href="#node" />
                        <use x="1085.3" y="171.6" xlink:href="#node" />
                        <use x="1227.7" y="380.1" xlink:href="#node" />
                        <use x="1460.76" y="518.1" xlink:href="#node" />
                        <use x="1227.7" y="663.1" xlink:href="#node" />
                        <use x="1085.26" y="867.6" xlink:href="#node" />
                    </g>
                    <g id="saito_nds" class="n">
                        <g id="nonsaito_nodes" class="op h n">
                            <use x="947.7" y="663.1" xlink:href="#node2" />
                            <use x="947.7" y="380.1" xlink:href="#node2" />
                        </g>
                        <use x="1085.3" y="171.6" xlink:href="#node2" />
                        <use x="1227.7" y="380.1" xlink:href="#node2" />
                        <use x="1460.76" y="518.1" xlink:href="#node2" />
                        <use x="1227.7" y="663.1" xlink:href="#node2" />
                        <use x="1085.26" y="867.6" xlink:href="#node2" />
                    </g>
                    <g id="saito_glow">
                        <g id="snode_glow1" class="op h">
                            <use x="931.8" y="378.25" xlink:href="#saito_node" filter="url(#f2)" />
                            <use x="931.8" y="378.25" xlink:href="#saito_node" filter="url(#f2)" opacity=".5" />
                        </g>
                        <g id="snode_glow2" class="op h">
                            <use x="931.8" y="662.25" xlink:href="#saito_node" filter="url(#f2)" />
                            <use x="931.8" y="662.25" xlink:href="#saito_node" filter="url(#f2)" opacity=".5" />
                        </g>
                    </g>
                    <g id="saito_nodes" class="op h n">
                        <use x="931.8" y="378.25" xlink:href="#saito_node" />
                        <use x="931.8" y="662.25" xlink:href="#saito_node" />
                        <g fill="#1c1c23">
                            <path
                                d="M962.07 804.39h3.49c1.06 0 1.99.19 2.77.58.78.39 1.39.95 1.81 1.69s.64 1.62.64 2.63-.21 1.9-.64 2.63-1.03 1.3-1.81 1.69c-.78.39-1.71.58-2.77.58h-3.49v-9.8Zm3.42 7.98c1.02 0 1.8-.26 2.34-.78.54-.52.81-1.29.81-2.3s-.27-1.77-.81-2.3c-.54-.52-1.32-.78-2.34-.78h-1.27v6.16h1.27Z" />
                            <path
                                d="M974.65 804.39h1.93l3.74 9.8h-2.25l-.57-1.65h-3.75l-.59 1.65h-2.24l3.74-9.8Zm2.2 6.31-1.05-3-.15-1.06h-.07l-.14 1.06-1.05 3h2.46Z" />
                            <path d="M982.34 806.21h-2.46v-1.82h7.07v1.82h-2.46v7.98h-2.14v-7.98Z" />
                            <path
                                d="M990.23 804.39h1.93l3.74 9.8h-2.25l-.57-1.65h-3.75l-.59 1.65h-2.24l3.74-9.8Zm2.2 6.31-1.05-3-.15-1.06h-.07l-.14 1.06-1.05 3h2.46Z" />
                            <path
                                d="M1001.58 813.94a3.41 3.41 0 0 1-1.36-1.09c-.35-.47-.55-1-.6-1.61l.11-.15 1.95-.29c.06.57.26 1.01.61 1.32.35.31.79.46 1.31.46.47 0 .84-.12 1.13-.36.29-.24.43-.58.43-1.02 0-.35-.1-.64-.29-.85s-.44-.37-.73-.48c-.3-.11-.71-.23-1.23-.35a5.44 5.44 0 0 1-2.15-.95 2.09 2.09 0 0 1-.76-1.72c0-.52.14-.98.43-1.37.29-.39.68-.69 1.18-.9s1.07-.31 1.71-.31c1.03 0 1.84.25 2.44.74.6.49.96 1.14 1.08 1.95l-.11.15-1.81.2a1.72 1.72 0 0 0-.5-1.09 1.58 1.58 0 0 0-1.13-.39c-.37 0-.68.08-.91.25s-.35.38-.35.65c0 .23.09.43.26.58s.41.28.7.38c.29.1.7.21 1.22.33.94.22 1.69.57 2.23 1.02s.82 1.13.82 2.03a3.11 3.11 0 0 1-1.86 2.9c-.57.26-1.22.39-1.92.39s-1.33-.13-1.9-.39Z" />
                            <path d="M1010 806.21h-2.46v-1.82h7.07v1.82h-2.46v7.98h-2.14v-7.98Z" />
                            <path
                                d="M1017.31 813.69a4.53 4.53 0 0 1-1.8-1.78c-.43-.76-.65-1.63-.65-2.62s.22-1.86.65-2.62c.43-.76 1.03-1.35 1.8-1.78s1.62-.64 2.58-.64 1.8.21 2.56.64a4.66 4.66 0 0 1 1.8 1.78c.43.76.65 1.64.65 2.62s-.22 1.87-.65 2.62a4.6 4.6 0 0 1-1.8 1.78c-.77.42-1.62.64-2.56.64s-1.81-.21-2.58-.64Zm4.08-1.67c.43-.27.77-.63 1.01-1.11.24-.47.36-1.02.36-1.63s-.12-1.16-.36-1.63a2.71 2.71 0 0 0-2.51-1.51c-.56 0-1.08.13-1.52.4-.43.27-.77.63-1 1.11-.23.47-.35 1.02-.35 1.63s.12 1.16.35 1.63a2.69 2.69 0 0 0 2.52 1.51c.58 0 1.07-.13 1.5-.4Z" />
                            <path
                                d="M1026.46 804.39h3.71c1.15 0 2.06.29 2.74.86a2.95 2.95 0 0 1 1.02 2.39c0 1.19-.54 2.1-1.61 2.76v.15l2.11 3.64h-2.35l-1.93-3.37h-1.55v3.37h-2.14v-9.8Zm3.75 4.61c.48 0 .86-.12 1.15-.36.29-.24.43-.58.43-1.03s-.14-.8-.43-1.04a1.75 1.75 0 0 0-1.16-.36h-1.61V809h1.61Z" />
                            <path
                                d="M1038.83 804.39h1.93l3.74 9.8h-2.25l-.57-1.65h-3.75l-.59 1.65h-2.24l3.74-9.8Zm2.2 6.31-1.05-3-.15-1.06h-.07l-.14 1.06-1.05 3h2.46Z" />
                            <path
                                d="M1047.12 813.68a4.7 4.7 0 0 1-1.82-1.8c-.44-.77-.67-1.63-.67-2.59s.22-1.84.65-2.6 1.03-1.36 1.79-1.79 1.62-.64 2.58-.64c1.12 0 2.08.28 2.88.83s1.33 1.33 1.6 2.32l-.11.18-1.92.27a2.4 2.4 0 0 0-.87-1.3c-.41-.3-.94-.45-1.58-.45a2.67 2.67 0 0 0-2.5 1.54c-.24.49-.36 1.04-.36 1.65s.12 1.18.36 1.65c.24.48.58.85 1.02 1.11.44.27.96.4 1.56.4a2.5 2.5 0 0 0 1.66-.52c.42-.35.69-.84.82-1.48h-3.42v-1.65h5.45v.8a5.3 5.3 0 0 1-.55 2.46 4.1 4.1 0 0 1-1.58 1.67 5.31 5.31 0 0 1-4.98-.05Z" />
                            <path d="M1055.81 804.39h6.5v1.82h-4.35v2.17h3.98v1.82h-3.98v2.17h4.51v1.82h-6.65v-9.8Z" />
                        </g>
                        <g fill="#1c1c23">
                            <path d="M982.08 521.39h2.14v3.99h3.74v-3.99h2.14v9.8h-2.14v-3.99h-3.74v3.99h-2.14v-9.8Z" />
                            <path
                                d="M994.12 530.69a4.53 4.53 0 0 1-1.8-1.78c-.43-.76-.65-1.63-.65-2.62s.22-1.86.65-2.62c.43-.76 1.03-1.35 1.8-1.78s1.62-.64 2.58-.64 1.8.21 2.56.64a4.66 4.66 0 0 1 1.8 1.78c.43.76.65 1.64.65 2.62s-.22 1.87-.65 2.62a4.6 4.6 0 0 1-1.8 1.78c-.77.42-1.62.64-2.56.64s-1.81-.21-2.58-.64Zm4.08-1.67c.43-.27.77-.63 1.01-1.11.24-.47.36-1.02.36-1.63s-.12-1.16-.36-1.63a2.71 2.71 0 0 0-2.51-1.51c-.56 0-1.08.13-1.52.4-.43.27-.77.63-1 1.11-.23.47-.35 1.02-.35 1.63s.12 1.16.35 1.63a2.69 2.69 0 0 0 2.52 1.51c.58 0 1.07-.13 1.5-.4Z" />
                            <path
                                d="M1004.67 530.94a3.41 3.41 0 0 1-1.36-1.09c-.35-.47-.55-1-.6-1.61l.11-.15 1.95-.29c.06.57.26 1.01.61 1.32.35.31.79.46 1.31.46.47 0 .84-.12 1.13-.36.29-.24.43-.58.43-1.02 0-.35-.1-.64-.29-.85s-.44-.37-.73-.48c-.3-.11-.71-.23-1.23-.35a5.44 5.44 0 0 1-2.15-.95 2.09 2.09 0 0 1-.76-1.72c0-.52.14-.98.43-1.37.29-.39.68-.69 1.18-.9s1.07-.31 1.71-.31c1.03 0 1.84.25 2.44.74.6.49.96 1.14 1.08 1.95l-.11.15-1.81.2a1.72 1.72 0 0 0-.5-1.09 1.58 1.58 0 0 0-1.13-.39c-.37 0-.68.08-.91.25s-.35.38-.35.65c0 .23.09.43.26.58s.41.28.7.38c.29.1.7.21 1.22.33.94.22 1.69.57 2.23 1.02s.82 1.13.82 2.03a3.11 3.11 0 0 1-1.86 2.9c-.57.26-1.22.39-1.92.39s-1.33-.13-1.9-.39Z" />
                            <path d="M1013.09 523.21h-2.46v-1.82h7.07v1.82h-2.46v7.98h-2.14v-7.98Z" />
                            <path d="M1019.07 521.39h2.14v9.8h-2.14v-9.8Z" />
                            <path
                                d="M1023.06 521.39h2.31l3.6 5.96.17.8h.1v-6.76h2.14v9.8h-2.31l-3.6-5.96-.17-.8h-.1v6.76h-2.14v-9.8Z" />
                            <path
                                d="M1035.43 530.68a4.7 4.7 0 0 1-1.82-1.8c-.44-.77-.67-1.63-.67-2.59s.22-1.84.65-2.6 1.03-1.36 1.79-1.79 1.62-.64 2.58-.64c1.12 0 2.08.28 2.88.83s1.33 1.33 1.6 2.32l-.11.18-1.92.27a2.4 2.4 0 0 0-.87-1.3c-.41-.3-.94-.45-1.58-.45a2.67 2.67 0 0 0-2.5 1.54c-.24.49-.36 1.04-.36 1.65s.12 1.18.36 1.65c.24.48.58.85 1.02 1.11.44.27.96.4 1.56.4a2.5 2.5 0 0 0 1.66-.52c.42-.35.69-.84.82-1.48h-3.42v-1.65h5.45v.8a5.3 5.3 0 0 1-.55 2.46 4.1 4.1 0 0 1-1.58 1.67 5.31 5.31 0 0 1-4.98-.05Z" />
                        </g>
                    </g>
                </g>
                <g id="miner_glow1" class="op h">
                    <use x="1460.26" y="171.6" xlink:href="#miner" filter="url(#f2)" />
                    <use x="1460.26" y="171.6" xlink:href="#miner" filter="url(#f2)" />
                </g>
                <g id="miner_glow2" class="op h">
                    <use x="1460.26" y="867.6" xlink:href="#miner" filter="url(#f2)" />
                    <use x="1460.26" y="867.6" xlink:href="#miner" filter="url(#f2)" />
                </g>
                <g id="miner_icns" class="op h shift_right">
                    <use x="1460.26" y="171.6" xlink:href="#miner" />
                    <use x="1460.26" y="867.6" xlink:href="#miner" />
                </g><!-- $$$ -->
                <g id="money1" class="op h n" transform="translate(1526.5 171)">
                    <use class="d_m1" xlink:href="#dlr" />
                    <use class="d_m2" xlink:href="#dlr" />
                    <use class="d_m3" xlink:href="#dlr" />
                    <use class="d_l1" xlink:href="#dlr" />
                    <use class="d_l2" xlink:href="#dlr" />
                    <use class="d_r1" xlink:href="#dlr" />
                    <use class="d_r2" xlink:href="#dlr" />
                </g>
                <g id="money2" class="op h n" transform="translate(1526.5 867.9)">
                    <use class="d_m1" xlink:href="#dlr" />
                    <use class="d_m2" xlink:href="#dlr" />
                    <use class="d_m3" xlink:href="#dlr" />
                    <use class="d_l1" xlink:href="#dlr" />
                    <use class="d_l2" xlink:href="#dlr" />
                    <use class="d_r1" xlink:href="#dlr" />
                    <use class="d_r2" xlink:href="#dlr" />
                </g>
                <g id="money3" class="op h n" transform="translate(1012 379)">
                    <use class="d_m1" xlink:href="#dlr" />
                    <use class="d_m2" xlink:href="#dlr" />
                    <use class="d_m3" xlink:href="#dlr" />
                    <use class="d_l1" xlink:href="#dlr" />
                    <use class="d_l2" xlink:href="#dlr" />
                    <use class="d_r1" xlink:href="#dlr" />
                    <use class="d_r2" xlink:href="#dlr" />
                </g>
                <g id="money4" class="op h n" transform="translate(1012 663)">
                    <use class="d_m1" xlink:href="#dlr" />
                    <use class="d_m2" xlink:href="#dlr" />
                    <use class="d_m3" xlink:href="#dlr" />
                    <use class="d_l1" xlink:href="#dlr" />
                    <use class="d_l2" xlink:href="#dlr" />
                    <use class="d_r1" xlink:href="#dlr" />
                    <use class="d_r2" xlink:href="#dlr" />
                </g>
                <g id="money5" class="op h n" transform="translate(1150 173)">
                    <use class="d_m1" xlink:href="#dlr" />
                    <use class="d_m2" xlink:href="#dlr" />
                    <use class="d_m3" xlink:href="#dlr" />
                    <use class="d_l1" xlink:href="#dlr" />
                    <use class="d_l2" xlink:href="#dlr" />
                    <use class="d_r1" xlink:href="#dlr" />
                    <use class="d_r2" xlink:href="#dlr" />
                </g>
                <g id="money6" class="op h n" transform="translate(1290 382)">
                    <use class="d_m1" xlink:href="#dlr" />
                    <use class="d_m2" xlink:href="#dlr" />
                    <use class="d_m3" xlink:href="#dlr" />
                    <use class="d_l1" xlink:href="#dlr" />
                    <use class="d_l2" xlink:href="#dlr" />
                    <use class="d_r1" xlink:href="#dlr" />
                    <use class="d_r2" xlink:href="#dlr" />
                </g>
                <g id="money7" class="op h n" transform="translate(1290 665)">
                    <use class="d_m1" xlink:href="#dlr" />
                    <use class="d_m2" xlink:href="#dlr" />
                    <use class="d_m3" xlink:href="#dlr" />
                    <use class="d_l1" xlink:href="#dlr" />
                    <use class="d_l2" xlink:href="#dlr" />
                    <use class="d_r1" xlink:href="#dlr" />
                    <use class="d_r2" xlink:href="#dlr" />
                </g>
                <g id="money8" class="op h n" transform="translate(1150 870)">
                    <use class="d_m1" xlink:href="#dlr" />
                    <use class="d_m2" xlink:href="#dlr" />
                    <use class="d_m3" xlink:href="#dlr" />
                    <use class="d_l1" xlink:href="#dlr" />
                    <use class="d_l2" xlink:href="#dlr" />
                    <use class="d_r1" xlink:href="#dlr" />
                    <use class="d_r2" xlink:href="#dlr" />
                </g>
                <g id="money9" class="op h n" transform="translate(1528 520)">
                    <use class="d_m1" xlink:href="#dlr" />
                    <use class="d_m2" xlink:href="#dlr" />
                    <use class="d_m3" xlink:href="#dlr" />
                    <use class="d_l1" xlink:href="#dlr" />
                    <use class="d_l2" xlink:href="#dlr" />
                    <use class="d_r1" xlink:href="#dlr" />
                    <use class="d_r2" xlink:href="#dlr" />
                </g>
                <g id="money10" class="op h n" transform="translate(1012 379)">
                    <g transform="translate(-30 0)">
                        <use class="d_m1" xlink:href="#dlr" />
                        <use class="d_m2" xlink:href="#dlr" />
                        <use class="d_m3" xlink:href="#dlr" />
                        <use class="d_l1" xlink:href="#dlr" />
                        <use class="d_l2" xlink:href="#dlr" />
                        <use class="d_r1" xlink:href="#dlr" />
                        <use class="d_r2" xlink:href="#dlr" />
                    </g>
                    <g transform="translate(30 0)">
                        <use class="d_m1" xlink:href="#dlr" />
                        <use class="d_m2" xlink:href="#dlr" />
                        <use class="d_m3" xlink:href="#dlr" />
                        <use class="d_l1" xlink:href="#dlr" />
                        <use class="d_l2" xlink:href="#dlr" />
                        <use class="d_r1" xlink:href="#dlr" />
                        <use class="d_r2" xlink:href="#dlr" />
                    </g>
                </g>
                <g id="money11" class="op h n" transform="translate(1012 663)">
                    <g transform="translate(-30 0)">
                        <use class="d_m1" xlink:href="#dlr" />
                        <use class="d_m2" xlink:href="#dlr" />
                        <use class="d_m3" xlink:href="#dlr" />
                        <use class="d_l1" xlink:href="#dlr" />
                        <use class="d_l2" xlink:href="#dlr" />
                        <use class="d_r1" xlink:href="#dlr" />
                        <use class="d_r2" xlink:href="#dlr" />
                    </g>
                    <g transform="translate(30 0)">
                        <use class="d_m1" xlink:href="#dlr" />
                        <use class="d_m2" xlink:href="#dlr" />
                        <use class="d_m3" xlink:href="#dlr" />
                        <use class="d_l1" xlink:href="#dlr" />
                        <use class="d_l2" xlink:href="#dlr" />
                        <use class="d_r1" xlink:href="#dlr" />
                        <use class="d_r2" xlink:href="#dlr" />
                    </g>
                </g><!-- Popups -->
                <g id="nonsaito_popups" class="n">
                    <g id="popup1">
                        <path fill="#FFF"
                            d="M1756 772.96h-164.78c-6.6 0-12 5.4-12 12v72.3c0 6.6 5.4 12 12 12H1612v21.01l33.37-21.01H1756c6.6 0 12-5.4 12-12v-72.3c0-6.6-5.4-12-12-12z"
                            opacity=".8" /> <text>
                            <tspan x="1675" y="807">Typical blockchains</tspan>
                            <tspan x="1675" y="827">only pay miners</tspan>
                            <tspan x="1675" y="847">(or validators in PoS)</tspan>
                        </text>
                    </g>
                    <g id="popup2">
                        <path fill="#FFF"
                            d="M937 283.96H763.22c-6.6 0-12 5.4-12 12v81.3c0 6.6 5.4 12 12 12h115L910 409.28v-20.01h27c6.6 0 12-5.4 12-12v-81.3c0-6.61-5.4-12.01-12-12.01z"
                            opacity=".8" /> <text>
                            <tspan x="850" y="312">Data nodes that</tspan>
                            <tspan x="850" y="332">provide access to the</tspan>
                            <tspan x="850" y="352">blockchain do not get</tspan>
                            <tspan x="850" y="372">paid by the network</tspan>
                        </text>
                    </g>
                    <g id="popup3">
                        <path fill="#FFF"
                            d="M843 762.8H678.22c-6.6 0-12 5.4-12 12v27.23l-21.05 13.91 21.05 13.93v27.23c0 6.6 5.4 12 12 12H843c6.6 0 12-5.4 12-12v-82.3c0-6.6-5.4-12-12-12z"
                            opacity=".8" /> <text>
                            <tspan x="761" y="791">Not only that, apps</tspan>
                            <tspan x="761" y="811">are dependent on</tspan>
                            <tspan x="761" y="831">third party</tspan>
                            <tspan x="761" y="851">infrastructure</tspan>
                        </text>
                    </g>
                    <g id="popup4">
                        <path fill="#FFF"
                            d="M451.59 912.96v-90.78c0-6.6-5.4-12-12-12h-60.23l-13.91-21.05-13.93 21.05H292.3c-6.6 0-12 5.4-12 12v90.78c0 6.6 5.4 12 12 12h147.29c6.6 0 12-5.4 12-12z"
                            opacity=".8" /> <text>
                            <tspan x="366" y="845">And users can</tspan>
                            <tspan x="366" y="865">only access the</tspan>
                            <tspan x="366" y="885">blockchain via</tspan>
                            <tspan x="366" y="905">third parties</tspan>
                        </text>
                    </g>
                </g>
                <g id="saito_popups" class="n">
                    <g id="spopup1">
                        <path fill="#FFF"
                            d="M475.23 880.49v-54.42c0-6.6-5.4-12-12-12H400l-13.91-21.05-13.93 21.05h-62.23c-6.6 0-12 5.4-12 12v54.42c0 6.6 5.4 12 12 12h153.29c6.61 0 12.01-5.4 12.01-12z"
                            opacity=".8" /> <text>
                            <tspan x="387" y="850">Apps run locally on</tspan>
                            <tspan x="387" y="870">users devices</tspan>
                        </text>
                    </g>
                    <g id="spopup2">
                        <path fill="#FFF"
                            d="M654.3 327.34H489.52c-6.6 0-12 5.4-12 12v61.3c0 6.6 5.4 12 12 12h112l31.79 20.01v-20.01h21c6.6 0 12-5.4 12-12v-61.3c-.01-6.6-5.41-12-12.01-12z"
                            opacity=".8" /> <text>
                            <tspan x="572" y="356">Apps communicate</tspan>
                            <tspan x="572" y="376">with the blockchain</tspan>
                            <tspan x="572" y="396">directly</tspan>
                        </text>
                    </g>
                    <g id="spopup3">
                        <path fill="#FFF"
                            d="M1049.72 983.36H755.6c-6.6 0-12-5.4-12-12v-71.3c0-6.6 5.4-12 12-12h294.12c6.6 0 12 5.4 12 12v21.9l13.45 13.76-13.45 14.83v20.82c0 6.59-5.4 11.99-12 11.99z"
                            opacity=".8" /> <text>
                            <tspan x="902" y="923">In Saito, Chain nodes that provide</tspan>
                            <tspan x="902" y="943">access to the network get paid (through</tspan>
                            <tspan x="902" y="963">the "Routing Work" mechanism)</tspan>
                        </text>
                    </g>
                    <g id="spopup4">
                        <path fill="#FFF"
                            d="M934 279.96H729.22c-6.6 0-12 5.4-12 12v85.3c0 6.6 5.4 12 12 12h152L913 409.28v-20.01h21c6.6 0 12-5.4 12-12v-85.3c0-6.61-5.4-12.01-12-12.01z"
                            opacity=".8" /> <text>
                            <tspan x="832" y="310">Saito Consensus rewards</tspan>
                            <tspan x="832" y="330">chain nodes with more</tspan>
                            <tspan x="832" y="350">fees when they provide</tspan>
                            <tspan x="832" y="370">better access or service</tspan>
                        </text>
                    </g>
                    <g id="spopup5">
                        <path fill="#FFF"
                            d="M568.75 714.91h354.78c6.6 0 12-5.4 12-12v-85.3c0-6.6-5.4-12-12-12h-302l-31.79-20.01v20.01h-21c-6.6 0-12 5.4-12 12v85.3c.01 6.6 5.41 12 12.01 12z"
                            opacity=".8" /> <text>
                            <tspan x="746" y="636">There is no need for third party infrastructure</tspan>
                            <tspan x="746" y="656">providers because chain nodes are incentivized</tspan>
                            <tspan x="746" y="676">to provide the infrastructure themselves as this</tspan>
                            <tspan x="746" y="696">attracts more user transactions and fees</tspan>
                        </text>
                    </g>
                    <g id="spopup6">
                        <path fill="#FFF"
                            d="M1789.44 464.16h-184.78c-6.6 0-12-5.4-12-12v-137.3c0-6.6 5.4-12 12-12h20.78v-21.01l33.37 21.01h130.63c6.6 0 12 5.4 12 12v137.3c0 6.6-5.4 12-12 12z"
                            opacity=".8" /> <text>
                            <tspan x="1697" y="342">Saito miners/stakers</tspan>
                            <tspan x="1697" y="362">still earn fees by</tspan>
                            <tspan x="1697" y="382">playing a role in the</tspan>
                            <tspan x="1697" y="402">consensus mechanism,</tspan>
                            <tspan x="1697" y="422">but differently from</tspan>
                            <tspan x="1697" y="442">PoW/PoS</tspan>
                        </text>
                    </g>
                </g>
            </svg>