<?xml version="1.0" encoding="UTF-8" standalone="no"?>
<!-- Uploaded to: SVG Repo, www.svgrepo.com, Generator: SVG Repo Mixer Tools -->

<svg
   width="533.61963"
   height="533.08698"
   viewBox="0 0 16.008589 15.99261"
   fill="none"
   version="1.1"
   id="svg1"
   sodipodi:docname="btc.svg"
   inkscape:version="1.4 (e7c3feb100, 2024-10-09)"
   xmlns:inkscape="http://www.inkscape.org/namespaces/inkscape"
   xmlns:sodipodi="http://sodipodi.sourceforge.net/DTD/sodipodi-0.dtd"
   xmlns="http://www.w3.org/2000/svg"
   xmlns:svg="http://www.w3.org/2000/svg">
  <defs
     id="defs1" />
  <sodipodi:namedview
     id="namedview1"
     pagecolor="#ffffff"
     bordercolor="#000000"
     borderopacity="0.25"
     inkscape:showpageshadow="2"
     inkscape:pageopacity="0.0"
     inkscape:pagecheckerboard="true"
     inkscape:deskcolor="#d1d1d1"
     inkscape:zoom="2.2525"
     inkscape:cx="266.59267"
     inkscape:cy="266.3707"
     inkscape:window-width="3840"
     inkscape:window-height="2117"
     inkscape:window-x="0"
     inkscape:window-y="0"
     inkscape:window-maximized="1"
     inkscape:current-layer="svg1" />
  <path
     d="m 9.5292929,9.6665778 c -0.27,1.0900002 -2.1,0.5000002 -2.7,0.3500002 l 0.48,-1.9300002 c 0.6,0.15 2.5,0.44 2.22,1.58 z m -1.56,-4.21997 -0.44,1.74997 c 0.5,0.12 2.03,0.63 2.28,-0.36 0.2500001,-1.02997 -1.34,-1.26997 -1.84,-1.38997 z m 7.8000001,4.47997 c -1.07,4.2800002 -5.41,6.8900002 -9.7000001,5.8300002 -4.28,-1.07 -6.89999997,-5.41 -5.82999997,-9.6900002 C 1.3092929,1.7766078 5.6492929,-0.82339223 9.9392929,0.23660777 14.219293,1.3066078 16.839293,5.6466078 15.769293,9.9265778 Z m -10.3900001,-0.59 c -0.04,0.11 -0.15,0.27 -0.4,0.21 -0.04,0 -0.64,-0.16 -0.64,-0.16 l -0.44,1.0000002 1.14,0.28 c 0.22,0.06 0.42,0.11 0.63,0.17 l -0.36,1.45 0.87,0.22 0.36,-1.44 c 0.24,0.07 0.47,0.12 0.7,0.18 l -0.36,1.43 0.88,0.22 0.36,-1.45 c 1.5,0.28 2.6300001,0.17 3.1000001,-1.19 0.38,-1.0900002 -0.02,-1.7200002 -0.81,-2.1300002 0.57,-0.13 1,-0.51 1.12,-1.29 0.16,-1.05997 -0.65,-1.63997 -1.7600001,-2.00997 l 0.3600001,-1.45 -0.8800001,-0.22 -0.35,1.4 c -0.23,-0.06 -0.47,-0.11 -0.71,-0.17 l 0.35,-1.41 -0.87,-0.22 -0.36,1.44 c -0.19,-0.04 -0.38,-0.09 -0.56,-0.13 l -1.21,-0.31 -0.23,0.94 c 0,0 0.64,0.15 0.64,0.16 0.35,0.09 0.41,0.32 0.41,0.51 l -0.99,3.94997 z"
     fill="#ffffff"
     id="path1" />
</svg>
