<svg xmlns="http://www.w3.org/2000/svg" xmlns:xlink="http://www.w3.org/1999/xlink" viewBox="0 0 1920 1080">
<style>
/* <![CDATA[ */

text {
  text-anchor: middle;
  font-family: 'Visuelt', sans-serif;
  font-size: 22px;
  user-select: none;
}

.n {
  display: none;
}

.op {
  opacity: 1;
  transition: opacity .3s linear;
}

.op.h {
  opacity: 0;
}

.d1_1 {
  animation: d1_1 2s cubic-bezier(.55,0,.45,1) infinite;
}
@keyframes d1_1 {
  0%, 2%, 48%, 50%, 100% { opacity: 0 }
  15%, 35% { opacity: 1 }
  0% { transform: translate( 547px, 87px ) }
  50%, 100% { transform: translate( 796px, 87px ) }
}

.d2_1 {
  animation: d2_1 2s cubic-bezier(.55,0,.45,1) infinite;
}
@keyframes d2_1 {
  0%, 2%, 48%, 50%, 100% { opacity: 0 }
  15%, 35% { opacity: 1 }
  0% { transform: translate( 547px, 204px ) }
  50%, 100% { transform: translate( 796px, 204px ) }
}

.d3_1 {
  animation: d3_1 2s cubic-bezier(.55,0,.45,1) infinite;
}
@keyframes d3_1 {
  0%, 2%, 48%, 50%, 100% { opacity: 0 }
  15%, 35% { opacity: 1 }
  0% { transform: translate( 311px, 458px ) }
  50%, 100% { transform: translate( 560px, 458px ) }
}

.d4_1 {
  animation: d4_1 2s cubic-bezier(.55,0,.45,1) infinite;
}
@keyframes d4_1 {
  0%, 2%, 48%, 50%, 100% { opacity: 0 }
  15%, 35% { opacity: 1 }
  0% { transform: translate( 311px, 575px ) }
  50%, 100% { transform: translate( 560px, 575px ) }
}

.d5_1 {
  animation: d5_1 2s cubic-bezier(.55,0,.45,1) infinite;
}
@keyframes d5_1 {
  0%, 2%, 48%, 50%, 100% { opacity: 0 }
  15%, 35% { opacity: 1 }
  0% { transform: translate( 776px, 873px ) }
  50%, 100% { transform: translate( 1025px, 873px ) }
}

.d6_1 {
  animation: d6_1 2s cubic-bezier(.55,0,.45,1) infinite;
}
@keyframes d6_1 {
  0%, 2%, 48%, 50%, 100% { opacity: 0 }
  15%, 35% { opacity: 1 }
  0% { transform: translate( 776px, 990px ) }
  50%, 100% { transform: translate( 1025px, 990px ) }
}

.d7_1 {
  animation: d7_1 2s cubic-bezier(.55,0,.45,1) infinite;
}
@keyframes d7_1 {
  0%, 52%, 98%, 100% { opacity: 0 }
  55%, 85% { opacity: 1 }
  0%, 50% { transform: translate( 969px, 90px ) rotate( 30.5deg ) }
  100% { transform: translate( 1380px, 333px ) rotate( 30.5deg ) }
}

.d8_1 {
  animation: d8_1 2s cubic-bezier(.55,0,.45,1) infinite;
}
@keyframes d8_1 {
  0%, 52%, 98%, 100% { opacity: 0 }
  55%, 85% { opacity: 1 }
  0%, 50% { transform: translate( 735px, 714px ) rotate( -22deg ) }
  100% { transform: translate( 1236px, 513px ) rotate( -22deg ) }
}

.d9_1 {
  animation: d9_1 2s cubic-bezier(.55,0,.45,1) infinite;
}
@keyframes d9_1 {
  0%, 52%, 98%, 100% { opacity: 0 }
  55%, 85% { opacity: 1 }
  0%, 50% { transform: translate( 1200px, 870px ) rotate( -50.1deg ) }
  100% { transform: translate( 1385px, 650px ) rotate( -50.1deg ) }
}

#inf1, #inf1 use, #inf1 rect,
#inf2, #inf2 use, #inf2 rect,
#inf3, #inf3 use, #inf3 rect {
  transition: all 1s ease-in-out;
}

#inf1 {
  transform: translate(653px, 243px) scale(1) translate(-653px, -243px);
}

#inf1.step3 {
  transform: translate(653px, 134px) scale(1.07) translate(-653px, -243px);
}

#inf1.step4 {
  transform: translate(821px, 70px) scale(1.32) translate(-653px, -243px);
}

#inf1 .inf_app4, #inf1 .inf_app5 {
  opacity: 0;
}

#inf1.step2 .inf_app4, #inf1.step3 .inf_app4, #inf1.step3 .inf_app5,
#inf1.step4 .inf_app4, #inf1.step4 .inf_app5 {
  opacity: 1;
}
#inf1 .st3_apps {
  transform: translate(0px, 0px);
  transition: all 1s ease-in-out;
}
#inf1.step3 .st3_apps, #inf1.step4 .st3_apps {
  transform: translate(0px, 116px);
}
#inf1 .inf_bg {
  height: 535px;
}
#inf1.step2 .inf_bg {
  height: 595px;
}
#inf1 .inf_tag2, #inf1 .inf_data {
  transform: translate(0px, 0px);
}
#inf1.step2 .inf_tag2, #inf1.step2 .inf_data, #inf1.step2 .inf_inf_ttl {
  transform: translate(0px, 60px);
}
#inf1 .inf_app1, #inf1 .inf_app2, #inf1 .inf_app3, #inf1 .inf_app_ttl {
  transform: translate(0px, 0px);
}
#inf1.step2 .inf_app1 {
  transform: translate(0px, 91px);
}
#inf1.step2 .inf_app2 {
  transform: translate(0px, 82px);
}
#inf1.step2 .inf_app3, #inf1.step2 .inf_app_ttl {
  transform: translate(0px, 73px);
}
#inf1.step3 .inf_bg, #inf1.step4 .inf_bg {
  height: 711px;
}
#inf1.step3 .inf_tag2, #inf1.step3 .inf_data, #inf1.step3 .inf_inf_ttl,
#inf1.step4 .inf_tag2, #inf1.step4 .inf_data, #inf1.step4 .inf_inf_ttl  {
  transform: translate(0px, 176px);
}
#inf1.step3 .inf_app1,
#inf1.step4 .inf_app1  {
  transform: translate(0px, 91px);
}
#inf1.step3 .inf_app2,
#inf1.step4 .inf_app2 {
  transform: translate(0px, 82px);
}
#inf1.step3 .inf_app3,
#inf1.step4 .inf_app3  {
  transform: translate(0px, 73px);
}
#inf1.step3 .inf_app_ttl,
#inf1.step4 .inf_app_ttl {
  transform: translate(0px, 189px);
}

#inf2 {
  transform: translate(889px, 39px) scale(1) translate(-889px, -39px);
}
#inf2.step2 {
  transform: translate(889px, 39px) scale(.6) translate(-889px, -39px);
}
#inf2.step2 .inf_app3, #inf2.step2 .inf_app_ttl, #inf2.step2 .inf_inf_ttl {
  opacity: 0;
}
#inf2 .inf_bg {
  height: 535px;
}
#inf2.step2 .inf_bg {
  height: 412px;
}
#inf2 .inf_tag2, #inf2 .inf_data {
  transform: translate(0px, 0px);
}
#inf2.step2 .inf_tag2, #inf2.step2 .inf_data {
  transform: translate(0px, -123px);
}
#inf2.step3 {
  transform: translate(889px, 39px) scale(.6) translate(-889px, -39px);
}
#inf2.step3 .inf_app2, #inf2.step3 .inf_app3, #inf2.step3 .inf_app_ttl, #inf2.step3 .inf_inf_ttl {
  opacity: 0;
}
#inf2.step3 .inf_bg {
  height: 280px;
}
#inf2.step3 .inf_tag2, #inf2.step3 .inf_data {
  transform: translate(0px, -255px);
}


#inf3 {
  transform: translate(1117px, 1035px) scale(1) translate(-1117px, -1035px);
}
#inf3.step2 {
  transform: translate(887px, 1109px) scale(.6) translate(-1117px, -1035px);
}
#inf3.step2 .inf_app3, #inf3.step2 .inf_app_ttl, #inf3.step2 .inf_inf_ttl {
  opacity: 0;
}
#inf3 .inf_bg {
  height: 535px;
}
#inf3.step2 .inf_bg {
  height: 412px;
}
#inf3 .inf_tag2, #inf3 .inf_data {
  transform: translate(0px, 0px);
}
#inf3.step2 .inf_tag2, #inf3.step2 .inf_data {
  transform: translate(0px, -123px);
}
#inf3.step3 {
  transform: translate(887px, 1188px) scale(.6) translate(-1117px, -1035px);
}
#inf3.step3 .inf_app2, #inf3.step3 .inf_app3, #inf3.step3 .inf_app_ttl, #inf3.step3 .inf_inf_ttl {
  opacity: 0;
}
#inf3.step3 .inf_bg {
  height: 280px;
}
#inf3.step3 .inf_tag2, #inf3.step3 .inf_data {
  transform: translate(0px, -255px);
}

#step4_lines, #step4_users, #step4_dots {
  transform: translate(0px, 0px);
  transition: all 1s ease-in-out;
}

#step4_lines.move, #step4_users.move, #step4_dots.move {
  transform: translate(101px, -65px);
}

/* ]]> */
</style>

<defs>

<filter id="f1" x="-200%" y="-200%" width="500%" height="500%">
  <feGaussianBlur in="SourceGraphic" stdDeviation="40" />
</filter>
<filter id="f2" x="-20%" y="-20%" width="140%" height="140%">
  <feGaussianBlur in="SourceGraphic" stdDeviation="4" />
</filter>
<filter id="f3" x="-200%" y="-200%" width="500%" height="500%">
  <feGaussianBlur in="SourceGraphic" stdDeviation="20" />
</filter>

<linearGradient x2="0" y2="1" id="grd1">
  <stop offset="0" stop-color="#eceded"/>
  <stop offset=".37" stop-color="#f4f5f5"/>
  <stop offset="1" stop-color="#fff"/>
</linearGradient>

<linearGradient id="grd2" x1="0" y1="0" x2="1" y2="0">
  <stop offset="0" stop-color="#fff" stop-opacity=".2"/>
  <stop offset="1" stop-color="#fff" stop-opacity=".4"/>
</linearGradient>

<linearGradient id="grd3" x1="0" y1="0" x2="1" y2="0">
  <stop offset="0" stop-color="#fff" stop-opacity=".2"/>
  <stop offset="1" stop-color="#fff"/>
</linearGradient>

<linearGradient id="grd4" x1="0" y1="0" x2="1" y2="0">
  <stop offset="0" stop-color="#fff" stop-opacity="0"/>
  <stop offset="1" stop-color="#fff" stop-opacity=".8"/>
</linearGradient>

<linearGradient id="grd5" x1="0" y1="0" x2="1" y2="0">
  <stop offset="0" stop-color="#fff" stop-opacity=".6"/>
  <stop offset="1" stop-color="#fff" stop-opacity=".9"/>
</linearGradient>

<g id="dots">
  <g fill="#FFF">
  <path d="M-24-4.2a4.2 4.2 0 1 1 0 8.4 4.2 4.2 0 1 1 0-8.4z" opacity=".3"/>
  <path d="M-12-4.2a4.2 4.2 0 1 1 0 8.4 4.2 4.2 0 1 1 0-8.4z" opacity=".5"/>
  <path d="M0-4.2a4.2 4.2 0 1 1 0 8.4 4.2 4.2 0 1 1 0-8.4z"/>
  <path d="M12-4.2a4.2 4.2 0 1 1 0 8.4 4.2 4.2 0 1 1 0-8.4z" opacity=".5"/>
  <path d="M24-4.2a4.2 4.2 0 1 1 0 8.4 4.2 4.2 0 1 1 0-8.4z" opacity=".3"/>
  </g>
</g>

<path id="cloud" fill="#fff" d="m599.97 294.57.03-53.67c5.63-.7 4.22-9.04-1.33-7.83l-16.81-30.7c7.62-4.35-.46-14.81-6.59-8.52L548.2 169c4.44-5.15-4.57-10.25-6.7-3.8l-38.68-9.68c1.21-8.33-11.34-8.87-10.86-.48l-36.94 6.23c.11-3.29-4.08-5.25-6.52-3.08l-29.76-41.36c4.17-2.98 1.9-10-3.31-9.89a5.5 5.5 0 0 0-5.37 4.33l-42.94-7.33c.35-2.78-2.62-5.08-5.23-4.1l-6.34-25.01c8.79-2.5 2.81-14.94-4.63-9.61l-24.3-37.48c2.96-2.14 1.24-7.26-2.47-7.13-3.33-.11-5.26 4.16-3.03 6.58l-10.38 7.85a5.53 5.53 0 0 0-6.93-1.43l-14.73-25.3c3.31-2.01 1.78-7.44-2.16-7.36a4 4 0 0 0-3.99 3.89l-58.02.44c-.81-8.72-13.64-5.71-10.49 2.46L175.45 34c-5.44-6.35-16.36-2.3-16.25 6.17 0 3.71 2.17 6.9 5.3 8.4l-13.32 29c-9.72-3.52-14.05 11.1-4.06 13.48l-2.81 26.37a3.97 3.97 0 0 0-4.41 3.82l-47.02 5.24c-.62-4.91-7.9-4.49-7.95.47.09 5.34 8.09 5.21 7.99-.13l46.99-5.24a3.98 3.98 0 0 0 3.98 3.78c4.8-.03 5.43-7 .77-7.92l2.81-26.35c.58.09 1.2.1 1.78.03l5.39 38.96c-3.46.39-5.68 4.47-4.04 7.6l-51.88 26.78c-2.29-4.53-9.32-5.5-12.76-1.71l-14.7-13.5c2.98-3.39.29-9.22-4.29-9.07-4.18-.12-6.97 4.81-4.79 8.33l-25.91 11.24c-3.74-5.08-10.6 1.59-5.63 5.47l-15.01 37.96C4.41 199.82.4 216.65 11.86 218.77l-5.98 52.19c-8.73-.2-7.26 12.84 1.2 10.72l11.46 29.92c-5.28 2.93-.1 10.41 4.5 6.48l39.5 35.83c-3.11 6.22 5.81 11.25 9.54 5.44l43.4 12.78c-1.31 5.74 7.45 7.01 7.84 1.13h38.65c.48 4.96 7.78 4.73 7.95-.25l16.02-.31c.23 5.57 7.93 7.15 10.38 2.23l140.13-.19c3.59 7.03 13.8 1.13 9.46-5.51l37.05 3.98c.35 4.64 7.08 4.96 7.9.41l54.08-.41c-.05 7.75 11.48 7.39 10.96-.34l65.43-3.58c1.41 6.08 10.29 2.78 7.36-2.74l45.07-30.21c2.11 3.02 7.31 1.34 7.17-2.41a4 4 0 0 0-4.77-3.92l-5.39-22.3a5.3 5.3 0 0 0 3.08-5.66l18.16-1.71a5.5 5.5 0 0 0 5.42 4.59c5.72.03 7.56-7.83 2.54-10.38Zm-1.63-61.4c-4.21 1.41-3.19 7.79 1.3 7.77l-.03 53.46a5.4 5.4 0 0 0-1.69-.43l-12.52-32.32c5.83-2.72.39-10.85-4.35-6.49l-37.16-31.53a5.55 5.55 0 0 0 .38-5.78l30.47-17.52a5.54 5.54 0 0 0 6.79 2.19l16.8 30.65Zm-29.76 64.34c-1.21 0-2.33.41-3.23 1.09l-10.05-11.54c3.87-3.36 2.78-10.43-1.87-12.48l7.78-17.67a5.35 5.35 0 0 0 6.94-3.48l11.94 3.47a3.96 3.96 0 0 0 2.43 4.78l-11.96 36.22a5.36 5.36 0 0 0-1.97-.39Zm-3.82 9.07-48.91 36.04a5.54 5.54 0 0 0-6.04-1.27l-15.42-44.39a8.2 8.2 0 0 0 5.54-8.5l42.47-5.74c.7 5.75 8.37 8.55 12.62 4.6l10.03 11.53c-2.25 1.82-2.41 5.75-.29 7.73Zm-177.84 62.36c-.65 0-1.26.17-1.81.45L358.32 322a6.26 6.26 0 0 0 3.22-2.69l26.26 14.16c-1.35 2.31-.14 5.72 2.47 6.59l-3.1 28.89c-.08 0-.16-.03-.25-.03Zm-36.78-51.06-45.37 19.58a8.07 8.07 0 0 0-7.3-4.6l-1.87-46.8a8.54 8.54 0 0 0 6.71-4.67l48.8 31.03a6.3 6.3 0 0 0-.98 5.47Zm-158.72 49.06a5.5 5.5 0 0 0-5.5 5.43l-16.03.31c-.09-3.03-3.84-4.83-6.26-3.03l-22.76-29.82c2.91-1.94 2.97-6.84.09-8.84l26.19-38.05c4.29 2.45 10.41.94 13.09-3.06l13.81 9.9c-2.54 3.38.24 8.69 4.52 8.39l1.95 25.8c-4.28.39-4.92 6.47-.84 7.75l-6.99 25.37c-.41-.1-.84-.16-1.29-.16Zm-124-16c-1.37 0-2.61.5-3.58 1.33l-27.19-40.96a4.68 4.68 0 0 0 1.58-5.14l27.51-11.58c1.41 3.54 6.49 4.89 9.49 2.44l19.32 28.71a4 4 0 0 0-.59 5.87l-22.05 21.66a5.5 5.5 0 0 0-4.48-2.32ZM20.79 212.88l56.88 12.54c-.92 4.24 3.74 7.93 7.66 6.11l19.56 39.13-28.84 17.1a6.3 6.3 0 0 0-7.77-1.12l-50.31-69.5a8.04 8.04 0 0 0 2.82-4.27Zm67.34 11.19 49.84-27a8.46 8.46 0 0 0 6.58 3.93l-2.58 39.57c-5.76-.43-9.13 7.1-5.13 11.14l-31.42 18.64-19.55-39.09a5.57 5.57 0 0 0 2.26-7.18Zm63.26-37.22 23.7-23.45a10.54 10.54 0 0 0 10.67 2.5l16.59 35.94a5.35 5.35 0 0 0-2.08 3.77l-47.24-10.02a8.45 8.45 0 0 0-1.64-8.74Zm33.38-41.1 2.8-13.25 52.32-6.15a6.17 6.17 0 0 0 1.29 3.41l-14.27 12.31c-3.61-4.18-10.77-.27-9.07 5.06l-25.07 6.98a10.49 10.49 0 0 0-8-8.36ZM283.15 6.19l-19.76 7.5c-2.08-3.8-8.36-3.31-9.84.75L224.79 6.7c.08-.35.13-.71.14-1.08l58.03-.44c.02.35.09.69.19 1.01Zm-63.72 4.75a5.5 5.5 0 0 0 5.26-3.91l28.73 7.73a4.99 4.99 0 0 0-.29 2.11L214.72 27.2l3.67-16.36c.33.06.68.1 1.03.1Zm33.74 6.28a5.53 5.53 0 0 0 4.58 4.83l-5.25 47.73-29.96 12.1a3.98 3.98 0 0 0-3.99-1.96l-6.28-36c3.7-.83 3.98-6.31.4-7.52l1.98-8.81 38.53-10.36Zm61.99 77.55c1.85 0 3.48-.91 4.49-2.3l46.39 27.78a7.96 7.96 0 0 0-.91 4.3l-68.57 3.84a7.05 7.05 0 0 0-7.91-7.2l-3.71-33.41 24.69 1.42a5.55 5.55 0 0 0 5.55 5.56Zm100.27 23.17c.17 0 .35-.01.52-.03l5.31 43.59a5.65 5.65 0 0 0-4.24 4.17l-28.38-10.22a4 4 0 0 0-1.2-4.62l24.89-33.87c.89.61 1.96.97 3.11.97Zm29.52 85.74 20.1-16.18a5.3 5.3 0 0 0 5.32 1.61l19.19 46.57a5.3 5.3 0 0 0-2.66 6.46l-42.78 11.75a9.78 9.78 0 0 0-8.3-6.59l2.53-31.07c6.48.56 10.66-7.58 6.6-12.54Zm29.39-20.16 51.18-.15a5.57 5.57 0 0 0 6.65 5.12l5.9 26.63c-8.48 2.75-2.42 14.77 4.84 9.58l17.78 22.42c-3.99 1.8-3.88 7.97.15 9.63l-7.77 17.65c-2.17-1-5.03-.8-7.03.45l-34.94-52.89c5.42-3.65 2.74-12.49-3.89-12.43-6.56-.14-9.3 8.8-3.94 12.39l-8.82 13.79a5.39 5.39 0 0 0-4.59-.22l-19.17-46.51c2.24-.73 3.92-3 3.63-5.48Zm100.24 16.51-30.47 17.52a5.5 5.5 0 0 0-5.69-2.51l-5.9-26.64a5.54 5.54 0 0 0 3.81-3.61l37.8 11.26a5.47 5.47 0 0 0 .46 3.99Zm5.61 56.53-11.94-3.47c1.09-4.1-3.4-7.85-7.24-6.13l-17.84-22.49c.18-.17.36-.35.52-.55l37.15 31.52c-.27.34-.49.71-.65 1.12Zm-37.85 25.77-42.46 5.74c-.95-7.64-11.52-9.64-15.21-2.94l-41.2-23.46a9.84 9.84 0 0 0 .77-7.45l42.77-11.74c1.26 3.53 6.51 4.46 8.89 1.53l47.27 33.88a7.67 7.67 0 0 0-.84 4.44Zm-78.28 62.13-11.42 23.95a5.5 5.5 0 0 0-4.2-.09l-11.88-27.92a8.1 8.1 0 0 0 4.71-4.76l20.73 4.64a3.97 3.97 0 0 0 2.06 4.18Zm-36.65-16.65-6.01-5.45 10.74-4.84v7.43a8.01 8.01 0 0 0-4.72 2.86Zm-6.3-5.71-43.88-39.78a6.31 6.31 0 0 0 1.79-6.53l46.65-15.55a9.77 9.77 0 0 0 6.46 6.13v50.76l-11.02 4.97Zm-25.51 10.66a4.72 4.72 0 0 0-7.59.38l-26.27-14.17c1.73-3.1.04-7.58-3.41-8.72l12.76-26.63c1.95.68 4.33.21 5.86-1.07l43.8 39.71-24.74 11.15a4.4 4.4 0 0 0-.42-.64Zm-43.38-21.52c-.34.27-.63.58-.89.9l-48.88-31.07c2.14-4.42-.44-10.15-5-11.57l8.1-24.53a8.72 8.72 0 0 0 9.79-3.35l52.4 32.71c-2.14 3.15-.5 7.94 3.02 9.16l-12.77 26.64a6.24 6.24 0 0 0-5.77 1.11Zm-62.19 26.61-26.84-10.19 27.47-42.55a8.3 8.3 0 0 0 4.33.98l1.87 46.8a8.09 8.09 0 0 0-6.83 4.96Zm-46.52 14.18a5.53 5.53 0 0 0-5.08 3.33l-33.82-15.88a3.97 3.97 0 0 0-.14-3.35l29.27-19.28 28.68 10.89-16.15 25.02a5.56 5.56 0 0 0-2.75-.73Zm-64.86-75.85 21.42-26.21c3.16 2.63 8.51 2.54 11.58-.19l7.73 8.78c-3.64 3.08-1.28 9.44 3.55 9.33a5.34 5.34 0 0 0 5.34-5.34c.14-4.33-5.29-6.95-8.59-4.24l-7.74-8.79a9.33 9.33 0 0 0 2.31-3.23l72.41 28.32a8.5 8.5 0 0 0 .36 6.72l-53.33 35.12-30.34-11.52c2.41-5.65-5.21-10.2-9.05-5.48l-13.82-9.9c2.86-4 1.95-10.35-1.83-13.38Zm-41.58-24.23a6.7 6.7 0 0 0 8.79.44l19.56 23.63c-5.37 4.12-4.67 13.32 1.21 16.6l-26.16 38.02a5.58 5.58 0 0 0-5.09-.36l-29.82-59.65 31.51-18.69Zm28.67 23.83-19.58-23.64c4.3-3.64 1.84-11.19-3.81-11.57l2.58-39.57c.87.04 1.73-.1 2.53-.32l21.61 73.41c-1.22.36-2.35.94-3.33 1.69Zm-17.9-75.22a8.5 8.5 0 0 0 4.98-4.52l47.39 10.05a5.33 5.33 0 0 0 5.31 5.31v22c-8.43.08-12.2 11.05-5.76 16.32l-21.42 26.2a10.3 10.3 0 0 0-8.9-1.94l-21.61-73.42Zm45.08-44.62c0-.51-.05-1.01-.12-1.51l25.12-7c1.02 3.21 5.41 4.62 8.11 2.52l22.54 26.47c-1.89 2.09-1.15 5.8 1.33 7.05l-39.31 51.31a9.19 9.19 0 0 0-4.67-1.38v-22.01c8.79-1.24 4.67-14-3.17-9.86l-16.53-35.82a10.47 10.47 0 0 0 6.71-9.77Zm34.23-13.6 14.28-12.31c3.54 4.16 10.82 1.48 10.74-4.06l30.27 2.51a7.06 7.06 0 0 0 2.74 5.3l-30.24 41.82a4.73 4.73 0 0 0-6.14.55l-22.49-26.42a5.35 5.35 0 0 0 .84-7.39Zm-4.07-58.13 27.64 1.59-3.75 34.03a6.05 6.05 0 0 0-3.95.69l-21.53-33.37c.9-.69 1.5-1.74 1.58-2.94Zm-.27-1.8 29.6-11.95-1.62 14.74-27.71-1.6a3.9 3.9 0 0 0-.27-1.19Zm144.17 46.8-31.97 28.97c-2.23-2.95-7.38-2.78-9.41.31l-30.54-25.93a6.97 6.97 0 0 0 1.46-3.81l68.63-3.84a8.07 8.07 0 0 0 1.84 4.31Zm16.23 28.33-13.5 32.65a6.3 6.3 0 0 0-7.7 1.69l-27.34-25.7a5.84 5.84 0 0 0 1.69-4.5l44.73-6.65a3.95 3.95 0 0 0 2.12 2.5Zm54.74 58.66-2.53 31.06a9.77 9.77 0 0 0-8.04 3.49l-56.19-50.4a6.33 6.33 0 0 0 1.47-2.1l58.25 9.98a7.8 7.8 0 0 0 7.03 7.96Zm-64.91 55.21a6.24 6.24 0 0 0-5.07 2.6l-52.4-32.71c.54-.87.94-1.85 1.14-2.89l108.51 17.24c-.2 1.39-.08 2.9.33 4.22l-46.66 15.55a6.26 6.26 0 0 0-5.84-4.01Zm52.24-16.15-108.51-17.24a8.7 8.7 0 0 0-3.01-7.94l12.37-15.15c3.43 3.17 9.08-.54 7.54-4.97l27.51-11.58c1.44 3.61 6.65 4.92 9.63 2.33l56.26 50.46a9.67 9.67 0 0 0-1.8 4.1Zm-120.1-10.41-8.1 24.53a8.55 8.55 0 0 0-8.64 2.37l-25.67-22.91a6.42 6.42 0 0 0 1.4-4.7l35.66-5.31a8.68 8.68 0 0 0 5.36 6.02Zm-94.16-9.79 39.33-51.33c.6.25 1.28.41 1.97.36l4.74 54.37a6.4 6.4 0 0 0-5.65 6.35c-.13 5.73 7.38 8.59 11.1 4.33l25.67 22.91a8.52 8.52 0 0 0-1.37 2.21l-72.4-28.32a9.32 9.32 0 0 0-3.38-10.88Zm44.23-59.2 30.24-41.83a6.96 6.96 0 0 0 4.97 1.16l15.9 93.06a8.68 8.68 0 0 0-6.67 10.09l-35.62 5.3a6.38 6.38 0 0 0-6.53-5.22l-4.74-54.38c3.9-.36 5.48-5.76 2.44-8.18Zm73.42-8.14-18.28 60.62a8.88 8.88 0 0 0-3.63-.16l-15.9-93.04a7.03 7.03 0 0 0 3.8-2.12l30.6 25.98c-1.99 3.17-.13 7.77 3.42 8.71Zm1.74.26a6 6 0 0 0 3.89-1.44l27.41 25.76a6.32 6.32 0 0 0-.67 5.7l-27.5 11.58c-3.16-6.55-12.45-.61-7.77 5l-12.4 15.19a8.76 8.76 0 0 0-2.6-1.33l18.28-60.63c.44.1.89.16 1.36.16ZM203.18 305.27l30.15 11.44-29.03 19.12a3.98 3.98 0 0 0-3.41-1.88l-1.95-25.8a5.3 5.3 0 0 0 4.25-2.88Zm30.91 11.36 53.08-34.96a8.5 8.5 0 0 0 2.96 3.14l-27.53 42.64-28.51-10.82Zm198.64-50.09c2.49.6 5.32.05 7.37-1.3l30.26 34.67-37.64 16.96v-50.33Zm7.89-1.65a9.95 9.95 0 0 0 2.64-2.88l41.21 23.47a8.23 8.23 0 0 0 .28 7.95l-13.79 6.22-30.33-34.75Zm44.31 28.84a8.23 8.23 0 0 0 9.11 3.34l15.43 44.44a5.6 5.6 0 0 0-1.27.81l-37.02-42.41 13.74-6.19Zm9.86-57.8 8.81-13.78a6.84 6.84 0 0 0 7.16.03l34.94 52.88a7.93 7.93 0 0 0-2.37 2.52l-47.22-33.85c2-2.3 1.27-6.31-1.32-7.81Zm-63.85-28.19-58.11-9.95a6.29 6.29 0 0 0-2.7-7.34l13.53-32.72a3.95 3.95 0 0 0 4.78-1.95l28.47 10.25c-.88 4.21 3.6 7.92 7.57 6.3l11.27 28.85a7.82 7.82 0 0 0-4.8 6.56Zm-50.03-53.8c0 .26.03.51.08.76l-44.66 6.64a6 6 0 0 0-.96-2.67l32.02-29a8.1 8.1 0 0 0 8.49 1.95l7.41 18.68a4 4 0 0 0-2.37 3.64Zm-92.9-32.65a7.06 7.06 0 0 0-5.59 6.85l-30.28-2.51a6.16 6.16 0 0 0-4.57-5.67l3.76-34.12 32.96 1.9 3.72 33.54Zm-36.62-36.05 1.66-15.04 20.94-8.45a8.06 8.06 0 0 0 7.95 4.74l2.29 20.64-32.83-1.89Zm-39.08-48.96a3.95 3.95 0 0 0-4.98 3.62h-29.55a9.36 9.36 0 0 0-.36-2.32l36.82-9.9-1.93 8.6Zm-34.52 4.02h29.55a3.91 3.91 0 0 0 4.31 3.7l6.28 36.03c-2.75.65-3.94 4.4-2.02 6.51l-17.16 15.11a8.3 8.3 0 0 0-8.62-2.1l-18.21-50.76a9.32 9.32 0 0 0 5.88-8.5Zm15 75.36c6.99.16 10.9-8.63 6.22-13.71l17.17-15.12a4.05 4.05 0 0 0 4.82.64l21.51 33.37a6.17 6.17 0 0 0-2.67 5.14l-52.21 6.13 3.51-16.63a8.1 8.1 0 0 0 1.65.16ZM96.92 324.94a4 4 0 0 0-2.08.6L75.5 296.81c2.57-1.99 2.97-6.36.77-8.79l28.75-17.06 29.8 59.61a5.56 5.56 0 0 0-2.75 4.05l-31.22-5.19a3.98 3.98 0 0 0-3.95-4.48Zm96.13 42.25 6.98-25.35c1.76.45 3.64-.5 4.42-2.04l33.86 15.9a5.48 5.48 0 0 0-.05 3.64L196.73 371a5.54 5.54 0 0 0-3.67-3.8Zm53.73-14.09L263 327.97l26.91 10.22c-3.07 8.63 8.34 14.84 13.94 7.71l30.58 21.78-85.44-9.18a5.54 5.54 0 0 0-2.21-5.4Zm149.41-19.38 24.86-11.2 6.15 5.57c-4.66 6.17 1.68 14.95 9.03 12.43l11.89 27.93c-.8.37-1.49.93-2.03 1.62l-50.33-31.65a4.69 4.69 0 0 0 .44-4.71Zm56.76 34.84 11.41-23.93a4.02 4.02 0 0 0 5.56-3.68c-.02-4.66-6.71-5.47-7.86-1l-20.68-4.63c1.85-5.42-2.94-11.27-8.64-10.46v-7.61l37.88-17.07 37.16 42.57a5.58 5.58 0 0 0-.47 6.89l-52.04 21.22a5.48 5.48 0 0 0-2.33-2.29Zm88.48-203.01c-.73 3.54 3.86 6.09 6.49 3.68l27.13 24.89a5.38 5.38 0 0 0-.84 1.59l-37.8-11.26c1.74-7.89-10.17-9.72-10.9-1.69l-51.24.15a5.38 5.38 0 0 0-1.07-2.29l20.6-22.05c2.84 2.71 8.08 1.09 8.93-2.71l38.69 9.68Zm-93.2-7.14c-2.55 2.32-.71 6.98 2.79 6.86 2.08 0 3.78-1.6 3.96-3.64l37.03-6.24a5.5 5.5 0 0 0 1.53 2.95l-20.57 22.01c-4.57-4.94-12.22 1.45-8.18 6.84l-20.09 16.18a7.85 7.85 0 0 0-8.57-2.33l-11.27-28.87c5.89-2.68 3.21-11.78-3.27-10.73l-5.31-43.58a5.4 5.4 0 0 0 2.16-.83l29.78 41.38Zm-86.68-58.46c-3.9 1.61-2.69 7.73 1.6 7.66a3.99 3.99 0 0 0 3.93-3.32l42.92 7.33a5.47 5.47 0 0 0 2.04 5.15l-24.88 33.85a3.94 3.94 0 0 0-3.53-.44l-7.41-18.68a8.05 8.05 0 0 0 5.02-7.47c.06-8.18-11.06-11.07-15.03-4.07l-46.36-27.77a5.56 5.56 0 0 0 .63-4.54l29.9-14.5a5.51 5.51 0 0 0 4.83 1.74l6.35 25.06Zm-40.21-72.49a4.02 4.02 0 0 0 4.99.49l24.32 37.5c-.28.26-.53.55-.75.87l-38.77-25.04a5.52 5.52 0 0 0-.19-5.96l10.39-7.86Zm-17.83 6.33c-5.91 3.86-.69 12.78 5.59 9.46l11.62 19.36c-3.26 2.04-1.71 7.41 2.2 7.33 6.66-.46 4.15-10.3-1.9-7.5l-11.63-19.38c.61-.39 1.13-.9 1.54-1.49l38.77 25.04a5.54 5.54 0 0 0 .41 6.26l-29.77 14.44c-1.92-5.42-10.11-4.47-10.72 1.29l-24.79-1.43-2.3-20.74c9.73-1.59 8.74-15.87-1.19-16.04-5.48-.11-9.54 5.71-7.59 10.81l-20.63 8.33 5.22-47.4c4.2.37 7.26-4.49 5.21-8.13l19.69-7.47a4.01 4.01 0 0 0 5.52 1.95L303.5 33.8ZM214.58 8.04a5.47 5.47 0 0 0 3.47 2.72l-3.71 16.54-37 9.95a9.13 9.13 0 0 0-1.66-3.01l38.9-26.2Zm-64.95 83.02c6.72-1.03 8.03-10.49 1.9-13.33l13.33-29.01c2.02.89 4.6.98 6.7.23l18.21 50.76c-7.39 2.77-6.69 13.89 1 15.71l-3.55 16.77-26.5 3.11a5.33 5.33 0 0 0-5.7-5.25l-5.4-38.98ZM91.69 176.5c5.79.14 9.87-6.35 7.3-11.5l51.89-26.79c2.59 4.35 9.67 2.56 9.82-2.57l26.44-3.11-2.77 13.12c-9.83-1.94-16.44 10.31-9.57 17.45l-23.69 23.44c-6.86-6.75-17.95 1.41-13.46 9.99l-49.82 26.99a5.54 5.54 0 0 0-3.61-2.53l6.59-44.55c.29.03.58.05.88.05Zm-1.48-.14-6.59 44.56a5.54 5.54 0 0 0-5.88 4.16l-56.87-12.54a8.02 8.02 0 0 0-.64-5.29l64.5-34.73a8.07 8.07 0 0 0 5.47 3.84Zm-4.66-13.16a8.1 8.1 0 0 0-1.1 8.78l-64.5 34.73a8.13 8.13 0 0 0-1.69-2l45.97-54.16c2.02 1.24 5 .83 6.61-.85l14.7 13.5Zm-54.61 2.2c3.31 2.09 7.49-1.97 5.49-5.34l25.93-11.25c.41.62.95 1.14 1.57 1.55L18 204.48a8.1 8.1 0 0 0-2.04-1.18l14.98-37.9ZM12.2 218.83c1.87.2 3.81-.32 5.28-1.32l50.29 69.47a6.3 6.3 0 0 0-2.17 7.25l-27.5 11.58c-1.13-3.06-5.7-3.86-7.79-1.32L9.18 280.46c3.36-2.89 1.46-8.99-2.96-9.44l5.98-52.18Zm-4.79 62.75a5.3 5.3 0 0 0 1.51-.88l21.16 24.07a4.64 4.64 0 0 0-.49 4.98l-5.98 3.18a4 4 0 0 0-4.76-1.45L7.4 281.59Zm15.87 36.28a3.95 3.95 0 0 0 .51-4.62l5.98-3.18a4.71 4.71 0 0 0 6.61 1.49l27.21 40.97c-.34.33-.63.7-.87 1.11l-39.43-35.77Zm100.02 55.1c-.23-4.31-6.31-5.15-7.73-1.12l-43.31-12.76a5.54 5.54 0 0 0-.16-5.5l22.1-21.7c2.1 2.14 6.14.86 6.63-2.09l31.23 5.2c-.52 4.45 4.89 7.6 8.53 5.08l22.77 29.84a3.96 3.96 0 0 0-1.45 3.06h-38.63Zm73.18 1.66c.43-.98.56-2.2.33-3.28l41.57-11.67c1.91 4.96 9.41 4.4 10.54-.81l86.09 9.25 1.83 1.31a5.54 5.54 0 0 0-.55 5.02l-139.81.19Zm140.57-5.49-1.33-.95 2 .22c-.25.22-.47.47-.67.73Zm4.37-2.17c-1.25 0-2.4.42-3.33 1.13l-2.96-.32-31.08-22.14a8.08 8.08 0 0 0 .95-7.59l45.33-19.56a6.3 6.3 0 0 0 7.65 3.66l26.82 47.44a4 4 0 0 0-1.88 3.33l-37.32-4.01a5.5 5.5 0 0 0-4.18-1.93Zm49.46 6.36c.26-2.1-1.34-4-3.37-4.3l3.09-28.8a4.7 4.7 0 0 0 4.93-1.49l50.33 31.64c-.5.74-.83 1.6-.92 2.53l-54.06.42Zm184.93-43.18c-2.46.61-3.73 3.82-2.27 5.95l-45.06 30.2c-2.21-3.27-7.71-1.3-7.2 2.69l-65.44 3.58a5.5 5.5 0 0 0-.42-1.38l52.1-21.25c4.64 5.6 13.07-.97 8.73-6.84L565.23 307a5.27 5.27 0 0 0 5.2.85l5.38 22.27Zm-2.02-28.41a5.34 5.34 0 0 0-2.92-3.67l11.97-36.26c.71.22 1.53.21 2.23-.02l12.47 32.19a5.5 5.5 0 0 0-5.59 6.06l-18.16 1.71Z"/>

<g id="icn_user">
<g fill="none" stroke="#FFF" stroke-linecap="round" stroke-linejoin="round">
<circle r="51" stroke-width="2"/>
<path stroke-width="3" d="M10.69-13.67a10.92 10.92 0 1 1-21.84 0 10.92 10.92 0 0 1 21.84 0zM-20.86 16.62a21.54 21.54 0 0 1 41.26 0"/>
</g>
<path fill="#FFF" d="M-20.08 35.54c-1.28-.7-1.86-2-1.85-3.48V26.1h2.14v5.95c0 1.28.58 2.08 1.86 2.09 1.29 0 1.86-.81 1.86-2.09V26.1h2.14c-.14 1.55.39 6.74-.48 8.05-.95 1.96-3.88 2.36-5.67 1.39zM-10.66 35.65a3.27 3.27 0 0 1-1.97-2.7l.11-.15 1.95-.29c.02 1.55 1.93 2.29 3.05 1.41.8-.68.44-2.09-.59-2.35-1.65-.53-4.22-.83-4.14-3.02.13-3.61 6.61-3.35 6.83.11l-.11.15-1.8.19c-.21-2.81-4.92-1-1.92.37.99.29 2.76.65 3.46 1.35 2.74 3.2-1.57 6.56-4.87 4.93zM-3.35 26.1h6.5v1.82H-1.2v2.17h3.98v1.82H-1.2v2.17h4.5v1.82h-6.65v-9.8zM4.96 26.1c1.7.1 5.2-.42 6.45.86 1.56 1.29 1.32 4.14-.59 5.15v.15l2.11 3.64h-2.35l-1.93-3.37H7.1v3.37H4.96v-9.8zm3.75 4.6c1.38.16 2.12-1.55 1.16-2.43-.53-.54-2.05-.31-2.77-.36v2.79h1.61zM15.57 35.65a3.27 3.27 0 0 1-1.97-2.7l.11-.15 1.95-.29c.02 1.55 1.93 2.29 3.05 1.41.8-.68.44-2.09-.59-2.35-1.65-.53-4.22-.83-4.14-3.02.13-3.61 6.61-3.35 6.83.11l-.11.14-1.81.2c-.21-2.81-4.92-1-1.92.37.99.29 2.76.65 3.46 1.35 2.74 3.2-1.57 6.56-4.86 4.93z"/>
</g>

<rect id="tag" width="124" height="42" rx="11" ry="11" fill="url(#grd3)" stroke="url(#grd4)"/>

<path id="hosting" fill="#1c1c23" d="M0 .18h1.91v3.55h3.33V.18h1.91V8.9H5.24V5.35H1.91V8.9H0V.18ZM10.72 8.46C5.73 5.31 9.97-2.2 15.3.62c4.99 3.15.75 10.65-4.58 7.84Zm3.63-1.48c2.76-1.82.48-6.69-2.69-4.88-2.72 1.86-.53 6.67 2.69 4.88ZM20.12 8.68a2.88 2.88 0 0 1-1.75-2.41l.1-.14 1.73-.26c.02 1.38 1.72 2.04 2.72 1.26.71-.6.39-1.87-.52-2.09-1.47-.47-3.76-.74-3.69-2.69.12-3.21 5.89-2.98 6.08.1l-.1.14-1.61.17c-.17-2.49-4.39-.91-1.71.33 6.26.68 4.14 7.5-1.25 5.59ZM27.62 1.8h-2.19V.18h6.3V1.8h-2.19v7.11h-1.91V1.8ZM32.94.18h1.91V8.9h-1.91V.18ZM36.5.18h2.06l3.21 5.31.15.71h.09V.18h1.91V8.9h-2.06l-3.21-5.31-.15-.71h-.09V8.9H36.5V.18ZM47.52 8.45c-2.92-1.52-2.94-6.29-.04-7.83 2.19-1.25 5.69-.46 6.29 2.23l-.1.16-1.71.24c-.88-2.83-5.02-1.49-4.74 1.28-.36 2.88 4.26 4.07 4.83 1.04h-3.04V4.1h4.85c.46 3.79-3.03 6.12-6.34 4.35Z"/>

<g id="data_storage" fill="#1c1c23">
<path d="M0 .18C3.49.06 7.73-.1 7.76 4.54 7.73 9.18 3.49 9.03 0 8.9V.18Zm3.04 7.1c2.69.3 3.62-3.14 2.08-4.79-.64-.74-2.18-.73-3.22-.7v5.49h1.13ZM11.21.18h1.72l3.33 8.73h-2.01l-.51-1.47H10.4l-.52 1.47h-2L11.21.18Zm1.96 5.62-.93-2.67-.14-.95h-.06l-.12.95-.94 2.67h2.19ZM18.06 1.8h-2.19V.18h6.3V1.8h-2.19v7.11h-1.91V1.8ZM25.09.18h1.72l3.33 8.73h-2.01l-.51-1.47h-3.34l-.52 1.47h-2L25.09.18Zm1.96 5.62-.94-2.67-.14-.95h-.06l-.12.95-.94 2.67h2.2ZM35.2 8.68a2.88 2.88 0 0 1-1.75-2.41l.1-.14 1.73-.26C35.3 7.25 37 7.91 38 7.13c.71-.6.39-1.86-.52-2.09-1.47-.47-3.76-.74-3.69-2.69.12-3.21 5.89-2.98 6.08.1l-.1.14-1.61.17c-.17-2.49-4.39-.91-1.71.33 6.26.68 4.14 7.5-1.25 5.59ZM42.7 1.8h-2.19V.18h6.3V1.8h-2.19v7.11h-1.91V1.8Z"/>
<path d="M49.21 8.46C44.22 5.31 48.46-2.2 53.79.62c4.99 3.15.75 10.65-4.58 7.84Zm3.63-1.48c2.76-1.82.48-6.69-2.69-4.88-2.72 1.86-.53 6.67 2.69 4.88ZM57.36.18c1.51.09 4.63-.37 5.75.77 1.39 1.15 1.18 3.69-.52 4.58v.14l1.88 3.24h-2.09l-1.72-3h-1.38v3h-1.91V.18Zm3.34 4.1c1.23.15 1.88-1.38 1.03-2.16-.47-.48-1.83-.28-2.46-.32v2.48h1.43ZM68.37.18h1.72l3.33 8.73h-2.01l-.51-1.47h-3.34l-.52 1.47h-2L68.37.18Zm1.96 5.62-.94-2.67-.14-.95h-.06l-.12.95-.94 2.67h2.2ZM75.76 8.45c-2.92-1.52-2.94-6.29-.04-7.83 2.19-1.25 5.69-.46 6.29 2.23l-.1.16-1.71.24c-.88-2.83-5.02-1.49-4.74 1.28-.36 2.88 4.26 4.07 4.83 1.04h-3.04V4.1h4.85c.46 3.79-3.03 6.12-6.34 4.35ZM83.5.18h5.79V1.8h-3.88v1.93h3.54v1.62h-3.54v1.93h4.02V8.9h-5.92V.18Z"/>
</g>

<g id="app" fill="none" stroke="#fff" stroke-linejoin="round" stroke-width="2.7">
<rect width="20.86" height="20.86" x="24.13" y="5.66" transform="rotate(-45 34.56 16.08)"/>
<rect width="20.86" height="20.86" x="43.04" y="24.57" transform="rotate(-45 53.47 35)"/>
<rect width="20.86" height="20.86" x="5.66" y="24.13" transform="rotate(-45 16.1 34.55)"/>
<rect width="20.86" height="20.86" x="24.57" y="43.04" transform="rotate(-45 35 53.47)"/>
</g>

<path id="app_ttl" fill="#fff" d="M3.33.02h1.72l3.33 8.73H6.37l-.51-1.47H2.52L2 8.75H0L3.33.02Zm1.96 5.62-.94-2.67-.14-.95h-.06l-.12.95-.94 2.67h2.19ZM9.4.02c1.23.08 4.21-.24 5.29.35 2.18.87 2.18 4.39 0 5.26-.85.46-2.39.34-3.39.36v2.76H9.39V.02Zm3.38 4.35a1.4 1.4 0 0 0 1.23-2.4c-.5-.48-2-.3-2.7-.33v2.73h1.47ZM17.73.02c1.23.08 4.21-.24 5.29.35 2.18.87 2.18 4.39 0 5.26-.85.46-2.39.34-3.39.36v2.76h-1.91V.02Zm3.38 4.35a1.4 1.4 0 0 0 1.23-2.4c-.5-.48-2-.3-2.7-.33v2.73h1.47Z"/>

<path id="infrastructure" fill="#fff" d="M0 .14h1.91v8.73H0V.14ZM3.55.14h2.06l3.21 5.31.15.71h.09V.14h1.91v8.73H8.91L5.7 3.56l-.15-.71h-.09v6.02H3.55V.14ZM12.61.14h5.94v1.62h-4.03v2.02h3.7v1.63h-3.7v3.45h-1.91V.14ZM19.86.14c1.51.09 4.63-.37 5.75.77 1.39 1.15 1.18 3.69-.52 4.58v.14l1.88 3.24h-2.09l-1.72-3h-1.38v3h-1.91V.14Zm3.34 4.1c1.23.15 1.89-1.38 1.03-2.16-.47-.48-1.83-.28-2.46-.32v2.48h1.43ZM30.87.14h1.72l3.33 8.73h-2.01L33.4 7.4h-3.34l-.52 1.47h-2L30.87.14Zm1.96 5.62-.94-2.67-.14-.95h-.06l-.12.95-.94 2.67h2.19ZM38.09 8.65a2.88 2.88 0 0 1-1.75-2.41l.1-.14 1.73-.26c.02 1.38 1.72 2.04 2.72 1.26.71-.6.39-1.87-.52-2.09-1.47-.47-3.76-.74-3.69-2.69.12-3.21 5.89-2.98 6.08.1l-.1.14-1.61.17c-.17-2.49-4.39-.91-1.71.33 6.26.68 4.14 7.5-1.25 5.59ZM45.59 1.76H43.4V.14h6.3v1.62h-2.19v7.11H45.6V1.76ZM50.91.14c1.51.09 4.63-.37 5.75.77 1.39 1.15 1.18 3.69-.52 4.58v.14l1.88 3.24h-2.09l-1.72-3h-1.38v3h-1.91V.14Zm3.34 4.1c1.23.15 1.89-1.38 1.03-2.16-.47-.48-1.83-.28-2.46-.32v2.48h1.43ZM60.77 8.55c-1.14-.63-1.65-1.78-1.65-3.1V.14h1.91v5.3c0 1.14.51 1.86 1.66 1.86s1.66-.72 1.66-1.86V.14h1.91c-.12 1.38.35 6-.42 7.17-.86 1.75-3.46 2.1-5.06 1.24ZM69.89 8.43c-2.97-1.49-2.97-6.37 0-7.86 2.21-1.25 5.74-.41 6.27 2.31l-.11.17-1.71.22c-.88-2.77-5.06-1.59-4.76 1.22-.33 2.77 3.92 3.99 4.76 1.22l1.71.22.1.17c-.69 2.7-3.97 3.57-6.25 2.31ZM78.82 1.76h-2.19V.14h6.3v1.62h-2.19v7.11h-1.91V1.76ZM85.8 8.55c-1.14-.63-1.65-1.78-1.65-3.1V.14h1.91v5.3c0 1.14.51 1.86 1.66 1.86s1.66-.72 1.66-1.86V.14h1.91c-.12 1.38.35 6-.42 7.17-.86 1.75-3.46 2.1-5.06 1.24ZM92.92.14c1.51.09 4.63-.37 5.75.77 1.39 1.15 1.18 3.69-.52 4.58v.14l1.88 3.24h-2.09l-1.72-3h-1.38v3h-1.91V.14Zm3.34 4.1c1.23.15 1.89-1.38 1.03-2.16-.47-.48-1.83-.28-2.46-.32v2.48h1.43ZM101.23.14h5.79v1.62h-3.88v1.93h3.54v1.62h-3.54v1.93h4.02v1.62h-5.92V.14Z"/>

<g id="blockchain_network" fill="#fff">
<path d="M0 .2c1.2.09 4.87-.25 5.91.32 1.78.66 2.05 3.28.38 4.19v.1c2.25.7 2.12 4.03 0 4.83-1.15.63-4.96.28-6.28.36V.2Zm4.21 3.91c1.07.13 1.6-1.15.89-1.82-.45-.47-2.36-.2-2.96-.27v2.09h2.07Zm.35 4.07c1.11.13 1.71-1.26.92-1.97C4.97 5.7 2.8 6 2.14 5.92v2.25h2.42ZM9.31.2h2.14v7.98h4.76V10h-6.9V.2ZM18.94 9.5c-5.6-3.53-.85-11.96 5.14-8.81 5.6 3.54.84 11.96-5.14 8.81Zm4.08-1.67C26.1 5.75 23.61.34 20 2.36c-3.05 2.08-.59 7.49 3.02 5.47Z"/>
<path d="M30.33 9.51c-3.34-1.67-3.34-7.15 0-8.82 2.48-1.41 6.44-.46 7.04 2.59l-.13.2-1.92.25c-.99-3.11-5.68-1.79-5.35 1.37-.31 3.14 4.35 4.5 5.35 1.37l1.92.25.11.2c-.78 3.03-4.46 4.01-7.02 2.59ZM38.93.2h2.14v3.95h.07L44.39.2h2.46l-3.81 4.58L47 10h-2.65l-3.22-4.38h-.07V10h-2.14V.2Z"/>
<path d="M49.44 9.51c-3.34-1.67-3.34-7.15 0-8.82 2.48-1.41 6.44-.46 7.04 2.59l-.13.2-1.92.25c-.99-3.11-5.68-1.79-5.35 1.37-.31 3.14 4.35 4.5 5.35 1.37l1.92.25.11.2c-.78 3.03-4.46 4.01-7.02 2.59ZM58.04.2h2.14v3.99h3.74V.2h2.14V10h-2.14V6.01h-3.74V10h-2.14V.2ZM70.95.2h1.93l3.74 9.8h-2.25l-.57-1.65h-3.75L69.46 10h-2.24L70.95.2Zm2.2 6.31-1.05-3-.15-1.06h-.07l-.14 1.06-1.05 3h2.46ZM77.77.2h2.14V10h-2.14V.2ZM81.76.2h2.31l3.6 5.96.17.8h.1V.2h2.14V10h-2.31l-3.6-5.96-.17-.8h-.1V10h-2.14V.2ZM94.86.2h2.31l3.6 5.96.17.8h.1V.2h2.14V10h-2.31l-3.6-5.96-.17-.8H97V10h-2.14V.2ZM105.03.2h6.5v1.82h-4.35v2.17h3.98v1.82h-3.98v2.17h4.51V10h-6.65V.2ZM115.33 2.02h-2.46V.2h7.07v1.82h-2.46V10h-2.14V2.02ZM120.83.2h2.27l1.51 5.78.18 1.3h.08l.2-1.3L126.74.2h2.02l1.68 5.78.18 1.3h.08l.2-1.3L132.4.2h2.27l-2.84 9.8h-2.2l-1.88-6.93-1.88 6.93h-2.2L120.83.2ZM137.45 9.5c-5.6-3.53-.85-11.96 5.14-8.81 5.6 3.54.84 11.96-5.14 8.81Zm4.08-1.67c3.08-2.08.59-7.49-3.02-5.47-3.05 2.08-.59 7.49 3.02 5.47ZM146.61.2c1.7.1 5.2-.42 6.45.86 1.56 1.29 1.32 4.14-.59 5.15v.15l2.11 3.64h-2.35l-1.93-3.37h-1.55V10h-2.14V.2Zm3.75 4.61c1.38.16 2.12-1.55 1.16-2.43-.53-.54-2.05-.31-2.76-.36v2.79h1.61ZM155.93.2h2.14v3.95h.07L161.39.2h2.46l-3.81 4.58L164 10h-2.65l-3.22-4.38h-.07V10h-2.14V.2Z"/>
</g>

<g id="node">
  <g fill="none" stroke="#FFF" stroke-linecap="round" stroke-linejoin="round" stroke-width="3">
    <ellipse cy="-19.32" rx="21.34" ry="5.03"/>
    <ellipse cy="19.32" rx="21.34" ry="5.03"/>
    <path d="M21.34-19.32v38.46c0 2.78-9.55 5.03-21.34 5.03s-21.34-2.25-21.34-5.03v-38.46"/>
  </g>
  <path fill="#fff" d="M-14.71-1.51c-2.52-1.27-2.52-5.41 0-6.67 1.88-1.06 4.87-.35 5.32 1.96l-.1.15-1.45.19c-.71-2.34-4.33-1.33-4.04 1.04-.28 2.35 3.32 3.39 4.04 1.04l1.45.19.08.15c-.57 2.28-3.36 3.02-5.3 1.95zM-8.2-8.55h1.62v3.02h2.83v-3.02h1.62v7.41h-1.62v-3.02h-2.83v3.02H-8.2v-7.41zM1.56-8.55h1.46l2.83 7.41h-1.7l-.44-1.25H.87L.43-1.14h-1.69l2.82-7.41zm1.66 4.78-.79-2.27-.12-.8h-.05l-.11.8-.79 2.27h1.86zM6.72-8.55h1.62v7.41H6.72v-7.41zM9.73-8.55h1.75l2.72 4.51.13.6h.07v-5.11h1.62v7.41h-1.75l-2.72-4.51-.13-.6h-.07v5.11H9.73v-7.41zM-14.64 1.28h1.75l2.72 4.51.13.6h.07V1.28h1.62v7.41h-1.75l-2.72-4.51-.13-.6h-.07v5.11h-1.62V1.28zM-5.31 8.31C-9.56 5.68-5.9-.77-1.42 1.65c4.24 2.64.58 9.08-3.89 6.66zm3.08-1.25c2.34-1.54.4-5.68-2.29-4.14-2.32 1.54-.4 5.68 2.29 4.14zM1.61 1.28c2.93-.12 6.59-.2 6.58 3.71.01 3.91-3.66 3.82-6.58 3.7V1.28zm2.58 6.03c2.28.26 3.08-2.67 1.77-4.07-.54-.62-1.85-.61-2.73-.58v4.66h.96zM9.38 1.28h4.91v1.38H11V4.3h3.01v1.38H11v1.64h3.41V8.7H9.38V1.28z"/>
  <circle r="49" fill="none" stroke="#FFF" stroke-linecap="round" stroke-linejoin="round" stroke-miterlimit="10" stroke-width="1.51"/>
</g>

</defs>

<!-- <image href="bg.png" width="1920" height="1080"/> -->

<!-- Non Saito -->

<g id="non-saito" class="op">

<!-- Lines -->

<g fill="none" stroke="#fff" stroke-dasharray="0 12" stroke-linecap="round" stroke-width="6" opacity=".2">

<line id="st4_line" class="op" x1="547" x2="796" y1="87" y2="87"/>
<line id="st3_line" class="op" x1="547" x2="796" y1="204" y2="204"/>

<g id="step4_lines">
  <line id="st3_line2" class="op h" x1="311" x2="560" y1="341" y2="341"/>
  <line x1="311" x2="560" y1="458" y2="458"/>
  <line x1="311" x2="560" y1="575" y2="575"/>
  <line id="st2_line" class="op h" x1="311" x2="560" y1="692" y2="692"/>
  <line id="st4_line3" class="op h" x1="311" x2="560" y1="809" y2="809"/>
  <line id="st4_line4" class="op h" x1="311" x2="560" y1="926" y2="926"/>
</g>

<g id="st2_line3" class="op">
  <line x1="776" x2="1025" y1="873" y2="873"/>
  <line x1="776" x2="1025" y1="990" y2="990"/>
</g>
<line id="st2_line2" class="op h" x1="545" x2="794" y1="949" y2="949"/>

<line id="st4_line2" class="op" x1="969" x2="1380" y1="90" y2="333"/>
<g id="st2_line4" class="op">
  <line x1="735" x2="1236" y1="714" y2="513"/>
  <line x1="1200" x2="1385" y1="870" y2="650"/>
</g>

<g id="st2_line5" class="op h">
  <line x1="755" x2="1236" y1="513" y2="513"/>
  <line x1="969" x2="1380" y1="913" y2="671"/>
</g>

<line id="st4_line5" class="op h" x1="983" x2="1247" y1="513" y2="513"/>

</g>

<!-- Dots -->

<g id="dots1_g" class="op">
  <use id="dots1" class="d1_1" transform="translate(547 87)" xlink:href="#dots"/>
</g>
<g id="dots2_g" class="op">
  <use id="dots2" class="d2_1" transform="translate(547 204)" xlink:href="#dots"/>
</g>

<g id="step4_dots">
  <g id="dots15_g" class="op h">
    <use id="dots15" class="d15_1" transform="translate(311 341)" xlink:href="#dots"/>
  </g>
  <use id="dots3" class="d3_1" transform="translate(311 458)" xlink:href="#dots"/>
  <use id="dots4" class="d4_1" transform="translate(311 575)" xlink:href="#dots"/>
  <g id="dots10_g" class="op h">
    <use id="dots10" class="d10_1" transform="translate(311 692)" xlink:href="#dots"/>
  </g>
  <g id="dots16_g" class="op h">
    <use id="dots16" class="d16_1" transform="translate(311 809)" xlink:href="#dots"/>
    <use id="dots17" class="d17_1" transform="translate(311 926)" xlink:href="#dots"/>
  </g>
</g>

<g id="dots12_g" class="op">
  <use id="dots5" class="d5_1" transform="translate(776 873)" xlink:href="#dots"/>
  <use id="dots6" class="d6_1" transform="translate(776 990)" xlink:href="#dots"/>
</g>
<g id="dots11_g" class="op h">
  <use id="dots11" class="d11_1" transform="translate(545 949)" xlink:href="#dots"/>
</g>

<g id="dots7_g" class="op">
  <use id="dots7" class="d7_1" transform="translate(969 90) rotate(30.5 0 0)" xlink:href="#dots"/>
</g>
<g id="dots13_g" class="op">
  <use id="dots8" class="d8_1" transform="translate(735 714) rotate(-22 0 0)" xlink:href="#dots"/>
  <use id="dots9" class="d9_1" transform="translate(1200 870) rotate(-50.1 0 0)" xlink:href="#dots"/>
</g>

<g id="dots14_g" class="op h">
  <use id="dots12" class="d12_1" transform="translate(755 513)" xlink:href="#dots"/>
  <use id="dots13" class="d13_1" transform="translate(969 913) rotate(-30 0 0)" xlink:href="#dots"/>
</g>

<g id="dots18_g" class="op h">
  <use id="dots18" class="d18_1" transform="translate(983 513)" xlink:href="#dots"/>
</g>

<!-- Infrastructure -->

<use x="1273" y="266" opacity=".75" xlink:href="#cloud"/>
<use x="1493" y="666" xlink:href="#blockchain_network"/>

<g id="inf1" class="op step1">
  <rect class="inf_bg" x="582" y="235" width="142" height="535" rx="10" ry="10" fill="url(#grd2)" stroke="#fff" stroke-dasharray="23 13" stroke-linecap="square" stroke-width="2"/>
  <use class="inf_tag1" x="591" y="246.3" xlink:href="#tag"/>
  <use class="inf_tag2" x="591" y="716.6" xlink:href="#tag"/>
  <use class="inf_host" x="626.4" y="263" xlink:href="#hosting"/>
  <use class="inf_data" x="608.6" y="734" xlink:href="#data_storage"/>
  <g class="st3_apps">
    <use class="inf_app1" x="620" y="342" xlink:href="#app"/>
    <use class="inf_app2" x="620" y="468" xlink:href="#app"/>
    <use class="inf_app3" x="620" y="595" xlink:href="#app"/>
    <use class="inf_app4" x="620" y="321" xlink:href="#app"/>
  </g>
  <use class="inf_app5" x="620" y="321" xlink:href="#app"/>
  <use class="inf_app_ttl" x="642" y="676" xlink:href="#app_ttl"/>
  <use class="inf_inf_ttl" x="602" y="787" xlink:href="#infrastructure"/>
</g>

<g id="inf2" class="op step1">
  <rect class="inf_bg" x="814" y="23" width="142" height="535" rx="10" ry="10" fill="url(#grd2)" stroke="#fff" stroke-dasharray="23 13" stroke-linecap="square" stroke-width="2"/>
  <use class="inf_tag1" x="823" y="34.3" xlink:href="#tag"/>
  <use class="inf_tag2" x="823" y="504.6" xlink:href="#tag"/>
  <use class="inf_host" x="858.4" y="51" xlink:href="#hosting"/>
  <use class="inf_data" x="840.6" y="522" xlink:href="#data_storage"/>
  <use class="inf_app1" x="852" y="130" xlink:href="#app"/>
  <use class="inf_app2" x="852" y="256" xlink:href="#app"/>
  <use class="inf_app3" x="852" y="383" xlink:href="#app"/>
  <use class="inf_app_ttl" x="874" y="464" xlink:href="#app_ttl"/>
  <use class="inf_inf_ttl" x="834" y="575" xlink:href="#infrastructure"/>
</g>

<g id="inf3" class="op step1">
  <rect class="inf_bg" x="1046" y="500" width="142" height="535" rx="10" ry="10" fill="url(#grd2)" stroke="#fff" stroke-dasharray="23 13" stroke-linecap="square" stroke-width="2"/>
  <use class="inf_tag1" x="1055" y="511.3" xlink:href="#tag"/>
  <use class="inf_tag2" x="1055" y="981.6" xlink:href="#tag"/>
  <use class="inf_host" x="1090.4" y="528" xlink:href="#hosting"/>
  <use class="inf_data" x="1072.6" y="999" xlink:href="#data_storage"/>
  <use class="inf_app1" x="1084" y="607" xlink:href="#app"/>
  <use class="inf_app2" x="1084" y="733" xlink:href="#app"/>
  <use class="inf_app3" x="1084" y="860" xlink:href="#app"/>
  <use class="inf_app_ttl" x="1106" y="941" xlink:href="#app_ttl"/>
  <use class="inf_inf_ttl" x="1066" y="1052" xlink:href="#infrastructure"/>
</g>

<!-- Users -->

<use id="st4_user" class="op" x="480" y="87" xlink:href="#icn_user"/>
<use id="st3_user" class="op" x="480" y="204" xlink:href="#icn_user"/>

<g id="step4_users">
  <use id="st3_user2" class="op h" x="248" y="341" xlink:href="#icn_user"/>
  <use x="248" y="458" xlink:href="#icn_user"/>
  <use x="248" y="575" xlink:href="#icn_user"/>
  <use id="st2_user" class="op h" x="248" y="692" xlink:href="#icn_user"/>
  <use id="st4_user2" class="op h" x="248" y="809" xlink:href="#icn_user"/>
  <use id="st4_user3" class="op h" x="248" y="926" xlink:href="#icn_user"/>
</g>

<g id="st2_user3" class="op">
  <use x="710" y="873" xlink:href="#icn_user"/>
  <use x="710" y="990" xlink:href="#icn_user"/>
</g>
<use id="st2_user2" class="op h" x="480" y="947" xlink:href="#icn_user"/>

</g>

</svg>