<?xml version="1.0" encoding="UTF-8" standalone="no"?>
<svg
   id="Layer_1"
   data-name="Layer 1"
   viewBox="0 0 150 150"
   version="1.1"
   sodipodi:docname="SaitoIcon.svg"
   width="150"
   height="150"
   inkscape:version="1.4 (e7c3feb100, 2024-10-09)"
   xmlns:inkscape="http://www.inkscape.org/namespaces/inkscape"
   xmlns:sodipodi="http://sodipodi.sourceforge.net/DTD/sodipodi-0.dtd"
   xmlns="http://www.w3.org/2000/svg"
   xmlns:svg="http://www.w3.org/2000/svg"
   xmlns:rdf="http://www.w3.org/1999/02/22-rdf-syntax-ns#"
   xmlns:cc="http://creativecommons.org/ns#"
   xmlns:dc="http://purl.org/dc/elements/1.1/">
  <defs
     id="defs1">
    <mask id="cutout">
      <rect width="100%" height="100%" fill="white"/>
      <path
         transform="translate(15,15) scale(0.8)"
         d="M 130.27556,42.647143 75.694663,11.149006 v 0 a 1.3099415,1.3099415 0 0 0 -0.396952,-0.12901 h -0.06947 a 1.3694843,1.3694843 0 0 0 -0.813752,0.109162 h -0.07939 v 0 L 19.863371,42.567752 v 0 l -0.138934,0.07939 A 1.4389508,1.4389508 0 0 0 19,43.887617 v 63.006203 a 1.4389508,1.4389508 0 0 0 0.724437,1.24047 l 54.580895,31.49814 a 1.3893319,1.3893319 0 0 0 1.429027,0 l 54.580891,-31.49814 a 1.4191033,1.4191033 0 0 0 0.68476,-0.99238 c 0,0 0,-0.0992 0,-0.14885 0,-0.0496 0,-0.0794 0,-0.11909 V 43.887618 a 1.429027,1.429027 0 0 0 -0.72445,-1.240475 z M 73.561047,135.93085 22.34432,106.33809 48.433988,61.63137 73.561047,76.219355 V 135.91101 Z M 21.877902,46.21971 45.953038,60.192419 21.877902,101.45558 Z M 76.458796,76.219355 77.927518,75.365908 103.50115,60.63899 128.12209,46.418186 V 105.4251 H 76.438948 Z M 103.3126,57.364137 82.37338,21.965946 79.038984,16.319305 126.67323,43.847922 Z M 74.533579,14.29485 100.80187,58.832859 85.231434,67.823821 74.999998,73.738405 23.445862,43.768532 Z m 1.98476,93.99822 h 47.832721 l -47.832721,27.61794 z"
         fill="black"/>
    </mask>
  </defs>
  <title
     id="title1">Saito Logo</title>
  <circle
     style="fill:#ffffff;fill-opacity:1;stroke:#000000;stroke-width:0"
     id="rect6"
     cx="75"
     cy="75"
     r="75"
     mask="url(#cutout)"
     sodipodi:insensitive="true" />
  <metadata
     id="metadata6">
    <rdf:RDF>
      <cc:Work
         rdf:about="">
        <dc:title>Saito Logo</dc:title>
      </cc:Work>
    </rdf:RDF>
  </metadata>
</svg>
