<?xml version="1.0" encoding="UTF-8" standalone="no"?>
<!-- Created with Inkscape (http://www.inkscape.org/) -->

<svg
   width="210mm"
   height="297mm"
   viewBox="0 0 210 297"
   version="1.1"
   id="svg1388"
   inkscape:version="1.2.1 (9c6d41e410, 2022-07-14)"
   sodipodi:docname="Realms Expansion Symbol.svg"
   inkscape:export-filename="Realms Mana Symbol Five.png"
   inkscape:export-xdpi="96"
   inkscape:export-ydpi="96"
   xmlns:inkscape="http://www.inkscape.org/namespaces/inkscape"
   xmlns:sodipodi="http://sodipodi.sourceforge.net/DTD/sodipodi-0.dtd"
   xmlns="http://www.w3.org/2000/svg"
   xmlns:svg="http://www.w3.org/2000/svg">
  <sodipodi:namedview
     id="namedview1390"
     pagecolor="#ffffff"
     bordercolor="#666666"
     borderopacity="1.0"
     inkscape:showpageshadow="2"
     inkscape:pageopacity="0.0"
     inkscape:pagecheckerboard="0"
     inkscape:deskcolor="#d1d1d1"
     inkscape:document-units="mm"
     showgrid="false"
     inkscape:zoom="0.51402139"
     inkscape:cx="-81.708661"
     inkscape:cy="374.49803"
     inkscape:window-width="1920"
     inkscape:window-height="1003"
     inkscape:window-x="-9"
     inkscape:window-y="-9"
     inkscape:window-maximized="1"
     inkscape:current-layer="layer1" />
  <defs
     id="defs1385">
    <filter
       inkscape:collect="always"
       style="color-interpolation-filters:sRGB"
       id="filter17130"
       x="-0.054351205"
       y="-0.10773241"
       width="1.1087179"
       height="1.2154648">
      <feGaussianBlur
         inkscape:collect="always"
         stdDeviation="0.1343192"
         id="feGaussianBlur17132" />
    </filter>
    <clipPath
       clipPathUnits="userSpaceOnUse"
       id="clipPath21654">
      <path
         style="mix-blend-mode:normal;fill:none;stroke:url(#linearGradient21658);stroke-width:1.05984;stroke-linecap:butt;stroke-linejoin:miter;stroke-dasharray:none;stroke-opacity:1;filter:url(#filter17130)"
         d="m 162.38565,252.96349 h 20.85158 c 4.33173,7.01408 5.1e-4,12.55301 5.1e-4,12.55301 h -20.88132 c 0,0 -4.41078,-5.39726 0.0292,-12.55301 z"
         id="path21656"
         sodipodi:nodetypes="cccccc"
         transform="matrix(-0.57235453,-0.80926911,0.80027902,-0.5659963,-392.17196,1022.2028)" />
    </clipPath>
    <clipPath
       clipPathUnits="userSpaceOnUse"
       id="clipPath10022">
      <rect
         style="fill:#162896;fill-opacity:0.00881054;stroke:#162896;stroke-width:1.09984"
         id="rect10024"
         width="1380.9388"
         height="791.4635"
         x="-1413.9165"
         y="523.52014" />
    </clipPath>
    <filter
       inkscape:collect="always"
       style="color-interpolation-filters:sRGB"
       id="filter7207"
       x="-0.0270538"
       y="-0.026677267"
       width="1.0542022"
       height="1.0532295">
      <feGaussianBlur
         inkscape:collect="always"
         stdDeviation="5.4330408"
         id="feGaussianBlur7205" />
    </filter>
    <clipPath
       clipPathUnits="userSpaceOnUse"
       id="clipPath11018">
      <rect
         style="fill:#162896;fill-opacity:0.00881054;stroke:#162896;stroke-width:1.09984"
         id="rect11016"
         width="1380.9388"
         height="791.4635"
         x="-1413.9165"
         y="523.52014" />
    </clipPath>
    <filter
       inkscape:collect="always"
       style="color-interpolation-filters:sRGB"
       id="filter45805"
       x="-0.040774551"
       y="-0.040206516"
       width="1.0815491"
       height="1.080413">
      <feGaussianBlur
         inkscape:collect="always"
         stdDeviation="20.888277"
         id="feGaussianBlur45807" />
    </filter>
  </defs>
  <g
     inkscape:label="Ebene 1"
     inkscape:groupmode="layer"
     id="layer1">
    <g
       id="g7211"
       transform="translate(-154.57631,8.764845)">
      <path
         style="mix-blend-mode:normal;fill:#535353;fill-opacity:1;stroke:#000000;stroke-width:40.447;stroke-dasharray:none;stroke-opacity:1;filter:url(#filter7207)"
         d="m -180.83439,1804.8824 c 4.3581,-22.1653 4.6102,-48.6802 0.6371,-67 -4.521,-20.846 -8.6098,-30.166 -26.2269,-59.7812 -12.3526,-20.7655 -18.3604,-32.7769 -22.3259,-44.6369 -2.1016,-6.2852 -3.5731,-8.8176 -7.136,-12.2804 -5.2993,-5.1503 -8.2962,-11.3882 -9.0691,-18.8766 -0.6732,-6.5224 0.8308,-7.1984 2.4603,-1.1059 2.0779,7.7691 8.8079,15.3944 21.6607,24.5424 13.3163,9.4778 16.5397,13.2926 19.5185,23.0998 2.5566,8.4169 5.3509,11.0388 11.7649,11.0388 5.1578,0 8.9226,-1.7468 14.3684,-6.6668 3.2782,-2.9616 4.5202,-3.4851 7.4553,-3.1424 3.3362,0.3894 3.5749,0.2145 4.5258,-3.317 1.6631,-6.1764 3.1336,-20.1564 2.4846,-23.6213 -0.4256,-2.2719 -1.5196,-3.7188 -3.642,-4.8163 -3.9032,-2.0184 -6.8261,-8.4168 -6.8546,-15.0049 -0.018,-4.1714 -0.7368,-6.2073 -4.0598,-11.5 -2.2207,-3.5372 -5.1695,-8.7737 -6.5528,-11.6366 -2.3277,-4.8175 -6.4134,-19.6242 -7.8974,-28.6207 -0.6147,-3.7265 -0.6908,-3.7868 -2.9283,-2.3208 -2.2622,1.4823 -2.3149,1.4265 -3.4637,-3.674 -2.0299,-9.0124 -10.7416,-25.3803 -25.0787,-47.1189 -7.6394,-11.5832 -15.7353,-24.6603 -17.9911,-29.0603 -4.3662,-8.5168 -9.0502,-21.9999 -9.0502,-26.0516 0,-1.3466 -0.45,-2.4484 -1,-2.4484 -0.5913,0 -1,3.6133 -1,8.84 0,13.0724 2.6568,21.9933 12.1093,40.66 4.4561,8.8 7.8874,15.775 7.625,15.5 -3.2615,-3.4185 -22.2309,-28.1922 -25.9835,-33.9341 l -4.9448,-7.5659 0.5849,4.1007 c 0.3218,2.2555 3.7479,11.6018 7.6137,20.7697 4.4496,10.5525 7.3472,18.955 7.8969,22.8992 0.4775,3.4267 0.7799,6.3331 0.6719,6.4586 -0.108,0.1255 -1.7437,-2.1245 -3.6349,-5 l -3.4385,-5.2282 -9.5,-0.3072 c -15.1224,-0.4889 -28.4989,3.5561 -45.9769,13.9033 -9.1107,5.3937 -9.8437,6.8567 -3.4512,6.8886 1.6895,0.01 5.1832,0.7347 7.7637,1.614 l 4.692,1.5987 -4.1605,3.0138 c -10.3808,7.5199 -19.8575,19.6983 -32.7603,42.1 -5.0087,8.6961 -9.1068,16.0086 -9.1068,16.25 0,1.1483 5.9662,0.1834 9.8989,-1.6009 2.4194,-1.0977 4.5852,-1.8096 4.8128,-1.5819 0.7596,0.7596 -1.8306,13.0295 -4.3363,20.541 -1.3613,4.0807 -5.425,13.2208 -9.0305,20.3114 -3.6055,7.0906 -6.3404,13.1071 -6.0775,13.3699 0.6272,0.6272 11.8815,-3.629 18.6047,-7.0359 l 5.3012,-2.6863 -0.685,2.3107 c -1.5801,5.3305 -8.1253,19.8705 -12.2938,27.3108 -5.7108,10.1932 -9.2797,15.3947 -15.99,23.3048 -2.9618,3.4913 -5.1223,6.6108 -4.801,6.9321 0.8411,0.8411 11.3355,-1.6018 16.4736,-3.8347 6.14,-2.6683 6.5539,-2.4413 3.9608,2.1724 -4.9682,8.8398 -15.7275,16.2788 -30.4008,21.0192 l -6.8668,2.2185 -9.0351,-9.5055 c -20.5003,-21.5673 -34.3519,-46.646 -41.5473,-75.2228 -21.5251,-85.4873 26.594,-173.8769 109.7241,-201.5516 21.1371,-7.0368 29.9035,-8.4172 53.788,-8.47 18.0325,-0.04 22.6007,0.2768 32.3275,2.2406 16.1156,3.2538 27.6292,7.2699 43.6725,15.2337 17.8823,8.8768 30.165,17.6654 43.9827,31.471 21.4739,21.4552 36.4093,47.1226 43.987696,75.5955 7.602,28.5618 7.3975,62.842 -0.5391,90.3467 -9.777196,33.8837 -30.245796,64.472 -57.898696,86.5241 l -8.685,6.9259 -0.1284,12.2021 c -0.2062,19.5914 -3.8195,38.2489 -10.9013,56.2894 -3.9984,10.1857 -4.9291,11.7558 -3.917,6.6086 z m -537.99938,-52.0877 c -34.85622,-3.1133 -71.84008,-18.257 -99.57114,-40.771 -3.14423,-2.5527 -5.74171,-4.8663 -5.77219,-5.1413 -0.0305,-0.275 2.75646,-1.316 6.1932,-2.3133 8.80351,-2.5548 19.41625,-7.9827 25.04591,-12.8098 4.0159,-3.4434 10.66014,-12.7702 10.69332,-15.0107 0.005,-0.3485 -2.74251,0.4778 -6.10594,1.8364 -5.67296,2.2914 -17.94731,5.3975 -18.725,4.7385 -0.18717,-0.1586 2.12828,-3.1984 5.14545,-6.755 6.37031,-7.5092 13.78757,-18.3468 19.10062,-27.9083 3.79193,-6.8241 13.73161,-29.9738 13.12862,-30.5768 -0.18117,-0.1811 -3.63802,1.3372 -7.68189,3.374 -7.48613,3.7707 -17.88203,7.7288 -18.54871,7.0621 -0.20245,-0.2024 2.94308,-6.8763 6.99007,-14.8307 7.95924,-15.6441 12.25033,-27.5624 13.61194,-37.8064 0.47518,-3.575 0.73438,-6.6439 0.576,-6.8198 -0.15838,-0.1758 -2.09028,0.5997 -4.29311,1.7235 -2.20283,1.1238 -5.9266,2.3506 -8.27506,2.7261 l -4.26992,0.6828 2.07687,-3.4063 c 1.14227,-1.8735 5.55432,-9.4813 9.80453,-16.9063 4.25022,-7.425 9.09936,-15.525 10.77586,-18 6.06784,-8.9579 15.62141,-19.5944 21.55642,-24 3.33421,-2.475 6.0803,-4.8201 6.10242,-5.2113 0.0529,-0.9352 -9.60277,-3.7844 -12.89129,-3.804 -6.20319,-0.037 -5.42287,-1.698 3.18663,-6.7833 20.38588,-12.041 42.53605,-18.1061 56.60883,-15.5005 4.00984,0.7424 4.6793,1.3295 8.25,7.2348 4.29521,7.1035 4.36344,7.0243 2.77382,-3.221 -0.7533,-4.8551 -3.50145,-12.7987 -8.51601,-24.6156 -4.07209,-9.5959 -7.68046,-19.2814 -8.01861,-21.5231 -0.61295,-4.0636 -0.59944,-4.0527 4.42913,3.5718 2.77417,4.2063 9.4706,13.2063 14.88096,20 5.41036,6.7937 10.86064,13.7022 12.11173,15.3522 l 2.27472,3 -1.2749,-3.0013 c -0.7011,-1.6508 -4.89077,-10.2008 -9.31029,-19 -9.54448,-19.0031 -11.50703,-26.0237 -11.36116,-40.6418 0.0892,-8.9405 0.2372,-9.8099 1.08205,-6.3569 4.18281,17.0955 10.63218,30.0959 27.6072,55.6498 19.4654,29.3029 27.5686,44.5975 29.7289,56.113 0.7915,4.2192 1.0945,4.3947 3.6289,2.1011 2.123,-1.9213 2.1769,-1.8215 3.8566,7.1361 2.4768,13.208 8.6515,29.5286 15.983,42.2448 2.2055,3.8254 4.01,8.0141 4.01,9.3082 0,2.2269 -0.2063,2.1515 -3.8509,-1.4074 -2.118,-2.0682 -6.0324,-7.0951 -8.6987,-11.1709 -2.6663,-4.0758 -5.0117,-7.2467 -5.212,-7.0465 -0.7292,0.7292 1.9638,13.1781 3.6931,17.0718 1.5428,3.4739 2.5848,4.3067 7.9225,6.3316 4.4683,1.6952 6.146,2.8359 6.146,4.1788 0,1.8237 4.9397,7.5476 8.1895,9.4896 1.7072,1.0202 2.3009,5.1443 1.8713,13 l -0.2187,4 -1.521,-4.3 c -1.66,-4.6928 -3.3024,-5.0042 -4.7526,-0.9012 -0.7872,2.2273 -0.5161,3.0204 1.75,5.1206 2.1963,2.0354 2.679,3.3533 2.6678,7.2829 -0.02,7.0493 -0.8491,9.2977 -3.4286,9.2977 -1.215,0 -3.266,1.125 -4.5577,2.5 -1.2917,1.375 -3.0352,2.5 -3.8743,2.5 -1.1867,0 -1.259,-0.2667 -0.3257,-1.2 1.2716,-1.2716 1.6261,-5.0406 0.5732,-6.0935 -0.3447,-0.3447 -1.914,0.039 -3.4872,0.8525 -2.8177,1.4571 -2.8448,1.4446 -1.808,-0.8308 0.904,-1.9841 0.5829,-2.808 -2.2754,-5.8387 -1.8304,-1.9407 -5.0792,-6.5231 -7.2196,-10.183 -2.7615,-4.7221 -6.2251,-8.622 -11.9275,-13.4304 -15.2933,-12.8957 -24.958,-23.2467 -29.0374,-31.0996 -2.0924,-4.0279 -4.0453,-7.0827 -4.3396,-6.7883 -0.887,0.887 1.6416,9.518 4.39,14.9844 4.2963,8.5451 8.8379,13.9504 17.3315,20.6274 9.9147,7.7941 13.7327,12.8657 18.3907,24.4289 3.8004,9.4341 6.2174,12.77 11.1093,15.3328 l 3,1.5716 -4,1.8071 c -5.4004,2.4398 -9.5321,2.3112 -13.6021,-0.4234 -2.7241,-1.8303 -3.896,-3.7638 -5.9098,-9.75 -4.2367,-12.5942 -7.0828,-15.9587 -21.9881,-25.9934 -12.90021,-8.6849 -20.62465,-17.7696 -23.14733,-27.2236 -1.82231,-6.8293 -3.14191,-5.8472 -2.68745,2 0.48567,8.386 3.42855,14.7462 9.75404,21.0806 3.83043,3.8358 5.25374,6.3653 7.97304,14.1694 4.3828,12.5781 11.9619,27.5362 25.0811,49.5 15.866,26.5625 22.3882,40.1229 27.094,56.3318 l 1.8382,6.3318 -11.2028,5.374 c -30.4175,14.5913 -62.55261,20.3891 -96.30128,17.3747 z m -448.40153,-1.4804 c -1.375,-0.241 -5.875,-0.9152 -10,-1.4982 -34.4224,-4.865 -68.9125,-22.1762 -94.5048,-47.4337 -25.3418,-25.0104 -40.7776,-53.435 -48.6677,-89.6204 -1.9796,-9.0784 -2.2659,-13.263 -2.2845,-33.3796 -0.019,-20.4108 0.2434,-24.2383 2.3301,-34 4.6653,-21.8242 13.1622,-42.5423 24.719,-60.2727 23.6127,-36.2264 60.1638,-62.4951 101.8571,-73.203 16.375,-4.2055 27.8901,-5.3375 48.792,-4.7964 20.4033,0.5282 33.074,2.8235 52.142,9.4456 45.7304,15.8817 84.4088,53.2042 102.50551,98.9122 20.16958,50.9436 14.668,110.024 -14.53981,156.1403 -20.0912,31.722 -53.6912,58.3142 -89.3761,70.7353 -17.5783,6.1186 -31.8519,8.5719 -52.4728,9.0187 -9.9,0.2146 -19.125,0.1929 -20.5,-0.048 z m 92,-63.1688 c 11.898,-8.0423 27.1662,-23.5391 35.2978,-35.8262 14.5768,-22.0263 21.3199,-43.0977 22.3805,-69.9369 0.8859,-22.42 -3.3357,-41.9701 -13.604,-63 -18.9634,-38.8374 -54.2851,-65.469 -96.9034,-73.0622 -11.428,-2.0361 -33.9823,-2.0057 -45.6709,0.062 -55.5931,9.8328 -99.6259,54.0713 -108.9177,109.4267 -1.9931,11.8738 -2.0266,31.7847 -0.074,43.8263 4.1577,25.6359 16.708,51.0294 34.3434,69.4881 7.1275,7.4602 7.8018,7.915 10.9737,7.4002 4.551,-0.7385 15.52,-5.9546 20.0246,-9.5223 3.5344,-2.7993 9.1195,-11.119 7.4636,-11.118 -0.4477,3e-4 -3.064,0.8378 -5.814,1.8612 -9.4058,3.5001 -14.0827,3.5267 -9.901,0.056 7.0064,-5.8147 20.9099,-29.7005 24.8717,-42.7286 l 0.7027,-2.3107 -5.2655,2.6682 c -5.9986,3.0397 -13.0301,5.6645 -13.613,5.0815 -0.2162,-0.2162 2.0042,-5.0585 4.9344,-10.7606 6.0942,-11.8598 8.6695,-19.0982 9.4878,-26.6675 l 0.573,-5.3 -4.0855,1.6347 c -7.9405,3.1772 -7.8798,2.083 0.7118,-12.8407 8.8433,-15.3607 16.5917,-25.4617 23.4984,-30.6328 5.2096,-3.9005 4.9363,-4.4124 -3.2717,-6.1279 -2.9463,-0.6158 -4.9713,-1.4952 -4.5,-1.9542 1.7667,-1.7207 13.4144,-7.8649 19.6034,-10.3409 7.8453,-3.1386 19.4839,-5.0558 25.3511,-4.1759 3.7636,0.5644 4.701,1.2254 6.8708,4.8456 l 2.5127,4.192 0.01,-3.8948 c 0.01,-2.4826 -2.3756,-9.8567 -6.5689,-20.3383 -3.6181,-9.0439 -6.3506,-16.6713 -6.0722,-16.9497 0.2784,-0.2784 1.7236,1.4489 3.2116,3.8383 1.488,2.3895 5.0432,7.2695 7.9004,10.8445 2.8572,3.575 6.8472,8.672 8.8667,11.3266 2.0195,2.6546 3.6719,4.4433 3.6719,3.9747 0,-0.4685 -2.8415,-6.4655 -6.3144,-13.3266 -6.7911,-13.4166 -8.7282,-20.3629 -8.6146,-30.8915 l 0.071,-6.5832 1.9872,7 c 2.9634,10.4388 7.5328,19.164 19.9007,38 11.9585,18.2123 16.6442,26.7581 19.465,35.5 2.1376,6.6248 2.1028,6.5787 3.863,5.1179 1.1698,-0.9709 1.6171,-0.028 2.66,5.6075 2.0701,11.1865 4.7242,18.5664 9.116,25.3467 3.3628,5.192 4.2925,7.6633 4.8347,12.8528 0.6047,5.7869 1.0367,6.7407 4.3513,9.6059 3.4049,2.9433 3.68,3.5906 3.68,8.6584 0,3.0125 -0.5121,8.0273 -1.138,11.144 -1.0977,5.4659 -1.2511,5.6668 -4.3257,5.6668 -2.1418,0 -3.983,0.8514 -5.6119,2.595 -5.5172,5.9057 -13.2146,7.2057 -17.4698,2.9505 -1.35,-1.35 -2.4546,-3.2867 -2.4546,-4.3037 0,-1.017 -1.146,-4.149 -2.5468,-6.96 -2.5043,-5.0254 -4.6648,-7.0065 -18.2245,-16.7109 -5.7681,-4.1281 -10.17,-9.8636 -12.3341,-16.0709 l -1.3946,-4 -0.3022,4.6874 c -0.3582,5.5549 2.3935,11.714 7.317,16.3779 2.054,1.9457 3.8163,5.0503 4.8248,8.5 2.2206,7.5953 7.9558,19.0879 17.633,35.3341 10.1704,17.0742 18.6011,34.3592 20.1686,41.3506 0.6474,2.8875 1.668,5.2519 2.268,5.2543 0.6,0 4.9158,-2.5812 9.5908,-5.7412 z m 224.73994,-407.7841 c -27.42547,-5.1759 -48.19485,-19.3923 -59.11581,-40.4642 -11.54631,-22.2784 -13.9288,-54.0088 -5.63253,-75.0148 6.94252,-17.5785 27.27938,-38.8477 49.82396,-52.1082 12.6979,-7.4689 17.83196,-11.6147 23.35887,-18.8628 5.7837,-7.5848 9.89963,-15.8254 12.75919,-25.5452 l 2.05462,-6.9838 -0.61102,5.5 c -0.89427,8.0496 -4.95778,21.3225 -9.00729,29.421 -6.34177,12.6828 -12.10766,18.9871 -30.58922,33.4456 -8.77952,6.8685 -13.71811,12.5827 -18.12853,20.9757 -4.7722,9.0815 -6.65468,16.7692 -6.6403,27.1178 0.0197,14.1824 4.23265,25.4271 13.36584,35.6743 10.44269,11.7164 23.30705,17.4508 39.24888,17.4953 39.33367,0.11 71.44502,-32.5907 85.87181,-87.4477 4.45668,-16.9463 5.79866,-30.1825 5.18919,-51.182 -0.64582,-22.2519 -2.05095,-30.1677 -10.08516,-56.8152 -7.01132,-23.2548 -8.36101,-28.6422 -10.00615,-39.94038 l -1.3461,-9.24447 -0.11688,15.50005 c -0.1375,18.2327 0.6561,25.9841 5.27215,51.4954 1.89039,10.4474 3.2888,19.1436 3.1076,19.3248 -0.63558,0.6356 -7.21373,-11.5177 -17.76448,-32.8202 -11.76186,-23.7479 -16.78744,-31.1621 -29.94256,-44.17398 -19.23269,-19.02326 -44.94396,-32.11072 -71.71798,-36.50564 l -10.08803,-1.65594 v -4.08837 c 0,-12.44281 4.96557,-41.9056 9.94547,-59.01061 3.87877,-13.32285 1.18056,-7.58871 -4.28368,9.10354 -5.76371,17.60706 -9.39657,30.58703 -12.18004,43.51849 l -1.65472,7.68754 -4.77843,-2.94019 c -19.17904,-11.80098 -43.60346,-17.90313 -66.23272,-16.54746 -12.25634,0.73426 -30.43879,4.95751 -44.59089,10.35714 -5.1012,1.94635 -9.4386,3.36255 -9.6386,3.14712 -0.2,-0.21543 0.2423,-4.44169 0.9829,-9.39169 2.7802,-18.58126 3.714,-36.53197 3.1129,-59.84293 -0.6231,-24.16785 -1.2933,-30.60031 -7.0495,-67.65707 -6.166,-39.69514 -6.1348,-39.30571 -6.0999,-76 0.029,-30.0208 0.3235,-36.64223 2.2711,-51 1.958,-14.4342 7.9556,-46.91097 9.7001,-52.52561 1.6161,-5.20141 -3.7019,6.19809 -7.0097,15.02561 -7.2556,19.36317 -11.8585,37.25839 -15.6902,61 -0.8118,5.03026 -1.2769,17.09482 -1.2529,32.5 0.037,23.51619 0.2059,25.62436 4.2138,52.5 2.2965,15.4 4.6956,33.73397 5.3312,40.74215 1.8927,20.8678 0.3107,71.85644 -2.6537,85.53286 -0.463,2.13569 -0.9081,1.91785 -7.2692,-3.55691 -33.5319,-28.8601 -86.3716,-33.28157 -130.7342,-10.93947 -28.6058,14.40662 -55.3798,42.11032 -70.4838,72.9315 -3.8257,7.80674 -4.8686,9.27126 -5.3204,7.47128 -1.4123,-5.6269 -1.8022,-30.23605 -0.6922,-43.68141 5.9592,-72.18125 34.8418,-136.70295 106.1482,-237.12802 16.492,-23.22669 26.0153,-34.87485 41.9091,-51.26016 27.3157,-28.1604 57.8042,-51.91417 96,-74.79415 11.95321,-7.16019 31.22514,-17.81767 32.21971,-17.81767 0.25969,0 -1.63712,5.2875 -4.21514,11.75 -5.75838,14.43492 -9.33303,27.04092 -12.12252,42.75 -2.80104,15.77407 -3.05646,43.42313 -0.53118,57.5 6.64295,37.03045 22.11805,66.9359 46.86044,90.55727 19.71005,18.81704 42.3425,30.37966 59.55902,30.42795 l 5.27033,0.0148 -1.90766,3.75 c -3.11387,6.12111 -5.833,16.2266 -6.59234,24.5 -0.80812,8.80502 0.53744,10.47714 2.41412,3 1.65168,-6.58068 8.1001,-20.05936 13.43836,-28.08924 9.79116,-14.72801 24.56918,-27.93773 38.80039,-34.68275 10.95333,-5.19143 11.64475,-4.59677 5.74492,4.941 -5.50244,8.89536 -11.32732,23.00186 -13.1582,31.86608 -1.11143,5.38105 -1.02237,6.43999 1.01133,12.02395 4.41269,12.11604 17.25515,30.92343 23.47584,34.37966 5.36059,2.97835 22.13907,0.58553 33.89725,-4.83416 4.90414,-2.26047 8.41328,-4.80064 11.89574,-8.61101 6.80453,-7.44523 6.48802,-8.42349 -1.8104,-5.59549 -10.83848,3.69363 -11.04874,3.38178 -3.97664,-5.89804 3.458,-4.5375 7.95354,-11.23455 9.9901,-14.88234 4.04926,-7.25285 10.14479,-21.79275 9.43408,-22.50346 -0.24501,-0.24501 -1.96469,0.4194 -3.82151,1.47646 -4.50944,2.56717 -12.78588,5.58283 -13.46317,4.90554 -0.2984,-0.29841 1.47895,-4.52587 3.94966,-9.39438 2.47072,-4.8685 5.38775,-11.13673 6.48229,-13.92939 2.00037,-5.10384 4.48483,-16.42613 3.76282,-17.14813 -0.21289,-0.21289 -2.70418,0.37082 -5.5362,1.29713 -2.83203,0.92631 -5.31644,1.51418 -5.52092,1.30638 -0.64075,-0.65113 14.52638,-26.0957 19.13817,-32.10645 2.41744,-3.15075 6.83417,-7.83417 9.81495,-10.40759 2.98079,-2.57342 5.20404,-5.02776 4.94055,-5.45408 -0.26348,-0.42633 -3.03849,-1.30647 -6.16668,-1.95588 -5.34519,-1.10966 -5.56992,-1.27143 -3.73256,-2.68685 3.85764,-2.97178 22.05992,-11.10228 27.25428,-12.1738 2.91457,-0.60126 8.42625,-1.09318 12.24816,-1.09318 h 6.94895 l 3.03945,4.75 3.03945,4.75 -0.64091,-5 c -0.35249,-2.75 -2.20418,-8.825 -4.11485,-13.5 -6.28922,-15.38834 -8.40448,-21.24498 -8.05344,-22.29809 0.19049,-0.57148 1.51759,0.94931 2.9491,3.37952 2.01865,3.42697 17.97592,24.36466 20.51549,26.91857 0.27345,0.275 -2.21936,-4.93633 -5.53958,-11.58074 -6.27157,-12.55063 -8.60157,-19.29543 -9.70923,-28.10594 -0.82081,-6.52885 0.87568,-10.59926 1.95713,-4.69575 1.23415,6.73707 8.86491,21.34207 19.53144,37.38243 11.02118,16.57369 18.70262,31.10293 19.68212,37.22807 0.6333,3.96038 1.2332,4.48618 3.0482,2.67127 1.2543,-1.25436 1.7386,-0.0543 2.8499,7.06204 1.2059,7.7226 4.465,16.31663 8.636,22.77278 2.9893,4.62686 4.208,7.72073 4.7269,12 0.817,6.73656 2.3024,9.88219 5.0831,10.76477 1.0993,0.3489 2.2756,1.73754 2.614,3.08585 0.6833,2.7222 -0.2096,11.85169 -1.7342,17.73225 -0.9047,3.48946 -1.2245,3.76543 -3.7266,3.21587 -2.1301,-0.46784 -3.2818,-0.0181 -5.1934,2.02799 -3.3784,3.616 -7.2018,5.43911 -11.4067,5.43911 -4.6132,0 -6.9454,-2.40963 -8.9259,-9.22208 -1.8839,-6.48033 -5.39434,-10.34849 -16.37338,-18.0417 -8.14114,-5.70465 -13.8385,-12.56935 -14.94495,-18.00703 -0.89351,-4.3912 -2.30547,-4.24182 -2.30547,0.24391 0,5.52224 2.31787,10.71648 6.92871,15.5269 2.5778,2.68938 4.54074,6.16904 5.99091,10.61992 2.50453,7.68698 8.31676,19.23722 16.79728,33.38008 20.1607,33.62174 23.766,45.48843 23.6975,78 -0.033,15.78458 -0.4176,20.7554 -2.2712,29.37272 -1.2271,5.705 -2.0477,10.55615 -1.8235,10.78033 0.6799,0.67989 6.3824,-17.59059 8.3188,-26.65305 1.3547,-6.3399 1.822,-12.94726 1.8389,-26 0.012,-9.625 -0.2906,-18.89746 -0.6735,-20.60547 l -0.6961,-3.10547 9.1961,-2.23412 c 5.0579,-1.22876 14.6798,-4.00821 21.3821,-6.17654 12.17,-3.93724 12.1943,-3.95141 18.5,-10.77015 6.9478,-7.51305 13.5788,-18.34403 17.0267,-27.8108 1.9872,-5.45641 2.1088,-6.7244 1.0999,-11.46614 -1.9913,-9.35824 -7.3573,-22.60947 -12.7971,-31.60243 -6.2605,-10.34969 -5.7208,-10.97311 5.0655,-5.85072 23.0216,10.93292 44.4015,36.20078 51.9285,61.37184 1.028,3.4375 2.2697,6.25 2.7593,6.25 2.4005,0 -1.6938,-21.87303 -5.7558,-30.75 l -2.4024,-5.25 5.1947,-0.0148 c 18.5249,-0.0527 44.4335,-14.33641 64.7623,-35.70404 25.0317,-26.31093 39.5335,-59.69685 42.9857,-98.96074 2.4757,-28.15894 -3.3164,-61.73067 -15.603,-90.43651 -1.8559,-4.33616 -3.0843,-7.88393 -2.7296,-7.88393 1.115,0 26.3115,14.06241 37.2793,20.80591 44.8247,27.56031 85.288,61.9188 112.1388,95.22019 15.8503,19.65812 50.5461,70.2421 67.8867,98.9739 41.8894,69.4068 62.5264,136.83706 59.5268,194.5 -0.9918,19.06495 -0.8112,18.91997 -7.4698,5.99684 -8.9737,-17.41657 -17.1205,-28.57632 -31.0601,-42.54744 -26.9769,-27.03771 -56.4681,-40.76206 -91.5224,-42.59192 -29.9041,-1.56101 -57.0673,7.12558 -77.6341,24.82682 -5.5084,4.741 -6.8267,5.48067 -7.2304,4.05692 -2.0288,-7.15439 -3.1311,-27.19363 -3.0936,-56.24122 0.044,-34.50276 0.062,-34.71127 6.4609,-77 7.3274,-48.42343 4.22,-87.71459 -10.3205,-130.5 -3.655,-10.75494 -9.7236,-25.79496 -10.2092,-25.30179 -0.1634,0.16598 0.7779,5.02679 2.0919,10.80179 7.0219,30.86287 10.435,61.99712 10.435,95.18905 0,26.33387 -1.3802,41.57698 -7,77.31095 -5.4403,34.59262 -7,51.18352 -7,74.46243 0,18.18787 1.8255,43.29902 4.001,55.03678 0.4587,2.47457 0.6573,4.67583 0.4414,4.89169 -0.2158,0.21587 -4.5662,-1.19998 -9.6674,-3.14633 -14.1521,-5.39963 -32.3345,-9.62288 -44.5909,-10.35714 -22.6382,-1.35621 -47.0528,4.74594 -66.251,16.55871 l -4.7967,2.95144 -0.6462,-3.19879 c -3.2228,-15.95233 -17.8548,-65.70563 -18.9777,-64.52974 -0.1738,0.18202 1.4004,7.08095 3.4983,15.33095 4.1407,16.28351 6.5423,30.71659 7.5892,45.60979 l 0.6685,9.51062 -10.2223,1.67798 c -27.4491,4.50574 -52.8748,17.6104 -72.9875,37.61847 -12.4137,12.34921 -18.3857,21.51291 -31.9877,49.08321 -6.1053,12.375 -11.9904,23.625 -13.0781,25 l -1.9774,2.5 0.491,-3 c 0.2701,-1.65 1.641,-9.2031 3.0464,-16.7847 4.2011,-22.6627 5.4134,-34.3576 5.3088,-51.2153 -0.081,-13.09687 -0.2619,-15.00208 -0.9956,-10.50005 -2.5385,15.57665 -4.5359,23.95575 -9.9826,41.87835 -3.2797,10.7919 -7.0415,25.2467 -8.3596,32.1217 -1.3181,6.875 -3.53595,15.5186 -4.9285,19.208 -1.39254,3.6894 -5.06207,16.0644 -8.1545,27.5 -4.95781,18.3336 -16.36692,52.0497 -25.64704,75.792 -8.74593,22.3755 -22.04787,43.6843 -36.2009,57.9912 -17.61546,17.8069 -34.83705,27.0303 -61.61208,32.9976 -10.5614,2.3538 -38.02842,2.9176 -48.24095,0.9902 z m -77.55795,-74.479 c -1.99518,-6.8121 -2.67499,-28.8254 -1.20137,-38.903 3.78432,-25.8799 14.5726,-45.0506 34.88355,-61.9877 5.84971,-4.8781 15.8586,-14.2497 22.24197,-20.8259 9.4924,-9.7791 12.36083,-13.4645 15.75,-20.2358 3.77895,-7.5501 4.14301,-8.9515 4.1341,-15.9134 -0.0121,-9.4327 -2.79286,-16.0975 -8.89602,-21.3216 -5.68621,-4.8672 -11.43716,-6.341 -24.09421,-6.1747 -13.21472,0.1737 -20.2176,1.8384 -39.6822,9.4331 -16.13909,6.2972 -27.15026,9.0437 -35.15577,8.7689 -3.95074,-0.1356 -4.12804,-0.2182 -1.16203,-0.5411 12.71169,-1.3841 26.34358,-6.5071 44.43194,-16.6981 9.57719,-5.3958 24.41404,-10.4749 32.91883,-11.269 19.5373,-1.8245 38.55173,8.0885 45.98936,23.976 7.16253,15.2999 5.82629,29.5799 -4.19358,44.8156 -7.64533,11.625 -19.68907,22.0185 -37.52248,32.381 -7.06851,4.1073 -21.52795,18.2714 -27.55987,26.9969 -2.86364,4.1424 -7.16904,11.6867 -9.56756,16.7652 -6.55122,13.8712 -8.59458,22.6629 -9.35094,40.2336 -0.62433,14.5035 -0.68932,14.851 -1.96372,10.5 z"
         id="path76945"
         clip-path="url(#clipPath10022)"
         transform="matrix(0.01195287,0,0,0.01345828,268.03833,131.22432)" />
      <path
         style="mix-blend-mode:normal;fill:#828282;fill-opacity:1;stroke-width:1.02497;stroke-dasharray:none;filter:url(#filter45805)"
         d="m -180.83439,1804.8824 c 4.3581,-22.1653 4.6102,-48.6802 0.6371,-67 -4.521,-20.846 -8.6098,-30.166 -26.2269,-59.7812 -12.3526,-20.7655 -18.3604,-32.7769 -22.3259,-44.6369 -2.1016,-6.2852 -3.5731,-8.8176 -7.136,-12.2804 -5.2993,-5.1503 -8.2962,-11.3882 -9.0691,-18.8766 -0.6732,-6.5224 0.8308,-7.1984 2.4603,-1.1059 2.0779,7.7691 8.8079,15.3944 21.6607,24.5424 13.3163,9.4778 16.5397,13.2926 19.5185,23.0998 2.5566,8.4169 5.3509,11.0388 11.7649,11.0388 5.1578,0 8.9226,-1.7468 14.3684,-6.6668 3.2782,-2.9616 4.5202,-3.4851 7.4553,-3.1424 3.3362,0.3894 3.5749,0.2145 4.5258,-3.317 1.6631,-6.1764 3.1336,-20.1564 2.4846,-23.6213 -0.4256,-2.2719 -1.5196,-3.7188 -3.642,-4.8163 -3.9032,-2.0184 -6.8261,-8.4168 -6.8546,-15.0049 -0.018,-4.1714 -0.7368,-6.2073 -4.0598,-11.5 -2.2207,-3.5372 -5.1695,-8.7737 -6.5528,-11.6366 -2.3277,-4.8175 -6.4134,-19.6242 -7.8974,-28.6207 -0.6147,-3.7265 -0.6908,-3.7868 -2.9283,-2.3208 -2.2622,1.4823 -2.3149,1.4265 -3.4637,-3.674 -2.0299,-9.0124 -10.7416,-25.3803 -25.0787,-47.1189 -7.6394,-11.5832 -15.7353,-24.6603 -17.9911,-29.0603 -4.3662,-8.5168 -9.0502,-21.9999 -9.0502,-26.0516 0,-1.3466 -0.45,-2.4484 -1,-2.4484 -0.5913,0 -1,3.6133 -1,8.84 0,13.0724 2.6568,21.9933 12.1093,40.66 4.4561,8.8 7.8874,15.775 7.625,15.5 -3.2615,-3.4185 -22.2309,-28.1922 -25.9835,-33.9341 l -4.9448,-7.5659 0.5849,4.1007 c 0.3218,2.2555 3.7479,11.6018 7.6137,20.7697 4.4496,10.5525 7.3472,18.955 7.8969,22.8992 0.4775,3.4267 0.7799,6.3331 0.6719,6.4586 -0.108,0.1255 -1.7437,-2.1245 -3.6349,-5 l -3.4385,-5.2282 -9.5,-0.3072 c -15.1224,-0.4889 -28.4989,3.5561 -45.9769,13.9033 -9.1107,5.3937 -9.8437,6.8567 -3.4512,6.8886 1.6895,0.01 5.1832,0.7347 7.7637,1.614 l 4.692,1.5987 -4.1605,3.0138 c -10.3808,7.5199 -19.8575,19.6983 -32.7603,42.1 -5.0087,8.6961 -9.1068,16.0086 -9.1068,16.25 0,1.1483 5.9662,0.1834 9.8989,-1.6009 2.4194,-1.0977 4.5852,-1.8096 4.8128,-1.5819 0.7596,0.7596 -1.8306,13.0295 -4.3363,20.541 -1.3613,4.0807 -5.425,13.2208 -9.0305,20.3114 -3.6055,7.0906 -6.3404,13.1071 -6.0775,13.3699 0.6272,0.6272 11.8815,-3.629 18.6047,-7.0359 l 5.3012,-2.6863 -0.685,2.3107 c -1.5801,5.3305 -8.1253,19.8705 -12.2938,27.3108 -5.7108,10.1932 -9.2797,15.3947 -15.99,23.3048 -2.9618,3.4913 -5.1223,6.6108 -4.801,6.9321 0.8411,0.8411 11.3355,-1.6018 16.4736,-3.8347 6.14,-2.6683 6.5539,-2.4413 3.9608,2.1724 -4.9682,8.8398 -15.7275,16.2788 -30.4008,21.0192 l -6.8668,2.2185 -9.0351,-9.5055 c -20.5003,-21.5673 -34.3519,-46.646 -41.5473,-75.2228 -21.5251,-85.4873 26.594,-173.8769 109.7241,-201.5516 21.1371,-7.0368 29.9035,-8.4172 53.788,-8.47 18.0325,-0.04 22.6007,0.2768 32.3275,2.2406 16.1156,3.2538 27.6292,7.2699 43.6725,15.2337 17.8823,8.8768 30.165,17.6654 43.9827,31.471 21.4739,21.4552 36.4093,47.1226 43.987696,75.5955 7.602,28.5618 7.3975,62.842 -0.5391,90.3467 -9.777196,33.8837 -30.245796,64.472 -57.898696,86.5241 l -8.685,6.9259 -0.1284,12.2021 c -0.2062,19.5914 -3.8195,38.2489 -10.9013,56.2894 -3.9984,10.1857 -4.9291,11.7558 -3.917,6.6086 z m -537.99938,-52.0877 c -34.85622,-3.1133 -71.84008,-18.257 -99.57114,-40.771 -3.14423,-2.5527 -5.74171,-4.8663 -5.77219,-5.1413 -0.0305,-0.275 2.75646,-1.316 6.1932,-2.3133 8.80351,-2.5548 19.41625,-7.9827 25.04591,-12.8098 4.0159,-3.4434 10.66014,-12.7702 10.69332,-15.0107 0.005,-0.3485 -2.74251,0.4778 -6.10594,1.8364 -5.67296,2.2914 -17.94731,5.3975 -18.725,4.7385 -0.18717,-0.1586 2.12828,-3.1984 5.14545,-6.755 6.37031,-7.5092 13.78757,-18.3468 19.10062,-27.9083 3.79193,-6.8241 13.73161,-29.9738 13.12862,-30.5768 -0.18117,-0.1811 -3.63802,1.3372 -7.68189,3.374 -7.48613,3.7707 -17.88203,7.7288 -18.54871,7.0621 -0.20245,-0.2024 2.94308,-6.8763 6.99007,-14.8307 7.95924,-15.6441 12.25033,-27.5624 13.61194,-37.8064 0.47518,-3.575 0.73438,-6.6439 0.576,-6.8198 -0.15838,-0.1758 -2.09028,0.5997 -4.29311,1.7235 -2.20283,1.1238 -5.9266,2.3506 -8.27506,2.7261 l -4.26992,0.6828 2.07687,-3.4063 c 1.14227,-1.8735 5.55432,-9.4813 9.80453,-16.9063 4.25022,-7.425 9.09936,-15.525 10.77586,-18 6.06784,-8.9579 15.62141,-19.5944 21.55642,-24 3.33421,-2.475 6.0803,-4.8201 6.10242,-5.2113 0.0529,-0.9352 -9.60277,-3.7844 -12.89129,-3.804 -6.20319,-0.037 -5.42287,-1.698 3.18663,-6.7833 20.38588,-12.041 42.53605,-18.1061 56.60883,-15.5005 4.00984,0.7424 4.6793,1.3295 8.25,7.2348 4.29521,7.1035 4.36344,7.0243 2.77382,-3.221 -0.7533,-4.8551 -3.50145,-12.7987 -8.51601,-24.6156 -4.07209,-9.5959 -7.68046,-19.2814 -8.01861,-21.5231 -0.61295,-4.0636 -0.59944,-4.0527 4.42913,3.5718 2.77417,4.2063 9.4706,13.2063 14.88096,20 5.41036,6.7937 10.86064,13.7022 12.11173,15.3522 l 2.27472,3 -1.2749,-3.0013 c -0.7011,-1.6508 -4.89077,-10.2008 -9.31029,-19 -9.54448,-19.0031 -11.50703,-26.0237 -11.36116,-40.6418 0.0892,-8.9405 0.2372,-9.8099 1.08205,-6.3569 4.18281,17.0955 10.63218,30.0959 27.6072,55.6498 19.4654,29.3029 27.5686,44.5975 29.7289,56.113 0.7915,4.2192 1.0945,4.3947 3.6289,2.1011 2.123,-1.9213 2.1769,-1.8215 3.8566,7.1361 2.4768,13.208 8.6515,29.5286 15.983,42.2448 2.2055,3.8254 4.01,8.0141 4.01,9.3082 0,2.2269 -0.2063,2.1515 -3.8509,-1.4074 -2.118,-2.0682 -6.0324,-7.0951 -8.6987,-11.1709 -2.6663,-4.0758 -5.0117,-7.2467 -5.212,-7.0465 -0.7292,0.7292 1.9638,13.1781 3.6931,17.0718 1.5428,3.4739 2.5848,4.3067 7.9225,6.3316 4.4683,1.6952 6.146,2.8359 6.146,4.1788 0,1.8237 4.9397,7.5476 8.1895,9.4896 1.7072,1.0202 2.3009,5.1443 1.8713,13 l -0.2187,4 -1.521,-4.3 c -1.66,-4.6928 -3.3024,-5.0042 -4.7526,-0.9012 -0.7872,2.2273 -0.5161,3.0204 1.75,5.1206 2.1963,2.0354 2.679,3.3533 2.6678,7.2829 -0.02,7.0493 -0.8491,9.2977 -3.4286,9.2977 -1.215,0 -3.266,1.125 -4.5577,2.5 -1.2917,1.375 -3.0352,2.5 -3.8743,2.5 -1.1867,0 -1.259,-0.2667 -0.3257,-1.2 1.2716,-1.2716 1.6261,-5.0406 0.5732,-6.0935 -0.3447,-0.3447 -1.914,0.039 -3.4872,0.8525 -2.8177,1.4571 -2.8448,1.4446 -1.808,-0.8308 0.904,-1.9841 0.5829,-2.808 -2.2754,-5.8387 -1.8304,-1.9407 -5.0792,-6.5231 -7.2196,-10.183 -2.7615,-4.7221 -6.2251,-8.622 -11.9275,-13.4304 -15.2933,-12.8957 -24.958,-23.2467 -29.0374,-31.0996 -2.0924,-4.0279 -4.0453,-7.0827 -4.3396,-6.7883 -0.887,0.887 1.6416,9.518 4.39,14.9844 4.2963,8.5451 8.8379,13.9504 17.3315,20.6274 9.9147,7.7941 13.7327,12.8657 18.3907,24.4289 3.8004,9.4341 6.2174,12.77 11.1093,15.3328 l 3,1.5716 -4,1.8071 c -5.4004,2.4398 -9.5321,2.3112 -13.6021,-0.4234 -2.7241,-1.8303 -3.896,-3.7638 -5.9098,-9.75 -4.2367,-12.5942 -7.0828,-15.9587 -21.9881,-25.9934 -12.90021,-8.6849 -20.62465,-17.7696 -23.14733,-27.2236 -1.82231,-6.8293 -3.14191,-5.8472 -2.68745,2 0.48567,8.386 3.42855,14.7462 9.75404,21.0806 3.83043,3.8358 5.25374,6.3653 7.97304,14.1694 4.3828,12.5781 11.9619,27.5362 25.0811,49.5 15.866,26.5625 22.3882,40.1229 27.094,56.3318 l 1.8382,6.3318 -11.2028,5.374 c -30.4175,14.5913 -62.55261,20.3891 -96.30128,17.3747 z m -448.40153,-1.4804 c -1.375,-0.241 -5.875,-0.9152 -10,-1.4982 -34.4224,-4.865 -68.9125,-22.1762 -94.5048,-47.4337 -25.3418,-25.0104 -40.7776,-53.435 -48.6677,-89.6204 -1.9796,-9.0784 -2.2659,-13.263 -2.2845,-33.3796 -0.019,-20.4108 0.2434,-24.2383 2.3301,-34 4.6653,-21.8242 13.1622,-42.5423 24.719,-60.2727 23.6127,-36.2264 60.1638,-62.4951 101.8571,-73.203 16.375,-4.2055 27.8901,-5.3375 48.792,-4.7964 20.4033,0.5282 33.074,2.8235 52.142,9.4456 45.7304,15.8817 84.4088,53.2042 102.50551,98.9122 20.16958,50.9436 14.668,110.024 -14.53981,156.1403 -20.0912,31.722 -53.6912,58.3142 -89.3761,70.7353 -17.5783,6.1186 -31.8519,8.5719 -52.4728,9.0187 -9.9,0.2146 -19.125,0.1929 -20.5,-0.048 z m 92,-63.1688 c 11.898,-8.0423 27.1662,-23.5391 35.2978,-35.8262 14.5768,-22.0263 21.3199,-43.0977 22.3805,-69.9369 0.8859,-22.42 -3.3357,-41.9701 -13.604,-63 -18.9634,-38.8374 -54.2851,-65.469 -96.9034,-73.0622 -11.428,-2.0361 -33.9823,-2.0057 -45.6709,0.062 -55.5931,9.8328 -99.6259,54.0713 -108.9177,109.4267 -1.9931,11.8738 -2.0266,31.7847 -0.074,43.8263 4.1577,25.6359 16.708,51.0294 34.3434,69.4881 7.1275,7.4602 7.8018,7.915 10.9737,7.4002 4.551,-0.7385 15.52,-5.9546 20.0246,-9.5223 3.5344,-2.7993 9.1195,-11.119 7.4636,-11.118 -0.4477,3e-4 -3.064,0.8378 -5.814,1.8612 -9.4058,3.5001 -14.0827,3.5267 -9.901,0.056 7.0064,-5.8147 20.9099,-29.7005 24.8717,-42.7286 l 0.7027,-2.3107 -5.2655,2.6682 c -5.9986,3.0397 -13.0301,5.6645 -13.613,5.0815 -0.2162,-0.2162 2.0042,-5.0585 4.9344,-10.7606 6.0942,-11.8598 8.6695,-19.0982 9.4878,-26.6675 l 0.573,-5.3 -4.0855,1.6347 c -7.9405,3.1772 -7.8798,2.083 0.7118,-12.8407 8.8433,-15.3607 16.5917,-25.4617 23.4984,-30.6328 5.2096,-3.9005 4.9363,-4.4124 -3.2717,-6.1279 -2.9463,-0.6158 -4.9713,-1.4952 -4.5,-1.9542 1.7667,-1.7207 13.4144,-7.8649 19.6034,-10.3409 7.8453,-3.1386 19.4839,-5.0558 25.3511,-4.1759 3.7636,0.5644 4.701,1.2254 6.8708,4.8456 l 2.5127,4.192 0.01,-3.8948 c 0.01,-2.4826 -2.3756,-9.8567 -6.5689,-20.3383 -3.6181,-9.0439 -6.3506,-16.6713 -6.0722,-16.9497 0.2784,-0.2784 1.7236,1.4489 3.2116,3.8383 1.488,2.3895 5.0432,7.2695 7.9004,10.8445 2.8572,3.575 6.8472,8.672 8.8667,11.3266 2.0195,2.6546 3.6719,4.4433 3.6719,3.9747 0,-0.4685 -2.8415,-6.4655 -6.3144,-13.3266 -6.7911,-13.4166 -8.7282,-20.3629 -8.6146,-30.8915 l 0.071,-6.5832 1.9872,7 c 2.9634,10.4388 7.5328,19.164 19.9007,38 11.9585,18.2123 16.6442,26.7581 19.465,35.5 2.1376,6.6248 2.1028,6.5787 3.863,5.1179 1.1698,-0.9709 1.6171,-0.028 2.66,5.6075 2.0701,11.1865 4.7242,18.5664 9.116,25.3467 3.3628,5.192 4.2925,7.6633 4.8347,12.8528 0.6047,5.7869 1.0367,6.7407 4.3513,9.6059 3.4049,2.9433 3.68,3.5906 3.68,8.6584 0,3.0125 -0.5121,8.0273 -1.138,11.144 -1.0977,5.4659 -1.2511,5.6668 -4.3257,5.6668 -2.1418,0 -3.983,0.8514 -5.6119,2.595 -5.5172,5.9057 -13.2146,7.2057 -17.4698,2.9505 -1.35,-1.35 -2.4546,-3.2867 -2.4546,-4.3037 0,-1.017 -1.146,-4.149 -2.5468,-6.96 -2.5043,-5.0254 -4.6648,-7.0065 -18.2245,-16.7109 -5.7681,-4.1281 -10.17,-9.8636 -12.3341,-16.0709 l -1.3946,-4 -0.3022,4.6874 c -0.3582,5.5549 2.3935,11.714 7.317,16.3779 2.054,1.9457 3.8163,5.0503 4.8248,8.5 2.2206,7.5953 7.9558,19.0879 17.633,35.3341 10.1704,17.0742 18.6011,34.3592 20.1686,41.3506 0.6474,2.8875 1.668,5.2519 2.268,5.2543 0.6,0 4.9158,-2.5812 9.5908,-5.7412 z m 224.73994,-407.7841 c -27.42547,-5.1759 -48.19485,-19.3923 -59.11581,-40.4642 -11.54631,-22.2784 -13.9288,-54.0088 -5.63253,-75.0148 6.94252,-17.5785 27.27938,-38.8477 49.82396,-52.1082 12.6979,-7.4689 17.83196,-11.6147 23.35887,-18.8628 5.7837,-7.5848 9.89963,-15.8254 12.75919,-25.5452 l 2.05462,-6.9838 -0.61102,5.5 c -0.89427,8.0496 -4.95778,21.3225 -9.00729,29.421 -6.34177,12.6828 -12.10766,18.9871 -30.58922,33.4456 -8.77952,6.8685 -13.71811,12.5827 -18.12853,20.9757 -4.7722,9.0815 -6.65468,16.7692 -6.6403,27.1178 0.0197,14.1824 4.23265,25.4271 13.36584,35.6743 10.44269,11.7164 23.30705,17.4508 39.24888,17.4953 39.33367,0.11 71.44502,-32.5907 85.87181,-87.4477 4.45668,-16.9463 5.79866,-30.1825 5.18919,-51.182 -0.64582,-22.2519 -2.05095,-30.1677 -10.08516,-56.8152 -7.01132,-23.2548 -8.36101,-28.6422 -10.00615,-39.94038 l -1.3461,-9.24447 -0.11688,15.50005 c -0.1375,18.2327 0.6561,25.9841 5.27215,51.4954 1.89039,10.4474 3.2888,19.1436 3.1076,19.3248 -0.63558,0.6356 -7.21373,-11.5177 -17.76448,-32.8202 -11.76186,-23.7479 -16.78744,-31.1621 -29.94256,-44.17398 -19.23269,-19.02326 -44.94396,-32.11072 -71.71798,-36.50564 l -10.08803,-1.65594 v -4.08837 c 0,-12.44281 4.96557,-41.9056 9.94547,-59.01061 3.87877,-13.32285 1.18056,-7.58871 -4.28368,9.10354 -5.76371,17.60706 -9.39657,30.58703 -12.18004,43.51849 l -1.65472,7.68754 -4.77843,-2.94019 c -19.17904,-11.80098 -43.60346,-17.90313 -66.23272,-16.54746 -12.25634,0.73426 -30.43879,4.95751 -44.59089,10.35714 -5.1012,1.94635 -9.4386,3.36255 -9.6386,3.14712 -0.2,-0.21543 0.2423,-4.44169 0.9829,-9.39169 2.7802,-18.58126 3.714,-36.53197 3.1129,-59.84293 -0.6231,-24.16785 -1.2933,-30.60031 -7.0495,-67.65707 -6.166,-39.69514 -6.1348,-39.30571 -6.0999,-76 0.029,-30.0208 0.3235,-36.64223 2.2711,-51 1.958,-14.4342 7.9556,-46.91097 9.7001,-52.52561 1.6161,-5.20141 -3.7019,6.19809 -7.0097,15.02561 -7.2556,19.36317 -11.8585,37.25839 -15.6902,61 -0.8118,5.03026 -1.2769,17.09482 -1.2529,32.5 0.037,23.51619 0.2059,25.62436 4.2138,52.5 2.2965,15.4 4.6956,33.73397 5.3312,40.74215 1.8927,20.8678 0.3107,71.85644 -2.6537,85.53286 -0.463,2.13569 -0.9081,1.91785 -7.2692,-3.55691 -33.5319,-28.8601 -86.3716,-33.28157 -130.7342,-10.93947 -28.6058,14.40662 -55.3798,42.11032 -70.4838,72.9315 -3.8257,7.80674 -4.8686,9.27126 -5.3204,7.47128 -1.4123,-5.6269 -1.8022,-30.23605 -0.6922,-43.68141 5.9592,-72.18125 34.8418,-136.70295 106.1482,-237.12802 16.492,-23.22669 26.0153,-34.87485 41.9091,-51.26016 27.3157,-28.1604 57.8042,-51.91417 96,-74.79415 11.95321,-7.16019 31.22514,-17.81767 32.21971,-17.81767 0.25969,0 -1.63712,5.2875 -4.21514,11.75 -5.75838,14.43492 -9.33303,27.04092 -12.12252,42.75 -2.80104,15.77407 -3.05646,43.42313 -0.53118,57.5 6.64295,37.03045 22.11805,66.9359 46.86044,90.55727 19.71005,18.81704 42.3425,30.37966 59.55902,30.42795 l 5.27033,0.0148 -1.90766,3.75 c -3.11387,6.12111 -5.833,16.2266 -6.59234,24.5 -0.80812,8.80502 0.53744,10.47714 2.41412,3 1.65168,-6.58068 8.1001,-20.05936 13.43836,-28.08924 9.79116,-14.72801 24.56918,-27.93773 38.80039,-34.68275 10.95333,-5.19143 11.64475,-4.59677 5.74492,4.941 -5.50244,8.89536 -11.32732,23.00186 -13.1582,31.86608 -1.11143,5.38105 -1.02237,6.43999 1.01133,12.02395 4.41269,12.11604 17.25515,30.92343 23.47584,34.37966 5.36059,2.97835 22.13907,0.58553 33.89725,-4.83416 4.90414,-2.26047 8.41328,-4.80064 11.89574,-8.61101 6.80453,-7.44523 6.48802,-8.42349 -1.8104,-5.59549 -10.83848,3.69363 -11.04874,3.38178 -3.97664,-5.89804 3.458,-4.5375 7.95354,-11.23455 9.9901,-14.88234 4.04926,-7.25285 10.14479,-21.79275 9.43408,-22.50346 -0.24501,-0.24501 -1.96469,0.4194 -3.82151,1.47646 -4.50944,2.56717 -12.78588,5.58283 -13.46317,4.90554 -0.2984,-0.29841 1.47895,-4.52587 3.94966,-9.39438 2.47072,-4.8685 5.38775,-11.13673 6.48229,-13.92939 2.00037,-5.10384 4.48483,-16.42613 3.76282,-17.14813 -0.21289,-0.21289 -2.70418,0.37082 -5.5362,1.29713 -2.83203,0.92631 -5.31644,1.51418 -5.52092,1.30638 -0.64075,-0.65113 14.52638,-26.0957 19.13817,-32.10645 2.41744,-3.15075 6.83417,-7.83417 9.81495,-10.40759 2.98079,-2.57342 5.20404,-5.02776 4.94055,-5.45408 -0.26348,-0.42633 -3.03849,-1.30647 -6.16668,-1.95588 -5.34519,-1.10966 -5.56992,-1.27143 -3.73256,-2.68685 3.85764,-2.97178 22.05992,-11.10228 27.25428,-12.1738 2.91457,-0.60126 8.42625,-1.09318 12.24816,-1.09318 h 6.94895 l 3.03945,4.75 3.03945,4.75 -0.64091,-5 c -0.35249,-2.75 -2.20418,-8.825 -4.11485,-13.5 -6.28922,-15.38834 -8.40448,-21.24498 -8.05344,-22.29809 0.19049,-0.57148 1.51759,0.94931 2.9491,3.37952 2.01865,3.42697 17.97592,24.36466 20.51549,26.91857 0.27345,0.275 -2.21936,-4.93633 -5.53958,-11.58074 -6.27157,-12.55063 -8.60157,-19.29543 -9.70923,-28.10594 -0.82081,-6.52885 0.87568,-10.59926 1.95713,-4.69575 1.23415,6.73707 8.86491,21.34207 19.53144,37.38243 11.02118,16.57369 18.70262,31.10293 19.68212,37.22807 0.6333,3.96038 1.2332,4.48618 3.0482,2.67127 1.2543,-1.25436 1.7386,-0.0543 2.8499,7.06204 1.2059,7.7226 4.465,16.31663 8.636,22.77278 2.9893,4.62686 4.208,7.72073 4.7269,12 0.817,6.73656 2.3024,9.88219 5.0831,10.76477 1.0993,0.3489 2.2756,1.73754 2.614,3.08585 0.6833,2.7222 -0.2096,11.85169 -1.7342,17.73225 -0.9047,3.48946 -1.2245,3.76543 -3.7266,3.21587 -2.1301,-0.46784 -3.2818,-0.0181 -5.1934,2.02799 -3.3784,3.616 -7.2018,5.43911 -11.4067,5.43911 -4.6132,0 -6.9454,-2.40963 -8.9259,-9.22208 -1.8839,-6.48033 -5.39434,-10.34849 -16.37338,-18.0417 -8.14114,-5.70465 -13.8385,-12.56935 -14.94495,-18.00703 -0.89351,-4.3912 -2.30547,-4.24182 -2.30547,0.24391 0,5.52224 2.31787,10.71648 6.92871,15.5269 2.5778,2.68938 4.54074,6.16904 5.99091,10.61992 2.50453,7.68698 8.31676,19.23722 16.79728,33.38008 20.1607,33.62174 23.766,45.48843 23.6975,78 -0.033,15.78458 -0.4176,20.7554 -2.2712,29.37272 -1.2271,5.705 -2.0477,10.55615 -1.8235,10.78033 0.6799,0.67989 6.3824,-17.59059 8.3188,-26.65305 1.3547,-6.3399 1.822,-12.94726 1.8389,-26 0.012,-9.625 -0.2906,-18.89746 -0.6735,-20.60547 l -0.6961,-3.10547 9.1961,-2.23412 c 5.0579,-1.22876 14.6798,-4.00821 21.3821,-6.17654 12.17,-3.93724 12.1943,-3.95141 18.5,-10.77015 6.9478,-7.51305 13.5788,-18.34403 17.0267,-27.8108 1.9872,-5.45641 2.1088,-6.7244 1.0999,-11.46614 -1.9913,-9.35824 -7.3573,-22.60947 -12.7971,-31.60243 -6.2605,-10.34969 -5.7208,-10.97311 5.0655,-5.85072 23.0216,10.93292 44.4015,36.20078 51.9285,61.37184 1.028,3.4375 2.2697,6.25 2.7593,6.25 2.4005,0 -1.6938,-21.87303 -5.7558,-30.75 l -2.4024,-5.25 5.1947,-0.0148 c 18.5249,-0.0527 44.4335,-14.33641 64.7623,-35.70404 25.0317,-26.31093 39.5335,-59.69685 42.9857,-98.96074 2.4757,-28.15894 -3.3164,-61.73067 -15.603,-90.43651 -1.8559,-4.33616 -3.0843,-7.88393 -2.7296,-7.88393 1.115,0 26.3115,14.06241 37.2793,20.80591 44.8247,27.56031 85.288,61.9188 112.1388,95.22019 15.8503,19.65812 50.5461,70.2421 67.8867,98.9739 41.8894,69.4068 62.5264,136.83706 59.5268,194.5 -0.9918,19.06495 -0.8112,18.91997 -7.4698,5.99684 -8.9737,-17.41657 -17.1205,-28.57632 -31.0601,-42.54744 -26.9769,-27.03771 -56.4681,-40.76206 -91.5224,-42.59192 -29.9041,-1.56101 -57.0673,7.12558 -77.6341,24.82682 -5.5084,4.741 -6.8267,5.48067 -7.2304,4.05692 -2.0288,-7.15439 -3.1311,-27.19363 -3.0936,-56.24122 0.044,-34.50276 0.062,-34.71127 6.4609,-77 7.3274,-48.42343 4.22,-87.71459 -10.3205,-130.5 -3.655,-10.75494 -9.7236,-25.79496 -10.2092,-25.30179 -0.1634,0.16598 0.7779,5.02679 2.0919,10.80179 7.0219,30.86287 10.435,61.99712 10.435,95.18905 0,26.33387 -1.3802,41.57698 -7,77.31095 -5.4403,34.59262 -7,51.18352 -7,74.46243 0,18.18787 1.8255,43.29902 4.001,55.03678 0.4587,2.47457 0.6573,4.67583 0.4414,4.89169 -0.2158,0.21587 -4.5662,-1.19998 -9.6674,-3.14633 -14.1521,-5.39963 -32.3345,-9.62288 -44.5909,-10.35714 -22.6382,-1.35621 -47.0528,4.74594 -66.251,16.55871 l -4.7967,2.95144 -0.6462,-3.19879 c -3.2228,-15.95233 -17.8548,-65.70563 -18.9777,-64.52974 -0.1738,0.18202 1.4004,7.08095 3.4983,15.33095 4.1407,16.28351 6.5423,30.71659 7.5892,45.60979 l 0.6685,9.51062 -10.2223,1.67798 c -27.4491,4.50574 -52.8748,17.6104 -72.9875,37.61847 -12.4137,12.34921 -18.3857,21.51291 -31.9877,49.08321 -6.1053,12.375 -11.9904,23.625 -13.0781,25 l -1.9774,2.5 0.491,-3 c 0.2701,-1.65 1.641,-9.2031 3.0464,-16.7847 4.2011,-22.6627 5.4134,-34.3576 5.3088,-51.2153 -0.081,-13.09687 -0.2619,-15.00208 -0.9956,-10.50005 -2.5385,15.57665 -4.5359,23.95575 -9.9826,41.87835 -3.2797,10.7919 -7.0415,25.2467 -8.3596,32.1217 -1.3181,6.875 -3.53595,15.5186 -4.9285,19.208 -1.39254,3.6894 -5.06207,16.0644 -8.1545,27.5 -4.95781,18.3336 -16.36692,52.0497 -25.64704,75.792 -8.74593,22.3755 -22.04787,43.6843 -36.2009,57.9912 -17.61546,17.8069 -34.83705,27.0303 -61.61208,32.9976 -10.5614,2.3538 -38.02842,2.9176 -48.24095,0.9902 z m -77.55795,-74.479 c -1.99518,-6.8121 -2.67499,-28.8254 -1.20137,-38.903 3.78432,-25.8799 14.5726,-45.0506 34.88355,-61.9877 5.84971,-4.8781 15.8586,-14.2497 22.24197,-20.8259 9.4924,-9.7791 12.36083,-13.4645 15.75,-20.2358 3.77895,-7.5501 4.14301,-8.9515 4.1341,-15.9134 -0.0121,-9.4327 -2.79286,-16.0975 -8.89602,-21.3216 -5.68621,-4.8672 -11.43716,-6.341 -24.09421,-6.1747 -13.21472,0.1737 -20.2176,1.8384 -39.6822,9.4331 -16.13909,6.2972 -27.15026,9.0437 -35.15577,8.7689 -3.95074,-0.1356 -4.12804,-0.2182 -1.16203,-0.5411 12.71169,-1.3841 26.34358,-6.5071 44.43194,-16.6981 9.57719,-5.3958 24.41404,-10.4749 32.91883,-11.269 19.5373,-1.8245 38.55173,8.0885 45.98936,23.976 7.16253,15.2999 5.82629,29.5799 -4.19358,44.8156 -7.64533,11.625 -19.68907,22.0185 -37.52248,32.381 -7.06851,4.1073 -21.52795,18.2714 -27.55987,26.9969 -2.86364,4.1424 -7.16904,11.6867 -9.56756,16.7652 -6.55122,13.8712 -8.59458,22.6629 -9.35094,40.2336 -0.62433,14.5035 -0.68932,14.851 -1.96372,10.5 z"
         id="path7203"
         clip-path="url(#clipPath10022)"
         transform="matrix(0.01195287,0,0,0.01345828,268.03833,131.22432)" />
    </g>
  </g>
</svg>
