<svg xmlns="http://www.w3.org/2000/svg" width="764.538" height="619.568" viewBox="0 0 764.538 619.568">
  <g id="_1" data-name="1" transform="translate(2.538 48)">
    <path id="Path_254" data-name="Path 254" d="M278.381,79.519c17.187-15.3,44.165-18.44,68.725-17.216,77.133,3.842,146.746,41.07,206.986,83.188,21.771,15.251,43.271,31.685,57.422,52.679,28.831,42.747,20.264,101.963-19.8,137.179-13.627,11.98-30.149,21.182-47.113,29.308-30.161,14.475-62.705,26.1-96.938,29.42-24.407,2.354-49.119.441-73.391-2.854-67.8-9.191-134.355-29.526-190.14-64.318-24.489-15.269-47.525-34.227-57.61-58.94s-3.63-55.945,21.353-70.555c10.332-6.043,22.683-8.773,34.78-11.333,17.8-3.772,35.892-7.49,51.955-15.163,16.593-7.92,36.245-23.236,32.95-40.764C264.042,111.34,261.218,94.818,278.381,79.519Z" transform="translate(-124.503 89.123)" fill="#32614870" opacity="0.065"/>
    <path id="Path_10" data-name="Path 10" d="M689.632,391.505a168.623,168.623,0,0,1,13.956-53.218q3.15-7.036,6.933-13.763a1.028,1.028,0,0,0-1.773-1.037,170.952,170.952,0,0,0-19.023,52.479q-1.428,7.715-2.147,15.538C687.456,392.821,689.511,392.812,689.632,391.505Z" transform="translate(-257.075 -260.684)" fill="#e6e6e6"/>
    <circle id="Ellipse_3" data-name="Ellipse 3" cx="13.008" cy="13.008" r="13.008" transform="translate(445.412 41.118)" fill="rgba(129,167,140,0.69)"/>
    <path id="Path_11" data-name="Path 11" d="M690.4,385.109a109.392,109.392,0,0,1,9.054-34.525q2.043-4.565,4.5-8.928a.667.667,0,0,0-1.151-.672,110.9,110.9,0,0,0-12.341,34.046q-.927,5-1.393,10.08C688.984,385.962,690.317,385.957,690.4,385.109Z" transform="translate(-256.508 -253.942)" fill="#e6e6e6"/>
    <circle id="Ellipse_4" data-name="Ellipse 4" cx="8.439" cy="8.439" r="8.439" transform="translate(442.227 72.972)" fill="rgba(129,167,140,0.69)"/>
    <path id="Path_12" data-name="Path 12" d="M693.606,384.177a109.4,109.4,0,0,1-14.1-32.791q-1.2-4.856-1.945-9.806a.667.667,0,0,0-1.321.177,110.907,110.907,0,0,0,11.209,34.435q2.348,4.516,5.1,8.8c.463.721,1.51-.1,1.051-.82Z" transform="translate(-261.401 -253.808)" fill="#e6e6e6"/>
    <circle id="Ellipse_5" data-name="Ellipse 5" cx="8.439" cy="8.439" r="8.439" transform="translate(406.394 72.38)" fill="rgba(129,167,140,0.69)"/>
    <path id="Path_13" data-name="Path 13" d="M670.059,383.958v-16.58a6.225,6.225,0,0,1,6.218-6.218h38.687a6.225,6.225,0,0,1,6.217,6.217v16.58a6.225,6.225,0,0,1-6.218,6.218H676.277A6.225,6.225,0,0,1,670.059,383.958Z" transform="translate(-263.76 -246.122)" fill="#eee5cf" style="isolation: isolate"/>
    <path id="Path_14" data-name="Path 14" d="M707.857,323.3h-16.58a6.224,6.224,0,0,1-6.217-6.218v-67.7a6.224,6.224,0,0,1,6.218-6.218h16.58a6.225,6.225,0,0,1,6.218,6.218v67.7a6.225,6.225,0,0,1-6.218,6.218Z" transform="translate(-258.035 -291.16)" fill="#f2f2f2" style="isolation: isolate"/>
    <rect id="Rectangle_11" data-name="Rectangle 11" width="27.634" height="5.527" transform="translate(427.715 -34.874)" fill="rgba(129,167,140,0.32)"/>
    <rect id="Rectangle_12" data-name="Rectangle 12" width="27.634" height="5.527" transform="translate(427.715 7.958)" fill="rgba(129,167,140,0.32)"/>
    <path id="Path_15" data-name="Path 15" d="M737.857,323.3h-16.58a6.224,6.224,0,0,1-6.218-6.218v-67.7a6.224,6.224,0,0,1,6.218-6.218h16.58a6.225,6.225,0,0,1,6.218,6.218v67.7a6.225,6.225,0,0,1-6.218,6.218Z" transform="translate(-246.584 -291.16)" fill="#f2f2f2" style="isolation: isolate"/>
    <rect id="Rectangle_13" data-name="Rectangle 13" width="27.634" height="5.527" transform="translate(469.166 -34.874)" fill="rgba(129,167,140,0.32)"/>
    <rect id="Rectangle_14" data-name="Rectangle 14" width="27.634" height="5.527" transform="translate(469.166 7.958)" fill="rgba(129,167,140,0.32)"/>
    <path id="Path_16" data-name="Path 16" d="M767.857,323.3h-16.58a6.224,6.224,0,0,1-6.218-6.218v-67.7a6.225,6.225,0,0,1,6.218-6.218h16.58a6.225,6.225,0,0,1,6.218,6.218v67.7a6.225,6.225,0,0,1-6.218,6.218Z" transform="translate(-235.134 -291.16)" fill="#f2f2f2" style="isolation: isolate"/>
    <rect id="Rectangle_15" data-name="Rectangle 15" width="27.634" height="5.527" transform="translate(510.616 -34.874)" fill="rgba(129,167,140,0.32)"/>
    <rect id="Rectangle_16" data-name="Rectangle 16" width="27.634" height="5.527" transform="translate(510.616 7.958)" fill="rgba(129,167,140,0.32)"/>
    <path id="Path_17" data-name="Path 17" d="M783.857,404.3h-16.58a6.225,6.225,0,0,1-6.218-6.218v-67.7a6.225,6.225,0,0,1,6.218-6.218h16.58a6.224,6.224,0,0,1,6.217,6.218v67.7a6.225,6.225,0,0,1-6.218,6.218Z" transform="translate(-229.027 -260.244)" fill="#f2f2f2" style="isolation: isolate"/>
    <rect id="Rectangle_17" data-name="Rectangle 17" width="27.634" height="5.527" transform="translate(532.723 77.042)" fill="rgba(129,167,140,0.29)"/>
    <rect id="Rectangle_18" data-name="Rectangle 18" width="27.634" height="5.527" transform="translate(532.723 119.874)" fill="rgba(129,167,140,0.29)"/>
    <path id="Path_18" data-name="Path 18" d="M813.857,404.3h-16.58a6.225,6.225,0,0,1-6.218-6.218v-67.7a6.225,6.225,0,0,1,6.218-6.218h16.58a6.224,6.224,0,0,1,6.218,6.218v67.7A6.225,6.225,0,0,1,813.857,404.3Z" transform="translate(-217.577 -260.244)" fill="#f2f2f2" style="isolation: isolate"/>
    <rect id="Rectangle_19" data-name="Rectangle 19" width="27.634" height="5.527" transform="translate(574.173 77.042)" fill="rgba(129,167,140,0.29)"/>
    <rect id="Rectangle_20" data-name="Rectangle 20" width="27.634" height="5.527" transform="translate(574.173 119.874)" fill="rgba(129,167,140,0.29)"/>
    <path id="Path_19" data-name="Path 19" d="M843.857,404.3h-16.58a6.225,6.225,0,0,1-6.218-6.218v-67.7a6.225,6.225,0,0,1,6.218-6.218h16.58a6.224,6.224,0,0,1,6.217,6.218v67.7a6.225,6.225,0,0,1-6.218,6.218Z" transform="translate(-206.126 -260.244)" fill="#f2f2f2" style="isolation: isolate"/>
    <rect id="Rectangle_21" data-name="Rectangle 21" width="27.634" height="5.527" transform="translate(615.624 77.042)" fill="rgba(129,167,140,0.29)"/>
    <rect id="Rectangle_22" data-name="Rectangle 22" width="27.634" height="5.527" transform="translate(615.624 119.874)" fill="rgba(129,167,140,0.29)"/>
    <path id="Path_20" data-name="Path 20" d="M704.857,485.3h-16.58a6.225,6.225,0,0,1-6.218-6.218v-67.7a6.224,6.224,0,0,1,6.218-6.217h16.58a6.225,6.225,0,0,1,6.218,6.218v67.7A6.225,6.225,0,0,1,704.857,485.3Z" transform="translate(-259.18 -229.328)" fill="#f2f2f2" style="isolation: isolate"/>
    <rect id="Rectangle_23" data-name="Rectangle 23" width="27.634" height="5.527" transform="translate(423.57 188.958)" fill="rgba(129,167,140,0.29)"/>
    <rect id="Rectangle_24" data-name="Rectangle 24" width="27.634" height="5.527" transform="translate(423.57 231.79)" fill="rgba(129,167,140,0.29)"/>
    <path id="Path_21" data-name="Path 21" d="M734.857,485.3h-16.58a6.225,6.225,0,0,1-6.218-6.218v-67.7a6.225,6.225,0,0,1,6.218-6.217h16.58a6.225,6.225,0,0,1,6.218,6.218v67.7A6.225,6.225,0,0,1,734.857,485.3Z" transform="translate(-247.729 -229.328)" fill="#f2f2f2" style="isolation: isolate"/>
    <rect id="Rectangle_25" data-name="Rectangle 25" width="27.634" height="5.527" transform="translate(465.021 188.958)" fill="rgba(129,167,140,0.29)"/>
    <rect id="Rectangle_26" data-name="Rectangle 26" width="27.634" height="5.527" transform="translate(465.021 231.79)" fill="rgba(129,167,140,0.29)"/>
    <path id="Path_22" data-name="Path 22" d="M764.857,485.3h-16.58a6.225,6.225,0,0,1-6.218-6.218v-67.7a6.225,6.225,0,0,1,6.218-6.217h16.58a6.225,6.225,0,0,1,6.218,6.218v67.7A6.225,6.225,0,0,1,764.857,485.3Z" transform="translate(-236.279 -229.328)" fill="#f2f2f2" style="isolation: isolate"/>
    <rect id="Rectangle_27" data-name="Rectangle 27" width="27.634" height="5.527" transform="translate(506.471 188.958)" fill="rgba(129,167,140,0.29)"/>
    <rect id="Rectangle_28" data-name="Rectangle 28" width="27.634" height="5.527" transform="translate(506.471 231.79)" fill="rgba(129,167,140,0.29)"/>
    <path id="Path_23" data-name="Path 23" d="M797.857,323.3h-16.58a6.224,6.224,0,0,1-6.218-6.218v-67.7a6.224,6.224,0,0,1,6.218-6.218h16.58a6.225,6.225,0,0,1,6.218,6.218v67.7a6.225,6.225,0,0,1-6.218,6.218Z" transform="translate(-223.684 -291.16)" fill="#f2f2f2" style="isolation: isolate"/>
    <rect id="Rectangle_29" data-name="Rectangle 29" width="27.634" height="5.527" transform="translate(552.066 -34.874)" fill="rgba(129,167,140,0.32)"/>
    <rect id="Rectangle_30" data-name="Rectangle 30" width="27.634" height="5.527" transform="translate(552.066 7.958)" fill="rgba(129,167,140,0.32)"/>
    <path id="Path_24" data-name="Path 24" d="M827.857,323.3h-16.58a6.224,6.224,0,0,1-6.218-6.218v-67.7a6.225,6.225,0,0,1,6.218-6.218h16.58a6.225,6.225,0,0,1,6.218,6.218v67.7a6.225,6.225,0,0,1-6.218,6.218Z" transform="translate(-212.233 -291.16)" fill="#f2f2f2" style="isolation: isolate"/>
    <rect id="Rectangle_31" data-name="Rectangle 31" width="27.634" height="5.527" transform="translate(593.517 -34.874)" fill="rgba(129,167,140,0.32)"/>
    <rect id="Rectangle_32" data-name="Rectangle 32" width="27.634" height="5.527" transform="translate(593.517 7.958)" fill="rgba(129,167,140,0.32)"/>
    <path id="Path_25" data-name="Path 25" d="M857.857,323.3h-16.58a6.224,6.224,0,0,1-6.218-6.218v-67.7a6.225,6.225,0,0,1,6.218-6.218h16.58a6.225,6.225,0,0,1,6.218,6.218v67.7a6.225,6.225,0,0,1-6.218,6.218Z" transform="translate(-200.783 -291.16)" fill="#f2f2f2" style="isolation: isolate"/>
    <rect id="Rectangle_33" data-name="Rectangle 33" width="27.634" height="5.527" transform="translate(634.967 -34.874)" fill="rgba(129,167,140,0.32)"/>
    <rect id="Rectangle_34" data-name="Rectangle 34" width="27.634" height="5.527" transform="translate(634.967 7.958)" fill="rgba(129,167,140,0.32)"/>
    <path id="Path_26" data-name="Path 26" d="M887.857,323.3h-16.58a6.224,6.224,0,0,1-6.218-6.218v-67.7a6.225,6.225,0,0,1,6.218-6.218h16.58a6.225,6.225,0,0,1,6.218,6.218v67.7a6.225,6.225,0,0,1-6.218,6.218Z" transform="translate(-189.332 -291.16)" fill="#f2f2f2" style="isolation: isolate"/>
    <rect id="Rectangle_35" data-name="Rectangle 35" width="27.634" height="5.527" transform="translate(676.417 -34.874)" fill="rgba(129,167,140,0.32)"/>
    <rect id="Rectangle_36" data-name="Rectangle 36" width="27.634" height="5.527" transform="translate(676.417 7.958)" fill="rgba(129,167,140,0.32)"/>
    <path id="Path_27" data-name="Path 27" d="M1035.66,303.424H641.882a1.382,1.382,0,1,1,0-2.763H1035.66a1.382,1.382,0,1,1,0,2.763Z" transform="translate(-275.042 -269.214)" fill="#ccc"/>
    <path id="Path_28" data-name="Path 28" d="M1035.66,384.424H641.882a1.382,1.382,0,1,1,0-2.763H1035.66a1.382,1.382,0,1,1,0,2.763Z" transform="translate(-275.042 -238.298)" fill="#ccc"/>
    <path id="Path_29" data-name="Path 29" d="M1035.66,465.424H641.882a1.382,1.382,0,1,1,0-2.763H1035.66a1.382,1.382,0,1,1,0,2.763Z" transform="translate(-275.042 -207.382)" fill="#ccc"/>
    <path id="Path_30" data-name="Path 30" d="M854.632,472.505a168.619,168.619,0,0,1,13.956-53.218q3.15-7.036,6.934-13.763a1.028,1.028,0,0,0-1.774-1.037,170.953,170.953,0,0,0-19.023,52.479q-1.428,7.715-2.147,15.538C852.456,473.821,854.511,473.812,854.632,472.505Z" transform="translate(-194.098 -229.768)" fill="#e6e6e6"/>
    <circle id="Ellipse_6" data-name="Ellipse 6" cx="13.008" cy="13.008" r="13.008" transform="translate(673.389 153.034)" fill="rgba(129,167,140,0.69)"/>
    <path id="Path_31" data-name="Path 31" d="M855.4,466.109a109.393,109.393,0,0,1,9.054-34.525q2.043-4.565,4.5-8.928a.667.667,0,0,0-1.151-.672,110.9,110.9,0,0,0-12.341,34.046q-.927,5.005-1.393,10.08C853.984,466.962,855.317,466.957,855.4,466.109Z" transform="translate(-193.531 -223.026)" fill="#e6e6e6"/>
    <circle id="Ellipse_7" data-name="Ellipse 7" cx="8.439" cy="8.439" r="8.439" transform="translate(670.204 184.888)" fill="rgba(129,167,140,0.69)"/>
    <path id="Path_32" data-name="Path 32" d="M858.606,465.178a109.4,109.4,0,0,1-14.1-32.791q-1.2-4.856-1.945-9.807a.667.667,0,0,0-1.321.177,110.9,110.9,0,0,0,11.21,34.435q2.348,4.516,5.1,8.8c.463.721,1.51-.1,1.051-.82Z" transform="translate(-198.423 -222.892)" fill="#e6e6e6"/>
    <circle id="Ellipse_8" data-name="Ellipse 8" cx="8.439" cy="8.439" r="8.439" transform="translate(634.371 184.296)" fill="rgba(129,167,140,0.69)"/>
    <path id="Path_33" data-name="Path 33" d="M835.059,464.958v-16.58a6.225,6.225,0,0,1,6.218-6.218h38.687a6.225,6.225,0,0,1,6.218,6.218v16.58a6.225,6.225,0,0,1-6.218,6.218H841.277A6.225,6.225,0,0,1,835.059,464.958Z" transform="translate(-200.783 -215.206)" fill="#eee5cf" style="isolation: isolate"/>
    <circle id="Ellipse_9" data-name="Ellipse 9" cx="37.305" cy="37.305" r="37.305" transform="translate(237.73 246.63)" fill="#2f2e41"/>
    <path id="Path_35" data-name="Path 35" d="M173.678,386.774l-.988-16.909L237.444,358l1.459,24.959Z" transform="translate(65.912 136.642)" fill="#ffb8b8"/>
    <path id="Path_36" data-name="Path 36" d="M20.569,0H53.237V20.569H0A20.569,20.569,0,0,1,20.569,0Z" transform="translate(241.521 473.61) rotate(86.655)" fill="#2f2e41"/>
    <path id="Path_37" data-name="Path 37" d="M212.118,390.174,201.361,403.26,145.768,368l15.874-19.313Z" transform="translate(55.637 133.087)" fill="#ffb8b8"/>
    <path id="Path_38" data-name="Path 38" d="M20.569,0H53.237V20.569H0A20.569,20.569,0,0,1,20.569,0Z" transform="matrix(0.635, -0.773, 0.773, 0.635, 232.518, 558.508)" fill="#2f2e41"/>
    <path id="Path_39" data-name="Path 39" d="M445.95,579.04l-7.35,34.651a5.527,5.527,0,0,0,5.317,6.673l72.259,1.165a5.527,5.527,0,0,0,5.532-6.487l-6.321-35.816a5.527,5.527,0,0,0-5.443-4.566H451.357A5.527,5.527,0,0,0,445.95,579.04Z" transform="translate(-209.149 -116.634)" fill="#2f2e41"/>
    <path id="Path_40" data-name="Path 40" d="M476.91,594.285s-70.466-44.214-84.282-20.725c-6.908,11.744-3.454,23.143,1.727,31.606a47.849,47.849,0,0,0,19.9,17.811l57.129,27.957,20.725-22.107-13.817-12.435Z" transform="translate(-228.126 -119.678)" fill="#2f2e41"/>
    <path id="Path_41" data-name="Path 41" d="M483.9,583.573s91.191-26.252,73.229,23.489-85.664,30.4-85.664,30.4l-6.908-20.725,23.489-16.58Z" transform="translate(-199.195 -115.874)" fill="#2f2e41"/>
    <circle id="Ellipse_10" data-name="Ellipse 10" cx="33.935" cy="33.935" r="33.935" transform="translate(241.568 258.518)" fill="#ffb8b8"/>
    <path id="Path_42" data-name="Path 42" d="M490.289,623.332a182.371,182.371,0,0,1-41.806-5.508l-.4-.111-18.937-87.108a32.089,32.089,0,0,1,20.632-37.227,111.169,111.169,0,0,1,70.88-1.415h0a32.427,32.427,0,0,1,21.6,38.362l-21.151,87.316-.3.142C512.018,621.946,501.026,623.332,490.289,623.332Z" transform="translate(-213.007 -150.15)" fill="#ccc"/>
    <path id="Path_43" data-name="Path 43" d="M455.012,601.495a13.894,13.894,0,0,1,20-7.34L512.3,561.79l3.374,25.435L479.747,614.06a13.969,13.969,0,0,1-24.735-12.565Z" transform="translate(-203.167 -121.546)" fill="#ffb8b8"/>
    <path id="Path_44" data-name="Path 44" d="M483.481,635.437a6.262,6.262,0,0,1-1.791-.263,6.152,6.152,0,0,1-4.093-3.891l-4.5-12.751a6.179,6.179,0,0,1,1.8-6.774l50.8-30.5-20.026-89.341.509-.123c.207-.051,20.726-4.721,29.134,17.7,5.888,15.7,27.677,49.847,26.14,72.92a20.566,20.566,0,0,1-17.025,18.967l-57.185,32.764A6.156,6.156,0,0,1,483.481,635.437Z" transform="translate(-196.075 -148.429)" fill="#ccc"/>
    <path id="Path_45" data-name="Path 45" d="M501.393,599.3a13.894,13.894,0,0,0-20-7.34L444.106,559.6l-3.374,25.435,35.925,26.835A13.969,13.969,0,0,0,501.393,599.3Z" transform="translate(-208.289 -122.383)" fill="#ffb8b8"/>
    <path id="Path_46" data-name="Path 46" d="M484.309,635.437a6.157,6.157,0,0,1-3.763-1.291l-61.33-30a20.566,20.566,0,0,1-17.025-18.967c-1.537-23.073,24.4-59.98,30.285-75.683,8.407-22.421,28.926-17.753,29.134-17.7l.509.123-24.171,92.1,54.948,27.736a6.179,6.179,0,0,1,1.8,6.773l-4.5,12.751a6.152,6.152,0,0,1-4.093,3.891,6.265,6.265,0,0,1-1.791.263Z" transform="translate(-223.025 -148.429)" fill="#ccc"/>
    <path id="Path_47" data-name="Path 47" d="M551.2,629.706H428.231a9.683,9.683,0,0,1-9.672-9.672v-67.7a9.683,9.683,0,0,1,9.672-9.672H551.2a9.683,9.683,0,0,1,9.672,9.672v67.7A9.683,9.683,0,0,1,551.2,629.706Z" transform="translate(-216.752 -128.847)" fill="#53906f"/>
    <circle id="Ellipse_11" data-name="Ellipse 11" cx="8.29" cy="8.29" r="8.29" transform="translate(264.673 449.046)" fill="#fff"/>
    <path id="Path_48" data-name="Path 48" d="M447.256,464.145c-2.011-5.1,1.289-11.181,6.184-13.652s10.8-2,16.039-.373c4.4,1.369,8.525,3.49,12.818,5.165a28.686,28.686,0,0,0,13.475,2.4c4.579-.517,9.137-3.085,11.011-7.3,1.942-4.364.621-9.69-2.37-13.414a25.974,25.974,0,0,0-11.9-7.647c-10.1-3.557-21.759-3.661-31.132,1.509s-15.744,16.18-13.806,26.708" transform="translate(-206.028 -173.073)" fill="#2f2e41"/>
    <path id="Path_49" data-name="Path 49" d="M305.731,613.9a168.623,168.623,0,0,1,13.956-53.218q3.15-7.036,6.933-13.763a1.028,1.028,0,0,0-1.773-1.037,170.952,170.952,0,0,0-19.023,52.479q-1.428,7.715-2.147,15.538c-.122,1.316,1.933,1.307,2.054,0Z" transform="translate(-260.602 -127.8)" fill="#e6e6e6"/>
    <circle id="Ellipse_12" data-name="Ellipse 12" cx="13.008" cy="13.008" r="13.008" transform="translate(57.985 396.398)" fill="#326148"/>
    <path id="Path_50" data-name="Path 50" d="M306.495,607.5a109.393,109.393,0,0,1,9.054-34.525q2.043-4.565,4.5-8.928a.667.667,0,0,0-1.151-.673,110.906,110.906,0,0,0-12.341,34.046q-.927,5-1.393,10.08C305.083,608.358,306.416,608.352,306.495,607.5Z" transform="translate(-260.035 -121.058)" fill="#e6e6e6"/>
    <circle id="Ellipse_13" data-name="Ellipse 13" cx="8.439" cy="8.439" r="8.439" transform="translate(54.8 428.252)" fill="#326148"/>
    <path id="Path_51" data-name="Path 51" d="M309.705,606.573a109.391,109.391,0,0,1-14.1-32.791q-1.2-4.856-1.945-9.807a.667.667,0,0,0-1.321.177,110.9,110.9,0,0,0,11.21,34.435q2.348,4.516,5.1,8.8c.463.721,1.51-.1,1.051-.82Z" transform="translate(-264.928 -120.924)" fill="#e6e6e6"/>
    <circle id="Ellipse_14" data-name="Ellipse 14" cx="8.439" cy="8.439" r="8.439" transform="translate(18.967 427.659)" fill="#326148"/>
    <path id="Path_52" data-name="Path 52" d="M286.159,606.354v-16.58a6.225,6.225,0,0,1,6.218-6.218h38.687a6.225,6.225,0,0,1,6.217,6.218v16.58a6.225,6.225,0,0,1-6.218,6.218H292.376a6.225,6.225,0,0,1-6.217-6.218Z" transform="translate(-267.287 -113.238)" fill="#eee5cf" style="isolation: isolate"/>
    <path id="Path_53" data-name="Path 53" d="M596,618.863c0,9.087-7.367,13.218-16.454,13.218s-16.454-4.13-16.454-13.218,3.656-19.691,16.454-16.034C592.343,597.344,596,609.775,596,618.863Z" transform="translate(-161.587 -106.397)" fill="#ff6584"/>
    <path id="Path_54" data-name="Path 54" d="M576.509,611.737a2.63,2.63,0,0,1-2.613-2.292c-.545-4.534-3.548-13.413-4.813-17.02h0a2.353,2.353,0,0,1,.3-2.164,2.469,2.469,0,0,1,3.68-.266,2.356,2.356,0,0,1,.647,1.764c-.248,4.629,3.127,12.11,5.16,16.158a2.636,2.636,0,0,1-2.086,3.808A2.421,2.421,0,0,1,576.509,611.737Z" transform="translate(-159.353 -111.048)" fill="#3f3d56"/>
    <path id="Path_55" data-name="Path 55" d="M586.977,601.636c5.712-4.675,1.23-14.242-5.918-12.405a5.772,5.772,0,0,0-2.575,1.373c-4.385,4.143-5.065,14.741-5.065,14.741S581.163,606.4,586.977,601.636Z" transform="translate(-157.645 -111.16)" fill="#3f3d56"/>
  </g>
</svg>
