<svg xmlns="http://www.w3.org/2000/svg" version="1.1" xmlns:xlink="http://www.w3.org/1999/xlink" xmlns:svgjs="http://svgjs.com/svgjs" width="1440" height="560" preserveAspectRatio="none" viewBox="0 0 1440 560"><g mask="url(&quot;#SvgjsMask3272&quot;)" fill="none"><rect width="1440" height="560" x="0" y="0" fill="#0e2a47"></rect><circle r="46.666666666666664" cx="212.34" cy="278.61" fill="#d3b714"></circle><path d="M561.52 621.0799999999999 L527.9499999999999 629.86L561.4488865165451 642.1838865165453z" fill="#e73635"></path><rect width="244.8" height="244.8" clip-path="url(&quot;#SvgjsClipPath3273&quot;)" x="433.33" y="34.17" fill="url(#SvgjsPattern3274)" transform="rotate(6.07, 555.73, 156.57)"></rect><path d="M592.59 479.26a5.6 5.6 0 1 0-2.85 10.83 5.6 5.6 0 1 0 2.85-10.83zM588.51 494.73a5.6 5.6 0 1 0-2.85 10.83 5.6 5.6 0 1 0 2.85-10.83zM584.44 510.2a5.6 5.6 0 1 0-2.85 10.83 5.6 5.6 0 1 0 2.85-10.83zM580.37 525.67a5.6 5.6 0 1 0-2.85 10.84 5.6 5.6 0 1 0 2.85-10.84zM585.26 444.24a5.6 5.6 0 1 0-2.85 10.83 5.6 5.6 0 1 0 2.85-10.83zM581.19 459.71a5.6 5.6 0 1 0-2.85 10.83 5.6 5.6 0 1 0 2.85-10.83zM577.12 475.18a5.6 5.6 0 1 0-2.86 10.83 5.6 5.6 0 1 0 2.86-10.83zM573.04 490.66a5.6 5.6 0 1 0-2.85 10.83 5.6 5.6 0 1 0 2.85-10.83z" stroke="#037b0b" stroke-width="1" stroke-dasharray="2, 2"></path><rect width="168" height="168" clip-path="url(&quot;#SvgjsClipPath3275&quot;)" x="163.12" y="293.21" fill="url(#SvgjsPattern3276)" transform="rotate(228.88, 247.12, 377.21)"></rect><path d="M58.35 422a5.6 5.6 0 1 0-9.44-6.03 5.6 5.6 0 1 0 9.44 6.03zM44.87 413.39a5.6 5.6 0 1 0-9.45-6.03 5.6 5.6 0 1 0 9.45 6.03zM31.38 404.78a5.6 5.6 0 1 0-9.44-6.03 5.6 5.6 0 1 0 9.44 6.03zM17.89 396.17a5.6 5.6 0 1 0-9.44-6.02 5.6 5.6 0 1 0 9.44 6.02z" fill="#037b0b"></path><path d="M1140.86 207.7a5.6 5.6 0 1 0 7.63 8.2 5.6 5.6 0 1 0-7.63-8.2zM1151.76 219.41a5.6 5.6 0 1 0 7.63 8.2 5.6 5.6 0 1 0-7.63-8.2zM1162.66 231.13a5.6 5.6 0 1 0 7.63 8.2 5.6 5.6 0 1 0-7.63-8.2zM1173.56 242.84a5.6 5.6 0 1 0 7.63 8.2 5.6 5.6 0 1 0-7.63-8.2zM1107.35 195.17a5.6 5.6 0 1 0 7.63 8.2 5.6 5.6 0 1 0-7.63-8.2zM1118.25 206.89a5.6 5.6 0 1 0 7.63 8.2 5.6 5.6 0 1 0-7.63-8.2zM1129.15 218.6a5.6 5.6 0 1 0 7.63 8.2 5.6 5.6 0 1 0-7.63-8.2zM1140.05 230.31a5.6 5.6 0 1 0 7.63 8.2 5.6 5.6 0 1 0-7.63-8.2z" stroke="#e73635" stroke-width="1"></path><path d="M426.02 501.67a5.6 5.6 0 1 0 7.42 8.4 5.6 5.6 0 1 0-7.42-8.4zM436.62 513.66a5.6 5.6 0 1 0 7.41 8.4 5.6 5.6 0 1 0-7.41-8.4zM447.21 525.65a5.6 5.6 0 1 0 7.41 8.4 5.6 5.6 0 1 0-7.41-8.4zM457.8 537.65a5.6 5.6 0 1 0 7.42 8.39 5.6 5.6 0 1 0-7.42-8.39zM392.84 488.29a5.6 5.6 0 1 0 7.42 8.39 5.6 5.6 0 1 0-7.42-8.39zM403.44 500.28a5.6 5.6 0 1 0 7.41 8.39 5.6 5.6 0 1 0-7.41-8.39zM414.03 512.27a5.6 5.6 0 1 0 7.42 8.39 5.6 5.6 0 1 0-7.42-8.39zM424.63 524.26a5.6 5.6 0 1 0 7.41 8.39 5.6 5.6 0 1 0-7.41-8.39zM359.67 474.9a5.6 5.6 0 1 0 7.41 8.39 5.6 5.6 0 1 0-7.41-8.39zM370.26 486.89a5.6 5.6 0 1 0 7.42 8.39 5.6 5.6 0 1 0-7.42-8.39zM380.85 498.88a5.6 5.6 0 1 0 7.42 8.39 5.6 5.6 0 1 0-7.42-8.39zM391.45 510.87a5.6 5.6 0 1 0 7.41 8.39 5.6 5.6 0 1 0-7.41-8.39z" stroke="#d3b714" stroke-width="2.5" stroke-dasharray="3, 3"></path><circle r="87.81304901765182" cx="979.94" cy="431.33" fill="#037b0b"></circle><circle r="46.666666666666664" cx="278.38" cy="19.74" fill="#e73635"></circle><rect width="107.24000000000001" height="107.24000000000001" clip-path="url(&quot;#SvgjsClipPath3277&quot;)" x="526.65" y="466.28" fill="url(#SvgjsPattern3278)" transform="rotate(62.45, 580.27, 519.9)"></rect><path d="M1067.91 233.22L1065.18 220.71 1076.79 215.3 1074.07 202.79 1085.67 197.38 1082.95 184.87 1094.56 179.46M1075.08 236.77L1072.35 224.26 1083.96 218.85 1081.23 206.34 1092.84 200.93 1090.12 188.42 1101.73 183.02" stroke="#037b0b" stroke-width="2.29" stroke-dasharray="2, 2"></path></g><defs><mask id="SvgjsMask3272"><rect width="1440" height="560" fill="#ffffff"></rect></mask><pattern x="0" y="0" width="10.2" height="10.2" patternUnits="userSpaceOnUse" id="SvgjsPattern3274"><path d="M5.1 1L5.1 9.2M1 5.1L9.2 5.1" stroke="#d3b714" fill="none" stroke-width="3.25"></path></pattern><clipPath id="SvgjsClipPath3273"><circle r="61.2" cx="555.73" cy="156.57"></circle></clipPath><pattern x="0" y="0" width="168" height="6" patternUnits="userSpaceOnUse" id="SvgjsPattern3276"><rect width="168" height="3" x="0" y="0" fill="#d3b714"></rect><rect width="168" height="3" x="0" y="3" fill="rgba(0, 0, 0, 0)"></rect></pattern><clipPath id="SvgjsClipPath3275"><circle r="42" cx="247.12" cy="377.21"></circle></clipPath><pattern x="0" y="0" width="7.66" height="7.66" patternUnits="userSpaceOnUse" id="SvgjsPattern3278"><path d="M0 7.66L3.83 0L7.66 7.66" stroke="#e73635" fill="none"></path></pattern><clipPath id="SvgjsClipPath3277"><circle r="26.810000000000002" cx="580.27" cy="519.9"></circle></clipPath></defs></svg>