<svg xmlns="http://www.w3.org/2000/svg" version="1.1" xmlns:xlink="http://www.w3.org/1999/xlink" xmlns:svgjs="http://svgjs.com/svgjs" width="1440" height="560" preserveAspectRatio="none" viewBox="0 0 1440 560"><g mask="url(&quot;#SvgjsMask1000&quot;)" fill="none"><rect width="1440" height="560" x="0" y="0" fill="#0e2a47"></rect><path d="M338.94 56.95L391.08 56.95L391.08 75.5L338.94 75.5z" stroke="#d3b714"></path><path d="M1004.19 198.96L1004.79 198.96L1004.79 199.56L1004.19 199.56z" fill="#037b0b"></path><path d="M143.12 76.89a14.01 14.01 0 1 0-24.4-13.77z" stroke="#e73635"></path><path d="M300.26 486.22L335.62 486.22L335.62 521.58L300.26 521.58z" stroke="#e73635"></path><path d="M900.99 512.23L916.76 512.23L916.76 543.94L900.99 543.94z" stroke="#037b0b"></path><path d="M749.66 23.12L784.08 23.12L784.08 57.54L749.66 57.54z" stroke="#037b0b"></path><path d="M570.73 240.27L605.68 240.27L605.68 275.22L570.73 275.22z" stroke="#037b0b"></path><path d="M120.11-41.49a43.82 43.82 0 1 0-25.6 83.82z" stroke="#e73635"></path><path d="M960 41.37 a40.71 40.71 0 1 0 81.42 0 a40.71 40.71 0 1 0 -81.42 0z" fill="#d3b714"></path><path d="M622.99 351.18 a18.22 18.22 0 1 0 36.44 0 a18.22 18.22 0 1 0 -36.44 0z" stroke="#037b0b"></path><path d="M972.34 22.51 a26.29 26.29 0 1 0 52.58 0 a26.29 26.29 0 1 0 -52.58 0z" fill="#e73635"></path><path d="M1304.41 296.39L1336.58 296.39L1336.58 328.56L1304.41 328.56z" fill="#e73635"></path><path d="M984.94 489.82 a8.11 8.11 0 1 0 16.22 0 a8.11 8.11 0 1 0 -16.22 0z" stroke="#d3b714"></path><path d="M508.77 365.59 a50.33 50.33 0 1 0 100.66 0 a50.33 50.33 0 1 0 -100.66 0z" stroke="#037b0b"></path><path d="M1147.82 250.15 a53.69 53.69 0 1 0 107.38 0 a53.69 53.69 0 1 0 -107.38 0z" fill="#e73635"></path><path d="M499.15 183.99a39.71 39.71 0 1 0 44.12-66.04z" stroke="#d3b714"></path><path d="M342.45 456.75a51.79 51.79 0 1 0 29.64 99.25z" stroke="#e73635"></path><path d="M1362.11 198.55 a29.25 29.25 0 1 0 58.5 0 a29.25 29.25 0 1 0 -58.5 0z" stroke="#e73635"></path><path d="M1234.92 461.11L1277.02 461.11L1277.02 487.32L1234.92 487.32z" fill="#e73635"></path><path d="M1179.48 278.72L1194.83 278.72L1194.83 294.07L1179.48 294.07z" stroke="#d3b714"></path><path d="M917.06 177.02L933 177.02L933 192.96L917.06 192.96z" stroke="#e73635"></path><path d="M788.26 329.53L833.88 329.53L833.88 375.15L788.26 375.15z" stroke="#d3b714"></path><path d="M714.83 331.61L766.19 331.61L766.19 381.01L714.83 381.01z" stroke="#037b0b"></path><path d="M761.71 334.41L790.1 334.41L790.1 351.91L761.71 351.91z" stroke="#e73635"></path><path d="M706.91 313.33L739.78 313.33L739.78 366.4L706.91 366.4z" stroke="#d3b714"></path><path d="M1386.57 25.35L1432.8 25.35L1432.8 71.58L1386.57 71.58z" fill="#d3b714"></path><path d="M715.78 167.79a37.36 37.36 0 1 0-73.68-12.42z" fill="#037b0b"></path><path d="M1149.98 102.92L1199.61 102.92L1199.61 152.55L1149.98 152.55z" fill="#e73635"></path><path d="M516.53 352.18a26.3 26.3 0 1 0-49.72 17.18z" fill="#e73635"></path><path d="M589.66 294.17 a43.09 43.09 0 1 0 86.18 0 a43.09 43.09 0 1 0 -86.18 0z" fill="#e73635"></path><path d="M1047.17 462.44a47.33 47.33 0 1 0 73.36 59.82z" fill="#037b0b"></path><path d="M65.65 49.22L111.25 49.22L111.25 94.82L65.65 94.82z" stroke="#037b0b"></path><path d="M1218.34 458.32 a18.43 18.43 0 1 0 36.86 0 a18.43 18.43 0 1 0 -36.86 0z" fill="#037b0b"></path></g><defs><mask id="SvgjsMask1000"><rect width="1440" height="560" fill="#ffffff"></rect></mask></defs></svg>