<svg xmlns="http://www.w3.org/2000/svg" version="1.1" xmlns:xlink="http://www.w3.org/1999/xlink" xmlns:svgjs="http://svgjs.com/svgjs" width="1440" height="560" preserveAspectRatio="none" viewBox="0 0 1440 560"><g mask="url(&quot;#SvgjsMask1002&quot;)" fill="none"><rect width="1440" height="560" x="0" y="0" fill="url(#SvgjsLinearGradient1003)"></rect><path d="M1440 0L1356.9 0L1440 102.16z" fill="rgba(255, 255, 255, .1)"></path><path d="M1356.9 0L1440 102.16L1440 177.75L1129.5500000000002 0z" fill="rgba(255, 255, 255, .075)"></path><path d="M1129.55 0L1440 177.75L1440 179.7L872.79 0z" fill="rgba(255, 255, 255, .05)"></path><path d="M872.79 0L1440 179.7L1440 346.19L373.59 0z" fill="rgba(255, 255, 255, .025)"></path><path d="M0 560L651.01 560L0 343.97z" fill="rgba(0, 0, 0, .1)"></path><path d="M0 343.97L651.01 560L681.46 560L0 165.67000000000002z" fill="rgba(0, 0, 0, .075)"></path><path d="M0 165.66999999999996L681.46 560L873.19 560L0 149.83999999999995z" fill="rgba(0, 0, 0, .05)"></path><path d="M0 149.83999999999997L873.19 560L938.32 560L0 68.07999999999997z" fill="rgba(0, 0, 0, .025)"></path></g><defs><mask id="SvgjsMask1002"><rect width="1440" height="560" fill="#ffffff"></rect></mask><linearGradient x1="50%" y1="100%" x2="50%" y2="0%" gradientUnits="userSpaceOnUse" id="SvgjsLinearGradient1003"><stop stop-color="#0e4721" offset="0"></stop><stop stop-color="#0052bc" offset="1"></stop></linearGradient></defs></svg>