<svg xmlns="http://www.w3.org/2000/svg" version="1.1" xmlns:xlink="http://www.w3.org/1999/xlink" xmlns:svgjs="http://svgjs.com/svgjs" width="1440" height="560" preserveAspectRatio="none" viewBox="0 0 1440 560"><g mask="url(&quot;#SvgjsMask1000&quot;)" fill="none"><rect width="1440" height="560" x="0" y="0" fill="#0e2a47"></rect><path d="M698 507L697 694" stroke-width="8" stroke="url(#SvgjsLinearGradient1001)" stroke-linecap="round" class="Up"></path><path d="M224 136L223 -230" stroke-width="6" stroke="url(#SvgjsLinearGradient1001)" stroke-linecap="round" class="Up"></path><path d="M983 210L982 611" stroke-width="10" stroke="url(#SvgjsLinearGradient1001)" stroke-linecap="round" class="Up"></path><path d="M487 5L486 -198" stroke-width="10" stroke="url(#SvgjsLinearGradient1002)" stroke-linecap="round" class="Down"></path><path d="M990 58L989 389" stroke-width="6" stroke="url(#SvgjsLinearGradient1001)" stroke-linecap="round" class="Up"></path><path d="M951 318L950 139" stroke-width="8" stroke="url(#SvgjsLinearGradient1001)" stroke-linecap="round" class="Up"></path><path d="M887 417L886 775" stroke-width="10" stroke="url(#SvgjsLinearGradient1002)" stroke-linecap="round" class="Down"></path><path d="M385 321L384 478" stroke-width="8" stroke="url(#SvgjsLinearGradient1002)" stroke-linecap="round" class="Down"></path><path d="M81 490L80 74" stroke-width="8" stroke="url(#SvgjsLinearGradient1001)" stroke-linecap="round" class="Up"></path><path d="M243 3L242 -405" stroke-width="10" stroke="url(#SvgjsLinearGradient1002)" stroke-linecap="round" class="Down"></path><path d="M1341 240L1340 404" stroke-width="8" stroke="url(#SvgjsLinearGradient1001)" stroke-linecap="round" class="Up"></path><path d="M132 523L131 941" stroke-width="10" stroke="url(#SvgjsLinearGradient1001)" stroke-linecap="round" class="Up"></path><path d="M848 508L847 313" stroke-width="8" stroke="url(#SvgjsLinearGradient1002)" stroke-linecap="round" class="Down"></path><path d="M1052 548L1051 252" stroke-width="8" stroke="url(#SvgjsLinearGradient1002)" stroke-linecap="round" class="Down"></path><path d="M206 29L205 -127" stroke-width="8" stroke="url(#SvgjsLinearGradient1001)" stroke-linecap="round" class="Up"></path><path d="M1140 409L1139 705" stroke-width="8" stroke="url(#SvgjsLinearGradient1002)" stroke-linecap="round" class="Down"></path><path d="M854 195L853 -211" stroke-width="10" stroke="url(#SvgjsLinearGradient1002)" stroke-linecap="round" class="Down"></path><path d="M1209 133L1208 309" stroke-width="6" stroke="url(#SvgjsLinearGradient1001)" stroke-linecap="round" class="Up"></path><path d="M1369 380L1368 100" stroke-width="8" stroke="url(#SvgjsLinearGradient1001)" stroke-linecap="round" class="Up"></path><path d="M1428 432L1427 145" stroke-width="10" stroke="url(#SvgjsLinearGradient1002)" stroke-linecap="round" class="Down"></path><path d="M1354 152L1353 -61" stroke-width="6" stroke="url(#SvgjsLinearGradient1002)" stroke-linecap="round" class="Down"></path><path d="M239 121L238 348" stroke-width="10" stroke="url(#SvgjsLinearGradient1002)" stroke-linecap="round" class="Down"></path><path d="M1329 386L1328 203" stroke-width="10" stroke="url(#SvgjsLinearGradient1002)" stroke-linecap="round" class="Down"></path><path d="M1014 323L1013 520" stroke-width="8" stroke="url(#SvgjsLinearGradient1001)" stroke-linecap="round" class="Up"></path><path d="M76 534L75 161" stroke-width="10" stroke="url(#SvgjsLinearGradient1001)" stroke-linecap="round" class="Up"></path><path d="M1054 107L1053 -35" stroke-width="6" stroke="url(#SvgjsLinearGradient1001)" stroke-linecap="round" class="Up"></path><path d="M303 239L302 561" stroke-width="6" stroke="url(#SvgjsLinearGradient1002)" stroke-linecap="round" class="Down"></path><path d="M104 96L103 403" stroke-width="6" stroke="url(#SvgjsLinearGradient1001)" stroke-linecap="round" class="Up"></path><path d="M983 351L982 188" stroke-width="8" stroke="url(#SvgjsLinearGradient1001)" stroke-linecap="round" class="Up"></path><path d="M1206 419L1205 584" stroke-width="8" stroke="url(#SvgjsLinearGradient1002)" stroke-linecap="round" class="Down"></path><path d="M163 106L162 484" stroke-width="8" stroke="url(#SvgjsLinearGradient1002)" stroke-linecap="round" class="Down"></path><path d="M404 10L403 -150" stroke-width="6" stroke="url(#SvgjsLinearGradient1001)" stroke-linecap="round" class="Up"></path><path d="M1261 266L1260 41" stroke-width="10" stroke="url(#SvgjsLinearGradient1002)" stroke-linecap="round" class="Down"></path><path d="M840 389L839 529" stroke-width="10" stroke="url(#SvgjsLinearGradient1002)" stroke-linecap="round" class="Down"></path><path d="M308 261L307 450" stroke-width="10" stroke="url(#SvgjsLinearGradient1002)" stroke-linecap="round" class="Down"></path><path d="M998 29L997 -220" stroke-width="8" stroke="url(#SvgjsLinearGradient1001)" stroke-linecap="round" class="Up"></path></g><defs><mask id="SvgjsMask1000"><rect width="1440" height="560" fill="#ffffff"></rect></mask><linearGradient x1="0%" y1="100%" x2="0%" y2="0%" id="SvgjsLinearGradient1001"><stop stop-color="rgba(28, 83, 142, 0)" offset="0"></stop><stop stop-color="#1c538e" offset="1"></stop></linearGradient><linearGradient x1="0%" y1="0%" x2="0%" y2="100%" id="SvgjsLinearGradient1002"><stop stop-color="rgba(28, 83, 142, 0)" offset="0"></stop><stop stop-color="#1c538e" offset="1"></stop></linearGradient></defs></svg>