<svg xmlns="http://www.w3.org/2000/svg" version="1.1" xmlns:xlink="http://www.w3.org/1999/xlink" xmlns:svgjs="http://svgjs.com/svgjs" width="1920" height="1280" preserveAspectRatio="none" viewBox="0 0 1920 1280"><g mask="url(&quot;#SvgjsMask1030&quot;)" fill="none"><rect width="1920" height="1280" x="0" y="0" fill="#0e2a47"></rect><path d="M17 1280L1297 0L2014 0L734 1280z" fill="url(#SvgjsLinearGradient1031)"></path><path d="M701.6 1280L1981.6 0L2782.6 0L1502.6 1280z" fill="url(#SvgjsLinearGradient1031)"></path><path d="M1901 1280L621 0L-246 0L1034 1280z" fill="url(#SvgjsLinearGradient1032)"></path><path d="M1217.4 1280L-62.59999999999991 0L-674.5999999999999 0L605.4000000000001 1280z" fill="url(#SvgjsLinearGradient1032)"></path><path d="M823.9097860745446 1280L1920 183.90978607454463L1920 1280z" fill="url(#SvgjsLinearGradient1031)"></path><path d="M0 1280L1096.0902139254554 1280L 0 183.90978607454463z" fill="url(#SvgjsLinearGradient1032)"></path></g><defs><mask id="SvgjsMask1030"><rect width="1920" height="1280" fill="#ffffff"></rect></mask><linearGradient x1="0%" y1="100%" x2="100%" y2="0%" id="SvgjsLinearGradient1031"><stop stop-color="rgba(15, 70, 185, 0.2)" offset="0"></stop><stop stop-opacity="0" stop-color="rgba(15, 70, 185, 0.2)" offset="0.66"></stop></linearGradient><linearGradient x1="100%" y1="100%" x2="0%" y2="0%" id="SvgjsLinearGradient1032"><stop stop-color="rgba(15, 70, 185, 0.2)" offset="0"></stop><stop stop-opacity="0" stop-color="rgba(15, 70, 185, 0.2)" offset="0.66"></stop></linearGradient></defs></svg>