<svg xmlns="http://www.w3.org/2000/svg" version="1.1" xmlns:xlink="http://www.w3.org/1999/xlink" xmlns:svgjs="http://svgjs.com/svgjs" width="1920" height="1280" preserveAspectRatio="none" viewBox="0 0 1920 1280"><g mask="url(&quot;#SvgjsMask1013&quot;)" fill="none"><rect width="1920" height="1280" x="0" y="0" fill="#0e2a47"></rect><path d="M0,616.835C137.513,625.598,278.55,685.091,404.793,629.87C537.181,571.962,613.413,437.664,689.895,315.065C776.125,176.841,921.361,30.573,876.337,-125.998C830.158,-286.585,619.432,-324,479.752,-415.708C379.605,-481.46,285.932,-549.008,172.654,-588.006C54.58,-628.655,-65.103,-653.894,-189.74,-646.195C-340.961,-636.854,-522.56,-653.275,-621.948,-538.921C-721.325,-424.58,-659.431,-247.284,-667.903,-96.03C-675.546,40.414,-723.883,180.374,-669.254,305.638C-614.303,431.64,-497.59,522.352,-372.943,580.311C-257.339,634.066,-127.233,608.727,0,616.835" fill="#0b2036"></path><path d="M1920 2041.9070000000002C2072.214 2032.19 2237.016 2055.209 2362.176 1968.04 2486.0879999999997 1881.74 2537.305 1726.368 2580.719 1581.74 2619.805 1451.53 2631.494 1314.275 2597.9700000000003 1182.523 2566.5389999999998 1058.994 2465.373 973.903 2398.454 865.4169999999999 2315.692 731.246 2291.177 553.73 2158.037 469.32000000000005 2013.744 377.83900000000006 1819.244 333.50199999999995 1660.981 397.86199999999997 1504.0149999999999 461.69500000000005 1447.591 649.519 1359.292 794.143 1285.234 915.442 1203.155 1033.405 1186.7640000000001 1174.577 1170.629 1313.544 1228.482 1443.502 1268.325 1577.6100000000001 1314.929 1734.474 1306.7150000000001 1931.958 1439.989 2026.911 1573.06 2121.7200000000003 1756.941 2052.316 1920 2041.9070000000002" fill="#113458"></path></g><defs><mask id="SvgjsMask1013"><rect width="1920" height="1280" fill="#ffffff"></rect></mask></defs></svg>