<svg version="1.1" xmlns="http://www.w3.org/2000/svg" xmlns:xlink="http://www.w3.org/1999/xlink" width="156.79579" height="298.34376" viewBox="0,0,156.79579,298.34376"><defs><linearGradient x1="289.5544" y1="138.7542" x2="388.94204" y2="138.7542" gradientUnits="userSpaceOnUse" id="color-1"><stop offset="0" stop-color="#385696" stop-opacity="0.2549"/><stop offset="1" stop-color="#c4ff5e"/></linearGradient><linearGradient x1="288.75585" y1="220.43697" x2="388.14348" y2="220.43697" gradientUnits="userSpaceOnUse" id="color-2"><stop offset="0" stop-color="#385696" stop-opacity="0.2549"/><stop offset="1" stop-color="#c4ff5e"/></linearGradient><linearGradient x1="282.15471" y1="109.92712" x2="381.54235" y2="109.92712" gradientUnits="userSpaceOnUse" id="color-3"><stop offset="0" stop-color="#385696" stop-opacity="0.2549"/><stop offset="1" stop-color="#c4ff5e"/></linearGradient><linearGradient x1="282.33405" y1="245.98455" x2="381.72168" y2="245.98455" gradientUnits="userSpaceOnUse" id="color-4"><stop offset="0" stop-color="#385696" stop-opacity="0.2549"/><stop offset="1" stop-color="#c4ff5e"/></linearGradient><linearGradient x1="246.57241" y1="57.72077" x2="301.46623" y2="57.72077" gradientUnits="userSpaceOnUse" id="color-5"><stop offset="0" stop-color="#385696" stop-opacity="0.2549"/><stop offset="1" stop-color="#c4ff5e"/></linearGradient><linearGradient x1="246.68299" y1="298.88031" x2="303.53258" y2="298.88031" gradientUnits="userSpaceOnUse" id="color-6"><stop offset="0" stop-color="#385696" stop-opacity="0.2549"/><stop offset="1" stop-color="#c4ff5e"/></linearGradient><linearGradient x1="239.56885" y1="34.54281" x2="248.36983" y2="34.54281" gradientUnits="userSpaceOnUse" id="color-7"><stop offset="0" stop-color="#385696" stop-opacity="0.2549"/><stop offset="1" stop-color="#c4ff5e"/></linearGradient><linearGradient x1="236.14625" y1="321.7969" x2="245.43617" y2="321.7969" gradientUnits="userSpaceOnUse" id="color-8"><stop offset="0" stop-color="#385696" stop-opacity="0.2549"/><stop offset="1" stop-color="#c4ff5e"/></linearGradient></defs><g transform="translate(-234.14625,-29.12021)"><g data-paper-data="{&quot;isPaintingLayer&quot;:true}" fill-rule="nonzero" stroke="#fbff38" stroke-width="4" stroke-linecap="butt" stroke-linejoin="miter" stroke-miterlimit="10" stroke-dasharray="" stroke-dashoffset="0" style="mix-blend-mode: normal"><path d="M289.5544,138.19945c0,-3.60129 2.31483,-10.54021 6.21173,-10.54021c18.32233,0 71.61875,0 83.72328,0c4.75892,0 9.45263,6.05003 9.45263,9.43072c0,3.93228 -3.46054,12.7592 -6.75188,12.7592c-10.68089,0 -68.49954,0 -86.96418,0c-3.57228,0 -5.67158,-7.86362 -5.67158,-11.6497z" fill="url(#color-1)"/><path d="M288.75585,219.88222c0,-3.60129 2.31483,-10.54021 6.21173,-10.54021c18.32233,0 71.61875,0 83.72328,0c4.75892,0 9.45262,6.05002 9.45262,9.43071c0,3.93228 -3.46054,12.7592 -6.75187,12.7592c-10.68089,0 -68.49954,0 -86.96418,0c-3.57228,0 -5.67157,-7.86361 -5.67157,-11.6497z" fill="url(#color-2)"/><path d="M282.15471,109.50688c0,-2.72815 2.31483,-7.9847 6.21173,-7.9847c18.32233,0 71.61875,0 83.72328,0c4.75892,0 9.45263,4.58318 9.45263,7.1442c0,2.97888 -3.46054,9.66568 -6.75188,9.66568c-10.68089,0 -68.49954,0 -86.96418,0c-3.57228,0 -5.67158,-5.95706 -5.67158,-8.82519z" fill="url(#color-3)"/><path d="M282.33405,245.59596c0,-2.5227 2.31483,-7.3834 6.21173,-7.3834c18.32233,0 71.61875,0 83.72328,0c4.75892,0 9.45262,4.23803 9.45262,6.6062c0,2.75456 -3.46054,8.93778 -6.75187,8.93778c-10.68089,0 -68.49954,0 -86.96418,0c-3.57228,0 -5.67157,-5.50843 -5.67157,-8.16058z" fill="url(#color-4)"/><path d="M246.57242,57.1294c0,-3.83909 0.95967,-11.23617 2.57521,-11.23617c3.3579,0 10.03821,13.20146 16.33521,13.20146c7.94752,0 15.57434,-13.20146 18.37418,-13.20146c1.97292,0 17.60921,8.89423 17.60921,12.49813c0,4.19192 -15.12506,11.15695 -16.48956,11.15695c-4.42801,0 -28.39804,0 -36.05298,0c-1.48097,0 -2.35128,-8.38285 -2.35128,-12.41892z" fill="url(#color-5)"/><path d="M246.68299,298.28894c0,-3.83909 0.95966,-11.23618 2.57521,-11.23618c7.59594,0 29.69118,0 34.70939,0c1.97292,0 19.56499,5.96057 19.56499,9.56447c0,4.19192 -17.08083,14.09062 -18.44533,14.09062c-2.34364,0 -10.6506,-9.28992 -18.62652,-9.28992c-7.09357,0 -13.82309,9.28992 -17.42646,9.28992c-1.48097,0 -2.35128,-8.38286 -2.35128,-12.41893z" fill="url(#color-6)"/><path d="M239.56885,37.96541v-6.8452h8.80098v6.8452z" fill="url(#color-7)"/><path d="M236.14625,325.46397v-7.33415h9.28992v7.33415z" fill="url(#color-8)"/></g></g></svg>