<svg version="1.1" xmlns="http://www.w3.org/2000/svg" xmlns:xlink="http://www.w3.org/1999/xlink" width="114.23204" height="178.07324" viewBox="0,0,114.23204,178.07324"><defs><linearGradient x1="347.99911" y1="168.4973" x2="447.38675" y2="168.4973" gradientUnits="userSpaceOnUse" id="color-1"><stop offset="0" stop-color="#bfff80"/><stop offset="1" stop-color="#000000"/></linearGradient><linearGradient x1="347.20056" y1="254.79298" x2="446.58819" y2="254.79298" gradientUnits="userSpaceOnUse" id="color-2"><stop offset="0" stop-color="#bfff80"/><stop offset="1" stop-color="#000000"/></linearGradient><linearGradient x1="338.15471" y1="131.47772" x2="437.54235" y2="131.47772" gradientUnits="userSpaceOnUse" id="color-3"><stop offset="0" stop-color="#bfff80"/><stop offset="1" stop-color="#000000"/></linearGradient><linearGradient x1="338.33405" y1="288.60362" x2="437.72168" y2="288.60362" gradientUnits="userSpaceOnUse" id="color-4"><stop offset="0" stop-color="#bfff80"/><stop offset="1" stop-color="#000000"/></linearGradient></defs><g transform="translate(-335.65471,-121.15995)"><g data-paper-data="{&quot;isPaintingLayer&quot;:true}" fill-rule="nonzero" stroke="#fbff38" stroke-width="5" stroke-linecap="butt" stroke-linejoin="miter" stroke-miterlimit="10" stroke-dasharray="" stroke-dashoffset="0" style="mix-blend-mode: normal"><path d="M347.99911,168.0028c0,-3.21017 2.31483,-9.3955 6.21173,-9.3955c18.32233,0 71.61875,0 83.72328,0c4.75892,0 9.45263,5.39298 9.45263,8.40651c0,3.50522 -3.46054,11.37349 -6.75188,11.37349c-10.68089,0 -68.49954,0 -86.96418,0c-3.57228,0 -5.67158,-7.0096 -5.67158,-10.3845z" fill="url(#color-1)"/><path d="M347.20056,254.26437c0,-3.43159 2.31483,-10.04353 6.21173,-10.04353c18.32233,0 71.61875,0 83.72328,0c4.75892,0 9.45262,5.76493 9.45262,8.98631c0,3.74698 -3.46054,12.15794 -6.75187,12.15794c-10.68089,0 -68.49954,0 -86.96418,0c-3.57228,0 -5.67157,-7.49305 -5.67157,-11.10073z" fill="url(#color-2)"/><path d="M338.15471,131.08683c0,-2.53755 2.31483,-7.42688 6.21173,-7.42688c18.32233,0 71.61875,0 83.72328,0c4.75892,0 9.45263,4.26299 9.45263,6.64509c0,2.77077 -3.46054,8.99041 -6.75188,8.99041c-10.68089,0 -68.49954,0 -86.96418,0c-3.57228,0 -5.67158,-5.54089 -5.67158,-8.20864z" fill="url(#color-3)"/><path d="M338.33405,288.19715c0,-2.63877 2.31483,-7.72311 6.21173,-7.72311c18.32233,0 71.61875,0 83.72328,0c4.75892,0 9.45262,4.43302 9.45262,6.91015c0,2.8813 -3.46054,9.349 -6.75187,9.349c-10.68089,0 -68.49954,0 -86.96418,0c-3.57228,0 -5.67157,-5.76188 -5.67157,-8.53605z" fill="url(#color-4)"/></g></g></svg>