<svg version="1.1" xmlns="http://www.w3.org/2000/svg" xmlns:xlink="http://www.w3.org/1999/xlink" width="101.24889" height="64.81692" viewBox="0,0,101.24889,64.81692"><defs><linearGradient x1="272.40307" y1="170.26618" x2="289.62444" y2="170.26618" gradientUnits="userSpaceOnUse" id="color-1"><stop offset="0" stop-color="#000000"/><stop offset="1" stop-color="#ffffff"/></linearGradient><linearGradient x1="272.16179" y1="190.39104" x2="289.38316" y2="190.39104" gradientUnits="userSpaceOnUse" id="color-2"><stop offset="0" stop-color="#000000"/><stop offset="1" stop-color="#ffffff"/></linearGradient><linearGradient x1="263.23494" y1="195.39105" x2="280.45631" y2="195.39105" gradientUnits="userSpaceOnUse" id="color-3"><stop offset="0" stop-color="#000000"/><stop offset="1" stop-color="#ffffff"/></linearGradient><linearGradient x1="264.22498" y1="165.23287" x2="281.44635" y2="165.23287" gradientUnits="userSpaceOnUse" id="color-4"><stop offset="0" stop-color="#000000"/><stop offset="1" stop-color="#ffffff"/></linearGradient></defs><g transform="translate(-189.37555,-147.59154)"><g data-paper-data="{&quot;isPaintingLayer&quot;:true}" fill-rule="nonzero" stroke-linecap="butt" stroke-linejoin="miter" stroke-miterlimit="10" stroke-dasharray="" stroke-dashoffset="0" style="mix-blend-mode: normal"><path d="M240.75678,149.45079l46.23759,30.54921l-46.23759,30.54921z" fill="#ff6666" stroke="#000000" stroke-width="2"/><path d="M231.75677,163.76241l42.23759,16.23759l-42.23759,16.23759z" fill="#ffffc4" stroke="#000000" stroke-width="2"/><path d="M226.37556,187c0,2.5 -2.5,2.5 -2.5,2.5l-0.20943,-0.12829c-3.42473,1.14158 -6.11664,1.69465 -9.63352,2.13476c-1.65635,0.20728 -3.24572,1.10087 -4.9107,0.98137c-0.0824,-0.00591 -0.16451,-0.01338 -0.24634,-0.0223v0.03447h-3c-1.38071,0 -2.5,-1.11929 -2.5,-2.5c0,-0.86124 0.43549,-1.62076 1.09828,-2.07037l2.49897,-1.74377l0.0359,0.05145l0.117,-0.15008c1.28707,-0.57508 2.80593,-0.79056 3.86121,-1.72525c0.00646,-0.00572 0.01277,-0.01153 0.01893,-0.01743c-0.95195,-0.35326 -1.63029,-1.26969 -1.63029,-2.34457c0,-0.69036 0.27982,-1.31536 0.73223,-1.76777l1.78399,-1.78399c0.44413,-0.91477 0.74343,-1.92865 1.21511,-2.82455c-1.08941,0.08999 -2.19088,0.06761 -3.18805,-0.31399c-3.46882,-1.32747 -7.94297,-8.5402 -4.81034,-12.07818c1.09096,-1.23213 3.23972,-0.64046 4.88306,-0.72861c4.08957,-0.21938 6.29886,0.3693 10.29499,1.03111c0,0 2.46598,0.411 2.05499,2.87698c-0.411,2.46598 -2.87698,2.05499 -2.87698,2.05499c-3.58497,-0.60152 -7.53008,-0.52021 -10.82195,-1.6975c-0.25277,-0.0904 0.45565,0.29932 0.62568,0.50705c0.90159,1.10146 1.18311,3.0694 2.56398,3.41476c2.95036,0.73791 6.53337,-2.38878 8.47641,2.73532c0.55529,1.46438 -1.65222,2.66282 -2.40502,4.03616c-0.26621,0.48566 -0.51866,0.97853 -0.765,1.47459c0.15195,0.32275 0.2369,0.68327 0.2369,1.06364c0,0.29691 -0.05176,0.58173 -0.14675,0.84593l-0.98155,2.94464c-0.13374,1.04838 -0.37069,2.05013 -0.7833,2.85802c0.33815,-0.02502 0.6732,-0.06136 1.0034,-0.11504c1.95168,-0.31731 3.74178,-1.27998 5.61762,-1.90526l1.79057,-0.12829c0,0 2.5,0 2.5,2.5z" fill="#ffffc4" stroke="none" stroke-width="0.5"/><path d="M219.12474,192.11772c-0.28897,0.66583 -0.91084,1.38228 -2.24918,1.38228c-2.5,0 -2.5,-2.5 -2.5,-2.5l1.3264,-1.85696c-0.87132,0.07322 -1.74356,0.09491 -2.58121,-0.11205c-2.19371,-0.542 -4.83983,-0.82242 -6.2733,-2.56921c-1.14732,-1.3981 -0.76061,-3.67447 -0.28159,-5.41848c0.78708,-2.86563 6.2268,-6.2483 8.90924,-6.51101c0.90373,-0.08851 1.72574,0.74474 2.63269,0.69995c0.28841,-0.01424 -0.03393,-0.68619 -0.29209,-0.81555c-0.53308,-0.26712 -1.18679,-0.12366 -1.77516,-0.22032c-1.56825,-0.25764 -3.13206,-0.54267 -4.69285,-0.84226c-1.88117,-0.36109 -4.07688,-0.02182 -5.6324,-1.13965c-0.2052,-0.14746 -0.39193,-0.31204 -0.56366,-0.49052l-0.04384,0.04384l-2,-2c-0.45241,-0.45241 -0.73223,-1.07741 -0.73223,-1.76777c0,-1.38071 1.11929,-2.5 2.5,-2.5c4.66667,0 12.33333,0 17,0c0,0 2.5,0 2.5,2.5c0,2.5 -2.5,2.5 -2.5,2.5c-0.32547,0 -0.65093,0 -0.9764,0c0.45194,0.262 0.81957,0.60537 1.03625,1.08331c3.95901,8.73276 -1.17072,7.06606 -5.6594,7.88441c-1.40996,0.25705 -2.58941,1.31738 -3.63269,2.30005c-0.60227,0.56729 -2.5077,1.46277 -1.73966,1.77046c1.57838,0.63232 8.75971,1.04002 9.16404,1.41396c6.05951,5.60393 2.41407,6.61143 -0.94297,7.16554z" fill="#ffebc4" stroke="none" stroke-width="0.5"/><path d="M220.37556,188c0,-0.2336 0.02183,-0.44537 0.0614,-0.63735c-2.10514,-0.40975 -5.15476,0.13622 -6.5614,0.13735c-5.4045,0.00435 -12.44002,1.12955 -17.54847,-1.06091c-0.01847,-0.00792 -0.03691,-0.01589 -0.05533,-0.0239l-0.00254,0.01016l-3.94927,-0.98732c-1.1133,-0.25265 -1.9444,-1.24829 -1.9444,-2.43804c0,-1.38071 1.11929,-2.5 2.5,-2.5h1.30003c-0.15336,-0.08007 -0.30163,-0.1718 -0.44399,-0.27708c-0.20704,-0.15312 -0.40106,-0.31874 -0.58407,-0.49489l-0.03974,0.03974l-3,-3c-0.45241,-0.45241 -0.73223,-1.07741 -0.73223,-1.76777c0,-1.07382 0.67702,-1.98952 1.6275,-2.34353c-0.39047,-0.44106 -0.6275,-1.02108 -0.6275,-1.65647c0,-1.38071 1.11929,-2.5 2.5,-2.5c7.66667,0 18.33333,0 26,0c0,0 2.5,0 2.5,2.5c0,2.5 -2.5,2.5 -2.5,2.5c-3.66661,0 -7.33321,0 -10.99982,0c-0.20288,0.2701 -0.45919,0.49776 -0.75323,0.66731l-4.24817,2.5489l-0.02881,-0.04802c-0.11726,0.07291 -0.23652,0.14303 -0.35794,0.2101l2.70699,0.62921c1.1327,0.23811 1.98312,1.24299 1.98312,2.4465c0,0.29139 -0.04985,0.57113 -0.14149,0.83117c0.68863,0.36161 1.18791,1.03496 1.3103,1.8325c3.58031,-0.14655 7.18079,-0.4823 10.70627,-0.11138c2.1157,0.22259 4.40465,0.17273 6.26869,1.19795c1.09013,0.59957 1.218,2.16978 1.827,3.25467l-4.27291,3.5411c0,0 -2.5,0 -2.5,-2.5z" fill="#ffc4ce" stroke="none" stroke-width="0.5"/><path d="M275.09859,171.76369l-2.69552,-2.24626l17.22137,-0.74876v2.99502z" fill="#000000" stroke="url(#color-1)" stroke-width="2"/><path d="M272.16179,190.84029l2.69552,-1.94676h14.52585v2.99502z" fill="#000000" stroke="url(#color-2)" stroke-width="2"/><path d="M263.23494,195.8403l2.69552,-1.94676h14.52585v2.99502z" fill="#000000" stroke="url(#color-3)" stroke-width="2"/><path d="M266.9205,166.73038l-2.69552,-2.24626l17.22137,-0.74876v2.99502z" fill="#000000" stroke="url(#color-4)" stroke-width="2"/></g></g></svg>