<svg version="1.1" xmlns="http://www.w3.org/2000/svg" xmlns:xlink="http://www.w3.org/1999/xlink" width="326.07143" height="85.04762" viewBox="0,0,326.07143,85.04762"><g transform="translate(-156.96428,-136.03185)"><g data-paper-data="{&quot;isPaintingLayer&quot;:true}" fill-rule="nonzero" stroke-linecap="butt" stroke-linejoin="miter" stroke-miterlimit="10" stroke-dasharray="" stroke-dashoffset="0" style="mix-blend-mode: normal"><path d="M157.21428,211.99613c0,-18.02184 0,-58.13789 0,-67.72222c0,-4.02693 3.98574,-7.99206 9.25397,-7.99206c27.40735,0 256.49625,0 306.64286,0c6.20891,0 9.6746,4.68606 9.6746,9.25397c0,9.74304 0,47.01523 0,65.19841c0,6.13369 -2.84257,10.09524 -7.99206,10.09524c-46.83265,0 -284.47588,0 -310.00794,0c-4.37287,0 -7.57143,-3.41989 -7.57143,-8.83333z" fill-opacity="0.80784" fill="#ff4141" stroke="#000000" stroke-width="0.5"/><text transform="translate(180.944,165.07573) scale(0.43118,0.43118)" font-size="40" xml:space="preserve" fill="#000000" fill-rule="nonzero" stroke="none" stroke-width="1" stroke-linecap="butt" stroke-linejoin="miter" stroke-miterlimit="10" stroke-dasharray="" stroke-dashoffset="0" font-family="Pixel" font-weight="normal" text-anchor="start" style="mix-blend-mode: normal"><tspan x="0" dy="0">           Saito Gun Unlocked</tspan><tspan x="0" dy="46.150000000000006px"> </tspan><tspan x="0" dy="46.150000000000006px">Press right mouse to activate</tspan></text><text transform="translate(178.9447,163.87607) scale(0.43118,0.43118)" font-size="40" xml:space="preserve" fill="#f5f5f5" fill-rule="nonzero" stroke="none" stroke-width="1" stroke-linecap="butt" stroke-linejoin="miter" stroke-miterlimit="10" stroke-dasharray="" stroke-dashoffset="0" font-family="Pixel" font-weight="normal" text-anchor="start" style="mix-blend-mode: normal"><tspan x="0" dy="0">           Saito Gun Unlocked</tspan><tspan x="0" dy="46.150000000000006px"> </tspan><tspan x="0" dy="46.150000000000006px">Press right mouse to activate</tspan></text></g></g></svg>