<?xml version="1.0" encoding="UTF-8"?><svg xmlns="http://www.w3.org/2000/svg" viewBox="0 0 200 200"><defs><style>.b,.c{fill:#5c5f46;}.d{fill:#f26535;mix-blend-mode:multiply;}.d,.c,.e,.f,.g,.h,.i{fill-rule:evenodd;}.e{fill:#757760;}.f{fill:#83846e;}.g{fill:#0d73bb;}.h{fill:#b0b0a1;}.i{fill:#a1a08f;}.j{isolation:isolate;}</style></defs><g class="j"><g id="a"><g><polygon class="c" points="151.38 124.18 151.38 114.74 159.32 110.14 159.32 120.27 151.38 124.18"/><polygon class="f" points="141.76 108.45 116.58 95.34 129.19 80.8 154.33 93.91 141.76 108.45"/><polygon class="c" points="154.33 93.91 129.19 80.8 141.76 82.27 166.9 95.34 154.33 93.91"/><polygon class="i" points="116.58 95.34 141.76 108.45 141.76 137.98 116.58 124.87 116.58 95.34"/><path class="h" d="M141.76,137.98v-29.52l12.57-14.55,12.57,1.44v29.52l-25.14,13.11Zm9.63-13.79l7.94-3.91v-10.13l-7.94,4.6v9.45Z"/><polygon class="i" points="44.1 57.6 82.11 77.41 82.11 166.62 72.8 161.77 72.8 148.36 52.74 139.24 52.73 151.31 44.1 146.81 44.1 57.6"/><path class="h" d="M82.11,77.41l38.03-19.81v89.21l-38.03,19.81V77.41Zm-29.38,73.9v-12.07l20.07,9.12v13.41l-20.07-10.46Z"/><polygon class="e" points="80.97 81.18 33.72 53.46 80.97 0 80.97 81.18"/><polygon class="c" points="131.86 52.4 80.97 81.18 80.97 0 131.86 52.4"/><polygon class="d" points="80.97 0 33.72 53.46 80.97 81.18 131.86 52.4 80.97 0"/><path class="b" d="M81.51,123.17l-38.01-19.81h0c-.64-.33-.88-1.12-.55-1.75h0c.33-.64,1.12-.88,1.75-.55h0l37.41,19.5,37.43-19.5c.64-.33,1.42-.08,1.75,.55h0c.33,.64,.08,1.42-.55,1.75h0l-38.03,19.81c-.19,.1-.4,.15-.6,.15h0c-.21,0-.41-.05-.6-.15h0Z"/><path class="b" d="M81.51,101.46l-38.01-19.81c-.64-.33-.88-1.12-.55-1.75h0c.33-.64,1.12-.89,1.75-.55h0l37.41,19.49,37.43-19.49c.64-.33,1.42-.08,1.75,.55h0c.33,.64,.08,1.42-.55,1.75h0l-38.03,19.81c-.19,.1-.4,.15-.6,.15h0c-.21,0-.41-.05-.6-.15h0Z"/><path class="b" d="M81.51,144.87l-38.01-19.81c-.64-.33-.88-1.12-.55-1.75h0c.33-.64,1.12-.88,1.75-.55h0l37.42,19.49,37.43-19.49c.64-.33,1.42-.08,1.75,.55h0c.33,.64,.08,1.42-.55,1.75h0l-38.03,19.81c-.19,.1-.4,.15-.6,.15h0c-.21,0-.41-.05-.6-.15h0Z"/><polygon class="c" points="134.46 171.79 134.46 159.2 145.04 153.07 145.04 166.58 134.46 171.79"/><polygon class="f" points="121.63 150.82 88.07 133.35 104.87 113.96 138.38 131.43 121.63 150.82"/><polygon class="c" points="138.38 131.43 104.87 113.96 121.63 115.92 155.14 133.35 138.38 131.43"/><polygon class="i" points="88.07 133.35 121.63 150.82 121.63 190.18 88.07 172.7 88.07 133.35"/><path class="h" d="M121.63,190.18v-39.36l16.76-19.39,16.76,1.91v39.36l-33.51,17.47Zm12.83-18.38l10.58-5.22v-13.5l-10.58,6.13v12.59Z"/><polygon class="g" points="89.36 143.04 89.36 143.05 89.2 143.13 89.36 143.04"/><path class="c" d="M118.95,184.37l-12.41,6.2v-13.64l12.41,7.44Zm-22.87,5.4l-18.39-9.95,1.6-.84,8.61-4.45,8.17,4.09v11.15Z"/><path class="c" d="M106.54,197.42v-6.85l12.41-6.2,2.68,5.2-15.09,7.85Zm-28.85-17.59l18.39,9.95v7.33l-23.29-12.14,4.9-5.14Z"/><path class="i" d="M62.66,150.09l34.39,17.98v11.04l4.52-2.23v23.07l-5.48-2.85v-18.48l-8.17-4.09-8.61-4.97-6.51-3.75v19.15l-5.6-2.93v-19.41l-4.53-2.55v-9.98Zm26.7-7.05v.02h0v-.02Z"/><path class="h" d="M106.54,190.57v6.85l-4.95,2.58-.03-.05v-23.07l-4.52,2.23v-11.04l24.58-12.81v10.9l-15.09,8.25v16.16Zm-27.24-11.58l-1.6,.84-4.9,5.14v-19.15l6.51,3.75v9.42Z"/><polygon class="c" points="97.05 168.07 89.36 143.05 89.36 143.05 89.36 143.04 62.66 150.09 87.24 137.29 104.42 135.21 104.44 135.21 121.63 155.26 97.05 168.07"/><polygon class="f" points="89.36 143.05 97.05 168.07 62.66 150.09 89.36 143.04 89.2 143.13 89.36 143.05"/></g></g></g></svg>