<svg xmlns="http://www.w3.org/2000/svg" viewBox="0 0 200 200" style="transform: scale(1.333);"><defs><style>.cls-1{isolation:isolate;}.cls-2{fill:#632800;}.cls-2,.cls-3,.cls-4,.cls-5,.cls-6{fill-rule:evenodd;}.cls-3{fill:#964B00;}.cls-4{fill:#aaa8;}.cls-5{fill:#9998;}.cls-6{fill:#efefef;mix-blend-mode:multiply;}</style></defs><g class="cls-1"><g id="Layer_1" data-name="Layer 1"><polygon class="cls-2" points="122.11 138.37 122.11 115.32 141.48 104.1 141.48 128.81 122.11 138.37"></polygon><polygon class="cls-3" points="98.63 99.98 37.2 67.99 67.95 32.5 129.3 64.49 98.63 99.98"></polygon><polygon class="cls-2" points="129.3 64.49 67.95 32.5 98.63 36.1 159.97 67.99 129.3 64.49"></polygon><polygon class="cls-4" points="37.2 67.99 98.63 99.98 98.63 172.02 37.2 140.03 37.2 67.99"></polygon><path class="cls-5" d="M98.63,172V100L129.3,64.49,160,68v72Zm23.48-33.65,19.37-9.55V104.1l-19.37,11.22Z"></path><polygon class="cls-6" points="98.63 36.1 67.95 32.5 37.2 67.99 37.2 140.03 98.63 172.02 159.97 140.03 159.97 67.99 98.63 36.1"></polygon></g></g></svg>