<?xml version="1.0" encoding="UTF-8" standalone="no"?>
<!-- Created with Inkscape (http://www.inkscape.org/) -->

<svg
   version="1.1"
   width="388"
   height="538"
   id="svg2"
   sodipodi:docname="TNRnTS-21.svg"
   inkscape:version="1.2.1 (9c6d41e410, 2022-07-14)"
   xmlns:inkscape="http://www.inkscape.org/namespaces/inkscape"
   xmlns:sodipodi="http://sodipodi.sourceforge.net/DTD/sodipodi-0.dtd"
   xmlns="http://www.w3.org/2000/svg"
   xmlns:svg="http://www.w3.org/2000/svg">
  <sodipodi:namedview
     id="namedview21"
     pagecolor="#505050"
     bordercolor="#eeeeee"
     borderopacity="1"
     inkscape:showpageshadow="0"
     inkscape:pageopacity="0"
     inkscape:pagecheckerboard="0"
     inkscape:deskcolor="#505050"
     showgrid="false"
     inkscape:zoom="1.5557621"
     inkscape:cx="151.37276"
     inkscape:cy="268.67861"
     inkscape:window-width="1920"
     inkscape:window-height="1017"
     inkscape:window-x="1358"
     inkscape:window-y="-8"
     inkscape:window-maximized="1"
     inkscape:current-layer="svg2" />
  <defs
     id="defs6" />
  <text
     x="193.31851"
     y="242.99136"
     transform="scale(0.96872418,1.0322856)"
     id="text4245"
     xml:space="preserve"
     style="font-style:normal;font-variant:normal;font-weight:bold;font-stretch:normal;font-size:28px;line-height:120%;font-family:Georgia;-inkscape-font-specification:'Georgia Bold';text-align:center;writing-mode:lr-tb;text-anchor:middle;fill:#000000;fill-opacity:1;stroke:none"><tspan
       x="193.31851"
       y="242.99136"
       id="tspan2907"
       style="font-style:normal;font-variant:normal;font-weight:bold;font-stretch:normal;font-size:28px;line-height:120%;font-family:Georgia;-inkscape-font-specification:'Georgia Bold';text-align:center;writing-mode:lr-tb;text-anchor:middle">НАТО*</tspan></text>
  <path
     d="m 141.91466,256.08649 87,0"
     id="path3794"
     style="font-size:29px;font-style:normal;font-variant:normal;font-weight:bold;font-stretch:normal;text-align:center;line-height:120.00000477%;writing-mode:lr-tb;text-anchor:middle;fill:none;stroke:#d82044;stroke-width:2;stroke-linecap:butt;stroke-linejoin:miter;stroke-miterlimit:4;stroke-opacity:1;stroke-dasharray:none;font-family:Georgia;-inkscape-font-specification:Georgia Bold" />
  <text
     x="193.80272"
     y="351.13858"
     id="text4249"
     xml:space="preserve"
     style="font-style:normal;font-variant:normal;font-weight:normal;font-stretch:normal;font-size:17.3333px;line-height:120%;font-family:Georgia;-inkscape-font-specification:Georgia;text-align:center;writing-mode:lr-tb;text-anchor:middle;fill:#000000;fill-opacity:1;stroke:none"><tspan
       sodipodi:role="line"
       id="tspan436"
       x="193.80272"
       y="351.13858"
       style="font-size:17.3333px">СССР больше не может предпринимать</tspan><tspan
       sodipodi:role="line"
       id="tspan438"
       x="193.80272"
       y="371.93854"
       style="font-size:17.3333px"> попытки переворота и снижения влияния</tspan><tspan
       sodipodi:role="line"
       x="193.8027"
       y="392.73849"
       id="tspan440"
       style="font-size:17.3333px"> в европейских странах под контролем США.</tspan></text>
  <text
     x="197.18669"
     y="413.56989"
     id="text3337"
     xml:space="preserve"
     style="font-style:normal;font-variant:normal;font-weight:normal;font-stretch:normal;font-size:16px;line-height:120%;font-family:Georgia;-inkscape-font-specification:Georgia;text-align:center;writing-mode:lr-tb;text-anchor:middle;fill:#000000;fill-opacity:1;stroke:none"><tspan
       sodipodi:role="line"
       id="tspan444"
       x="197.18669"
       y="413.56989"
       style="font-size:16px">Эти страны также не могут быть атакованы при</tspan><tspan
       sodipodi:role="line"
       x="197.18669"
       y="432.7699"
       id="tspan448"
       style="font-size:16px"> розыгрыше события «Опосредованная война».</tspan></text>
  <text
     x="194.91287"
     y="288.18094"
     id="text3174"
     xml:space="preserve"
     style="font-style:italic;font-variant:normal;font-weight:normal;font-stretch:normal;font-size:16px;line-height:120%;font-family:Georgia;-inkscape-font-specification:'Georgia Italic';text-align:center;writing-mode:lr-tb;text-anchor:middle;fill:#000000;fill-opacity:1;stroke:none"><tspan
       sodipodi:role="line"
       x="194.91287"
       y="288.18094"
       id="tspan420"
       style="font-size:16px">Событие можно разыграть, только если</tspan><tspan
       sodipodi:role="line"
       x="194.91287"
       y="307.38095"
       id="tspan430"
       style="font-size:16px"> уже было разыграно событие «Организация</tspan><tspan
       sodipodi:role="line"
       x="194.91287"
       y="326.58093"
       id="tspan434"
       style="font-size:16px"> Варшавского договора» или «План Маршалла».</tspan></text>
  <g
     transform="matrix(0.14847482,0,0,0.14843826,109.03822,100.99942)"
     id="g6019">
    <rect
       width="1024"
       height="768"
       x="19.819355"
       y="-6.6207066"
       id="rect6006"
       style="fill:#00247d;stroke:#000000;stroke-width:13.47195625;stroke-miterlimit:4;stroke-opacity:1;stroke-dasharray:none" />
    <path
       d="m 730.1,387.8 0,-8.6 217.6,0 0,8.6 -217.6,0 z m -652.8,0 0,-8.6 217.6,0 0,8.6 -217.6,0 z m 430.9,213.3 8.6,0 0,89.6 -8.6,0 0,-89.6 z m 0,-524.8 8.6,0 0,89.6 -8.6,0 0,-89.6 z m 195.4,306.9 -191.3,0 34.5,-36 -30.2,-135.5 c 0,-1.5 1.4,-1.5 1.4,0 l 40.3,126.8 145.3,44.7 0,0 z M 657.5,357.3 C 647.5,296.7 600,247.7 538.1,236.2 l 4.4,11.5 c 51.8,11.5 93.5,53.3 105,106.7 l 10,2.9 0,0 z m -145.2,216.2 0,-190.3 34.5,33.2 136.6,-28.9 c 0,0 1.5,1.5 0,1.5 l -128,40.3 -43.1,144.2 0,0 z m 24.4,-44.7 c 61.9,-10.1 110.8,-59.1 120.8,-119.6 l -11.5,4.3 c -11.5,51.9 -53.2,93.7 -105,103.8 l -4.3,11.5 0,0 z m -215.8,-145.6 191.4,0 -34.6,34.6 30.2,135.5 c 0,1.5 -1.4,1.5 -1.4,0 l -40.3,-126.8 -145.3,-43.3 0,0 z m 46.1,24.5 c 10,60.6 57.5,109.6 119.4,121.1 L 482,517.3 C 430.3,505.7 388.5,463.9 377,410.6 l -10,-2.9 0,0 z m 145.3,-216.2 0,191.7 -34.6,-34.6 -136.6,28.8 c 0,0 -1.5,-1.4 0,-1.4 l 128,-40.4 43.2,-144.1 0,0 z m -24.5,44.7 C 425.9,246.3 377,295.3 367,355.8 l 11.5,-4.3 c 11.5,-51.9 53.2,-93.7 105,-103.8 l 4.3,-11.5 0,0 z"
       id="path6008"
       style="fill:#ffffff" />
  </g>
</svg>
